# MagicaVoxel @ Ephtracy

# group
o 

# material
mtllib breaker.vox.mtl
usemtl palette

# normals
vn -1 0 0
vn 1 0 0
vn 0 0 1
vn 0 0 -1
vn 0 -1 0
vn 0 1 0

# texcoords
vt 0.00585938 0.5
vt 0.00976562 0.5
vt 0.197266 0.5

# verts
v 3.5 2 1.2
v 3.5 2 -0.8
v 3.5 2.6 0.9
v 3.5 2.6 -0.5
v 3.5 2.7 1
v 3.5 2.7 0.9
v 3.5 2.7 -0.5
v 3.5 2.7 -0.6
v 3.5 2.8 0.2
v 3.5 2.8 0
v 3.5 2.9 1
v 3.5 2.9 0.9
v 3.5 2.9 0.8
v 3.5 2.9 0.3
v 3.5 2.9 0.2
v 3.5 2.9 0.1
v 3.5 2.9 0
v 3.5 2.9 -0.4
v 3.5 2.9 -0.5
v 3.5 2.9 -0.6
v 3.5 3 0.4
v 3.5 3 0.3
v 3.5 3 0.2
v 3.5 3 0.1
v 3.5 3.1 0.9
v 3.5 3.1 0.8
v 3.5 3.1 0.7
v 3.5 3.1 0.5
v 3.5 3.1 0.4
v 3.5 3.1 0.3
v 3.5 3.1 0.2
v 3.5 3.1 -0.3
v 3.5 3.1 -0.4
v 3.5 3.1 -0.5
v 3.5 3.2 0.3
v 3.5 3.2 -0.0999999
v 3.5 3.3 0.8
v 3.5 3.3 0.7
v 3.5 3.3 0.6
v 3.5 3.3 0.5
v 3.5 3.3 0.1
v 3.5 3.3 -0.2
v 3.5 3.3 -0.3
v 3.5 3.3 -0.4
v 3.5 3.4 0.2
v 3.5 3.4 0.1
v 3.5 3.4 0
v 3.5 3.4 -0.0999999
v 3.5 3.5 0.7
v 3.5 3.5 0.6
v 3.5 3.5 0.5
v 3.5 3.5 0.3
v 3.5 3.5 0.2
v 3.5 3.5 0.1
v 3.5 3.5 0
v 3.5 3.5 -0.0999999
v 3.5 3.5 -0.2
v 3.5 3.5 -0.3
v 3.5 3.6 0.2
v 3.5 3.6 0.1
v 3.5 3.7 0.6
v 3.5 3.7 0.5
v 3.5 3.7 0.4
v 3.5 3.7 0.3
v 3.5 3.7 0.2
v 3.5 3.7 0
v 3.5 3.7 -0.0999999
v 3.5 3.7 -0.2
v 3.5 3.9 0.5
v 3.5 3.9 0.4
v 3.5 3.9 0.3
v 3.5 3.9 0.1
v 3.5 3.9 0
v 3.5 3.9 -0.0999999
v 3.5 4 0.4
v 3.5 4 0.3
v 3.5 4 0.1
v 3.5 4 0
v 3.5 4.1 0.3
v 3.5 4.1 0.1
v 3.5 4.4 1.2
v 3.5 4.4 -0.8
v 3.8 2 1.2
v 3.8 2 -0.8
v 3.8 4.4 1.2
v 3.8 4.4 -0.8
v 3.5 2 1.2
v 3.5 4.4 1.2
v 3.8 2 1.2
v 3.8 4.4 1.2
v 3.5 2 -0.8
v 3.5 4.4 -0.8
v 3.8 2 -0.8
v 3.8 4.4 -0.8
v 3.5 2 1.2
v 3.8 2 1.2
v 3.5 2 -0.8
v 3.8 2 -0.8
v 3.5 4.4 1.2
v 3.8 4.4 1.2
v 3.5 4.4 -0.8
v 3.8 4.4 -0.8

# faces
f 3/2/1 2/2/1 1/2/1
f 4/2/1 2/2/1 3/2/1
f 5/2/1 3/2/1 1/2/1
f 6/1/1 4/1/1 3/1/1
f 6/2/1 3/2/1 5/2/1
f 7/2/1 2/2/1 4/2/1
f 7/1/1 4/1/1 6/1/1
f 8/2/1 2/2/1 7/2/1
f 9/3/1 7/3/1 6/3/1
f 10/3/1 7/3/1 9/3/1
f 11/1/1 6/1/1 5/1/1
f 11/2/1 5/2/1 1/2/1
f 12/3/1 9/3/1 6/3/1
f 12/1/1 6/1/1 11/1/1
f 13/3/1 9/3/1 12/3/1
f 14/3/1 9/3/1 13/3/1
f 15/1/1 10/1/1 9/1/1
f 15/3/1 9/3/1 14/3/1
f 16/1/1 10/1/1 15/1/1
f 17/3/1 7/3/1 10/3/1
f 17/1/1 10/1/1 16/1/1
f 18/3/1 7/3/1 17/3/1
f 19/1/1 8/1/1 7/1/1
f 19/3/1 7/3/1 18/3/1
f 20/2/1 2/2/1 8/2/1
f 20/1/1 8/1/1 19/1/1
f 21/3/1 14/3/1 13/3/1
f 22/1/1 16/1/1 15/1/1
f 22/3/1 14/3/1 21/3/1
f 22/1/1 15/1/1 14/1/1
f 23/1/1 16/1/1 22/1/1
f 24/3/1 18/3/1 17/3/1
f 24/1/1 16/1/1 23/1/1
f 24/3/1 17/3/1 16/3/1
f 25/2/1 12/2/1 11/2/1
f 25/1/1 13/1/1 12/1/1
f 26/3/1 21/3/1 13/3/1
f 26/1/1 13/1/1 25/1/1
f 27/3/1 21/3/1 26/3/1
f 28/3/1 21/3/1 27/3/1
f 29/1/1 23/1/1 22/1/1
f 29/3/1 21/3/1 28/3/1
f 29/1/1 22/1/1 21/1/1
f 30/1/1 23/1/1 29/1/1
f 31/3/1 24/3/1 23/3/1
f 31/1/1 23/1/1 30/1/1
f 32/3/1 18/3/1 24/3/1
f 32/3/1 24/3/1 31/3/1
f 33/1/1 19/1/1 18/1/1
f 33/3/1 18/3/1 32/3/1
f 34/2/1 20/2/1 19/2/1
f 34/1/1 19/1/1 33/1/1
f 35/3/1 32/3/1 31/3/1
f 35/3/1 31/3/1 30/3/1
f 35/1/1 30/1/1 29/1/1
f 35/1/1 29/1/1 28/1/1
f 36/3/1 32/3/1 35/3/1
f 37/2/1 26/2/1 25/2/1
f 37/1/1 27/1/1 26/1/1
f 38/3/1 28/3/1 27/3/1
f 38/1/1 27/1/1 37/1/1
f 39/3/1 28/3/1 38/3/1
f 40/1/1 36/1/1 35/1/1
f 40/3/1 28/3/1 39/3/1
f 40/1/1 35/1/1 28/1/1
f 41/1/1 36/1/1 40/1/1
f 42/3/1 32/3/1 36/3/1
f 43/1/1 33/1/1 32/1/1
f 43/3/1 32/3/1 42/3/1
f 44/2/1 34/2/1 33/2/1
f 44/1/1 33/1/1 43/1/1
f 45/3/1 40/3/1 39/3/1
f 45/3/1 41/3/1 40/3/1
f 46/1/1 36/1/1 41/1/1
f 46/3/1 41/3/1 45/3/1
f 47/1/1 36/1/1 46/1/1
f 48/3/1 42/3/1 36/3/1
f 48/1/1 36/1/1 47/1/1
f 49/1/1 39/1/1 38/1/1
f 49/2/1 38/2/1 37/2/1
f 50/3/1 45/3/1 39/3/1
f 50/1/1 39/1/1 49/1/1
f 51/3/1 45/3/1 50/3/1
f 52/3/1 45/3/1 51/3/1
f 53/1/1 47/1/1 46/1/1
f 53/3/1 45/3/1 52/3/1
f 53/1/1 46/1/1 45/1/1
f 54/1/1 47/1/1 53/1/1
f 55/3/1 48/3/1 47/3/1
f 55/1/1 47/1/1 54/1/1
f 56/3/1 42/3/1 48/3/1
f 56/3/1 48/3/1 55/3/1
f 57/1/1 43/1/1 42/1/1
f 57/3/1 42/3/1 56/3/1
f 58/2/1 44/2/1 43/2/1
f 58/1/1 43/1/1 57/1/1
f 59/1/1 54/1/1 53/1/1
f 59/1/1 53/1/1 52/1/1
f 60/3/1 56/3/1 55/3/1
f 60/1/1 54/1/1 59/1/1
f 60/3/1 55/3/1 54/3/1
f 61/1/1 51/1/1 50/1/1
f 61/2/1 50/2/1 49/2/1
f 62/3/1 52/3/1 51/3/1
f 62/1/1 51/1/1 61/1/1
f 63/3/1 52/3/1 62/3/1
f 64/1/1 59/1/1 52/1/1
f 64/3/1 52/3/1 63/3/1
f 65/3/1 60/3/1 59/3/1
f 65/1/1 59/1/1 64/1/1
f 66/3/1 56/3/1 60/3/1
f 66/3/1 60/3/1 65/3/1
f 67/1/1 57/1/1 56/1/1
f 67/3/1 56/3/1 66/3/1
f 68/2/1 58/2/1 57/2/1
f 68/1/1 57/1/1 67/1/1
f 69/1/1 63/1/1 62/1/1
f 69/2/1 62/2/1 61/2/1
f 70/3/1 66/3/1 65/3/1
f 70/1/1 63/1/1 69/1/1
f 70/3/1 65/3/1 64/3/1
f 70/3/1 64/3/1 63/3/1
f 71/3/1 66/3/1 70/3/1
f 72/3/1 66/3/1 71/3/1
f 73/1/1 67/1/1 66/1/1
f 73/3/1 66/3/1 72/3/1
f 74/2/1 68/2/1 67/2/1
f 74/1/1 67/1/1 73/1/1
f 75/2/1 70/2/1 69/2/1
f 75/1/1 71/1/1 70/1/1
f 76/3/1 72/3/1 71/3/1
f 76/1/1 71/1/1 75/1/1
f 77/1/1 73/1/1 72/1/1
f 77/3/1 72/3/1 76/3/1
f 78/2/1 74/2/1 73/2/1
f 78/1/1 73/1/1 77/1/1
f 79/2/1 76/2/1 75/2/1
f 79/1/1 77/1/1 76/1/1
f 80/2/1 78/2/1 77/2/1
f 80/1/1 77/1/1 79/1/1
f 81/2/1 25/2/1 11/2/1
f 81/2/1 37/2/1 25/2/1
f 81/2/1 80/2/1 79/2/1
f 81/2/1 79/2/1 75/2/1
f 81/2/1 11/2/1 1/2/1
f 81/2/1 49/2/1 37/2/1
f 81/2/1 69/2/1 61/2/1
f 81/2/1 61/2/1 49/2/1
f 81/2/1 75/2/1 69/2/1
f 82/2/1 78/2/1 80/2/1
f 82/2/1 80/2/1 81/2/1
f 82/2/1 2/2/1 20/2/1
f 82/2/1 44/2/1 58/2/1
f 82/2/1 34/2/1 44/2/1
f 82/2/1 58/2/1 68/2/1
f 82/2/1 74/2/1 78/2/1
f 82/2/1 68/2/1 74/2/1
f 82/2/1 20/2/1 34/2/1
f 83/2/2 84/2/2 85/2/2
f 85/2/2 84/2/2 86/2/2
f 89/2/3 88/2/3 87/2/3
f 90/2/3 88/2/3 89/2/3
f 91/2/4 92/2/4 93/2/4
f 93/2/4 92/2/4 94/2/4
f 97/2/5 96/2/5 95/2/5
f 98/2/5 96/2/5 97/2/5
f 99/2/6 100/2/6 101/2/6
f 101/2/6 100/2/6 102/2/6
