# MagicaVoxel @ Ephtracy

# group
o 

# material
mtllib cat.mtl
usemtl palette

# normals
vn -1 0 0
vn 1 0 0
vn 0 0 1
vn 0 0 -1
vn 0 -1 0
vn 0 1 0

# texcoords
vt 0.0996094 0.5
vt 0.251953 0.5
vt 0.255859 0.5
vt 0.259766 0.5
vt 0.263672 0.5
vt 0.267578 0.5
vt 0.271484 0.5
vt 0.279297 0.5

# verts
v -1.1 0 0.1
v -1.1 0 -0.4
v -1.1 0 -0.6
v -1.1 0 -1.3
v -1.1 0.3 0.1
v -1.1 0.3 0
v -1.1 0.4 -0.3
v -1.1 0.4 -0.4
v -1.1 0.4 -0.6
v -1.1 0.4 -0.7
v -1.1 0.5 0
v -1.1 0.5 -0.3
v -1.1 0.5 -0.7
v -1.1 0.5 -0.8
v -1.1 0.6 -0.8
v -1.1 0.6 -0.9
v -1.1 0.6 -1.2
v -1.1 0.6 -1.3
v -1.1 0.8 -0.9
v -1.1 0.8 -1.2
v -1 0 0.2
v -1 0 0.1
v -1 0 -0.4
v -1 0 -0.5
v -1 0 -1.3
v -1 0 -1.4
v -1 0.1 -1.4
v -1 0.1 -1.5
v -1 0.2 -1.3
v -1 0.2 -1.4
v -1 0.3 0.1
v -1 0.3 0
v -1 0.3 -1.4
v -1 0.3 -1.5
v -1 0.4 0.2
v -1 0.4 0.1
v -1 0.4 -0.3
v -1 0.4 -0.4
v -1 0.4 -0.5
v -1 0.4 -0.6
v -1 0.4 -0.7
v -1 0.5 0
v -1 0.5 -0.3
v -1 0.5 -0.7
v -1 0.5 -0.8
v -1 0.6 -0.2
v -1 0.6 -0.4
v -1 0.6 -0.6
v -1 0.6 -0.7
v -1 0.6 -0.8
v -1 0.6 -0.9
v -1 0.6 -1.2
v -1 0.6 -1.3
v -1 0.6 -1.4
v -1 0.6 -1.5
v -1 0.7 0.1
v -1 0.7 -0.2
v -1 0.7 -0.7
v -1 0.7 -0.8
v -1 0.7 -1.3
v -1 0.7 -1.4
v -1 0.8 -0.8
v -1 0.8 -0.9
v -1 0.8 -1.2
v -1 0.8 -1.3
v -1 0.9 -0.9
v -1 0.9 -1.2
v -0.9 0 -0.5
v -0.9 0 -0.6
v -0.9 0 -1.4
v -0.9 0 -1.5
v -0.9 0.1 -1.4
v -0.9 0.1 -1.5
v -0.9 0.1 -1.6
v -0.9 0.3 -1.5
v -0.9 0.3 -1.6
v -0.9 0.4 0.2
v -0.9 0.4 0.1
v -0.9 0.4 -0.4
v -0.9 0.4 -0.5
v -0.9 0.5 -0.4
v -0.9 0.5 -0.6
v -0.9 0.6 0.6
v -0.9 0.6 0.5
v -0.9 0.6 -1.4
v -0.9 0.6 -1.5
v -0.9 0.6 -1.6
v -0.9 0.7 0.6
v -0.9 0.7 0.5
v -0.9 0.7 0.2
v -0.9 0.7 0.1
v -0.9 0.7 -1.3
v -0.9 0.7 -1.4
v -0.9 0.7 -1.5
v -0.9 0.8 0.7
v -0.9 0.8 0.6
v -0.9 0.8 -1.3
v -0.9 0.8 -1.4
v -0.9 0.9 0.7
v -0.9 0.9 0.6
v -0.9 1.2 0.4
v -0.9 1.2 0.3
v -0.9 1.2 0.2
v -0.9 1.3 0.4
v -0.9 1.3 0.3
v -0.9 1.3 0.2
v -0.9 1.6 0.3
v -0.9 1.6 0.2
v -0.8 0 0.3
v -0.8 0 0.2
v -0.8 0.2 -1.6
v -0.8 0.2 -1.7
v -0.8 0.3 0.4
v -0.8 0.3 0.3
v -0.8 0.3 -1.6
v -0.8 0.5 -1.6
v -0.8 0.5 -1.7
v -0.8 0.6 0.5
v -0.8 0.6 0.4
v -0.8 0.7 0.6
v -0.8 0.7 0.5
v -0.8 0.7 0.2
v -0.8 0.7 0.1
v -0.8 0.8 0.6
v -0.8 0.8 -1.2
v -0.8 0.8 -1.3
v -0.8 0.9 0.6
v -0.8 0.9 0.5
v -0.8 0.9 -1.2
v -0.8 0.9 -1.3
v -0.8 1.1 0.6
v -0.8 1.1 0.5
v -0.8 1.2 0.6
v -0.8 1.2 0.5
v -0.8 1.2 0.4
v -0.8 1.2 0.3
v -0.8 1.2 0.2
v -0.8 1.2 0.1
v -0.8 1.3 0.5
v -0.8 1.3 0.4
v -0.8 1.3 0.3
v -0.8 1.5 0.4
v -0.8 1.5 0.3
v -0.7 0.1 0.4
v -0.7 0.1 0.3
v -0.7 0.2 0.5
v -0.7 0.2 0.4
v -0.7 0.3 0.4
v -0.7 0.3 0.3
v -0.7 0.6 0.5
v -0.7 0.6 0.4
v -0.7 0.7 0.1
v -0.7 0.7 0
v -0.7 1.2 0.6
v -0.7 1.2 0.5
v -0.7 1.2 0.2
v -0.7 1.2 0.1
v -0.7 1.2 0
v -0.7 1.3 0.6
v -0.7 1.3 0.5
v -0.7 1.3 0.2
v -0.7 1.3 0.1
v -0.6 0.7 0.7
v -0.6 0.7 0.6
v -0.6 0.7 0
v -0.6 0.7 -0.1
v -0.6 0.9 0.7
v -0.6 0.9 0.6
v -0.6 1.1 0
v -0.6 1.1 -0.1
v -0.3 1.3 0.3
v -0.3 1.3 0.2
v -0.3 1.4 0.3
v -0.3 1.4 0.2
v -0.2 1.3 0.4
v -0.2 1.3 0.3
v -0.2 1.4 0.4
v -0.2 1.4 0.3
v -0.2 1.4 0.2
v -0.2 1.5 0.3
v -0.2 1.5 0.2
v -0.1 0.8 0.7
v -0.1 0.8 0.6
v -0.1 0.9 0.7
v -0.1 0.9 0.6
v -0.1 1.4 0.4
v -0.1 1.4 0.3
v -0.1 1.5 0.4
v -0.1 1.5 0.3
v -0.1 1.5 0.2
v -0.1 1.6 0.3
v -0.1 1.6 0.2
v 0 0.5 -0.3
v 0 0.5 -0.4
v 0 0.6 -0.3
v 0 0.6 -0.4
v 0.2 0 -0.6
v 0.2 0 -0.7
v 0.2 0.4 -0.6
v 0.2 0.4 -0.7
v -0.9 0.5 -0.3
v -0.9 0.5 -0.4
v -0.9 0.6 -0.3
v -0.9 0.6 -0.4
v -0.7 0.8 0.7
v -0.7 0.8 0.6
v -0.7 0.9 0.7
v -0.7 0.9 0.6
v -0.7 1.4 0.4
v -0.7 1.4 0.3
v -0.7 1.5 0.4
v -0.7 1.5 0.3
v -0.7 1.5 0.2
v -0.7 1.6 0.3
v -0.7 1.6 0.2
v -0.6 1.3 0.4
v -0.6 1.3 0.3
v -0.6 1.4 0.4
v -0.6 1.4 0.3
v -0.6 1.4 0.2
v -0.6 1.5 0.3
v -0.6 1.5 0.2
v -0.5 1.3 0.3
v -0.5 1.3 0.2
v -0.5 1.4 0.3
v -0.5 1.4 0.2
v -0.2 0.7 0.7
v -0.2 0.7 0.6
v -0.2 0.7 0
v -0.2 0.7 -0.1
v -0.2 0.9 0.7
v -0.2 0.9 0.6
v -0.2 1.1 0
v -0.2 1.1 -0.1
v -0.1 0.1 0.4
v -0.1 0.1 0.3
v -0.1 0.2 0.5
v -0.1 0.2 0.4
v -0.1 0.3 0.4
v -0.1 0.3 0.3
v -0.1 0.6 0.5
v -0.1 0.6 0.4
v -0.1 0.7 0.1
v -0.1 0.7 0
v -0.1 1.2 0.6
v -0.1 1.2 0.5
v -0.1 1.2 0.1
v -0.1 1.2 0
v -0.1 1.3 0.6
v -0.1 1.3 0.5
v 0 0 0.3
v 0 0 0.2
v 0 0 -0.5
v 0 0 -0.6
v 0 0.2 -1.6
v 0 0.2 -1.7
v 0 0.3 0.4
v 0 0.3 0.3
v 0 0.4 -0.4
v 0 0.4 -0.5
v 0 0.5 -0.4
v 0 0.5 -0.6
v 0 0.5 -1.6
v 0 0.5 -1.7
v 0 0.6 0.5
v 0 0.6 0.4
v 0 0.6 0.3
v 0 0.6 0.2
v 0 0.7 0.6
v 0 0.7 0.5
v 0 0.7 0.4
v 0 0.7 0.3
v 0 0.7 0.2
v 0 0.7 0.1
v 0 0.8 0.6
v 0 0.8 -1.2
v 0 0.8 -1.3
v 0 0.9 0.6
v 0 0.9 0.5
v 0 0.9 0.3
v 0 0.9 0.2
v 0 0.9 -1.2
v 0 0.9 -1.3
v 0 1.1 0.6
v 0 1.1 0.5
v 0 1.1 0.4
v 0 1.2 0.6
v 0 1.2 0.5
v 0 1.2 0.4
v 0 1.2 0.3
v 0 1.2 0.2
v 0 1.3 0.5
v 0 1.3 0.4
v 0 1.3 0.3
v 0 1.3 0.2
v 0 1.3 0.1
v 0 1.5 0.4
v 0 1.5 0.3
v 0.1 0 -0.4
v 0.1 0 -0.5
v 0.1 0 -0.6
v 0.1 0 -0.7
v 0.1 0 -1.4
v 0.1 0 -1.5
v 0.1 0.1 -1.4
v 0.1 0.1 -1.5
v 0.1 0.1 -1.6
v 0.1 0.4 0.2
v 0.1 0.4 0.1
v 0.1 0.4 -0.3
v 0.1 0.4 -0.4
v 0.1 0.4 -0.5
v 0.1 0.6 0.6
v 0.1 0.6 0.5
v 0.1 0.6 -0.3
v 0.1 0.6 -0.4
v 0.1 0.6 -0.6
v 0.1 0.6 -0.7
v 0.1 0.6 -1.4
v 0.1 0.6 -1.5
v 0.1 0.6 -1.6
v 0.1 0.7 0.6
v 0.1 0.7 0.5
v 0.1 0.7 0.2
v 0.1 0.7 0.1
v 0.1 0.7 -1.3
v 0.1 0.7 -1.4
v 0.1 0.7 -1.5
v 0.1 0.8 0.7
v 0.1 0.8 0.6
v 0.1 0.8 -1.3
v 0.1 0.8 -1.4
v 0.1 0.9 0.7
v 0.1 0.9 0.6
v 0.1 1.2 0.4
v 0.1 1.2 0.3
v 0.1 1.2 0.2
v 0.1 1.3 0.4
v 0.1 1.3 0.3
v 0.1 1.3 0.2
v 0.1 1.6 0.3
v 0.1 1.6 0.2
v 0.2 0 0.2
v 0.2 0 0.1
v 0.2 0 -1.3
v 0.2 0 -1.4
v 0.2 0.1 -1.4
v 0.2 0.1 -1.5
v 0.2 0.3 0.1
v 0.2 0.3 0
v 0.2 0.4 0.2
v 0.2 0.4 0.1
v 0.2 0.5 0
v 0.2 0.5 -0.3
v 0.2 0.5 -0.7
v 0.2 0.5 -0.8
v 0.2 0.6 -0.2
v 0.2 0.6 -0.3
v 0.2 0.6 -0.8
v 0.2 0.6 -0.9
v 0.2 0.6 -1.2
v 0.2 0.6 -1.3
v 0.2 0.6 -1.4
v 0.2 0.6 -1.5
v 0.2 0.7 0.1
v 0.2 0.7 -0.2
v 0.2 0.7 -0.7
v 0.2 0.7 -0.8
v 0.2 0.7 -1.3
v 0.2 0.7 -1.4
v 0.2 0.8 -0.8
v 0.2 0.8 -0.9
v 0.2 0.8 -1
v 0.2 0.8 -1.2
v 0.2 0.8 -1.3
v 0.2 0.9 -0.9
v 0.2 0.9 -1
v 0.2 0.9 -1.2
v 0.3 0 0.1
v 0.3 0 -0.4
v 0.3 0 -0.6
v 0.3 0 -1.3
v 0.3 0.3 0.1
v 0.3 0.3 0
v 0.3 0.4 -0.3
v 0.3 0.4 -0.4
v 0.3 0.4 -0.6
v 0.3 0.4 -0.7
v 0.3 0.5 0
v 0.3 0.5 -0.3
v 0.3 0.5 -0.7
v 0.3 0.5 -0.8
v 0.3 0.6 -0.8
v 0.3 0.6 -0.9
v 0.3 0.6 -1.2
v 0.3 0.6 -1.3
v 0.3 0.8 -0.9
v 0.3 0.8 -1.2
v -0.9 0.8 0.7
v -0.9 0.9 0.7
v -0.7 0.8 0.7
v -0.7 0.9 0.7
v -0.6 0.7 0.7
v -0.6 0.9 0.7
v -0.5 0.7 0.7
v -0.5 0.9 0.7
v -0.3 0.7 0.7
v -0.3 0.9 0.7
v -0.2 0.7 0.7
v -0.2 0.9 0.7
v -0.1 0.8 0.7
v -0.1 0.9 0.7
v 0.1 0.8 0.7
v 0.1 0.9 0.7
v -0.9 0.6 0.6
v -0.9 0.7 0.6
v -0.8 0.7 0.6
v -0.8 0.8 0.6
v -0.8 0.9 0.6
v -0.8 1.1 0.6
v -0.8 1.2 0.6
v -0.7 0.6 0.6
v -0.7 0.7 0.6
v -0.7 0.8 0.6
v -0.7 0.9 0.6
v -0.7 1.1 0.6
v -0.7 1.2 0.6
v -0.7 1.3 0.6
v -0.6 0.7 0.6
v -0.6 0.9 0.6
v -0.6 1 0.6
v -0.6 1.1 0.6
v -0.6 1.2 0.6
v -0.6 1.3 0.6
v -0.5 0.7 0.6
v -0.5 0.9 0.6
v -0.5 1 0.6
v -0.5 1.1 0.6
v -0.5 1.2 0.6
v -0.5 1.3 0.6
v -0.3 0.7 0.6
v -0.3 0.9 0.6
v -0.3 1 0.6
v -0.3 1.1 0.6
v -0.3 1.2 0.6
v -0.3 1.3 0.6
v -0.2 0.7 0.6
v -0.2 0.9 0.6
v -0.2 1 0.6
v -0.2 1.1 0.6
v -0.1 0.6 0.6
v -0.1 0.7 0.6
v -0.1 0.8 0.6
v -0.1 0.9 0.6
v -0.1 1.1 0.6
v -0.1 1.2 0.6
v -0.1 1.3 0.6
v 0 0.7 0.6
v 0 0.8 0.6
v 0 0.9 0.6
v 0 1.1 0.6
v 0 1.2 0.6
v 0.1 0.6 0.6
v 0.1 0.7 0.6
v -0.8 1.2 0.5
v -0.8 1.3 0.5
v -0.7 0.2 0.5
v -0.7 0.6 0.5
v -0.7 1.2 0.5
v -0.7 1.3 0.5
v -0.6 0.3 0.5
v -0.6 0.6 0.5
v -0.5 0.2 0.5
v -0.5 0.3 0.5
v -0.3 0.2 0.5
v -0.3 0.3 0.5
v -0.2 0.3 0.5
v -0.2 0.6 0.5
v -0.1 0.2 0.5
v -0.1 0.6 0.5
v -0.1 1.2 0.5
v -0.1 1.3 0.5
v 0 1.2 0.5
v 0 1.3 0.5
v -0.9 1.2 0.4
v -0.9 1.3 0.4
v -0.8 0.3 0.4
v -0.8 0.6 0.4
v -0.8 1.2 0.4
v -0.8 1.3 0.4
v -0.8 1.5 0.4
v -0.7 0.1 0.4
v -0.7 0.2 0.4
v -0.7 0.3 0.4
v -0.7 0.6 0.4
v -0.7 1.4 0.4
v -0.7 1.5 0.4
v -0.6 0.1 0.4
v -0.6 0.2 0.4
v -0.6 1.3 0.4
v -0.6 1.4 0.4
v -0.5 0.2 0.4
v -0.3 0.1 0.4
v -0.3 0.2 0.4
v -0.2 1.3 0.4
v -0.2 1.4 0.4
v -0.1 0.1 0.4
v -0.1 0.2 0.4
v -0.1 0.3 0.4
v -0.1 0.6 0.4
v -0.1 1.3 0.4
v -0.1 1.4 0.4
v -0.1 1.5 0.4
v 0 0.3 0.4
v 0 0.6 0.4
v 0 1.2 0.4
v 0 1.3 0.4
v 0 1.5 0.4
v 0.1 1.2 0.4
v 0.1 1.3 0.4
v -0.9 1.3 0.3
v -0.9 1.6 0.3
v -0.8 0 0.3
v -0.8 0.3 0.3
v -0.8 1.3 0.3
v -0.8 1.5 0.3
v -0.7 0 0.3
v -0.7 0.1 0.3
v -0.7 0.3 0.3
v -0.7 1.4 0.3
v -0.7 1.5 0.3
v -0.7 1.6 0.3
v -0.6 0.1 0.3
v -0.6 1.3 0.3
v -0.6 1.4 0.3
v -0.6 1.5 0.3
v -0.5 0 0.3
v -0.5 0.1 0.3
v -0.5 1.3 0.3
v -0.5 1.4 0.3
v -0.3 0.1 0.3
v -0.3 1.3 0.3
v -0.3 1.4 0.3
v -0.2 1.3 0.3
v -0.2 1.4 0.3
v -0.2 1.5 0.3
v -0.1 0.1 0.3
v -0.1 0.3 0.3
v -0.1 1.4 0.3
v -0.1 1.5 0.3
v -0.1 1.6 0.3
v 0 0 0.3
v 0 0.3 0.3
v 0 1.3 0.3
v 0 1.5 0.3
v 0.1 1.3 0.3
v 0.1 1.6 0.3
v -1 0 0.2
v -1 0.4 0.2
v -0.9 0.4 0.2
v -0.9 0.7 0.2
v -0.8 0 0.2
v -0.8 0.7 0.2
v 0 0 0.2
v 0 0.6 0.2
v 0 0.7 0.2
v 0.1 0.4 0.2
v 0.1 0.7 0.2
v 0.2 0 0.2
v 0.2 0.4 0.2
v -1.1 0 0.1
v -1.1 0.3 0.1
v -1 0 0.1
v -1 0.3 0.1
v -1 0.4 0.1
v -1 0.7 0.1
v -0.9 0.4 0.1
v -0.9 0.7 0.1
v 0.1 0.4 0.1
v 0.1 0.7 0.1
v 0.2 0 0.1
v 0.2 0.3 0.1
v 0.2 0.4 0.1
v 0.2 0.7 0.1
v 0.3 0 0.1
v 0.3 0.3 0.1
v -1.1 0.3 0
v -1.1 0.5 0
v -1 0.3 0
v -1 0.5 0
v 0.2 0.3 0
v 0.2 0.5 0
v 0.3 0.3 0
v 0.3 0.5 0
v -1.1 0 -0.6
v -1.1 0.4 -0.6
v -1 0 -0.6
v -1 0.4 -0.6
v -1 0.6 -0.6
v -0.9 0 -0.6
v -0.9 0.5 -0.6
v 0 0 -0.6
v 0 0.5 -0.6
v 0.1 0 -0.6
v 0.1 0.6 -0.6
v 0.2 0 -0.6
v 0.2 0.4 -0.6
v 0.3 0 -0.6
v 0.3 0.4 -0.6
v -1.1 0.4 -0.7
v -1.1 0.5 -0.7
v -1 0.4 -0.7
v -1 0.5 -0.7
v -1 0.6 -0.7
v -1 0.7 -0.7
v 0.1 0 -0.7
v 0.1 0.6 -0.7
v 0.2 0 -0.7
v 0.2 0.4 -0.7
v 0.2 0.5 -0.7
v 0.2 0.7 -0.7
v 0.3 0.4 -0.7
v 0.3 0.5 -0.7
v -1.1 0.5 -0.8
v -1.1 0.6 -0.8
v -1 0.5 -0.8
v -1 0.6 -0.8
v -1 0.7 -0.8
v -1 0.8 -0.8
v 0.2 0.5 -0.8
v 0.2 0.6 -0.8
v 0.2 0.7 -0.8
v 0.2 0.8 -0.8
v 0.3 0.5 -0.8
v 0.3 0.6 -0.8
v -1.1 0.6 -0.9
v -1.1 0.8 -0.9
v -1 0.6 -0.9
v -1 0.8 -0.9
v -1 0.9 -0.9
v 0.2 0.6 -0.9
v 0.2 0.8 -0.9
v 0.2 0.9 -0.9
v 0.3 0.6 -0.9
v 0.3 0.8 -0.9
v -0.9 0.8 0.6
v -0.9 0.9 0.6
v -0.8 0.8 0.6
v -0.8 0.9 0.6
v 0 0.8 0.6
v 0 0.9 0.6
v 0.1 0.8 0.6
v 0.1 0.9 0.6
v -0.9 0.6 0.5
v -0.9 0.7 0.5
v -0.8 0.6 0.5
v -0.8 0.7 0.5
v 0 0.6 0.5
v 0 0.7 0.5
v 0.1 0.6 0.5
v 0.1 0.7 0.5
v -0.9 1.2 0.2
v -0.9 1.3 0.2
v -0.9 1.6 0.2
v -0.8 1.2 0.2
v -0.8 1.3 0.2
v -0.8 1.5 0.2
v -0.7 1.2 0.2
v -0.7 1.3 0.2
v -0.7 1.4 0.2
v -0.7 1.5 0.2
v -0.7 1.6 0.2
v -0.6 1.3 0.2
v -0.6 1.4 0.2
v -0.6 1.5 0.2
v -0.5 1.3 0.2
v -0.5 1.4 0.2
v -0.3 1.3 0.2
v -0.3 1.4 0.2
v -0.2 1.3 0.2
v -0.2 1.4 0.2
v -0.2 1.5 0.2
v -0.1 1.4 0.2
v -0.1 1.5 0.2
v -0.1 1.6 0.2
v 0 1.2 0.2
v 0 1.3 0.2
v 0 1.5 0.2
v 0.1 1.2 0.2
v 0.1 1.3 0.2
v 0.1 1.6 0.2
v -0.8 0.7 0.1
v -0.8 1.2 0.1
v -0.7 0.7 0.1
v -0.7 1.2 0.1
v -0.7 1.3 0.1
v -0.1 0.7 0.1
v -0.1 1.2 0.1
v 0 0.7 0.1
v 0 1.3 0.1
v -0.7 0.7 0
v -0.7 1.2 0
v -0.6 0.7 0
v -0.6 1.1 0
v -0.2 0.7 0
v -0.2 1.1 0
v -0.1 0.7 0
v -0.1 1.2 0
v -0.6 0.7 -0.1
v -0.6 1.1 -0.1
v -0.2 0.7 -0.1
v -0.2 1.1 -0.1
v -1 0.6 -0.2
v -1 0.7 -0.2
v 0.2 0.6 -0.2
v 0.2 0.7 -0.2
v -1.1 0.4 -0.3
v -1.1 0.5 -0.3
v -1 0.4 -0.3
v -1 0.5 -0.3
v -0.9 0.5 -0.3
v -0.9 0.6 -0.3
v 0 0.5 -0.3
v 0 0.6 -0.3
v 0.1 0.4 -0.3
v 0.1 0.6 -0.3
v 0.2 0.4 -0.3
v 0.2 0.5 -0.3
v 0.2 0.6 -0.3
v 0.3 0.4 -0.3
v 0.3 0.5 -0.3
v -1.1 0 -0.4
v -1.1 0.4 -0.4
v -1 0 -0.4
v -1 0.4 -0.4
v -1 0.6 -0.4
v -0.9 0.4 -0.4
v -0.9 0.5 -0.4
v -0.9 0.6 -0.4
v 0 0.4 -0.4
v 0 0.5 -0.4
v 0 0.6 -0.4
v 0.1 0 -0.4
v 0.1 0.4 -0.4
v 0.1 0.6 -0.4
v 0.2 0 -0.4
v 0.2 0.4 -0.4
v 0.3 0 -0.4
v 0.3 0.4 -0.4
v -1 0 -0.5
v -1 0.4 -0.5
v -0.9 0 -0.5
v -0.9 0.4 -0.5
v 0 0 -0.5
v 0 0.4 -0.5
v 0.1 0 -0.5
v 0.1 0.4 -0.5
v -1.1 0.6 -1.2
v -1.1 0.8 -1.2
v -1 0.6 -1.2
v -1 0.8 -1.2
v -1 0.9 -1.2
v -0.8 0.8 -1.2
v -0.8 0.9 -1.2
v 0 0.8 -1.2
v 0 0.9 -1.2
v 0.2 0.6 -1.2
v 0.2 0.8 -1.2
v 0.2 0.9 -1.2
v 0.3 0.6 -1.2
v 0.3 0.8 -1.2
v -1.1 0 -1.3
v -1.1 0.6 -1.3
v -1 0 -1.3
v -1 0.2 -1.3
v -1 0.6 -1.3
v -1 0.7 -1.3
v -1 0.8 -1.3
v -0.9 0.7 -1.3
v -0.9 0.8 -1.3
v -0.8 0.8 -1.3
v -0.8 0.9 -1.3
v -0.5 0.8 -1.3
v -0.4 0.8 -1.3
v -0.4 0.9 -1.3
v -0.1 0.8 -1.3
v 0 0.8 -1.3
v 0 0.9 -1.3
v 0.1 0.7 -1.3
v 0.1 0.8 -1.3
v 0.2 0 -1.3
v 0.2 0.6 -1.3
v 0.2 0.7 -1.3
v 0.2 0.8 -1.3
v 0.3 0 -1.3
v 0.3 0.6 -1.3
v -1 0 -1.4
v -1 0.1 -1.4
v -1 0.6 -1.4
v -1 0.7 -1.4
v -0.9 0 -1.4
v -0.9 0.1 -1.4
v -0.9 0.6 -1.4
v -0.9 0.7 -1.4
v -0.9 0.8 -1.4
v -0.6 0.7 -1.4
v -0.5 0.7 -1.4
v -0.5 0.8 -1.4
v -0.2 0.7 -1.4
v -0.1 0.7 -1.4
v -0.1 0.8 -1.4
v 0.1 0 -1.4
v 0.1 0.1 -1.4
v 0.1 0.6 -1.4
v 0.1 0.7 -1.4
v 0.1 0.8 -1.4
v 0.2 0 -1.4
v 0.2 0.1 -1.4
v 0.2 0.6 -1.4
v 0.2 0.7 -1.4
v -1 0.1 -1.5
v -1 0.3 -1.5
v -1 0.6 -1.5
v -0.9 0 -1.5
v -0.9 0.1 -1.5
v -0.9 0.3 -1.5
v -0.9 0.6 -1.5
v -0.9 0.7 -1.5
v -0.7 0 -1.5
v -0.7 0.1 -1.5
v -0.7 0.6 -1.5
v -0.6 0.6 -1.5
v -0.6 0.7 -1.5
v -0.2 0.6 -1.5
v -0.2 0.7 -1.5
v -0.1 0.6 -1.5
v 0.1 0 -1.5
v 0.1 0.1 -1.5
v 0.1 0.6 -1.5
v 0.1 0.7 -1.5
v 0.2 0.1 -1.5
v 0.2 0.6 -1.5
v -0.9 0.1 -1.6
v -0.9 0.3 -1.6
v -0.9 0.6 -1.6
v -0.8 0.2 -1.6
v -0.8 0.3 -1.6
v -0.8 0.5 -1.6
v -0.7 0.1 -1.6
v -0.7 0.2 -1.6
v -0.7 0.5 -1.6
v -0.7 0.6 -1.6
v -0.1 0.5 -1.6
v -0.1 0.6 -1.6
v 0 0.2 -1.6
v 0 0.5 -1.6
v 0.1 0.1 -1.6
v 0.1 0.6 -1.6
v -0.8 0.2 -1.7
v -0.8 0.5 -1.7
v 0 0.2 -1.7
v 0 0.5 -1.7
v -0.8 0 0.3
v -0.7 0 0.3
v -0.5 0 0.3
v 0 0 0.3
v -1 0 0.2
v -0.8 0 0.2
v 0 0 0.2
v 0.2 0 0.2
v -1.1 0 0.1
v -1 0 0.1
v -0.6 0 0.1
v -0.5 0 0.1
v 0.2 0 0.1
v 0.3 0 0.1
v -0.7 0 -0.1
v -0.6 0 -0.1
v -0.5 0 -0.1
v -0.6 0 -0.2
v -0.5 0 -0.2
v -1.1 0 -0.4
v -1 0 -0.4
v 0.1 0 -0.4
v 0.2 0 -0.4
v 0.3 0 -0.4
v -1 0 -0.5
v -0.9 0 -0.5
v 0 0 -0.5
v 0.1 0 -0.5
v -1.1 0 -0.6
v -1 0 -0.6
v -0.9 0 -0.6
v 0 0 -0.6
v 0.1 0 -0.6
v 0.2 0 -0.6
v 0.3 0 -0.6
v 0.1 0 -0.7
v 0.2 0 -0.7
v -1.1 0 -1.3
v -1 0 -1.3
v -0.9 0 -1.3
v 0.2 0 -1.3
v 0.3 0 -1.3
v -1 0 -1.4
v -0.9 0 -1.4
v -0.7 0 -1.4
v 0.1 0 -1.4
v 0.2 0 -1.4
v -0.9 0 -1.5
v -0.7 0 -1.5
v 0.1 0 -1.5
v -0.7 0.1 0.4
v -0.6 0.1 0.4
v -0.3 0.1 0.4
v -0.1 0.1 0.4
v -0.7 0.1 0.3
v -0.6 0.1 0.3
v -0.5 0.1 0.3
v -0.3 0.1 0.3
v -0.1 0.1 0.3
v -1 0.1 -1.4
v -0.9 0.1 -1.4
v 0.1 0.1 -1.4
v 0.2 0.1 -1.4
v -1 0.1 -1.5
v -0.9 0.1 -1.5
v -0.7 0.1 -1.5
v 0.1 0.1 -1.5
v 0.2 0.1 -1.5
v -0.9 0.1 -1.6
v -0.7 0.1 -1.6
v 0.1 0.1 -1.6
v -0.7 0.2 0.5
v -0.5 0.2 0.5
v -0.3 0.2 0.5
v -0.1 0.2 0.5
v -0.7 0.2 0.4
v -0.6 0.2 0.4
v -0.5 0.2 0.4
v -0.3 0.2 0.4
v -0.1 0.2 0.4
v -0.8 0.2 -1.6
v -0.7 0.2 -1.6
v 0 0.2 -1.6
v -0.8 0.2 -1.7
v 0 0.2 -1.7
v -0.8 0.3 0.4
v -0.7 0.3 0.4
v -0.1 0.3 0.4
v 0 0.3 0.4
v -0.8 0.3 0.3
v -0.7 0.3 0.3
v -0.1 0.3 0.3
v 0 0.3 0.3
v -0.9 0.6 0.6
v -0.7 0.6 0.6
v -0.1 0.6 0.6
v 0.1 0.6 0.6
v -0.9 0.6 0.5
v -0.8 0.6 0.5
v -0.7 0.6 0.5
v -0.6 0.6 0.5
v -0.2 0.6 0.5
v -0.1 0.6 0.5
v 0 0.6 0.5
v 0.1 0.6 0.5
v -0.8 0.6 0.4
v -0.7 0.6 0.4
v -0.1 0.6 0.4
v 0 0.6 0.4
v -0.6 0.7 0.7
v -0.5 0.7 0.7
v -0.3 0.7 0.7
v -0.2 0.7 0.7
v -0.6 0.7 0.6
v -0.5 0.7 0.6
v -0.3 0.7 0.6
v -0.2 0.7 0.6
v -0.9 0.8 0.7
v -0.7 0.8 0.7
v -0.1 0.8 0.7
v 0.1 0.8 0.7
v -0.9 0.8 0.6
v -0.8 0.8 0.6
v -0.7 0.8 0.6
v -0.1 0.8 0.6
v 0 0.8 0.6
v 0.1 0.8 0.6
v -0.9 1.2 0.4
v -0.8 1.2 0.4
v 0 1.2 0.4
v 0.1 1.2 0.4
v -0.9 1.2 0.3
v -0.8 1.2 0.3
v 0 1.2 0.3
v 0.1 1.2 0.3
v -0.9 1.2 0.2
v -0.8 1.2 0.2
v 0 1.2 0.2
v 0.1 1.2 0.2
v -1.1 0.3 0.1
v -1 0.3 0.1
v 0.2 0.3 0.1
v 0.3 0.3 0.1
v -1.1 0.3 0
v -1 0.3 0
v 0.2 0.3 0
v 0.3 0.3 0
v -1 0.4 0.2
v -0.9 0.4 0.2
v 0.1 0.4 0.2
v 0.2 0.4 0.2
v -1 0.4 0.1
v -0.9 0.4 0.1
v 0.1 0.4 0.1
v 0.2 0.4 0.1
v -1.1 0.4 -0.3
v -1 0.4 -0.3
v 0.1 0.4 -0.3
v 0.2 0.4 -0.3
v 0.3 0.4 -0.3
v -1.1 0.4 -0.4
v -1 0.4 -0.4
v -0.9 0.4 -0.4
v 0 0.4 -0.4
v 0.1 0.4 -0.4
v 0.2 0.4 -0.4
v 0.3 0.4 -0.4
v -1 0.4 -0.5
v -0.9 0.4 -0.5
v 0 0.4 -0.5
v 0.1 0.4 -0.5
v -1.1 0.4 -0.6
v -1 0.4 -0.6
v 0.2 0.4 -0.6
v 0.3 0.4 -0.6
v -1.1 0.4 -0.7
v -1 0.4 -0.7
v 0.2 0.4 -0.7
v 0.3 0.4 -0.7
v -1.1 0.5 0
v -1 0.5 0
v 0.2 0.5 0
v 0.3 0.5 0
v -1.1 0.5 -0.3
v -1 0.5 -0.3
v -0.9 0.5 -0.3
v 0 0.5 -0.3
v 0.2 0.5 -0.3
v 0.3 0.5 -0.3
v -0.9 0.5 -0.4
v 0 0.5 -0.4
v -0.9 0.5 -0.6
v 0 0.5 -0.6
v -1.1 0.5 -0.7
v -1 0.5 -0.7
v 0.2 0.5 -0.7
v 0.3 0.5 -0.7
v -1.1 0.5 -0.8
v -1 0.5 -0.8
v 0.2 0.5 -0.8
v 0.3 0.5 -0.8
v -0.8 0.5 -1.6
v -0.7 0.5 -1.6
v -0.1 0.5 -1.6
v 0 0.5 -1.6
v -0.8 0.5 -1.7
v 0 0.5 -1.7
v -1 0.6 -0.2
v 0.2 0.6 -0.2
v -0.9 0.6 -0.3
v 0 0.6 -0.3
v 0.1 0.6 -0.3
v 0.2 0.6 -0.3
v -1 0.6 -0.4
v -0.9 0.6 -0.4
v 0 0.6 -0.4
v 0.1 0.6 -0.4
v -1 0.6 -0.6
v 0.1 0.6 -0.6
v -1 0.6 -0.7
v 0.1 0.6 -0.7
v -1.1 0.6 -0.8
v -1 0.6 -0.8
v 0.2 0.6 -0.8
v 0.3 0.6 -0.8
v -1.1 0.6 -0.9
v -1 0.6 -0.9
v 0.2 0.6 -0.9
v 0.3 0.6 -0.9
v -1.1 0.6 -1.2
v -1 0.6 -1.2
v 0.2 0.6 -1.2
v 0.3 0.6 -1.2
v -1.1 0.6 -1.3
v -1 0.6 -1.3
v 0.2 0.6 -1.3
v 0.3 0.6 -1.3
v -1 0.6 -1.4
v -0.9 0.6 -1.4
v 0.1 0.6 -1.4
v 0.2 0.6 -1.4
v -1 0.6 -1.5
v -0.9 0.6 -1.5
v -0.7 0.6 -1.5
v -0.6 0.6 -1.5
v -0.2 0.6 -1.5
v -0.1 0.6 -1.5
v 0.1 0.6 -1.5
v 0.2 0.6 -1.5
v -0.9 0.6 -1.6
v -0.7 0.6 -1.6
v -0.1 0.6 -1.6
v 0.1 0.6 -1.6
v -0.9 0.7 0.6
v -0.8 0.7 0.6
v 0 0.7 0.6
v 0.1 0.7 0.6
v -0.9 0.7 0.5
v -0.8 0.7 0.5
v 0 0.7 0.5
v 0.1 0.7 0.5
v -0.9 0.7 0.2
v -0.8 0.7 0.2
v 0 0.7 0.2
v 0.1 0.7 0.2
v -1 0.7 0.1
v -0.9 0.7 0.1
v -0.8 0.7 0.1
v -0.7 0.7 0.1
v -0.1 0.7 0.1
v 0 0.7 0.1
v 0.1 0.7 0.1
v 0.2 0.7 0.1
v -0.7 0.7 0
v -0.6 0.7 0
v -0.2 0.7 0
v -0.1 0.7 0
v -0.6 0.7 -0.1
v -0.2 0.7 -0.1
v -1 0.7 -0.2
v 0.2 0.7 -0.2
v -1 0.7 -0.7
v 0.2 0.7 -0.7
v -1 0.7 -0.8
v 0.2 0.7 -0.8
v -1 0.7 -1.3
v -0.9 0.7 -1.3
v 0.1 0.7 -1.3
v 0.2 0.7 -1.3
v -1 0.7 -1.4
v -0.9 0.7 -1.4
v -0.6 0.7 -1.4
v -0.5 0.7 -1.4
v -0.2 0.7 -1.4
v -0.1 0.7 -1.4
v 0.1 0.7 -1.4
v 0.2 0.7 -1.4
v -0.9 0.7 -1.5
v -0.6 0.7 -1.5
v -0.2 0.7 -1.5
v 0.1 0.7 -1.5
v -1 0.8 -0.8
v 0.2 0.8 -0.8
v -1.1 0.8 -0.9
v -1 0.8 -0.9
v 0.2 0.8 -0.9
v 0.3 0.8 -0.9
v 0.2 0.8 -1
v -1.1 0.8 -1.2
v -1 0.8 -1.2
v -0.8 0.8 -1.2
v 0 0.8 -1.2
v 0.2 0.8 -1.2
v 0.3 0.8 -1.2
v -1 0.8 -1.3
v -0.9 0.8 -1.3
v -0.8 0.8 -1.3
v -0.5 0.8 -1.3
v -0.4 0.8 -1.3
v -0.1 0.8 -1.3
v 0 0.8 -1.3
v 0.1 0.8 -1.3
v 0.2 0.8 -1.3
v -0.9 0.8 -1.4
v -0.5 0.8 -1.4
v -0.1 0.8 -1.4
v 0.1 0.8 -1.4
v -0.9 0.9 0.7
v -0.7 0.9 0.7
v -0.6 0.9 0.7
v -0.5 0.9 0.7
v -0.3 0.9 0.7
v -0.2 0.9 0.7
v -0.1 0.9 0.7
v 0.1 0.9 0.7
v -0.9 0.9 0.6
v -0.8 0.9 0.6
v -0.7 0.9 0.6
v -0.6 0.9 0.6
v -0.5 0.9 0.6
v -0.3 0.9 0.6
v -0.2 0.9 0.6
v -0.1 0.9 0.6
v 0 0.9 0.6
v 0.1 0.9 0.6
v -1 0.9 -0.9
v 0.2 0.9 -0.9
v 0 0.9 -1
v 0.2 0.9 -1
v -0.1 0.9 -1.1
v 0 0.9 -1.1
v -1 0.9 -1.2
v -0.8 0.9 -1.2
v -0.4 0.9 -1.2
v -0.1 0.9 -1.2
v 0 0.9 -1.2
v 0.2 0.9 -1.2
v -0.8 0.9 -1.3
v -0.4 0.9 -1.3
v 0 0.9 -1.3
v -0.6 1.1 0
v -0.2 1.1 0
v -0.6 1.1 -0.1
v -0.2 1.1 -0.1
v -0.8 1.2 0.6
v -0.7 1.2 0.6
v -0.1 1.2 0.6
v 0 1.2 0.6
v -0.8 1.2 0.5
v -0.7 1.2 0.5
v -0.1 1.2 0.5
v 0 1.2 0.5
v -0.8 1.2 0.2
v -0.7 1.2 0.2
v -0.8 1.2 0.1
v -0.7 1.2 0.1
v -0.1 1.2 0.1
v -0.7 1.2 0
v -0.1 1.2 0
v -0.7 1.3 0.6
v -0.6 1.3 0.6
v -0.5 1.3 0.6
v -0.3 1.3 0.6
v -0.1 1.3 0.6
v -0.8 1.3 0.5
v -0.7 1.3 0.5
v -0.6 1.3 0.5
v -0.5 1.3 0.5
v -0.3 1.3 0.5
v -0.1 1.3 0.5
v 0 1.3 0.5
v -0.9 1.3 0.4
v -0.8 1.3 0.4
v -0.6 1.3 0.4
v -0.5 1.3 0.4
v -0.3 1.3 0.4
v -0.2 1.3 0.4
v -0.1 1.3 0.4
v 0 1.3 0.4
v 0.1 1.3 0.4
v -0.9 1.3 0.3
v -0.8 1.3 0.3
v -0.6 1.3 0.3
v -0.5 1.3 0.3
v -0.3 1.3 0.3
v -0.2 1.3 0.3
v 0 1.3 0.3
v 0.1 1.3 0.3
v -0.7 1.3 0.2
v -0.6 1.3 0.2
v -0.5 1.3 0.2
v -0.3 1.3 0.2
v -0.2 1.3 0.2
v 0 1.3 0.2
v -0.7 1.3 0.1
v 0 1.3 0.1
v -0.7 1.4 0.4
v -0.6 1.4 0.4
v -0.2 1.4 0.4
v -0.1 1.4 0.4
v -0.7 1.4 0.3
v -0.6 1.4 0.3
v -0.5 1.4 0.3
v -0.3 1.4 0.3
v -0.2 1.4 0.3
v -0.1 1.4 0.3
v -0.6 1.4 0.2
v -0.5 1.4 0.2
v -0.3 1.4 0.2
v -0.2 1.4 0.2
v -0.8 1.5 0.4
v -0.7 1.5 0.4
v -0.1 1.5 0.4
v 0 1.5 0.4
v -0.8 1.5 0.3
v -0.7 1.5 0.3
v -0.6 1.5 0.3
v -0.2 1.5 0.3
v -0.1 1.5 0.3
v 0 1.5 0.3
v -0.7 1.5 0.2
v -0.6 1.5 0.2
v -0.2 1.5 0.2
v -0.1 1.5 0.2
v -0.9 1.6 0.3
v -0.7 1.6 0.3
v -0.1 1.6 0.3
v 0.1 1.6 0.3
v -0.9 1.6 0.2
v -0.7 1.6 0.2
v -0.1 1.6 0.2
v 0.1 1.6 0.2

# faces
f 5/7/1 2/7/1 1/7/1
f 6/7/1 2/7/1 5/7/1
f 7/7/1 2/7/1 6/7/1
f 8/7/1 2/7/1 7/7/1
f 9/7/1 4/7/1 3/7/1
f 10/7/1 4/7/1 9/7/1
f 11/7/1 7/7/1 6/7/1
f 12/7/1 7/7/1 11/7/1
f 13/7/1 4/7/1 10/7/1
f 14/7/1 4/7/1 13/7/1
f 15/7/1 4/7/1 14/7/1
f 16/7/1 4/7/1 15/7/1
f 17/7/1 4/7/1 16/7/1
f 18/7/1 4/7/1 17/7/1
f 19/7/1 17/7/1 16/7/1
f 20/7/1 17/7/1 19/7/1
f 27/7/1 26/7/1 25/7/1
f 29/7/1 27/7/1 25/7/1
f 29/7/1 28/7/1 27/7/1
f 30/7/1 28/7/1 29/7/1
f 31/2/1 22/2/1 21/2/1
f 33/7/1 28/7/1 30/7/1
f 33/2/1 30/2/1 29/2/1
f 34/7/1 28/7/1 33/7/1
f 35/2/1 32/2/1 31/2/1
f 35/2/1 31/2/1 21/2/1
f 36/2/1 32/2/1 35/2/1
f 38/2/1 24/2/1 23/2/1
f 39/2/1 24/2/1 38/2/1
f 42/2/1 32/2/1 36/2/1
f 43/2/1 38/2/1 37/2/1
f 44/2/1 41/2/1 40/2/1
f 46/2/1 43/2/1 42/2/1
f 47/2/1 38/2/1 43/2/1
f 47/2/1 43/2/1 46/2/1
f 48/2/1 45/2/1 44/2/1
f 48/2/1 44/2/1 40/2/1
f 49/2/1 45/2/1 48/2/1
f 50/2/1 45/2/1 49/2/1
f 53/2/1 34/2/1 33/2/1
f 53/2/1 33/2/1 29/2/1
f 54/2/1 34/2/1 53/2/1
f 55/2/1 34/2/1 54/2/1
f 56/2/1 42/2/1 36/2/1
f 56/2/1 46/2/1 42/2/1
f 57/2/1 46/2/1 56/2/1
f 58/2/1 51/2/1 50/2/1
f 58/2/1 50/2/1 49/2/1
f 59/2/1 51/2/1 58/2/1
f 60/2/1 54/2/1 53/2/1
f 60/2/1 53/2/1 52/2/1
f 61/2/1 54/2/1 60/2/1
f 62/2/1 51/2/1 59/2/1
f 63/2/1 51/2/1 62/2/1
f 64/2/1 60/2/1 52/2/1
f 65/2/1 60/2/1 64/2/1
f 66/2/1 64/2/1 63/2/1
f 67/2/1 64/2/1 66/2/1
f 72/7/1 71/7/1 70/7/1
f 73/7/1 71/7/1 72/7/1
f 75/7/1 74/7/1 73/7/1
f 76/7/1 74/7/1 75/7/1
f 80/2/1 69/2/1 68/2/1
f 81/2/1 80/2/1 79/2/1
f 82/2/1 69/2/1 80/2/1
f 82/2/1 80/2/1 81/2/1
f 86/2/1 76/2/1 75/2/1
f 87/2/1 76/2/1 86/2/1
f 88/3/1 84/3/1 83/3/1
f 89/3/1 84/3/1 88/3/1
f 90/2/1 78/2/1 77/2/1
f 91/2/1 78/2/1 90/2/1
f 93/2/1 86/2/1 85/2/1
f 94/2/1 86/2/1 93/2/1
f 97/2/1 93/2/1 92/2/1
f 98/2/1 93/2/1 97/2/1
f 99/3/1 96/3/1 95/3/1
f 100/3/1 96/3/1 99/3/1
f 104/3/1 102/3/1 101/3/1
f 105/2/1 103/2/1 102/2/1
f 105/3/1 102/3/1 104/3/1
f 106/2/1 103/2/1 105/2/1
f 107/4/1 106/4/1 105/4/1
f 108/4/1 106/4/1 107/4/1
f 114/2/1 110/2/1 109/2/1
f 115/7/1 112/7/1 111/7/1
f 116/7/1 112/7/1 115/7/1
f 117/7/1 112/7/1 116/7/1
f 119/2/1 114/2/1 113/2/1
f 121/2/1 119/2/1 118/2/1
f 122/2/1 110/2/1 114/2/1
f 122/2/1 114/2/1 119/2/1
f 122/2/1 119/2/1 121/2/1
f 124/4/1 121/4/1 120/4/1
f 127/4/1 121/4/1 124/4/1
f 128/2/1 123/2/1 122/2/1
f 128/4/1 121/4/1 127/4/1
f 128/2/1 122/2/1 121/2/1
f 129/2/1 126/2/1 125/2/1
f 130/2/1 126/2/1 129/2/1
f 131/5/1 128/5/1 127/5/1
f 132/2/1 123/2/1 128/2/1
f 132/5/1 128/5/1 131/5/1
f 133/7/1 132/7/1 131/7/1
f 134/2/1 123/2/1 132/2/1
f 134/7/1 132/7/1 133/7/1
f 135/2/1 123/2/1 134/2/1
f 136/2/1 123/2/1 135/2/1
f 137/2/1 123/2/1 136/2/1
f 138/2/1 123/2/1 137/2/1
f 139/2/1 135/2/1 134/2/1
f 140/2/1 135/2/1 139/2/1
f 142/3/1 141/3/1 140/3/1
f 143/3/1 141/3/1 142/3/1
f 147/2/1 145/2/1 144/2/1
f 148/2/1 145/2/1 147/2/1
f 148/2/1 147/2/1 146/2/1
f 149/2/1 145/2/1 148/2/1
f 150/2/1 148/2/1 146/2/1
f 151/2/1 148/2/1 150/2/1
f 157/2/1 153/2/1 152/2/1
f 158/2/1 153/2/1 157/2/1
f 159/2/1 155/2/1 154/2/1
f 160/2/1 155/2/1 159/2/1
f 161/2/1 157/2/1 156/2/1
f 162/2/1 157/2/1 161/2/1
f 167/3/1 164/3/1 163/3/1
f 168/3/1 164/3/1 167/3/1
f 169/2/1 166/2/1 165/2/1
f 170/2/1 166/2/1 169/2/1
f 173/4/1 172/4/1 171/4/1
f 174/4/1 172/4/1 173/4/1
f 177/3/1 176/3/1 175/3/1
f 178/3/1 176/3/1 177/3/1
f 180/4/1 179/4/1 178/4/1
f 181/4/1 179/4/1 180/4/1
f 184/3/1 183/3/1 182/3/1
f 185/3/1 183/3/1 184/3/1
f 188/3/1 187/3/1 186/3/1
f 189/3/1 187/3/1 188/3/1
f 191/4/1 190/4/1 189/4/1
f 192/4/1 190/4/1 191/4/1
f 195/2/1 194/2/1 193/2/1
f 196/2/1 194/2/1 195/2/1
f 199/7/1 198/7/1 197/7/1
f 200/7/1 198/7/1 199/7/1
f 201/2/2 202/2/2 203/2/2
f 203/2/2 202/2/2 204/2/2
f 205/3/2 206/3/2 207/3/2
f 207/3/2 206/3/2 208/3/2
f 209/3/2 210/3/2 211/3/2
f 211/3/2 210/3/2 212/3/2
f 212/4/2 213/4/2 214/4/2
f 214/4/2 213/4/2 215/4/2
f 216/3/2 217/3/2 218/3/2
f 218/3/2 217/3/2 219/3/2
f 219/4/2 220/4/2 221/4/2
f 221/4/2 220/4/2 222/4/2
f 223/4/2 224/4/2 225/4/2
f 225/4/2 224/4/2 226/4/2
f 227/3/2 228/3/2 231/3/2
f 231/3/2 228/3/2 232/3/2
f 229/2/2 230/2/2 233/2/2
f 233/2/2 230/2/2 234/2/2
f 235/2/2 236/2/2 238/2/2
f 238/2/2 236/2/2 239/2/2
f 237/2/2 238/2/2 239/2/2
f 239/2/2 236/2/2 240/2/2
f 237/2/2 239/2/2 241/2/2
f 241/2/2 239/2/2 242/2/2
f 243/2/2 244/2/2 247/2/2
f 247/2/2 244/2/2 248/2/2
f 245/2/2 246/2/2 249/2/2
f 249/2/2 246/2/2 250/2/2
f 251/2/2 252/2/2 258/2/2
f 253/2/2 254/2/2 260/2/2
f 259/2/2 260/2/2 261/2/2
f 260/2/2 254/2/2 262/2/2
f 261/2/2 260/2/2 262/2/2
f 255/7/2 256/7/2 263/7/2
f 263/7/2 256/7/2 264/7/2
f 257/2/2 258/2/2 266/2/2
f 258/2/2 252/2/2 267/2/2
f 266/2/2 258/2/2 267/2/2
f 267/2/2 252/2/2 268/2/2
f 265/7/2 266/7/2 270/7/2
f 266/2/2 267/2/2 271/2/2
f 270/7/2 266/7/2 271/7/2
f 267/7/2 268/7/2 272/7/2
f 271/2/2 267/2/2 272/2/2
f 272/7/2 268/7/2 273/7/2
f 269/4/2 270/4/2 275/4/2
f 275/4/2 270/4/2 278/4/2
f 270/7/2 271/7/2 279/7/2
f 278/4/2 270/4/2 279/4/2
f 271/7/2 272/7/2 279/7/2
f 272/2/2 273/2/2 280/2/2
f 279/7/2 272/7/2 280/7/2
f 273/2/2 274/2/2 280/2/2
f 280/2/2 274/2/2 281/2/2
f 276/7/2 277/7/2 282/7/2
f 282/7/2 277/7/2 283/7/2
f 278/5/2 279/5/2 284/5/2
f 279/7/2 280/7/2 285/7/2
f 284/5/2 279/5/2 285/5/2
f 280/7/2 281/7/2 285/7/2
f 285/7/2 281/7/2 286/7/2
f 284/2/2 285/2/2 287/2/2
f 285/2/2 286/2/2 287/2/2
f 287/2/2 286/2/2 288/2/2
f 286/7/2 281/7/2 289/7/2
f 288/2/2 286/2/2 289/2/2
f 289/7/2 281/7/2 290/7/2
f 281/2/2 274/2/2 291/2/2
f 290/7/2 281/7/2 291/7/2
f 288/7/2 289/7/2 292/7/2
f 292/7/2 289/7/2 293/7/2
f 291/2/2 274/2/2 295/2/2
f 295/2/2 274/2/2 296/2/2
f 293/3/2 294/3/2 297/3/2
f 297/3/2 294/3/2 298/3/2
f 303/2/2 304/2/2 305/2/2
f 305/2/2 304/2/2 306/2/2
f 299/2/2 300/2/2 311/2/2
f 311/2/2 300/2/2 312/2/2
f 310/2/2 311/2/2 315/2/2
f 315/2/2 311/2/2 316/2/2
f 301/2/2 302/2/2 317/2/2
f 317/2/2 302/2/2 318/2/2
f 306/2/2 307/2/2 320/2/2
f 320/2/2 307/2/2 321/2/2
f 313/3/2 314/3/2 322/3/2
f 322/3/2 314/3/2 323/3/2
f 308/2/2 309/2/2 324/2/2
f 324/2/2 309/2/2 325/2/2
f 319/2/2 320/2/2 327/2/2
f 327/2/2 320/2/2 328/2/2
f 326/2/2 327/2/2 331/2/2
f 331/2/2 327/2/2 332/2/2
f 329/3/2 330/3/2 333/3/2
f 333/3/2 330/3/2 334/3/2
f 335/3/2 336/3/2 338/3/2
f 336/2/2 337/2/2 339/2/2
f 338/3/2 336/3/2 339/3/2
f 339/2/2 337/2/2 340/2/2
f 339/4/2 340/4/2 341/4/2
f 341/4/2 340/4/2 342/4/2
f 345/2/2 346/2/2 347/2/2
f 343/2/2 344/2/2 349/2/2
f 343/2/2 349/2/2 351/2/2
f 349/2/2 350/2/2 351/2/2
f 351/2/2 350/2/2 352/2/2
f 352/2/2 350/2/2 353/2/2
f 353/2/2 354/2/2 357/2/2
f 357/2/2 354/2/2 358/2/2
f 355/2/2 356/2/2 359/2/2
f 347/2/2 348/2/2 362/2/2
f 345/2/2 347/2/2 362/2/2
f 362/2/2 348/2/2 363/2/2
f 363/2/2 348/2/2 364/2/2
f 352/2/2 353/2/2 365/2/2
f 353/2/2 357/2/2 365/2/2
f 365/2/2 357/2/2 366/2/2
f 359/2/2 360/2/2 367/2/2
f 355/2/2 359/2/2 367/2/2
f 367/2/2 360/2/2 368/2/2
f 362/2/2 363/2/2 369/2/2
f 361/2/2 362/2/2 369/2/2
f 369/2/2 363/2/2 370/2/2
f 368/2/2 360/2/2 371/2/2
f 371/2/2 360/2/2 372/2/2
f 361/2/2 369/2/2 374/2/2
f 374/2/2 369/2/2 375/2/2
f 372/2/2 373/2/2 376/2/2
f 373/7/2 374/7/2 377/7/2
f 376/2/2 373/2/2 377/2/2
f 377/7/2 374/7/2 378/7/2
f 379/7/2 380/7/2 383/7/2
f 383/7/2 380/7/2 384/7/2
f 384/7/2 380/7/2 385/7/2
f 385/7/2 380/7/2 386/7/2
f 381/7/2 382/7/2 387/7/2
f 387/7/2 382/7/2 388/7/2
f 384/7/2 385/7/2 389/7/2
f 389/7/2 385/7/2 390/7/2
f 388/7/2 382/7/2 391/7/2
f 391/7/2 382/7/2 392/7/2
f 392/7/2 382/7/2 393/7/2
f 393/7/2 382/7/2 394/7/2
f 394/7/2 382/7/2 395/7/2
f 395/7/2 382/7/2 396/7/2
f 394/7/2 395/7/2 397/7/2
f 397/7/2 395/7/2 398/7/2
f 401/3/3 400/3/3 399/3/3
f 402/3/3 400/3/3 401/3/3
f 405/3/3 404/3/3 403/3/3
f 406/3/3 404/3/3 405/3/3
f 407/8/3 406/8/3 405/8/3
f 408/8/3 406/8/3 407/8/3
f 409/3/3 408/3/3 407/3/3
f 410/3/3 408/3/3 409/3/3
f 413/3/3 412/3/3 411/3/3
f 414/3/3 412/3/3 413/3/3
f 417/3/3 416/3/3 415/3/3
f 422/3/3 417/3/3 415/3/3
f 423/4/3 418/4/3 417/4/3
f 423/3/3 417/3/3 422/3/3
f 424/4/3 418/4/3 423/4/3
f 425/5/3 420/5/3 419/5/3
f 426/7/3 421/7/3 420/7/3
f 426/5/3 420/5/3 425/5/3
f 427/7/3 421/7/3 426/7/3
f 429/4/3 425/4/3 424/4/3
f 429/4/3 424/4/3 423/4/3
f 429/4/3 423/4/3 422/4/3
f 430/6/3 426/6/3 425/6/3
f 430/4/3 425/4/3 429/4/3
f 431/6/3 426/6/3 430/6/3
f 432/7/3 427/7/3 426/7/3
f 432/6/3 426/6/3 431/6/3
f 433/2/3 428/2/3 427/2/3
f 433/7/3 427/7/3 432/7/3
f 434/2/3 428/2/3 433/2/3
f 435/4/3 429/4/3 422/4/3
f 436/6/3 431/6/3 430/6/3
f 437/1/3 432/1/3 431/1/3
f 437/6/3 431/6/3 436/6/3
f 438/2/3 433/2/3 432/2/3
f 438/1/3 432/1/3 437/1/3
f 439/7/3 434/7/3 433/7/3
f 439/2/3 433/2/3 438/2/3
f 440/7/3 434/7/3 439/7/3
f 441/4/3 435/4/3 422/4/3
f 442/3/3 438/3/3 437/3/3
f 442/3/3 437/3/3 436/3/3
f 443/3/3 438/3/3 442/3/3
f 444/4/3 440/4/3 439/4/3
f 444/3/3 438/3/3 443/3/3
f 444/4/3 439/4/3 438/4/3
f 445/4/3 440/4/3 444/4/3
f 446/4/3 440/4/3 445/4/3
f 447/4/3 441/4/3 422/4/3
f 448/6/3 443/6/3 442/6/3
f 449/1/3 444/1/3 443/1/3
f 449/6/3 443/6/3 448/6/3
f 450/7/3 445/7/3 444/7/3
f 450/1/3 444/1/3 449/1/3
f 451/4/3 447/4/3 422/4/3
f 451/4/3 448/4/3 447/4/3
f 452/4/3 448/4/3 451/4/3
f 453/4/3 448/4/3 452/4/3
f 454/6/3 450/6/3 449/6/3
f 454/4/3 448/4/3 453/4/3
f 454/6/3 449/6/3 448/6/3
f 455/7/3 445/7/3 450/7/3
f 455/6/3 450/6/3 454/6/3
f 456/2/3 446/2/3 445/2/3
f 456/7/3 445/7/3 455/7/3
f 457/2/3 446/2/3 456/2/3
f 458/4/3 453/4/3 452/4/3
f 458/3/3 452/3/3 451/3/3
f 459/4/3 453/4/3 458/4/3
f 460/5/3 455/5/3 454/5/3
f 461/2/3 456/2/3 455/2/3
f 461/5/3 455/5/3 460/5/3
f 462/2/3 456/2/3 461/2/3
f 463/3/3 458/3/3 451/3/3
f 464/3/3 458/3/3 463/3/3
f 469/2/3 466/2/3 465/2/3
f 470/2/3 466/2/3 469/2/3
f 471/2/3 468/2/3 467/2/3
f 472/2/3 468/2/3 471/2/3
f 473/2/3 471/2/3 467/2/3
f 474/7/3 472/7/3 471/7/3
f 474/2/3 471/2/3 473/2/3
f 475/7/3 474/7/3 473/7/3
f 476/7/3 472/7/3 474/7/3
f 476/7/3 474/7/3 475/7/3
f 477/2/3 476/2/3 475/2/3
f 477/7/3 472/7/3 476/7/3
f 478/7/3 472/7/3 477/7/3
f 479/2/3 477/2/3 475/2/3
f 479/2/3 478/2/3 477/2/3
f 480/2/3 478/2/3 479/2/3
f 483/7/3 482/7/3 481/7/3
f 484/7/3 482/7/3 483/7/3
f 489/3/3 486/3/3 485/3/3
f 490/3/3 486/3/3 489/3/3
f 494/2/3 488/2/3 487/2/3
f 495/2/3 488/2/3 494/2/3
f 496/3/3 491/3/3 490/3/3
f 497/3/3 491/3/3 496/3/3
f 498/2/3 493/2/3 492/2/3
f 499/2/3 493/2/3 498/2/3
f 500/3/3 496/3/3 490/3/3
f 501/3/3 496/3/3 500/3/3
f 502/7/3 499/7/3 498/7/3
f 503/7/3 502/7/3 498/7/3
f 504/7/3 502/7/3 503/7/3
f 507/2/3 504/2/3 503/2/3
f 508/2/3 504/2/3 507/2/3
f 511/3/3 506/3/3 505/3/3
f 512/3/3 506/3/3 511/3/3
f 514/2/3 510/2/3 509/2/3
f 515/2/3 510/2/3 514/2/3
f 517/3/3 512/3/3 511/3/3
f 517/3/3 513/3/3 512/3/3
f 518/3/3 513/3/3 517/3/3
f 519/3/3 517/3/3 516/3/3
f 520/3/3 517/3/3 519/3/3
f 525/4/3 522/4/3 521/4/3
f 526/4/3 522/4/3 525/4/3
f 527/2/3 524/2/3 523/2/3
f 528/2/3 524/2/3 527/2/3
f 529/2/3 524/2/3 528/2/3
f 531/4/3 522/4/3 526/4/3
f 532/4/3 522/4/3 531/4/3
f 533/7/3 528/7/3 527/7/3
f 535/4/3 531/4/3 530/4/3
f 536/4/3 531/4/3 535/4/3
f 537/7/3 533/7/3 527/7/3
f 538/7/3 533/7/3 537/7/3
f 539/4/3 535/4/3 534/4/3
f 540/4/3 535/4/3 539/4/3
f 541/2/3 538/2/3 537/2/3
f 544/4/3 543/4/3 542/4/3
f 545/4/3 543/4/3 544/4/3
f 547/2/3 541/2/3 537/2/3
f 549/4/3 546/4/3 545/4/3
f 550/4/3 546/4/3 549/4/3
f 552/2/3 548/2/3 547/2/3
f 552/2/3 547/2/3 537/2/3
f 553/2/3 548/2/3 552/2/3
f 555/4/3 551/4/3 550/4/3
f 556/4/3 555/4/3 554/4/3
f 557/4/3 551/4/3 555/4/3
f 557/4/3 555/4/3 556/4/3
f 560/2/3 559/2/3 558/2/3
f 562/2/3 560/2/3 558/2/3
f 562/2/3 561/2/3 560/2/3
f 563/2/3 561/2/3 562/2/3
f 567/2/3 565/2/3 564/2/3
f 567/2/3 566/2/3 565/2/3
f 568/2/3 566/2/3 567/2/3
f 569/2/3 567/2/3 564/2/3
f 570/2/3 567/2/3 569/2/3
f 573/7/3 572/7/3 571/7/3
f 574/7/3 572/7/3 573/7/3
f 577/2/3 576/2/3 575/2/3
f 578/2/3 576/2/3 577/2/3
f 583/2/3 580/2/3 579/2/3
f 584/2/3 580/2/3 583/2/3
f 585/7/3 582/7/3 581/7/3
f 586/7/3 582/7/3 585/7/3
f 589/7/3 588/7/3 587/7/3
f 590/7/3 588/7/3 589/7/3
f 593/7/3 592/7/3 591/7/3
f 594/7/3 592/7/3 593/7/3
f 597/7/3 596/7/3 595/7/3
f 598/7/3 596/7/3 597/7/3
f 600/2/3 598/2/3 597/2/3
f 600/2/3 599/2/3 598/2/3
f 601/2/3 599/2/3 600/2/3
f 603/2/3 599/2/3 601/2/3
f 604/2/3 603/2/3 602/2/3
f 605/2/3 599/2/3 603/2/3
f 605/2/3 603/2/3 604/2/3
f 608/7/3 607/7/3 606/7/3
f 609/7/3 607/7/3 608/7/3
f 612/7/3 611/7/3 610/7/3
f 613/7/3 611/7/3 612/7/3
f 617/2/3 615/2/3 614/2/3
f 618/2/3 617/2/3 616/2/3
f 619/2/3 617/2/3 618/2/3
f 620/2/3 617/2/3 619/2/3
f 621/2/3 615/2/3 617/2/3
f 621/2/3 617/2/3 620/2/3
f 622/7/3 620/7/3 619/7/3
f 623/7/3 620/7/3 622/7/3
f 626/7/3 625/7/3 624/7/3
f 627/7/3 625/7/3 626/7/3
f 632/2/3 629/2/3 628/2/3
f 633/2/3 629/2/3 632/2/3
f 634/7/3 631/7/3 630/7/3
f 635/7/3 631/7/3 634/7/3
f 638/7/3 637/7/3 636/7/3
f 639/7/3 637/7/3 638/7/3
f 642/2/3 640/2/3 639/2/3
f 643/2/3 640/2/3 642/2/3
f 644/7/3 642/7/3 641/7/3
f 645/7/3 642/7/3 644/7/3
f 646/3/4 647/3/4 648/3/4
f 648/3/4 647/3/4 649/3/4
f 650/3/4 651/3/4 652/3/4
f 652/3/4 651/3/4 653/3/4
f 654/3/4 655/3/4 656/3/4
f 656/3/4 655/3/4 657/3/4
f 658/3/4 659/3/4 660/3/4
f 660/3/4 659/3/4 661/3/4
f 662/2/4 663/2/4 665/2/4
f 663/4/4 664/4/4 666/4/4
f 665/2/4 663/2/4 666/2/4
f 666/4/4 664/4/4 667/4/4
f 665/2/4 666/2/4 668/2/4
f 666/2/4 667/2/4 668/2/4
f 668/2/4 667/2/4 669/2/4
f 669/2/4 667/2/4 670/2/4
f 667/4/4 664/4/4 671/4/4
f 670/2/4 667/2/4 671/2/4
f 671/4/4 664/4/4 672/4/4
f 669/2/4 670/2/4 673/2/4
f 670/4/4 671/4/4 674/4/4
f 673/2/4 670/2/4 674/2/4
f 674/4/4 671/4/4 675/4/4
f 673/4/4 674/4/4 676/4/4
f 676/4/4 674/4/4 677/4/4
f 678/4/4 679/4/4 680/4/4
f 680/4/4 679/4/4 681/4/4
f 680/2/4 681/2/4 683/2/4
f 681/4/4 682/4/4 683/4/4
f 683/4/4 682/4/4 684/4/4
f 683/2/4 684/2/4 687/2/4
f 680/2/4 683/2/4 687/2/4
f 684/4/4 685/4/4 688/4/4
f 687/2/4 684/2/4 688/2/4
f 686/2/4 687/2/4 689/2/4
f 687/4/4 688/4/4 690/4/4
f 689/2/4 687/2/4 690/2/4
f 688/4/4 685/4/4 691/4/4
f 690/4/4 688/4/4 691/4/4
f 692/2/4 693/2/4 694/2/4
f 694/2/4 693/2/4 695/2/4
f 695/2/4 696/2/4 698/2/4
f 697/2/4 698/2/4 699/2/4
f 698/2/4 696/2/4 700/2/4
f 699/2/4 698/2/4 700/2/4
f 701/2/4 702/2/4 703/2/4
f 703/2/4 702/2/4 704/2/4
f 704/2/4 702/2/4 706/2/4
f 705/2/4 706/2/4 707/2/4
f 706/2/4 702/2/4 708/2/4
f 707/2/4 706/2/4 708/2/4
f 709/2/4 710/2/4 711/2/4
f 711/2/4 710/2/4 712/2/4
f 713/2/4 714/2/4 715/2/4
f 715/2/4 714/2/4 716/2/4
f 717/7/4 718/7/4 719/7/4
f 719/7/4 718/7/4 720/7/4
f 721/2/4 722/2/4 723/2/4
f 723/2/4 722/2/4 724/2/4
f 725/2/4 726/2/4 727/2/4
f 727/2/4 726/2/4 728/2/4
f 728/2/4 726/2/4 729/2/4
f 727/7/4 728/7/4 730/7/4
f 730/7/4 728/7/4 731/7/4
f 732/7/4 733/7/4 734/7/4
f 734/7/4 733/7/4 735/7/4
f 735/2/4 736/2/4 737/2/4
f 737/2/4 736/2/4 738/2/4
f 738/2/4 736/2/4 739/2/4
f 740/2/4 741/2/4 744/2/4
f 741/2/4 742/2/4 744/2/4
f 744/2/4 742/2/4 745/2/4
f 743/2/4 744/2/4 746/2/4
f 746/2/4 744/2/4 747/2/4
f 746/7/4 747/7/4 748/7/4
f 748/7/4 747/7/4 749/7/4
f 750/2/4 751/2/4 752/2/4
f 752/2/4 751/2/4 753/2/4
f 754/2/4 755/2/4 756/2/4
f 756/2/4 755/2/4 757/2/4
f 758/7/4 759/7/4 760/7/4
f 760/7/4 759/7/4 761/7/4
f 761/2/4 762/2/4 763/2/4
f 763/2/4 762/2/4 764/2/4
f 765/7/4 766/7/4 768/7/4
f 768/7/4 766/7/4 769/7/4
f 767/7/4 768/7/4 770/7/4
f 770/7/4 768/7/4 771/7/4
f 772/7/4 773/7/4 774/7/4
f 774/7/4 773/7/4 775/7/4
f 775/7/4 773/7/4 776/7/4
f 777/2/4 778/2/4 779/2/4
f 779/2/4 778/2/4 780/2/4
f 781/2/4 782/2/4 783/2/4
f 783/2/4 782/2/4 784/2/4
f 784/2/4 782/2/4 785/2/4
f 784/7/4 785/7/4 786/7/4
f 786/7/4 785/7/4 787/7/4
f 787/7/4 785/7/4 788/7/4
f 789/2/4 790/2/4 793/2/4
f 793/2/4 790/2/4 794/2/4
f 791/7/4 792/7/4 795/7/4
f 795/7/4 792/7/4 796/7/4
f 797/7/4 798/7/4 801/7/4
f 801/7/4 798/7/4 802/7/4
f 799/2/4 800/2/4 803/2/4
f 803/2/4 800/2/4 804/2/4
f 804/2/4 805/2/4 806/2/4
f 806/2/4 805/2/4 807/2/4
f 807/2/4 805/2/4 808/2/4
f 807/7/4 808/7/4 809/7/4
f 809/7/4 808/7/4 810/7/4
f 810/7/4 808/7/4 811/7/4
f 810/2/4 811/2/4 815/2/4
f 815/2/4 811/2/4 816/2/4
f 812/2/4 813/2/4 817/2/4
f 817/2/4 813/2/4 818/2/4
f 814/2/4 815/2/4 819/2/4
f 819/2/4 815/2/4 820/2/4
f 821/7/4 822/7/4 825/7/4
f 822/2/4 823/2/4 826/2/4
f 825/7/4 822/7/4 826/7/4
f 826/2/4 823/2/4 827/2/4
f 824/7/4 825/7/4 829/7/4
f 829/7/4 825/7/4 830/7/4
f 827/2/4 828/2/4 831/2/4
f 831/2/4 828/2/4 832/2/4
f 832/2/4 828/2/4 833/2/4
f 832/7/4 833/7/4 834/7/4
f 834/7/4 833/7/4 835/7/4
f 834/2/4 835/2/4 836/2/4
f 829/2/4 830/2/4 837/2/4
f 837/2/4 830/2/4 838/2/4
f 836/2/4 835/2/4 839/2/4
f 839/2/4 835/2/4 840/2/4
f 838/2/4 839/2/4 841/2/4
f 841/2/4 839/2/4 842/2/4
f 843/7/4 844/7/4 846/7/4
f 844/2/4 845/2/4 847/2/4
f 846/7/4 844/7/4 847/7/4
f 847/2/4 845/2/4 848/2/4
f 843/7/4 846/7/4 849/7/4
f 849/7/4 846/7/4 850/7/4
f 848/2/4 845/2/4 851/2/4
f 851/2/4 845/2/4 852/2/4
f 851/7/4 852/7/4 853/7/4
f 853/7/4 852/7/4 854/7/4
f 849/2/4 850/2/4 855/2/4
f 853/2/4 854/2/4 856/2/4
f 849/2/4 855/2/4 857/2/4
f 855/2/4 856/2/4 857/2/4
f 856/2/4 854/2/4 858/2/4
f 857/2/4 856/2/4 858/2/4
f 859/7/4 860/7/4 861/7/4
f 861/7/4 860/7/4 862/7/4
f 868/2/5 864/2/5 863/2/5
f 869/2/5 866/2/5 865/2/5
f 872/2/5 868/2/5 867/2/5
f 873/7/5 865/7/5 864/7/5
f 874/2/5 870/2/5 869/2/5
f 874/7/5 865/7/5 873/7/5
f 874/2/5 869/2/5 865/2/5
f 875/2/5 870/2/5 874/2/5
f 877/7/5 873/7/5 864/7/5
f 877/2/5 864/2/5 868/2/5
f 877/2/5 868/2/5 872/2/5
f 878/2/5 875/2/5 874/2/5
f 878/7/5 873/7/5 877/7/5
f 878/2/5 874/2/5 873/2/5
f 879/2/5 875/2/5 878/2/5
f 880/2/5 878/2/5 877/2/5
f 880/7/5 879/7/5 878/7/5
f 881/2/5 875/2/5 879/2/5
f 881/7/5 879/7/5 880/7/5
f 882/7/5 872/7/5 871/7/5
f 883/2/5 877/2/5 872/2/5
f 883/7/5 872/7/5 882/7/5
f 883/2/5 880/2/5 877/2/5
f 883/2/5 881/2/5 880/2/5
f 884/2/5 875/2/5 881/2/5
f 884/2/5 881/2/5 883/2/5
f 885/7/5 876/7/5 875/7/5
f 885/2/5 875/2/5 884/2/5
f 886/7/5 876/7/5 885/7/5
f 887/2/5 884/2/5 883/2/5
f 888/2/5 884/2/5 887/2/5
f 889/2/5 884/2/5 888/2/5
f 890/2/5 884/2/5 889/2/5
f 893/2/5 889/2/5 888/2/5
f 894/2/5 889/2/5 893/2/5
f 898/2/5 895/2/5 894/2/5
f 898/2/5 893/2/5 892/2/5
f 898/2/5 894/2/5 893/2/5
f 899/7/5 897/7/5 896/7/5
f 900/7/5 892/7/5 891/7/5
f 901/2/5 898/2/5 892/2/5
f 901/7/5 892/7/5 900/7/5
f 901/2/5 899/2/5 898/2/5
f 902/2/5 899/2/5 901/2/5
f 903/7/5 897/7/5 899/7/5
f 903/2/5 899/2/5 902/2/5
f 904/7/5 897/7/5 903/7/5
f 905/7/5 902/7/5 901/7/5
f 906/2/5 903/2/5 902/2/5
f 906/7/5 902/7/5 905/7/5
f 907/2/5 903/2/5 906/2/5
f 908/2/5 903/2/5 907/2/5
f 909/2/5 903/2/5 908/2/5
f 910/7/5 907/7/5 906/7/5
f 911/2/5 908/2/5 907/2/5
f 911/7/5 907/7/5 910/7/5
f 912/2/5 908/2/5 911/2/5
f 917/2/5 914/2/5 913/2/5
f 918/7/5 915/7/5 914/7/5
f 918/2/5 914/2/5 917/2/5
f 919/7/5 915/7/5 918/7/5
f 920/2/5 916/2/5 915/2/5
f 920/7/5 915/7/5 919/7/5
f 921/2/5 916/2/5 920/2/5
f 926/7/5 923/7/5 922/7/5
f 927/7/5 923/7/5 926/7/5
f 929/2/5 925/2/5 924/2/5
f 930/2/5 925/2/5 929/2/5
f 931/7/5 928/7/5 927/7/5
f 932/2/5 929/2/5 928/2/5
f 932/7/5 928/7/5 931/7/5
f 933/2/5 929/2/5 932/2/5
f 938/2/5 935/2/5 934/2/5
f 939/2/5 935/2/5 938/2/5
f 940/7/5 936/7/5 935/7/5
f 940/2/5 935/2/5 939/2/5
f 941/2/5 937/2/5 936/2/5
f 941/7/5 936/7/5 940/7/5
f 942/2/5 937/2/5 941/2/5
f 946/7/5 944/7/5 943/7/5
f 946/7/5 945/7/5 944/7/5
f 947/7/5 945/7/5 946/7/5
f 952/2/5 949/2/5 948/2/5
f 953/2/5 949/2/5 952/2/5
f 954/2/5 951/2/5 950/2/5
f 955/2/5 951/2/5 954/2/5
f 960/3/5 957/3/5 956/3/5
f 961/3/5 957/3/5 960/3/5
f 962/4/5 958/4/5 957/4/5
f 962/3/5 957/3/5 961/3/5
f 963/4/5 958/4/5 962/4/5
f 964/4/5 958/4/5 963/4/5
f 965/3/5 959/3/5 958/3/5
f 965/4/5 958/4/5 964/4/5
f 966/3/5 959/3/5 965/3/5
f 967/3/5 959/3/5 966/3/5
f 968/2/5 962/2/5 961/2/5
f 969/2/5 962/2/5 968/2/5
f 970/7/5 966/7/5 965/7/5
f 971/7/5 966/7/5 970/7/5
f 976/3/5 973/3/5 972/3/5
f 977/8/5 974/8/5 973/8/5
f 977/3/5 973/3/5 976/3/5
f 978/3/5 975/3/5 974/3/5
f 978/8/5 974/8/5 977/8/5
f 979/3/5 975/3/5 978/3/5
f 984/3/5 981/3/5 980/3/5
f 985/3/5 981/3/5 984/3/5
f 986/3/5 981/3/5 985/3/5
f 987/3/5 983/3/5 982/3/5
f 988/3/5 983/3/5 987/3/5
f 989/3/5 983/3/5 988/3/5
f 994/3/5 991/3/5 990/3/5
f 995/3/5 991/3/5 994/3/5
f 996/3/5 993/3/5 992/3/5
f 997/3/5 993/3/5 996/3/5
f 998/2/5 995/2/5 994/2/5
f 999/2/5 995/2/5 998/2/5
f 1000/2/5 997/2/5 996/2/5
f 1001/2/5 997/2/5 1000/2/5
f 1002/7/6 1003/7/6 1006/7/6
f 1006/7/6 1003/7/6 1007/7/6
f 1004/7/6 1005/7/6 1008/7/6
f 1008/7/6 1005/7/6 1009/7/6
f 1010/2/6 1011/2/6 1014/2/6
f 1014/2/6 1011/2/6 1015/2/6
f 1012/2/6 1013/2/6 1016/2/6
f 1016/2/6 1013/2/6 1017/2/6
f 1018/7/6 1019/7/6 1023/7/6
f 1023/7/6 1019/7/6 1024/7/6
f 1020/2/6 1021/2/6 1027/2/6
f 1021/7/6 1022/7/6 1028/7/6
f 1027/2/6 1021/2/6 1028/2/6
f 1028/7/6 1022/7/6 1029/7/6
f 1024/2/6 1025/2/6 1030/2/6
f 1030/2/6 1025/2/6 1031/2/6
f 1026/2/6 1027/2/6 1032/2/6
f 1032/2/6 1027/2/6 1033/2/6
f 1034/7/6 1035/7/6 1038/7/6
f 1038/7/6 1035/7/6 1039/7/6
f 1036/7/6 1037/7/6 1040/7/6
f 1040/7/6 1037/7/6 1041/7/6
f 1042/7/6 1043/7/6 1046/7/6
f 1046/7/6 1043/7/6 1047/7/6
f 1044/7/6 1045/7/6 1050/7/6
f 1050/7/6 1045/7/6 1051/7/6
f 1048/2/6 1049/2/6 1052/2/6
f 1052/2/6 1049/2/6 1053/2/6
f 1052/2/6 1053/2/6 1054/2/6
f 1054/2/6 1053/2/6 1055/2/6
f 1056/7/6 1057/7/6 1060/7/6
f 1060/7/6 1057/7/6 1061/7/6
f 1058/7/6 1059/7/6 1062/7/6
f 1062/7/6 1059/7/6 1063/7/6
f 1064/7/6 1065/7/6 1068/7/6
f 1066/7/6 1067/7/6 1068/7/6
f 1065/7/6 1066/7/6 1068/7/6
f 1068/7/6 1067/7/6 1069/7/6
f 1070/2/6 1071/2/6 1072/2/6
f 1072/2/6 1071/2/6 1073/2/6
f 1073/2/6 1071/2/6 1074/2/6
f 1074/2/6 1071/2/6 1075/2/6
f 1070/2/6 1072/2/6 1076/2/6
f 1076/2/6 1072/2/6 1077/2/6
f 1073/2/6 1074/2/6 1078/2/6
f 1078/2/6 1074/2/6 1079/2/6
f 1080/2/6 1081/2/6 1082/2/6
f 1082/2/6 1081/2/6 1083/2/6
f 1084/7/6 1085/7/6 1088/7/6
f 1088/7/6 1085/7/6 1089/7/6
f 1086/7/6 1087/7/6 1090/7/6
f 1090/7/6 1087/7/6 1091/7/6
f 1092/7/6 1093/7/6 1096/7/6
f 1096/7/6 1093/7/6 1097/7/6
f 1094/7/6 1095/7/6 1098/7/6
f 1098/7/6 1095/7/6 1099/7/6
f 1100/2/6 1101/2/6 1104/2/6
f 1104/2/6 1101/2/6 1105/2/6
f 1102/2/6 1103/2/6 1110/2/6
f 1110/2/6 1103/2/6 1111/2/6
f 1105/2/6 1106/2/6 1112/2/6
f 1108/7/6 1109/7/6 1113/7/6
f 1112/2/6 1106/2/6 1113/2/6
f 1106/7/6 1107/7/6 1113/7/6
f 1107/7/6 1108/7/6 1113/7/6
f 1109/2/6 1110/2/6 1114/2/6
f 1113/7/6 1109/7/6 1114/7/6
f 1114/2/6 1110/2/6 1115/2/6
f 1116/3/6 1117/3/6 1120/3/6
f 1120/3/6 1117/3/6 1121/3/6
f 1118/3/6 1119/3/6 1122/3/6
f 1122/3/6 1119/3/6 1123/3/6
f 1124/2/6 1125/2/6 1129/2/6
f 1129/2/6 1125/2/6 1130/2/6
f 1126/2/6 1127/2/6 1133/2/6
f 1133/2/6 1127/2/6 1134/2/6
f 1130/2/6 1131/2/6 1136/2/6
f 1128/2/6 1129/2/6 1136/2/6
f 1129/2/6 1130/2/6 1136/2/6
f 1133/2/6 1134/2/6 1139/2/6
f 1134/2/6 1135/2/6 1139/2/6
f 1132/2/6 1133/2/6 1139/2/6
f 1136/2/6 1137/2/6 1140/2/6
f 1138/2/6 1139/2/6 1141/2/6
f 1136/2/6 1140/2/6 1142/2/6
f 1140/2/6 1141/2/6 1142/2/6
f 1128/2/6 1136/2/6 1142/2/6
f 1141/2/6 1139/2/6 1143/2/6
f 1142/2/6 1141/2/6 1143/2/6
f 1139/2/6 1135/2/6 1143/2/6
f 1144/2/6 1145/2/6 1146/2/6
f 1146/2/6 1145/2/6 1147/2/6
f 1148/2/6 1149/2/6 1152/2/6
f 1152/2/6 1149/2/6 1153/2/6
f 1150/2/6 1151/2/6 1158/2/6
f 1158/2/6 1151/2/6 1159/2/6
f 1153/2/6 1154/2/6 1160/2/6
f 1154/7/6 1155/7/6 1161/7/6
f 1160/2/6 1154/2/6 1161/2/6
f 1155/7/6 1156/7/6 1161/7/6
f 1156/2/6 1157/2/6 1162/2/6
f 1161/7/6 1156/7/6 1162/7/6
f 1157/2/6 1158/2/6 1162/2/6
f 1162/2/6 1158/2/6 1163/2/6
f 1164/2/6 1165/2/6 1167/2/6
f 1167/2/6 1165/2/6 1168/2/6
f 1168/7/6 1169/7/6 1170/7/6
f 1166/7/6 1167/7/6 1171/7/6
f 1171/7/6 1167/7/6 1172/7/6
f 1170/7/6 1169/7/6 1175/7/6
f 1175/7/6 1169/7/6 1176/7/6
f 1172/2/6 1173/2/6 1177/2/6
f 1177/2/6 1173/2/6 1178/2/6
f 1178/2/6 1173/2/6 1179/2/6
f 1174/2/6 1175/2/6 1183/2/6
f 1183/2/6 1175/2/6 1184/2/6
f 1184/2/6 1175/2/6 1185/2/6
f 1178/2/6 1179/2/6 1186/2/6
f 1179/2/6 1180/2/6 1186/2/6
f 1181/7/6 1182/7/6 1187/7/6
f 1186/2/6 1180/2/6 1187/2/6
f 1180/7/6 1181/7/6 1187/7/6
f 1183/2/6 1184/2/6 1188/2/6
f 1187/7/6 1182/7/6 1188/7/6
f 1182/2/6 1183/2/6 1188/2/6
f 1188/2/6 1184/2/6 1189/2/6
f 1190/3/6 1191/3/6 1198/3/6
f 1198/3/6 1191/3/6 1199/3/6
f 1199/3/6 1191/3/6 1200/3/6
f 1192/3/6 1193/3/6 1201/3/6
f 1193/8/6 1194/8/6 1202/8/6
f 1201/3/6 1193/3/6 1202/3/6
f 1194/3/6 1195/3/6 1203/3/6
f 1202/8/6 1194/8/6 1203/8/6
f 1203/3/6 1195/3/6 1204/3/6
f 1196/3/6 1197/3/6 1205/3/6
f 1205/3/6 1197/3/6 1206/3/6
f 1206/3/6 1197/3/6 1207/3/6
f 1208/2/6 1209/2/6 1210/2/6
f 1210/2/6 1209/2/6 1211/2/6
f 1208/2/6 1210/2/6 1212/2/6
f 1210/7/6 1211/7/6 1213/7/6
f 1212/2/6 1210/2/6 1213/2/6
f 1208/2/6 1212/2/6 1214/2/6
f 1214/2/6 1212/2/6 1215/2/6
f 1215/2/6 1212/2/6 1216/2/6
f 1212/7/6 1213/7/6 1217/7/6
f 1216/2/6 1212/2/6 1217/2/6
f 1213/7/6 1211/7/6 1218/7/6
f 1217/7/6 1213/7/6 1218/7/6
f 1218/7/6 1211/7/6 1219/7/6
f 1215/2/6 1216/2/6 1220/2/6
f 1216/7/6 1217/7/6 1221/7/6
f 1220/2/6 1216/2/6 1221/2/6
f 1217/7/6 1218/7/6 1221/7/6
f 1221/7/6 1218/7/6 1222/7/6
f 1223/2/6 1224/2/6 1225/2/6
f 1225/2/6 1224/2/6 1226/2/6
f 1227/7/6 1228/7/6 1231/7/6
f 1231/7/6 1228/7/6 1232/7/6
f 1229/2/6 1230/2/6 1233/2/6
f 1233/2/6 1230/2/6 1234/2/6
f 1235/2/6 1236/2/6 1237/2/6
f 1237/2/6 1236/2/6 1238/2/6
f 1238/2/6 1239/2/6 1240/2/6
f 1240/2/6 1239/2/6 1241/2/6
f 1242/2/6 1243/2/6 1248/2/6
f 1243/7/6 1244/7/6 1249/7/6
f 1248/2/6 1243/2/6 1249/2/6
f 1244/4/6 1245/4/6 1250/4/6
f 1249/7/6 1244/7/6 1250/7/6
f 1245/2/6 1246/2/6 1251/2/6
f 1250/4/6 1245/4/6 1251/4/6
f 1251/2/6 1246/2/6 1252/2/6
f 1249/2/6 1250/2/6 1255/2/6
f 1247/2/6 1248/2/6 1255/2/6
f 1251/2/6 1252/2/6 1255/2/6
f 1250/2/6 1251/2/6 1255/2/6
f 1248/2/6 1249/2/6 1255/2/6
f 1255/2/6 1252/2/6 1256/2/6
f 1256/2/6 1252/2/6 1257/2/6
f 1257/2/6 1252/2/6 1258/2/6
f 1258/2/6 1252/2/6 1259/2/6
f 1252/7/6 1253/7/6 1260/7/6
f 1259/2/6 1252/2/6 1260/2/6
f 1260/7/6 1253/7/6 1261/7/6
f 1254/3/6 1255/3/6 1263/3/6
f 1263/3/6 1255/3/6 1264/3/6
f 1256/3/6 1257/3/6 1265/3/6
f 1257/2/6 1258/2/6 1266/2/6
f 1265/3/6 1257/3/6 1266/3/6
f 1258/3/6 1259/3/6 1267/3/6
f 1266/2/6 1258/2/6 1267/2/6
f 1267/3/6 1259/3/6 1268/3/6
f 1261/3/6 1262/3/6 1269/3/6
f 1269/3/6 1262/3/6 1270/3/6
f 1266/2/6 1267/2/6 1273/2/6
f 1273/2/6 1267/2/6 1274/2/6
f 1271/2/6 1272/2/6 1277/2/6
f 1275/2/6 1276/2/6 1277/2/6
f 1274/2/6 1275/2/6 1277/2/6
f 1273/2/6 1274/2/6 1277/2/6
f 1272/2/6 1273/2/6 1277/2/6
f 1277/2/6 1276/2/6 1278/2/6
f 1279/3/6 1280/3/6 1283/3/6
f 1283/3/6 1280/3/6 1284/3/6
f 1281/3/6 1282/3/6 1287/3/6
f 1287/3/6 1282/3/6 1288/3/6
f 1284/4/6 1285/4/6 1289/4/6
f 1289/4/6 1285/4/6 1290/4/6
f 1286/4/6 1287/4/6 1291/4/6
f 1291/4/6 1287/4/6 1292/4/6
f 1293/3/6 1294/3/6 1297/3/6
f 1297/3/6 1294/3/6 1298/3/6
f 1295/3/6 1296/3/6 1301/3/6
f 1301/3/6 1296/3/6 1302/3/6
f 1298/4/6 1299/4/6 1303/4/6
f 1303/4/6 1299/4/6 1304/4/6
f 1300/4/6 1301/4/6 1305/4/6
f 1305/4/6 1301/4/6 1306/4/6
f 1307/4/6 1308/4/6 1311/4/6
f 1311/4/6 1308/4/6 1312/4/6
f 1309/4/6 1310/4/6 1313/4/6
f 1313/4/6 1310/4/6 1314/4/6
