# MagicaVoxel @ Ephtracy

# group
o 

# material
mtllib gutter.mtl
usemtl palette

# normals
vn -1 0 0
vn 1 0 0
vn 0 0 1
vn 0 0 -1
vn 0 -1 0
vn 0 1 0

# texcoords
vt 0.00976562 0.5
vt 0.0136719 0.5
vt 0.0292969 0.5

# verts
v -1.8 0 1.4
v -1.8 0 -2.2
v -1.8 0.2 1.4
v -1.8 0.2 -2.2
v 0.0999999 0 1.2
v 0.0999999 0 1
v 0.0999999 0 0.9
v 0.0999999 0 0.7
v 0.0999999 0 0.6
v 0.0999999 0 0.4
v 0.0999999 0 0.3
v 0.0999999 0 0.1
v 0.0999999 0 0
v 0.0999999 0 -0.2
v 0.0999999 0 -0.3
v 0.0999999 0 -0.5
v 0.0999999 0 -0.6
v 0.0999999 0 -0.8
v 0.0999999 0 -0.9
v 0.0999999 0 -1.1
v 0.0999999 0 -1.2
v 0.0999999 0 -1.4
v 0.0999999 0 -1.5
v 0.0999999 0 -1.7
v 0.0999999 0 -1.8
v 0.0999999 0 -2
v 0.0999999 0.2 1.2
v 0.0999999 0.2 1
v 0.0999999 0.2 0.9
v 0.0999999 0.2 0.7
v 0.0999999 0.2 0.6
v 0.0999999 0.2 0.4
v 0.0999999 0.2 0.3
v 0.0999999 0.2 0.1
v 0.0999999 0.2 0
v 0.0999999 0.2 -0.2
v 0.0999999 0.2 -0.3
v 0.0999999 0.2 -0.5
v 0.0999999 0.2 -0.6
v 0.0999999 0.2 -0.8
v 0.0999999 0.2 -0.9
v 0.0999999 0.2 -1.1
v 0.0999999 0.2 -1.2
v 0.0999999 0.2 -1.4
v 0.0999999 0.2 -1.5
v 0.0999999 0.2 -1.7
v 0.0999999 0.2 -1.8
v 0.0999999 0.2 -2
v 1.1 0.1 0.4
v 1.1 0.1 0.2
v 1.1 0.1 -1
v 1.1 0.1 -1.2
v 1.1 0.2 0.4
v 1.1 0.2 0.2
v 1.1 0.2 -1
v 1.1 0.2 -1.2
v -1.6 0 1.2
v -1.6 0 1
v -1.6 0 0.9
v -1.6 0 0.7
v -1.6 0 0.6
v -1.6 0 0.4
v -1.6 0 0.3
v -1.6 0 0.1
v -1.6 0 0
v -1.6 0 -0.2
v -1.6 0 -0.3
v -1.6 0 -0.5
v -1.6 0 -0.6
v -1.6 0 -0.8
v -1.6 0 -0.9
v -1.6 0 -1.1
v -1.6 0 -1.2
v -1.6 0 -1.4
v -1.6 0 -1.5
v -1.6 0 -1.7
v -1.6 0 -1.8
v -1.6 0 -2
v -1.6 0.2 1.2
v -1.6 0.2 1
v -1.6 0.2 0.9
v -1.6 0.2 0.7
v -1.6 0.2 0.6
v -1.6 0.2 0.4
v -1.6 0.2 0.3
v -1.6 0.2 0.1
v -1.6 0.2 0
v -1.6 0.2 -0.2
v -1.6 0.2 -0.3
v -1.6 0.2 -0.5
v -1.6 0.2 -0.6
v -1.6 0.2 -0.8
v -1.6 0.2 -0.9
v -1.6 0.2 -1.1
v -1.6 0.2 -1.2
v -1.6 0.2 -1.4
v -1.6 0.2 -1.5
v -1.6 0.2 -1.7
v -1.6 0.2 -1.8
v -1.6 0.2 -2
v 0.4 0.1 0.4
v 0.4 0.1 0.2
v 0.4 0.1 -1
v 0.4 0.1 -1.2
v 0.4 0.2 0.4
v 0.4 0.2 0.2
v 0.4 0.2 -1
v 0.4 0.2 -1.2
v 1.8 0 1.4
v 1.8 0 -2.2
v 1.8 0.2 1.4
v 1.8 0.2 -2.2
v -1.8 0 1.4
v -1.8 0.2 1.4
v 1.8 0 1.4
v 1.8 0.2 1.4
v -1.6 0 1
v -1.6 0.2 1
v 0.0999999 0 1
v 0.0999999 0.2 1
v -1.6 0 0.7
v -1.6 0.2 0.7
v 0.0999999 0 0.7
v 0.0999999 0.2 0.7
v -1.6 0 0.4
v -1.6 0.2 0.4
v 0.0999999 0 0.4
v 0.0999999 0.2 0.4
v 0.4 0.1 0.2
v 0.4 0.2 0.2
v 1.1 0.1 0.2
v 1.1 0.2 0.2
v -1.6 0 0.1
v -1.6 0.2 0.1
v 0.0999999 0 0.1
v 0.0999999 0.2 0.1
v -1.6 0 -0.2
v -1.6 0.2 -0.2
v 0.0999999 0 -0.2
v 0.0999999 0.2 -0.2
v -1.6 0 -0.5
v -1.6 0.2 -0.5
v 0.0999999 0 -0.5
v 0.0999999 0.2 -0.5
v -1.6 0 -0.8
v -1.6 0.2 -0.8
v 0.0999999 0 -0.8
v 0.0999999 0.2 -0.8
v -1.6 0 -1.1
v -1.6 0.2 -1.1
v 0.0999999 0 -1.1
v 0.0999999 0.2 -1.1
v 0.4 0.1 -1.2
v 0.4 0.2 -1.2
v 1.1 0.1 -1.2
v 1.1 0.2 -1.2
v -1.6 0 -1.4
v -1.6 0.2 -1.4
v 0.0999999 0 -1.4
v 0.0999999 0.2 -1.4
v -1.6 0 -1.7
v -1.6 0.2 -1.7
v 0.0999999 0 -1.7
v 0.0999999 0.2 -1.7
v -1.6 0 -2
v -1.6 0.2 -2
v 0.0999999 0 -2
v 0.0999999 0.2 -2
v -1.6 0 1.2
v -1.6 0.2 1.2
v 0.0999999 0 1.2
v 0.0999999 0.2 1.2
v -1.6 0 0.9
v -1.6 0.2 0.9
v 0.0999999 0 0.9
v 0.0999999 0.2 0.9
v -1.6 0 0.6
v -1.6 0.2 0.6
v 0.0999999 0 0.6
v 0.0999999 0.2 0.6
v 0.4 0.1 0.4
v 0.4 0.2 0.4
v 1.1 0.1 0.4
v 1.1 0.2 0.4
v -1.6 0 0.3
v -1.6 0.2 0.3
v 0.0999999 0 0.3
v 0.0999999 0.2 0.3
v -1.6 0 0
v -1.6 0.2 0
v 0.0999999 0 0
v 0.0999999 0.2 0
v -1.6 0 -0.3
v -1.6 0.2 -0.3
v 0.0999999 0 -0.3
v 0.0999999 0.2 -0.3
v -1.6 0 -0.6
v -1.6 0.2 -0.6
v 0.0999999 0 -0.6
v 0.0999999 0.2 -0.6
v -1.6 0 -0.9
v -1.6 0.2 -0.9
v 0.0999999 0 -0.9
v 0.0999999 0.2 -0.9
v 0.4 0.1 -1
v 0.4 0.2 -1
v 1.1 0.1 -1
v 1.1 0.2 -1
v -1.6 0 -1.2
v -1.6 0.2 -1.2
v 0.0999999 0 -1.2
v 0.0999999 0.2 -1.2
v -1.6 0 -1.5
v -1.6 0.2 -1.5
v 0.0999999 0 -1.5
v 0.0999999 0.2 -1.5
v -1.6 0 -1.8
v -1.6 0.2 -1.8
v 0.0999999 0 -1.8
v 0.0999999 0.2 -1.8
v -1.8 0 -2.2
v -1.8 0.2 -2.2
v 1.8 0 -2.2
v 1.8 0.2 -2.2
v -1.8 0 1.4
v 1.8 0 1.4
v -1.6 0 1.2
v 0.0999999 0 1.2
v -1.6 0 1
v 0.0999999 0 1
v 1.4 0 1
v -1.6 0 0.9
v 0.0999999 0 0.9
v -1.6 0 0.7
v 0.0999999 0 0.7
v -1.6 0 0.6
v 0.0999999 0 0.6
v -1.6 0 0.4
v 0.0999999 0 0.4
v 0.4 0 0.4
v 1.1 0 0.4
v -1.6 0 0.3
v 0.0999999 0 0.3
v 0.4 0 0.2
v 1.1 0 0.2
v -1.6 0 0.1
v 0.0999999 0 0.1
v -1.6 0 0
v 0.0999999 0 0
v -1.6 0 -0.2
v 0.0999999 0 -0.2
v -1.6 0 -0.3
v 0.0999999 0 -0.3
v -1.6 0 -0.5
v 0.0999999 0 -0.5
v -1.6 0 -0.6
v 0.0999999 0 -0.6
v -1.6 0 -0.8
v 0.0999999 0 -0.8
v -1.6 0 -0.9
v 0.0999999 0 -0.9
v 0.4 0 -1
v 1.1 0 -1
v -1.6 0 -1.1
v 0.0999999 0 -1.1
v -1.6 0 -1.2
v 0.0999999 0 -1.2
v 0.4 0 -1.2
v 1.1 0 -1.2
v -1.6 0 -1.4
v 0.0999999 0 -1.4
v -1.6 0 -1.5
v 0.0999999 0 -1.5
v -1.6 0 -1.7
v 0.0999999 0 -1.7
v -1.6 0 -1.8
v 0.0999999 0 -1.8
v 1.4 0 -1.8
v -1.6 0 -2
v 0.0999999 0 -2
v -1.8 0 -2.2
v 1.8 0 -2.2
v 0.4 0.1 0.4
v 1.1 0.1 0.4
v 0.4 0.1 0.2
v 1.1 0.1 0.2
v 0.4 0.1 -1
v 1.1 0.1 -1
v 0.4 0.1 -1.2
v 1.1 0.1 -1.2
v -1.8 0.2 1.4
v 1.8 0.2 1.4
v -1.6 0.2 1.2
v 0.0999999 0.2 1.2
v -1.6 0.2 1
v 0.0999999 0.2 1
v 1.4 0.2 1
v -1.6 0.2 0.9
v 0.0999999 0.2 0.9
v -1.6 0.2 0.7
v 0.0999999 0.2 0.7
v -1.6 0.2 0.6
v 0.0999999 0.2 0.6
v -1.6 0.2 0.4
v 0.0999999 0.2 0.4
v 0.4 0.2 0.4
v 1.1 0.2 0.4
v -1.6 0.2 0.3
v 0.0999999 0.2 0.3
v 0.4 0.2 0.2
v 1.1 0.2 0.2
v -1.6 0.2 0.1
v 0.0999999 0.2 0.1
v -1.6 0.2 0
v 0.0999999 0.2 0
v -1.6 0.2 -0.2
v 0.0999999 0.2 -0.2
v -1.6 0.2 -0.3
v 0.0999999 0.2 -0.3
v -1.6 0.2 -0.5
v 0.0999999 0.2 -0.5
v -1.6 0.2 -0.6
v 0.0999999 0.2 -0.6
v -1.6 0.2 -0.8
v 0.0999999 0.2 -0.8
v -1.6 0.2 -0.9
v 0.0999999 0.2 -0.9
v 0.4 0.2 -1
v 1.1 0.2 -1
v -1.6 0.2 -1.1
v 0.0999999 0.2 -1.1
v -1.6 0.2 -1.2
v 0.0999999 0.2 -1.2
v 0.4 0.2 -1.2
v 1.1 0.2 -1.2
v -1.6 0.2 -1.4
v 0.0999999 0.2 -1.4
v -1.6 0.2 -1.5
v 0.0999999 0.2 -1.5
v -1.6 0.2 -1.7
v 0.0999999 0.2 -1.7
v -1.6 0.2 -1.8
v 0.0999999 0.2 -1.8
v 1.4 0.2 -1.8
v -1.6 0.2 -2
v 0.0999999 0.2 -2
v -1.8 0.2 -2.2
v 1.8 0.2 -2.2

# faces
f 3/2/1 2/2/1 1/2/1
f 4/2/1 2/2/1 3/2/1
f 27/2/1 6/2/1 5/2/1
f 28/2/1 6/2/1 27/2/1
f 29/3/1 8/3/1 7/3/1
f 30/3/1 8/3/1 29/3/1
f 31/3/1 10/3/1 9/3/1
f 32/3/1 10/3/1 31/3/1
f 33/3/1 12/3/1 11/3/1
f 34/3/1 12/3/1 33/3/1
f 35/3/1 14/3/1 13/3/1
f 36/3/1 14/3/1 35/3/1
f 37/3/1 16/3/1 15/3/1
f 38/3/1 16/3/1 37/3/1
f 39/3/1 18/3/1 17/3/1
f 40/3/1 18/3/1 39/3/1
f 41/3/1 20/3/1 19/3/1
f 42/3/1 20/3/1 41/3/1
f 43/3/1 22/3/1 21/3/1
f 44/3/1 22/3/1 43/3/1
f 45/3/1 24/3/1 23/3/1
f 46/3/1 24/3/1 45/3/1
f 47/2/1 26/2/1 25/2/1
f 48/2/1 26/2/1 47/2/1
f 53/3/1 50/3/1 49/3/1
f 54/3/1 50/3/1 53/3/1
f 55/3/1 52/3/1 51/3/1
f 56/3/1 52/3/1 55/3/1
f 57/2/2 58/2/2 79/2/2
f 79/2/2 58/2/2 80/2/2
f 59/2/2 60/2/2 81/2/2
f 81/2/2 60/2/2 82/2/2
f 61/2/2 62/2/2 83/2/2
f 83/2/2 62/2/2 84/2/2
f 63/2/2 64/2/2 85/2/2
f 85/2/2 64/2/2 86/2/2
f 65/2/2 66/2/2 87/2/2
f 87/2/2 66/2/2 88/2/2
f 67/2/2 68/2/2 89/2/2
f 89/2/2 68/2/2 90/2/2
f 69/2/2 70/2/2 91/2/2
f 91/2/2 70/2/2 92/2/2
f 71/2/2 72/2/2 93/2/2
f 93/2/2 72/2/2 94/2/2
f 73/2/2 74/2/2 95/2/2
f 95/2/2 74/2/2 96/2/2
f 75/2/2 76/2/2 97/2/2
f 97/2/2 76/2/2 98/2/2
f 77/2/2 78/2/2 99/2/2
f 99/2/2 78/2/2 100/2/2
f 101/3/2 102/3/2 105/3/2
f 105/3/2 102/3/2 106/3/2
f 103/3/2 104/3/2 107/3/2
f 107/3/2 104/3/2 108/3/2
f 109/2/2 110/2/2 111/2/2
f 111/2/2 110/2/2 112/2/2
f 115/2/3 114/2/3 113/2/3
f 116/2/3 114/2/3 115/2/3
f 119/1/3 118/1/3 117/1/3
f 120/1/3 118/1/3 119/1/3
f 123/1/3 122/1/3 121/1/3
f 124/1/3 122/1/3 123/1/3
f 127/1/3 126/1/3 125/1/3
f 128/1/3 126/1/3 127/1/3
f 131/3/3 130/3/3 129/3/3
f 132/3/3 130/3/3 131/3/3
f 135/1/3 134/1/3 133/1/3
f 136/1/3 134/1/3 135/1/3
f 139/1/3 138/1/3 137/1/3
f 140/1/3 138/1/3 139/1/3
f 143/1/3 142/1/3 141/1/3
f 144/1/3 142/1/3 143/1/3
f 147/1/3 146/1/3 145/1/3
f 148/1/3 146/1/3 147/1/3
f 151/1/3 150/1/3 149/1/3
f 152/1/3 150/1/3 151/1/3
f 155/3/3 154/3/3 153/3/3
f 156/3/3 154/3/3 155/3/3
f 159/1/3 158/1/3 157/1/3
f 160/1/3 158/1/3 159/1/3
f 163/1/3 162/1/3 161/1/3
f 164/1/3 162/1/3 163/1/3
f 167/2/3 166/2/3 165/2/3
f 168/2/3 166/2/3 167/2/3
f 169/2/4 170/2/4 171/2/4
f 171/2/4 170/2/4 172/2/4
f 173/1/4 174/1/4 175/1/4
f 175/1/4 174/1/4 176/1/4
f 177/1/4 178/1/4 179/1/4
f 179/1/4 178/1/4 180/1/4
f 181/3/4 182/3/4 183/3/4
f 183/3/4 182/3/4 184/3/4
f 185/1/4 186/1/4 187/1/4
f 187/1/4 186/1/4 188/1/4
f 189/1/4 190/1/4 191/1/4
f 191/1/4 190/1/4 192/1/4
f 193/1/4 194/1/4 195/1/4
f 195/1/4 194/1/4 196/1/4
f 197/1/4 198/1/4 199/1/4
f 199/1/4 198/1/4 200/1/4
f 201/1/4 202/1/4 203/1/4
f 203/1/4 202/1/4 204/1/4
f 205/3/4 206/3/4 207/3/4
f 207/3/4 206/3/4 208/3/4
f 209/1/4 210/1/4 211/1/4
f 211/1/4 210/1/4 212/1/4
f 213/1/4 214/1/4 215/1/4
f 215/1/4 214/1/4 216/1/4
f 217/1/4 218/1/4 219/1/4
f 219/1/4 218/1/4 220/1/4
f 221/2/4 222/2/4 223/2/4
f 223/2/4 222/2/4 224/2/4
f 227/2/5 226/2/5 225/2/5
f 228/2/5 226/2/5 227/2/5
f 229/2/5 227/2/5 225/2/5
f 230/2/5 226/2/5 228/2/5
f 231/2/5 226/2/5 230/2/5
f 232/2/5 229/2/5 225/2/5
f 232/1/5 230/1/5 229/1/5
f 233/3/5 231/3/5 230/3/5
f 233/1/5 230/1/5 232/1/5
f 234/2/5 232/2/5 225/2/5
f 235/3/5 231/3/5 233/3/5
f 236/2/5 234/2/5 225/2/5
f 236/1/5 235/1/5 234/1/5
f 237/3/5 231/3/5 235/3/5
f 237/1/5 235/1/5 236/1/5
f 238/2/5 236/2/5 225/2/5
f 239/3/5 231/3/5 237/3/5
f 240/3/5 231/3/5 239/3/5
f 241/3/5 231/3/5 240/3/5
f 242/2/5 238/2/5 225/2/5
f 242/1/5 239/1/5 238/1/5
f 243/3/5 240/3/5 239/3/5
f 243/1/5 239/1/5 242/1/5
f 244/1/5 241/1/5 240/1/5
f 244/3/5 240/3/5 243/3/5
f 245/3/5 231/3/5 241/3/5
f 245/1/5 241/1/5 244/1/5
f 246/2/5 242/2/5 225/2/5
f 247/3/5 244/3/5 243/3/5
f 247/3/5 245/3/5 244/3/5
f 248/2/5 246/2/5 225/2/5
f 248/1/5 247/1/5 246/1/5
f 249/3/5 245/3/5 247/3/5
f 249/1/5 247/1/5 248/1/5
f 250/2/5 248/2/5 225/2/5
f 251/3/5 245/3/5 249/3/5
f 252/2/5 250/2/5 225/2/5
f 252/1/5 251/1/5 250/1/5
f 253/3/5 245/3/5 251/3/5
f 253/1/5 251/1/5 252/1/5
f 254/2/5 252/2/5 225/2/5
f 255/3/5 245/3/5 253/3/5
f 256/2/5 254/2/5 225/2/5
f 256/1/5 255/1/5 254/1/5
f 257/3/5 245/3/5 255/3/5
f 257/1/5 255/1/5 256/1/5
f 258/2/5 256/2/5 225/2/5
f 259/3/5 245/3/5 257/3/5
f 260/2/5 258/2/5 225/2/5
f 260/1/5 259/1/5 258/1/5
f 261/3/5 245/3/5 259/3/5
f 261/1/5 259/1/5 260/1/5
f 262/3/5 245/3/5 261/3/5
f 263/3/5 231/3/5 245/3/5
f 263/3/5 245/3/5 262/3/5
f 264/2/5 260/2/5 225/2/5
f 265/3/5 262/3/5 261/3/5
f 266/2/5 264/2/5 225/2/5
f 266/1/5 265/1/5 264/1/5
f 267/3/5 262/3/5 265/3/5
f 267/1/5 265/1/5 266/1/5
f 268/1/5 263/1/5 262/1/5
f 268/3/5 262/3/5 267/3/5
f 269/3/5 231/3/5 263/3/5
f 269/1/5 263/1/5 268/1/5
f 270/2/5 266/2/5 225/2/5
f 271/3/5 268/3/5 267/3/5
f 271/3/5 269/3/5 268/3/5
f 272/2/5 270/2/5 225/2/5
f 272/1/5 271/1/5 270/1/5
f 273/3/5 269/3/5 271/3/5
f 273/1/5 271/1/5 272/1/5
f 274/2/5 272/2/5 225/2/5
f 275/3/5 269/3/5 273/3/5
f 276/2/5 274/2/5 225/2/5
f 276/1/5 275/1/5 274/1/5
f 277/3/5 269/3/5 275/3/5
f 277/1/5 275/1/5 276/1/5
f 278/2/5 226/2/5 231/2/5
f 278/3/5 269/3/5 277/3/5
f 278/3/5 231/3/5 269/3/5
f 279/2/5 276/2/5 225/2/5
f 280/2/5 278/2/5 277/2/5
f 281/2/5 279/2/5 225/2/5
f 281/2/5 280/2/5 279/2/5
f 282/2/5 226/2/5 278/2/5
f 282/2/5 280/2/5 281/2/5
f 282/2/5 278/2/5 280/2/5
f 283/1/6 284/1/6 285/1/6
f 285/1/6 284/1/6 286/1/6
f 287/1/6 288/1/6 289/1/6
f 289/1/6 288/1/6 290/1/6
f 291/2/6 292/2/6 293/2/6
f 293/2/6 292/2/6 294/2/6
f 291/2/6 293/2/6 295/2/6
f 294/2/6 292/2/6 296/2/6
f 296/2/6 292/2/6 297/2/6
f 291/2/6 295/2/6 298/2/6
f 295/1/6 296/1/6 298/1/6
f 296/3/6 297/3/6 299/3/6
f 298/1/6 296/1/6 299/1/6
f 291/2/6 298/2/6 300/2/6
f 299/3/6 297/3/6 301/3/6
f 291/2/6 300/2/6 302/2/6
f 300/1/6 301/1/6 302/1/6
f 301/3/6 297/3/6 303/3/6
f 302/1/6 301/1/6 303/1/6
f 291/2/6 302/2/6 304/2/6
f 303/3/6 297/3/6 305/3/6
f 305/3/6 297/3/6 306/3/6
f 306/3/6 297/3/6 307/3/6
f 291/2/6 304/2/6 308/2/6
f 304/1/6 305/1/6 308/1/6
f 305/3/6 306/3/6 309/3/6
f 308/1/6 305/1/6 309/1/6
f 309/3/6 306/3/6 310/3/6
f 307/3/6 297/3/6 311/3/6
f 291/2/6 308/2/6 312/2/6
f 309/3/6 310/3/6 313/3/6
f 310/3/6 311/3/6 313/3/6
f 291/2/6 312/2/6 314/2/6
f 312/1/6 313/1/6 314/1/6
f 313/3/6 311/3/6 315/3/6
f 314/1/6 313/1/6 315/1/6
f 291/2/6 314/2/6 316/2/6
f 315/3/6 311/3/6 317/3/6
f 291/2/6 316/2/6 318/2/6
f 316/1/6 317/1/6 318/1/6
f 317/3/6 311/3/6 319/3/6
f 318/1/6 317/1/6 319/1/6
f 291/2/6 318/2/6 320/2/6
f 319/3/6 311/3/6 321/3/6
f 291/2/6 320/2/6 322/2/6
f 320/1/6 321/1/6 322/1/6
f 321/3/6 311/3/6 323/3/6
f 322/1/6 321/1/6 323/1/6
f 291/2/6 322/2/6 324/2/6
f 323/3/6 311/3/6 325/3/6
f 291/2/6 324/2/6 326/2/6
f 324/1/6 325/1/6 326/1/6
f 325/3/6 311/3/6 327/3/6
f 326/1/6 325/1/6 327/1/6
f 327/3/6 311/3/6 328/3/6
f 311/3/6 297/3/6 329/3/6
f 328/3/6 311/3/6 329/3/6
f 291/2/6 326/2/6 330/2/6
f 327/3/6 328/3/6 331/3/6
f 291/2/6 330/2/6 332/2/6
f 330/1/6 331/1/6 332/1/6
f 331/3/6 328/3/6 333/3/6
f 332/1/6 331/1/6 333/1/6
f 333/3/6 328/3/6 334/3/6
f 329/3/6 297/3/6 335/3/6
f 291/2/6 332/2/6 336/2/6
f 333/3/6 334/3/6 337/3/6
f 334/3/6 335/3/6 337/3/6
f 291/2/6 336/2/6 338/2/6
f 336/1/6 337/1/6 338/1/6
f 337/3/6 335/3/6 339/3/6
f 338/1/6 337/1/6 339/1/6
f 291/2/6 338/2/6 340/2/6
f 339/3/6 335/3/6 341/3/6
f 291/2/6 340/2/6 342/2/6
f 340/1/6 341/1/6 342/1/6
f 341/3/6 335/3/6 343/3/6
f 342/1/6 341/1/6 343/1/6
f 297/2/6 292/2/6 344/2/6
f 343/3/6 335/3/6 344/3/6
f 335/3/6 297/3/6 344/3/6
f 291/2/6 342/2/6 345/2/6
f 343/2/6 344/2/6 346/2/6
f 291/2/6 345/2/6 347/2/6
f 345/2/6 346/2/6 347/2/6
f 344/2/6 292/2/6 348/2/6
f 347/2/6 346/2/6 348/2/6
f 346/2/6 344/2/6 348/2/6
