# MagicaVoxel @ Ephtracy

# group
o 

# material
mtllib red_bin.mtl
usemtl palette

# normals
vn -1 0 0
vn 1 0 0
vn 0 0 1
vn 0 0 -1
vn 0 -1 0
vn 0 1 0

# texcoords
vt 0.0722656 0.5
vt 0.220703 0.5
vt 0.224609 0.5

# verts
v -0.8 3.1 1.5
v -0.8 3.1 -1.3
v -0.8 3.5 1.5
v -0.8 3.5 -1.3
v -0.6 2.3 1.3
v -0.6 2.3 0.9
v -0.6 2.3 -0.7
v -0.6 2.3 -1.1
v -0.6 2.6 0.9
v -0.6 2.6 -0.7
v -0.6 3.1 1.3
v -0.6 3.1 -1.1
v -0.6 3.5 1.3
v -0.6 3.5 -1.1
v -0.6 3.7 1.3
v -0.6 3.7 -1.1
v -0.5 1.2 1.2
v -0.5 1.2 0.8
v -0.5 1.2 -0.6
v -0.5 1.2 -1
v -0.5 2.3 1.2
v -0.5 2.3 0.9
v -0.5 2.3 0.8
v -0.5 2.3 -0.6
v -0.5 2.3 -0.7
v -0.5 2.3 -1
v -0.5 2.6 0.9
v -0.5 2.6 -0.7
v -0.5 3.7 1.2
v -0.5 3.7 0.9
v -0.5 3.7 -0.7
v -0.5 3.7 -1
v -0.5 3.8 0.9
v -0.5 3.8 -0.7
v -0.5 3.9 1.2
v -0.5 3.9 0.9
v -0.5 3.9 -0.7
v -0.5 3.9 -1
v -0.4 0 1.1
v -0.4 0 -0.9
v -0.4 0.3 0.7
v -0.4 0.3 -0.5
v -0.4 1.2 1.1
v -0.4 1.2 0.8
v -0.4 1.2 0.7
v -0.4 1.2 -0.5
v -0.4 1.2 -0.6
v -0.4 1.2 -0.9
v -0.4 1.3 0.4
v -0.4 1.3 0.2
v -0.4 1.3 0
v -0.4 1.3 -0.2
v -0.4 1.4 0.5
v -0.4 1.4 0.4
v -0.4 1.4 0.3
v -0.4 1.4 0.2
v -0.4 1.4 0
v -0.4 1.4 -0.1
v -0.4 1.4 -0.2
v -0.4 1.4 -0.3
v -0.4 1.5 0.6
v -0.4 1.5 0.5
v -0.4 1.5 0.4
v -0.4 1.5 0.3
v -0.4 1.5 -0.1
v -0.4 1.5 -0.2
v -0.4 1.5 -0.3
v -0.4 1.5 -0.4
v -0.4 1.7 0.6
v -0.4 1.7 0.5
v -0.4 1.7 0.4
v -0.4 1.7 0.3
v -0.4 1.7 -0.1
v -0.4 1.7 -0.2
v -0.4 1.7 -0.3
v -0.4 1.7 -0.4
v -0.4 1.8 0.5
v -0.4 1.8 0.3
v -0.4 1.8 -0.1
v -0.4 1.8 -0.3
v -0.4 1.9 0.4
v -0.4 1.9 0.2
v -0.4 1.9 0
v -0.4 1.9 -0.2
v -0.4 2 0.4
v -0.4 2 0.3
v -0.4 2 0.2
v -0.4 2 0
v -0.4 2 -0.1
v -0.4 2 -0.2
v -0.4 2.1 0.3
v -0.4 2.1 0.2
v -0.4 2.1 0
v -0.4 2.1 -0.1
v -0.4 2.2 0.2
v -0.4 2.2 0
v -0.4 2.3 0.8
v -0.4 2.3 -0.6
v -0.4 3.8 0.9
v -0.4 3.8 0.8
v -0.4 3.8 -0.6
v -0.4 3.8 -0.7
v -0.4 3.9 1.1
v -0.4 3.9 0.9
v -0.4 3.9 0.8
v -0.4 3.9 -0.6
v -0.4 3.9 -0.7
v -0.4 3.9 -0.9
v -0.4 4.1 1.1
v -0.4 4.1 0.9
v -0.4 4.1 0.8
v -0.4 4.1 -0.6
v -0.4 4.1 -0.7
v -0.4 4.1 -0.9
v -0.3 0.3 0.7
v -0.3 0.3 -0.5
v -0.3 1.2 0.7
v -0.3 1.2 -0.5
v -0.3 3.7 -0.6
v -0.3 3.7 -0.7
v -0.3 3.8 -0.6
v -0.3 3.8 -0.7
v -0.3 3.9 0.9
v -0.3 3.9 0.8
v -0.3 3.9 -0.6
v -0.3 3.9 -0.7
v -0.3 4.1 1
v -0.3 4.1 0.9
v -0.3 4.1 0.8
v -0.3 4.1 0.7
v -0.3 4.1 -0.5
v -0.3 4.1 -0.6
v -0.3 4.1 -0.7
v -0.3 4.1 -0.8
v -0.3 4.3 1
v -0.3 4.3 0.8
v -0.3 4.3 0.7
v -0.3 4.3 -0.5
v -0.3 4.3 -0.6
v -0.3 4.3 -0.8
v -0.2 4.1 0.8
v -0.2 4.1 0.7
v -0.2 4.1 -0.5
v -0.2 4.1 -0.6
v -0.2 4.3 0.9
v -0.2 4.3 0.8
v -0.2 4.3 0.7
v -0.2 4.3 0.6
v -0.2 4.3 -0.4
v -0.2 4.3 -0.5
v -0.2 4.3 -0.6
v -0.2 4.3 -0.7
v -0.2 4.5 0.9
v -0.2 4.5 0.7
v -0.2 4.5 0.6
v -0.2 4.5 -0.4
v -0.2 4.5 -0.5
v -0.2 4.5 -0.7
v -0.1 4.3 0.7
v -0.1 4.3 0.6
v -0.1 4.3 -0.4
v -0.1 4.3 -0.5
v -0.1 4.5 0.8
v -0.1 4.5 0.7
v -0.1 4.5 0.6
v -0.1 4.5 0.5
v -0.1 4.5 -0.3
v -0.1 4.5 -0.4
v -0.1 4.5 -0.5
v -0.1 4.5 -0.6
v -0.1 4.6 0.6
v -0.1 4.6 0.5
v -0.1 4.6 -0.3
v -0.1 4.6 -0.4
v -0.1 4.7 0.8
v -0.1 4.7 0.5
v -0.1 4.7 -0.3
v -0.1 4.7 -0.6
v 0 4.5 0.6
v 0 4.5 0.5
v 0 4.5 -0.3
v 0 4.5 -0.4
v 0 4.6 0.6
v 0 4.6 0.5
v 0 4.6 -0.3
v 0 4.6 -0.4
v 0 4.7 0.7
v 0 4.7 0.5
v 0 4.7 -0.3
v 0 4.7 -0.5
v 0 4.9 0.7
v 0 4.9 -0.5
v 1.1 4.7 0.6
v 1.1 4.7 -0.4
v 1.1 4.8 0.6
v 1.1 4.8 -0.4
v 1.2 0.3 1.1
v 1.2 0.3 1
v 1.2 0.3 -0.8
v 1.2 0.3 -0.9
v 1.2 1.2 1.1
v 1.2 1.2 1
v 1.2 1.2 -0.8
v 1.2 1.2 -0.9
v 1.2 4.5 0.7
v 1.2 4.5 -0.5
v 1.2 4.7 0.7
v 1.2 4.7 -0.5
v 1.3 1.2 1.2
v 1.3 1.2 1.1
v 1.3 1.2 -0.9
v 1.3 1.2 -1
v 1.3 2.3 1.2
v 1.3 2.3 1.1
v 1.3 2.3 -0.9
v 1.3 2.3 -1
v 1.3 4.3 0.8
v 1.3 4.3 -0.6
v 1.3 4.5 0.8
v 1.3 4.5 -0.6
v 1.4 0.1 0.9
v 1.4 0.1 -0.7
v 1.4 1.2 0.9
v 1.4 1.2 -0.7
v 1.4 2.3 1.3
v 1.4 2.3 1.2
v 1.4 2.3 -1
v 1.4 2.3 -1.1
v 1.4 2.6 1.3
v 1.4 2.6 1.2
v 1.4 2.6 -1
v 1.4 2.6 -1.1
v 1.4 4.1 0.9
v 1.4 4.1 -0.6
v 1.4 4.3 0.9
v 1.4 4.3 -0.6
v 1.5 1.2 1
v 1.5 1.2 -0.8
v 1.5 2.3 1
v 1.5 2.3 -0.8
v 1.5 3.9 1
v 1.5 3.9 -0.8
v 1.5 4.1 1
v 1.5 4.1 -0.8
v 1.6 2.3 1.1
v 1.6 2.3 -0.9
v 1.6 3.5 1.1
v 1.6 3.5 -0.9
v 1.6 3.7 1.1
v 1.6 3.7 -0.9
v 1.6 3.9 1.1
v 1.6 3.9 -0.9
v 1.7 3.5 1.2
v 1.7 3.5 -1
v 1.7 3.7 1.2
v 1.7 3.7 -1
v -0.5 3.5 1.2
v -0.5 3.5 -1
v -0.5 3.7 1.2
v -0.5 3.7 0.9
v -0.5 3.7 -0.7
v -0.5 3.7 -1
v -0.4 2.3 1.1
v -0.4 2.3 -0.9
v -0.4 3.5 1.1
v -0.4 3.5 -0.9
v -0.4 3.7 1.1
v -0.4 3.7 0.9
v -0.4 3.7 -0.6
v -0.4 3.7 -0.7
v -0.4 3.8 0.9
v -0.4 3.8 -0.6
v -0.4 3.8 -0.7
v -0.4 3.9 1.1
v -0.4 3.9 0.9
v -0.3 1.2 1
v -0.3 1.2 -0.8
v -0.3 1.3 0.4
v -0.3 1.3 0.2
v -0.3 1.3 0
v -0.3 1.3 -0.2
v -0.3 1.4 0.5
v -0.3 1.4 0.4
v -0.3 1.4 0.3
v -0.3 1.4 0.2
v -0.3 1.4 0
v -0.3 1.4 -0.1
v -0.3 1.4 -0.2
v -0.3 1.4 -0.3
v -0.3 1.5 0.6
v -0.3 1.5 0.5
v -0.3 1.5 0.4
v -0.3 1.5 0.3
v -0.3 1.5 -0.1
v -0.3 1.5 -0.2
v -0.3 1.5 -0.3
v -0.3 1.5 -0.4
v -0.3 1.7 0.6
v -0.3 1.7 0.5
v -0.3 1.7 0.4
v -0.3 1.7 0.3
v -0.3 1.7 -0.1
v -0.3 1.7 -0.2
v -0.3 1.7 -0.3
v -0.3 1.7 -0.4
v -0.3 1.8 0.5
v -0.3 1.8 0.3
v -0.3 1.8 -0.1
v -0.3 1.8 -0.3
v -0.3 1.9 0.4
v -0.3 1.9 0.2
v -0.3 1.9 0
v -0.3 1.9 -0.2
v -0.3 2 0.4
v -0.3 2 0.3
v -0.3 2 0.2
v -0.3 2 0
v -0.3 2 -0.1
v -0.3 2 -0.2
v -0.3 2.1 0.3
v -0.3 2.1 0.2
v -0.3 2.1 0
v -0.3 2.1 -0.1
v -0.3 2.2 0.2
v -0.3 2.2 0
v -0.3 2.3 1
v -0.3 2.3 -0.8
v -0.3 3.9 1
v -0.3 3.9 0.9
v -0.3 3.9 0.8
v -0.3 3.9 -0.5
v -0.3 3.9 -0.7
v -0.3 3.9 -0.8
v -0.3 4 0.8
v -0.3 4 0.7
v -0.3 4.1 1
v -0.3 4.1 0.9
v -0.3 4.1 0.7
v -0.3 4.1 -0.5
v -0.3 4.1 -0.7
v -0.3 4.1 -0.8
v -0.2 0.1 0.9
v -0.2 0.1 -0.7
v -0.2 1.2 0.9
v -0.2 1.2 -0.7
v -0.2 2.3 1.3
v -0.2 2.3 1.2
v -0.2 2.3 -1
v -0.2 2.3 -1.1
v -0.2 2.6 1.3
v -0.2 2.6 1.2
v -0.2 2.6 -1
v -0.2 2.6 -1.1
v -0.2 3.9 0.9
v -0.2 3.9 0.8
v -0.2 3.9 -0.5
v -0.2 3.9 -0.7
v -0.2 4 0.8
v -0.2 4 0.7
v -0.2 4.1 0.9
v -0.2 4.1 0.8
v -0.2 4.1 0.7
v -0.2 4.1 -0.5
v -0.2 4.1 -0.6
v -0.2 4.1 -0.7
v -0.2 4.2 0.7
v -0.2 4.2 0.6
v -0.2 4.2 -0.4
v -0.2 4.2 -0.5
v -0.2 4.3 0.9
v -0.2 4.3 0.8
v -0.2 4.3 0.6
v -0.2 4.3 -0.4
v -0.1 1.2 1.2
v -0.1 1.2 1.1
v -0.1 1.2 -0.9
v -0.1 1.2 -1
v -0.1 2.3 1.2
v -0.1 2.3 1.1
v -0.1 2.3 -0.9
v -0.1 2.3 -1
v -0.1 4.1 0.8
v -0.1 4.1 0.7
v -0.1 4.1 -0.5
v -0.1 4.1 -0.6
v -0.1 4.2 0.7
v -0.1 4.2 0.6
v -0.1 4.2 -0.5
v -0.1 4.3 0.8
v -0.1 4.3 0.7
v -0.1 4.3 0.6
v -0.1 4.3 -0.4
v -0.1 4.3 -0.5
v -0.1 4.3 -0.6
v -0.1 4.4 0.6
v -0.1 4.4 0.5
v -0.1 4.4 -0.3
v -0.1 4.4 -0.4
v -0.1 4.5 0.8
v -0.1 4.5 0.7
v -0.1 4.5 0.5
v -0.1 4.5 -0.3
v -0.1 4.5 -0.5
v -0.1 4.5 -0.6
v 0 0.3 1.1
v 0 0.3 1
v 0 0.3 -0.8
v 0 0.3 -0.9
v 0 1.2 1.1
v 0 1.2 1
v 0 1.2 -0.8
v 0 1.2 -0.9
v 0 4.2 -0.4
v 0 4.2 -0.5
v 0 4.3 0.7
v 0 4.3 0.6
v 0 4.3 -0.4
v 0 4.3 -0.5
v 0 4.4 0.6
v 0 4.4 0.5
v 0 4.4 -0.4
v 0 4.5 0.7
v 0 4.5 0.6
v 0 4.5 0.5
v 0 4.5 -0.3
v 0 4.5 -0.4
v 0 4.5 -0.5
v 0 4.6 0.6
v 0 4.6 0.5
v 0 4.6 -0.3
v 0 4.6 -0.4
v 0 4.7 0.7
v 0 4.7 0.6
v 0 4.7 -0.4
v 0 4.7 -0.5
v 0.1 4.4 -0.3
v 0.1 4.4 -0.4
v 0.1 4.5 0.6
v 0.1 4.5 0.5
v 0.1 4.5 -0.3
v 0.1 4.5 -0.4
v 0.1 4.6 0.6
v 0.1 4.6 0.5
v 0.1 4.6 -0.3
v 0.1 4.6 -0.4
v 0.1 4.7 0.6
v 0.1 4.7 0.5
v 0.1 4.7 -0.3
v 0.1 4.7 -0.4
v 0.1 4.8 0.6
v 0.1 4.8 -0.4
v 0.4 3.7 0.9
v 0.4 3.7 -0.9
v 0.4 3.9 0.9
v 0.4 3.9 -0.8
v 0.4 3.9 -0.9
v 1.2 4.7 0.7
v 1.2 4.7 -0.5
v 1.2 4.9 0.7
v 1.2 4.9 -0.5
v 1.3 4.5 0.8
v 1.3 4.5 -0.6
v 1.3 4.7 0.8
v 1.3 4.7 -0.6
v 1.4 4.3 0.9
v 1.4 4.3 -0.7
v 1.4 4.5 0.9
v 1.4 4.5 -0.7
v 1.5 0.3 0.7
v 1.5 0.3 -0.5
v 1.5 1.2 0.7
v 1.5 1.2 -0.5
v 1.5 4.1 1
v 1.5 4.1 -0.8
v 1.5 4.3 1
v 1.5 4.3 -0.8
v 1.6 0 1.1
v 1.6 0 -0.9
v 1.6 0.3 0.7
v 1.6 0.3 -0.5
v 1.6 1.2 1.1
v 1.6 1.2 0.8
v 1.6 1.2 0.7
v 1.6 1.2 -0.5
v 1.6 1.2 -0.6
v 1.6 1.2 -0.9
v 1.6 2.3 0.8
v 1.6 2.3 -0.6
v 1.6 3.9 1.1
v 1.6 3.9 -0.9
v 1.6 4.1 1.1
v 1.6 4.1 -0.9
v 1.7 1.2 1.2
v 1.7 1.2 0.8
v 1.7 1.2 -0.6
v 1.7 1.2 -1
v 1.7 2.3 1.2
v 1.7 2.3 0.9
v 1.7 2.3 0.8
v 1.7 2.3 -0.6
v 1.7 2.3 -0.7
v 1.7 2.3 -1
v 1.7 2.6 0.9
v 1.7 2.6 -0.7
v 1.7 3.7 1.2
v 1.7 3.7 -1
v 1.7 3.9 1.2
v 1.7 3.9 -1
v 1.8 2.3 1.3
v 1.8 2.3 0.9
v 1.8 2.3 -0.7
v 1.8 2.3 -1.1
v 1.8 2.6 0.9
v 1.8 2.6 -0.7
v 1.8 3.1 1.3
v 1.8 3.1 -1.1
v 1.8 3.5 1.3
v 1.8 3.5 -1.1
v 1.8 3.7 1.3
v 1.8 3.7 -1.1
v 2 3.1 1.5
v 2 3.1 -1.3
v 2 3.5 1.5
v 2 3.5 -1.3
v -0.8 3.1 1.5
v -0.8 3.5 1.5
v 2 3.1 1.5
v 2 3.5 1.5
v -0.6 2.3 1.3
v -0.6 3.1 1.3
v -0.6 3.5 1.3
v -0.6 3.7 1.3
v -0.2 2.3 1.3
v -0.2 2.6 1.3
v 1.4 2.3 1.3
v 1.4 2.6 1.3
v 1.8 2.3 1.3
v 1.8 3.1 1.3
v 1.8 3.5 1.3
v 1.8 3.7 1.3
v -0.5 1.2 1.2
v -0.5 2.3 1.2
v -0.5 3.7 1.2
v -0.5 3.9 1.2
v -0.2 2.3 1.2
v -0.2 2.6 1.2
v -0.1 1.2 1.2
v -0.1 2.3 1.2
v 1.3 1.2 1.2
v 1.3 2.3 1.2
v 1.4 2.3 1.2
v 1.4 2.6 1.2
v 1.7 1.2 1.2
v 1.7 2.3 1.2
v 1.7 3.7 1.2
v 1.7 3.9 1.2
v -0.4 0 1.1
v -0.4 1.2 1.1
v -0.4 3.9 1.1
v -0.4 4.1 1.1
v -0.1 1.2 1.1
v -0.1 2.3 1.1
v 0 0.3 1.1
v 0 1.2 1.1
v 1.2 0.3 1.1
v 1.2 1.2 1.1
v 1.3 1.2 1.1
v 1.3 2.3 1.1
v 1.6 0 1.1
v 1.6 1.2 1.1
v 1.6 3.9 1.1
v 1.6 4.1 1.1
v -0.3 4.1 1
v -0.3 4.3 1
v 0 0.3 1
v 0 1.2 1
v 1.2 0.3 1
v 1.2 1.2 1
v 1.5 4.1 1
v 1.5 4.3 1
v -0.4 3.7 0.9
v -0.4 3.8 0.9
v -0.4 3.9 0.9
v -0.3 3.8 0.9
v -0.3 3.9 0.9
v -0.3 4.1 0.9
v -0.2 3.9 0.9
v -0.2 4.1 0.9
v -0.2 4.3 0.9
v -0.2 4.5 0.9
v 0.4 3.7 0.9
v 0.4 3.9 0.9
v 1.4 4.3 0.9
v 1.4 4.5 0.9
v -0.4 3.9 0.8
v -0.4 4.1 0.8
v -0.3 3.9 0.8
v -0.3 4.1 0.8
v -0.2 4.1 0.8
v -0.2 4.3 0.8
v -0.1 4.1 0.8
v -0.1 4.3 0.8
v -0.1 4.5 0.8
v -0.1 4.7 0.8
v 1.3 4.5 0.8
v 1.3 4.7 0.8
v -0.3 4.1 0.7
v -0.3 4.3 0.7
v -0.2 4.1 0.7
v -0.2 4.3 0.7
v -0.1 4.3 0.7
v -0.1 4.5 0.7
v 0 4.3 0.7
v 0 4.5 0.7
v 0 4.7 0.7
v 0 4.9 0.7
v 1.2 4.7 0.7
v 1.2 4.9 0.7
v -0.2 4.3 0.6
v -0.2 4.5 0.6
v -0.1 4.3 0.6
v -0.1 4.5 0.6
v 0 4.5 0.6
v 0 4.6 0.6
v 0 4.7 0.6
v 0.1 4.5 0.6
v 0.1 4.6 0.6
v 0.1 4.7 0.6
v -0.1 4.5 0.5
v -0.1 4.6 0.5
v 0 4.5 0.5
v 0 4.6 0.5
v -0.1 4.4 -0.3
v -0.1 4.5 -0.3
v -0.1 4.6 -0.3
v -0.1 4.7 -0.3
v 0 4.5 -0.3
v 0 4.6 -0.3
v 0 4.7 -0.3
v 0.1 4.4 -0.3
v 0.1 4.5 -0.3
v 0.1 4.6 -0.3
v -0.2 4.2 -0.4
v -0.2 4.3 -0.4
v -0.1 4.3 -0.4
v -0.1 4.4 -0.4
v -0.1 4.5 -0.4
v -0.1 4.6 -0.4
v 0 4.2 -0.4
v 0 4.3 -0.4
v 0 4.4 -0.4
v 0 4.5 -0.4
v 0 4.6 -0.4
v 0.1 4.7 -0.4
v 0.1 4.8 -0.4
v 1.1 4.7 -0.4
v 1.1 4.8 -0.4
v -0.4 0.3 -0.5
v -0.4 1.2 -0.5
v -0.3 0.3 -0.5
v -0.3 1.2 -0.5
v -0.3 3.9 -0.5
v -0.3 4.1 -0.5
v -0.2 3.9 -0.5
v -0.2 4.1 -0.5
v -0.2 4.2 -0.5
v -0.2 4.3 -0.5
v -0.2 4.5 -0.5
v -0.1 4.1 -0.5
v -0.1 4.2 -0.5
v -0.1 4.3 -0.5
v -0.1 4.5 -0.5
v 0 4.5 -0.5
v 0 4.7 -0.5
v 1.2 4.5 -0.5
v 1.2 4.7 -0.5
v 1.5 0.3 -0.5
v 1.5 1.2 -0.5
v 1.6 0.3 -0.5
v 1.6 1.2 -0.5
v -0.5 1.2 -0.6
v -0.5 2.3 -0.6
v -0.4 1.2 -0.6
v -0.4 2.3 -0.6
v -0.3 4.1 -0.6
v -0.3 4.3 -0.6
v -0.2 4.1 -0.6
v -0.2 4.3 -0.6
v -0.1 4.1 -0.6
v -0.1 4.3 -0.6
v -0.1 4.5 -0.6
v 1.3 4.3 -0.6
v 1.3 4.5 -0.6
v 1.4 4.1 -0.6
v 1.4 4.3 -0.6
v 1.6 1.2 -0.6
v 1.6 2.3 -0.6
v 1.7 1.2 -0.6
v 1.7 2.3 -0.6
v -0.6 2.3 -0.7
v -0.6 2.6 -0.7
v -0.5 2.3 -0.7
v -0.5 2.6 -0.7
v -0.5 3.8 -0.7
v -0.5 3.9 -0.7
v -0.4 3.7 -0.7
v -0.4 3.8 -0.7
v -0.4 3.9 -0.7
v -0.4 4.1 -0.7
v -0.3 3.7 -0.7
v -0.3 3.8 -0.7
v -0.3 3.9 -0.7
v -0.3 4.1 -0.7
v -0.2 0.1 -0.7
v -0.2 1.2 -0.7
v 1.4 0.1 -0.7
v 1.4 1.2 -0.7
v 1.7 2.3 -0.7
v 1.7 2.6 -0.7
v 1.8 2.3 -0.7
v 1.8 2.6 -0.7
v -0.3 1.2 -0.8
v -0.3 2.3 -0.8
v -0.3 3.9 -0.8
v -0.3 4.1 -0.8
v 0.4 3.9 -0.8
v 1.5 1.2 -0.8
v 1.5 2.3 -0.8
v 1.5 3.9 -0.8
v 1.5 4.1 -0.8
v -0.4 2.3 -0.9
v -0.4 3.5 -0.9
v 0.4 3.7 -0.9
v 0.4 3.9 -0.9
v 1.6 2.3 -0.9
v 1.6 3.5 -0.9
v 1.6 3.7 -0.9
v 1.6 3.9 -0.9
v -0.5 3.5 -1
v -0.5 3.7 -1
v 1.7 3.5 -1
v 1.7 3.7 -1
v -0.5 3.5 1.2
v -0.5 3.7 1.2
v 1.7 3.5 1.2
v 1.7 3.7 1.2
v -0.4 2.3 1.1
v -0.4 3.5 1.1
v -0.4 3.7 1.1
v -0.4 3.9 1.1
v 1.6 2.3 1.1
v 1.6 3.5 1.1
v 1.6 3.7 1.1
v 1.6 3.9 1.1
v -0.3 1.2 1
v -0.3 2.3 1
v -0.3 3.9 1
v -0.3 4.1 1
v 1.5 1.2 1
v 1.5 2.3 1
v 1.5 3.9 1
v 1.5 4.1 1
v -0.6 2.3 0.9
v -0.6 2.6 0.9
v -0.5 2.3 0.9
v -0.5 2.6 0.9
v -0.5 3.8 0.9
v -0.5 3.9 0.9
v -0.4 3.8 0.9
v -0.4 3.9 0.9
v -0.4 4.1 0.9
v -0.3 3.9 0.9
v -0.3 4.1 0.9
v -0.2 0.1 0.9
v -0.2 1.2 0.9
v -0.2 4.1 0.9
v -0.2 4.3 0.9
v 1.4 0.1 0.9
v 1.4 1.2 0.9
v 1.4 4.1 0.9
v 1.4 4.3 0.9
v 1.7 2.3 0.9
v 1.7 2.6 0.9
v 1.8 2.3 0.9
v 1.8 2.6 0.9
v -0.5 1.2 0.8
v -0.5 2.3 0.8
v -0.4 1.2 0.8
v -0.4 2.3 0.8
v -0.3 3.9 0.8
v -0.3 4 0.8
v -0.3 4.1 0.8
v -0.3 4.3 0.8
v -0.2 3.9 0.8
v -0.2 4 0.8
v -0.2 4.1 0.8
v -0.2 4.3 0.8
v -0.1 4.3 0.8
v -0.1 4.5 0.8
v 1.3 4.3 0.8
v 1.3 4.5 0.8
v 1.6 1.2 0.8
v 1.6 2.3 0.8
v 1.7 1.2 0.8
v 1.7 2.3 0.8
v -0.4 0.3 0.7
v -0.4 1.2 0.7
v -0.3 0.3 0.7
v -0.3 1.2 0.7
v -0.3 4 0.7
v -0.3 4.1 0.7
v -0.2 4 0.7
v -0.2 4.1 0.7
v -0.2 4.2 0.7
v -0.2 4.3 0.7
v -0.2 4.5 0.7
v -0.1 4.1 0.7
v -0.1 4.2 0.7
v -0.1 4.3 0.7
v -0.1 4.5 0.7
v 0 4.5 0.7
v 0 4.7 0.7
v 1.2 4.5 0.7
v 1.2 4.7 0.7
v 1.5 0.3 0.7
v 1.5 1.2 0.7
v 1.6 0.3 0.7
v 1.6 1.2 0.7
v -0.2 4.2 0.6
v -0.2 4.3 0.6
v -0.1 4.2 0.6
v -0.1 4.3 0.6
v -0.1 4.4 0.6
v -0.1 4.5 0.6
v -0.1 4.6 0.6
v 0 4.3 0.6
v 0 4.4 0.6
v 0 4.5 0.6
v 0 4.6 0.6
v 0.1 4.7 0.6
v 0.1 4.8 0.6
v 1.1 4.7 0.6
v 1.1 4.8 0.6
v -0.1 4.4 0.5
v -0.1 4.5 0.5
v -0.1 4.6 0.5
v -0.1 4.7 0.5
v 0 4.4 0.5
v 0 4.5 0.5
v 0 4.6 0.5
v 0 4.7 0.5
v 0.1 4.5 0.5
v 0.1 4.6 0.5
v -0.1 4.5 -0.3
v -0.1 4.6 -0.3
v 0 4.5 -0.3
v 0 4.6 -0.3
v -0.2 4.3 -0.4
v -0.2 4.5 -0.4
v -0.1 4.3 -0.4
v -0.1 4.5 -0.4
v 0 4.4 -0.4
v 0 4.5 -0.4
v 0 4.6 -0.4
v 0 4.7 -0.4
v 0.1 4.4 -0.4
v 0.1 4.5 -0.4
v 0.1 4.6 -0.4
v 0.1 4.7 -0.4
v -0.3 4.1 -0.5
v -0.3 4.3 -0.5
v -0.2 4.1 -0.5
v -0.2 4.3 -0.5
v -0.1 4.2 -0.5
v -0.1 4.3 -0.5
v -0.1 4.5 -0.5
v 0 4.2 -0.5
v 0 4.3 -0.5
v 0 4.5 -0.5
v 0 4.7 -0.5
v 0 4.9 -0.5
v 1.2 4.7 -0.5
v 1.2 4.9 -0.5
v -0.4 3.7 -0.6
v -0.4 3.8 -0.6
v -0.4 3.9 -0.6
v -0.4 4.1 -0.6
v -0.3 3.7 -0.6
v -0.3 3.8 -0.6
v -0.3 3.9 -0.6
v -0.3 4.1 -0.6
v -0.1 4.5 -0.6
v -0.1 4.7 -0.6
v 1.3 4.5 -0.6
v 1.3 4.7 -0.6
v -0.3 3.9 -0.7
v -0.3 4.1 -0.7
v -0.2 3.9 -0.7
v -0.2 4.1 -0.7
v -0.2 4.3 -0.7
v -0.2 4.5 -0.7
v 1.4 4.3 -0.7
v 1.4 4.5 -0.7
v -0.3 4.1 -0.8
v -0.3 4.3 -0.8
v 0 0.3 -0.8
v 0 1.2 -0.8
v 1.2 0.3 -0.8
v 1.2 1.2 -0.8
v 1.5 4.1 -0.8
v 1.5 4.3 -0.8
v -0.4 0 -0.9
v -0.4 1.2 -0.9
v -0.4 3.9 -0.9
v -0.4 4.1 -0.9
v -0.1 1.2 -0.9
v -0.1 2.3 -0.9
v 0 0.3 -0.9
v 0 1.2 -0.9
v 1.2 0.3 -0.9
v 1.2 1.2 -0.9
v 1.3 1.2 -0.9
v 1.3 2.3 -0.9
v 1.6 0 -0.9
v 1.6 1.2 -0.9
v 1.6 3.9 -0.9
v 1.6 4.1 -0.9
v -0.5 1.2 -1
v -0.5 2.3 -1
v -0.5 3.7 -1
v -0.5 3.9 -1
v -0.2 2.3 -1
v -0.2 2.6 -1
v -0.1 1.2 -1
v -0.1 2.3 -1
v 1.3 1.2 -1
v 1.3 2.3 -1
v 1.4 2.3 -1
v 1.4 2.6 -1
v 1.7 1.2 -1
v 1.7 2.3 -1
v 1.7 3.7 -1
v 1.7 3.9 -1
v -0.6 2.3 -1.1
v -0.6 3.1 -1.1
v -0.6 3.5 -1.1
v -0.6 3.7 -1.1
v -0.2 2.3 -1.1
v -0.2 2.6 -1.1
v 1.4 2.3 -1.1
v 1.4 2.6 -1.1
v 1.8 2.3 -1.1
v 1.8 3.1 -1.1
v 1.8 3.5 -1.1
v 1.8 3.7 -1.1
v -0.8 3.1 -1.3
v -0.8 3.5 -1.3
v 2 3.1 -1.3
v 2 3.5 -1.3
v -0.4 0 1.1
v 1.6 0 1.1
v -0.4 0 -0.9
v 1.6 0 -0.9
v -0.5 1.2 1.2
v -0.1 1.2 1.2
v 1.3 1.2 1.2
v 1.7 1.2 1.2
v -0.4 1.2 1.1
v -0.1 1.2 1.1
v 0 1.2 1.1
v 1.2 1.2 1.1
v 1.3 1.2 1.1
v 1.6 1.2 1.1
v 0 1.2 1
v 1.2 1.2 1
v -0.5 1.2 0.8
v -0.4 1.2 0.8
v 1.6 1.2 0.8
v 1.7 1.2 0.8
v -0.4 1.2 0.7
v -0.3 1.2 0.7
v 1.5 1.2 0.7
v 1.6 1.2 0.7
v -0.4 1.2 -0.5
v -0.3 1.2 -0.5
v 1.5 1.2 -0.5
v 1.6 1.2 -0.5
v -0.5 1.2 -0.6
v -0.4 1.2 -0.6
v 1.6 1.2 -0.6
v 1.7 1.2 -0.6
v 0 1.2 -0.8
v 1.2 1.2 -0.8
v -0.4 1.2 -0.9
v -0.1 1.2 -0.9
v 0 1.2 -0.9
v 1.2 1.2 -0.9
v 1.3 1.2 -0.9
v 1.6 1.2 -0.9
v -0.5 1.2 -1
v -0.1 1.2 -1
v 1.3 1.2 -1
v 1.7 1.2 -1
v -0.6 2.3 1.3
v -0.2 2.3 1.3
v 1.4 2.3 1.3
v 1.8 2.3 1.3
v -0.5 2.3 1.2
v -0.2 2.3 1.2
v -0.1 2.3 1.2
v 1.3 2.3 1.2
v 1.4 2.3 1.2
v 1.7 2.3 1.2
v -0.1 2.3 1.1
v 1.3 2.3 1.1
v -0.6 2.3 0.9
v -0.5 2.3 0.9
v 1.7 2.3 0.9
v 1.8 2.3 0.9
v -0.5 2.3 0.8
v -0.4 2.3 0.8
v 1.6 2.3 0.8
v 1.7 2.3 0.8
v -0.5 2.3 -0.6
v -0.4 2.3 -0.6
v 1.6 2.3 -0.6
v 1.7 2.3 -0.6
v -0.6 2.3 -0.7
v -0.5 2.3 -0.7
v 1.7 2.3 -0.7
v 1.8 2.3 -0.7
v -0.1 2.3 -0.9
v 1.3 2.3 -0.9
v -0.5 2.3 -1
v -0.2 2.3 -1
v -0.1 2.3 -1
v 1.3 2.3 -1
v 1.4 2.3 -1
v 1.7 2.3 -1
v -0.6 2.3 -1.1
v -0.2 2.3 -1.1
v 1.4 2.3 -1.1
v 1.8 2.3 -1.1
v -0.2 2.6 1.3
v 1.4 2.6 1.3
v -0.2 2.6 1.2
v 1.4 2.6 1.2
v -0.6 2.6 0.9
v -0.5 2.6 0.9
v 1.7 2.6 0.9
v 1.8 2.6 0.9
v -0.6 2.6 -0.7
v -0.5 2.6 -0.7
v 1.7 2.6 -0.7
v 1.8 2.6 -0.7
v -0.2 2.6 -1
v 1.4 2.6 -1
v -0.2 2.6 -1.1
v 1.4 2.6 -1.1
v -0.8 3.1 1.5
v 2 3.1 1.5
v -0.6 3.1 1.3
v 1.8 3.1 1.3
v -0.6 3.1 -1.1
v 1.8 3.1 -1.1
v -0.8 3.1 -1.3
v 2 3.1 -1.3
v -0.5 3.7 1.2
v 1.7 3.7 1.2
v -0.4 3.7 1.1
v 1.6 3.7 1.1
v -0.5 3.7 0.9
v -0.4 3.7 0.9
v 0.4 3.7 0.9
v -0.4 3.7 -0.6
v -0.3 3.7 -0.6
v -0.5 3.7 -0.7
v -0.4 3.7 -0.7
v -0.3 3.7 -0.7
v 0.4 3.7 -0.9
v 1.6 3.7 -0.9
v -0.5 3.7 -1
v 1.7 3.7 -1
v -0.4 3.8 -0.6
v -0.3 3.8 -0.6
v -0.4 3.8 -0.7
v -0.3 3.8 -0.7
v -0.4 3.9 1.1
v 1.6 3.9 1.1
v -0.3 3.9 1
v 1.5 3.9 1
v -0.4 3.9 0.9
v -0.3 3.9 0.9
v 0.4 3.9 -0.8
v 1.5 3.9 -0.8
v 0.4 3.9 -0.9
v 1.6 3.9 -0.9
v -0.3 4 0.8
v -0.2 4 0.8
v -0.3 4 0.7
v -0.2 4 0.7
v -0.3 4.1 1
v 1.5 4.1 1
v -0.3 4.1 0.9
v -0.2 4.1 0.9
v 1.4 4.1 0.9
v -0.2 4.1 0.8
v -0.1 4.1 0.8
v -0.3 4.1 0.7
v -0.2 4.1 0.7
v -0.1 4.1 0.7
v -0.3 4.1 -0.5
v -0.2 4.1 -0.5
v -0.1 4.1 -0.5
v -0.2 4.1 -0.6
v -0.1 4.1 -0.6
v 1.4 4.1 -0.6
v -0.3 4.1 -0.7
v -0.2 4.1 -0.7
v -0.3 4.1 -0.8
v 1.5 4.1 -0.8
v -0.2 4.2 0.7
v -0.1 4.2 0.7
v -0.2 4.2 0.6
v -0.1 4.2 0.6
v -0.2 4.2 -0.4
v 0 4.2 -0.4
v -0.2 4.2 -0.5
v -0.1 4.2 -0.5
v 0 4.2 -0.5
v -0.2 4.3 0.9
v 1.4 4.3 0.9
v -0.2 4.3 0.8
v -0.1 4.3 0.8
v 1.3 4.3 0.8
v -0.1 4.3 0.7
v 0 4.3 0.7
v -0.2 4.3 0.6
v -0.1 4.3 0.6
v 0 4.3 0.6
v -0.2 4.3 -0.4
v -0.1 4.3 -0.4
v 1.3 4.3 -0.6
v 1.4 4.3 -0.6
v -0.1 4.4 0.6
v 0 4.4 0.6
v -0.1 4.4 0.5
v 0 4.4 0.5
v -0.1 4.4 -0.3
v 0.1 4.4 -0.3
v -0.1 4.4 -0.4
v 0 4.4 -0.4
v 0.1 4.4 -0.4
v -0.1 4.5 0.8
v 1.3 4.5 0.8
v -0.1 4.5 0.7
v 0 4.5 0.7
v 1.2 4.5 0.7
v 0 4.5 0.6
v 0.1 4.5 0.6
v -0.1 4.5 0.5
v 0 4.5 0.5
v 0.1 4.5 0.5
v -0.1 4.5 -0.3
v 0 4.5 -0.3
v -0.1 4.5 -0.5
v 0 4.5 -0.5
v 1.2 4.5 -0.5
v -0.1 4.5 -0.6
v 1.3 4.5 -0.6
v -0.1 4.6 0.6
v 0 4.6 0.6
v -0.1 4.6 0.5
v 0 4.6 0.5
v 0.1 4.6 0.5
v -0.1 4.6 -0.3
v 0 4.6 -0.3
v 0.1 4.6 -0.3
v -0.1 4.6 -0.4
v 0 4.6 -0.4
v 0 4.7 0.7
v 1.2 4.7 0.7
v 0 4.7 0.6
v 0.1 4.7 0.6
v 1.1 4.7 0.6
v 0 4.7 -0.4
v 0.1 4.7 -0.4
v 1.1 4.7 -0.4
v 0 4.7 -0.5
v 1.2 4.7 -0.5
v 0.1 4.8 0.6
v 1.1 4.8 0.6
v 0.1 4.8 -0.4
v 1.1 4.8 -0.4
v -0.2 0.1 0.9
v 1.4 0.1 0.9
v -0.2 0.1 -0.7
v 1.4 0.1 -0.7
v 0 0.3 1.1
v 1.2 0.3 1.1
v 0 0.3 1
v 1.2 0.3 1
v -0.4 0.3 0.7
v -0.3 0.3 0.7
v 1.5 0.3 0.7
v 1.6 0.3 0.7
v -0.4 0.3 -0.5
v -0.3 0.3 -0.5
v 1.5 0.3 -0.5
v 1.6 0.3 -0.5
v 0 0.3 -0.8
v 1.2 0.3 -0.8
v 0 0.3 -0.9
v 1.2 0.3 -0.9
v -0.3 1.2 1
v 1.5 1.2 1
v -0.2 1.2 0.9
v 1.4 1.2 0.9
v -0.2 1.2 -0.7
v 1.4 1.2 -0.7
v -0.3 1.2 -0.8
v 1.5 1.2 -0.8
v -0.4 2.3 1.1
v 1.6 2.3 1.1
v -0.3 2.3 1
v 1.5 2.3 1
v -0.3 2.3 -0.8
v 1.5 2.3 -0.8
v -0.4 2.3 -0.9
v 1.6 2.3 -0.9
v -0.8 3.5 1.5
v 2 3.5 1.5
v -0.6 3.5 1.3
v 1.8 3.5 1.3
v -0.5 3.5 1.2
v 1.7 3.5 1.2
v -0.4 3.5 1.1
v 1.6 3.5 1.1
v -0.4 3.5 -0.9
v 1.6 3.5 -0.9
v -0.5 3.5 -1
v 1.7 3.5 -1
v -0.6 3.5 -1.1
v 1.8 3.5 -1.1
v -0.8 3.5 -1.3
v 2 3.5 -1.3
v -0.6 3.7 1.3
v 1.8 3.7 1.3
v -0.5 3.7 1.2
v 1.7 3.7 1.2
v -0.5 3.7 0.9
v -0.5 3.7 -0.7
v -0.5 3.7 -1
v 1.7 3.7 -1
v -0.6 3.7 -1.1
v 1.8 3.7 -1.1
v -0.5 3.8 0.9
v -0.4 3.8 0.9
v -0.4 3.8 0.8
v -0.4 3.8 -0.6
v -0.5 3.8 -0.7
v -0.4 3.8 -0.7
v -0.5 3.9 1.2
v 1.7 3.9 1.2
v -0.4 3.9 1.1
v 1.6 3.9 1.1
v -0.5 3.9 0.9
v -0.4 3.9 0.9
v -0.3 3.9 0.9
v -0.2 3.9 0.9
v 0.4 3.9 0.9
v -0.4 3.9 0.8
v -0.3 3.9 0.8
v -0.2 3.9 0.8
v -0.3 3.9 -0.5
v -0.2 3.9 -0.5
v -0.4 3.9 -0.6
v -0.3 3.9 -0.6
v -0.5 3.9 -0.7
v -0.4 3.9 -0.7
v -0.3 3.9 -0.7
v -0.2 3.9 -0.7
v -0.3 3.9 -0.8
v 0.4 3.9 -0.8
v -0.4 3.9 -0.9
v 1.6 3.9 -0.9
v -0.5 3.9 -1
v 1.7 3.9 -1
v -0.4 4.1 1.1
v 1.6 4.1 1.1
v -0.3 4.1 1
v 1.5 4.1 1
v -0.4 4.1 0.9
v -0.3 4.1 0.9
v -0.4 4.1 0.8
v -0.3 4.1 0.8
v -0.2 4.1 0.8
v -0.3 4.1 0.7
v -0.2 4.1 0.7
v -0.3 4.1 -0.5
v -0.2 4.1 -0.5
v -0.4 4.1 -0.6
v -0.3 4.1 -0.6
v -0.2 4.1 -0.6
v -0.4 4.1 -0.7
v -0.3 4.1 -0.7
v -0.3 4.1 -0.8
v 1.5 4.1 -0.8
v -0.4 4.1 -0.9
v 1.6 4.1 -0.9
v -0.3 4.3 1
v 1.5 4.3 1
v -0.2 4.3 0.9
v 1.4 4.3 0.9
v -0.3 4.3 0.8
v -0.2 4.3 0.8
v -0.3 4.3 0.7
v -0.2 4.3 0.7
v -0.1 4.3 0.7
v -0.2 4.3 0.6
v -0.1 4.3 0.6
v -0.2 4.3 -0.4
v -0.1 4.3 -0.4
v -0.3 4.3 -0.5
v -0.2 4.3 -0.5
v -0.1 4.3 -0.5
v -0.3 4.3 -0.6
v -0.2 4.3 -0.6
v -0.2 4.3 -0.7
v 1.4 4.3 -0.7
v -0.3 4.3 -0.8
v 1.5 4.3 -0.8
v -0.2 4.5 0.9
v 1.4 4.5 0.9
v -0.1 4.5 0.8
v 1.3 4.5 0.8
v -0.2 4.5 0.7
v -0.1 4.5 0.7
v -0.2 4.5 0.6
v -0.1 4.5 0.6
v 0 4.5 0.6
v -0.1 4.5 0.5
v 0 4.5 0.5
v -0.1 4.5 -0.3
v 0 4.5 -0.3
v -0.2 4.5 -0.4
v -0.1 4.5 -0.4
v 0 4.5 -0.4
v -0.2 4.5 -0.5
v -0.1 4.5 -0.5
v -0.1 4.5 -0.6
v 1.3 4.5 -0.6
v -0.2 4.5 -0.7
v 1.4 4.5 -0.7
v -0.1 4.6 0.5
v 0 4.6 0.5
v -0.1 4.6 -0.3
v 0 4.6 -0.3
v -0.1 4.7 0.8
v 1.3 4.7 0.8
v 0 4.7 0.7
v 1.2 4.7 0.7
v -0.1 4.7 0.5
v 0 4.7 0.5
v -0.1 4.7 -0.3
v 0 4.7 -0.3
v 0 4.7 -0.5
v 1.2 4.7 -0.5
v -0.1 4.7 -0.6
v 1.3 4.7 -0.6
v 0 4.9 0.7
v 1.2 4.9 0.7
v 0 4.9 -0.5
v 1.2 4.9 -0.5

# faces
f 3/2/1 2/2/1 1/2/1
f 4/2/1 2/2/1 3/2/1
f 9/2/1 6/2/1 5/2/1
f 10/2/1 8/2/1 7/2/1
f 11/2/1 9/2/1 5/2/1
f 11/2/1 10/2/1 9/2/1
f 12/2/1 8/2/1 10/2/1
f 12/2/1 10/2/1 11/2/1
f 15/2/1 14/2/1 13/2/1
f 16/2/1 14/2/1 15/2/1
f 21/2/1 18/2/1 17/2/1
f 22/2/1 18/2/1 21/2/1
f 23/2/1 18/2/1 22/2/1
f 24/2/1 20/2/1 19/2/1
f 25/2/1 20/2/1 24/2/1
f 26/2/1 20/2/1 25/2/1
f 27/2/1 23/2/1 22/2/1
f 27/2/1 25/2/1 24/2/1
f 27/2/1 24/2/1 23/2/1
f 28/2/1 25/2/1 27/2/1
f 33/3/1 31/3/1 30/3/1
f 33/2/1 30/2/1 29/2/1
f 34/2/1 32/2/1 31/2/1
f 34/3/1 31/3/1 33/3/1
f 35/2/1 33/2/1 29/2/1
f 36/2/1 33/2/1 35/2/1
f 37/2/1 32/2/1 34/2/1
f 38/2/1 32/2/1 37/2/1
f 41/2/1 40/2/1 39/2/1
f 42/2/1 40/2/1 41/2/1
f 43/2/1 41/2/1 39/2/1
f 44/2/1 41/2/1 43/2/1
f 45/2/1 41/2/1 44/2/1
f 46/2/1 40/2/1 42/2/1
f 47/2/1 40/2/1 46/2/1
f 48/2/1 40/2/1 47/2/1
f 49/2/1 45/2/1 44/2/1
f 49/2/1 47/2/1 46/2/1
f 49/2/1 46/2/1 45/2/1
f 50/2/1 47/2/1 49/2/1
f 51/2/1 47/2/1 50/2/1
f 52/2/1 47/2/1 51/2/1
f 53/2/1 49/2/1 44/2/1
f 54/1/1 50/1/1 49/1/1
f 54/2/1 49/2/1 53/2/1
f 55/1/1 50/1/1 54/1/1
f 56/2/1 51/2/1 50/2/1
f 56/1/1 50/1/1 55/1/1
f 57/1/1 52/1/1 51/1/1
f 57/2/1 51/2/1 56/2/1
f 58/1/1 52/1/1 57/1/1
f 59/2/1 47/2/1 52/2/1
f 59/1/1 52/1/1 58/1/1
f 60/2/1 47/2/1 59/2/1
f 61/2/1 53/2/1 44/2/1
f 62/1/1 55/1/1 54/1/1
f 62/2/1 53/2/1 61/2/1
f 62/1/1 54/1/1 53/1/1
f 63/1/1 55/1/1 62/1/1
f 64/2/1 58/2/1 57/2/1
f 64/1/1 55/1/1 63/1/1
f 64/2/1 56/2/1 55/2/1
f 64/2/1 57/2/1 56/2/1
f 65/1/1 60/1/1 59/1/1
f 65/2/1 58/2/1 64/2/1
f 65/1/1 59/1/1 58/1/1
f 66/1/1 60/1/1 65/1/1
f 67/2/1 47/2/1 60/2/1
f 67/1/1 60/1/1 66/1/1
f 68/2/1 47/2/1 67/2/1
f 69/1/1 63/1/1 62/1/1
f 69/2/1 61/2/1 44/2/1
f 69/1/1 62/1/1 61/1/1
f 70/1/1 63/1/1 69/1/1
f 71/2/1 66/2/1 65/2/1
f 71/1/1 63/1/1 70/1/1
f 71/2/1 64/2/1 63/2/1
f 71/2/1 65/2/1 64/2/1
f 72/2/1 66/2/1 71/2/1
f 73/2/1 66/2/1 72/2/1
f 74/1/1 68/1/1 67/1/1
f 74/2/1 66/2/1 73/2/1
f 74/1/1 67/1/1 66/1/1
f 75/1/1 68/1/1 74/1/1
f 76/2/1 47/2/1 68/2/1
f 76/1/1 68/1/1 75/1/1
f 77/2/1 70/2/1 69/2/1
f 77/1/1 72/1/1 71/1/1
f 77/1/1 71/1/1 70/1/1
f 78/2/1 73/2/1 72/2/1
f 78/1/1 72/1/1 77/1/1
f 79/1/1 75/1/1 74/1/1
f 79/2/1 73/2/1 78/2/1
f 79/1/1 74/1/1 73/1/1
f 80/2/1 76/2/1 75/2/1
f 80/1/1 75/1/1 79/1/1
f 81/2/1 78/2/1 77/2/1
f 81/2/1 79/2/1 78/2/1
f 81/2/1 80/2/1 79/2/1
f 82/2/1 80/2/1 81/2/1
f 83/2/1 80/2/1 82/2/1
f 84/2/1 80/2/1 83/2/1
f 85/2/1 81/2/1 77/2/1
f 85/1/1 82/1/1 81/1/1
f 86/1/1 82/1/1 85/1/1
f 87/2/1 83/2/1 82/2/1
f 87/1/1 82/1/1 86/1/1
f 88/1/1 84/1/1 83/1/1
f 88/2/1 83/2/1 87/2/1
f 89/1/1 84/1/1 88/1/1
f 90/2/1 80/2/1 84/2/1
f 90/1/1 84/1/1 89/1/1
f 91/1/1 89/1/1 88/1/1
f 91/1/1 87/1/1 86/1/1
f 91/2/1 86/2/1 85/2/1
f 91/1/1 88/1/1 87/1/1
f 92/1/1 89/1/1 91/1/1
f 93/1/1 89/1/1 92/1/1
f 94/2/1 90/2/1 89/2/1
f 94/1/1 89/1/1 93/1/1
f 95/1/1 93/1/1 92/1/1
f 95/2/1 92/2/1 91/2/1
f 96/2/1 94/2/1 93/2/1
f 96/1/1 93/1/1 95/1/1
f 97/2/1 77/2/1 69/2/1
f 97/2/1 69/2/1 44/2/1
f 97/2/1 96/2/1 95/2/1
f 97/2/1 95/2/1 91/2/1
f 97/2/1 91/2/1 85/2/1
f 97/2/1 85/2/1 77/2/1
f 98/2/1 76/2/1 80/2/1
f 98/2/1 96/2/1 97/2/1
f 98/2/1 47/2/1 76/2/1
f 98/2/1 80/2/1 90/2/1
f 98/2/1 90/2/1 94/2/1
f 98/2/1 94/2/1 96/2/1
f 104/3/1 100/3/1 99/3/1
f 105/2/1 101/2/1 100/2/1
f 105/3/1 100/3/1 104/3/1
f 106/3/1 102/3/1 101/3/1
f 106/2/1 101/2/1 105/2/1
f 107/3/1 102/3/1 106/3/1
f 109/2/1 104/2/1 103/2/1
f 110/2/1 104/2/1 109/2/1
f 111/2/1 106/2/1 105/2/1
f 112/2/1 106/2/1 111/2/1
f 113/2/1 108/2/1 107/2/1
f 114/2/1 108/2/1 113/2/1
f 117/2/1 116/2/1 115/2/1
f 118/2/1 116/2/1 117/2/1
f 121/2/1 120/2/1 119/2/1
f 122/2/1 120/2/1 121/2/1
f 128/3/1 124/3/1 123/3/1
f 129/3/1 124/3/1 128/3/1
f 132/3/1 126/3/1 125/3/1
f 133/3/1 126/3/1 132/3/1
f 135/2/1 128/2/1 127/2/1
f 135/2/1 129/2/1 128/2/1
f 136/2/1 129/2/1 135/2/1
f 137/2/1 131/2/1 130/2/1
f 138/2/1 131/2/1 137/2/1
f 139/2/1 133/2/1 132/2/1
f 139/2/1 134/2/1 133/2/1
f 140/2/1 134/2/1 139/2/1
f 146/3/1 142/3/1 141/3/1
f 147/3/1 142/3/1 146/3/1
f 150/3/1 144/3/1 143/3/1
f 151/3/1 144/3/1 150/3/1
f 153/2/1 146/2/1 145/2/1
f 153/2/1 147/2/1 146/2/1
f 154/2/1 147/2/1 153/2/1
f 155/2/1 149/2/1 148/2/1
f 156/2/1 149/2/1 155/2/1
f 157/2/1 152/2/1 151/2/1
f 157/2/1 151/2/1 150/2/1
f 158/2/1 152/2/1 157/2/1
f 164/3/1 160/3/1 159/3/1
f 165/3/1 160/3/1 164/3/1
f 168/3/1 162/3/1 161/3/1
f 169/3/1 162/3/1 168/3/1
f 171/2/1 164/2/1 163/2/1
f 171/2/1 165/2/1 164/2/1
f 172/2/1 167/2/1 166/2/1
f 173/2/1 167/2/1 172/2/1
f 174/2/1 170/2/1 169/2/1
f 174/2/1 169/2/1 168/2/1
f 175/2/1 171/2/1 163/2/1
f 175/2/1 172/2/1 171/2/1
f 176/2/1 172/2/1 175/2/1
f 177/2/1 174/2/1 173/2/1
f 178/2/1 170/2/1 174/2/1
f 178/2/1 174/2/1 177/2/1
f 183/3/1 180/3/1 179/3/1
f 184/3/1 180/3/1 183/3/1
f 185/3/1 182/3/1 181/3/1
f 186/3/1 182/3/1 185/3/1
f 188/3/1 185/3/1 184/3/1
f 189/3/1 185/3/1 188/3/1
f 191/2/1 189/2/1 188/2/1
f 191/2/1 190/2/1 189/2/1
f 191/2/1 188/2/1 187/2/1
f 192/2/1 190/2/1 191/2/1
f 195/2/1 194/2/1 193/2/1
f 196/2/1 194/2/1 195/2/1
f 201/2/1 198/2/1 197/2/1
f 202/2/1 198/2/1 201/2/1
f 203/2/1 200/2/1 199/2/1
f 204/2/1 200/2/1 203/2/1
f 207/2/1 206/2/1 205/2/1
f 208/2/1 206/2/1 207/2/1
f 213/2/1 210/2/1 209/2/1
f 214/2/1 210/2/1 213/2/1
f 215/2/1 212/2/1 211/2/1
f 216/2/1 212/2/1 215/2/1
f 219/2/1 218/2/1 217/2/1
f 220/2/1 218/2/1 219/2/1
f 223/2/1 222/2/1 221/2/1
f 224/2/1 222/2/1 223/2/1
f 229/2/1 226/2/1 225/2/1
f 230/2/1 226/2/1 229/2/1
f 231/2/1 228/2/1 227/2/1
f 232/2/1 228/2/1 231/2/1
f 235/2/1 234/2/1 233/2/1
f 236/2/1 234/2/1 235/2/1
f 239/2/1 238/2/1 237/2/1
f 240/2/1 238/2/1 239/2/1
f 243/2/1 242/2/1 241/2/1
f 244/2/1 242/2/1 243/2/1
f 247/2/1 246/2/1 245/2/1
f 248/2/1 246/2/1 247/2/1
f 251/2/1 250/2/1 249/2/1
f 252/2/1 250/2/1 251/2/1
f 255/2/1 254/2/1 253/2/1
f 256/2/1 254/2/1 255/2/1
f 257/2/2 258/2/2 259/2/2
f 259/2/2 258/2/2 260/2/2
f 260/2/2 258/2/2 261/2/2
f 261/2/2 258/2/2 262/2/2
f 263/2/2 264/2/2 265/2/2
f 265/2/2 264/2/2 266/2/2
f 267/2/2 268/2/2 271/2/2
f 269/3/2 270/3/2 272/3/2
f 272/3/2 270/3/2 273/3/2
f 267/2/2 271/2/2 274/2/2
f 274/2/2 271/2/2 275/2/2
f 276/2/2 277/2/2 278/2/2
f 278/2/2 277/2/2 279/2/2
f 279/2/2 277/2/2 280/2/2
f 280/2/2 277/2/2 281/2/2
f 276/2/2 278/2/2 282/2/2
f 278/1/2 279/1/2 283/1/2
f 282/2/2 278/2/2 283/2/2
f 283/1/2 279/1/2 284/1/2
f 279/2/2 280/2/2 285/2/2
f 284/1/2 279/1/2 285/1/2
f 280/1/2 281/1/2 286/1/2
f 285/2/2 280/2/2 286/2/2
f 286/1/2 281/1/2 287/1/2
f 281/2/2 277/2/2 288/2/2
f 287/1/2 281/1/2 288/1/2
f 288/2/2 277/2/2 289/2/2
f 276/2/2 282/2/2 290/2/2
f 283/1/2 284/1/2 291/1/2
f 290/2/2 282/2/2 291/2/2
f 282/1/2 283/1/2 291/1/2
f 291/1/2 284/1/2 292/1/2
f 286/2/2 287/2/2 293/2/2
f 292/1/2 284/1/2 293/1/2
f 284/2/2 285/2/2 293/2/2
f 285/2/2 286/2/2 293/2/2
f 288/1/2 289/1/2 294/1/2
f 293/2/2 287/2/2 294/2/2
f 287/1/2 288/1/2 294/1/2
f 294/1/2 289/1/2 295/1/2
f 289/2/2 277/2/2 296/2/2
f 295/1/2 289/1/2 296/1/2
f 296/2/2 277/2/2 297/2/2
f 291/1/2 292/1/2 298/1/2
f 276/2/2 290/2/2 298/2/2
f 290/1/2 291/1/2 298/1/2
f 298/1/2 292/1/2 299/1/2
f 294/2/2 295/2/2 300/2/2
f 299/1/2 292/1/2 300/1/2
f 292/2/2 293/2/2 300/2/2
f 293/2/2 294/2/2 300/2/2
f 300/2/2 295/2/2 301/2/2
f 301/2/2 295/2/2 302/2/2
f 296/1/2 297/1/2 303/1/2
f 302/2/2 295/2/2 303/2/2
f 295/1/2 296/1/2 303/1/2
f 303/1/2 297/1/2 304/1/2
f 297/2/2 277/2/2 305/2/2
f 304/1/2 297/1/2 305/1/2
f 298/2/2 299/2/2 306/2/2
f 300/1/2 301/1/2 306/1/2
f 299/1/2 300/1/2 306/1/2
f 301/2/2 302/2/2 307/2/2
f 306/1/2 301/1/2 307/1/2
f 303/1/2 304/1/2 308/1/2
f 307/2/2 302/2/2 308/2/2
f 302/1/2 303/1/2 308/1/2
f 304/2/2 305/2/2 309/2/2
f 308/1/2 304/1/2 309/1/2
f 306/2/2 307/2/2 310/2/2
f 307/2/2 308/2/2 310/2/2
f 308/2/2 309/2/2 310/2/2
f 310/2/2 309/2/2 311/2/2
f 311/2/2 309/2/2 312/2/2
f 312/2/2 309/2/2 313/2/2
f 306/2/2 310/2/2 314/2/2
f 310/1/2 311/1/2 314/1/2
f 314/1/2 311/1/2 315/1/2
f 311/2/2 312/2/2 316/2/2
f 315/1/2 311/1/2 316/1/2
f 312/1/2 313/1/2 317/1/2
f 316/2/2 312/2/2 317/2/2
f 317/1/2 313/1/2 318/1/2
f 313/2/2 309/2/2 319/2/2
f 318/1/2 313/1/2 319/1/2
f 317/1/2 318/1/2 320/1/2
f 315/1/2 316/1/2 320/1/2
f 314/2/2 315/2/2 320/2/2
f 316/1/2 317/1/2 320/1/2
f 320/1/2 318/1/2 321/1/2
f 321/1/2 318/1/2 322/1/2
f 318/2/2 319/2/2 323/2/2
f 322/1/2 318/1/2 323/1/2
f 321/1/2 322/1/2 324/1/2
f 320/2/2 321/2/2 324/2/2
f 322/2/2 323/2/2 325/2/2
f 324/1/2 322/1/2 325/1/2
f 298/2/2 306/2/2 326/2/2
f 276/2/2 298/2/2 326/2/2
f 324/2/2 325/2/2 326/2/2
f 320/2/2 324/2/2 326/2/2
f 314/2/2 320/2/2 326/2/2
f 306/2/2 314/2/2 326/2/2
f 309/2/2 305/2/2 327/2/2
f 326/2/2 325/2/2 327/2/2
f 305/2/2 277/2/2 327/2/2
f 319/2/2 309/2/2 327/2/2
f 323/2/2 319/2/2 327/2/2
f 325/2/2 323/2/2 327/2/2
f 330/2/2 331/2/2 334/2/2
f 334/2/2 331/2/2 335/2/2
f 328/2/2 329/2/2 336/2/2
f 336/2/2 329/2/2 337/2/2
f 335/2/2 331/2/2 338/2/2
f 338/2/2 331/2/2 339/2/2
f 332/2/2 333/2/2 340/2/2
f 340/2/2 333/2/2 341/2/2
f 342/2/2 343/2/2 344/2/2
f 344/2/2 343/2/2 345/2/2
f 346/2/2 347/2/2 350/2/2
f 350/2/2 347/2/2 351/2/2
f 348/2/2 349/2/2 352/2/2
f 352/2/2 349/2/2 353/2/2
f 354/3/2 355/3/2 358/3/2
f 354/3/2 358/3/2 360/3/2
f 358/2/2 359/2/2 361/2/2
f 360/3/2 358/3/2 361/3/2
f 361/2/2 359/2/2 362/2/2
f 356/3/2 357/3/2 363/3/2
f 363/3/2 357/3/2 364/3/2
f 364/3/2 357/3/2 365/3/2
f 362/2/2 363/2/2 366/2/2
f 366/2/2 363/2/2 367/2/2
f 367/2/2 363/2/2 368/2/2
f 368/2/2 363/2/2 369/2/2
f 360/2/2 361/2/2 370/2/2
f 370/2/2 361/2/2 371/2/2
f 367/2/2 368/2/2 372/2/2
f 372/2/2 368/2/2 373/2/2
f 374/2/2 375/2/2 378/2/2
f 378/2/2 375/2/2 379/2/2
f 376/2/2 377/2/2 380/2/2
f 380/2/2 377/2/2 381/2/2
f 382/3/2 383/3/2 386/3/2
f 384/3/2 385/3/2 388/3/2
f 382/3/2 386/3/2 389/3/2
f 386/2/2 387/2/2 390/2/2
f 389/3/2 386/3/2 390/3/2
f 390/2/2 387/2/2 391/2/2
f 388/3/2 385/3/2 393/3/2
f 393/3/2 385/3/2 394/3/2
f 391/2/2 392/2/2 395/2/2
f 395/2/2 392/2/2 396/2/2
f 396/2/2 392/2/2 397/2/2
f 397/2/2 392/2/2 398/2/2
f 389/2/2 390/2/2 399/2/2
f 399/2/2 390/2/2 400/2/2
f 396/2/2 397/2/2 401/2/2
f 401/2/2 397/2/2 402/2/2
f 393/2/2 394/2/2 403/2/2
f 403/2/2 394/2/2 404/2/2
f 405/2/2 406/2/2 409/2/2
f 409/2/2 406/2/2 410/2/2
f 407/2/2 408/2/2 411/2/2
f 411/2/2 408/2/2 412/2/2
f 413/2/2 414/2/2 417/2/2
f 417/2/2 414/2/2 418/2/2
f 415/3/2 416/3/2 419/3/2
f 417/3/2 418/3/2 421/3/2
f 415/3/2 419/3/2 422/3/2
f 419/2/2 420/2/2 423/2/2
f 422/3/2 419/3/2 423/3/2
f 423/2/2 420/2/2 424/2/2
f 421/3/2 418/3/2 426/3/2
f 426/3/2 418/3/2 427/3/2
f 422/2/2 423/2/2 428/2/2
f 424/2/2 425/2/2 429/2/2
f 429/2/2 425/2/2 430/2/2
f 426/2/2 427/2/2 431/2/2
f 422/2/2 428/2/2 432/2/2
f 432/2/2 428/2/2 433/2/2
f 431/2/2 427/2/2 434/2/2
f 434/2/2 427/2/2 435/2/2
f 436/2/2 437/2/2 440/2/2
f 440/2/2 437/2/2 441/2/2
f 438/3/2 439/3/2 442/3/2
f 442/3/2 439/3/2 443/3/2
f 440/3/2 441/3/2 444/3/2
f 444/3/2 441/3/2 445/3/2
f 442/2/2 443/2/2 446/2/2
f 443/3/2 444/3/2 447/3/2
f 446/2/2 443/2/2 447/2/2
f 444/2/2 445/2/2 448/2/2
f 447/3/2 444/3/2 448/3/2
f 448/2/2 445/2/2 449/2/2
f 446/2/2 447/2/2 450/2/2
f 447/2/2 448/2/2 450/2/2
f 448/2/2 449/2/2 450/2/2
f 450/2/2 449/2/2 451/2/2
f 452/2/2 453/2/2 454/2/2
f 454/2/2 453/2/2 455/2/2
f 455/2/2 453/2/2 456/2/2
f 457/2/2 458/2/2 459/2/2
f 459/2/2 458/2/2 460/2/2
f 461/2/2 462/2/2 463/2/2
f 463/2/2 462/2/2 464/2/2
f 465/2/2 466/2/2 467/2/2
f 467/2/2 466/2/2 468/2/2
f 469/2/2 470/2/2 471/2/2
f 471/2/2 470/2/2 472/2/2
f 473/2/2 474/2/2 475/2/2
f 475/2/2 474/2/2 476/2/2
f 477/2/2 478/2/2 479/2/2
f 479/2/2 478/2/2 480/2/2
f 477/2/2 479/2/2 481/2/2
f 481/2/2 479/2/2 482/2/2
f 482/2/2 479/2/2 483/2/2
f 480/2/2 478/2/2 484/2/2
f 484/2/2 478/2/2 485/2/2
f 485/2/2 478/2/2 486/2/2
f 482/2/2 483/2/2 487/2/2
f 484/2/2 485/2/2 487/2/2
f 483/2/2 484/2/2 487/2/2
f 487/2/2 485/2/2 488/2/2
f 489/2/2 490/2/2 491/2/2
f 491/2/2 490/2/2 492/2/2
f 493/2/2 494/2/2 497/2/2
f 497/2/2 494/2/2 498/2/2
f 498/2/2 494/2/2 499/2/2
f 495/2/2 496/2/2 500/2/2
f 500/2/2 496/2/2 501/2/2
f 501/2/2 496/2/2 502/2/2
f 498/2/2 499/2/2 503/2/2
f 500/2/2 501/2/2 503/2/2
f 499/2/2 500/2/2 503/2/2
f 503/2/2 501/2/2 504/2/2
f 505/2/2 506/2/2 507/2/2
f 507/2/2 506/2/2 508/2/2
f 509/2/2 510/2/2 513/2/2
f 511/2/2 512/2/2 514/2/2
f 509/2/2 513/2/2 515/2/2
f 513/2/2 514/2/2 515/2/2
f 514/2/2 512/2/2 516/2/2
f 515/2/2 514/2/2 516/2/2
f 517/2/2 518/2/2 519/2/2
f 519/2/2 518/2/2 520/2/2
f 521/2/2 522/2/2 523/2/2
f 523/2/2 522/2/2 524/2/2
f 527/2/3 526/2/3 525/2/3
f 528/2/3 526/2/3 527/2/3
f 533/2/3 530/2/3 529/2/3
f 534/2/3 530/2/3 533/2/3
f 536/2/3 530/2/3 534/2/3
f 537/2/3 536/2/3 535/2/3
f 538/2/3 530/2/3 536/2/3
f 538/2/3 536/2/3 537/2/3
f 539/2/3 532/2/3 531/2/3
f 540/2/3 532/2/3 539/2/3
f 545/2/3 542/2/3 541/2/3
f 547/2/3 545/2/3 541/2/3
f 547/2/3 546/2/3 545/2/3
f 548/2/3 546/2/3 547/2/3
f 550/2/3 546/2/3 548/2/3
f 551/2/3 546/2/3 550/2/3
f 551/2/3 550/2/3 549/2/3
f 552/2/3 546/2/3 551/2/3
f 553/2/3 551/2/3 549/2/3
f 554/2/3 551/2/3 553/2/3
f 555/2/3 544/2/3 543/2/3
f 556/2/3 544/2/3 555/2/3
f 561/2/3 558/2/3 557/2/3
f 563/2/3 561/2/3 557/2/3
f 563/2/3 562/2/3 561/2/3
f 564/2/3 562/2/3 563/2/3
f 565/2/3 563/2/3 557/2/3
f 566/2/3 562/2/3 564/2/3
f 567/2/3 562/2/3 566/2/3
f 567/2/3 566/2/3 565/2/3
f 568/2/3 562/2/3 567/2/3
f 569/2/3 565/2/3 557/2/3
f 569/2/3 567/2/3 565/2/3
f 570/2/3 567/2/3 569/2/3
f 571/2/3 560/2/3 559/2/3
f 572/2/3 560/2/3 571/2/3
f 577/2/3 576/2/3 575/2/3
f 578/2/3 576/2/3 577/2/3
f 579/2/3 574/2/3 573/2/3
f 580/2/3 574/2/3 579/2/3
f 584/2/3 582/2/3 581/2/3
f 584/3/3 583/3/3 582/3/3
f 585/3/3 583/3/3 584/3/3
f 587/2/3 585/2/3 584/2/3
f 587/3/3 586/3/3 585/3/3
f 588/3/3 586/3/3 587/3/3
f 591/2/3 584/2/3 581/2/3
f 591/2/3 587/2/3 584/2/3
f 592/2/3 587/2/3 591/2/3
f 593/2/3 590/2/3 589/2/3
f 594/2/3 590/2/3 593/2/3
f 597/2/3 596/2/3 595/2/3
f 598/2/3 596/2/3 597/2/3
f 601/3/3 600/3/3 599/3/3
f 602/3/3 600/3/3 601/3/3
f 605/2/3 604/2/3 603/2/3
f 606/2/3 604/2/3 605/2/3
f 609/2/3 608/2/3 607/2/3
f 610/2/3 608/2/3 609/2/3
f 613/3/3 612/3/3 611/3/3
f 614/3/3 612/3/3 613/3/3
f 617/2/3 616/2/3 615/2/3
f 618/2/3 616/2/3 617/2/3
f 621/2/3 620/2/3 619/2/3
f 622/2/3 620/2/3 621/2/3
f 626/3/3 624/3/3 623/3/3
f 627/2/3 625/2/3 624/2/3
f 627/3/3 624/3/3 626/3/3
f 628/2/3 625/2/3 627/2/3
f 631/2/3 630/2/3 629/2/3
f 632/2/3 630/2/3 631/2/3
f 637/2/3 634/2/3 633/2/3
f 638/2/3 636/2/3 635/2/3
f 639/2/3 636/2/3 638/2/3
f 640/2/3 637/2/3 633/2/3
f 641/3/3 638/3/3 637/3/3
f 641/2/3 637/2/3 640/2/3
f 642/3/3 638/3/3 641/3/3
f 645/2/3 644/2/3 643/2/3
f 649/2/3 645/2/3 643/2/3
f 650/3/3 646/3/3 645/3/3
f 650/2/3 645/2/3 649/2/3
f 651/3/3 646/3/3 650/3/3
f 652/2/3 648/2/3 647/2/3
f 653/2/3 648/2/3 652/2/3
f 656/2/3 655/2/3 654/2/3
f 657/2/3 655/2/3 656/2/3
f 660/2/3 659/2/3 658/2/3
f 661/2/3 659/2/3 660/2/3
f 664/3/3 663/3/3 662/3/3
f 665/3/3 663/3/3 664/3/3
f 669/3/3 666/3/3 665/3/3
f 670/3/3 666/3/3 669/3/3
f 671/2/3 668/2/3 667/2/3
f 672/2/3 668/2/3 671/2/3
f 675/2/3 674/2/3 673/2/3
f 676/2/3 674/2/3 675/2/3
f 679/2/3 678/2/3 677/2/3
f 680/2/3 678/2/3 679/2/3
f 683/2/3 682/2/3 681/2/3
f 684/2/3 682/2/3 683/2/3
f 687/2/3 686/2/3 685/2/3
f 688/2/3 686/2/3 687/2/3
f 692/2/3 690/2/3 689/2/3
f 692/2/3 691/2/3 690/2/3
f 693/2/3 691/2/3 692/2/3
f 694/2/3 692/2/3 689/2/3
f 695/2/3 692/2/3 694/2/3
f 698/2/3 697/2/3 696/2/3
f 699/2/3 697/2/3 698/2/3
f 702/2/3 701/2/3 700/2/3
f 703/2/3 701/2/3 702/2/3
f 707/2/3 705/2/3 704/2/3
f 708/2/3 705/2/3 707/2/3
f 710/2/3 707/2/3 706/2/3
f 711/2/3 707/2/3 710/2/3
f 712/2/3 709/2/3 708/2/3
f 713/2/3 709/2/3 712/2/3
f 716/2/3 715/2/3 714/2/3
f 717/2/3 715/2/3 716/2/3
f 720/2/3 719/2/3 718/2/3
f 721/2/3 719/2/3 720/2/3
f 726/2/3 725/2/3 724/2/3
f 727/2/3 723/2/3 722/2/3
f 728/2/3 723/2/3 727/2/3
f 729/2/3 725/2/3 726/2/3
f 730/2/3 725/2/3 729/2/3
f 735/2/3 732/2/3 731/2/3
f 736/2/3 732/2/3 735/2/3
f 737/2/3 734/2/3 733/2/3
f 738/2/3 734/2/3 737/2/3
f 741/2/3 740/2/3 739/2/3
f 742/2/3 740/2/3 741/2/3
f 743/2/4 744/2/4 745/2/4
f 745/2/4 744/2/4 746/2/4
f 747/2/4 748/2/4 751/2/4
f 751/2/4 748/2/4 752/2/4
f 749/2/4 750/2/4 753/2/4
f 753/2/4 750/2/4 754/2/4
f 755/2/4 756/2/4 759/2/4
f 759/2/4 756/2/4 760/2/4
f 757/2/4 758/2/4 761/2/4
f 761/2/4 758/2/4 762/2/4
f 763/2/4 764/2/4 765/2/4
f 765/2/4 764/2/4 766/2/4
f 767/2/4 768/2/4 769/2/4
f 769/2/4 768/2/4 770/2/4
f 770/2/4 771/2/4 772/2/4
f 772/2/4 771/2/4 773/2/4
f 774/2/4 775/2/4 778/2/4
f 778/2/4 775/2/4 779/2/4
f 776/2/4 777/2/4 780/2/4
f 780/2/4 777/2/4 781/2/4
f 782/2/4 783/2/4 784/2/4
f 784/2/4 783/2/4 785/2/4
f 786/2/4 787/2/4 788/2/4
f 788/2/4 787/2/4 789/2/4
f 790/3/4 791/3/4 794/3/4
f 794/3/4 791/3/4 795/3/4
f 792/2/4 793/2/4 796/2/4
f 796/2/4 793/2/4 797/2/4
f 798/2/4 799/2/4 800/2/4
f 800/2/4 799/2/4 801/2/4
f 802/2/4 803/2/4 804/2/4
f 804/2/4 803/2/4 805/2/4
f 806/2/4 807/2/4 808/2/4
f 808/2/4 807/2/4 809/2/4
f 810/2/4 811/2/4 812/2/4
f 812/2/4 811/2/4 813/2/4
f 813/3/4 814/3/4 817/3/4
f 817/3/4 814/3/4 818/3/4
f 815/2/4 816/2/4 819/2/4
f 819/2/4 816/2/4 820/2/4
f 821/2/4 822/2/4 823/2/4
f 823/2/4 822/2/4 824/2/4
f 825/2/4 826/2/4 827/2/4
f 827/2/4 826/2/4 828/2/4
f 829/2/4 830/2/4 831/2/4
f 831/2/4 830/2/4 832/2/4
f 832/3/4 833/3/4 836/3/4
f 836/3/4 833/3/4 837/3/4
f 834/2/4 835/2/4 838/2/4
f 838/2/4 835/2/4 839/2/4
f 840/2/4 841/2/4 842/2/4
f 842/2/4 841/2/4 843/2/4
f 844/2/4 845/2/4 848/2/4
f 848/2/4 845/2/4 849/2/4
f 846/2/4 847/2/4 850/2/4
f 850/2/4 847/2/4 851/2/4
f 849/3/4 850/3/4 852/3/4
f 852/3/4 850/3/4 853/3/4
f 854/2/4 855/2/4 856/2/4
f 856/2/4 855/2/4 857/2/4
f 858/2/4 859/2/4 860/2/4
f 860/2/4 859/2/4 861/2/4
f 862/2/4 863/2/4 866/2/4
f 863/3/4 864/3/4 867/3/4
f 866/2/4 863/2/4 867/2/4
f 864/2/4 865/2/4 868/2/4
f 867/3/4 864/3/4 868/3/4
f 868/2/4 865/2/4 869/2/4
f 870/2/4 871/2/4 872/2/4
f 872/2/4 871/2/4 873/2/4
f 874/2/4 875/2/4 877/2/4
f 875/3/4 876/3/4 878/3/4
f 877/2/4 875/2/4 878/2/4
f 878/3/4 876/3/4 879/3/4
f 880/2/4 881/2/4 882/2/4
f 882/2/4 881/2/4 883/2/4
f 884/2/4 885/2/4 888/2/4
f 888/2/4 885/2/4 889/2/4
f 886/2/4 887/2/4 890/2/4
f 890/2/4 887/2/4 891/2/4
f 892/2/4 893/2/4 894/2/4
f 894/2/4 893/2/4 895/2/4
f 896/3/4 897/3/4 898/3/4
f 898/3/4 897/3/4 899/3/4
f 900/2/4 901/2/4 902/2/4
f 902/2/4 901/2/4 903/2/4
f 906/2/4 907/2/4 908/2/4
f 908/2/4 907/2/4 909/2/4
f 904/2/4 905/2/4 910/2/4
f 910/2/4 905/2/4 911/2/4
f 912/2/4 913/2/4 916/2/4
f 912/2/4 916/2/4 918/2/4
f 916/2/4 917/2/4 918/2/4
f 918/2/4 917/2/4 919/2/4
f 912/2/4 918/2/4 920/2/4
f 919/2/4 917/2/4 921/2/4
f 921/2/4 917/2/4 922/2/4
f 920/2/4 921/2/4 922/2/4
f 922/2/4 917/2/4 923/2/4
f 912/2/4 920/2/4 924/2/4
f 920/2/4 922/2/4 924/2/4
f 924/2/4 922/2/4 925/2/4
f 914/2/4 915/2/4 926/2/4
f 926/2/4 915/2/4 927/2/4
f 928/2/4 929/2/4 932/2/4
f 928/2/4 932/2/4 934/2/4
f 932/2/4 933/2/4 934/2/4
f 934/2/4 933/2/4 935/2/4
f 935/2/4 933/2/4 937/2/4
f 937/2/4 933/2/4 938/2/4
f 936/2/4 937/2/4 938/2/4
f 938/2/4 933/2/4 939/2/4
f 936/2/4 938/2/4 940/2/4
f 940/2/4 938/2/4 941/2/4
f 930/2/4 931/2/4 942/2/4
f 942/2/4 931/2/4 943/2/4
f 944/2/4 945/2/4 948/2/4
f 948/2/4 945/2/4 949/2/4
f 949/2/4 945/2/4 951/2/4
f 950/2/4 951/2/4 952/2/4
f 951/2/4 945/2/4 953/2/4
f 952/2/4 951/2/4 953/2/4
f 946/2/4 947/2/4 954/2/4
f 954/2/4 947/2/4 955/2/4
f 956/2/4 957/2/4 958/2/4
f 958/2/4 957/2/4 959/2/4
f 962/2/5 961/2/5 960/2/5
f 963/2/5 961/2/5 962/2/5
f 968/2/5 965/2/5 964/2/5
f 969/2/5 965/2/5 968/2/5
f 972/2/5 967/2/5 966/2/5
f 973/2/5 967/2/5 972/2/5
f 974/2/5 971/2/5 970/2/5
f 975/2/5 971/2/5 974/2/5
f 976/2/5 968/2/5 964/2/5
f 977/2/5 968/2/5 976/2/5
f 978/2/5 967/2/5 973/2/5
f 979/2/5 967/2/5 978/2/5
f 984/2/5 981/2/5 980/2/5
f 985/2/5 981/2/5 984/2/5
f 986/2/5 983/2/5 982/2/5
f 987/2/5 983/2/5 986/2/5
f 994/2/5 989/2/5 988/2/5
f 996/2/5 993/2/5 992/2/5
f 997/2/5 993/2/5 996/2/5
f 999/2/5 991/2/5 990/2/5
f 1000/2/5 995/2/5 994/2/5
f 1000/2/5 994/2/5 988/2/5
f 1001/2/5 995/2/5 1000/2/5
f 1002/2/5 999/2/5 998/2/5
f 1003/2/5 991/2/5 999/2/5
f 1003/2/5 999/2/5 1002/2/5
f 1008/2/5 1005/2/5 1004/2/5
f 1009/2/5 1005/2/5 1008/2/5
f 1012/2/5 1007/2/5 1006/2/5
f 1013/2/5 1007/2/5 1012/2/5
f 1014/2/5 1011/2/5 1010/2/5
f 1015/2/5 1011/2/5 1014/2/5
f 1016/2/5 1008/2/5 1004/2/5
f 1017/2/5 1008/2/5 1016/2/5
f 1018/2/5 1007/2/5 1013/2/5
f 1019/2/5 1007/2/5 1018/2/5
f 1024/2/5 1021/2/5 1020/2/5
f 1025/2/5 1021/2/5 1024/2/5
f 1026/2/5 1023/2/5 1022/2/5
f 1027/2/5 1023/2/5 1026/2/5
f 1034/2/5 1029/2/5 1028/2/5
f 1036/2/5 1033/2/5 1032/2/5
f 1037/2/5 1033/2/5 1036/2/5
f 1039/2/5 1031/2/5 1030/2/5
f 1040/2/5 1035/2/5 1034/2/5
f 1040/2/5 1034/2/5 1028/2/5
f 1041/2/5 1035/2/5 1040/2/5
f 1042/2/5 1039/2/5 1038/2/5
f 1043/2/5 1031/2/5 1039/2/5
f 1043/2/5 1039/2/5 1042/2/5
f 1046/2/5 1045/2/5 1044/2/5
f 1047/2/5 1045/2/5 1046/2/5
f 1052/2/5 1049/2/5 1048/2/5
f 1053/2/5 1049/2/5 1052/2/5
f 1054/2/5 1051/2/5 1050/2/5
f 1055/2/5 1051/2/5 1054/2/5
f 1058/2/5 1057/2/5 1056/2/5
f 1059/2/5 1057/2/5 1058/2/5
f 1062/2/5 1061/2/5 1060/2/5
f 1063/2/5 1061/2/5 1062/2/5
f 1064/2/5 1062/2/5 1060/2/5
f 1065/2/5 1061/2/5 1063/2/5
f 1066/2/5 1064/2/5 1060/2/5
f 1066/2/5 1065/2/5 1064/2/5
f 1067/2/5 1061/2/5 1065/2/5
f 1067/2/5 1065/2/5 1066/2/5
f 1070/2/5 1069/2/5 1068/2/5
f 1071/2/5 1069/2/5 1070/2/5
f 1072/2/5 1070/2/5 1068/2/5
f 1073/2/5 1070/2/5 1072/2/5
f 1075/3/5 1073/3/5 1072/3/5
f 1075/2/5 1074/2/5 1073/2/5
f 1076/2/5 1074/2/5 1075/2/5
f 1077/3/5 1075/3/5 1072/3/5
f 1078/3/5 1075/3/5 1077/3/5
f 1079/2/5 1074/2/5 1076/2/5
f 1080/2/5 1078/2/5 1077/2/5
f 1080/2/5 1079/2/5 1078/2/5
f 1080/2/5 1074/2/5 1079/2/5
f 1081/2/5 1069/2/5 1071/2/5
f 1082/2/5 1080/2/5 1077/2/5
f 1082/2/5 1081/2/5 1080/2/5
f 1083/2/5 1069/2/5 1081/2/5
f 1083/2/5 1081/2/5 1082/2/5
f 1086/3/5 1085/3/5 1084/3/5
f 1087/3/5 1085/3/5 1086/3/5
f 1090/2/5 1089/2/5 1088/2/5
f 1091/2/5 1089/2/5 1090/2/5
f 1092/2/5 1090/2/5 1088/2/5
f 1093/2/5 1090/2/5 1092/2/5
f 1095/2/5 1089/2/5 1091/2/5
f 1096/2/5 1095/2/5 1094/2/5
f 1097/2/5 1089/2/5 1095/2/5
f 1097/2/5 1095/2/5 1096/2/5
f 1100/2/5 1099/2/5 1098/2/5
f 1101/2/5 1099/2/5 1100/2/5
f 1104/2/5 1103/2/5 1102/2/5
f 1105/2/5 1103/2/5 1104/2/5
f 1106/2/5 1103/2/5 1105/2/5
f 1110/3/5 1108/3/5 1107/3/5
f 1111/3/5 1108/3/5 1110/3/5
f 1112/2/5 1110/2/5 1109/2/5
f 1113/2/5 1110/2/5 1112/2/5
f 1115/3/5 1114/3/5 1113/3/5
f 1116/3/5 1114/3/5 1115/3/5
f 1117/2/5 1103/2/5 1106/2/5
f 1119/2/5 1116/2/5 1115/2/5
f 1119/2/5 1117/2/5 1116/2/5
f 1120/2/5 1119/2/5 1118/2/5
f 1121/2/5 1103/2/5 1117/2/5
f 1121/2/5 1119/2/5 1120/2/5
f 1121/2/5 1117/2/5 1119/2/5
f 1124/2/5 1123/2/5 1122/2/5
f 1125/2/5 1123/2/5 1124/2/5
f 1128/2/5 1127/2/5 1126/2/5
f 1129/2/5 1127/2/5 1128/2/5
f 1130/2/5 1127/2/5 1129/2/5
f 1133/2/5 1132/2/5 1131/2/5
f 1134/2/5 1132/2/5 1133/2/5
f 1135/2/5 1132/2/5 1134/2/5
f 1139/3/5 1137/3/5 1136/3/5
f 1140/3/5 1137/3/5 1139/3/5
f 1141/2/5 1139/2/5 1138/2/5
f 1142/2/5 1139/2/5 1141/2/5
f 1143/2/5 1132/2/5 1135/2/5
f 1144/2/5 1132/2/5 1143/2/5
f 1147/2/5 1146/2/5 1145/2/5
f 1148/2/5 1146/2/5 1147/2/5
f 1151/2/5 1150/2/5 1149/2/5
f 1152/2/5 1150/2/5 1151/2/5
f 1153/2/5 1150/2/5 1152/2/5
f 1156/2/5 1155/2/5 1154/2/5
f 1157/2/5 1155/2/5 1156/2/5
f 1158/2/5 1155/2/5 1157/2/5
f 1162/3/5 1160/3/5 1159/3/5
f 1163/3/5 1160/3/5 1162/3/5
f 1164/2/5 1162/2/5 1161/2/5
f 1165/2/5 1162/2/5 1164/2/5
f 1168/2/5 1155/2/5 1158/2/5
f 1169/2/5 1167/2/5 1166/2/5
f 1169/2/5 1168/2/5 1167/2/5
f 1170/2/5 1155/2/5 1168/2/5
f 1170/2/5 1168/2/5 1169/2/5
f 1173/2/5 1172/2/5 1171/2/5
f 1174/2/5 1172/2/5 1173/2/5
f 1177/3/5 1175/3/5 1174/3/5
f 1178/3/5 1175/3/5 1177/3/5
f 1179/2/5 1177/2/5 1176/2/5
f 1180/2/5 1177/2/5 1179/2/5
f 1183/2/5 1182/2/5 1181/2/5
f 1184/2/5 1182/2/5 1183/2/5
f 1185/2/5 1182/2/5 1184/2/5
f 1188/2/5 1182/2/5 1185/2/5
f 1189/2/5 1187/2/5 1186/2/5
f 1189/2/5 1188/2/5 1187/2/5
f 1190/2/5 1182/2/5 1188/2/5
f 1190/2/5 1188/2/5 1189/2/5
f 1193/2/5 1192/2/5 1191/2/5
f 1194/2/5 1192/2/5 1193/2/5
f 1195/2/6 1196/2/6 1197/2/6
f 1197/2/6 1196/2/6 1198/2/6
f 1199/2/6 1200/2/6 1201/2/6
f 1201/2/6 1200/2/6 1202/2/6
f 1203/2/6 1204/2/6 1207/2/6
f 1207/2/6 1204/2/6 1208/2/6
f 1205/2/6 1206/2/6 1209/2/6
f 1209/2/6 1206/2/6 1210/2/6
f 1211/2/6 1212/2/6 1213/2/6
f 1213/2/6 1212/2/6 1214/2/6
f 1215/2/6 1216/2/6 1217/2/6
f 1217/2/6 1216/2/6 1218/2/6
f 1215/2/6 1217/2/6 1219/2/6
f 1218/2/6 1216/2/6 1220/2/6
f 1215/2/6 1219/2/6 1221/2/6
f 1219/2/6 1220/2/6 1221/2/6
f 1220/2/6 1216/2/6 1222/2/6
f 1221/2/6 1220/2/6 1222/2/6
f 1223/2/6 1224/2/6 1225/2/6
f 1225/2/6 1224/2/6 1226/2/6
f 1223/2/6 1225/2/6 1227/2/6
f 1226/2/6 1224/2/6 1228/2/6
f 1223/2/6 1227/2/6 1229/2/6
f 1227/2/6 1228/2/6 1229/2/6
f 1228/2/6 1224/2/6 1230/2/6
f 1229/2/6 1228/2/6 1230/2/6
f 1231/2/6 1232/2/6 1233/2/6
f 1233/2/6 1232/2/6 1234/2/6
f 1235/2/6 1236/2/6 1237/2/6
f 1237/2/6 1236/2/6 1238/2/6
f 1235/2/6 1237/2/6 1239/2/6
f 1238/2/6 1236/2/6 1240/2/6
f 1235/2/6 1239/2/6 1241/2/6
f 1239/2/6 1240/2/6 1241/2/6
f 1240/2/6 1236/2/6 1242/2/6
f 1241/2/6 1240/2/6 1242/2/6
f 1231/2/6 1233/2/6 1243/2/6
f 1234/2/6 1232/2/6 1244/2/6
f 1231/2/6 1243/2/6 1245/2/6
f 1243/2/6 1244/2/6 1245/2/6
f 1244/2/6 1232/2/6 1246/2/6
f 1245/2/6 1244/2/6 1246/2/6
f 1247/2/6 1248/2/6 1249/2/6
f 1249/2/6 1248/2/6 1250/2/6
f 1247/2/6 1249/2/6 1251/2/6
f 1247/2/6 1251/2/6 1252/2/6
f 1247/2/6 1252/2/6 1253/2/6
f 1250/2/6 1248/2/6 1254/2/6
f 1247/2/6 1253/2/6 1255/2/6
f 1253/2/6 1254/2/6 1255/2/6
f 1254/2/6 1248/2/6 1256/2/6
f 1255/2/6 1254/2/6 1256/2/6
f 1257/3/6 1258/3/6 1259/3/6
f 1257/3/6 1259/3/6 1260/3/6
f 1257/3/6 1260/3/6 1261/3/6
f 1261/3/6 1260/3/6 1262/3/6
f 1263/2/6 1264/2/6 1265/2/6
f 1265/2/6 1264/2/6 1266/2/6
f 1263/2/6 1265/2/6 1267/2/6
f 1267/2/6 1265/2/6 1268/2/6
f 1268/3/6 1269/3/6 1272/3/6
f 1272/3/6 1269/3/6 1273/3/6
f 1270/2/6 1271/2/6 1274/2/6
f 1273/2/6 1274/2/6 1275/2/6
f 1274/2/6 1271/2/6 1276/2/6
f 1275/2/6 1274/2/6 1276/2/6
f 1277/3/6 1278/3/6 1280/3/6
f 1280/3/6 1278/3/6 1281/3/6
f 1276/2/6 1271/2/6 1282/2/6
f 1281/2/6 1282/2/6 1283/2/6
f 1282/2/6 1271/2/6 1284/2/6
f 1283/2/6 1282/2/6 1284/2/6
f 1279/2/6 1280/2/6 1285/2/6
f 1266/2/6 1264/2/6 1286/2/6
f 1279/2/6 1285/2/6 1287/2/6
f 1285/2/6 1286/2/6 1287/2/6
f 1286/2/6 1264/2/6 1288/2/6
f 1287/2/6 1286/2/6 1288/2/6
f 1289/2/6 1290/2/6 1291/2/6
f 1291/2/6 1290/2/6 1292/2/6
f 1289/2/6 1291/2/6 1293/2/6
f 1293/2/6 1291/2/6 1294/2/6
f 1295/2/6 1296/2/6 1298/2/6
f 1296/2/6 1297/2/6 1298/2/6
f 1298/2/6 1297/2/6 1299/2/6
f 1295/2/6 1298/2/6 1300/2/6
f 1295/2/6 1300/2/6 1302/2/6
f 1300/3/6 1301/3/6 1303/3/6
f 1302/2/6 1300/2/6 1303/2/6
f 1303/3/6 1301/3/6 1304/3/6
f 1305/2/6 1306/2/6 1307/2/6
f 1292/2/6 1290/2/6 1308/2/6
f 1305/2/6 1307/2/6 1309/2/6
f 1307/2/6 1308/2/6 1309/2/6
f 1308/2/6 1290/2/6 1310/2/6
f 1309/2/6 1308/2/6 1310/2/6
f 1311/2/6 1312/2/6 1313/2/6
f 1313/2/6 1312/2/6 1314/2/6
f 1311/2/6 1313/2/6 1315/2/6
f 1315/2/6 1313/2/6 1316/2/6
f 1317/2/6 1318/2/6 1320/2/6
f 1318/2/6 1319/2/6 1320/2/6
f 1320/2/6 1319/2/6 1321/2/6
f 1317/2/6 1320/2/6 1322/2/6
f 1317/2/6 1322/2/6 1324/2/6
f 1322/2/6 1323/2/6 1324/2/6
f 1324/2/6 1323/2/6 1325/2/6
f 1325/2/6 1323/2/6 1326/2/6
f 1327/2/6 1328/2/6 1329/2/6
f 1314/2/6 1312/2/6 1330/2/6
f 1327/2/6 1329/2/6 1331/2/6
f 1329/2/6 1330/2/6 1331/2/6
f 1330/2/6 1312/2/6 1332/2/6
f 1331/2/6 1330/2/6 1332/2/6
f 1333/2/6 1334/2/6 1335/2/6
f 1335/2/6 1334/2/6 1336/2/6
f 1333/2/6 1335/2/6 1337/2/6
f 1337/2/6 1335/2/6 1338/2/6
f 1339/2/6 1340/2/6 1342/2/6
f 1340/2/6 1341/2/6 1342/2/6
f 1342/2/6 1341/2/6 1343/2/6
f 1339/2/6 1342/2/6 1344/2/6
f 1339/2/6 1344/2/6 1346/2/6
f 1344/2/6 1345/2/6 1346/2/6
f 1346/2/6 1345/2/6 1347/2/6
f 1347/2/6 1345/2/6 1348/2/6
f 1349/2/6 1350/2/6 1351/2/6
f 1336/2/6 1334/2/6 1352/2/6
f 1349/2/6 1351/2/6 1353/2/6
f 1351/2/6 1352/2/6 1353/2/6
f 1352/2/6 1334/2/6 1354/2/6
f 1353/2/6 1352/2/6 1354/2/6
f 1355/2/6 1356/2/6 1357/2/6
f 1357/2/6 1356/2/6 1358/2/6
f 1359/2/6 1360/2/6 1361/2/6
f 1361/2/6 1360/2/6 1362/2/6
f 1359/2/6 1361/2/6 1363/2/6
f 1363/2/6 1361/2/6 1364/2/6
f 1365/2/6 1366/2/6 1367/2/6
f 1362/2/6 1360/2/6 1368/2/6
f 1365/2/6 1367/2/6 1369/2/6
f 1367/2/6 1368/2/6 1369/2/6
f 1368/2/6 1360/2/6 1370/2/6
f 1369/2/6 1368/2/6 1370/2/6
f 1371/2/6 1372/2/6 1373/2/6
f 1373/2/6 1372/2/6 1374/2/6
