# MagicaVoxel @ Ephtracy

# group
o 

# material
mtllib sidewalk_with_gutter.mtl
usemtl palette

# normals
vn -1 0 0
vn 1 0 0
vn 0 0 1
vn 0 0 -1
vn 0 -1 0
vn 0 1 0

# texcoords
vt 0.00585938 0.5
vt 0.0214844 0.5
vt 0.0292969 0.5
vt 0.0917969 0.5

# verts
v -3.1 0 1.5
v -3.1 0 -2.1
v -3.1 0.3 1.5
v -3.1 0.3 -2.1
v 0.2 0 0.6
v 0.2 0 0.5
v 0.2 0 0.3
v 0.2 0 0.2
v 0.2 0 -0.1
v 0.2 0 -0.2
v 0.2 0 -0.4
v 0.2 0 -0.5
v 0.2 0 -0.8
v 0.2 0 -0.9
v 0.2 0 -1.1
v 0.2 0 -1.2
v 0.2 0.2 0.6
v 0.2 0.2 0.5
v 0.2 0.2 0.3
v 0.2 0.2 0.2
v 0.2 0.2 -0.1
v 0.2 0.2 -0.2
v 0.2 0.2 -0.4
v 0.2 0.2 -0.5
v 0.2 0.2 -0.8
v 0.2 0.2 -0.9
v 0.2 0.2 -1.1
v 0.2 0.2 -1.2
v -0.0999999 0 0.6
v -0.0999999 0 -1.2
v -0.0999999 0.2 0.6
v -0.0999999 0.2 -1.2
v 0.3 0 0.6
v 0.3 0 0.5
v 0.3 0 0.3
v 0.3 0 0.2
v 0.3 0 -0.1
v 0.3 0 -0.2
v 0.3 0 -0.4
v 0.3 0 -0.5
v 0.3 0 -0.8
v 0.3 0 -0.9
v 0.3 0 -1.1
v 0.3 0 -1.2
v 0.3 0.2 1.5
v 0.3 0.2 0.6
v 0.3 0.2 0.5
v 0.3 0.2 0.3
v 0.3 0.2 0.2
v 0.3 0.2 -0.1
v 0.3 0.2 -0.2
v 0.3 0.2 -0.4
v 0.3 0.2 -0.5
v 0.3 0.2 -0.8
v 0.3 0.2 -0.9
v 0.3 0.2 -1.1
v 0.3 0.2 -1.2
v 0.3 0.2 -2.1
v 0.3 0.3 1.5
v 0.3 0.3 0.6
v 0.3 0.3 -1.2
v 0.3 0.3 -2.1
v 0.4 0.1 1.5
v 0.4 0.1 0.6
v 0.4 0.1 -1.2
v 0.4 0.1 -2.1
v 0.4 0.2 1.5
v 0.4 0.2 0.6
v 0.4 0.2 -1.2
v 0.4 0.2 -2.1
v 0.4 0.3 0.6
v 0.4 0.3 -1.2
v 0.5 0 1.5
v 0.5 0 0.6
v 0.5 0 -1.2
v 0.5 0 -2.1
v 0.5 0.1 1.5
v 0.5 0.1 0.6
v 0.5 0.1 -1.2
v 0.5 0.1 -2.1
v -3.1 0 1.5
v -3.1 0.3 1.5
v -0.0999999 0 1.5
v -0.0999999 0.3 1.5
v 0.3 0.2 1.5
v 0.3 0.3 1.5
v 0.4 0.1 1.5
v 0.4 0.2 1.5
v 0.5 0 1.5
v 0.5 0.1 1.5
v 0.3 0.2 0.6
v 0.3 0.3 0.6
v 0.4 0.2 0.6
v 0.4 0.3 0.6
v 0.2 0 0.3
v 0.2 0.2 0.3
v 0.3 0 0.3
v 0.3 0.2 0.3
v 0.2 0 -0.1
v 0.2 0.2 -0.1
v 0.3 0 -0.1
v 0.3 0.2 -0.1
v 0.2 0 -0.4
v 0.2 0.2 -0.4
v 0.3 0 -0.4
v 0.3 0.2 -0.4
v 0.2 0 -0.8
v 0.2 0.2 -0.8
v 0.3 0 -0.8
v 0.3 0.2 -0.8
v 0.2 0 -1.1
v 0.2 0.2 -1.1
v 0.3 0 -1.1
v 0.3 0.2 -1.1
v -0.0999999 0 -1.2
v -0.0999999 0.2 -1.2
v 0.2 0 -1.2
v 0.2 0.2 -1.2
v 0.3 0 -1.2
v 0.3 0.2 -1.2
v 0.4 0.1 -1.2
v 0.4 0.2 -1.2
v 0.5 0 -1.2
v 0.5 0.1 -1.2
v -0.0999999 0 0.6
v -0.0999999 0.2 0.6
v 0.2 0 0.6
v 0.2 0.2 0.6
v 0.3 0 0.6
v 0.3 0.2 0.6
v 0.4 0.1 0.6
v 0.4 0.2 0.6
v 0.5 0 0.6
v 0.5 0.1 0.6
v 0.2 0 0.5
v 0.2 0.2 0.5
v 0.3 0 0.5
v 0.3 0.2 0.5
v 0.2 0 0.2
v 0.2 0.2 0.2
v 0.3 0 0.2
v 0.3 0.2 0.2
v 0.2 0 -0.2
v 0.2 0.2 -0.2
v 0.3 0 -0.2
v 0.3 0.2 -0.2
v 0.2 0 -0.5
v 0.2 0.2 -0.5
v 0.3 0 -0.5
v 0.3 0.2 -0.5
v 0.2 0 -0.9
v 0.2 0.2 -0.9
v 0.3 0 -0.9
v 0.3 0.2 -0.9
v 0.3 0.2 -1.2
v 0.3 0.3 -1.2
v 0.4 0.2 -1.2
v 0.4 0.3 -1.2
v -3.1 0 -2.1
v -3.1 0.3 -2.1
v -0.0999999 0 -2.1
v -0.0999999 0.3 -2.1
v 0.3 0.2 -2.1
v 0.3 0.3 -2.1
v 0.4 0.1 -2.1
v 0.4 0.2 -2.1
v 0.5 0 -2.1
v 0.5 0.1 -2.1
v -3.1 0 1.5
v -0.0999999 0 1.5
v 0.5 0 1.5
v -0.2 0 0.6
v -0.0999999 0 0.6
v 0.2 0 0.6
v 0.3 0 0.6
v 0.5 0 0.6
v 0.2 0 0.5
v 0.3 0 0.5
v 0.2 0 0.3
v 0.3 0 0.3
v 0.2 0 0.2
v 0.3 0 0.2
v 0.2 0 -0.1
v 0.3 0 -0.1
v 0.2 0 -0.2
v 0.3 0 -0.2
v 0.2 0 -0.4
v 0.3 0 -0.4
v 0.2 0 -0.5
v 0.3 0 -0.5
v 0.2 0 -0.8
v 0.3 0 -0.8
v 0.2 0 -0.9
v 0.3 0 -0.9
v 0.2 0 -1.1
v 0.3 0 -1.1
v -0.2 0 -1.2
v -0.0999999 0 -1.2
v 0.2 0 -1.2
v 0.3 0 -1.2
v 0.5 0 -1.2
v -3.1 0 -2.1
v -0.0999999 0 -2.1
v 0.5 0 -2.1
v -0.0999999 0.2 0.6
v 0.2 0.2 0.6
v 0.3 0.2 0.6
v 0.4 0.2 0.6
v 0.2 0.2 0.5
v 0.3 0.2 0.5
v 0.2 0.2 0.3
v 0.3 0.2 0.3
v 0.2 0.2 0.2
v 0.3 0.2 0.2
v 0.2 0.2 -0.1
v 0.3 0.2 -0.1
v 0.2 0.2 -0.2
v 0.3 0.2 -0.2
v 0.2 0.2 -0.4
v 0.3 0.2 -0.4
v 0.2 0.2 -0.5
v 0.3 0.2 -0.5
v 0.2 0.2 -0.8
v 0.3 0.2 -0.8
v 0.2 0.2 -0.9
v 0.3 0.2 -0.9
v 0.2 0.2 -1.1
v 0.3 0.2 -1.1
v -0.0999999 0.2 -1.2
v 0.2 0.2 -1.2
v 0.3 0.2 -1.2
v 0.4 0.2 -1.2
v 0.4 0.1 1.5
v 0.5 0.1 1.5
v 0.4 0.1 0.6
v 0.5 0.1 0.6
v 0.4 0.1 -1.2
v 0.5 0.1 -1.2
v 0.4 0.1 -2.1
v 0.5 0.1 -2.1
v 0.3 0.2 1.5
v 0.4 0.2 1.5
v 0.3 0.2 0.6
v 0.4 0.2 0.6
v 0.3 0.2 -1.2
v 0.4 0.2 -1.2
v 0.3 0.2 -2.1
v 0.4 0.2 -2.1
v -3.1 0.3 1.5
v -0.0999999 0.3 1.5
v 0.3 0.3 1.5
v 0.3 0.3 0.6
v 0.4 0.3 0.6
v 0.3 0.3 -1.2
v 0.4 0.3 -1.2
v -3.1 0.3 -2.1
v -0.0999999 0.3 -2.1
v 0.3 0.3 -2.1

# faces
f 3/4/1 2/4/1 1/4/1
f 4/4/1 2/4/1 3/4/1
f 17/2/1 6/2/1 5/2/1
f 18/2/1 6/2/1 17/2/1
f 19/2/1 8/2/1 7/2/1
f 20/2/1 8/2/1 19/2/1
f 21/2/1 10/2/1 9/2/1
f 22/2/1 10/2/1 21/2/1
f 23/2/1 12/2/1 11/2/1
f 24/2/1 12/2/1 23/2/1
f 25/2/1 14/2/1 13/2/1
f 26/2/1 14/2/1 25/2/1
f 27/2/1 16/2/1 15/2/1
f 28/2/1 16/2/1 27/2/1
f 29/1/2 30/1/2 31/1/2
f 31/1/2 30/1/2 32/1/2
f 33/2/2 34/2/2 46/2/2
f 46/2/2 34/2/2 47/2/2
f 35/2/2 36/2/2 48/2/2
f 48/2/2 36/2/2 49/2/2
f 37/2/2 38/2/2 50/2/2
f 50/2/2 38/2/2 51/2/2
f 39/2/2 40/2/2 52/2/2
f 52/2/2 40/2/2 53/2/2
f 41/2/2 42/2/2 54/2/2
f 54/2/2 42/2/2 55/2/2
f 43/2/2 44/2/2 56/2/2
f 56/2/2 44/2/2 57/2/2
f 45/3/2 46/3/2 59/3/2
f 59/3/2 46/3/2 60/3/2
f 57/3/2 58/3/2 61/3/2
f 61/3/2 58/3/2 62/3/2
f 63/3/2 64/3/2 67/3/2
f 67/3/2 64/3/2 68/3/2
f 65/3/2 66/3/2 69/3/2
f 69/3/2 66/3/2 70/3/2
f 68/3/2 69/3/2 71/3/2
f 71/3/2 69/3/2 72/3/2
f 73/3/2 74/3/2 77/3/2
f 77/3/2 74/3/2 78/3/2
f 75/3/2 76/3/2 79/3/2
f 79/3/2 76/3/2 80/3/2
f 83/4/3 82/4/3 81/4/3
f 84/4/3 82/4/3 83/4/3
f 85/3/3 84/3/3 83/3/3
f 86/3/3 84/3/3 85/3/3
f 87/3/3 85/3/3 83/3/3
f 88/3/3 85/3/3 87/3/3
f 89/3/3 87/3/3 83/3/3
f 90/3/3 87/3/3 89/3/3
f 93/3/3 92/3/3 91/3/3
f 94/3/3 92/3/3 93/3/3
f 97/2/3 96/2/3 95/2/3
f 98/2/3 96/2/3 97/2/3
f 101/2/3 100/2/3 99/2/3
f 102/2/3 100/2/3 101/2/3
f 105/2/3 104/2/3 103/2/3
f 106/2/3 104/2/3 105/2/3
f 109/2/3 108/2/3 107/2/3
f 110/2/3 108/2/3 109/2/3
f 113/2/3 112/2/3 111/2/3
f 114/2/3 112/2/3 113/2/3
f 117/3/3 116/3/3 115/3/3
f 118/3/3 116/3/3 117/3/3
f 121/3/3 120/3/3 119/3/3
f 122/3/3 120/3/3 121/3/3
f 123/3/3 121/3/3 119/3/3
f 124/3/3 121/3/3 123/3/3
f 125/3/4 126/3/4 127/3/4
f 127/3/4 126/3/4 128/3/4
f 129/3/4 130/3/4 131/3/4
f 131/3/4 130/3/4 132/3/4
f 129/3/4 131/3/4 133/3/4
f 133/3/4 131/3/4 134/3/4
f 135/2/4 136/2/4 137/2/4
f 137/2/4 136/2/4 138/2/4
f 139/2/4 140/2/4 141/2/4
f 141/2/4 140/2/4 142/2/4
f 143/2/4 144/2/4 145/2/4
f 145/2/4 144/2/4 146/2/4
f 147/2/4 148/2/4 149/2/4
f 149/2/4 148/2/4 150/2/4
f 151/2/4 152/2/4 153/2/4
f 153/2/4 152/2/4 154/2/4
f 155/3/4 156/3/4 157/3/4
f 157/3/4 156/3/4 158/3/4
f 159/4/4 160/4/4 161/4/4
f 161/4/4 160/4/4 162/4/4
f 161/3/4 162/3/4 163/3/4
f 163/3/4 162/3/4 164/3/4
f 161/3/4 163/3/4 165/3/4
f 165/3/4 163/3/4 166/3/4
f 161/3/4 165/3/4 167/3/4
f 167/3/4 165/3/4 168/3/4
f 172/4/5 170/4/5 169/4/5
f 173/3/5 171/3/5 170/3/5
f 173/4/5 170/4/5 172/4/5
f 174/3/5 171/3/5 173/3/5
f 175/3/5 171/3/5 174/3/5
f 176/3/5 171/3/5 175/3/5
f 177/2/5 175/2/5 174/2/5
f 178/2/5 175/2/5 177/2/5
f 181/2/5 180/2/5 179/2/5
f 182/2/5 180/2/5 181/2/5
f 185/2/5 184/2/5 183/2/5
f 186/2/5 184/2/5 185/2/5
f 189/2/5 188/2/5 187/2/5
f 190/2/5 188/2/5 189/2/5
f 193/2/5 192/2/5 191/2/5
f 194/2/5 192/2/5 193/2/5
f 197/4/5 172/4/5 169/4/5
f 197/1/5 173/1/5 172/1/5
f 198/1/5 173/1/5 197/1/5
f 199/2/5 196/2/5 195/2/5
f 200/2/5 196/2/5 199/2/5
f 202/4/5 198/4/5 197/4/5
f 202/4/5 197/4/5 169/4/5
f 203/3/5 201/3/5 200/3/5
f 203/4/5 198/4/5 202/4/5
f 203/3/5 200/3/5 199/3/5
f 203/3/5 199/3/5 198/3/5
f 204/3/5 201/3/5 203/3/5
f 209/3/5 206/3/5 205/3/5
f 210/3/5 208/3/5 207/3/5
f 211/3/5 209/3/5 205/3/5
f 211/3/5 210/3/5 209/3/5
f 212/3/5 208/3/5 210/3/5
f 212/3/5 210/3/5 211/3/5
f 213/3/5 211/3/5 205/3/5
f 214/3/5 208/3/5 212/3/5
f 215/3/5 213/3/5 205/3/5
f 215/3/5 214/3/5 213/3/5
f 216/3/5 208/3/5 214/3/5
f 216/3/5 214/3/5 215/3/5
f 217/3/5 215/3/5 205/3/5
f 218/3/5 208/3/5 216/3/5
f 219/3/5 217/3/5 205/3/5
f 219/3/5 218/3/5 217/3/5
f 220/3/5 208/3/5 218/3/5
f 220/3/5 218/3/5 219/3/5
f 221/3/5 219/3/5 205/3/5
f 222/3/5 208/3/5 220/3/5
f 223/3/5 221/3/5 205/3/5
f 223/3/5 222/3/5 221/3/5
f 224/3/5 208/3/5 222/3/5
f 224/3/5 222/3/5 223/3/5
f 225/3/5 223/3/5 205/3/5
f 226/3/5 208/3/5 224/3/5
f 227/3/5 225/3/5 205/3/5
f 227/3/5 226/3/5 225/3/5
f 228/3/5 208/3/5 226/3/5
f 228/3/5 226/3/5 227/3/5
f 229/3/5 227/3/5 205/3/5
f 230/3/5 227/3/5 229/3/5
f 231/3/5 208/3/5 228/3/5
f 232/3/5 208/3/5 231/3/5
f 233/3/6 234/3/6 235/3/6
f 235/3/6 234/3/6 236/3/6
f 237/3/6 238/3/6 239/3/6
f 239/3/6 238/3/6 240/3/6
f 241/3/6 242/3/6 243/3/6
f 243/3/6 242/3/6 244/3/6
f 245/3/6 246/3/6 247/3/6
f 247/3/6 246/3/6 248/3/6
f 250/3/6 251/3/6 252/3/6
f 250/3/6 252/3/6 254/3/6
f 252/3/6 253/3/6 254/3/6
f 254/3/6 253/3/6 255/3/6
f 249/4/6 250/4/6 256/4/6
f 250/3/6 254/3/6 257/3/6
f 256/4/6 250/4/6 257/4/6
f 257/3/6 254/3/6 258/3/6
