# MagicaVoxel @ Ephtracy

# group
o 

# material
mtllib sidewalk.mtl
usemtl palette

# normals
vn -1 0 0
vn 1 0 0
vn 0 0 1
vn 0 0 -1
vn 0 -1 0
vn 0 1 0

# texcoords
vt 0.0292969 0.5
vt 0.0917969 0.5

# verts
v -3.1 0 1.5
v -3.1 0 -2.1
v -3.1 0.3 1.5
v -3.1 0.3 -2.1
v 0.3 0.2 1.5
v 0.3 0.2 -2.1
v 0.3 0.3 1.5
v 0.3 0.3 -2.1
v 0.4 0.1 1.5
v 0.4 0.1 -2.1
v 0.4 0.2 1.5
v 0.4 0.2 -2.1
v 0.5 0 1.5
v 0.5 0 -2.1
v 0.5 0.1 1.5
v 0.5 0.1 -2.1
v -3.1 0 1.5
v -3.1 0.3 1.5
v -0.0999999 0 1.5
v -0.0999999 0.3 1.5
v 0.3 0.2 1.5
v 0.3 0.3 1.5
v 0.4 0.1 1.5
v 0.4 0.2 1.5
v 0.5 0 1.5
v 0.5 0.1 1.5
v -3.1 0 -2.1
v -3.1 0.3 -2.1
v -0.0999999 0 -2.1
v -0.0999999 0.3 -2.1
v 0.3 0.2 -2.1
v 0.3 0.3 -2.1
v 0.4 0.1 -2.1
v 0.4 0.2 -2.1
v 0.5 0 -2.1
v 0.5 0.1 -2.1
v -3.1 0 1.5
v -0.0999999 0 1.5
v 0.5 0 1.5
v -3.1 0 -2.1
v -0.0999999 0 -2.1
v 0.5 0 -2.1
v 0.4 0.1 1.5
v 0.5 0.1 1.5
v 0.4 0.1 -2.1
v 0.5 0.1 -2.1
v 0.3 0.2 1.5
v 0.4 0.2 1.5
v 0.3 0.2 -2.1
v 0.4 0.2 -2.1
v -3.1 0.3 1.5
v -0.0999999 0.3 1.5
v 0.3 0.3 1.5
v -3.1 0.3 -2.1
v -0.0999999 0.3 -2.1
v 0.3 0.3 -2.1

# faces
f 3/2/1 2/2/1 1/2/1
f 4/2/1 2/2/1 3/2/1
f 5/1/2 6/1/2 7/1/2
f 7/1/2 6/1/2 8/1/2
f 9/1/2 10/1/2 11/1/2
f 11/1/2 10/1/2 12/1/2
f 13/1/2 14/1/2 15/1/2
f 15/1/2 14/1/2 16/1/2
f 19/2/3 18/2/3 17/2/3
f 20/2/3 18/2/3 19/2/3
f 21/1/3 20/1/3 19/1/3
f 22/1/3 20/1/3 21/1/3
f 23/1/3 21/1/3 19/1/3
f 24/1/3 21/1/3 23/1/3
f 25/1/3 23/1/3 19/1/3
f 26/1/3 23/1/3 25/1/3
f 27/2/4 28/2/4 29/2/4
f 29/2/4 28/2/4 30/2/4
f 29/1/4 30/1/4 31/1/4
f 31/1/4 30/1/4 32/1/4
f 29/1/4 31/1/4 33/1/4
f 33/1/4 31/1/4 34/1/4
f 29/1/4 33/1/4 35/1/4
f 35/1/4 33/1/4 36/1/4
f 40/2/5 38/2/5 37/2/5
f 41/1/5 39/1/5 38/1/5
f 41/2/5 38/2/5 40/2/5
f 42/1/5 39/1/5 41/1/5
f 43/1/6 44/1/6 45/1/6
f 45/1/6 44/1/6 46/1/6
f 47/1/6 48/1/6 49/1/6
f 49/1/6 48/1/6 50/1/6
f 51/2/6 52/2/6 54/2/6
f 52/1/6 53/1/6 55/1/6
f 54/2/6 52/2/6 55/2/6
f 55/1/6 53/1/6 56/1/6
