# MagicaVoxel @ Ephtracy

# group
o 

# material
mtllib stairs.vox.mtl
usemtl palette

# normals
vn -1 0 0
vn 1 0 0
vn 0 0 1
vn 0 0 -1
vn 0 -1 0
vn 0 1 0

# texcoords
vt 0.0253906 0.5
vt 0.0292969 0.5
vt 0.0488281 0.5
vt 0.0527344 0.5

# verts
v -1.1 0 2.2
v -1.1 0 2.1
v -1.1 0 1.6
v -1.1 0.2 2.2
v -1.1 0.2 2.1
v -1.1 0.3 2.2
v -1.1 0.3 2.1
v -1.1 0.3 2
v -1.1 0.4 2.1
v -1.1 0.4 2
v -1.1 0.4 1.6
v -1.1 0.4 1.5
v -1.1 0.4 1
v -1.1 0.6 1.6
v -1.1 0.6 1.5
v -1.1 0.7 1.6
v -1.1 0.7 1.5
v -1.1 0.7 1.4
v -1.1 0.8 1.5
v -1.1 0.8 1.4
v -1.1 0.8 1
v -1.1 0.8 0.9
v -1.1 0.8 0.4
v -1.1 1 1
v -1.1 1 0.9
v -1.1 1.1 1
v -1.1 1.1 0.9
v -1.1 1.1 0.8
v -1.1 1.1 0.5
v -1.1 1.2 0.9
v -1.1 1.2 0.8
v -1.1 1.2 0.5
v -1.1 1.2 0.4
v -1.1 1.2 0.3
v -1.1 1.2 -0.2
v -1.1 1.4 0.4
v -1.1 1.4 0.3
v -1.1 1.5 0.4
v -1.1 1.5 0.3
v -1.1 1.5 0.2
v -1.1 1.6 0.3
v -1.1 1.6 0.2
v -1.1 1.6 -0.2
v -1.1 1.6 -0.3
v -1.1 1.6 -0.8
v -1.1 1.8 -0.2
v -1.1 1.8 -0.3
v -1.1 1.9 -0.2
v -1.1 1.9 -0.3
v -1.1 1.9 -0.4
v -1.1 2 -0.3
v -1.1 2 -0.4
v -1.1 2 -0.8
v -1.1 2 -0.9
v -1.1 2 -1.4
v -1.1 2.2 -0.8
v -1.1 2.2 -0.9
v -1.1 2.3 -0.8
v -1.1 2.3 -0.9
v -1.1 2.3 -1
v -1.1 2.4 -0.9
v -1.1 2.4 -1
v -1.1 2.4 -1.4
v -1.1 2.4 -1.5
v -1.1 2.4 -2
v -1.1 2.6 -1.4
v -1.1 2.6 -1.5
v -1.1 2.7 -1.4
v -1.1 2.7 -1.5
v -1.1 2.7 -1.6
v -1.1 2.8 -1.5
v -1.1 2.8 -1.6
v -1.1 2.8 -2
v 1.7 2 2
v 1.7 2 1.5
v 1.7 2.1 2
v 1.7 2.1 1.6
v 1.7 2.1 1.5
v 1.7 2.1 1.4
v 1.7 2.2 1.6
v 1.7 2.2 1.5
v 1.7 2.2 1.4
v 1.7 2.2 1.3
v 1.7 2.3 1.5
v 1.7 2.3 1.4
v 1.7 2.3 1.3
v 1.7 2.3 1.2
v 1.7 2.4 1.4
v 1.7 2.4 1.3
v 1.7 2.4 1.2
v 1.7 2.4 1
v 1.7 2.5 1.3
v 1.7 2.5 1.1
v 1.7 2.5 1
v 1.7 2.5 0.9
v 1.7 2.6 1.1
v 1.7 2.6 1
v 1.7 2.6 0.9
v 1.7 2.6 0.8
v 1.7 2.7 1
v 1.7 2.7 0.9
v 1.7 2.7 0.8
v 1.7 2.7 0.5
v 1.7 2.8 0.9
v 1.7 2.8 0.8
v 1.7 2.8 0.5
v 1.7 2.8 0.3
v 1.7 2.9 0.8
v 1.7 2.9 0.4
v 1.7 2.9 0.3
v 1.7 2.9 0.2
v 1.7 3 0.4
v 1.7 3 0.3
v 1.7 3 0.2
v 1.7 3 0.0999999
v 1.7 3.1 0.3
v 1.7 3.1 0.2
v 1.7 3.1 0.0999999
v 1.7 3.1 0
v 1.7 3.2 0.2
v 1.7 3.2 0.0999999
v 1.7 3.2 0
v 1.7 3.2 -0.2
v 1.7 3.3 0.0999999
v 1.7 3.3 -0.1
v 1.7 3.3 -0.2
v 1.7 3.3 -0.3
v 1.7 3.4 -0.1
v 1.7 3.4 -0.2
v 1.7 3.4 -0.3
v 1.7 3.4 -0.4
v 1.7 3.5 -0.2
v 1.7 3.5 -0.3
v 1.7 3.5 -0.4
v 1.7 3.5 -0.7
v 1.7 3.6 -0.3
v 1.7 3.6 -0.4
v 1.7 3.6 -0.7
v 1.7 3.6 -0.9
v 1.7 3.7 -0.4
v 1.7 3.7 -0.8
v 1.7 3.7 -0.9
v 1.7 3.7 -1
v 1.7 3.8 -0.8
v 1.7 3.8 -0.9
v 1.7 3.8 -1
v 1.7 3.8 -1.1
v 1.7 3.9 -0.9
v 1.7 3.9 -1
v 1.7 3.9 -1.1
v 1.7 3.9 -1.2
v 1.7 4 -1
v 1.7 4 -1.1
v 1.7 4 -1.2
v 1.7 4 -1.4
v 1.7 4.1 -1.1
v 1.7 4.1 -1.3
v 1.7 4.1 -1.4
v 1.7 4.1 -1.5
v 1.7 4.2 -1.3
v 1.7 4.2 -1.4
v 1.7 4.2 -1.5
v 1.7 4.2 -1.6
v 1.7 4.3 -1.4
v 1.7 4.3 -1.5
v 1.7 4.3 -1.6
v 1.7 4.3 -2
v 1.7 4.4 -1.5
v 1.7 4.4 -1.6
v 1.7 4.5 -1.6
v 1.7 4.5 -2
v 1.8 0.4 1.9
v 1.8 0.4 1.7
v 1.8 1.2 0.7
v 1.8 1.2 0.5
v 1.8 2 1.9
v 1.8 2 1.7
v 1.8 2 -0.5
v 1.8 2 -0.7
v 1.8 2.1 2
v 1.8 2.1 1.6
v 1.8 2.2 2
v 1.8 2.2 1.6
v 1.8 2.2 1.5
v 1.8 2.3 1.6
v 1.8 2.3 1.5
v 1.8 2.3 1.4
v 1.8 2.4 1.5
v 1.8 2.4 1.4
v 1.8 2.4 1.3
v 1.8 2.5 1.4
v 1.8 2.5 1.3
v 1.8 2.5 1.1
v 1.8 2.6 1.3
v 1.8 2.6 1.1
v 1.8 2.6 1
v 1.8 2.7 1.1
v 1.8 2.7 1
v 1.8 2.7 0.9
v 1.8 2.7 0.7
v 1.8 2.7 0.5
v 1.8 2.8 1
v 1.8 2.8 0.9
v 1.8 2.8 0.8
v 1.8 2.8 -1.7
v 1.8 2.8 -1.9
v 1.8 2.9 0.9
v 1.8 2.9 0.8
v 1.8 2.9 0.4
v 1.8 3 0.8
v 1.8 3 0.4
v 1.8 3 0.3
v 1.8 3.1 0.4
v 1.8 3.1 0.3
v 1.8 3.1 0.2
v 1.8 3.2 0.3
v 1.8 3.2 0.2
v 1.8 3.2 0.0999999
v 1.8 3.3 0.2
v 1.8 3.3 0.0999999
v 1.8 3.3 -0.1
v 1.8 3.4 0.0999999
v 1.8 3.4 -0.1
v 1.8 3.4 -0.2
v 1.8 3.5 -0.1
v 1.8 3.5 -0.2
v 1.8 3.5 -0.3
v 1.8 3.5 -0.5
v 1.8 3.5 -0.7
v 1.8 3.6 -0.2
v 1.8 3.6 -0.3
v 1.8 3.6 -0.4
v 1.8 3.7 -0.3
v 1.8 3.7 -0.4
v 1.8 3.7 -0.8
v 1.8 3.8 -0.4
v 1.8 3.8 -0.8
v 1.8 3.8 -0.9
v 1.8 3.9 -0.8
v 1.8 3.9 -0.9
v 1.8 3.9 -1
v 1.8 4 -0.9
v 1.8 4 -1
v 1.8 4 -1.1
v 1.8 4.1 -1
v 1.8 4.1 -1.1
v 1.8 4.1 -1.3
v 1.8 4.2 -1.1
v 1.8 4.2 -1.3
v 1.8 4.2 -1.4
v 1.8 4.3 -1.3
v 1.8 4.3 -1.4
v 1.8 4.3 -1.5
v 1.8 4.3 -1.7
v 1.8 4.3 -1.9
v 1.8 4.4 -1.4
v 1.8 4.4 -1.5
v 1.8 4.4 -1.6
v 1.8 4.5 -1.5
v 1.8 4.5 -1.6
v 1.8 4.5 -2
v 1.8 4.6 -1.6
v 1.8 4.6 -2
v 2 0.4 1.9
v 2 0.4 1.7
v 2 1.2 0.7
v 2 1.2 0.5
v 2 2 1.9
v 2 2 1.7
v 2 2 -0.5
v 2 2 -0.7
v 2 2.1 2
v 2 2.1 1.6
v 2 2.2 2
v 2 2.2 1.6
v 2 2.2 1.5
v 2 2.3 1.6
v 2 2.3 1.5
v 2 2.3 1.4
v 2 2.4 1.5
v 2 2.4 1.4
v 2 2.4 1.3
v 2 2.5 1.4
v 2 2.5 1.3
v 2 2.5 1.1
v 2 2.6 1.3
v 2 2.6 1.1
v 2 2.6 1
v 2 2.7 1.1
v 2 2.7 1
v 2 2.7 0.9
v 2 2.7 0.7
v 2 2.7 0.5
v 2 2.8 1
v 2 2.8 0.9
v 2 2.8 0.8
v 2 2.8 -1.7
v 2 2.8 -1.9
v 2 2.9 0.9
v 2 2.9 0.8
v 2 2.9 0.4
v 2 3 0.8
v 2 3 0.4
v 2 3 0.3
v 2 3.1 0.4
v 2 3.1 0.3
v 2 3.1 0.2
v 2 3.2 0.3
v 2 3.2 0.2
v 2 3.2 0.0999999
v 2 3.3 0.2
v 2 3.3 0.0999999
v 2 3.3 -0.1
v 2 3.4 0.0999999
v 2 3.4 -0.1
v 2 3.4 -0.2
v 2 3.5 -0.1
v 2 3.5 -0.2
v 2 3.5 -0.3
v 2 3.5 -0.5
v 2 3.5 -0.7
v 2 3.6 -0.2
v 2 3.6 -0.3
v 2 3.6 -0.4
v 2 3.7 -0.3
v 2 3.7 -0.4
v 2 3.7 -0.8
v 2 3.8 -0.4
v 2 3.8 -0.8
v 2 3.8 -0.9
v 2 3.9 -0.8
v 2 3.9 -0.9
v 2 3.9 -1
v 2 4 -0.9
v 2 4 -1
v 2 4 -1.1
v 2 4.1 -1
v 2 4.1 -1.1
v 2 4.1 -1.3
v 2 4.2 -1.1
v 2 4.2 -1.3
v 2 4.2 -1.4
v 2 4.3 -1.3
v 2 4.3 -1.4
v 2 4.3 -1.5
v 2 4.3 -1.7
v 2 4.3 -1.9
v 2 4.4 -1.4
v 2 4.4 -1.5
v 2 4.4 -1.6
v 2 4.5 -1.5
v 2 4.5 -1.6
v 2 4.5 -2
v 2 4.6 -1.6
v 2 4.6 -2
v 2.1 0 2.2
v 2.1 0 2.1
v 2.1 0 1.6
v 2.1 0.2 2.2
v 2.1 0.2 2.1
v 2.1 0.3 2.2
v 2.1 0.3 2.1
v 2.1 0.3 2
v 2.1 0.3 1.6
v 2.1 0.4 2.1
v 2.1 0.4 2
v 2.1 0.4 1.6
v 2.1 0.4 1.5
v 2.1 0.4 1
v 2.1 0.6 1.6
v 2.1 0.6 1.5
v 2.1 0.7 1.6
v 2.1 0.7 1.5
v 2.1 0.7 1.4
v 2.1 0.7 1
v 2.1 0.8 1.5
v 2.1 0.8 1.4
v 2.1 0.8 1
v 2.1 0.8 0.9
v 2.1 0.8 0.4
v 2.1 1 1
v 2.1 1 0.9
v 2.1 1.1 1
v 2.1 1.1 0.9
v 2.1 1.1 0.8
v 2.1 1.1 0.4
v 2.1 1.2 0.9
v 2.1 1.2 0.8
v 2.1 1.2 0.4
v 2.1 1.2 0.3
v 2.1 1.2 -0.2
v 2.1 1.4 0.4
v 2.1 1.4 0.3
v 2.1 1.5 0.4
v 2.1 1.5 0.3
v 2.1 1.5 0.2
v 2.1 1.5 -0.2
v 2.1 1.6 0.3
v 2.1 1.6 0.2
v 2.1 1.6 -0.2
v 2.1 1.6 -0.3
v 2.1 1.6 -0.8
v 2.1 1.8 -0.2
v 2.1 1.8 -0.3
v 2.1 1.9 -0.2
v 2.1 1.9 -0.3
v 2.1 1.9 -0.4
v 2.1 1.9 -0.8
v 2.1 2 2
v 2.1 2 1.5
v 2.1 2 -0.3
v 2.1 2 -0.4
v 2.1 2 -0.8
v 2.1 2 -0.9
v 2.1 2 -1.4
v 2.1 2.1 2
v 2.1 2.1 1.6
v 2.1 2.1 1.5
v 2.1 2.1 1.4
v 2.1 2.2 1.6
v 2.1 2.2 1.5
v 2.1 2.2 1.4
v 2.1 2.2 1.3
v 2.1 2.2 -0.8
v 2.1 2.2 -0.9
v 2.1 2.3 1.5
v 2.1 2.3 1.4
v 2.1 2.3 1.3
v 2.1 2.3 1.2
v 2.1 2.3 -0.8
v 2.1 2.3 -0.9
v 2.1 2.3 -1
v 2.1 2.3 -1.4
v 2.1 2.4 1.4
v 2.1 2.4 1.3
v 2.1 2.4 1.2
v 2.1 2.4 1
v 2.1 2.4 -0.9
v 2.1 2.4 -1
v 2.1 2.4 -1.4
v 2.1 2.4 -1.5
v 2.1 2.4 -2
v 2.1 2.5 1.3
v 2.1 2.5 1.1
v 2.1 2.5 1
v 2.1 2.5 0.9
v 2.1 2.6 1.1
v 2.1 2.6 1
v 2.1 2.6 0.9
v 2.1 2.6 0.8
v 2.1 2.6 -1.4
v 2.1 2.6 -1.5
v 2.1 2.7 1
v 2.1 2.7 0.9
v 2.1 2.7 0.8
v 2.1 2.7 0.5
v 2.1 2.7 -1.4
v 2.1 2.7 -1.5
v 2.1 2.7 -1.6
v 2.1 2.7 -2
v 2.1 2.8 0.9
v 2.1 2.8 0.8
v 2.1 2.8 0.5
v 2.1 2.8 0.3
v 2.1 2.8 -1.5
v 2.1 2.8 -1.6
v 2.1 2.8 -2
v 2.1 2.9 0.8
v 2.1 2.9 0.4
v 2.1 2.9 0.3
v 2.1 2.9 0.2
v 2.1 3 0.4
v 2.1 3 0.3
v 2.1 3 0.2
v 2.1 3 0.0999999
v 2.1 3.1 0.3
v 2.1 3.1 0.2
v 2.1 3.1 0.0999999
v 2.1 3.1 0
v 2.1 3.2 0.2
v 2.1 3.2 0.0999999
v 2.1 3.2 0
v 2.1 3.2 -0.2
v 2.1 3.3 0.0999999
v 2.1 3.3 -0.1
v 2.1 3.3 -0.2
v 2.1 3.3 -0.3
v 2.1 3.4 -0.1
v 2.1 3.4 -0.2
v 2.1 3.4 -0.3
v 2.1 3.4 -0.4
v 2.1 3.5 -0.2
v 2.1 3.5 -0.3
v 2.1 3.5 -0.4
v 2.1 3.5 -0.7
v 2.1 3.6 -0.3
v 2.1 3.6 -0.4
v 2.1 3.6 -0.7
v 2.1 3.6 -0.9
v 2.1 3.7 -0.4
v 2.1 3.7 -0.8
v 2.1 3.7 -0.9
v 2.1 3.7 -1
v 2.1 3.8 -0.8
v 2.1 3.8 -0.9
v 2.1 3.8 -1
v 2.1 3.8 -1.1
v 2.1 3.9 -0.9
v 2.1 3.9 -1
v 2.1 3.9 -1.1
v 2.1 3.9 -1.2
v 2.1 4 -1
v 2.1 4 -1.1
v 2.1 4 -1.2
v 2.1 4 -1.4
v 2.1 4.1 -1.1
v 2.1 4.1 -1.3
v 2.1 4.1 -1.4
v 2.1 4.1 -1.5
v 2.1 4.2 -1.3
v 2.1 4.2 -1.4
v 2.1 4.2 -1.5
v 2.1 4.2 -1.6
v 2.1 4.3 -1.4
v 2.1 4.3 -1.5
v 2.1 4.3 -1.6
v 2.1 4.3 -2
v 2.1 4.4 -1.5
v 2.1 4.4 -1.6
v 2.1 4.5 -1.6
v 2.1 4.5 -2
v -1.1 0 2.2
v -1.1 0.2 2.2
v -1.1 0.3 2.2
v -1 0 2.2
v -1 0.2 2.2
v -0.4 0 2.2
v -0.4 0.2 2.2
v -0.3 0 2.2
v -0.3 0.2 2.2
v 0.4 0 2.2
v 0.4 0.2 2.2
v 0.6 0 2.2
v 0.6 0.2 2.2
v 1.2 0 2.2
v 1.2 0.2 2.2
v 1.3 0 2.2
v 1.3 0.2 2.2
v 2 0 2.2
v 2 0.2 2.2
v 2.1 0 2.2
v 2.1 0.2 2.2
v 2.1 0.3 2.2
v -1.1 0.3 2.1
v -1.1 0.4 2.1
v 2.1 0.3 2.1
v 2.1 0.4 2.1
v 1.7 2 2
v 1.7 2.1 2
v 1.8 2.1 2
v 1.8 2.2 2
v 2 2.1 2
v 2 2.2 2
v 2.1 2 2
v 2.1 2.1 2
v 1.8 0.4 1.9
v 1.8 2 1.9
v 2 0.4 1.9
v 2 2 1.9
v -1.1 0.4 1.6
v -1.1 0.6 1.6
v -1.1 0.7 1.6
v -1 0.4 1.6
v -1 0.6 1.6
v -0.4 0.4 1.6
v -0.4 0.6 1.6
v -0.3 0.4 1.6
v -0.3 0.6 1.6
v 0.4 0.4 1.6
v 0.4 0.6 1.6
v 0.6 0.4 1.6
v 0.6 0.6 1.6
v 1.2 0.4 1.6
v 1.2 0.6 1.6
v 1.3 0.4 1.6
v 1.3 0.6 1.6
v 1.7 2.1 1.6
v 1.7 2.2 1.6
v 1.8 2.1 1.6
v 1.8 2.2 1.6
v 1.8 2.3 1.6
v 2 0.4 1.6
v 2 0.6 1.6
v 2 2.1 1.6
v 2 2.2 1.6
v 2 2.3 1.6
v 2.1 0.4 1.6
v 2.1 0.6 1.6
v 2.1 0.7 1.6
v 2.1 2.1 1.6
v 2.1 2.2 1.6
v -1.1 0.7 1.5
v -1.1 0.8 1.5
v 1.7 2.2 1.5
v 1.7 2.3 1.5
v 1.8 2.2 1.5
v 1.8 2.3 1.5
v 1.8 2.4 1.5
v 2 2.2 1.5
v 2 2.3 1.5
v 2 2.4 1.5
v 2.1 0.7 1.5
v 2.1 0.8 1.5
v 2.1 2.2 1.5
v 2.1 2.3 1.5
v 1.7 2.3 1.4
v 1.7 2.4 1.4
v 1.8 2.3 1.4
v 1.8 2.4 1.4
v 1.8 2.5 1.4
v 2 2.3 1.4
v 2 2.4 1.4
v 2 2.5 1.4
v 2.1 2.3 1.4
v 2.1 2.4 1.4
v 1.7 2.4 1.3
v 1.7 2.5 1.3
v 1.8 2.4 1.3
v 1.8 2.5 1.3
v 1.8 2.6 1.3
v 2 2.4 1.3
v 2 2.5 1.3
v 2 2.6 1.3
v 2.1 2.4 1.3
v 2.1 2.5 1.3
v 1.7 2.5 1.1
v 1.7 2.6 1.1
v 1.8 2.5 1.1
v 1.8 2.6 1.1
v 1.8 2.7 1.1
v 2 2.5 1.1
v 2 2.6 1.1
v 2 2.7 1.1
v 2.1 2.5 1.1
v 2.1 2.6 1.1
v -1.1 0.8 1
v -1.1 1 1
v -1.1 1.1 1
v -1 0.8 1
v -1 1 1
v -0.4 0.8 1
v -0.4 1 1
v -0.3 0.8 1
v -0.3 1 1
v 0.4 0.8 1
v 0.4 1 1
v 0.6 0.8 1
v 0.6 1 1
v 1.2 0.8 1
v 1.2 1 1
v 1.3 0.8 1
v 1.3 1 1
v 1.7 2.6 1
v 1.7 2.7 1
v 1.8 2.6 1
v 1.8 2.7 1
v 1.8 2.8 1
v 2 0.8 1
v 2 1 1
v 2 2.6 1
v 2 2.7 1
v 2 2.8 1
v 2.1 0.8 1
v 2.1 1 1
v 2.1 1.1 1
v 2.1 2.6 1
v 2.1 2.7 1
v -1.1 1.1 0.9
v -1.1 1.2 0.9
v 1.7 2.7 0.9
v 1.7 2.8 0.9
v 1.8 2.7 0.9
v 1.8 2.8 0.9
v 1.8 2.9 0.9
v 2 2.7 0.9
v 2 2.8 0.9
v 2 2.9 0.9
v 2.1 1.1 0.9
v 2.1 1.2 0.9
v 2.1 2.7 0.9
v 2.1 2.8 0.9
v 1.7 2.8 0.8
v 1.7 2.9 0.8
v 1.8 2.8 0.8
v 1.8 2.9 0.8
v 1.8 3 0.8
v 2 2.8 0.8
v 2 2.9 0.8
v 2 3 0.8
v 2.1 2.8 0.8
v 2.1 2.9 0.8
v 1.8 1.2 0.7
v 1.8 2.7 0.7
v 2 1.2 0.7
v 2 2.7 0.7
v -1.1 1.2 0.4
v -1.1 1.4 0.4
v -1.1 1.5 0.4
v -1 1.2 0.4
v -1 1.4 0.4
v -0.4 1.2 0.4
v -0.4 1.4 0.4
v -0.3 1.2 0.4
v -0.3 1.4 0.4
v 0.4 1.2 0.4
v 0.4 1.4 0.4
v 0.6 1.2 0.4
v 0.6 1.4 0.4
v 1.2 1.2 0.4
v 1.2 1.4 0.4
v 1.3 1.2 0.4
v 1.3 1.4 0.4
v 1.7 2.9 0.4
v 1.7 3 0.4
v 1.8 2.9 0.4
v 1.8 3 0.4
v 1.8 3.1 0.4
v 2 1.2 0.4
v 2 1.4 0.4
v 2 2.9 0.4
v 2 3 0.4
v 2 3.1 0.4
v 2.1 1.2 0.4
v 2.1 1.4 0.4
v 2.1 1.5 0.4
v 2.1 2.9 0.4
v 2.1 3 0.4
v -1.1 1.5 0.3
v -1.1 1.6 0.3
v 1.7 3 0.3
v 1.7 3.1 0.3
v 1.8 3 0.3
v 1.8 3.1 0.3
v 1.8 3.2 0.3
v 2 3 0.3
v 2 3.1 0.3
v 2 3.2 0.3
v 2.1 1.5 0.3
v 2.1 1.6 0.3
v 2.1 3 0.3
v 2.1 3.1 0.3
v 1.7 3.1 0.2
v 1.7 3.2 0.2
v 1.8 3.1 0.2
v 1.8 3.2 0.2
v 1.8 3.3 0.2
v 2 3.1 0.2
v 2 3.2 0.2
v 2 3.3 0.2
v 2.1 3.1 0.2
v 2.1 3.2 0.2
v 1.7 3.2 0.0999999
v 1.7 3.3 0.0999999
v 1.8 3.2 0.0999999
v 1.8 3.3 0.0999999
v 1.8 3.4 0.0999999
v 2 3.2 0.0999999
v 2 3.3 0.0999999
v 2 3.4 0.0999999
v 2.1 3.2 0.0999999
v 2.1 3.3 0.0999999
v 1.7 3.3 -0.1
v 1.7 3.4 -0.1
v 1.8 3.3 -0.1
v 1.8 3.4 -0.1
v 1.8 3.5 -0.1
v 2 3.3 -0.1
v 2 3.4 -0.1
v 2 3.5 -0.1
v 2.1 3.3 -0.1
v 2.1 3.4 -0.1
v -1.1 1.6 -0.2
v -1.1 1.8 -0.2
v -1.1 1.9 -0.2
v -1 1.6 -0.2
v -1 1.8 -0.2
v -0.4 1.6 -0.2
v -0.4 1.8 -0.2
v -0.3 1.6 -0.2
v -0.3 1.8 -0.2
v 0.4 1.6 -0.2
v 0.4 1.8 -0.2
v 0.6 1.6 -0.2
v 0.6 1.8 -0.2
v 1.2 1.6 -0.2
v 1.2 1.8 -0.2
v 1.3 1.6 -0.2
v 1.3 1.8 -0.2
v 1.7 3.4 -0.2
v 1.7 3.5 -0.2
v 1.8 3.4 -0.2
v 1.8 3.5 -0.2
v 1.8 3.6 -0.2
v 2 1.6 -0.2
v 2 1.8 -0.2
v 2 3.4 -0.2
v 2 3.5 -0.2
v 2 3.6 -0.2
v 2.1 1.6 -0.2
v 2.1 1.8 -0.2
v 2.1 1.9 -0.2
v 2.1 3.4 -0.2
v 2.1 3.5 -0.2
v -1.1 1.9 -0.3
v -1.1 2 -0.3
v 1.7 3.5 -0.3
v 1.7 3.6 -0.3
v 1.8 3.5 -0.3
v 1.8 3.6 -0.3
v 1.8 3.7 -0.3
v 2 3.5 -0.3
v 2 3.6 -0.3
v 2 3.7 -0.3
v 2.1 1.9 -0.3
v 2.1 2 -0.3
v 2.1 3.5 -0.3
v 2.1 3.6 -0.3
v 1.7 3.6 -0.4
v 1.7 3.7 -0.4
v 1.8 3.6 -0.4
v 1.8 3.7 -0.4
v 1.8 3.8 -0.4
v 2 3.6 -0.4
v 2 3.7 -0.4
v 2 3.8 -0.4
v 2.1 3.6 -0.4
v 2.1 3.7 -0.4
v 1.8 2 -0.5
v 1.8 3.5 -0.5
v 2 2 -0.5
v 2 3.5 -0.5
v -1.1 2 -0.8
v -1.1 2.2 -0.8
v -1.1 2.3 -0.8
v -1 2 -0.8
v -1 2.2 -0.8
v -0.4 2 -0.8
v -0.4 2.2 -0.8
v -0.3 2 -0.8
v -0.3 2.2 -0.8
v 0.4 2 -0.8
v 0.4 2.2 -0.8
v 0.6 2 -0.8
v 0.6 2.2 -0.8
v 1.2 2 -0.8
v 1.2 2.2 -0.8
v 1.3 2 -0.8
v 1.3 2.2 -0.8
v 1.7 3.7 -0.8
v 1.7 3.8 -0.8
v 1.8 3.7 -0.8
v 1.8 3.8 -0.8
v 1.8 3.9 -0.8
v 2 2 -0.8
v 2 2.2 -0.8
v 2 3.7 -0.8
v 2 3.8 -0.8
v 2 3.9 -0.8
v 2.1 2 -0.8
v 2.1 2.2 -0.8
v 2.1 2.3 -0.8
v 2.1 3.7 -0.8
v 2.1 3.8 -0.8
v -1.1 2.3 -0.9
v -1.1 2.4 -0.9
v 1.7 3.8 -0.9
v 1.7 3.9 -0.9
v 1.8 3.8 -0.9
v 1.8 3.9 -0.9
v 1.8 4 -0.9
v 2 3.8 -0.9
v 2 3.9 -0.9
v 2 4 -0.9
v 2.1 2.3 -0.9
v 2.1 2.4 -0.9
v 2.1 3.8 -0.9
v 2.1 3.9 -0.9
v 1.7 3.9 -1
v 1.7 4 -1
v 1.8 3.9 -1
v 1.8 4 -1
v 1.8 4.1 -1
v 2 3.9 -1
v 2 4 -1
v 2 4.1 -1
v 2.1 3.9 -1
v 2.1 4 -1
v 1.7 4 -1.1
v 1.7 4.1 -1.1
v 1.8 4 -1.1
v 1.8 4.1 -1.1
v 1.8 4.2 -1.1
v 2 4 -1.1
v 2 4.1 -1.1
v 2 4.2 -1.1
v 2.1 4 -1.1
v 2.1 4.1 -1.1
v 1.7 4.1 -1.3
v 1.7 4.2 -1.3
v 1.8 4.1 -1.3
v 1.8 4.2 -1.3
v 1.8 4.3 -1.3
v 2 4.1 -1.3
v 2 4.2 -1.3
v 2 4.3 -1.3
v 2.1 4.1 -1.3
v 2.1 4.2 -1.3
v -1.1 2.4 -1.4
v -1.1 2.6 -1.4
v -1.1 2.7 -1.4
v -1 2.4 -1.4
v -1 2.6 -1.4
v -0.4 2.4 -1.4
v -0.4 2.6 -1.4
v -0.3 2.4 -1.4
v -0.3 2.6 -1.4
v 0.4 2.4 -1.4
v 0.4 2.6 -1.4
v 0.6 2.4 -1.4
v 0.6 2.6 -1.4
v 1.2 2.4 -1.4
v 1.2 2.6 -1.4
v 1.3 2.4 -1.4
v 1.3 2.6 -1.4
v 1.7 4.2 -1.4
v 1.7 4.3 -1.4
v 1.8 4.2 -1.4
v 1.8 4.3 -1.4
v 1.8 4.4 -1.4
v 2 2.4 -1.4
v 2 2.6 -1.4
v 2 4.2 -1.4
v 2 4.3 -1.4
v 2 4.4 -1.4
v 2.1 2.4 -1.4
v 2.1 2.6 -1.4
v 2.1 2.7 -1.4
v 2.1 4.2 -1.4
v 2.1 4.3 -1.4
v -1.1 2.7 -1.5
v -1.1 2.8 -1.5
v 1.7 4.3 -1.5
v 1.7 4.4 -1.5
v 1.8 4.3 -1.5
v 1.8 4.4 -1.5
v 1.8 4.5 -1.5
v 2 4.3 -1.5
v 2 4.4 -1.5
v 2 4.5 -1.5
v 2.1 2.7 -1.5
v 2.1 2.8 -1.5
v 2.1 4.3 -1.5
v 2.1 4.4 -1.5
v 1.7 4.4 -1.6
v 1.7 4.5 -1.6
v 1.8 4.4 -1.6
v 1.8 4.5 -1.6
v 1.8 4.6 -1.6
v 2 4.4 -1.6
v 2 4.5 -1.6
v 2 4.6 -1.6
v 2.1 4.4 -1.6
v 2.1 4.5 -1.6
v 1.8 2.8 -1.7
v 1.8 4.3 -1.7
v 2 2.8 -1.7
v 2 4.3 -1.7
v 1.8 0.4 1.7
v 1.8 2 1.7
v 2 0.4 1.7
v 2 2 1.7
v -1.1 0 1.6
v -1.1 0.4 1.6
v -1 0.4 1.6
v -0.4 0.3 1.6
v -0.4 0.4 1.6
v -0.3 0.3 1.6
v -0.3 0.4 1.6
v 0.4 0.3 1.6
v 0.4 0.4 1.6
v 0.6 0.3 1.6
v 0.6 0.4 1.6
v 1.2 0.3 1.6
v 1.2 0.4 1.6
v 1.3 0.3 1.6
v 1.3 0.4 1.6
v 2 0.3 1.6
v 2 0.4 1.6
v 2.1 0 1.6
v 2.1 0.3 1.6
v 2.1 0.4 1.6
v 1.7 2 1.5
v 1.7 2.1 1.5
v 2.1 2 1.5
v 2.1 2.1 1.5
v 1.7 2.1 1.4
v 1.7 2.2 1.4
v 2.1 2.1 1.4
v 2.1 2.2 1.4
v 1.7 2.2 1.3
v 1.7 2.3 1.3
v 2.1 2.2 1.3
v 2.1 2.3 1.3
v 1.7 2.3 1.2
v 1.7 2.4 1.2
v 2.1 2.3 1.2
v 2.1 2.4 1.2
v -1.1 0.4 1
v -1.1 0.8 1
v -1 0.8 1
v -0.4 0.7 1
v -0.4 0.8 1
v -0.3 0.7 1
v -0.3 0.8 1
v 0.4 0.7 1
v 0.4 0.8 1
v 0.6 0.7 1
v 0.6 0.8 1
v 1.2 0.7 1
v 1.2 0.8 1
v 1.3 0.7 1
v 1.3 0.8 1
v 1.7 2.4 1
v 1.7 2.5 1
v 2 0.7 1
v 2 0.8 1
v 2.1 0.4 1
v 2.1 0.7 1
v 2.1 0.8 1
v 2.1 2.4 1
v 2.1 2.5 1
v 1.7 2.5 0.9
v 1.7 2.6 0.9
v 2.1 2.5 0.9
v 2.1 2.6 0.9
v 1.7 2.6 0.8
v 1.7 2.7 0.8
v 2.1 2.6 0.8
v 2.1 2.7 0.8
v 1.7 2.7 0.5
v 1.7 2.8 0.5
v 1.8 1.2 0.5
v 1.8 2.7 0.5
v 2 1.2 0.5
v 2 2.7 0.5
v 2.1 2.7 0.5
v 2.1 2.8 0.5
v -1.1 0.8 0.4
v -1.1 1.2 0.4
v -1 1.2 0.4
v -0.4 1.1 0.4
v -0.4 1.2 0.4
v -0.3 1.1 0.4
v -0.3 1.2 0.4
v 0.4 1.1 0.4
v 0.4 1.2 0.4
v 0.6 1.1 0.4
v 0.6 1.2 0.4
v 1.2 1.1 0.4
v 1.2 1.2 0.4
v 1.3 1.1 0.4
v 1.3 1.2 0.4
v 2 1.1 0.4
v 2 1.2 0.4
v 2.1 0.8 0.4
v 2.1 1.1 0.4
v 2.1 1.2 0.4
v 1.7 2.8 0.3
v 1.7 2.9 0.3
v 2.1 2.8 0.3
v 2.1 2.9 0.3
v 1.7 2.9 0.2
v 1.7 3 0.2
v 2.1 2.9 0.2
v 2.1 3 0.2
v 1.7 3 0.0999999
v 1.7 3.1 0.0999999
v 2.1 3 0.0999999
v 2.1 3.1 0.0999999
v 1.7 3.1 0
v 1.7 3.2 0
v 2.1 3.1 0
v 2.1 3.2 0
v -1.1 1.2 -0.2
v -1.1 1.6 -0.2
v -1 1.6 -0.2
v -0.4 1.5 -0.2
v -0.4 1.6 -0.2
v -0.3 1.5 -0.2
v -0.3 1.6 -0.2
v 0.4 1.5 -0.2
v 0.4 1.6 -0.2
v 0.6 1.5 -0.2
v 0.6 1.6 -0.2
v 1.2 1.5 -0.2
v 1.2 1.6 -0.2
v 1.3 1.5 -0.2
v 1.3 1.6 -0.2
v 1.7 3.2 -0.2
v 1.7 3.3 -0.2
v 2 1.5 -0.2
v 2 1.6 -0.2
v 2.1 1.2 -0.2
v 2.1 1.5 -0.2
v 2.1 1.6 -0.2
v 2.1 3.2 -0.2
v 2.1 3.3 -0.2
v 1.7 3.3 -0.3
v 1.7 3.4 -0.3
v 2.1 3.3 -0.3
v 2.1 3.4 -0.3
v 1.7 3.4 -0.4
v 1.7 3.5 -0.4
v 2.1 3.4 -0.4
v 2.1 3.5 -0.4
v 1.7 3.5 -0.7
v 1.7 3.6 -0.7
v 1.8 2 -0.7
v 1.8 3.5 -0.7
v 2 2 -0.7
v 2 3.5 -0.7
v 2.1 3.5 -0.7
v 2.1 3.6 -0.7
v -1.1 1.6 -0.8
v -1.1 2 -0.8
v -1 2 -0.8
v -0.4 1.9 -0.8
v -0.4 2 -0.8
v -0.3 1.9 -0.8
v -0.3 2 -0.8
v 0.4 1.9 -0.8
v 0.4 2 -0.8
v 0.6 1.9 -0.8
v 0.6 2 -0.8
v 1.2 1.9 -0.8
v 1.2 2 -0.8
v 1.3 1.9 -0.8
v 1.3 2 -0.8
v 2 1.9 -0.8
v 2 2 -0.8
v 2.1 1.6 -0.8
v 2.1 1.9 -0.8
v 2.1 2 -0.8
v 1.7 3.6 -0.9
v 1.7 3.7 -0.9
v 2.1 3.6 -0.9
v 2.1 3.7 -0.9
v 1.7 3.7 -1
v 1.7 3.8 -1
v 2.1 3.7 -1
v 2.1 3.8 -1
v 1.7 3.8 -1.1
v 1.7 3.9 -1.1
v 2.1 3.8 -1.1
v 2.1 3.9 -1.1
v 1.7 3.9 -1.2
v 1.7 4 -1.2
v 2.1 3.9 -1.2
v 2.1 4 -1.2
v -1.1 2 -1.4
v -1.1 2.4 -1.4
v -1 2.4 -1.4
v -0.4 2.3 -1.4
v -0.4 2.4 -1.4
v -0.3 2.3 -1.4
v -0.3 2.4 -1.4
v 0.4 2.3 -1.4
v 0.4 2.4 -1.4
v 0.6 2.3 -1.4
v 0.6 2.4 -1.4
v 1.2 2.3 -1.4
v 1.2 2.4 -1.4
v 1.3 2.3 -1.4
v 1.3 2.4 -1.4
v 1.7 4 -1.4
v 1.7 4.1 -1.4
v 2 2.3 -1.4
v 2 2.4 -1.4
v 2.1 2 -1.4
v 2.1 2.3 -1.4
v 2.1 2.4 -1.4
v 2.1 4 -1.4
v 2.1 4.1 -1.4
v 1.7 4.1 -1.5
v 1.7 4.2 -1.5
v 2.1 4.1 -1.5
v 2.1 4.2 -1.5
v 1.7 4.2 -1.6
v 1.7 4.3 -1.6
v 2.1 4.2 -1.6
v 2.1 4.3 -1.6
v 1.8 2.8 -1.9
v 1.8 4.3 -1.9
v 2 2.8 -1.9
v 2 4.3 -1.9
v -1.1 2.4 -2
v -1.1 2.8 -2
v -0.4 2.7 -2
v -0.4 2.8 -2
v -0.3 2.7 -2
v -0.3 2.8 -2
v 0.4 2.7 -2
v 0.4 2.8 -2
v 0.6 2.7 -2
v 0.6 2.8 -2
v 1.2 2.7 -2
v 1.2 2.8 -2
v 1.3 2.7 -2
v 1.3 2.8 -2
v 1.7 4.3 -2
v 1.7 4.5 -2
v 1.8 4.5 -2
v 1.8 4.6 -2
v 2 2.7 -2
v 2 2.8 -2
v 2 4.5 -2
v 2 4.6 -2
v 2.1 2.4 -2
v 2.1 2.7 -2
v 2.1 2.8 -2
v 2.1 4.3 -2
v 2.1 4.5 -2
v -1.1 0 2.2
v -1 0 2.2
v -0.4 0 2.2
v -0.3 0 2.2
v 0.4 0 2.2
v 0.6 0 2.2
v 1.2 0 2.2
v 1.3 0 2.2
v 2 0 2.2
v 2.1 0 2.2
v -1.1 0 2.1
v -1 0 2.1
v -0.4 0 2.1
v -0.3 0 2.1
v 0.4 0 2.1
v 0.6 0 2.1
v 1.2 0 2.1
v 1.3 0 2.1
v 2 0 2.1
v 2.1 0 2.1
v -1.1 0 1.6
v 2.1 0 1.6
v -1.1 0.4 1.6
v -1 0.4 1.6
v -0.4 0.4 1.6
v -0.3 0.4 1.6
v 0.4 0.4 1.6
v 0.6 0.4 1.6
v 1.2 0.4 1.6
v 1.3 0.4 1.6
v 2 0.4 1.6
v 2.1 0.4 1.6
v -1.1 0.4 1.5
v -1 0.4 1.5
v -0.4 0.4 1.5
v -0.3 0.4 1.5
v 0.4 0.4 1.5
v 0.6 0.4 1.5
v 1.2 0.4 1.5
v 1.3 0.4 1.5
v 2 0.4 1.5
v 2.1 0.4 1.5
v -1.1 0.4 1
v 2.1 0.4 1
v -1.1 0.8 1
v -1 0.8 1
v -0.4 0.8 1
v -0.3 0.8 1
v 0.4 0.8 1
v 0.6 0.8 1
v 1.2 0.8 1
v 1.3 0.8 1
v 2 0.8 1
v 2.1 0.8 1
v -1.1 0.8 0.9
v -1 0.8 0.9
v -0.4 0.8 0.9
v -0.3 0.8 0.9
v 0.4 0.8 0.9
v 0.6 0.8 0.9
v 1.2 0.8 0.9
v 1.3 0.8 0.9
v 2 0.8 0.9
v 2.1 0.8 0.9
v -1.1 0.8 0.4
v 2.1 0.8 0.4
v -1.1 1.2 0.4
v -1 1.2 0.4
v -0.4 1.2 0.4
v -0.3 1.2 0.4
v 0.4 1.2 0.4
v 0.6 1.2 0.4
v 1.2 1.2 0.4
v 1.3 1.2 0.4
v 2 1.2 0.4
v 2.1 1.2 0.4
v -1.1 1.2 0.3
v -1 1.2 0.3
v -0.4 1.2 0.3
v -0.3 1.2 0.3
v 0.4 1.2 0.3
v 0.6 1.2 0.3
v 1.2 1.2 0.3
v 1.3 1.2 0.3
v 2 1.2 0.3
v 2.1 1.2 0.3
v -1.1 1.2 -0.2
v 2.1 1.2 -0.2
v -1.1 1.6 -0.2
v -1 1.6 -0.2
v -0.4 1.6 -0.2
v -0.3 1.6 -0.2
v 0.4 1.6 -0.2
v 0.6 1.6 -0.2
v 1.2 1.6 -0.2
v 1.3 1.6 -0.2
v 2 1.6 -0.2
v 2.1 1.6 -0.2
v -1.1 1.6 -0.3
v -1 1.6 -0.3
v -0.4 1.6 -0.3
v -0.3 1.6 -0.3
v 0.4 1.6 -0.3
v 0.6 1.6 -0.3
v 1.2 1.6 -0.3
v 1.3 1.6 -0.3
v 2 1.6 -0.3
v 2.1 1.6 -0.3
v -1.1 1.6 -0.8
v 2.1 1.6 -0.8
v 1.7 2 2
v 2.1 2 2
v 1.8 2 1.9
v 2 2 1.9
v 1.8 2 1.7
v 2 2 1.7
v 1.7 2 1.5
v 2.1 2 1.5
v -1.1 2 -0.8
v -1 2 -0.8
v -0.4 2 -0.8
v -0.3 2 -0.8
v 0.4 2 -0.8
v 0.6 2 -0.8
v 1.2 2 -0.8
v 1.3 2 -0.8
v 2 2 -0.8
v 2.1 2 -0.8
v -1.1 2 -0.9
v -1 2 -0.9
v -0.4 2 -0.9
v -0.3 2 -0.9
v 0.4 2 -0.9
v 0.6 2 -0.9
v 1.2 2 -0.9
v 1.3 2 -0.9
v 2 2 -0.9
v 2.1 2 -0.9
v -1.1 2 -1.4
v 2.1 2 -1.4
v 1.7 2.1 1.5
v 2.1 2.1 1.5
v 1.7 2.1 1.4
v 2.1 2.1 1.4
v 1.7 2.2 1.4
v 2.1 2.2 1.4
v 1.7 2.2 1.3
v 2.1 2.2 1.3
v 1.7 2.3 1.3
v 2.1 2.3 1.3
v 1.7 2.3 1.2
v 2.1 2.3 1.2
v 1.7 2.4 1.2
v 2.1 2.4 1.2
v 1.7 2.4 1
v 2.1 2.4 1
v -1.1 2.4 -1.4
v -1 2.4 -1.4
v -0.4 2.4 -1.4
v -0.3 2.4 -1.4
v 0.4 2.4 -1.4
v 0.6 2.4 -1.4
v 1.2 2.4 -1.4
v 1.3 2.4 -1.4
v 2 2.4 -1.4
v 2.1 2.4 -1.4
v -1.1 2.4 -1.5
v -1 2.4 -1.5
v -0.4 2.4 -1.5
v -0.3 2.4 -1.5
v 0.4 2.4 -1.5
v 0.6 2.4 -1.5
v 1.2 2.4 -1.5
v 1.3 2.4 -1.5
v 2 2.4 -1.5
v 2.1 2.4 -1.5
v -1.1 2.4 -2
v 2.1 2.4 -2
v 1.7 2.5 1
v 2.1 2.5 1
v 1.7 2.5 0.9
v 2.1 2.5 0.9
v 1.7 2.6 0.9
v 2.1 2.6 0.9
v 1.7 2.6 0.8
v 2.1 2.6 0.8
v 1.7 2.7 0.8
v 2.1 2.7 0.8
v 1.8 2.7 0.7
v 2 2.7 0.7
v 1.7 2.7 0.5
v 1.8 2.7 0.5
v 2 2.7 0.5
v 2.1 2.7 0.5
v 1.7 2.8 0.5
v 2.1 2.8 0.5
v 1.7 2.8 0.3
v 2.1 2.8 0.3
v 1.7 2.9 0.3
v 2.1 2.9 0.3
v 1.7 2.9 0.2
v 2.1 2.9 0.2
v 1.7 3 0.2
v 2.1 3 0.2
v 1.7 3 0.0999999
v 2.1 3 0.0999999
v 1.7 3.1 0.0999999
v 2.1 3.1 0.0999999
v 1.7 3.1 0
v 2.1 3.1 0
v 1.7 3.2 0
v 2.1 3.2 0
v 1.7 3.2 -0.2
v 2.1 3.2 -0.2
v 1.7 3.3 -0.2
v 2.1 3.3 -0.2
v 1.7 3.3 -0.3
v 2.1 3.3 -0.3
v 1.7 3.4 -0.3
v 2.1 3.4 -0.3
v 1.7 3.4 -0.4
v 2.1 3.4 -0.4
v 1.7 3.5 -0.4
v 2.1 3.5 -0.4
v 1.8 3.5 -0.5
v 2 3.5 -0.5
v 1.7 3.5 -0.7
v 1.8 3.5 -0.7
v 2 3.5 -0.7
v 2.1 3.5 -0.7
v 1.7 3.6 -0.7
v 2.1 3.6 -0.7
v 1.7 3.6 -0.9
v 2.1 3.6 -0.9
v 1.7 3.7 -0.9
v 2.1 3.7 -0.9
v 1.7 3.7 -1
v 2.1 3.7 -1
v 1.7 3.8 -1
v 2.1 3.8 -1
v 1.7 3.8 -1.1
v 2.1 3.8 -1.1
v 1.7 3.9 -1.1
v 2.1 3.9 -1.1
v 1.7 3.9 -1.2
v 2.1 3.9 -1.2
v 1.7 4 -1.2
v 2.1 4 -1.2
v 1.7 4 -1.4
v 2.1 4 -1.4
v 1.7 4.1 -1.4
v 2.1 4.1 -1.4
v 1.7 4.1 -1.5
v 2.1 4.1 -1.5
v 1.7 4.2 -1.5
v 2.1 4.2 -1.5
v 1.7 4.2 -1.6
v 2.1 4.2 -1.6
v 1.7 4.3 -1.6
v 2.1 4.3 -1.6
v 1.8 4.3 -1.7
v 2 4.3 -1.7
v 1.8 4.3 -1.9
v 2 4.3 -1.9
v 1.7 4.3 -2
v 2.1 4.3 -2
v -1.1 0.3 2.2
v 2.1 0.3 2.2
v -1.1 0.3 2.1
v 2.1 0.3 2.1
v -1.1 0.4 2.1
v 2.1 0.4 2.1
v -1.1 0.4 2
v -0.4 0.4 2
v -0.3 0.4 2
v 0.4 0.4 2
v 0.6 0.4 2
v 1.2 0.4 2
v 1.3 0.4 2
v 2 0.4 2
v 2.1 0.4 2
v 1.8 0.4 1.9
v 2 0.4 1.9
v 1.8 0.4 1.7
v 2 0.4 1.7
v -1.1 0.4 1.6
v -1 0.4 1.6
v -0.4 0.4 1.6
v -0.3 0.4 1.6
v 0.4 0.4 1.6
v 0.6 0.4 1.6
v 1.2 0.4 1.6
v 1.3 0.4 1.6
v 2 0.4 1.6
v 2.1 0.4 1.6
v -1.1 0.7 1.6
v 2.1 0.7 1.6
v -1.1 0.7 1.5
v 2.1 0.7 1.5
v -1.1 0.8 1.5
v 2.1 0.8 1.5
v -1.1 0.8 1.4
v -0.4 0.8 1.4
v -0.3 0.8 1.4
v 0.4 0.8 1.4
v 0.6 0.8 1.4
v 1.2 0.8 1.4
v 1.3 0.8 1.4
v 2 0.8 1.4
v 2.1 0.8 1.4
v -1.1 0.8 1
v -1 0.8 1
v -0.4 0.8 1
v -0.3 0.8 1
v 0.4 0.8 1
v 0.6 0.8 1
v 1.2 0.8 1
v 1.3 0.8 1
v 2 0.8 1
v 2.1 0.8 1
v -1.1 1.1 1
v 2.1 1.1 1
v -1.1 1.1 0.9
v 2.1 1.1 0.9
v -1.1 1.2 0.9
v 2.1 1.2 0.9
v -1.1 1.2 0.8
v -1 1.2 0.8
v -0.4 1.2 0.8
v -0.3 1.2 0.8
v 0.4 1.2 0.8
v 0.6 1.2 0.8
v 1.2 1.2 0.8
v 1.3 1.2 0.8
v 2 1.2 0.8
v 2.1 1.2 0.8
v 1.8 1.2 0.7
v 2 1.2 0.7
v -1.1 1.2 0.5
v -1 1.2 0.5
v 1.8 1.2 0.5
v 2 1.2 0.5
v -1.1 1.2 0.4
v -1 1.2 0.4
v -0.4 1.2 0.4
v -0.3 1.2 0.4
v 0.4 1.2 0.4
v 0.6 1.2 0.4
v 1.2 1.2 0.4
v 1.3 1.2 0.4
v 2 1.2 0.4
v 2.1 1.2 0.4
v -1.1 1.5 0.4
v 2.1 1.5 0.4
v -1.1 1.5 0.3
v 2.1 1.5 0.3
v -1.1 1.6 0.3
v 2.1 1.6 0.3
v -1.1 1.6 0.2
v -0.4 1.6 0.2
v -0.3 1.6 0.2
v 0.4 1.6 0.2
v 0.6 1.6 0.2
v 1.2 1.6 0.2
v 1.3 1.6 0.2
v 2 1.6 0.2
v 2.1 1.6 0.2
v -1.1 1.6 -0.2
v -1 1.6 -0.2
v -0.4 1.6 -0.2
v -0.3 1.6 -0.2
v 0.4 1.6 -0.2
v 0.6 1.6 -0.2
v 1.2 1.6 -0.2
v 1.3 1.6 -0.2
v 2 1.6 -0.2
v 2.1 1.6 -0.2
v -1.1 1.9 -0.2
v 2.1 1.9 -0.2
v -1.1 1.9 -0.3
v 2.1 1.9 -0.3
v -1.1 2 -0.3
v 2.1 2 -0.3
v -1.1 2 -0.4
v -0.4 2 -0.4
v -0.3 2 -0.4
v 0.4 2 -0.4
v 0.6 2 -0.4
v 1.2 2 -0.4
v 1.3 2 -0.4
v 2 2 -0.4
v 2.1 2 -0.4
v 1.8 2 -0.5
v 2 2 -0.5
v 1.8 2 -0.7
v 2 2 -0.7
v -1.1 2 -0.8
v -1 2 -0.8
v -0.4 2 -0.8
v -0.3 2 -0.8
v 0.4 2 -0.8
v 0.6 2 -0.8
v 1.2 2 -0.8
v 1.3 2 -0.8
v 2 2 -0.8
v 2.1 2 -0.8
v 1.7 2.1 2
v 1.8 2.1 2
v 2 2.1 2
v 2.1 2.1 2
v 1.7 2.1 1.6
v 1.8 2.1 1.6
v 2 2.1 1.6
v 2.1 2.1 1.6
v 1.8 2.2 2
v 2 2.2 2
v 1.7 2.2 1.6
v 1.8 2.2 1.6
v 2 2.2 1.6
v 2.1 2.2 1.6
v 1.7 2.2 1.5
v 1.8 2.2 1.5
v 2 2.2 1.5
v 2.1 2.2 1.5
v 1.8 2.3 1.6
v 2 2.3 1.6
v 1.7 2.3 1.5
v 1.8 2.3 1.5
v 2 2.3 1.5
v 2.1 2.3 1.5
v 1.7 2.3 1.4
v 1.8 2.3 1.4
v 2 2.3 1.4
v 2.1 2.3 1.4
v -1.1 2.3 -0.8
v 2.1 2.3 -0.8
v -1.1 2.3 -0.9
v 2.1 2.3 -0.9
v 1.8 2.4 1.5
v 2 2.4 1.5
v 1.7 2.4 1.4
v 1.8 2.4 1.4
v 2 2.4 1.4
v 2.1 2.4 1.4
v 1.7 2.4 1.3
v 1.8 2.4 1.3
v 2 2.4 1.3
v 2.1 2.4 1.3
v -1.1 2.4 -0.9
v 2.1 2.4 -0.9
v -1.1 2.4 -1
v -0.4 2.4 -1
v -0.3 2.4 -1
v 0.4 2.4 -1
v 0.6 2.4 -1
v 1.2 2.4 -1
v 1.3 2.4 -1
v 2 2.4 -1
v 2.1 2.4 -1
v -1.1 2.4 -1.4
v -1 2.4 -1.4
v -0.4 2.4 -1.4
v -0.3 2.4 -1.4
v 0.4 2.4 -1.4
v 0.6 2.4 -1.4
v 1.2 2.4 -1.4
v 1.3 2.4 -1.4
v 2 2.4 -1.4
v 2.1 2.4 -1.4
v 1.8 2.5 1.4
v 2 2.5 1.4
v 1.7 2.5 1.3
v 1.8 2.5 1.3
v 2 2.5 1.3
v 2.1 2.5 1.3
v 1.7 2.5 1.1
v 1.8 2.5 1.1
v 2 2.5 1.1
v 2.1 2.5 1.1
v 1.8 2.6 1.3
v 2 2.6 1.3
v 1.7 2.6 1.1
v 1.8 2.6 1.1
v 2 2.6 1.1
v 2.1 2.6 1.1
v 1.7 2.6 1
v 1.8 2.6 1
v 2 2.6 1
v 2.1 2.6 1
v 1.8 2.7 1.1
v 2 2.7 1.1
v 1.7 2.7 1
v 1.8 2.7 1
v 2 2.7 1
v 2.1 2.7 1
v 1.7 2.7 0.9
v 1.8 2.7 0.9
v 2 2.7 0.9
v 2.1 2.7 0.9
v -1.1 2.7 -1.4
v 2.1 2.7 -1.4
v -1.1 2.7 -1.5
v 2.1 2.7 -1.5
v 1.8 2.8 1
v 2 2.8 1
v 1.7 2.8 0.9
v 1.8 2.8 0.9
v 2 2.8 0.9
v 2.1 2.8 0.9
v 1.7 2.8 0.8
v 1.8 2.8 0.8
v 2 2.8 0.8
v 2.1 2.8 0.8
v -1.1 2.8 -1.5
v 2.1 2.8 -1.5
v -1.1 2.8 -1.6
v -0.4 2.8 -1.6
v -0.3 2.8 -1.6
v 0.4 2.8 -1.6
v 0.6 2.8 -1.6
v 1.2 2.8 -1.6
v 1.3 2.8 -1.6
v 2 2.8 -1.6
v 2.1 2.8 -1.6
v 1.8 2.8 -1.7
v 2 2.8 -1.7
v 1.8 2.8 -1.9
v 2 2.8 -1.9
v -1.1 2.8 -2
v -0.4 2.8 -2
v -0.3 2.8 -2
v 0.4 2.8 -2
v 0.6 2.8 -2
v 1.2 2.8 -2
v 1.3 2.8 -2
v 2 2.8 -2
v 2.1 2.8 -2
v 1.8 2.9 0.9
v 2 2.9 0.9
v 1.7 2.9 0.8
v 1.8 2.9 0.8
v 2 2.9 0.8
v 2.1 2.9 0.8
v 1.7 2.9 0.4
v 1.8 2.9 0.4
v 2 2.9 0.4
v 2.1 2.9 0.4
v 1.8 3 0.8
v 2 3 0.8
v 1.7 3 0.4
v 1.8 3 0.4
v 2 3 0.4
v 2.1 3 0.4
v 1.7 3 0.3
v 1.8 3 0.3
v 2 3 0.3
v 2.1 3 0.3
v 1.8 3.1 0.4
v 2 3.1 0.4
v 1.7 3.1 0.3
v 1.8 3.1 0.3
v 2 3.1 0.3
v 2.1 3.1 0.3
v 1.7 3.1 0.2
v 1.8 3.1 0.2
v 2 3.1 0.2
v 2.1 3.1 0.2
v 1.8 3.2 0.3
v 2 3.2 0.3
v 1.7 3.2 0.2
v 1.8 3.2 0.2
v 2 3.2 0.2
v 2.1 3.2 0.2
v 1.7 3.2 0.0999999
v 1.8 3.2 0.0999999
v 2 3.2 0.0999999
v 2.1 3.2 0.0999999
v 1.8 3.3 0.2
v 2 3.3 0.2
v 1.7 3.3 0.0999999
v 1.8 3.3 0.0999999
v 2 3.3 0.0999999
v 2.1 3.3 0.0999999
v 1.7 3.3 -0.1
v 1.8 3.3 -0.1
v 2 3.3 -0.1
v 2.1 3.3 -0.1
v 1.8 3.4 0.0999999
v 2 3.4 0.0999999
v 1.7 3.4 -0.1
v 1.8 3.4 -0.1
v 2 3.4 -0.1
v 2.1 3.4 -0.1
v 1.7 3.4 -0.2
v 1.8 3.4 -0.2
v 2 3.4 -0.2
v 2.1 3.4 -0.2
v 1.8 3.5 -0.1
v 2 3.5 -0.1
v 1.7 3.5 -0.2
v 1.8 3.5 -0.2
v 2 3.5 -0.2
v 2.1 3.5 -0.2
v 1.7 3.5 -0.3
v 1.8 3.5 -0.3
v 2 3.5 -0.3
v 2.1 3.5 -0.3
v 1.8 3.6 -0.2
v 2 3.6 -0.2
v 1.7 3.6 -0.3
v 1.8 3.6 -0.3
v 2 3.6 -0.3
v 2.1 3.6 -0.3
v 1.7 3.6 -0.4
v 1.8 3.6 -0.4
v 2 3.6 -0.4
v 2.1 3.6 -0.4
v 1.8 3.7 -0.3
v 2 3.7 -0.3
v 1.7 3.7 -0.4
v 1.8 3.7 -0.4
v 2 3.7 -0.4
v 2.1 3.7 -0.4
v 1.7 3.7 -0.8
v 1.8 3.7 -0.8
v 2 3.7 -0.8
v 2.1 3.7 -0.8
v 1.8 3.8 -0.4
v 2 3.8 -0.4
v 1.7 3.8 -0.8
v 1.8 3.8 -0.8
v 2 3.8 -0.8
v 2.1 3.8 -0.8
v 1.7 3.8 -0.9
v 1.8 3.8 -0.9
v 2 3.8 -0.9
v 2.1 3.8 -0.9
v 1.8 3.9 -0.8
v 2 3.9 -0.8
v 1.7 3.9 -0.9
v 1.8 3.9 -0.9
v 2 3.9 -0.9
v 2.1 3.9 -0.9
v 1.7 3.9 -1
v 1.8 3.9 -1
v 2 3.9 -1
v 2.1 3.9 -1
v 1.8 4 -0.9
v 2 4 -0.9
v 1.7 4 -1
v 1.8 4 -1
v 2 4 -1
v 2.1 4 -1
v 1.7 4 -1.1
v 1.8 4 -1.1
v 2 4 -1.1
v 2.1 4 -1.1
v 1.8 4.1 -1
v 2 4.1 -1
v 1.7 4.1 -1.1
v 1.8 4.1 -1.1
v 2 4.1 -1.1
v 2.1 4.1 -1.1
v 1.7 4.1 -1.3
v 1.8 4.1 -1.3
v 2 4.1 -1.3
v 2.1 4.1 -1.3
v 1.8 4.2 -1.1
v 2 4.2 -1.1
v 1.7 4.2 -1.3
v 1.8 4.2 -1.3
v 2 4.2 -1.3
v 2.1 4.2 -1.3
v 1.7 4.2 -1.4
v 1.8 4.2 -1.4
v 2 4.2 -1.4
v 2.1 4.2 -1.4
v 1.8 4.3 -1.3
v 2 4.3 -1.3
v 1.7 4.3 -1.4
v 1.8 4.3 -1.4
v 2 4.3 -1.4
v 2.1 4.3 -1.4
v 1.7 4.3 -1.5
v 1.8 4.3 -1.5
v 2 4.3 -1.5
v 2.1 4.3 -1.5
v 1.8 4.4 -1.4
v 2 4.4 -1.4
v 1.7 4.4 -1.5
v 1.8 4.4 -1.5
v 2 4.4 -1.5
v 2.1 4.4 -1.5
v 1.7 4.4 -1.6
v 1.8 4.4 -1.6
v 2 4.4 -1.6
v 2.1 4.4 -1.6
v 1.8 4.5 -1.5
v 2 4.5 -1.5
v 1.7 4.5 -1.6
v 1.8 4.5 -1.6
v 2 4.5 -1.6
v 2.1 4.5 -1.6
v 1.7 4.5 -2
v 1.8 4.5 -2
v 2 4.5 -2
v 2.1 4.5 -2
v 1.8 4.6 -1.6
v 2 4.6 -1.6
v 1.8 4.6 -2
v 2 4.6 -2

# faces
f 4/1/1 2/1/1 1/1/1
f 5/4/1 3/4/1 2/4/1
f 5/1/1 2/1/1 4/1/1
f 6/3/1 5/3/1 4/3/1
f 7/4/1 3/4/1 5/4/1
f 7/3/1 5/3/1 6/3/1
f 8/4/1 3/4/1 7/4/1
f 9/3/1 8/3/1 7/3/1
f 10/4/1 3/4/1 8/4/1
f 10/3/1 8/3/1 9/3/1
f 11/4/1 3/4/1 10/4/1
f 14/1/1 12/1/1 11/1/1
f 15/4/1 13/4/1 12/4/1
f 15/1/1 12/1/1 14/1/1
f 16/3/1 15/3/1 14/3/1
f 17/4/1 13/4/1 15/4/1
f 17/3/1 15/3/1 16/3/1
f 18/4/1 13/4/1 17/4/1
f 19/3/1 18/3/1 17/3/1
f 20/4/1 13/4/1 18/4/1
f 20/3/1 18/3/1 19/3/1
f 21/4/1 13/4/1 20/4/1
f 24/1/1 22/1/1 21/1/1
f 25/4/1 23/4/1 22/4/1
f 25/1/1 22/1/1 24/1/1
f 26/3/1 25/3/1 24/3/1
f 27/4/1 23/4/1 25/4/1
f 27/3/1 25/3/1 26/3/1
f 28/4/1 23/4/1 27/4/1
f 29/4/1 23/4/1 28/4/1
f 30/3/1 28/3/1 27/3/1
f 31/1/1 29/1/1 28/1/1
f 31/3/1 28/3/1 30/3/1
f 32/4/1 23/4/1 29/4/1
f 32/1/1 29/1/1 31/1/1
f 33/4/1 23/4/1 32/4/1
f 36/1/1 34/1/1 33/1/1
f 37/4/1 35/4/1 34/4/1
f 37/1/1 34/1/1 36/1/1
f 38/3/1 37/3/1 36/3/1
f 39/4/1 35/4/1 37/4/1
f 39/3/1 37/3/1 38/3/1
f 40/4/1 35/4/1 39/4/1
f 41/3/1 40/3/1 39/3/1
f 42/4/1 35/4/1 40/4/1
f 42/3/1 40/3/1 41/3/1
f 43/4/1 35/4/1 42/4/1
f 46/1/1 44/1/1 43/1/1
f 47/4/1 45/4/1 44/4/1
f 47/1/1 44/1/1 46/1/1
f 48/3/1 47/3/1 46/3/1
f 49/4/1 45/4/1 47/4/1
f 49/3/1 47/3/1 48/3/1
f 50/4/1 45/4/1 49/4/1
f 51/3/1 50/3/1 49/3/1
f 52/4/1 45/4/1 50/4/1
f 52/3/1 50/3/1 51/3/1
f 53/4/1 45/4/1 52/4/1
f 56/1/1 54/1/1 53/1/1
f 57/4/1 55/4/1 54/4/1
f 57/1/1 54/1/1 56/1/1
f 58/3/1 57/3/1 56/3/1
f 59/4/1 55/4/1 57/4/1
f 59/3/1 57/3/1 58/3/1
f 60/4/1 55/4/1 59/4/1
f 61/3/1 60/3/1 59/3/1
f 62/4/1 55/4/1 60/4/1
f 62/3/1 60/3/1 61/3/1
f 63/4/1 55/4/1 62/4/1
f 66/1/1 64/1/1 63/1/1
f 67/4/1 65/4/1 64/4/1
f 67/1/1 64/1/1 66/1/1
f 68/3/1 67/3/1 66/3/1
f 69/4/1 65/4/1 67/4/1
f 69/3/1 67/3/1 68/3/1
f 70/4/1 65/4/1 69/4/1
f 71/3/1 70/3/1 69/3/1
f 72/4/1 65/4/1 70/4/1
f 72/3/1 70/3/1 71/3/1
f 73/4/1 65/4/1 72/4/1
f 76/2/1 75/2/1 74/2/1
f 77/2/1 75/2/1 76/2/1
f 78/2/1 75/2/1 77/2/1
f 80/2/1 79/2/1 78/2/1
f 80/2/1 78/2/1 77/2/1
f 81/2/1 79/2/1 80/2/1
f 82/2/1 79/2/1 81/2/1
f 84/2/1 83/2/1 82/2/1
f 84/2/1 82/2/1 81/2/1
f 85/2/1 83/2/1 84/2/1
f 86/2/1 83/2/1 85/2/1
f 88/2/1 87/2/1 86/2/1
f 88/2/1 86/2/1 85/2/1
f 89/2/1 87/2/1 88/2/1
f 90/2/1 87/2/1 89/2/1
f 92/2/1 91/2/1 90/2/1
f 92/2/1 90/2/1 89/2/1
f 93/2/1 91/2/1 92/2/1
f 94/2/1 91/2/1 93/2/1
f 96/2/1 95/2/1 94/2/1
f 96/2/1 94/2/1 93/2/1
f 97/2/1 95/2/1 96/2/1
f 98/2/1 95/2/1 97/2/1
f 100/2/1 99/2/1 98/2/1
f 100/2/1 98/2/1 97/2/1
f 101/2/1 99/2/1 100/2/1
f 102/2/1 99/2/1 101/2/1
f 104/2/1 103/2/1 102/2/1
f 104/2/1 102/2/1 101/2/1
f 105/2/1 103/2/1 104/2/1
f 106/2/1 103/2/1 105/2/1
f 108/2/1 107/2/1 106/2/1
f 108/2/1 106/2/1 105/2/1
f 109/2/1 107/2/1 108/2/1
f 110/2/1 107/2/1 109/2/1
f 112/2/1 111/2/1 110/2/1
f 112/2/1 110/2/1 109/2/1
f 113/2/1 111/2/1 112/2/1
f 114/2/1 111/2/1 113/2/1
f 116/2/1 115/2/1 114/2/1
f 116/2/1 114/2/1 113/2/1
f 117/2/1 115/2/1 116/2/1
f 118/2/1 115/2/1 117/2/1
f 120/2/1 119/2/1 118/2/1
f 120/2/1 118/2/1 117/2/1
f 121/2/1 119/2/1 120/2/1
f 122/2/1 119/2/1 121/2/1
f 124/2/1 123/2/1 122/2/1
f 124/2/1 122/2/1 121/2/1
f 125/2/1 123/2/1 124/2/1
f 126/2/1 123/2/1 125/2/1
f 128/2/1 127/2/1 126/2/1
f 128/2/1 126/2/1 125/2/1
f 129/2/1 127/2/1 128/2/1
f 130/2/1 127/2/1 129/2/1
f 132/2/1 131/2/1 130/2/1
f 132/2/1 130/2/1 129/2/1
f 133/2/1 131/2/1 132/2/1
f 134/2/1 131/2/1 133/2/1
f 136/2/1 135/2/1 134/2/1
f 136/2/1 134/2/1 133/2/1
f 137/2/1 135/2/1 136/2/1
f 138/2/1 135/2/1 137/2/1
f 140/2/1 139/2/1 138/2/1
f 140/2/1 138/2/1 137/2/1
f 141/2/1 139/2/1 140/2/1
f 142/2/1 139/2/1 141/2/1
f 144/2/1 143/2/1 142/2/1
f 144/2/1 142/2/1 141/2/1
f 145/2/1 143/2/1 144/2/1
f 146/2/1 143/2/1 145/2/1
f 148/2/1 147/2/1 146/2/1
f 148/2/1 146/2/1 145/2/1
f 149/2/1 147/2/1 148/2/1
f 150/2/1 147/2/1 149/2/1
f 152/2/1 151/2/1 150/2/1
f 152/2/1 150/2/1 149/2/1
f 153/2/1 151/2/1 152/2/1
f 154/2/1 151/2/1 153/2/1
f 156/2/1 155/2/1 154/2/1
f 156/2/1 154/2/1 153/2/1
f 157/2/1 155/2/1 156/2/1
f 158/2/1 155/2/1 157/2/1
f 160/2/1 159/2/1 158/2/1
f 160/2/1 158/2/1 157/2/1
f 161/2/1 159/2/1 160/2/1
f 162/2/1 159/2/1 161/2/1
f 164/2/1 163/2/1 162/2/1
f 164/2/1 162/2/1 161/2/1
f 165/2/1 163/2/1 164/2/1
f 166/2/1 163/2/1 165/2/1
f 168/2/1 167/2/1 166/2/1
f 168/2/1 166/2/1 165/2/1
f 169/2/1 167/2/1 168/2/1
f 170/2/1 167/2/1 169/2/1
f 171/2/1 167/2/1 170/2/1
f 176/2/1 173/2/1 172/2/1
f 177/2/1 173/2/1 176/2/1
f 182/2/1 181/2/1 180/2/1
f 183/2/1 181/2/1 182/2/1
f 185/2/1 184/2/1 183/2/1
f 186/2/1 184/2/1 185/2/1
f 188/2/1 187/2/1 186/2/1
f 189/2/1 187/2/1 188/2/1
f 191/2/1 190/2/1 189/2/1
f 192/2/1 190/2/1 191/2/1
f 194/2/1 193/2/1 192/2/1
f 195/2/1 193/2/1 194/2/1
f 197/2/1 196/2/1 195/2/1
f 198/2/1 196/2/1 197/2/1
f 200/2/1 175/2/1 174/2/1
f 201/2/1 175/2/1 200/2/1
f 202/2/1 199/2/1 198/2/1
f 203/2/1 199/2/1 202/2/1
f 207/2/1 204/2/1 203/2/1
f 208/2/1 204/2/1 207/2/1
f 210/2/1 209/2/1 208/2/1
f 211/2/1 209/2/1 210/2/1
f 213/2/1 212/2/1 211/2/1
f 214/2/1 212/2/1 213/2/1
f 216/2/1 215/2/1 214/2/1
f 217/2/1 215/2/1 216/2/1
f 219/2/1 218/2/1 217/2/1
f 220/2/1 218/2/1 219/2/1
f 222/2/1 221/2/1 220/2/1
f 223/2/1 221/2/1 222/2/1
f 225/2/1 224/2/1 223/2/1
f 226/2/1 224/2/1 225/2/1
f 228/2/1 179/2/1 178/2/1
f 229/2/1 179/2/1 228/2/1
f 230/2/1 227/2/1 226/2/1
f 231/2/1 227/2/1 230/2/1
f 233/2/1 232/2/1 231/2/1
f 234/2/1 232/2/1 233/2/1
f 236/2/1 235/2/1 234/2/1
f 237/2/1 235/2/1 236/2/1
f 239/2/1 238/2/1 237/2/1
f 240/2/1 238/2/1 239/2/1
f 242/2/1 241/2/1 240/2/1
f 243/2/1 241/2/1 242/2/1
f 245/2/1 244/2/1 243/2/1
f 246/2/1 244/2/1 245/2/1
f 248/2/1 247/2/1 246/2/1
f 249/2/1 247/2/1 248/2/1
f 251/2/1 250/2/1 249/2/1
f 252/2/1 250/2/1 251/2/1
f 254/2/1 206/2/1 205/2/1
f 255/2/1 206/2/1 254/2/1
f 256/2/1 253/2/1 252/2/1
f 257/2/1 253/2/1 256/2/1
f 259/2/1 258/2/1 257/2/1
f 260/2/1 258/2/1 259/2/1
f 262/2/1 261/2/1 260/2/1
f 263/2/1 261/2/1 262/2/1
f 264/2/2 265/2/2 268/2/2
f 268/2/2 265/2/2 269/2/2
f 272/2/2 273/2/2 274/2/2
f 274/2/2 273/2/2 275/2/2
f 275/2/2 276/2/2 277/2/2
f 277/2/2 276/2/2 278/2/2
f 278/2/2 279/2/2 280/2/2
f 280/2/2 279/2/2 281/2/2
f 281/2/2 282/2/2 283/2/2
f 283/2/2 282/2/2 284/2/2
f 284/2/2 285/2/2 286/2/2
f 286/2/2 285/2/2 287/2/2
f 287/2/2 288/2/2 289/2/2
f 289/2/2 288/2/2 290/2/2
f 266/2/2 267/2/2 292/2/2
f 292/2/2 267/2/2 293/2/2
f 290/2/2 291/2/2 294/2/2
f 294/2/2 291/2/2 295/2/2
f 295/2/2 296/2/2 299/2/2
f 299/2/2 296/2/2 300/2/2
f 300/2/2 301/2/2 302/2/2
f 302/2/2 301/2/2 303/2/2
f 303/2/2 304/2/2 305/2/2
f 305/2/2 304/2/2 306/2/2
f 306/2/2 307/2/2 308/2/2
f 308/2/2 307/2/2 309/2/2
f 309/2/2 310/2/2 311/2/2
f 311/2/2 310/2/2 312/2/2
f 312/2/2 313/2/2 314/2/2
f 314/2/2 313/2/2 315/2/2
f 315/2/2 316/2/2 317/2/2
f 317/2/2 316/2/2 318/2/2
f 270/2/2 271/2/2 320/2/2
f 320/2/2 271/2/2 321/2/2
f 318/2/2 319/2/2 322/2/2
f 322/2/2 319/2/2 323/2/2
f 323/2/2 324/2/2 325/2/2
f 325/2/2 324/2/2 326/2/2
f 326/2/2 327/2/2 328/2/2
f 328/2/2 327/2/2 329/2/2
f 329/2/2 330/2/2 331/2/2
f 331/2/2 330/2/2 332/2/2
f 332/2/2 333/2/2 334/2/2
f 334/2/2 333/2/2 335/2/2
f 335/2/2 336/2/2 337/2/2
f 337/2/2 336/2/2 338/2/2
f 338/2/2 339/2/2 340/2/2
f 340/2/2 339/2/2 341/2/2
f 341/2/2 342/2/2 343/2/2
f 343/2/2 342/2/2 344/2/2
f 297/2/2 298/2/2 346/2/2
f 346/2/2 298/2/2 347/2/2
f 344/2/2 345/2/2 348/2/2
f 348/2/2 345/2/2 349/2/2
f 349/2/2 350/2/2 351/2/2
f 351/2/2 350/2/2 352/2/2
f 352/2/2 353/2/2 354/2/2
f 354/2/2 353/2/2 355/2/2
f 356/1/2 357/1/2 359/1/2
f 357/4/2 358/4/2 360/4/2
f 359/1/2 357/1/2 360/1/2
f 359/3/2 360/3/2 361/3/2
f 360/4/2 358/4/2 362/4/2
f 361/3/2 360/3/2 362/3/2
f 362/4/2 358/4/2 363/4/2
f 363/4/2 358/4/2 364/4/2
f 362/3/2 363/3/2 365/3/2
f 363/1/2 364/1/2 366/1/2
f 365/3/2 363/3/2 366/3/2
f 366/1/2 364/1/2 367/1/2
f 367/1/2 368/1/2 370/1/2
f 368/4/2 369/4/2 371/4/2
f 370/1/2 368/1/2 371/1/2
f 370/3/2 371/3/2 372/3/2
f 371/4/2 369/4/2 373/4/2
f 372/3/2 371/3/2 373/3/2
f 373/4/2 369/4/2 374/4/2
f 374/4/2 369/4/2 375/4/2
f 373/3/2 374/3/2 376/3/2
f 374/1/2 375/1/2 377/1/2
f 376/3/2 374/3/2 377/3/2
f 377/1/2 375/1/2 378/1/2
f 378/1/2 379/1/2 381/1/2
f 379/4/2 380/4/2 382/4/2
f 381/1/2 379/1/2 382/1/2
f 381/3/2 382/3/2 383/3/2
f 382/4/2 380/4/2 384/4/2
f 383/3/2 382/3/2 384/3/2
f 384/4/2 380/4/2 385/4/2
f 385/4/2 380/4/2 386/4/2
f 384/3/2 385/3/2 387/3/2
f 385/1/2 386/1/2 388/1/2
f 387/3/2 385/3/2 388/3/2
f 388/1/2 386/1/2 389/1/2
f 389/1/2 390/1/2 392/1/2
f 390/4/2 391/4/2 393/4/2
f 392/1/2 390/1/2 393/1/2
f 392/3/2 393/3/2 394/3/2
f 393/4/2 391/4/2 395/4/2
f 394/3/2 393/3/2 395/3/2
f 395/4/2 391/4/2 396/4/2
f 396/4/2 391/4/2 397/4/2
f 395/3/2 396/3/2 398/3/2
f 396/1/2 397/1/2 399/1/2
f 398/3/2 396/3/2 399/3/2
f 399/1/2 397/1/2 400/1/2
f 400/1/2 401/1/2 403/1/2
f 401/4/2 402/4/2 404/4/2
f 403/1/2 401/1/2 404/1/2
f 403/3/2 404/3/2 405/3/2
f 404/4/2 402/4/2 406/4/2
f 405/3/2 404/3/2 406/3/2
f 406/4/2 402/4/2 407/4/2
f 407/4/2 402/4/2 408/4/2
f 406/3/2 407/3/2 411/3/2
f 407/1/2 408/1/2 412/1/2
f 411/3/2 407/3/2 412/3/2
f 412/1/2 408/1/2 413/1/2
f 409/2/2 410/2/2 416/2/2
f 416/2/2 410/2/2 417/2/2
f 417/2/2 410/2/2 418/2/2
f 418/2/2 419/2/2 420/2/2
f 417/2/2 418/2/2 420/2/2
f 420/2/2 419/2/2 421/2/2
f 421/2/2 419/2/2 422/2/2
f 413/1/2 414/1/2 424/1/2
f 414/4/2 415/4/2 425/4/2
f 424/1/2 414/1/2 425/1/2
f 422/2/2 423/2/2 426/2/2
f 421/2/2 422/2/2 426/2/2
f 426/2/2 423/2/2 427/2/2
f 427/2/2 423/2/2 428/2/2
f 424/3/2 425/3/2 430/3/2
f 425/4/2 415/4/2 431/4/2
f 430/3/2 425/3/2 431/3/2
f 431/4/2 415/4/2 432/4/2
f 432/4/2 415/4/2 433/4/2
f 428/2/2 429/2/2 434/2/2
f 427/2/2 428/2/2 434/2/2
f 434/2/2 429/2/2 435/2/2
f 435/2/2 429/2/2 436/2/2
f 431/3/2 432/3/2 438/3/2
f 432/1/2 433/1/2 439/1/2
f 438/3/2 432/3/2 439/3/2
f 439/1/2 433/1/2 440/1/2
f 436/2/2 437/2/2 443/2/2
f 435/2/2 436/2/2 443/2/2
f 443/2/2 437/2/2 444/2/2
f 444/2/2 437/2/2 445/2/2
f 445/2/2 446/2/2 447/2/2
f 444/2/2 445/2/2 447/2/2
f 447/2/2 446/2/2 448/2/2
f 448/2/2 446/2/2 449/2/2
f 440/1/2 441/1/2 451/1/2
f 441/4/2 442/4/2 452/4/2
f 451/1/2 441/1/2 452/1/2
f 449/2/2 450/2/2 453/2/2
f 448/2/2 449/2/2 453/2/2
f 453/2/2 450/2/2 454/2/2
f 454/2/2 450/2/2 455/2/2
f 451/3/2 452/3/2 457/3/2
f 452/4/2 442/4/2 458/4/2
f 457/3/2 452/3/2 458/3/2
f 458/4/2 442/4/2 459/4/2
f 459/4/2 442/4/2 460/4/2
f 455/2/2 456/2/2 461/2/2
f 454/2/2 455/2/2 461/2/2
f 461/2/2 456/2/2 462/2/2
f 462/2/2 456/2/2 463/2/2
f 458/3/2 459/3/2 465/3/2
f 459/1/2 460/1/2 466/1/2
f 465/3/2 459/3/2 466/3/2
f 466/1/2 460/1/2 467/1/2
f 463/2/2 464/2/2 468/2/2
f 462/2/2 463/2/2 468/2/2
f 468/2/2 464/2/2 469/2/2
f 469/2/2 464/2/2 470/2/2
f 470/2/2 471/2/2 472/2/2
f 469/2/2 470/2/2 472/2/2
f 472/2/2 471/2/2 473/2/2
f 473/2/2 471/2/2 474/2/2
f 474/2/2 475/2/2 476/2/2
f 473/2/2 474/2/2 476/2/2
f 476/2/2 475/2/2 477/2/2
f 477/2/2 475/2/2 478/2/2
f 478/2/2 479/2/2 480/2/2
f 477/2/2 478/2/2 480/2/2
f 480/2/2 479/2/2 481/2/2
f 481/2/2 479/2/2 482/2/2
f 482/2/2 483/2/2 484/2/2
f 481/2/2 482/2/2 484/2/2
f 484/2/2 483/2/2 485/2/2
f 485/2/2 483/2/2 486/2/2
f 486/2/2 487/2/2 488/2/2
f 485/2/2 486/2/2 488/2/2
f 488/2/2 487/2/2 489/2/2
f 489/2/2 487/2/2 490/2/2
f 490/2/2 491/2/2 492/2/2
f 489/2/2 490/2/2 492/2/2
f 492/2/2 491/2/2 493/2/2
f 493/2/2 491/2/2 494/2/2
f 494/2/2 495/2/2 496/2/2
f 493/2/2 494/2/2 496/2/2
f 496/2/2 495/2/2 497/2/2
f 497/2/2 495/2/2 498/2/2
f 498/2/2 499/2/2 500/2/2
f 497/2/2 498/2/2 500/2/2
f 500/2/2 499/2/2 501/2/2
f 501/2/2 499/2/2 502/2/2
f 502/2/2 503/2/2 504/2/2
f 501/2/2 502/2/2 504/2/2
f 504/2/2 503/2/2 505/2/2
f 505/2/2 503/2/2 506/2/2
f 506/2/2 507/2/2 508/2/2
f 505/2/2 506/2/2 508/2/2
f 508/2/2 507/2/2 509/2/2
f 509/2/2 507/2/2 510/2/2
f 510/2/2 511/2/2 512/2/2
f 509/2/2 510/2/2 512/2/2
f 512/2/2 511/2/2 513/2/2
f 513/2/2 511/2/2 514/2/2
f 514/2/2 515/2/2 516/2/2
f 513/2/2 514/2/2 516/2/2
f 516/2/2 515/2/2 517/2/2
f 517/2/2 515/2/2 518/2/2
f 518/2/2 519/2/2 520/2/2
f 517/2/2 518/2/2 520/2/2
f 520/2/2 519/2/2 521/2/2
f 521/2/2 519/2/2 522/2/2
f 522/2/2 523/2/2 524/2/2
f 521/2/2 522/2/2 524/2/2
f 524/2/2 523/2/2 525/2/2
f 525/2/2 523/2/2 526/2/2
f 526/2/2 527/2/2 528/2/2
f 525/2/2 526/2/2 528/2/2
f 528/2/2 527/2/2 529/2/2
f 529/2/2 527/2/2 530/2/2
f 530/2/2 527/2/2 531/2/2
f 535/1/3 533/1/3 532/1/3
f 536/3/3 534/3/3 533/3/3
f 536/1/3 533/1/3 535/1/3
f 537/4/3 536/4/3 535/4/3
f 538/3/3 534/3/3 536/3/3
f 538/4/3 536/4/3 537/4/3
f 539/1/3 538/1/3 537/1/3
f 540/3/3 534/3/3 538/3/3
f 540/1/3 538/1/3 539/1/3
f 541/4/3 540/4/3 539/4/3
f 542/3/3 534/3/3 540/3/3
f 542/4/3 540/4/3 541/4/3
f 543/1/3 542/1/3 541/1/3
f 544/3/3 534/3/3 542/3/3
f 544/1/3 542/1/3 543/1/3
f 545/4/3 544/4/3 543/4/3
f 546/3/3 534/3/3 544/3/3
f 546/4/3 544/4/3 545/4/3
f 547/1/3 546/1/3 545/1/3
f 548/3/3 534/3/3 546/3/3
f 548/1/3 546/1/3 547/1/3
f 549/4/3 548/4/3 547/4/3
f 550/3/3 534/3/3 548/3/3
f 550/4/3 548/4/3 549/4/3
f 551/1/3 550/1/3 549/1/3
f 552/3/3 534/3/3 550/3/3
f 552/1/3 550/1/3 551/1/3
f 553/3/3 534/3/3 552/3/3
f 556/3/3 555/3/3 554/3/3
f 557/3/3 555/3/3 556/3/3
f 560/2/3 559/2/3 558/2/3
f 562/2/3 560/2/3 558/2/3
f 562/2/3 561/2/3 560/2/3
f 563/2/3 561/2/3 562/2/3
f 564/2/3 562/2/3 558/2/3
f 565/2/3 562/2/3 564/2/3
f 568/2/3 567/2/3 566/2/3
f 569/2/3 567/2/3 568/2/3
f 573/1/3 571/1/3 570/1/3
f 574/3/3 572/3/3 571/3/3
f 574/1/3 571/1/3 573/1/3
f 575/4/3 574/4/3 573/4/3
f 576/3/3 572/3/3 574/3/3
f 576/4/3 574/4/3 575/4/3
f 577/1/3 576/1/3 575/1/3
f 578/3/3 572/3/3 576/3/3
f 578/1/3 576/1/3 577/1/3
f 579/4/3 578/4/3 577/4/3
f 580/3/3 572/3/3 578/3/3
f 580/4/3 578/4/3 579/4/3
f 581/1/3 580/1/3 579/1/3
f 582/3/3 572/3/3 580/3/3
f 582/1/3 580/1/3 581/1/3
f 583/4/3 582/4/3 581/4/3
f 584/3/3 572/3/3 582/3/3
f 584/4/3 582/4/3 583/4/3
f 585/1/3 584/1/3 583/1/3
f 586/3/3 572/3/3 584/3/3
f 586/1/3 584/1/3 585/1/3
f 589/2/3 588/2/3 587/2/3
f 590/2/3 588/2/3 589/2/3
f 592/4/3 586/4/3 585/4/3
f 593/3/3 572/3/3 586/3/3
f 593/4/3 586/4/3 592/4/3
f 595/2/3 591/2/3 590/2/3
f 596/2/3 591/2/3 595/2/3
f 597/1/3 593/1/3 592/1/3
f 598/3/3 572/3/3 593/3/3
f 598/1/3 593/1/3 597/1/3
f 599/3/3 572/3/3 598/3/3
f 600/2/3 595/2/3 594/2/3
f 601/2/3 595/2/3 600/2/3
f 606/2/3 605/2/3 604/2/3
f 607/2/3 605/2/3 606/2/3
f 610/2/3 608/2/3 607/2/3
f 611/2/3 608/2/3 610/2/3
f 612/3/3 603/3/3 602/3/3
f 613/3/3 603/3/3 612/3/3
f 614/2/3 610/2/3 609/2/3
f 615/2/3 610/2/3 614/2/3
f 618/2/3 617/2/3 616/2/3
f 619/2/3 617/2/3 618/2/3
f 622/2/3 620/2/3 619/2/3
f 623/2/3 620/2/3 622/2/3
f 624/2/3 622/2/3 621/2/3
f 625/2/3 622/2/3 624/2/3
f 628/2/3 627/2/3 626/2/3
f 629/2/3 627/2/3 628/2/3
f 632/2/3 630/2/3 629/2/3
f 633/2/3 630/2/3 632/2/3
f 634/2/3 632/2/3 631/2/3
f 635/2/3 632/2/3 634/2/3
f 638/2/3 637/2/3 636/2/3
f 639/2/3 637/2/3 638/2/3
f 642/2/3 640/2/3 639/2/3
f 643/2/3 640/2/3 642/2/3
f 644/2/3 642/2/3 641/2/3
f 645/2/3 642/2/3 644/2/3
f 649/1/3 647/1/3 646/1/3
f 650/3/3 648/3/3 647/3/3
f 650/1/3 647/1/3 649/1/3
f 651/4/3 650/4/3 649/4/3
f 652/3/3 648/3/3 650/3/3
f 652/4/3 650/4/3 651/4/3
f 653/1/3 652/1/3 651/1/3
f 654/3/3 648/3/3 652/3/3
f 654/1/3 652/1/3 653/1/3
f 655/4/3 654/4/3 653/4/3
f 656/3/3 648/3/3 654/3/3
f 656/4/3 654/4/3 655/4/3
f 657/1/3 656/1/3 655/1/3
f 658/3/3 648/3/3 656/3/3
f 658/1/3 656/1/3 657/1/3
f 659/4/3 658/4/3 657/4/3
f 660/3/3 648/3/3 658/3/3
f 660/4/3 658/4/3 659/4/3
f 661/1/3 660/1/3 659/1/3
f 662/3/3 648/3/3 660/3/3
f 662/1/3 660/1/3 661/1/3
f 665/2/3 664/2/3 663/2/3
f 666/2/3 664/2/3 665/2/3
f 668/4/3 662/4/3 661/4/3
f 669/3/3 648/3/3 662/3/3
f 669/4/3 662/4/3 668/4/3
f 671/2/3 667/2/3 666/2/3
f 672/2/3 667/2/3 671/2/3
f 673/1/3 669/1/3 668/1/3
f 674/3/3 648/3/3 669/3/3
f 674/1/3 669/1/3 673/1/3
f 675/3/3 648/3/3 674/3/3
f 676/2/3 671/2/3 670/2/3
f 677/2/3 671/2/3 676/2/3
f 682/2/3 681/2/3 680/2/3
f 683/2/3 681/2/3 682/2/3
f 686/2/3 684/2/3 683/2/3
f 687/2/3 684/2/3 686/2/3
f 688/3/3 679/3/3 678/3/3
f 689/3/3 679/3/3 688/3/3
f 690/2/3 686/2/3 685/2/3
f 691/2/3 686/2/3 690/2/3
f 694/2/3 693/2/3 692/2/3
f 695/2/3 693/2/3 694/2/3
f 698/2/3 696/2/3 695/2/3
f 699/2/3 696/2/3 698/2/3
f 700/2/3 698/2/3 697/2/3
f 701/2/3 698/2/3 700/2/3
f 704/2/3 703/2/3 702/2/3
f 705/2/3 703/2/3 704/2/3
f 709/1/3 707/1/3 706/1/3
f 710/3/3 708/3/3 707/3/3
f 710/1/3 707/1/3 709/1/3
f 711/4/3 710/4/3 709/4/3
f 712/3/3 708/3/3 710/3/3
f 712/4/3 710/4/3 711/4/3
f 713/1/3 712/1/3 711/1/3
f 714/3/3 708/3/3 712/3/3
f 714/1/3 712/1/3 713/1/3
f 715/4/3 714/4/3 713/4/3
f 716/3/3 708/3/3 714/3/3
f 716/4/3 714/4/3 715/4/3
f 717/1/3 716/1/3 715/1/3
f 718/3/3 708/3/3 716/3/3
f 718/1/3 716/1/3 717/1/3
f 719/4/3 718/4/3 717/4/3
f 720/3/3 708/3/3 718/3/3
f 720/4/3 718/4/3 719/4/3
f 721/1/3 720/1/3 719/1/3
f 722/3/3 708/3/3 720/3/3
f 722/1/3 720/1/3 721/1/3
f 725/2/3 724/2/3 723/2/3
f 726/2/3 724/2/3 725/2/3
f 728/4/3 722/4/3 721/4/3
f 729/3/3 708/3/3 722/3/3
f 729/4/3 722/4/3 728/4/3
f 731/2/3 727/2/3 726/2/3
f 732/2/3 727/2/3 731/2/3
f 733/1/3 729/1/3 728/1/3
f 734/3/3 708/3/3 729/3/3
f 734/1/3 729/1/3 733/1/3
f 735/3/3 708/3/3 734/3/3
f 736/2/3 731/2/3 730/2/3
f 737/2/3 731/2/3 736/2/3
f 742/2/3 741/2/3 740/2/3
f 743/2/3 741/2/3 742/2/3
f 746/2/3 744/2/3 743/2/3
f 747/2/3 744/2/3 746/2/3
f 748/3/3 739/3/3 738/3/3
f 749/3/3 739/3/3 748/3/3
f 750/2/3 746/2/3 745/2/3
f 751/2/3 746/2/3 750/2/3
f 754/2/3 753/2/3 752/2/3
f 755/2/3 753/2/3 754/2/3
f 758/2/3 756/2/3 755/2/3
f 759/2/3 756/2/3 758/2/3
f 760/2/3 758/2/3 757/2/3
f 761/2/3 758/2/3 760/2/3
f 764/2/3 763/2/3 762/2/3
f 765/2/3 763/2/3 764/2/3
f 768/2/3 766/2/3 765/2/3
f 769/2/3 766/2/3 768/2/3
f 770/2/3 768/2/3 767/2/3
f 771/2/3 768/2/3 770/2/3
f 774/2/3 773/2/3 772/2/3
f 775/2/3 773/2/3 774/2/3
f 778/2/3 776/2/3 775/2/3
f 779/2/3 776/2/3 778/2/3
f 780/2/3 778/2/3 777/2/3
f 781/2/3 778/2/3 780/2/3
f 785/1/3 783/1/3 782/1/3
f 786/3/3 784/3/3 783/3/3
f 786/1/3 783/1/3 785/1/3
f 787/4/3 786/4/3 785/4/3
f 788/3/3 784/3/3 786/3/3
f 788/4/3 786/4/3 787/4/3
f 789/1/3 788/1/3 787/1/3
f 790/3/3 784/3/3 788/3/3
f 790/1/3 788/1/3 789/1/3
f 791/4/3 790/4/3 789/4/3
f 792/3/3 784/3/3 790/3/3
f 792/4/3 790/4/3 791/4/3
f 793/1/3 792/1/3 791/1/3
f 794/3/3 784/3/3 792/3/3
f 794/1/3 792/1/3 793/1/3
f 795/4/3 794/4/3 793/4/3
f 796/3/3 784/3/3 794/3/3
f 796/4/3 794/4/3 795/4/3
f 797/1/3 796/1/3 795/1/3
f 798/3/3 784/3/3 796/3/3
f 798/1/3 796/1/3 797/1/3
f 801/2/3 800/2/3 799/2/3
f 802/2/3 800/2/3 801/2/3
f 804/4/3 798/4/3 797/4/3
f 805/3/3 784/3/3 798/3/3
f 805/4/3 798/4/3 804/4/3
f 807/2/3 803/2/3 802/2/3
f 808/2/3 803/2/3 807/2/3
f 809/1/3 805/1/3 804/1/3
f 810/3/3 784/3/3 805/3/3
f 810/1/3 805/1/3 809/1/3
f 811/3/3 784/3/3 810/3/3
f 812/2/3 807/2/3 806/2/3
f 813/2/3 807/2/3 812/2/3
f 818/2/3 817/2/3 816/2/3
f 819/2/3 817/2/3 818/2/3
f 822/2/3 820/2/3 819/2/3
f 823/2/3 820/2/3 822/2/3
f 824/3/3 815/3/3 814/3/3
f 825/3/3 815/3/3 824/3/3
f 826/2/3 822/2/3 821/2/3
f 827/2/3 822/2/3 826/2/3
f 830/2/3 829/2/3 828/2/3
f 831/2/3 829/2/3 830/2/3
f 834/2/3 832/2/3 831/2/3
f 835/2/3 832/2/3 834/2/3
f 836/2/3 834/2/3 833/2/3
f 837/2/3 834/2/3 836/2/3
f 840/2/3 839/2/3 838/2/3
f 841/2/3 839/2/3 840/2/3
f 845/1/3 843/1/3 842/1/3
f 846/3/3 844/3/3 843/3/3
f 846/1/3 843/1/3 845/1/3
f 847/4/3 846/4/3 845/4/3
f 848/3/3 844/3/3 846/3/3
f 848/4/3 846/4/3 847/4/3
f 849/1/3 848/1/3 847/1/3
f 850/3/3 844/3/3 848/3/3
f 850/1/3 848/1/3 849/1/3
f 851/4/3 850/4/3 849/4/3
f 852/3/3 844/3/3 850/3/3
f 852/4/3 850/4/3 851/4/3
f 853/1/3 852/1/3 851/1/3
f 854/3/3 844/3/3 852/3/3
f 854/1/3 852/1/3 853/1/3
f 855/4/3 854/4/3 853/4/3
f 856/3/3 844/3/3 854/3/3
f 856/4/3 854/4/3 855/4/3
f 857/1/3 856/1/3 855/1/3
f 858/3/3 844/3/3 856/3/3
f 858/1/3 856/1/3 857/1/3
f 861/2/3 860/2/3 859/2/3
f 862/2/3 860/2/3 861/2/3
f 864/4/3 858/4/3 857/4/3
f 865/3/3 844/3/3 858/3/3
f 865/4/3 858/4/3 864/4/3
f 867/2/3 863/2/3 862/2/3
f 868/2/3 863/2/3 867/2/3
f 869/1/3 865/1/3 864/1/3
f 870/3/3 844/3/3 865/3/3
f 870/1/3 865/1/3 869/1/3
f 871/3/3 844/3/3 870/3/3
f 872/2/3 867/2/3 866/2/3
f 873/2/3 867/2/3 872/2/3
f 878/2/3 877/2/3 876/2/3
f 879/2/3 877/2/3 878/2/3
f 882/2/3 880/2/3 879/2/3
f 883/2/3 880/2/3 882/2/3
f 884/3/3 875/3/3 874/3/3
f 885/3/3 875/3/3 884/3/3
f 886/2/3 882/2/3 881/2/3
f 887/2/3 882/2/3 886/2/3
f 890/2/3 889/2/3 888/2/3
f 891/2/3 889/2/3 890/2/3
f 894/2/3 892/2/3 891/2/3
f 895/2/3 892/2/3 894/2/3
f 896/2/3 894/2/3 893/2/3
f 897/2/3 894/2/3 896/2/3
f 900/2/3 899/2/3 898/2/3
f 901/2/3 899/2/3 900/2/3
f 904/2/3 902/2/3 901/2/3
f 905/2/3 902/2/3 904/2/3
f 906/2/3 904/2/3 903/2/3
f 907/2/3 904/2/3 906/2/3
f 910/2/3 909/2/3 908/2/3
f 911/2/3 909/2/3 910/2/3
f 914/2/3 912/2/3 911/2/3
f 915/2/3 912/2/3 914/2/3
f 916/2/3 914/2/3 913/2/3
f 917/2/3 914/2/3 916/2/3
f 921/1/3 919/1/3 918/1/3
f 922/3/3 920/3/3 919/3/3
f 922/1/3 919/1/3 921/1/3
f 923/4/3 922/4/3 921/4/3
f 924/3/3 920/3/3 922/3/3
f 924/4/3 922/4/3 923/4/3
f 925/1/3 924/1/3 923/1/3
f 926/3/3 920/3/3 924/3/3
f 926/1/3 924/1/3 925/1/3
f 927/4/3 926/4/3 925/4/3
f 928/3/3 920/3/3 926/3/3
f 928/4/3 926/4/3 927/4/3
f 929/1/3 928/1/3 927/1/3
f 930/3/3 920/3/3 928/3/3
f 930/1/3 928/1/3 929/1/3
f 931/4/3 930/4/3 929/4/3
f 932/3/3 920/3/3 930/3/3
f 932/4/3 930/4/3 931/4/3
f 933/1/3 932/1/3 931/1/3
f 934/3/3 920/3/3 932/3/3
f 934/1/3 932/1/3 933/1/3
f 937/2/3 936/2/3 935/2/3
f 938/2/3 936/2/3 937/2/3
f 940/4/3 934/4/3 933/4/3
f 941/3/3 920/3/3 934/3/3
f 941/4/3 934/4/3 940/4/3
f 943/2/3 939/2/3 938/2/3
f 944/2/3 939/2/3 943/2/3
f 945/1/3 941/1/3 940/1/3
f 946/3/3 920/3/3 941/3/3
f 946/1/3 941/1/3 945/1/3
f 947/3/3 920/3/3 946/3/3
f 948/2/3 943/2/3 942/2/3
f 949/2/3 943/2/3 948/2/3
f 954/2/3 953/2/3 952/2/3
f 955/2/3 953/2/3 954/2/3
f 958/2/3 956/2/3 955/2/3
f 959/2/3 956/2/3 958/2/3
f 960/3/3 951/3/3 950/3/3
f 961/3/3 951/3/3 960/3/3
f 962/2/3 958/2/3 957/2/3
f 963/2/3 958/2/3 962/2/3
f 966/2/3 965/2/3 964/2/3
f 967/2/3 965/2/3 966/2/3
f 970/2/3 968/2/3 967/2/3
f 971/2/3 968/2/3 970/2/3
f 972/2/3 970/2/3 969/2/3
f 973/2/3 970/2/3 972/2/3
f 976/2/3 975/2/3 974/2/3
f 977/2/3 975/2/3 976/2/3
f 978/2/4 979/2/4 980/2/4
f 980/2/4 979/2/4 981/2/4
f 982/4/4 983/4/4 984/4/4
f 982/4/4 984/4/4 985/4/4
f 985/4/4 984/4/4 986/4/4
f 982/4/4 985/4/4 987/4/4
f 985/1/4 986/1/4 987/1/4
f 987/1/4 986/1/4 988/1/4
f 982/4/4 987/4/4 989/4/4
f 987/4/4 988/4/4 989/4/4
f 989/4/4 988/4/4 990/4/4
f 982/4/4 989/4/4 991/4/4
f 989/1/4 990/1/4 991/1/4
f 991/1/4 990/1/4 992/1/4
f 982/4/4 991/4/4 993/4/4
f 991/4/4 992/4/4 993/4/4
f 993/4/4 992/4/4 994/4/4
f 982/4/4 993/4/4 995/4/4
f 993/1/4 994/1/4 995/1/4
f 995/1/4 994/1/4 996/1/4
f 982/4/4 995/4/4 997/4/4
f 995/4/4 996/4/4 997/4/4
f 997/4/4 996/4/4 998/4/4
f 982/4/4 997/4/4 999/4/4
f 997/1/4 998/1/4 1000/1/4
f 999/4/4 997/4/4 1000/4/4
f 1000/1/4 998/1/4 1001/1/4
f 1002/2/4 1003/2/4 1004/2/4
f 1004/2/4 1003/2/4 1005/2/4
f 1006/2/4 1007/2/4 1008/2/4
f 1008/2/4 1007/2/4 1009/2/4
f 1010/2/4 1011/2/4 1012/2/4
f 1012/2/4 1011/2/4 1013/2/4
f 1014/2/4 1015/2/4 1016/2/4
f 1016/2/4 1015/2/4 1017/2/4
f 1018/4/4 1019/4/4 1020/4/4
f 1018/4/4 1020/4/4 1021/4/4
f 1021/4/4 1020/4/4 1022/4/4
f 1018/4/4 1021/4/4 1023/4/4
f 1021/1/4 1022/1/4 1023/1/4
f 1023/1/4 1022/1/4 1024/1/4
f 1018/4/4 1023/4/4 1025/4/4
f 1023/4/4 1024/4/4 1025/4/4
f 1025/4/4 1024/4/4 1026/4/4
f 1018/4/4 1025/4/4 1027/4/4
f 1025/1/4 1026/1/4 1027/1/4
f 1027/1/4 1026/1/4 1028/1/4
f 1018/4/4 1027/4/4 1029/4/4
f 1027/4/4 1028/4/4 1029/4/4
f 1029/4/4 1028/4/4 1030/4/4
f 1018/4/4 1029/4/4 1031/4/4
f 1029/1/4 1030/1/4 1031/1/4
f 1031/1/4 1030/1/4 1032/1/4
f 1031/4/4 1032/4/4 1035/4/4
f 1018/4/4 1031/4/4 1035/4/4
f 1035/4/4 1032/4/4 1036/4/4
f 1018/4/4 1035/4/4 1037/4/4
f 1035/1/4 1036/1/4 1038/1/4
f 1037/4/4 1035/4/4 1038/4/4
f 1038/1/4 1036/1/4 1039/1/4
f 1033/2/4 1034/2/4 1040/2/4
f 1040/2/4 1034/2/4 1041/2/4
f 1042/2/4 1043/2/4 1044/2/4
f 1044/2/4 1043/2/4 1045/2/4
f 1046/2/4 1047/2/4 1048/2/4
f 1048/2/4 1047/2/4 1049/2/4
f 1050/2/4 1051/2/4 1053/2/4
f 1052/2/4 1053/2/4 1054/2/4
f 1053/2/4 1051/2/4 1055/2/4
f 1054/2/4 1053/2/4 1055/2/4
f 1055/2/4 1051/2/4 1056/2/4
f 1056/2/4 1051/2/4 1057/2/4
f 1058/4/4 1059/4/4 1060/4/4
f 1058/4/4 1060/4/4 1061/4/4
f 1061/4/4 1060/4/4 1062/4/4
f 1058/4/4 1061/4/4 1063/4/4
f 1061/1/4 1062/1/4 1063/1/4
f 1063/1/4 1062/1/4 1064/1/4
f 1058/4/4 1063/4/4 1065/4/4
f 1063/4/4 1064/4/4 1065/4/4
f 1065/4/4 1064/4/4 1066/4/4
f 1058/4/4 1065/4/4 1067/4/4
f 1065/1/4 1066/1/4 1067/1/4
f 1067/1/4 1066/1/4 1068/1/4
f 1058/4/4 1067/4/4 1069/4/4
f 1067/4/4 1068/4/4 1069/4/4
f 1069/4/4 1068/4/4 1070/4/4
f 1058/4/4 1069/4/4 1071/4/4
f 1069/1/4 1070/1/4 1071/1/4
f 1071/1/4 1070/1/4 1072/1/4
f 1058/4/4 1071/4/4 1073/4/4
f 1071/4/4 1072/4/4 1073/4/4
f 1073/4/4 1072/4/4 1074/4/4
f 1058/4/4 1073/4/4 1075/4/4
f 1073/1/4 1074/1/4 1076/1/4
f 1075/4/4 1073/4/4 1076/4/4
f 1076/1/4 1074/1/4 1077/1/4
f 1078/2/4 1079/2/4 1080/2/4
f 1080/2/4 1079/2/4 1081/2/4
f 1082/2/4 1083/2/4 1084/2/4
f 1084/2/4 1083/2/4 1085/2/4
f 1086/2/4 1087/2/4 1088/2/4
f 1088/2/4 1087/2/4 1089/2/4
f 1090/2/4 1091/2/4 1092/2/4
f 1092/2/4 1091/2/4 1093/2/4
f 1094/4/4 1095/4/4 1096/4/4
f 1094/4/4 1096/4/4 1097/4/4
f 1097/4/4 1096/4/4 1098/4/4
f 1094/4/4 1097/4/4 1099/4/4
f 1097/1/4 1098/1/4 1099/1/4
f 1099/1/4 1098/1/4 1100/1/4
f 1094/4/4 1099/4/4 1101/4/4
f 1099/4/4 1100/4/4 1101/4/4
f 1101/4/4 1100/4/4 1102/4/4
f 1094/4/4 1101/4/4 1103/4/4
f 1101/1/4 1102/1/4 1103/1/4
f 1103/1/4 1102/1/4 1104/1/4
f 1094/4/4 1103/4/4 1105/4/4
f 1103/4/4 1104/4/4 1105/4/4
f 1105/4/4 1104/4/4 1106/4/4
f 1094/4/4 1105/4/4 1107/4/4
f 1105/1/4 1106/1/4 1107/1/4
f 1107/1/4 1106/1/4 1108/1/4
f 1107/4/4 1108/4/4 1111/4/4
f 1094/4/4 1107/4/4 1111/4/4
f 1111/4/4 1108/4/4 1112/4/4
f 1094/4/4 1111/4/4 1113/4/4
f 1111/1/4 1112/1/4 1114/1/4
f 1113/4/4 1111/4/4 1114/4/4
f 1114/1/4 1112/1/4 1115/1/4
f 1109/2/4 1110/2/4 1116/2/4
f 1116/2/4 1110/2/4 1117/2/4
f 1118/2/4 1119/2/4 1120/2/4
f 1120/2/4 1119/2/4 1121/2/4
f 1122/2/4 1123/2/4 1124/2/4
f 1124/2/4 1123/2/4 1125/2/4
f 1126/2/4 1127/2/4 1129/2/4
f 1128/2/4 1129/2/4 1130/2/4
f 1129/2/4 1127/2/4 1131/2/4
f 1130/2/4 1129/2/4 1131/2/4
f 1131/2/4 1127/2/4 1132/2/4
f 1132/2/4 1127/2/4 1133/2/4
f 1134/4/4 1135/4/4 1136/4/4
f 1134/4/4 1136/4/4 1137/4/4
f 1137/4/4 1136/4/4 1138/4/4
f 1134/4/4 1137/4/4 1139/4/4
f 1137/1/4 1138/1/4 1139/1/4
f 1139/1/4 1138/1/4 1140/1/4
f 1134/4/4 1139/4/4 1141/4/4
f 1139/4/4 1140/4/4 1141/4/4
f 1141/4/4 1140/4/4 1142/4/4
f 1134/4/4 1141/4/4 1143/4/4
f 1141/1/4 1142/1/4 1143/1/4
f 1143/1/4 1142/1/4 1144/1/4
f 1134/4/4 1143/4/4 1145/4/4
f 1143/4/4 1144/4/4 1145/4/4
f 1145/4/4 1144/4/4 1146/4/4
f 1134/4/4 1145/4/4 1147/4/4
f 1145/1/4 1146/1/4 1147/1/4
f 1147/1/4 1146/1/4 1148/1/4
f 1134/4/4 1147/4/4 1149/4/4
f 1147/4/4 1148/4/4 1149/4/4
f 1149/4/4 1148/4/4 1150/4/4
f 1134/4/4 1149/4/4 1151/4/4
f 1149/1/4 1150/1/4 1152/1/4
f 1151/4/4 1149/4/4 1152/4/4
f 1152/1/4 1150/1/4 1153/1/4
f 1154/2/4 1155/2/4 1156/2/4
f 1156/2/4 1155/2/4 1157/2/4
f 1158/2/4 1159/2/4 1160/2/4
f 1160/2/4 1159/2/4 1161/2/4
f 1162/2/4 1163/2/4 1164/2/4
f 1164/2/4 1163/2/4 1165/2/4
f 1166/2/4 1167/2/4 1168/2/4
f 1168/2/4 1167/2/4 1169/2/4
f 1170/4/4 1171/4/4 1172/4/4
f 1170/4/4 1172/4/4 1173/4/4
f 1173/4/4 1172/4/4 1174/4/4
f 1170/4/4 1173/4/4 1175/4/4
f 1173/1/4 1174/1/4 1175/1/4
f 1175/1/4 1174/1/4 1176/1/4
f 1170/4/4 1175/4/4 1177/4/4
f 1175/4/4 1176/4/4 1177/4/4
f 1177/4/4 1176/4/4 1178/4/4
f 1170/4/4 1177/4/4 1179/4/4
f 1177/1/4 1178/1/4 1179/1/4
f 1179/1/4 1178/1/4 1180/1/4
f 1170/4/4 1179/4/4 1181/4/4
f 1179/4/4 1180/4/4 1181/4/4
f 1181/4/4 1180/4/4 1182/4/4
f 1170/4/4 1181/4/4 1183/4/4
f 1181/1/4 1182/1/4 1183/1/4
f 1183/1/4 1182/1/4 1184/1/4
f 1183/4/4 1184/4/4 1187/4/4
f 1170/4/4 1183/4/4 1187/4/4
f 1187/4/4 1184/4/4 1188/4/4
f 1170/4/4 1187/4/4 1189/4/4
f 1187/1/4 1188/1/4 1190/1/4
f 1189/4/4 1187/4/4 1190/4/4
f 1190/1/4 1188/1/4 1191/1/4
f 1185/2/4 1186/2/4 1192/2/4
f 1192/2/4 1186/2/4 1193/2/4
f 1194/2/4 1195/2/4 1196/2/4
f 1196/2/4 1195/2/4 1197/2/4
f 1198/2/4 1199/2/4 1200/2/4
f 1200/2/4 1199/2/4 1201/2/4
f 1202/2/4 1203/2/4 1204/2/4
f 1204/2/4 1203/2/4 1205/2/4
f 1206/4/4 1207/4/4 1208/4/4
f 1208/4/4 1207/4/4 1209/4/4
f 1206/4/4 1208/4/4 1210/4/4
f 1208/1/4 1209/1/4 1210/1/4
f 1210/1/4 1209/1/4 1211/1/4
f 1206/4/4 1210/4/4 1212/4/4
f 1210/4/4 1211/4/4 1212/4/4
f 1212/4/4 1211/4/4 1213/4/4
f 1206/4/4 1212/4/4 1214/4/4
f 1212/1/4 1213/1/4 1214/1/4
f 1214/1/4 1213/1/4 1215/1/4
f 1206/4/4 1214/4/4 1216/4/4
f 1214/4/4 1215/4/4 1216/4/4
f 1216/4/4 1215/4/4 1217/4/4
f 1206/4/4 1216/4/4 1218/4/4
f 1216/1/4 1217/1/4 1218/1/4
f 1218/1/4 1217/1/4 1219/1/4
f 1220/2/4 1221/2/4 1222/2/4
f 1218/4/4 1219/4/4 1224/4/4
f 1206/4/4 1218/4/4 1224/4/4
f 1224/4/4 1219/4/4 1225/4/4
f 1222/2/4 1223/2/4 1226/2/4
f 1220/2/4 1222/2/4 1226/2/4
f 1226/2/4 1223/2/4 1227/2/4
f 1206/4/4 1224/4/4 1228/4/4
f 1224/1/4 1225/1/4 1229/1/4
f 1228/4/4 1224/4/4 1229/4/4
f 1229/1/4 1225/1/4 1230/1/4
f 1220/2/4 1226/2/4 1231/2/4
f 1231/2/4 1226/2/4 1232/2/4
f 1243/1/5 1234/1/5 1233/1/5
f 1244/4/5 1235/4/5 1234/4/5
f 1244/1/5 1234/1/5 1243/1/5
f 1245/1/5 1236/1/5 1235/1/5
f 1245/4/5 1235/4/5 1244/4/5
f 1246/4/5 1237/4/5 1236/4/5
f 1246/1/5 1236/1/5 1245/1/5
f 1247/1/5 1238/1/5 1237/1/5
f 1247/4/5 1237/4/5 1246/4/5
f 1248/4/5 1239/4/5 1238/4/5
f 1248/1/5 1238/1/5 1247/1/5
f 1249/1/5 1240/1/5 1239/1/5
f 1249/4/5 1239/4/5 1248/4/5
f 1250/4/5 1241/4/5 1240/4/5
f 1250/1/5 1240/1/5 1249/1/5
f 1251/1/5 1242/1/5 1241/1/5
f 1251/4/5 1241/4/5 1250/4/5
f 1252/1/5 1242/1/5 1251/1/5
f 1253/4/5 1250/4/5 1249/4/5
f 1253/4/5 1244/4/5 1243/4/5
f 1253/4/5 1252/4/5 1251/4/5
f 1253/4/5 1251/4/5 1250/4/5
f 1253/4/5 1249/4/5 1248/4/5
f 1253/4/5 1248/4/5 1247/4/5
f 1253/4/5 1247/4/5 1246/4/5
f 1253/4/5 1246/4/5 1245/4/5
f 1253/4/5 1245/4/5 1244/4/5
f 1254/4/5 1252/4/5 1253/4/5
f 1265/1/5 1256/1/5 1255/1/5
f 1266/4/5 1257/4/5 1256/4/5
f 1266/1/5 1256/1/5 1265/1/5
f 1267/1/5 1258/1/5 1257/1/5
f 1267/4/5 1257/4/5 1266/4/5
f 1268/4/5 1259/4/5 1258/4/5
f 1268/1/5 1258/1/5 1267/1/5
f 1269/1/5 1260/1/5 1259/1/5
f 1269/4/5 1259/4/5 1268/4/5
f 1270/4/5 1261/4/5 1260/4/5
f 1270/1/5 1260/1/5 1269/1/5
f 1271/1/5 1262/1/5 1261/1/5
f 1271/4/5 1261/4/5 1270/4/5
f 1272/4/5 1263/4/5 1262/4/5
f 1272/1/5 1262/1/5 1271/1/5
f 1273/1/5 1264/1/5 1263/1/5
f 1273/4/5 1263/4/5 1272/4/5
f 1274/1/5 1264/1/5 1273/1/5
f 1275/4/5 1272/4/5 1271/4/5
f 1275/4/5 1266/4/5 1265/4/5
f 1275/4/5 1274/4/5 1273/4/5
f 1275/4/5 1273/4/5 1272/4/5
f 1275/4/5 1271/4/5 1270/4/5
f 1275/4/5 1270/4/5 1269/4/5
f 1275/4/5 1269/4/5 1268/4/5
f 1275/4/5 1268/4/5 1267/4/5
f 1275/4/5 1267/4/5 1266/4/5
f 1276/4/5 1274/4/5 1275/4/5
f 1287/1/5 1278/1/5 1277/1/5
f 1288/4/5 1279/4/5 1278/4/5
f 1288/1/5 1278/1/5 1287/1/5
f 1289/1/5 1280/1/5 1279/1/5
f 1289/4/5 1279/4/5 1288/4/5
f 1290/4/5 1281/4/5 1280/4/5
f 1290/1/5 1280/1/5 1289/1/5
f 1291/1/5 1282/1/5 1281/1/5
f 1291/4/5 1281/4/5 1290/4/5
f 1292/4/5 1283/4/5 1282/4/5
f 1292/1/5 1282/1/5 1291/1/5
f 1293/1/5 1284/1/5 1283/1/5
f 1293/4/5 1283/4/5 1292/4/5
f 1294/4/5 1285/4/5 1284/4/5
f 1294/1/5 1284/1/5 1293/1/5
f 1295/1/5 1286/1/5 1285/1/5
f 1295/4/5 1285/4/5 1294/4/5
f 1296/1/5 1286/1/5 1295/1/5
f 1297/4/5 1294/4/5 1293/4/5
f 1297/4/5 1288/4/5 1287/4/5
f 1297/4/5 1296/4/5 1295/4/5
f 1297/4/5 1295/4/5 1294/4/5
f 1297/4/5 1293/4/5 1292/4/5
f 1297/4/5 1292/4/5 1291/4/5
f 1297/4/5 1291/4/5 1290/4/5
f 1297/4/5 1290/4/5 1289/4/5
f 1297/4/5 1289/4/5 1288/4/5
f 1298/4/5 1296/4/5 1297/4/5
f 1309/1/5 1300/1/5 1299/1/5
f 1310/4/5 1301/4/5 1300/4/5
f 1310/1/5 1300/1/5 1309/1/5
f 1311/1/5 1302/1/5 1301/1/5
f 1311/4/5 1301/4/5 1310/4/5
f 1312/4/5 1303/4/5 1302/4/5
f 1312/1/5 1302/1/5 1311/1/5
f 1313/1/5 1304/1/5 1303/1/5
f 1313/4/5 1303/4/5 1312/4/5
f 1314/4/5 1305/4/5 1304/4/5
f 1314/1/5 1304/1/5 1313/1/5
f 1315/1/5 1306/1/5 1305/1/5
f 1315/4/5 1305/4/5 1314/4/5
f 1316/4/5 1307/4/5 1306/4/5
f 1316/1/5 1306/1/5 1315/1/5
f 1317/1/5 1308/1/5 1307/1/5
f 1317/4/5 1307/4/5 1316/4/5
f 1318/1/5 1308/1/5 1317/1/5
f 1319/4/5 1316/4/5 1315/4/5
f 1319/4/5 1310/4/5 1309/4/5
f 1319/4/5 1318/4/5 1317/4/5
f 1319/4/5 1317/4/5 1316/4/5
f 1319/4/5 1315/4/5 1314/4/5
f 1319/4/5 1314/4/5 1313/4/5
f 1319/4/5 1313/4/5 1312/4/5
f 1319/4/5 1312/4/5 1311/4/5
f 1319/4/5 1311/4/5 1310/4/5
f 1320/4/5 1318/4/5 1319/4/5
f 1331/1/5 1322/1/5 1321/1/5
f 1332/4/5 1323/4/5 1322/4/5
f 1332/1/5 1322/1/5 1331/1/5
f 1333/1/5 1324/1/5 1323/1/5
f 1333/4/5 1323/4/5 1332/4/5
f 1334/4/5 1325/4/5 1324/4/5
f 1334/1/5 1324/1/5 1333/1/5
f 1335/1/5 1326/1/5 1325/1/5
f 1335/4/5 1325/4/5 1334/4/5
f 1336/4/5 1327/4/5 1326/4/5
f 1336/1/5 1326/1/5 1335/1/5
f 1337/1/5 1328/1/5 1327/1/5
f 1337/4/5 1327/4/5 1336/4/5
f 1338/4/5 1329/4/5 1328/4/5
f 1338/1/5 1328/1/5 1337/1/5
f 1339/1/5 1330/1/5 1329/1/5
f 1339/4/5 1329/4/5 1338/4/5
f 1340/1/5 1330/1/5 1339/1/5
f 1341/4/5 1338/4/5 1337/4/5
f 1341/4/5 1332/4/5 1331/4/5
f 1341/4/5 1340/4/5 1339/4/5
f 1341/4/5 1339/4/5 1338/4/5
f 1341/4/5 1337/4/5 1336/4/5
f 1341/4/5 1336/4/5 1335/4/5
f 1341/4/5 1335/4/5 1334/4/5
f 1341/4/5 1334/4/5 1333/4/5
f 1341/4/5 1333/4/5 1332/4/5
f 1342/4/5 1340/4/5 1341/4/5
f 1345/2/5 1344/2/5 1343/2/5
f 1346/2/5 1344/2/5 1345/2/5
f 1347/2/5 1345/2/5 1343/2/5
f 1348/2/5 1344/2/5 1346/2/5
f 1349/2/5 1347/2/5 1343/2/5
f 1349/2/5 1348/2/5 1347/2/5
f 1350/2/5 1344/2/5 1348/2/5
f 1350/2/5 1348/2/5 1349/2/5
f 1361/1/5 1352/1/5 1351/1/5
f 1362/4/5 1353/4/5 1352/4/5
f 1362/1/5 1352/1/5 1361/1/5
f 1363/1/5 1354/1/5 1353/1/5
f 1363/4/5 1353/4/5 1362/4/5
f 1364/4/5 1355/4/5 1354/4/5
f 1364/1/5 1354/1/5 1363/1/5
f 1365/1/5 1356/1/5 1355/1/5
f 1365/4/5 1355/4/5 1364/4/5
f 1366/4/5 1357/4/5 1356/4/5
f 1366/1/5 1356/1/5 1365/1/5
f 1367/1/5 1358/1/5 1357/1/5
f 1367/4/5 1357/4/5 1366/4/5
f 1368/4/5 1359/4/5 1358/4/5
f 1368/1/5 1358/1/5 1367/1/5
f 1369/1/5 1360/1/5 1359/1/5
f 1369/4/5 1359/4/5 1368/4/5
f 1370/1/5 1360/1/5 1369/1/5
f 1371/4/5 1368/4/5 1367/4/5
f 1371/4/5 1362/4/5 1361/4/5
f 1371/4/5 1370/4/5 1369/4/5
f 1371/4/5 1369/4/5 1368/4/5
f 1371/4/5 1367/4/5 1366/4/5
f 1371/4/5 1366/4/5 1365/4/5
f 1371/4/5 1365/4/5 1364/4/5
f 1371/4/5 1364/4/5 1363/4/5
f 1371/4/5 1363/4/5 1362/4/5
f 1372/4/5 1370/4/5 1371/4/5
f 1375/2/5 1374/2/5 1373/2/5
f 1376/2/5 1374/2/5 1375/2/5
f 1379/2/5 1378/2/5 1377/2/5
f 1380/2/5 1378/2/5 1379/2/5
f 1383/2/5 1382/2/5 1381/2/5
f 1384/2/5 1382/2/5 1383/2/5
f 1387/2/5 1386/2/5 1385/2/5
f 1388/2/5 1386/2/5 1387/2/5
f 1399/1/5 1390/1/5 1389/1/5
f 1400/4/5 1391/4/5 1390/4/5
f 1400/1/5 1390/1/5 1399/1/5
f 1401/1/5 1392/1/5 1391/1/5
f 1401/4/5 1391/4/5 1400/4/5
f 1402/4/5 1393/4/5 1392/4/5
f 1402/1/5 1392/1/5 1401/1/5
f 1403/1/5 1394/1/5 1393/1/5
f 1403/4/5 1393/4/5 1402/4/5
f 1404/4/5 1395/4/5 1394/4/5
f 1404/1/5 1394/1/5 1403/1/5
f 1405/1/5 1396/1/5 1395/1/5
f 1405/4/5 1395/4/5 1404/4/5
f 1406/4/5 1397/4/5 1396/4/5
f 1406/1/5 1396/1/5 1405/1/5
f 1407/1/5 1398/1/5 1397/1/5
f 1407/4/5 1397/4/5 1406/4/5
f 1408/1/5 1398/1/5 1407/1/5
f 1409/4/5 1406/4/5 1405/4/5
f 1409/4/5 1400/4/5 1399/4/5
f 1409/4/5 1408/4/5 1407/4/5
f 1409/4/5 1407/4/5 1406/4/5
f 1409/4/5 1405/4/5 1404/4/5
f 1409/4/5 1404/4/5 1403/4/5
f 1409/4/5 1403/4/5 1402/4/5
f 1409/4/5 1402/4/5 1401/4/5
f 1409/4/5 1401/4/5 1400/4/5
f 1410/4/5 1408/4/5 1409/4/5
f 1413/2/5 1412/2/5 1411/2/5
f 1414/2/5 1412/2/5 1413/2/5
f 1417/2/5 1416/2/5 1415/2/5
f 1418/2/5 1416/2/5 1417/2/5
f 1421/2/5 1420/2/5 1419/2/5
f 1422/2/5 1420/2/5 1421/2/5
f 1423/2/5 1421/2/5 1419/2/5
f 1424/2/5 1421/2/5 1423/2/5
f 1425/2/5 1420/2/5 1422/2/5
f 1426/2/5 1420/2/5 1425/2/5
f 1429/2/5 1428/2/5 1427/2/5
f 1430/2/5 1428/2/5 1429/2/5
f 1433/2/5 1432/2/5 1431/2/5
f 1434/2/5 1432/2/5 1433/2/5
f 1437/2/5 1436/2/5 1435/2/5
f 1438/2/5 1436/2/5 1437/2/5
f 1441/2/5 1440/2/5 1439/2/5
f 1442/2/5 1440/2/5 1441/2/5
f 1445/2/5 1444/2/5 1443/2/5
f 1446/2/5 1444/2/5 1445/2/5
f 1449/2/5 1448/2/5 1447/2/5
f 1450/2/5 1448/2/5 1449/2/5
f 1453/2/5 1452/2/5 1451/2/5
f 1454/2/5 1452/2/5 1453/2/5
f 1457/2/5 1456/2/5 1455/2/5
f 1458/2/5 1456/2/5 1457/2/5
f 1459/2/5 1457/2/5 1455/2/5
f 1460/2/5 1457/2/5 1459/2/5
f 1461/2/5 1456/2/5 1458/2/5
f 1462/2/5 1456/2/5 1461/2/5
f 1465/2/5 1464/2/5 1463/2/5
f 1466/2/5 1464/2/5 1465/2/5
f 1469/2/5 1468/2/5 1467/2/5
f 1470/2/5 1468/2/5 1469/2/5
f 1473/2/5 1472/2/5 1471/2/5
f 1474/2/5 1472/2/5 1473/2/5
f 1477/2/5 1476/2/5 1475/2/5
f 1478/2/5 1476/2/5 1477/2/5
f 1481/2/5 1480/2/5 1479/2/5
f 1482/2/5 1480/2/5 1481/2/5
f 1485/2/5 1484/2/5 1483/2/5
f 1486/2/5 1484/2/5 1485/2/5
f 1489/2/5 1488/2/5 1487/2/5
f 1490/2/5 1488/2/5 1489/2/5
f 1493/2/5 1492/2/5 1491/2/5
f 1494/2/5 1492/2/5 1493/2/5
f 1495/2/5 1493/2/5 1491/2/5
f 1496/2/5 1492/2/5 1494/2/5
f 1497/2/5 1495/2/5 1491/2/5
f 1497/2/5 1496/2/5 1495/2/5
f 1498/2/5 1492/2/5 1496/2/5
f 1498/2/5 1496/2/5 1497/2/5
f 1499/3/6 1500/3/6 1501/3/6
f 1501/3/6 1500/3/6 1502/3/6
f 1503/3/6 1504/3/6 1505/3/6
f 1505/3/6 1504/3/6 1506/3/6
f 1506/3/6 1504/3/6 1507/3/6
f 1507/3/6 1504/3/6 1508/3/6
f 1508/3/6 1504/3/6 1509/3/6
f 1509/3/6 1504/3/6 1510/3/6
f 1510/3/6 1504/3/6 1511/3/6
f 1511/3/6 1504/3/6 1512/3/6
f 1512/3/6 1504/3/6 1513/3/6
f 1511/4/6 1512/4/6 1514/4/6
f 1512/1/6 1513/1/6 1515/1/6
f 1514/4/6 1512/4/6 1515/4/6
f 1511/4/6 1514/4/6 1516/4/6
f 1515/1/6 1513/1/6 1517/1/6
f 1505/4/6 1506/4/6 1518/4/6
f 1518/4/6 1506/4/6 1519/4/6
f 1506/1/6 1507/1/6 1520/1/6
f 1519/4/6 1506/4/6 1520/4/6
f 1507/4/6 1508/4/6 1521/4/6
f 1520/1/6 1507/1/6 1521/1/6
f 1508/1/6 1509/1/6 1522/1/6
f 1521/4/6 1508/4/6 1522/4/6
f 1509/4/6 1510/4/6 1523/4/6
f 1522/1/6 1509/1/6 1523/1/6
f 1510/1/6 1511/1/6 1524/1/6
f 1523/4/6 1510/4/6 1524/4/6
f 1516/4/6 1517/4/6 1525/4/6
f 1524/1/6 1511/1/6 1525/1/6
f 1511/4/6 1516/4/6 1525/4/6
f 1517/1/6 1513/1/6 1526/1/6
f 1525/4/6 1517/4/6 1526/4/6
f 1526/1/6 1513/1/6 1527/1/6
f 1528/3/6 1529/3/6 1530/3/6
f 1530/3/6 1529/3/6 1531/3/6
f 1532/3/6 1533/3/6 1534/3/6
f 1534/3/6 1533/3/6 1535/3/6
f 1535/3/6 1533/3/6 1536/3/6
f 1536/3/6 1533/3/6 1537/3/6
f 1537/3/6 1533/3/6 1538/3/6
f 1538/3/6 1533/3/6 1539/3/6
f 1539/3/6 1533/3/6 1540/3/6
f 1540/3/6 1533/3/6 1541/3/6
f 1541/3/6 1533/3/6 1542/3/6
f 1534/4/6 1535/4/6 1543/4/6
f 1543/4/6 1535/4/6 1544/4/6
f 1535/1/6 1536/1/6 1545/1/6
f 1544/4/6 1535/4/6 1545/4/6
f 1536/4/6 1537/4/6 1546/4/6
f 1545/1/6 1536/1/6 1546/1/6
f 1537/1/6 1538/1/6 1547/1/6
f 1546/4/6 1537/4/6 1547/4/6
f 1538/4/6 1539/4/6 1548/4/6
f 1547/1/6 1538/1/6 1548/1/6
f 1539/1/6 1540/1/6 1549/1/6
f 1548/4/6 1539/4/6 1549/4/6
f 1540/4/6 1541/4/6 1550/4/6
f 1549/1/6 1540/1/6 1550/1/6
f 1541/1/6 1542/1/6 1551/1/6
f 1550/4/6 1541/4/6 1551/4/6
f 1551/1/6 1542/1/6 1552/1/6
f 1553/3/6 1554/3/6 1555/3/6
f 1555/3/6 1554/3/6 1556/3/6
f 1557/3/6 1558/3/6 1559/3/6
f 1559/3/6 1558/3/6 1560/3/6
f 1560/3/6 1558/3/6 1561/3/6
f 1561/3/6 1558/3/6 1562/3/6
f 1562/3/6 1558/3/6 1563/3/6
f 1563/3/6 1558/3/6 1564/3/6
f 1564/3/6 1558/3/6 1565/3/6
f 1565/3/6 1558/3/6 1566/3/6
f 1566/3/6 1558/3/6 1567/3/6
f 1567/3/6 1558/3/6 1568/3/6
f 1566/4/6 1567/4/6 1569/4/6
f 1567/1/6 1568/1/6 1570/1/6
f 1569/4/6 1567/4/6 1570/4/6
f 1559/1/6 1560/1/6 1571/1/6
f 1560/4/6 1561/4/6 1572/4/6
f 1571/1/6 1560/1/6 1572/1/6
f 1566/4/6 1569/4/6 1573/4/6
f 1570/1/6 1568/1/6 1574/1/6
f 1571/4/6 1572/4/6 1575/4/6
f 1572/4/6 1561/4/6 1576/4/6
f 1575/4/6 1572/4/6 1576/4/6
f 1561/1/6 1562/1/6 1577/1/6
f 1576/4/6 1561/4/6 1577/4/6
f 1562/4/6 1563/4/6 1578/4/6
f 1577/1/6 1562/1/6 1578/1/6
f 1563/1/6 1564/1/6 1579/1/6
f 1578/4/6 1563/4/6 1579/4/6
f 1564/4/6 1565/4/6 1580/4/6
f 1579/1/6 1564/1/6 1580/1/6
f 1565/1/6 1566/1/6 1581/1/6
f 1580/4/6 1565/4/6 1581/4/6
f 1566/4/6 1573/4/6 1582/4/6
f 1581/1/6 1566/1/6 1582/1/6
f 1573/4/6 1574/4/6 1582/4/6
f 1574/1/6 1568/1/6 1583/1/6
f 1582/4/6 1574/4/6 1583/4/6
f 1583/1/6 1568/1/6 1584/1/6
f 1585/3/6 1586/3/6 1587/3/6
f 1587/3/6 1586/3/6 1588/3/6
f 1589/3/6 1590/3/6 1591/3/6
f 1591/3/6 1590/3/6 1592/3/6
f 1592/3/6 1590/3/6 1593/3/6
f 1593/3/6 1590/3/6 1594/3/6
f 1594/3/6 1590/3/6 1595/3/6
f 1595/3/6 1590/3/6 1596/3/6
f 1596/3/6 1590/3/6 1597/3/6
f 1597/3/6 1590/3/6 1598/3/6
f 1598/3/6 1590/3/6 1599/3/6
f 1591/4/6 1592/4/6 1600/4/6
f 1600/4/6 1592/4/6 1601/4/6
f 1592/1/6 1593/1/6 1602/1/6
f 1601/4/6 1592/4/6 1602/4/6
f 1593/4/6 1594/4/6 1603/4/6
f 1602/1/6 1593/1/6 1603/1/6
f 1594/1/6 1595/1/6 1604/1/6
f 1603/4/6 1594/4/6 1604/4/6
f 1595/4/6 1596/4/6 1605/4/6
f 1604/1/6 1595/1/6 1605/1/6
f 1596/1/6 1597/1/6 1606/1/6
f 1605/4/6 1596/4/6 1606/4/6
f 1597/4/6 1598/4/6 1607/4/6
f 1606/1/6 1597/1/6 1607/1/6
f 1598/1/6 1599/1/6 1608/1/6
f 1607/4/6 1598/4/6 1608/4/6
f 1608/1/6 1599/1/6 1609/1/6
f 1610/3/6 1611/3/6 1612/3/6
f 1612/3/6 1611/3/6 1613/3/6
f 1614/3/6 1615/3/6 1616/3/6
f 1616/3/6 1615/3/6 1617/3/6
f 1617/3/6 1615/3/6 1618/3/6
f 1618/3/6 1615/3/6 1619/3/6
f 1619/3/6 1615/3/6 1620/3/6
f 1620/3/6 1615/3/6 1621/3/6
f 1621/3/6 1615/3/6 1622/3/6
f 1622/3/6 1615/3/6 1623/3/6
f 1623/3/6 1615/3/6 1624/3/6
f 1622/4/6 1623/4/6 1625/4/6
f 1623/1/6 1624/1/6 1626/1/6
f 1625/4/6 1623/4/6 1626/4/6
f 1622/4/6 1625/4/6 1627/4/6
f 1626/1/6 1624/1/6 1628/1/6
f 1616/4/6 1617/4/6 1629/4/6
f 1629/4/6 1617/4/6 1630/4/6
f 1617/1/6 1618/1/6 1631/1/6
f 1630/4/6 1617/4/6 1631/4/6
f 1618/4/6 1619/4/6 1632/4/6
f 1631/1/6 1618/1/6 1632/1/6
f 1619/1/6 1620/1/6 1633/1/6
f 1632/4/6 1619/4/6 1633/4/6
f 1620/4/6 1621/4/6 1634/4/6
f 1633/1/6 1620/1/6 1634/1/6
f 1621/1/6 1622/1/6 1635/1/6
f 1634/4/6 1621/4/6 1635/4/6
f 1627/4/6 1628/4/6 1636/4/6
f 1635/1/6 1622/1/6 1636/1/6
f 1622/4/6 1627/4/6 1636/4/6
f 1628/1/6 1624/1/6 1637/1/6
f 1636/4/6 1628/4/6 1637/4/6
f 1637/1/6 1624/1/6 1638/1/6
f 1639/2/6 1640/2/6 1643/2/6
f 1643/2/6 1640/2/6 1644/2/6
f 1641/2/6 1642/2/6 1645/2/6
f 1645/2/6 1642/2/6 1646/2/6
f 1647/2/6 1648/2/6 1650/2/6
f 1650/2/6 1648/2/6 1651/2/6
f 1649/2/6 1650/2/6 1653/2/6
f 1653/2/6 1650/2/6 1654/2/6
f 1651/2/6 1652/2/6 1655/2/6
f 1655/2/6 1652/2/6 1656/2/6
f 1657/2/6 1658/2/6 1660/2/6
f 1660/2/6 1658/2/6 1661/2/6
f 1659/2/6 1660/2/6 1663/2/6
f 1663/2/6 1660/2/6 1664/2/6
f 1661/2/6 1662/2/6 1665/2/6
f 1665/2/6 1662/2/6 1666/2/6
f 1667/3/6 1668/3/6 1669/3/6
f 1669/3/6 1668/3/6 1670/3/6
f 1671/2/6 1672/2/6 1674/2/6
f 1674/2/6 1672/2/6 1675/2/6
f 1673/2/6 1674/2/6 1677/2/6
f 1677/2/6 1674/2/6 1678/2/6
f 1675/2/6 1676/2/6 1679/2/6
f 1679/2/6 1676/2/6 1680/2/6
f 1681/3/6 1682/3/6 1683/3/6
f 1683/3/6 1682/3/6 1684/3/6
f 1684/3/6 1682/3/6 1685/3/6
f 1685/3/6 1682/3/6 1686/3/6
f 1686/3/6 1682/3/6 1687/3/6
f 1687/3/6 1682/3/6 1688/3/6
f 1688/3/6 1682/3/6 1689/3/6
f 1689/3/6 1682/3/6 1690/3/6
f 1690/3/6 1682/3/6 1691/3/6
f 1683/4/6 1684/4/6 1692/4/6
f 1692/4/6 1684/4/6 1693/4/6
f 1684/1/6 1685/1/6 1694/1/6
f 1693/4/6 1684/4/6 1694/4/6
f 1685/4/6 1686/4/6 1695/4/6
f 1694/1/6 1685/1/6 1695/1/6
f 1686/1/6 1687/1/6 1696/1/6
f 1695/4/6 1686/4/6 1696/4/6
f 1687/4/6 1688/4/6 1697/4/6
f 1696/1/6 1687/1/6 1697/1/6
f 1688/1/6 1689/1/6 1698/1/6
f 1697/4/6 1688/4/6 1698/4/6
f 1689/4/6 1690/4/6 1699/4/6
f 1698/1/6 1689/1/6 1699/1/6
f 1690/1/6 1691/1/6 1700/1/6
f 1699/4/6 1690/4/6 1700/4/6
f 1700/1/6 1691/1/6 1701/1/6
f 1702/2/6 1703/2/6 1705/2/6
f 1705/2/6 1703/2/6 1706/2/6
f 1704/2/6 1705/2/6 1708/2/6
f 1708/2/6 1705/2/6 1709/2/6
f 1706/2/6 1707/2/6 1710/2/6
f 1710/2/6 1707/2/6 1711/2/6
f 1712/2/6 1713/2/6 1715/2/6
f 1715/2/6 1713/2/6 1716/2/6
f 1714/2/6 1715/2/6 1718/2/6
f 1718/2/6 1715/2/6 1719/2/6
f 1716/2/6 1717/2/6 1720/2/6
f 1720/2/6 1717/2/6 1721/2/6
f 1722/2/6 1723/2/6 1725/2/6
f 1725/2/6 1723/2/6 1726/2/6
f 1724/2/6 1725/2/6 1728/2/6
f 1728/2/6 1725/2/6 1729/2/6
f 1726/2/6 1727/2/6 1730/2/6
f 1730/2/6 1727/2/6 1731/2/6
f 1732/3/6 1733/3/6 1734/3/6
f 1734/3/6 1733/3/6 1735/3/6
f 1736/2/6 1737/2/6 1739/2/6
f 1739/2/6 1737/2/6 1740/2/6
f 1738/2/6 1739/2/6 1742/2/6
f 1742/2/6 1739/2/6 1743/2/6
f 1740/2/6 1741/2/6 1744/2/6
f 1744/2/6 1741/2/6 1745/2/6
f 1746/3/6 1747/3/6 1748/3/6
f 1748/3/6 1747/3/6 1749/3/6
f 1749/3/6 1747/3/6 1750/3/6
f 1750/3/6 1747/3/6 1751/3/6
f 1751/3/6 1747/3/6 1752/3/6
f 1752/3/6 1747/3/6 1753/3/6
f 1753/3/6 1747/3/6 1754/3/6
f 1754/3/6 1747/3/6 1755/3/6
f 1755/3/6 1747/3/6 1756/3/6
f 1754/4/6 1755/4/6 1757/4/6
f 1755/1/6 1756/1/6 1758/1/6
f 1757/4/6 1755/4/6 1758/4/6
f 1754/4/6 1757/4/6 1759/4/6
f 1758/1/6 1756/1/6 1760/1/6
f 1748/4/6 1749/4/6 1761/4/6
f 1749/1/6 1750/1/6 1762/1/6
f 1761/4/6 1749/4/6 1762/4/6
f 1750/4/6 1751/4/6 1763/4/6
f 1762/1/6 1750/1/6 1763/1/6
f 1751/1/6 1752/1/6 1764/1/6
f 1763/4/6 1751/4/6 1764/4/6
f 1752/4/6 1753/4/6 1765/4/6
f 1764/1/6 1752/1/6 1765/1/6
f 1753/1/6 1754/1/6 1766/1/6
f 1765/4/6 1753/4/6 1766/4/6
f 1759/4/6 1760/4/6 1767/4/6
f 1766/1/6 1754/1/6 1767/1/6
f 1754/4/6 1759/4/6 1767/4/6
f 1760/1/6 1756/1/6 1768/1/6
f 1767/4/6 1760/4/6 1768/4/6
f 1768/1/6 1756/1/6 1769/1/6
f 1770/2/6 1771/2/6 1773/2/6
f 1773/2/6 1771/2/6 1774/2/6
f 1772/2/6 1773/2/6 1776/2/6
f 1776/2/6 1773/2/6 1777/2/6
f 1774/2/6 1775/2/6 1778/2/6
f 1778/2/6 1775/2/6 1779/2/6
f 1780/2/6 1781/2/6 1783/2/6
f 1783/2/6 1781/2/6 1784/2/6
f 1782/2/6 1783/2/6 1786/2/6
f 1786/2/6 1783/2/6 1787/2/6
f 1784/2/6 1785/2/6 1788/2/6
f 1788/2/6 1785/2/6 1789/2/6
f 1790/2/6 1791/2/6 1793/2/6
f 1793/2/6 1791/2/6 1794/2/6
f 1792/2/6 1793/2/6 1796/2/6
f 1796/2/6 1793/2/6 1797/2/6
f 1794/2/6 1795/2/6 1798/2/6
f 1798/2/6 1795/2/6 1799/2/6
f 1800/2/6 1801/2/6 1803/2/6
f 1803/2/6 1801/2/6 1804/2/6
f 1802/2/6 1803/2/6 1806/2/6
f 1806/2/6 1803/2/6 1807/2/6
f 1804/2/6 1805/2/6 1808/2/6
f 1808/2/6 1805/2/6 1809/2/6
f 1810/2/6 1811/2/6 1813/2/6
f 1813/2/6 1811/2/6 1814/2/6
f 1812/2/6 1813/2/6 1816/2/6
f 1816/2/6 1813/2/6 1817/2/6
f 1814/2/6 1815/2/6 1818/2/6
f 1818/2/6 1815/2/6 1819/2/6
f 1820/2/6 1821/2/6 1823/2/6
f 1823/2/6 1821/2/6 1824/2/6
f 1822/2/6 1823/2/6 1826/2/6
f 1826/2/6 1823/2/6 1827/2/6
f 1824/2/6 1825/2/6 1828/2/6
f 1828/2/6 1825/2/6 1829/2/6
f 1830/2/6 1831/2/6 1833/2/6
f 1833/2/6 1831/2/6 1834/2/6
f 1832/2/6 1833/2/6 1836/2/6
f 1836/2/6 1833/2/6 1837/2/6
f 1834/2/6 1835/2/6 1838/2/6
f 1838/2/6 1835/2/6 1839/2/6
f 1840/2/6 1841/2/6 1843/2/6
f 1843/2/6 1841/2/6 1844/2/6
f 1842/2/6 1843/2/6 1846/2/6
f 1846/2/6 1843/2/6 1847/2/6
f 1844/2/6 1845/2/6 1848/2/6
f 1848/2/6 1845/2/6 1849/2/6
f 1850/2/6 1851/2/6 1853/2/6
f 1853/2/6 1851/2/6 1854/2/6
f 1852/2/6 1853/2/6 1856/2/6
f 1856/2/6 1853/2/6 1857/2/6
f 1854/2/6 1855/2/6 1858/2/6
f 1858/2/6 1855/2/6 1859/2/6
f 1860/2/6 1861/2/6 1863/2/6
f 1863/2/6 1861/2/6 1864/2/6
f 1862/2/6 1863/2/6 1866/2/6
f 1866/2/6 1863/2/6 1867/2/6
f 1864/2/6 1865/2/6 1868/2/6
f 1868/2/6 1865/2/6 1869/2/6
f 1870/2/6 1871/2/6 1873/2/6
f 1873/2/6 1871/2/6 1874/2/6
f 1872/2/6 1873/2/6 1876/2/6
f 1876/2/6 1873/2/6 1877/2/6
f 1874/2/6 1875/2/6 1878/2/6
f 1878/2/6 1875/2/6 1879/2/6
f 1880/2/6 1881/2/6 1883/2/6
f 1883/2/6 1881/2/6 1884/2/6
f 1882/2/6 1883/2/6 1886/2/6
f 1886/2/6 1883/2/6 1887/2/6
f 1884/2/6 1885/2/6 1888/2/6
f 1888/2/6 1885/2/6 1889/2/6
f 1890/2/6 1891/2/6 1893/2/6
f 1893/2/6 1891/2/6 1894/2/6
f 1892/2/6 1893/2/6 1896/2/6
f 1896/2/6 1893/2/6 1897/2/6
f 1894/2/6 1895/2/6 1898/2/6
f 1898/2/6 1895/2/6 1899/2/6
f 1900/2/6 1901/2/6 1903/2/6
f 1903/2/6 1901/2/6 1904/2/6
f 1902/2/6 1903/2/6 1906/2/6
f 1906/2/6 1903/2/6 1907/2/6
f 1904/2/6 1905/2/6 1908/2/6
f 1908/2/6 1905/2/6 1909/2/6
f 1910/2/6 1911/2/6 1913/2/6
f 1913/2/6 1911/2/6 1914/2/6
f 1912/2/6 1913/2/6 1916/2/6
f 1916/2/6 1913/2/6 1917/2/6
f 1914/2/6 1915/2/6 1918/2/6
f 1918/2/6 1915/2/6 1919/2/6
f 1920/2/6 1921/2/6 1923/2/6
f 1923/2/6 1921/2/6 1924/2/6
f 1922/2/6 1923/2/6 1926/2/6
f 1926/2/6 1923/2/6 1927/2/6
f 1924/2/6 1925/2/6 1928/2/6
f 1928/2/6 1925/2/6 1929/2/6
f 1930/2/6 1931/2/6 1933/2/6
f 1933/2/6 1931/2/6 1934/2/6
f 1932/2/6 1933/2/6 1936/2/6
f 1936/2/6 1933/2/6 1937/2/6
f 1934/2/6 1935/2/6 1938/2/6
f 1938/2/6 1935/2/6 1939/2/6
f 1940/2/6 1941/2/6 1942/2/6
f 1942/2/6 1941/2/6 1943/2/6
