# MagicaVoxel @ Ephtracy

# group
o 

# material
mtllib classroom_chair.mtl
usemtl palette

# normals
vn -1 0 0
vn 1 0 0
vn 0 0 1
vn 0 0 -1
vn 0 -1 0
vn 0 1 0

# texcoords
vt 0.970703 0.5
vt 0.974609 0.5

# verts
v -1.3 0.4 -1.2
v -1.3 0.4 -3.1
v -1.3 0.6 -1.2
v -1.3 0.6 -3.1
v -1.3 3.1 0.1
v -1.3 3.1 -2.7
v -1.3 3.2 0.1
v -1.3 3.2 -2.7
v -1.2 0 -1.1
v -1.2 0 -1.4
v -1.2 0 -2.9
v -1.2 0 -3.2
v -1.2 0.4 -1.2
v -1.2 0.4 -1.4
v -1.2 0.4 -2.9
v -1.2 0.4 -3.1
v -1.2 0.6 -1.2
v -1.2 0.6 -1.4
v -1.2 0.6 -1.5
v -1.2 0.6 -1.7
v -1.2 0.6 -2
v -1.2 0.6 -2.3
v -1.2 0.6 -2.6
v -1.2 0.6 -2.8
v -1.2 0.6 -2.9
v -1.2 0.6 -3.1
v -1.2 0.7 -1.5
v -1.2 0.7 -1.7
v -1.2 0.7 -2
v -1.2 0.7 -2.3
v -1.2 0.7 -2.6
v -1.2 0.7 -2.8
v -1.2 1.9 -1.4
v -1.2 1.9 -2.9
v -1.2 2 -1.4
v -1.2 2 -1.7
v -1.2 2 -2
v -1.2 2 -2.3
v -1.2 2 -2.6
v -1.2 2 -2.9
v -1.2 2.1 -1.7
v -1.2 2.1 -2
v -1.2 2.1 -2.3
v -1.2 2.1 -2.6
v -1.2 3 -0.5
v -1.2 3 -1.1
v -1.2 3 -1.4
v -1.2 3 -2.9
v -1.2 3.1 0.2
v -1.2 3.1 0.1
v -1.2 3.1 -0.5
v -1.2 3.1 -2.7
v -1.2 3.1 -2.8
v -1.2 3.2 0.2
v -1.2 3.2 0.1
v -1.2 3.2 -2.7
v -1.2 3.2 -2.8
v -1.2 3.3 -2.8
v -1.2 3.3 -2.9
v -1.2 3.8 -2.8
v -1.2 3.8 -2.9
v -1.2 4.3 -2.8
v -1.2 4.3 -3.2
v -1.1 1.8 -1.4
v -1.1 1.8 -2.9
v -1.1 1.9 -1.4
v -1.1 1.9 -2.9
v -1.1 3 0
v -1.1 3 -0.5
v -1.1 3.1 0.3
v -1.1 3.1 0.2
v -1.1 3.1 0
v -1.1 3.1 -0.5
v -1.1 3.2 0.3
v -1.1 3.2 0.2
v -1 1.6 -1.4
v -1 1.6 -2.9
v -1 1.8 -1.4
v -1 1.8 -2.9
v -0.9 0.4 -1.4
v -0.9 0.4 -2.9
v -0.9 0.6 -1.4
v -0.9 0.6 -1.5
v -0.9 0.6 -1.7
v -0.9 0.6 -2
v -0.9 0.6 -2.3
v -0.9 0.6 -2.6
v -0.9 0.6 -2.8
v -0.9 0.6 -2.9
v -0.9 3 0.1
v -0.9 3 0
v -0.9 3.1 0.1
v -0.9 3.1 0
v 0.8 0.4 -1.2
v 0.8 0.4 -3.1
v 0.8 0.6 -1.2
v 0.8 0.6 -1.5
v 0.8 0.6 -1.7
v 0.8 0.6 -2
v 0.8 0.6 -2.3
v 0.8 0.6 -2.6
v 0.8 0.6 -2.8
v 0.8 0.6 -3.1
v 0.9 0 -1.1
v 0.9 0 -1.4
v 0.9 0 -2.9
v 0.9 0 -3.2
v 0.9 0.4 -1.2
v 0.9 0.4 -1.4
v 0.9 0.4 -2.9
v 0.9 0.4 -3.1
v 0.9 0.6 -1.2
v 0.9 0.6 -1.4
v 0.9 0.6 -2.9
v 0.9 0.6 -3.1
v 0.9 1.6 -1.3
v 0.9 1.6 -1.4
v 0.9 1.6 -2.9
v 0.9 1.6 -3
v 0.9 1.8 -1.2
v 0.9 1.8 -1.3
v 0.9 1.8 -3
v 0.9 1.8 -3.1
v 0.9 1.9 -1.1
v 0.9 1.9 -1.2
v 0.9 1.9 -3.1
v 0.9 1.9 -3.2
v 0.9 2 -1.4
v 0.9 2 -1.7
v 0.9 2 -2
v 0.9 2 -2.3
v 0.9 2 -2.6
v 0.9 2 -2.9
v 0.9 2.1 -2.9
v 0.9 2.1 -3.2
v 0.9 3 -2.9
v 0.9 3 -3
v 0.9 3.3 -2.9
v 0.9 3.3 -3
v 0.9 3.8 -2.9
v 0.9 3.8 -3
v 0.9 4.3 -3
v 0.9 4.3 -3.2
v 1.2 0.4 -1.4
v 1.2 0.4 -2.9
v 1.2 0.6 -1.4
v 1.2 0.6 -1.5
v 1.2 0.6 -1.7
v 1.2 0.6 -2
v 1.2 0.6 -2.3
v 1.2 0.6 -2.6
v 1.2 0.6 -2.8
v 1.2 0.6 -2.9
v -1.2 0.4 -1.4
v -1.2 0.4 -2.9
v -1.2 0.6 -1.4
v -1.2 0.6 -1.5
v -1.2 0.6 -1.7
v -1.2 0.6 -2
v -1.2 0.6 -2.3
v -1.2 0.6 -2.6
v -1.2 0.6 -2.8
v -1.2 0.6 -2.9
v -0.9 0 -1.1
v -0.9 0 -1.4
v -0.9 0 -2.9
v -0.9 0 -3.2
v -0.9 0.4 -1.2
v -0.9 0.4 -1.4
v -0.9 0.4 -2.9
v -0.9 0.4 -3.1
v -0.9 0.6 -1.2
v -0.9 0.6 -1.4
v -0.9 0.6 -2.9
v -0.9 0.6 -3.1
v -0.9 1.6 -1.3
v -0.9 1.6 -1.4
v -0.9 1.6 -2.9
v -0.9 1.6 -3
v -0.9 1.8 -1.2
v -0.9 1.8 -1.3
v -0.9 1.8 -3
v -0.9 1.8 -3.1
v -0.9 1.9 -1.1
v -0.9 1.9 -1.2
v -0.9 1.9 -3.1
v -0.9 1.9 -3.2
v -0.9 2 -1.4
v -0.9 2 -1.7
v -0.9 2 -2
v -0.9 2 -2.3
v -0.9 2 -2.6
v -0.9 2 -2.9
v -0.9 2.1 -1.1
v -0.9 2.1 -1.4
v -0.9 2.1 -2.9
v -0.9 2.1 -3.2
v -0.9 3 -1.1
v -0.9 3 -1.4
v -0.9 3 -2.8
v -0.9 3 -2.9
v -0.9 3 -3
v -0.9 3.1 -1.4
v -0.9 3.1 -1.8
v -0.9 3.1 -2.8
v -0.9 3.2 -1.8
v -0.9 3.2 -2.8
v -0.9 3.3 -2.9
v -0.9 3.3 -3
v -0.9 3.8 -2.9
v -0.9 3.8 -3
v -0.9 4.3 -3
v -0.9 4.3 -3.2
v -0.8 0.4 -1.2
v -0.8 0.4 -3.1
v -0.8 0.6 -1.2
v -0.8 0.6 -1.5
v -0.8 0.6 -1.7
v -0.8 0.6 -2
v -0.8 0.6 -2.3
v -0.8 0.6 -2.6
v -0.8 0.6 -2.8
v -0.8 0.6 -3.1
v -0.3 3 0.1
v -0.3 3 0
v -0.3 3.1 0.1
v -0.3 3.1 0
v -0.1 3 0
v -0.1 3 -0.5
v -0.1 3.1 0.3
v -0.1 3.1 0.2
v -0.1 3.1 0
v -0.1 3.1 -0.5
v -0.1 3.1 -1.7
v -0.1 3.1 -1.8
v -0.1 3.2 0.3
v -0.1 3.2 0.2
v -0.1 3.2 -1.7
v -0.1 3.2 -1.8
v -1.19209e-07 3 -0.5
v -1.19209e-07 3 -1.4
v -1.19209e-07 3.1 0.2
v -1.19209e-07 3.1 0.1
v -1.19209e-07 3.1 -0.5
v -1.19209e-07 3.1 -1.4
v -1.19209e-07 3.1 -1.6
v -1.19209e-07 3.1 -1.7
v -1.19209e-07 3.2 0.2
v -1.19209e-07 3.2 0.1
v -1.19209e-07 3.2 -1.6
v -1.19209e-07 3.2 -1.7
v 0.0999999 3.1 0.1
v 0.0999999 3.1 -1.6
v 0.0999999 3.2 0.1
v 0.0999999 3.2 -1.6
v 0.9 0.4 -1.4
v 0.9 0.4 -2.9
v 0.9 0.6 -1.4
v 0.9 0.6 -1.5
v 0.9 0.6 -1.7
v 0.9 0.6 -2
v 0.9 0.6 -2.3
v 0.9 0.6 -2.6
v 0.9 0.6 -2.8
v 0.9 0.6 -2.9
v 1 1.6 -1.4
v 1 1.6 -2.9
v 1 1.8 -1.4
v 1 1.8 -2.9
v 1.1 1.8 -1.4
v 1.1 1.8 -2.9
v 1.1 1.9 -1.4
v 1.1 1.9 -2.9
v 1.2 0 -1.1
v 1.2 0 -1.4
v 1.2 0 -2.9
v 1.2 0 -3.2
v 1.2 0.4 -1.2
v 1.2 0.4 -1.4
v 1.2 0.4 -2.9
v 1.2 0.4 -3.1
v 1.2 0.6 -1.2
v 1.2 0.6 -1.4
v 1.2 0.6 -2.9
v 1.2 0.6 -3.1
v 1.2 1.9 -1.4
v 1.2 1.9 -2.9
v 1.2 2 -1.1
v 1.2 2 -1.4
v 1.2 2 -1.7
v 1.2 2 -2
v 1.2 2 -2.3
v 1.2 2 -2.6
v 1.2 2 -2.9
v 1.2 2.1 -1.1
v 1.2 2.1 -1.4
v 1.2 2.1 -1.7
v 1.2 2.1 -2
v 1.2 2.1 -2.3
v 1.2 2.1 -2.6
v 1.2 3 -2.8
v 1.2 3 -2.9
v 1.2 3.3 -2.8
v 1.2 3.3 -2.9
v 1.2 3.8 -2.8
v 1.2 3.8 -2.9
v 1.2 4.3 -2.8
v 1.2 4.3 -3.2
v 1.3 0.4 -1.2
v 1.3 0.4 -3.1
v 1.3 0.6 -1.2
v 1.3 0.6 -1.5
v 1.3 0.6 -1.7
v 1.3 0.6 -2
v 1.3 0.6 -2.3
v 1.3 0.6 -2.6
v 1.3 0.6 -2.8
v 1.3 0.6 -3.1
v 1.3 0.7 -1.5
v 1.3 0.7 -1.7
v 1.3 0.7 -2
v 1.3 0.7 -2.3
v 1.3 0.7 -2.6
v 1.3 0.7 -2.8
v -1.1 3.1 0.3
v -1.1 3.2 0.3
v -0.1 3.1 0.3
v -0.1 3.2 0.3
v -1.2 3.1 0.2
v -1.2 3.2 0.2
v -1.1 3.1 0.2
v -1.1 3.2 0.2
v -0.1 3.1 0.2
v -0.1 3.2 0.2
v -1.19209e-07 3.1 0.2
v -1.19209e-07 3.2 0.2
v -1.3 3.1 0.1
v -1.3 3.2 0.1
v -1.2 3.1 0.1
v -1.2 3.2 0.1
v -0.9 3 0.1
v -0.9 3.1 0.1
v -0.3 3 0.1
v -0.3 3.1 0.1
v -1.19209e-07 3.1 0.1
v -1.19209e-07 3.2 0.1
v 0.0999999 3.1 0.1
v 0.0999999 3.2 0.1
v -1.1 3 0
v -1.1 3.1 0
v -0.9 3 0
v -0.9 3.1 0
v -0.3 3 0
v -0.3 3.1 0
v -0.1 3 0
v -0.1 3.1 0
v -1.2 3 -0.5
v -1.2 3.1 -0.5
v -1.1 3 -0.5
v -1.1 3.1 -0.5
v -0.1 3 -0.5
v -0.1 3.1 -0.5
v -1.19209e-07 3 -0.5
v -1.19209e-07 3.1 -0.5
v -1.2 0 -1.1
v -1.2 3 -1.1
v -0.9 0 -1.1
v -0.9 1.9 -1.1
v -0.9 2 -1.1
v -0.9 2.1 -1.1
v -0.9 3 -1.1
v 0.9 0 -1.1
v 0.9 1.9 -1.1
v 1.2 0 -1.1
v 1.2 2 -1.1
v 1.2 2.1 -1.1
v -1.3 0.4 -1.2
v -1.3 0.6 -1.2
v -1.2 0.4 -1.2
v -1.2 0.6 -1.2
v -0.9 0.4 -1.2
v -0.9 0.6 -1.2
v -0.9 1.8 -1.2
v -0.9 1.9 -1.2
v -0.8 0.4 -1.2
v -0.8 0.6 -1.2
v 0.8 0.4 -1.2
v 0.8 0.6 -1.2
v 0.9 0.4 -1.2
v 0.9 0.6 -1.2
v 0.9 1.8 -1.2
v 0.9 1.9 -1.2
v 1.2 0.4 -1.2
v 1.2 0.6 -1.2
v 1.3 0.4 -1.2
v 1.3 0.6 -1.2
v -0.9 1.6 -1.3
v -0.9 1.8 -1.3
v 0.9 1.6 -1.3
v 0.9 1.8 -1.3
v -1.2 0.6 -1.5
v -1.2 0.7 -1.5
v -0.9 0.6 -1.5
v -0.8 0.6 -1.5
v 0.8 0.6 -1.5
v 0.9 0.6 -1.5
v 1.2 0.6 -1.5
v 1.3 0.6 -1.5
v 1.3 0.7 -1.5
v -1.2 2 -1.7
v -1.2 2.1 -1.7
v -0.9 2 -1.7
v 0.9 2 -1.7
v 1.2 2 -1.7
v 1.2 2.1 -1.7
v -1.2 0.6 -2
v -1.2 0.7 -2
v -0.9 0.6 -2
v -0.8 0.6 -2
v 0.8 0.6 -2
v 0.9 0.6 -2
v 1.2 0.6 -2
v 1.3 0.6 -2
v 1.3 0.7 -2
v -1.2 2 -2.3
v -1.2 2.1 -2.3
v -0.9 2 -2.3
v 0.9 2 -2.3
v 1.2 2 -2.3
v 1.2 2.1 -2.3
v -1.2 0.6 -2.6
v -1.2 0.7 -2.6
v -0.9 0.6 -2.6
v -0.8 0.6 -2.6
v 0.8 0.6 -2.6
v 0.9 0.6 -2.6
v 1.2 0.6 -2.6
v 1.3 0.6 -2.6
v 1.3 0.7 -2.6
v -1.2 3.2 -2.8
v -1.2 3.3 -2.8
v -1.2 3.8 -2.8
v -1.2 4.3 -2.8
v -0.9 3 -2.8
v -0.9 3.1 -2.8
v -0.9 3.2 -2.8
v 1.2 3 -2.8
v 1.2 3.3 -2.8
v 1.2 3.8 -2.8
v 1.2 4.3 -2.8
v -1.2 0 -2.9
v -1.2 0.4 -2.9
v -1.2 0.6 -2.9
v -1.2 1.9 -2.9
v -1.2 2 -2.9
v -1.2 3 -2.9
v -1.2 3.3 -2.9
v -1.2 3.8 -2.9
v -1.1 1.8 -2.9
v -1.1 1.9 -2.9
v -1 1.6 -2.9
v -1 1.8 -2.9
v -0.9 0 -2.9
v -0.9 0.4 -2.9
v -0.9 0.6 -2.9
v -0.9 1.6 -2.9
v -0.9 2 -2.9
v -0.9 2.1 -2.9
v -0.9 3 -2.9
v -0.9 3.3 -2.9
v -0.9 3.8 -2.9
v 0.9 0 -2.9
v 0.9 0.4 -2.9
v 0.9 0.6 -2.9
v 0.9 1.6 -2.9
v 0.9 2 -2.9
v 0.9 2.1 -2.9
v 0.9 3 -2.9
v 0.9 3.3 -2.9
v 0.9 3.8 -2.9
v 1 1.6 -2.9
v 1 1.8 -2.9
v 1.1 1.8 -2.9
v 1.1 1.9 -2.9
v 1.2 0 -2.9
v 1.2 0.4 -2.9
v 1.2 0.6 -2.9
v 1.2 1.9 -2.9
v 1.2 2 -2.9
v 1.2 3 -2.9
v 1.2 3.3 -2.9
v 1.2 3.8 -2.9
v -1.2 0 -1.4
v -1.2 0.4 -1.4
v -1.2 0.6 -1.4
v -1.2 1.9 -1.4
v -1.2 2 -1.4
v -1.2 3 -1.4
v -1.1 1.8 -1.4
v -1.1 1.9 -1.4
v -1 1.6 -1.4
v -1 1.8 -1.4
v -0.9 0 -1.4
v -0.9 0.4 -1.4
v -0.9 0.6 -1.4
v -0.9 1.6 -1.4
v -0.9 2 -1.4
v -0.9 2.1 -1.4
v -0.9 3 -1.4
v -0.9 3.1 -1.4
v -1.19209e-07 3 -1.4
v -1.19209e-07 3.1 -1.4
v 0.9 0 -1.4
v 0.9 0.4 -1.4
v 0.9 0.6 -1.4
v 0.9 1.6 -1.4
v 0.9 2 -1.4
v 1 1.6 -1.4
v 1 1.8 -1.4
v 1.1 1.8 -1.4
v 1.1 1.9 -1.4
v 1.2 0 -1.4
v 1.2 0.4 -1.4
v 1.2 0.6 -1.4
v 1.2 1.9 -1.4
v 1.2 2 -1.4
v 1.2 2.1 -1.4
v -1.19209e-07 3.1 -1.6
v -1.19209e-07 3.2 -1.6
v 0.0999999 3.1 -1.6
v 0.0999999 3.2 -1.6
v -1.2 0.6 -1.7
v -1.2 0.7 -1.7
v -0.9 0.6 -1.7
v -0.8 0.6 -1.7
v -0.1 3.1 -1.7
v -0.1 3.2 -1.7
v -1.19209e-07 3.1 -1.7
v -1.19209e-07 3.2 -1.7
v 0.8 0.6 -1.7
v 0.9 0.6 -1.7
v 1.2 0.6 -1.7
v 1.3 0.6 -1.7
v 1.3 0.7 -1.7
v -0.9 3.1 -1.8
v -0.9 3.2 -1.8
v -0.1 3.1 -1.8
v -0.1 3.2 -1.8
v -1.2 2 -2
v -1.2 2.1 -2
v -0.9 2 -2
v 0.9 2 -2
v 1.2 2 -2
v 1.2 2.1 -2
v -1.2 0.6 -2.3
v -1.2 0.7 -2.3
v -0.9 0.6 -2.3
v -0.8 0.6 -2.3
v 0.8 0.6 -2.3
v 0.9 0.6 -2.3
v 1.2 0.6 -2.3
v 1.3 0.6 -2.3
v 1.3 0.7 -2.3
v -1.2 2 -2.6
v -1.2 2.1 -2.6
v -0.9 2 -2.6
v 0.9 2 -2.6
v 1.2 2 -2.6
v 1.2 2.1 -2.6
v -1.3 3.1 -2.7
v -1.3 3.2 -2.7
v -1.2 3.1 -2.7
v -1.2 3.2 -2.7
v -1.2 0.6 -2.8
v -1.2 0.7 -2.8
v -0.9 0.6 -2.8
v -0.8 0.6 -2.8
v 0.8 0.6 -2.8
v 0.9 0.6 -2.8
v 1.2 0.6 -2.8
v 1.3 0.6 -2.8
v 1.3 0.7 -2.8
v -0.9 1.6 -3
v -0.9 1.8 -3
v -0.9 3 -3
v -0.9 3.3 -3
v -0.9 3.8 -3
v -0.9 4.3 -3
v 0.9 1.6 -3
v 0.9 1.8 -3
v 0.9 3 -3
v 0.9 3.3 -3
v 0.9 3.8 -3
v 0.9 4.3 -3
v -1.3 0.4 -3.1
v -1.3 0.6 -3.1
v -1.2 0.4 -3.1
v -1.2 0.6 -3.1
v -0.9 0.4 -3.1
v -0.9 0.6 -3.1
v -0.9 1.8 -3.1
v -0.9 1.9 -3.1
v -0.8 0.4 -3.1
v -0.8 0.6 -3.1
v 0.8 0.4 -3.1
v 0.8 0.6 -3.1
v 0.9 0.4 -3.1
v 0.9 0.6 -3.1
v 0.9 1.8 -3.1
v 0.9 1.9 -3.1
v 1.2 0.4 -3.1
v 1.2 0.6 -3.1
v 1.3 0.4 -3.1
v 1.3 0.6 -3.1
v -1.2 0 -3.2
v -1.2 4.3 -3.2
v -0.9 0 -3.2
v -0.9 1.9 -3.2
v -0.9 2 -3.2
v -0.9 2.1 -3.2
v -0.9 4.3 -3.2
v 0.9 0 -3.2
v 0.9 1.9 -3.2
v 0.9 2 -3.2
v 0.9 2.1 -3.2
v 0.9 4.3 -3.2
v 1.2 0 -3.2
v 1.2 4.3 -3.2
v -1.2 0 -1.1
v -0.9 0 -1.1
v 0.9 0 -1.1
v 1.2 0 -1.1
v -1.2 0 -1.4
v -0.9 0 -1.4
v 0.9 0 -1.4
v 1.2 0 -1.4
v -1.2 0 -2.9
v -0.9 0 -2.9
v 0.9 0 -2.9
v 1.2 0 -2.9
v -1.2 0 -3.2
v -0.9 0 -3.2
v 0.9 0 -3.2
v 1.2 0 -3.2
v -1.3 0.4 -1.2
v -1.2 0.4 -1.2
v -0.9 0.4 -1.2
v -0.8 0.4 -1.2
v 0.8 0.4 -1.2
v 0.9 0.4 -1.2
v 1.2 0.4 -1.2
v 1.3 0.4 -1.2
v -1.2 0.4 -1.4
v -0.9 0.4 -1.4
v 0.9 0.4 -1.4
v 1.2 0.4 -1.4
v -1.2 0.4 -2.9
v -0.9 0.4 -2.9
v 0.9 0.4 -2.9
v 1.2 0.4 -2.9
v -1.3 0.4 -3.1
v -1.2 0.4 -3.1
v -0.9 0.4 -3.1
v -0.8 0.4 -3.1
v 0.8 0.4 -3.1
v 0.9 0.4 -3.1
v 1.2 0.4 -3.1
v 1.3 0.4 -3.1
v -1.2 0.6 -1.5
v -0.9 0.6 -1.5
v -0.8 0.6 -1.5
v 0.8 0.6 -1.5
v 0.9 0.6 -1.5
v 1.2 0.6 -1.5
v -1.2 0.6 -1.7
v -0.9 0.6 -1.7
v -0.8 0.6 -1.7
v 0.8 0.6 -1.7
v 0.9 0.6 -1.7
v 1.2 0.6 -1.7
v -1.2 0.6 -2
v -0.9 0.6 -2
v -0.8 0.6 -2
v 0.8 0.6 -2
v 0.9 0.6 -2
v 1.2 0.6 -2
v -1.2 0.6 -2.3
v -0.9 0.6 -2.3
v -0.8 0.6 -2.3
v 0.8 0.6 -2.3
v 0.9 0.6 -2.3
v 1.2 0.6 -2.3
v -1.2 0.6 -2.6
v -0.9 0.6 -2.6
v -0.8 0.6 -2.6
v 0.8 0.6 -2.6
v 0.9 0.6 -2.6
v 1.2 0.6 -2.6
v -1.2 0.6 -2.8
v -0.9 0.6 -2.8
v -0.8 0.6 -2.8
v 0.8 0.6 -2.8
v 0.9 0.6 -2.8
v 1.2 0.6 -2.8
v -0.9 1.6 -1.3
v 0.9 1.6 -1.3
v -1 1.6 -1.4
v -0.9 1.6 -1.4
v 0.9 1.6 -1.4
v 1 1.6 -1.4
v -1 1.6 -2.9
v -0.9 1.6 -2.9
v 0.9 1.6 -2.9
v 1 1.6 -2.9
v -0.9 1.6 -3
v 0.9 1.6 -3
v -0.9 1.8 -1.2
v 0.9 1.8 -1.2
v -0.9 1.8 -1.3
v 0.9 1.8 -1.3
v -1.1 1.8 -1.4
v -1 1.8 -1.4
v 1 1.8 -1.4
v 1.1 1.8 -1.4
v -1.1 1.8 -2.9
v -1 1.8 -2.9
v 1 1.8 -2.9
v 1.1 1.8 -2.9
v -0.9 1.8 -3
v 0.9 1.8 -3
v -0.9 1.8 -3.1
v 0.9 1.8 -3.1
v -0.9 1.9 -1.1
v 0.9 1.9 -1.1
v -0.9 1.9 -1.2
v 0.9 1.9 -1.2
v -1.2 1.9 -1.4
v -1.1 1.9 -1.4
v 1.1 1.9 -1.4
v 1.2 1.9 -1.4
v -1.2 1.9 -2.9
v -1.1 1.9 -2.9
v 1.1 1.9 -2.9
v 1.2 1.9 -2.9
v -0.9 1.9 -3.1
v 0.9 1.9 -3.1
v -0.9 1.9 -3.2
v 0.9 1.9 -3.2
v -0.9 2 -1.7
v 0.9 2 -1.7
v -0.9 2 -2
v 0.9 2 -2
v -0.9 2 -2.3
v 0.9 2 -2.3
v -0.9 2 -2.6
v 0.9 2 -2.6
v -0.9 3 0.1
v -0.3 3 0.1
v -1.1 3 0
v -0.9 3 0
v -0.3 3 0
v -0.1 3 0
v -1.2 3 -0.5
v -1.1 3 -0.5
v -0.1 3 -0.5
v -1.19209e-07 3 -0.5
v -1.2 3 -1.1
v -0.9 3 -1.1
v -1.2 3 -1.4
v -0.9 3 -1.4
v -1.19209e-07 3 -1.4
v -0.9 3 -2.8
v 1.2 3 -2.8
v -1.2 3 -2.9
v -0.9 3 -2.9
v 0.9 3 -2.9
v 1.2 3 -2.9
v -0.9 3 -3
v 0.9 3 -3
v -1.1 3.1 0.3
v -0.1 3.1 0.3
v -1.2 3.1 0.2
v -1.1 3.1 0.2
v -0.1 3.1 0.2
v -1.19209e-07 3.1 0.2
v -1.3 3.1 0.1
v -1.2 3.1 0.1
v -0.9 3.1 0.1
v -0.3 3.1 0.1
v -1.19209e-07 3.1 0.1
v 0.0999999 3.1 0.1
v -1.1 3.1 0
v -0.9 3.1 0
v -0.3 3.1 0
v -0.1 3.1 0
v -1.2 3.1 -0.5
v -1.1 3.1 -0.5
v -0.1 3.1 -0.5
v -1.19209e-07 3.1 -0.5
v -0.9 3.1 -1.4
v -1.19209e-07 3.1 -1.4
v -1.19209e-07 3.1 -1.6
v 0.0999999 3.1 -1.6
v -0.1 3.1 -1.7
v -1.19209e-07 3.1 -1.7
v -0.9 3.1 -1.8
v -0.1 3.1 -1.8
v -1.3 3.1 -2.7
v -1.2 3.1 -2.7
v -1.2 3.8 -2.8
v 1.2 3.8 -2.8
v -1.2 3.8 -2.9
v -0.9 3.8 -2.9
v 0.9 3.8 -2.9
v 1.2 3.8 -2.9
v -0.9 3.8 -3
v 0.9 3.8 -3
v -1.3 0.6 -1.2
v -1.2 0.6 -1.2
v -0.9 0.6 -1.2
v -0.8 0.6 -1.2
v 0.8 0.6 -1.2
v 0.9 0.6 -1.2
v 1.2 0.6 -1.2
v 1.3 0.6 -1.2
v -1.2 0.6 -1.4
v -0.9 0.6 -1.4
v 0.9 0.6 -1.4
v 1.2 0.6 -1.4
v -1.2 0.6 -1.5
v -0.9 0.6 -1.5
v -0.8 0.6 -1.5
v 0.8 0.6 -1.5
v 0.9 0.6 -1.5
v 1.2 0.6 -1.5
v 1.3 0.6 -1.5
v -1.2 0.6 -1.7
v -0.9 0.6 -1.7
v -0.8 0.6 -1.7
v 0.8 0.6 -1.7
v 0.9 0.6 -1.7
v 1.2 0.6 -1.7
v 1.3 0.6 -1.7
v -1.2 0.6 -2
v -0.9 0.6 -2
v -0.8 0.6 -2
v 0.8 0.6 -2
v 0.9 0.6 -2
v 1.2 0.6 -2
v 1.3 0.6 -2
v -1.2 0.6 -2.3
v -0.9 0.6 -2.3
v -0.8 0.6 -2.3
v 0.8 0.6 -2.3
v 0.9 0.6 -2.3
v 1.2 0.6 -2.3
v 1.3 0.6 -2.3
v -1.2 0.6 -2.6
v -0.9 0.6 -2.6
v -0.8 0.6 -2.6
v 0.8 0.6 -2.6
v 0.9 0.6 -2.6
v 1.2 0.6 -2.6
v 1.3 0.6 -2.6
v -1.2 0.6 -2.8
v -0.9 0.6 -2.8
v -0.8 0.6 -2.8
v 0.8 0.6 -2.8
v 0.9 0.6 -2.8
v 1.2 0.6 -2.8
v 1.3 0.6 -2.8
v -1.2 0.6 -2.9
v -0.9 0.6 -2.9
v 0.9 0.6 -2.9
v 1.2 0.6 -2.9
v -1.3 0.6 -3.1
v -1.2 0.6 -3.1
v -0.9 0.6 -3.1
v -0.8 0.6 -3.1
v 0.8 0.6 -3.1
v 0.9 0.6 -3.1
v 1.2 0.6 -3.1
v 1.3 0.6 -3.1
v -1.2 0.7 -1.5
v 1.3 0.7 -1.5
v -1.2 0.7 -1.7
v 1.3 0.7 -1.7
v -1.2 0.7 -2
v 1.3 0.7 -2
v -1.2 0.7 -2.3
v 1.3 0.7 -2.3
v -1.2 0.7 -2.6
v 1.3 0.7 -2.6
v -1.2 0.7 -2.8
v 1.3 0.7 -2.8
v -1.2 2 -1.4
v -0.9 2 -1.4
v 0.9 2 -1.4
v 1.2 2 -1.4
v -1.2 2 -1.7
v -0.9 2 -1.7
v 0.9 2 -1.7
v 1.2 2 -1.7
v -1.2 2 -2
v -0.9 2 -2
v 0.9 2 -2
v 1.2 2 -2
v -1.2 2 -2.3
v -0.9 2 -2.3
v 0.9 2 -2.3
v 1.2 2 -2.3
v -1.2 2 -2.6
v -0.9 2 -2.6
v 0.9 2 -2.6
v 1.2 2 -2.6
v -1.2 2 -2.9
v -0.9 2 -2.9
v 0.9 2 -2.9
v 1.2 2 -2.9
v -0.9 2.1 -1.1
v 1.2 2.1 -1.1
v -0.9 2.1 -1.4
v 1.2 2.1 -1.4
v -1.2 2.1 -1.7
v 1.2 2.1 -1.7
v -1.2 2.1 -2
v 1.2 2.1 -2
v -1.2 2.1 -2.3
v 1.2 2.1 -2.3
v -1.2 2.1 -2.6
v 1.2 2.1 -2.6
v -0.9 2.1 -2.9
v 0.9 2.1 -2.9
v -0.9 2.1 -3.2
v 0.9 2.1 -3.2
v -1.1 3.2 0.3
v -0.1 3.2 0.3
v -1.2 3.2 0.2
v -1.1 3.2 0.2
v -0.1 3.2 0.2
v -1.19209e-07 3.2 0.2
v -1.3 3.2 0.1
v -1.2 3.2 0.1
v -1.19209e-07 3.2 0.1
v 0.0999999 3.2 0.1
v -1.19209e-07 3.2 -1.6
v 0.0999999 3.2 -1.6
v -0.1 3.2 -1.7
v -1.19209e-07 3.2 -1.7
v -0.9 3.2 -1.8
v -0.1 3.2 -1.8
v -1.3 3.2 -2.7
v -1.2 3.2 -2.7
v -1.2 3.2 -2.8
v -0.9 3.2 -2.8
v -1.2 3.3 -2.8
v 1.2 3.3 -2.8
v -1.2 3.3 -2.9
v -0.9 3.3 -2.9
v 0.9 3.3 -2.9
v 1.2 3.3 -2.9
v -0.9 3.3 -3
v 0.9 3.3 -3
v -1.2 4.3 -2.8
v 1.2 4.3 -2.8
v -0.9 4.3 -3
v 0.9 4.3 -3
v -1.2 4.3 -3.2
v -0.9 4.3 -3.2
v 0.9 4.3 -3.2
v 1.2 4.3 -3.2

# faces
f 3/1/1 2/1/1 1/1/1
f 4/1/1 2/1/1 3/1/1
f 7/2/1 6/2/1 5/2/1
f 8/2/1 6/2/1 7/2/1
f 13/1/1 10/1/1 9/1/1
f 14/1/1 10/1/1 13/1/1
f 15/1/1 12/1/1 11/1/1
f 16/1/1 12/1/1 15/1/1
f 17/1/1 13/1/1 9/1/1
f 26/1/1 12/1/1 16/1/1
f 27/2/1 20/2/1 19/2/1
f 28/2/1 20/2/1 27/2/1
f 29/2/1 22/2/1 21/2/1
f 30/2/1 22/2/1 29/2/1
f 31/2/1 24/2/1 23/2/1
f 32/2/1 24/2/1 31/2/1
f 33/1/1 18/1/1 17/1/1
f 34/1/1 26/1/1 25/1/1
f 35/1/1 33/1/1 17/1/1
f 35/1/1 34/1/1 33/1/1
f 36/1/1 34/1/1 35/1/1
f 37/1/1 34/1/1 36/1/1
f 38/1/1 34/1/1 37/1/1
f 39/1/1 34/1/1 38/1/1
f 40/1/1 26/1/1 34/1/1
f 40/1/1 34/1/1 39/1/1
f 41/2/1 37/2/1 36/2/1
f 42/2/1 37/2/1 41/2/1
f 43/2/1 39/2/1 38/2/1
f 44/2/1 39/2/1 43/2/1
f 46/1/1 17/1/1 9/1/1
f 46/1/1 35/1/1 17/1/1
f 47/1/1 35/1/1 46/1/1
f 48/1/1 26/1/1 40/1/1
f 51/1/1 47/1/1 46/1/1
f 51/1/1 46/1/1 45/1/1
f 51/1/1 48/1/1 47/1/1
f 52/1/1 48/1/1 51/1/1
f 53/1/1 48/1/1 52/1/1
f 54/2/1 50/2/1 49/2/1
f 55/2/1 50/2/1 54/2/1
f 56/2/1 53/2/1 52/2/1
f 57/1/1 48/1/1 53/1/1
f 57/2/1 53/2/1 56/2/1
f 58/1/1 48/1/1 57/1/1
f 59/1/1 26/1/1 48/1/1
f 59/1/1 48/1/1 58/1/1
f 61/1/1 26/1/1 59/1/1
f 62/1/1 61/1/1 60/1/1
f 63/1/1 12/1/1 26/1/1
f 63/1/1 61/1/1 62/1/1
f 63/1/1 26/1/1 61/1/1
f 66/1/1 65/1/1 64/1/1
f 67/1/1 65/1/1 66/1/1
f 72/1/1 69/1/1 68/1/1
f 73/1/1 69/1/1 72/1/1
f 74/2/1 71/2/1 70/2/1
f 75/2/1 71/2/1 74/2/1
f 78/1/1 77/1/1 76/1/1
f 79/1/1 77/1/1 78/1/1
f 82/1/1 81/1/1 80/1/1
f 83/1/1 81/1/1 82/1/1
f 84/1/1 81/1/1 83/1/1
f 85/1/1 81/1/1 84/1/1
f 86/1/1 81/1/1 85/1/1
f 87/1/1 81/1/1 86/1/1
f 88/1/1 81/1/1 87/1/1
f 89/1/1 81/1/1 88/1/1
f 92/1/1 91/1/1 90/1/1
f 93/1/1 91/1/1 92/1/1
f 96/1/1 95/1/1 94/1/1
f 97/1/1 95/1/1 96/1/1
f 98/1/1 95/1/1 97/1/1
f 99/1/1 95/1/1 98/1/1
f 100/1/1 95/1/1 99/1/1
f 101/1/1 95/1/1 100/1/1
f 102/1/1 95/1/1 101/1/1
f 103/1/1 95/1/1 102/1/1
f 108/1/1 105/1/1 104/1/1
f 109/1/1 105/1/1 108/1/1
f 110/1/1 107/1/1 106/1/1
f 111/1/1 107/1/1 110/1/1
f 112/1/1 108/1/1 104/1/1
f 115/1/1 107/1/1 111/1/1
f 116/1/1 113/1/1 112/1/1
f 117/1/1 113/1/1 116/1/1
f 118/1/1 115/1/1 114/1/1
f 119/1/1 115/1/1 118/1/1
f 120/1/1 112/1/1 104/1/1
f 120/1/1 116/1/1 112/1/1
f 121/1/1 116/1/1 120/1/1
f 122/1/1 115/1/1 119/1/1
f 123/1/1 107/1/1 115/1/1
f 123/1/1 115/1/1 122/1/1
f 124/1/1 120/1/1 104/1/1
f 125/1/1 120/1/1 124/1/1
f 126/1/1 107/1/1 123/1/1
f 127/1/1 107/1/1 126/1/1
f 128/1/1 118/1/1 117/1/1
f 129/1/1 118/1/1 128/1/1
f 130/1/1 118/1/1 129/1/1
f 131/1/1 118/1/1 130/1/1
f 132/1/1 118/1/1 131/1/1
f 133/1/1 118/1/1 132/1/1
f 136/1/1 135/1/1 134/1/1
f 137/1/1 135/1/1 136/1/1
f 139/1/1 135/1/1 137/1/1
f 140/1/1 139/1/1 138/1/1
f 141/1/1 135/1/1 139/1/1
f 141/1/1 139/1/1 140/1/1
f 142/1/1 135/1/1 141/1/1
f 143/1/1 135/1/1 142/1/1
f 146/1/1 145/1/1 144/1/1
f 147/1/1 145/1/1 146/1/1
f 148/1/1 145/1/1 147/1/1
f 149/1/1 145/1/1 148/1/1
f 150/1/1 145/1/1 149/1/1
f 151/1/1 145/1/1 150/1/1
f 152/1/1 145/1/1 151/1/1
f 153/1/1 145/1/1 152/1/1
f 154/1/2 155/1/2 156/1/2
f 156/1/2 155/1/2 157/1/2
f 157/1/2 155/1/2 158/1/2
f 158/1/2 155/1/2 159/1/2
f 159/1/2 155/1/2 160/1/2
f 160/1/2 155/1/2 161/1/2
f 161/1/2 155/1/2 162/1/2
f 162/1/2 155/1/2 163/1/2
f 164/1/2 165/1/2 168/1/2
f 168/1/2 165/1/2 169/1/2
f 166/1/2 167/1/2 170/1/2
f 170/1/2 167/1/2 171/1/2
f 164/1/2 168/1/2 172/1/2
f 171/1/2 167/1/2 175/1/2
f 172/1/2 173/1/2 176/1/2
f 176/1/2 173/1/2 177/1/2
f 174/1/2 175/1/2 178/1/2
f 178/1/2 175/1/2 179/1/2
f 164/1/2 172/1/2 180/1/2
f 172/1/2 176/1/2 180/1/2
f 180/1/2 176/1/2 181/1/2
f 179/1/2 175/1/2 182/1/2
f 175/1/2 167/1/2 183/1/2
f 182/1/2 175/1/2 183/1/2
f 164/1/2 180/1/2 184/1/2
f 184/1/2 180/1/2 185/1/2
f 183/1/2 167/1/2 186/1/2
f 186/1/2 167/1/2 187/1/2
f 177/1/2 178/1/2 188/1/2
f 188/1/2 178/1/2 189/1/2
f 189/1/2 178/1/2 190/1/2
f 190/1/2 178/1/2 191/1/2
f 191/1/2 178/1/2 192/1/2
f 192/1/2 178/1/2 193/1/2
f 194/1/2 195/1/2 198/1/2
f 198/1/2 195/1/2 199/1/2
f 196/1/2 197/1/2 201/1/2
f 201/1/2 197/1/2 202/1/2
f 199/1/2 200/1/2 203/1/2
f 203/1/2 200/1/2 204/1/2
f 204/1/2 200/1/2 205/1/2
f 204/2/2 205/2/2 206/2/2
f 206/2/2 205/2/2 207/2/2
f 202/1/2 197/1/2 209/1/2
f 208/1/2 209/1/2 210/1/2
f 209/1/2 197/1/2 211/1/2
f 210/1/2 209/1/2 211/1/2
f 211/1/2 197/1/2 212/1/2
f 212/1/2 197/1/2 213/1/2
f 214/1/2 215/1/2 216/1/2
f 216/1/2 215/1/2 217/1/2
f 217/1/2 215/1/2 218/1/2
f 218/1/2 215/1/2 219/1/2
f 219/1/2 215/1/2 220/1/2
f 220/1/2 215/1/2 221/1/2
f 221/1/2 215/1/2 222/1/2
f 222/1/2 215/1/2 223/1/2
f 224/1/2 225/1/2 226/1/2
f 226/1/2 225/1/2 227/1/2
f 228/1/2 229/1/2 232/1/2
f 232/1/2 229/1/2 233/1/2
f 230/2/2 231/2/2 236/2/2
f 236/2/2 231/2/2 237/2/2
f 234/2/2 235/2/2 238/2/2
f 238/2/2 235/2/2 239/2/2
f 240/1/2 241/1/2 244/1/2
f 244/1/2 241/1/2 245/1/2
f 242/2/2 243/2/2 248/2/2
f 248/2/2 243/2/2 249/2/2
f 246/2/2 247/2/2 250/2/2
f 250/2/2 247/2/2 251/2/2
f 252/2/2 253/2/2 254/2/2
f 254/2/2 253/2/2 255/2/2
f 256/1/2 257/1/2 258/1/2
f 258/1/2 257/1/2 259/1/2
f 259/1/2 257/1/2 260/1/2
f 260/1/2 257/1/2 261/1/2
f 261/1/2 257/1/2 262/1/2
f 262/1/2 257/1/2 263/1/2
f 263/1/2 257/1/2 264/1/2
f 264/1/2 257/1/2 265/1/2
f 266/1/2 267/1/2 268/1/2
f 268/1/2 267/1/2 269/1/2
f 270/1/2 271/1/2 272/1/2
f 272/1/2 271/1/2 273/1/2
f 274/1/2 275/1/2 278/1/2
f 278/1/2 275/1/2 279/1/2
f 276/1/2 277/1/2 280/1/2
f 280/1/2 277/1/2 281/1/2
f 274/1/2 278/1/2 282/1/2
f 281/1/2 277/1/2 285/1/2
f 282/1/2 283/1/2 286/1/2
f 284/1/2 285/1/2 287/1/2
f 282/1/2 286/1/2 288/1/2
f 286/1/2 287/1/2 288/1/2
f 274/1/2 282/1/2 288/1/2
f 288/1/2 287/1/2 289/1/2
f 289/1/2 287/1/2 290/1/2
f 290/1/2 287/1/2 291/1/2
f 291/1/2 287/1/2 292/1/2
f 292/1/2 287/1/2 293/1/2
f 287/1/2 285/1/2 294/1/2
f 293/1/2 287/1/2 294/1/2
f 288/2/2 289/2/2 295/2/2
f 295/2/2 289/2/2 296/2/2
f 290/2/2 291/2/2 297/2/2
f 297/2/2 291/2/2 298/2/2
f 292/2/2 293/2/2 299/2/2
f 299/2/2 293/2/2 300/2/2
f 294/1/2 285/1/2 302/1/2
f 301/1/2 302/1/2 303/1/2
f 302/1/2 285/1/2 304/1/2
f 303/1/2 302/1/2 304/1/2
f 304/1/2 285/1/2 306/1/2
f 305/1/2 306/1/2 307/1/2
f 285/1/2 277/1/2 308/1/2
f 307/1/2 306/1/2 308/1/2
f 306/1/2 285/1/2 308/1/2
f 309/1/2 310/1/2 311/1/2
f 311/1/2 310/1/2 312/1/2
f 312/1/2 310/1/2 313/1/2
f 313/1/2 310/1/2 314/1/2
f 314/1/2 310/1/2 315/1/2
f 315/1/2 310/1/2 316/1/2
f 316/1/2 310/1/2 317/1/2
f 317/1/2 310/1/2 318/1/2
f 312/2/2 313/2/2 319/2/2
f 319/2/2 313/2/2 320/2/2
f 314/2/2 315/2/2 321/2/2
f 321/2/2 315/2/2 322/2/2
f 316/2/2 317/2/2 323/2/2
f 323/2/2 317/2/2 324/2/2
f 327/2/3 326/2/3 325/2/3
f 328/2/3 326/2/3 327/2/3
f 331/2/3 330/2/3 329/2/3
f 332/2/3 330/2/3 331/2/3
f 335/2/3 334/2/3 333/2/3
f 336/2/3 334/2/3 335/2/3
f 339/2/3 338/2/3 337/2/3
f 340/2/3 338/2/3 339/2/3
f 343/1/3 342/1/3 341/1/3
f 344/1/3 342/1/3 343/1/3
f 347/2/3 346/2/3 345/2/3
f 348/2/3 346/2/3 347/2/3
f 351/1/3 350/1/3 349/1/3
f 352/1/3 350/1/3 351/1/3
f 355/1/3 354/1/3 353/1/3
f 356/1/3 354/1/3 355/1/3
f 359/1/3 358/1/3 357/1/3
f 360/1/3 358/1/3 359/1/3
f 363/1/3 362/1/3 361/1/3
f 364/1/3 362/1/3 363/1/3
f 367/1/3 366/1/3 365/1/3
f 368/1/3 366/1/3 367/1/3
f 369/1/3 366/1/3 368/1/3
f 370/1/3 366/1/3 369/1/3
f 371/1/3 366/1/3 370/1/3
f 373/1/3 369/1/3 368/1/3
f 374/1/3 373/1/3 372/1/3
f 375/2/3 370/2/3 369/2/3
f 375/1/3 373/1/3 374/1/3
f 375/1/3 369/1/3 373/1/3
f 376/2/3 370/2/3 375/2/3
f 379/1/3 378/1/3 377/1/3
f 380/1/3 378/1/3 379/1/3
f 385/1/3 382/1/3 381/1/3
f 386/1/3 382/1/3 385/1/3
f 389/1/3 388/1/3 387/1/3
f 390/1/3 388/1/3 389/1/3
f 391/1/3 384/1/3 383/1/3
f 392/1/3 384/1/3 391/1/3
f 395/1/3 394/1/3 393/1/3
f 396/1/3 394/1/3 395/1/3
f 399/1/3 398/1/3 397/1/3
f 400/1/3 398/1/3 399/1/3
f 403/2/3 402/2/3 401/2/3
f 404/2/3 402/2/3 403/2/3
f 405/2/3 402/2/3 404/2/3
f 406/2/3 402/2/3 405/2/3
f 407/2/3 402/2/3 406/2/3
f 408/2/3 402/2/3 407/2/3
f 409/2/3 402/2/3 408/2/3
f 412/2/3 411/2/3 410/2/3
f 413/2/3 411/2/3 412/2/3
f 414/2/3 411/2/3 413/2/3
f 415/2/3 411/2/3 414/2/3
f 418/2/3 417/2/3 416/2/3
f 419/2/3 417/2/3 418/2/3
f 420/2/3 417/2/3 419/2/3
f 421/2/3 417/2/3 420/2/3
f 422/2/3 417/2/3 421/2/3
f 423/2/3 417/2/3 422/2/3
f 424/2/3 417/2/3 423/2/3
f 427/2/3 426/2/3 425/2/3
f 428/2/3 426/2/3 427/2/3
f 429/2/3 426/2/3 428/2/3
f 430/2/3 426/2/3 429/2/3
f 433/2/3 432/2/3 431/2/3
f 434/2/3 432/2/3 433/2/3
f 435/2/3 432/2/3 434/2/3
f 436/2/3 432/2/3 435/2/3
f 437/2/3 432/2/3 436/2/3
f 438/2/3 432/2/3 437/2/3
f 439/2/3 432/2/3 438/2/3
f 446/1/3 441/1/3 440/1/3
f 447/1/3 445/1/3 444/1/3
f 447/1/3 446/1/3 445/1/3
f 448/1/3 441/1/3 446/1/3
f 448/1/3 446/1/3 447/1/3
f 449/1/3 443/1/3 442/1/3
f 450/1/3 443/1/3 449/1/3
f 459/1/3 452/1/3 451/1/3
f 459/1/3 453/1/3 452/1/3
f 459/1/3 454/1/3 453/1/3
f 460/1/3 454/1/3 459/1/3
f 461/1/3 459/1/3 451/1/3
f 462/1/3 459/1/3 461/1/3
f 463/1/3 461/1/3 451/1/3
f 464/1/3 461/1/3 463/1/3
f 465/1/3 461/1/3 464/1/3
f 466/1/3 461/1/3 465/1/3
f 467/1/3 456/1/3 455/1/3
f 468/1/3 456/1/3 467/1/3
f 469/1/3 456/1/3 468/1/3
f 470/1/3 458/1/3 457/1/3
f 471/1/3 458/1/3 470/1/3
f 475/1/3 467/1/3 466/1/3
f 476/2/3 468/2/3 467/2/3
f 476/1/3 467/1/3 475/1/3
f 477/2/3 468/2/3 476/2/3
f 481/1/3 475/1/3 474/1/3
f 481/1/3 474/1/3 473/1/3
f 481/1/3 473/1/3 472/1/3
f 483/1/3 482/1/3 481/1/3
f 485/1/3 481/1/3 472/1/3
f 485/1/3 484/1/3 483/1/3
f 485/1/3 483/1/3 481/1/3
f 486/1/3 484/1/3 485/1/3
f 487/1/3 484/1/3 486/1/3
f 488/1/3 484/1/3 487/1/3
f 489/1/3 478/1/3 477/1/3
f 489/1/3 477/1/3 476/1/3
f 490/1/3 478/1/3 489/1/3
f 491/1/3 480/1/3 479/1/3
f 492/1/3 480/1/3 491/1/3
f 493/1/4 494/1/4 499/1/4
f 494/1/4 495/1/4 499/1/4
f 495/1/4 496/1/4 499/1/4
f 499/1/4 496/1/4 500/1/4
f 493/1/4 499/1/4 501/1/4
f 501/1/4 499/1/4 502/1/4
f 493/1/4 501/1/4 503/1/4
f 503/1/4 501/1/4 504/1/4
f 504/1/4 501/1/4 505/1/4
f 505/1/4 501/1/4 506/1/4
f 497/1/4 498/1/4 507/1/4
f 507/1/4 498/1/4 508/1/4
f 508/1/4 498/1/4 509/1/4
f 509/1/4 510/1/4 511/1/4
f 511/1/4 510/1/4 512/1/4
f 506/1/4 507/1/4 516/1/4
f 507/2/4 508/2/4 517/2/4
f 516/1/4 507/1/4 517/1/4
f 515/1/4 516/1/4 518/1/4
f 514/1/4 515/1/4 518/1/4
f 513/1/4 514/1/4 518/1/4
f 518/1/4 519/1/4 520/1/4
f 513/1/4 518/1/4 522/1/4
f 520/1/4 521/1/4 522/1/4
f 518/1/4 520/1/4 522/1/4
f 522/1/4 521/1/4 523/1/4
f 523/1/4 521/1/4 524/1/4
f 524/1/4 521/1/4 525/1/4
f 517/2/4 508/2/4 526/2/4
f 526/2/4 508/2/4 527/2/4
f 528/2/4 529/2/4 530/2/4
f 530/2/4 529/2/4 531/2/4
f 532/2/4 533/2/4 534/2/4
f 534/2/4 533/2/4 535/2/4
f 536/2/4 537/2/4 538/2/4
f 538/2/4 537/2/4 539/2/4
f 535/2/4 533/2/4 540/2/4
f 540/2/4 533/2/4 541/2/4
f 541/2/4 533/2/4 542/2/4
f 542/2/4 533/2/4 543/2/4
f 543/2/4 533/2/4 544/2/4
f 545/2/4 546/2/4 547/2/4
f 547/2/4 546/2/4 548/2/4
f 549/2/4 550/2/4 551/2/4
f 551/2/4 550/2/4 552/2/4
f 552/2/4 550/2/4 553/2/4
f 553/2/4 550/2/4 554/2/4
f 555/2/4 556/2/4 557/2/4
f 557/2/4 556/2/4 558/2/4
f 558/2/4 556/2/4 559/2/4
f 559/2/4 556/2/4 560/2/4
f 560/2/4 556/2/4 561/2/4
f 561/2/4 556/2/4 562/2/4
f 562/2/4 556/2/4 563/2/4
f 564/2/4 565/2/4 566/2/4
f 566/2/4 565/2/4 567/2/4
f 567/2/4 565/2/4 568/2/4
f 568/2/4 565/2/4 569/2/4
f 570/2/4 571/2/4 572/2/4
f 572/2/4 571/2/4 573/2/4
f 574/2/4 575/2/4 576/2/4
f 576/2/4 575/2/4 577/2/4
f 577/2/4 575/2/4 578/2/4
f 578/2/4 575/2/4 579/2/4
f 579/2/4 575/2/4 580/2/4
f 580/2/4 575/2/4 581/2/4
f 581/2/4 575/2/4 582/2/4
f 583/1/4 584/1/4 589/1/4
f 589/1/4 584/1/4 590/1/4
f 585/1/4 586/1/4 591/1/4
f 591/1/4 586/1/4 592/1/4
f 587/1/4 588/1/4 593/1/4
f 593/1/4 588/1/4 594/1/4
f 595/1/4 596/1/4 597/1/4
f 597/1/4 596/1/4 598/1/4
f 599/1/4 600/1/4 603/1/4
f 603/1/4 600/1/4 604/1/4
f 605/1/4 606/1/4 607/1/4
f 607/1/4 606/1/4 608/1/4
f 601/1/4 602/1/4 609/1/4
f 609/1/4 602/1/4 610/1/4
f 611/1/4 612/1/4 613/1/4
f 613/1/4 612/1/4 614/1/4
f 615/1/4 616/1/4 617/1/4
f 617/1/4 616/1/4 618/1/4
f 618/1/4 616/1/4 619/1/4
f 619/1/4 616/1/4 620/1/4
f 620/1/4 616/1/4 621/1/4
f 618/1/4 619/1/4 623/1/4
f 619/2/4 620/2/4 624/2/4
f 623/1/4 619/1/4 624/1/4
f 624/2/4 620/2/4 625/2/4
f 622/1/4 623/1/4 627/1/4
f 625/1/4 626/1/4 627/1/4
f 624/1/4 625/1/4 627/1/4
f 623/1/4 624/1/4 627/1/4
f 627/1/4 626/1/4 628/1/4
f 633/1/5 630/1/5 629/1/5
f 634/1/5 630/1/5 633/1/5
f 635/1/5 632/1/5 631/1/5
f 636/1/5 632/1/5 635/1/5
f 641/1/5 638/1/5 637/1/5
f 642/1/5 638/1/5 641/1/5
f 643/1/5 640/1/5 639/1/5
f 644/1/5 640/1/5 643/1/5
f 653/1/5 646/1/5 645/1/5
f 654/1/5 648/1/5 647/1/5
f 655/1/5 650/1/5 649/1/5
f 656/1/5 652/1/5 651/1/5
f 657/1/5 653/1/5 645/1/5
f 658/1/5 648/1/5 654/1/5
f 659/1/5 655/1/5 649/1/5
f 660/1/5 652/1/5 656/1/5
f 661/1/5 657/1/5 645/1/5
f 662/1/5 657/1/5 661/1/5
f 663/1/5 648/1/5 658/1/5
f 664/1/5 648/1/5 663/1/5
f 665/1/5 659/1/5 649/1/5
f 666/1/5 659/1/5 665/1/5
f 667/1/5 652/1/5 660/1/5
f 668/1/5 652/1/5 667/1/5
f 675/2/5 670/2/5 669/2/5
f 676/2/5 670/2/5 675/2/5
f 677/2/5 672/2/5 671/2/5
f 678/2/5 672/2/5 677/2/5
f 679/2/5 674/2/5 673/2/5
f 680/2/5 674/2/5 679/2/5
f 687/2/5 682/2/5 681/2/5
f 688/2/5 682/2/5 687/2/5
f 689/2/5 684/2/5 683/2/5
f 690/2/5 684/2/5 689/2/5
f 691/2/5 686/2/5 685/2/5
f 692/2/5 686/2/5 691/2/5
f 699/2/5 694/2/5 693/2/5
f 700/2/5 694/2/5 699/2/5
f 701/2/5 696/2/5 695/2/5
f 702/2/5 696/2/5 701/2/5
f 703/2/5 698/2/5 697/2/5
f 704/2/5 698/2/5 703/2/5
f 708/1/5 706/1/5 705/1/5
f 709/1/5 706/1/5 708/1/5
f 711/1/5 708/1/5 707/1/5
f 712/1/5 708/1/5 711/1/5
f 713/1/5 710/1/5 709/1/5
f 714/1/5 710/1/5 713/1/5
f 715/1/5 713/1/5 712/1/5
f 716/1/5 713/1/5 715/1/5
f 719/1/5 718/1/5 717/1/5
f 720/1/5 718/1/5 719/1/5
f 725/1/5 722/1/5 721/1/5
f 726/1/5 722/1/5 725/1/5
f 727/1/5 724/1/5 723/1/5
f 728/1/5 724/1/5 727/1/5
f 731/1/5 730/1/5 729/1/5
f 732/1/5 730/1/5 731/1/5
f 735/1/5 734/1/5 733/1/5
f 736/1/5 734/1/5 735/1/5
f 741/1/5 738/1/5 737/1/5
f 742/1/5 738/1/5 741/1/5
f 743/1/5 740/1/5 739/1/5
f 744/1/5 740/1/5 743/1/5
f 747/1/5 746/1/5 745/1/5
f 748/1/5 746/1/5 747/1/5
f 751/2/5 750/2/5 749/2/5
f 752/2/5 750/2/5 751/2/5
f 755/2/5 754/2/5 753/2/5
f 756/2/5 754/2/5 755/2/5
f 760/1/5 758/1/5 757/1/5
f 761/1/5 758/1/5 760/1/5
f 764/1/5 760/1/5 759/1/5
f 764/1/5 762/1/5 761/1/5
f 764/1/5 761/1/5 760/1/5
f 765/1/5 762/1/5 764/1/5
f 767/1/5 764/1/5 763/1/5
f 767/1/5 766/1/5 765/1/5
f 767/1/5 765/1/5 764/1/5
f 768/1/5 766/1/5 767/1/5
f 770/1/5 766/1/5 768/1/5
f 771/1/5 766/1/5 770/1/5
f 772/1/5 770/1/5 769/1/5
f 774/1/5 772/1/5 769/1/5
f 774/1/5 773/1/5 772/1/5
f 775/1/5 773/1/5 774/1/5
f 776/1/5 773/1/5 775/1/5
f 777/1/5 773/1/5 776/1/5
f 778/1/5 776/1/5 775/1/5
f 779/1/5 776/1/5 778/1/5
f 783/2/5 781/2/5 780/2/5
f 784/2/5 781/2/5 783/2/5
f 787/2/5 783/2/5 782/2/5
f 787/2/5 785/2/5 784/2/5
f 787/2/5 784/2/5 783/2/5
f 788/2/5 785/2/5 787/2/5
f 789/2/5 785/2/5 788/2/5
f 790/2/5 785/2/5 789/2/5
f 792/2/5 787/2/5 786/2/5
f 792/2/5 788/2/5 787/2/5
f 793/2/5 788/2/5 792/2/5
f 794/2/5 791/2/5 790/2/5
f 794/2/5 790/2/5 789/2/5
f 795/2/5 791/2/5 794/2/5
f 796/2/5 792/2/5 786/2/5
f 797/2/5 792/2/5 796/2/5
f 798/2/5 791/2/5 795/2/5
f 799/2/5 791/2/5 798/2/5
f 801/2/5 791/2/5 799/2/5
f 802/2/5 791/2/5 801/2/5
f 802/2/5 801/2/5 800/2/5
f 803/2/5 791/2/5 802/2/5
f 804/2/5 802/2/5 800/2/5
f 805/2/5 802/2/5 804/2/5
f 806/2/5 804/2/5 800/2/5
f 807/2/5 804/2/5 806/2/5
f 808/2/5 796/2/5 786/2/5
f 809/2/5 796/2/5 808/2/5
f 812/1/5 811/1/5 810/1/5
f 813/1/5 811/1/5 812/1/5
f 814/1/5 811/1/5 813/1/5
f 815/1/5 811/1/5 814/1/5
f 816/1/5 814/1/5 813/1/5
f 817/1/5 814/1/5 816/1/5
f 818/1/6 819/1/6 826/1/6
f 820/1/6 821/1/6 827/1/6
f 822/1/6 823/1/6 828/1/6
f 824/1/6 825/1/6 829/1/6
f 818/1/6 826/1/6 830/1/6
f 827/1/6 821/1/6 831/1/6
f 831/1/6 821/1/6 832/1/6
f 822/1/6 828/1/6 833/1/6
f 833/1/6 828/1/6 834/1/6
f 829/1/6 825/1/6 835/1/6
f 835/1/6 825/1/6 836/1/6
f 818/1/6 830/1/6 837/1/6
f 818/1/6 837/1/6 844/1/6
f 838/1/6 839/1/6 845/1/6
f 845/1/6 839/1/6 846/1/6
f 840/1/6 841/1/6 847/1/6
f 847/1/6 841/1/6 848/1/6
f 842/1/6 843/1/6 849/1/6
f 849/1/6 843/1/6 850/1/6
f 818/1/6 844/1/6 851/1/6
f 818/1/6 851/1/6 858/1/6
f 852/1/6 853/1/6 859/1/6
f 859/1/6 853/1/6 860/1/6
f 854/1/6 855/1/6 861/1/6
f 861/1/6 855/1/6 862/1/6
f 856/1/6 857/1/6 863/1/6
f 863/1/6 857/1/6 864/1/6
f 818/1/6 858/1/6 865/1/6
f 818/1/6 865/1/6 872/1/6
f 866/1/6 867/1/6 873/1/6
f 868/1/6 869/1/6 874/1/6
f 870/1/6 871/1/6 875/1/6
f 818/1/6 872/1/6 876/1/6
f 876/1/6 872/1/6 877/1/6
f 873/1/6 867/1/6 878/1/6
f 878/1/6 867/1/6 879/1/6
f 868/1/6 874/1/6 880/1/6
f 880/1/6 874/1/6 881/1/6
f 875/1/6 871/1/6 882/1/6
f 882/1/6 871/1/6 883/1/6
f 884/2/6 885/2/6 886/2/6
f 886/2/6 885/2/6 887/2/6
f 888/2/6 889/2/6 890/2/6
f 890/2/6 889/2/6 891/2/6
f 892/2/6 893/2/6 894/2/6
f 894/2/6 893/2/6 895/2/6
f 896/1/6 897/1/6 900/1/6
f 900/1/6 897/1/6 901/1/6
f 898/1/6 899/1/6 902/1/6
f 902/1/6 899/1/6 903/1/6
f 904/1/6 905/1/6 908/1/6
f 908/1/6 905/1/6 909/1/6
f 906/1/6 907/1/6 910/1/6
f 910/1/6 907/1/6 911/1/6
f 912/1/6 913/1/6 916/1/6
f 916/1/6 913/1/6 917/1/6
f 914/1/6 915/1/6 918/1/6
f 918/1/6 915/1/6 919/1/6
f 920/2/6 921/2/6 922/2/6
f 922/2/6 921/2/6 923/2/6
f 924/2/6 925/2/6 926/2/6
f 926/2/6 925/2/6 927/2/6
f 928/2/6 929/2/6 930/2/6
f 930/2/6 929/2/6 931/2/6
f 932/2/6 933/2/6 934/2/6
f 934/2/6 933/2/6 935/2/6
f 936/2/6 937/2/6 939/2/6
f 939/2/6 937/2/6 940/2/6
f 938/2/6 939/2/6 943/2/6
f 940/2/6 941/2/6 943/2/6
f 939/2/6 940/2/6 943/2/6
f 943/2/6 941/2/6 944/2/6
f 942/2/6 943/2/6 946/2/6
f 944/2/6 945/2/6 946/2/6
f 943/2/6 944/2/6 946/2/6
f 946/2/6 945/2/6 947/2/6
f 942/2/6 946/2/6 948/2/6
f 948/2/6 946/2/6 949/2/6
f 942/2/6 948/2/6 950/2/6
f 950/2/6 948/2/6 951/2/6
f 942/2/6 950/2/6 952/2/6
f 952/2/6 950/2/6 953/2/6
f 953/2/6 950/2/6 954/2/6
f 954/2/6 950/2/6 955/2/6
f 956/1/6 957/1/6 958/1/6
f 958/1/6 957/1/6 959/1/6
f 959/1/6 957/1/6 960/1/6
f 960/1/6 957/1/6 961/1/6
f 959/1/6 960/1/6 962/1/6
f 962/1/6 960/1/6 963/1/6
f 964/1/6 965/1/6 966/1/6
f 966/1/6 965/1/6 967/1/6
f 964/1/6 966/1/6 968/1/6
f 968/1/6 966/1/6 969/1/6
f 967/1/6 965/1/6 970/1/6
f 970/1/6 965/1/6 971/1/6
