# MagicaVoxel @ Ephtracy

# group
o 

# material
mtllib classroom_table.mtl
usemtl palette

# normals
vn -1 0 0
vn 1 0 0
vn 0 0 1
vn 0 0 -1
vn 0 -1 0
vn 0 1 0

# texcoords
vt 0.970703 0.5
vt 0.974609 0.5
vt 0.982422 0.5

# verts
v -2.9 3 -0.1
v -2.9 3 -2.7
v -2.9 3.2 -0.1
v -2.9 3.2 -2.7
v -2.8 3 0.1
v -2.8 3 -0.1
v -2.8 3 -2.7
v -2.8 3 -2.9
v -2.8 3.2 0.1
v -2.8 3.2 -0.1
v -2.8 3.2 -2.7
v -2.8 3.2 -2.9
v -2.7 3 0.2
v -2.7 3 0.1
v -2.7 3 -2.9
v -2.7 3 -3
v -2.7 3.2 0.2
v -2.7 3.2 0.1
v -2.7 3.2 -2.9
v -2.7 3.2 -3
v -2.5 3 0.3
v -2.5 3 0.2
v -2.5 3 -3
v -2.5 3 -3.1
v -2.5 3.2 0.3
v -2.5 3.2 0.2
v -2.5 3.2 -3
v -2.5 3.2 -3.1
v -2.4 0 -0.1
v -2.4 0 -0.6
v -2.4 0 -2.2
v -2.4 0 -2.7
v -2.4 1.4 -0.6
v -2.4 1.4 -2.2
v -2.4 3 -0.1
v -2.4 3 -0.6
v -2.4 3 -2.2
v -2.4 3 -2.7
v -2.3 0 0
v -2.3 0 -0.1
v -2.3 0 -2.7
v -2.3 0 -2.8
v -2.3 3 0
v -2.3 3 -0.1
v -2.3 3 -2.7
v -2.3 3 -2.8
v -2 2.4 -2.5
v -2 2.4 -2.6
v -2 2.5 -2.5
v -2 2.5 -2.6
v -2 2.9 -2.5
v -2 2.9 -2.6
v -2 3 -2.5
v -2 3 -2.6
v -1.5 2.6 -2.6
v -1.5 2.6 -2.7
v -1.5 2.8 -2.6
v -1.5 2.8 -2.7
v -0.8 2.7 -2.6
v -0.8 2.7 -2.7
v -0.8 2.8 -2.6
v -0.8 2.8 -2.7
v -0.2 2.5 -1.2
v -0.2 2.5 -2.5
v -0.2 3 -1.2
v -0.2 3 -2.5
v 0.1 2.5 -2.5
v 0.1 2.5 -2.6
v 0.1 2.9 -2.5
v 0.1 2.9 -2.6
v 0.2 2.4 -0.6
v 0.2 2.4 -2.6
v 0.2 2.5 -0.6
v 0.2 2.5 -2.6
v 0.2 2.9 -2.5
v 0.2 2.9 -2.6
v 0.2 3 -2.5
v 0.2 3 -2.6
v 0.7 2.6 -2.6
v 0.7 2.6 -2.7
v 0.7 2.8 -2.6
v 0.7 2.8 -2.7
v 1.4 2.7 -2.6
v 1.4 2.7 -2.7
v 1.4 2.8 -2.6
v 1.4 2.8 -2.7
v 2 2.9 -2.4
v 2 2.9 -2.5
v 2 3 -2.4
v 2 3 -2.5
v 2.1 0 0
v 2.1 0 -0.6
v 2.1 0 -2.2
v 2.1 0 -2.8
v 2.1 2 -0.4
v 2.1 2 -0.5
v 2.1 2.2 -0.6
v 2.1 2.2 -2.2
v 2.1 2.4 -0.5
v 2.1 2.4 -2.5
v 2.1 2.5 -2.2
v 2.1 2.5 -2.5
v 2.1 2.5 -2.6
v 2.1 2.9 -2.4
v 2.1 2.9 -2.5
v 2.1 2.9 -2.6
v 2.1 3 0
v 2.1 3 -0.4
v 2.1 3 -2.2
v 2.1 3 -2.4
v 2.1 3 -2.5
v 2.1 3 -2.8
v 2.2 1.5 -0.6
v 2.2 1.5 -2.2
v 2.2 2.2 -0.6
v 2.2 2.2 -2.2
v 2.2 2.5 -1.2
v 2.2 2.5 -2.2
v 2.2 3 -1.2
v 2.2 3 -2.2
v -2.2 1.4 -0.6
v -2.2 1.4 -2.2
v -2.2 2.2 -0.6
v -2.2 2.2 -2.2
v -2.2 2.5 -1.2
v -2.2 2.5 -2.2
v -2.2 3 -1.2
v -2.2 3 -2.2
v -2.1 0 0
v -2.1 0 -0.6
v -2.1 0 -2.2
v -2.1 0 -2.8
v -2.1 2 -0.4
v -2.1 2 -0.5
v -2.1 2.2 -0.6
v -2.1 2.2 -2.2
v -2.1 2.4 -0.5
v -2.1 2.4 -2.5
v -2.1 2.5 -2.2
v -2.1 2.5 -2.5
v -2.1 2.5 -2.6
v -2.1 2.9 -2.4
v -2.1 2.9 -2.5
v -2.1 2.9 -2.6
v -2.1 3 0
v -2.1 3 -0.4
v -2.1 3 -2.2
v -2.1 3 -2.4
v -2.1 3 -2.5
v -2.1 3 -2.8
v -2 2.9 -2.4
v -2 2.9 -2.5
v -2 3 -2.4
v -2 3 -2.5
v -1.4 2.7 -2.6
v -1.4 2.7 -2.7
v -1.4 2.8 -2.6
v -1.4 2.8 -2.7
v -0.7 2.6 -2.6
v -0.7 2.6 -2.7
v -0.7 2.8 -2.6
v -0.7 2.8 -2.7
v -0.2 2.4 -0.6
v -0.2 2.4 -2.6
v -0.2 2.5 -0.6
v -0.2 2.5 -2.6
v -0.2 2.9 -2.5
v -0.2 2.9 -2.6
v -0.2 3 -2.5
v -0.2 3 -2.6
v -0.0999999 2.5 -2.5
v -0.0999999 2.5 -2.6
v -0.0999999 2.9 -2.5
v -0.0999999 2.9 -2.6
v 0.2 2.5 -1.2
v 0.2 2.5 -2.5
v 0.2 3 -1.2
v 0.2 3 -2.5
v 0.8 2.7 -2.6
v 0.8 2.7 -2.7
v 0.8 2.8 -2.6
v 0.8 2.8 -2.7
v 1.5 2.6 -2.6
v 1.5 2.6 -2.7
v 1.5 2.8 -2.6
v 1.5 2.8 -2.7
v 2 2.4 -2.5
v 2 2.4 -2.6
v 2 2.5 -2.5
v 2 2.5 -2.6
v 2 2.9 -2.5
v 2 2.9 -2.6
v 2 3 -2.5
v 2 3 -2.6
v 2.3 0 0
v 2.3 0 -0.1
v 2.3 0 -2.7
v 2.3 0 -2.8
v 2.3 3 0
v 2.3 3 -0.1
v 2.3 3 -2.7
v 2.3 3 -2.8
v 2.4 0 -0.1
v 2.4 0 -0.6
v 2.4 0 -2.2
v 2.4 0 -2.7
v 2.4 1.5 -0.6
v 2.4 1.5 -2.2
v 2.4 3 -0.1
v 2.4 3 -0.6
v 2.4 3 -2.2
v 2.4 3 -2.7
v 2.5 3 0.3
v 2.5 3 0.2
v 2.5 3 -3
v 2.5 3 -3.1
v 2.5 3.2 0.3
v 2.5 3.2 0.2
v 2.5 3.2 -3
v 2.5 3.2 -3.1
v 2.7 3 0.2
v 2.7 3 0.1
v 2.7 3 -2.9
v 2.7 3 -3
v 2.7 3.2 0.2
v 2.7 3.2 0.1
v 2.7 3.2 -2.9
v 2.7 3.2 -3
v 2.8 3 0.1
v 2.8 3 -0.1
v 2.8 3 -2.7
v 2.8 3 -2.9
v 2.8 3.2 0.1
v 2.8 3.2 -0.1
v 2.8 3.2 -2.7
v 2.8 3.2 -2.9
v 2.9 3 -0.1
v 2.9 3 -2.7
v 2.9 3.2 -0.1
v 2.9 3.2 -2.7
v -2.5 3 0.3
v -2.5 3.2 0.3
v 2.5 3 0.3
v 2.5 3.2 0.3
v -2.7 3 0.2
v -2.7 3.2 0.2
v -2.5 3 0.2
v -2.5 3.2 0.2
v 2.5 3 0.2
v 2.5 3.2 0.2
v 2.7 3 0.2
v 2.7 3.2 0.2
v -2.8 3 0.1
v -2.8 3.2 0.1
v -2.7 3 0.1
v -2.7 3.2 0.1
v 2.7 3 0.1
v 2.7 3.2 0.1
v 2.8 3 0.1
v 2.8 3.2 0.1
v -2.3 0 0
v -2.3 3 0
v -2.1 0 0
v -2.1 3 0
v 2.1 0 0
v 2.1 3 0
v 2.3 0 0
v 2.3 3 0
v -2.9 3 -0.1
v -2.9 3.2 -0.1
v -2.8 3 -0.1
v -2.8 3.2 -0.1
v -2.4 0 -0.1
v -2.4 3 -0.1
v -2.3 0 -0.1
v -2.3 3 -0.1
v 2.3 0 -0.1
v 2.3 3 -0.1
v 2.4 0 -0.1
v 2.4 3 -0.1
v 2.8 3 -0.1
v 2.8 3.2 -0.1
v 2.9 3 -0.1
v 2.9 3.2 -0.1
v -2.1 2 -0.4
v -2.1 3 -0.4
v 2.1 2 -0.4
v 2.1 3 -0.4
v -2.4 0 -2.2
v -2.4 1.4 -2.2
v -2.3 1.4 -2.2
v -2.2 1.4 -2.2
v -2.2 2.2 -2.2
v -2.2 2.5 -2.2
v -2.2 3 -2.2
v -2.1 0 -2.2
v -2.1 2.2 -2.2
v -2.1 2.5 -2.2
v -2.1 3 -2.2
v 2.1 0 -2.2
v 2.1 2.2 -2.2
v 2.1 2.5 -2.2
v 2.1 3 -2.2
v 2.2 1.5 -2.2
v 2.2 2.2 -2.2
v 2.2 2.5 -2.2
v 2.2 3 -2.2
v 2.3 1.5 -2.2
v 2.4 0 -2.2
v 2.4 1.5 -2.2
v -2.1 2.9 -2.4
v -2.1 3 -2.4
v -2 2.9 -2.4
v -2 3 -2.4
v 2 2.9 -2.4
v 2 3 -2.4
v 2.1 2.9 -2.4
v 2.1 3 -2.4
v -2.1 2.5 -2.5
v -2.1 2.9 -2.5
v -2 2.9 -2.5
v -2 3 -2.5
v -0.2 2.5 -2.5
v -0.2 3 -2.5
v 0.2 2.5 -2.5
v 0.2 3 -2.5
v 2 2.9 -2.5
v 2 3 -2.5
v 2.1 2.5 -2.5
v 2.1 2.9 -2.5
v -2.1 2 -0.5
v -2.1 2.4 -0.5
v 2.1 2 -0.5
v 2.1 2.4 -0.5
v -2.4 0 -0.6
v -2.4 1.4 -0.6
v -2.3 1.4 -0.6
v -2.2 1.4 -0.6
v -2.2 2.2 -0.6
v -2.1 0 -0.6
v -2.1 2.2 -0.6
v -0.2 2.4 -0.6
v -0.2 2.5 -0.6
v 0.2 2.4 -0.6
v 0.2 2.5 -0.6
v 2.1 0 -0.6
v 2.1 2.2 -0.6
v 2.2 1.5 -0.6
v 2.2 2.2 -0.6
v 2.3 1.5 -0.6
v 2.4 0 -0.6
v 2.4 1.5 -0.6
v -2.2 2.5 -1.2
v -2.2 3 -1.2
v -0.2 2.5 -1.2
v -0.2 3 -1.2
v 0.2 2.5 -1.2
v 0.2 3 -1.2
v 2.2 2.5 -1.2
v 2.2 3 -1.2
v -2.1 2.4 -2.5
v -2.1 2.5 -2.5
v -2.1 2.9 -2.5
v -2.1 3 -2.5
v -2 2.4 -2.5
v -2 2.5 -2.5
v -2 2.9 -2.5
v -2 3 -2.5
v -0.2 2.9 -2.5
v -0.2 3 -2.5
v -0.0999999 2.5 -2.5
v -0.0999999 2.9 -2.5
v 0.1 2.5 -2.5
v 0.1 2.9 -2.5
v 0.2 2.9 -2.5
v 0.2 3 -2.5
v 2 2.4 -2.5
v 2 2.5 -2.5
v 2 2.9 -2.5
v 2 3 -2.5
v 2.1 2.4 -2.5
v 2.1 2.5 -2.5
v 2.1 2.9 -2.5
v 2.1 3 -2.5
v -2.1 2.5 -2.6
v -2.1 2.9 -2.6
v -2 2.4 -2.6
v -2 2.5 -2.6
v -2 2.9 -2.6
v -2 3 -2.6
v -1.5 2.6 -2.6
v -1.5 2.8 -2.6
v -1.4 2.7 -2.6
v -1.4 2.8 -2.6
v -0.8 2.7 -2.6
v -0.8 2.8 -2.6
v -0.7 2.6 -2.6
v -0.7 2.8 -2.6
v -0.2 2.4 -2.6
v -0.2 2.5 -2.6
v -0.2 2.9 -2.6
v -0.2 3 -2.6
v -0.0999999 2.5 -2.6
v -0.0999999 2.9 -2.6
v 0.1 2.5 -2.6
v 0.1 2.9 -2.6
v 0.2 2.4 -2.6
v 0.2 2.5 -2.6
v 0.2 2.9 -2.6
v 0.2 3 -2.6
v 0.7 2.6 -2.6
v 0.7 2.8 -2.6
v 0.8 2.7 -2.6
v 0.8 2.8 -2.6
v 1.4 2.7 -2.6
v 1.4 2.8 -2.6
v 1.5 2.6 -2.6
v 1.5 2.8 -2.6
v 2 2.4 -2.6
v 2 2.5 -2.6
v 2 2.9 -2.6
v 2 3 -2.6
v 2.1 2.5 -2.6
v 2.1 2.9 -2.6
v -2.9 3 -2.7
v -2.9 3.2 -2.7
v -2.8 3 -2.7
v -2.8 3.2 -2.7
v -2.4 0 -2.7
v -2.4 3 -2.7
v -2.3 0 -2.7
v -2.3 3 -2.7
v -1.5 2.6 -2.7
v -1.5 2.8 -2.7
v -1.4 2.7 -2.7
v -1.4 2.8 -2.7
v -0.8 2.7 -2.7
v -0.8 2.8 -2.7
v -0.7 2.6 -2.7
v -0.7 2.8 -2.7
v 0.7 2.6 -2.7
v 0.7 2.8 -2.7
v 0.8 2.7 -2.7
v 0.8 2.8 -2.7
v 1.4 2.7 -2.7
v 1.4 2.8 -2.7
v 1.5 2.6 -2.7
v 1.5 2.8 -2.7
v 2.3 0 -2.7
v 2.3 3 -2.7
v 2.4 0 -2.7
v 2.4 3 -2.7
v 2.8 3 -2.7
v 2.8 3.2 -2.7
v 2.9 3 -2.7
v 2.9 3.2 -2.7
v -2.3 0 -2.8
v -2.3 3 -2.8
v -2.1 0 -2.8
v -2.1 3 -2.8
v 2.1 0 -2.8
v 2.1 3 -2.8
v 2.3 0 -2.8
v 2.3 3 -2.8
v -2.8 3 -2.9
v -2.8 3.2 -2.9
v -2.7 3 -2.9
v -2.7 3.2 -2.9
v 2.7 3 -2.9
v 2.7 3.2 -2.9
v 2.8 3 -2.9
v 2.8 3.2 -2.9
v -2.7 3 -3
v -2.7 3.2 -3
v -2.5 3 -3
v -2.5 3.2 -3
v 2.5 3 -3
v 2.5 3.2 -3
v 2.7 3 -3
v 2.7 3.2 -3
v -2.5 3 -3.1
v -2.5 3.2 -3.1
v 2.5 3 -3.1
v 2.5 3.2 -3.1
v -2.3 0 0
v -2.1 0 0
v 2.1 0 0
v 2.3 0 0
v -2.4 0 -0.1
v -2.3 0 -0.1
v 2.3 0 -0.1
v 2.4 0 -0.1
v -2.4 0 -0.6
v -2.1 0 -0.6
v 2.1 0 -0.6
v 2.4 0 -0.6
v -2.4 0 -2.2
v -2.1 0 -2.2
v 2.1 0 -2.2
v 2.4 0 -2.2
v -2.4 0 -2.7
v -2.3 0 -2.7
v 2.3 0 -2.7
v 2.4 0 -2.7
v -2.3 0 -2.8
v -2.1 0 -2.8
v 2.1 0 -2.8
v 2.3 0 -2.8
v -2.4 1.4 -0.6
v -2.3 1.4 -0.6
v -2.2 1.4 -0.6
v -2.4 1.4 -2.2
v -2.3 1.4 -2.2
v -2.2 1.4 -2.2
v 2.2 1.5 -0.6
v 2.3 1.5 -0.6
v 2.4 1.5 -0.6
v 2.2 1.5 -2.2
v 2.3 1.5 -2.2
v 2.4 1.5 -2.2
v -2.1 2 -0.4
v 2.1 2 -0.4
v -2.1 2 -0.5
v 2.1 2 -0.5
v -2.2 2.2 -0.6
v -2.1 2.2 -0.6
v 2.1 2.2 -0.6
v 2.2 2.2 -0.6
v -2.2 2.2 -2.2
v -2.1 2.2 -2.2
v 2.1 2.2 -2.2
v 2.2 2.2 -2.2
v -2.1 2.4 -0.5
v 2.1 2.4 -0.5
v -0.2 2.4 -0.6
v 0.2 2.4 -0.6
v -2.1 2.4 -2.5
v -2 2.4 -2.5
v 2 2.4 -2.5
v 2.1 2.4 -2.5
v -2 2.4 -2.6
v -0.2 2.4 -2.6
v 0.2 2.4 -2.6
v 2 2.4 -2.6
v -0.2 2.5 -0.6
v 0.2 2.5 -0.6
v -2.1 2.5 -2.5
v -2 2.5 -2.5
v -0.0999999 2.5 -2.5
v 0.1 2.5 -2.5
v 2 2.5 -2.5
v 2.1 2.5 -2.5
v -2.1 2.5 -2.6
v -2 2.5 -2.6
v -0.2 2.5 -2.6
v -0.0999999 2.5 -2.6
v 0.1 2.5 -2.6
v 0.2 2.5 -2.6
v 2 2.5 -2.6
v 2.1 2.5 -2.6
v -1.5 2.6 -2.6
v -0.7 2.6 -2.6
v 0.7 2.6 -2.6
v 1.5 2.6 -2.6
v -1.5 2.6 -2.7
v -0.7 2.6 -2.7
v 0.7 2.6 -2.7
v 1.5 2.6 -2.7
v -2.1 2.9 -2.4
v -2 2.9 -2.4
v 2 2.9 -2.4
v 2.1 2.9 -2.4
v -2.1 2.9 -2.5
v -2 2.9 -2.5
v 2 2.9 -2.5
v 2.1 2.9 -2.5
v -2.5 3 0.3
v 2.5 3 0.3
v -2.7 3 0.2
v -2.5 3 0.2
v 2.5 3 0.2
v 2.7 3 0.2
v -2.8 3 0.1
v -2.7 3 0.1
v 2.7 3 0.1
v 2.8 3 0.1
v -2.3 3 0
v -2.1 3 0
v 2.1 3 0
v 2.3 3 0
v -2.9 3 -0.1
v -2.8 3 -0.1
v -2.4 3 -0.1
v -2.3 3 -0.1
v 2.3 3 -0.1
v 2.4 3 -0.1
v 2.8 3 -0.1
v 2.9 3 -0.1
v -2.1 3 -0.4
v 2.1 3 -0.4
v -2.4 3 -0.6
v 2.4 3 -0.6
v -2.2 3 -1.2
v -0.2 3 -1.2
v 0.2 3 -1.2
v 2.2 3 -1.2
v -2.4 3 -2.2
v -2.2 3 -2.2
v -2.1 3 -2.2
v 2.1 3 -2.2
v 2.2 3 -2.2
v 2.4 3 -2.2
v -2.1 3 -2.4
v -2 3 -2.4
v 2 3 -2.4
v 2.1 3 -2.4
v -2.1 3 -2.5
v -2 3 -2.5
v -0.2 3 -2.5
v 0.2 3 -2.5
v 2 3 -2.5
v 2.1 3 -2.5
v -2 3 -2.6
v -0.2 3 -2.6
v 0.2 3 -2.6
v 2 3 -2.6
v -2.9 3 -2.7
v -2.8 3 -2.7
v -2.4 3 -2.7
v -2.3 3 -2.7
v 2.3 3 -2.7
v 2.4 3 -2.7
v 2.8 3 -2.7
v 2.9 3 -2.7
v -2.3 3 -2.8
v -2.1 3 -2.8
v 2.1 3 -2.8
v 2.3 3 -2.8
v -2.8 3 -2.9
v -2.7 3 -2.9
v 2.7 3 -2.9
v 2.8 3 -2.9
v -2.7 3 -3
v -2.5 3 -3
v 2.5 3 -3
v 2.7 3 -3
v -2.5 3 -3.1
v 2.5 3 -3.1
v -2.2 2.5 -1.2
v -0.2 2.5 -1.2
v 0.2 2.5 -1.2
v 2.2 2.5 -1.2
v -2.2 2.5 -2.2
v -2.1 2.5 -2.2
v 2.1 2.5 -2.2
v 2.2 2.5 -2.2
v -2.1 2.5 -2.5
v -0.2 2.5 -2.5
v 0.2 2.5 -2.5
v 2.1 2.5 -2.5
v -1.4 2.7 -2.6
v -0.8 2.7 -2.6
v 0.8 2.7 -2.6
v 1.4 2.7 -2.6
v -1.4 2.7 -2.7
v -0.8 2.7 -2.7
v 0.8 2.7 -2.7
v 1.4 2.7 -2.7
v -1.5 2.8 -2.6
v -1.4 2.8 -2.6
v -0.8 2.8 -2.6
v -0.7 2.8 -2.6
v 0.7 2.8 -2.6
v 0.8 2.8 -2.6
v 1.4 2.8 -2.6
v 1.5 2.8 -2.6
v -1.5 2.8 -2.7
v -1.4 2.8 -2.7
v -0.8 2.8 -2.7
v -0.7 2.8 -2.7
v 0.7 2.8 -2.7
v 0.8 2.8 -2.7
v 1.4 2.8 -2.7
v 1.5 2.8 -2.7
v -2.1 2.9 -2.5
v -2 2.9 -2.5
v -0.2 2.9 -2.5
v -0.0999999 2.9 -2.5
v 0.1 2.9 -2.5
v 0.2 2.9 -2.5
v 2 2.9 -2.5
v 2.1 2.9 -2.5
v -2.1 2.9 -2.6
v -2 2.9 -2.6
v -0.2 2.9 -2.6
v -0.0999999 2.9 -2.6
v 0.1 2.9 -2.6
v 0.2 2.9 -2.6
v 2 2.9 -2.6
v 2.1 2.9 -2.6
v -2.5 3.2 0.3
v 2.5 3.2 0.3
v -2.7 3.2 0.2
v -2.5 3.2 0.2
v 2.5 3.2 0.2
v 2.7 3.2 0.2
v -2.8 3.2 0.1
v -2.7 3.2 0.1
v 2.7 3.2 0.1
v 2.8 3.2 0.1
v -2.9 3.2 -0.1
v -2.8 3.2 -0.1
v 2.8 3.2 -0.1
v 2.9 3.2 -0.1
v -2.9 3.2 -2.7
v -2.8 3.2 -2.7
v 2.8 3.2 -2.7
v 2.9 3.2 -2.7
v -2.8 3.2 -2.9
v -2.7 3.2 -2.9
v 2.7 3.2 -2.9
v 2.8 3.2 -2.9
v -2.7 3.2 -3
v -2.5 3.2 -3
v 2.5 3.2 -3
v 2.7 3.2 -3
v -2.5 3.2 -3.1
v 2.5 3.2 -3.1

# faces
f 3/2/1 2/2/1 1/2/1
f 4/2/1 2/2/1 3/2/1
f 9/2/1 6/2/1 5/2/1
f 10/2/1 6/2/1 9/2/1
f 11/2/1 8/2/1 7/2/1
f 12/2/1 8/2/1 11/2/1
f 17/2/1 14/2/1 13/2/1
f 18/2/1 14/2/1 17/2/1
f 19/2/1 16/2/1 15/2/1
f 20/2/1 16/2/1 19/2/1
f 25/2/1 22/2/1 21/2/1
f 26/2/1 22/2/1 25/2/1
f 27/2/1 24/2/1 23/2/1
f 28/2/1 24/2/1 27/2/1
f 33/1/1 30/1/1 29/1/1
f 34/1/1 32/1/1 31/1/1
f 35/1/1 33/1/1 29/1/1
f 36/2/1 34/2/1 33/2/1
f 36/1/1 33/1/1 35/1/1
f 37/1/1 32/1/1 34/1/1
f 37/2/1 34/2/1 36/2/1
f 38/1/1 32/1/1 37/1/1
f 43/1/1 40/1/1 39/1/1
f 44/1/1 40/1/1 43/1/1
f 45/1/1 42/1/1 41/1/1
f 46/1/1 42/1/1 45/1/1
f 49/1/1 48/1/1 47/1/1
f 50/1/1 48/1/1 49/1/1
f 53/1/1 52/1/1 51/1/1
f 54/1/1 52/1/1 53/1/1
f 57/3/1 56/3/1 55/3/1
f 58/3/1 56/3/1 57/3/1
f 61/3/1 60/3/1 59/3/1
f 62/3/1 60/3/1 61/3/1
f 65/1/1 64/1/1 63/1/1
f 66/1/1 64/1/1 65/1/1
f 69/1/1 68/1/1 67/1/1
f 70/1/1 68/1/1 69/1/1
f 73/1/1 72/1/1 71/1/1
f 74/1/1 72/1/1 73/1/1
f 77/1/1 76/1/1 75/1/1
f 78/1/1 76/1/1 77/1/1
f 81/3/1 80/3/1 79/3/1
f 82/3/1 80/3/1 81/3/1
f 85/3/1 84/3/1 83/3/1
f 86/3/1 84/3/1 85/3/1
f 89/1/1 88/1/1 87/1/1
f 90/1/1 88/1/1 89/1/1
f 95/1/1 92/1/1 91/1/1
f 96/1/1 92/1/1 95/1/1
f 97/1/1 92/1/1 96/1/1
f 98/1/1 94/1/1 93/1/1
f 99/1/1 97/1/1 96/1/1
f 99/1/1 98/1/1 97/1/1
f 100/1/1 94/1/1 98/1/1
f 100/1/1 98/1/1 99/1/1
f 102/1/1 94/1/1 100/1/1
f 103/1/1 94/1/1 102/1/1
f 104/1/1 102/1/1 101/1/1
f 105/1/1 102/1/1 104/1/1
f 106/1/1 94/1/1 103/1/1
f 107/1/1 95/1/1 91/1/1
f 108/1/1 95/1/1 107/1/1
f 109/1/1 104/1/1 101/1/1
f 110/1/1 104/1/1 109/1/1
f 111/1/1 106/1/1 105/1/1
f 112/1/1 94/1/1 106/1/1
f 112/1/1 106/1/1 111/1/1
f 115/1/1 114/1/1 113/1/1
f 116/1/1 114/1/1 115/1/1
f 119/1/1 118/1/1 117/1/1
f 120/1/1 118/1/1 119/1/1
f 121/1/2 122/1/2 123/1/2
f 123/1/2 122/1/2 124/1/2
f 125/1/2 126/1/2 127/1/2
f 127/1/2 126/1/2 128/1/2
f 129/1/2 130/1/2 133/1/2
f 133/1/2 130/1/2 134/1/2
f 134/1/2 130/1/2 135/1/2
f 131/1/2 132/1/2 136/1/2
f 134/1/2 135/1/2 137/1/2
f 135/1/2 136/1/2 137/1/2
f 136/1/2 132/1/2 138/1/2
f 137/1/2 136/1/2 138/1/2
f 138/1/2 132/1/2 140/1/2
f 140/1/2 132/1/2 141/1/2
f 139/1/2 140/1/2 142/1/2
f 142/1/2 140/1/2 143/1/2
f 141/1/2 132/1/2 144/1/2
f 129/1/2 133/1/2 145/1/2
f 145/1/2 133/1/2 146/1/2
f 139/1/2 142/1/2 147/1/2
f 147/1/2 142/1/2 148/1/2
f 143/1/2 144/1/2 149/1/2
f 144/1/2 132/1/2 150/1/2
f 149/1/2 144/1/2 150/1/2
f 151/1/2 152/1/2 153/1/2
f 153/1/2 152/1/2 154/1/2
f 155/3/2 156/3/2 157/3/2
f 157/3/2 156/3/2 158/3/2
f 159/3/2 160/3/2 161/3/2
f 161/3/2 160/3/2 162/3/2
f 163/1/2 164/1/2 165/1/2
f 165/1/2 164/1/2 166/1/2
f 167/1/2 168/1/2 169/1/2
f 169/1/2 168/1/2 170/1/2
f 171/1/2 172/1/2 173/1/2
f 173/1/2 172/1/2 174/1/2
f 175/1/2 176/1/2 177/1/2
f 177/1/2 176/1/2 178/1/2
f 179/3/2 180/3/2 181/3/2
f 181/3/2 180/3/2 182/3/2
f 183/3/2 184/3/2 185/3/2
f 185/3/2 184/3/2 186/3/2
f 187/1/2 188/1/2 189/1/2
f 189/1/2 188/1/2 190/1/2
f 191/1/2 192/1/2 193/1/2
f 193/1/2 192/1/2 194/1/2
f 195/1/2 196/1/2 199/1/2
f 199/1/2 196/1/2 200/1/2
f 197/1/2 198/1/2 201/1/2
f 201/1/2 198/1/2 202/1/2
f 203/1/2 204/1/2 207/1/2
f 205/1/2 206/1/2 208/1/2
f 203/1/2 207/1/2 209/1/2
f 207/2/2 208/2/2 210/2/2
f 209/1/2 207/1/2 210/1/2
f 208/1/2 206/1/2 211/1/2
f 210/2/2 208/2/2 211/2/2
f 211/1/2 206/1/2 212/1/2
f 213/2/2 214/2/2 217/2/2
f 217/2/2 214/2/2 218/2/2
f 215/2/2 216/2/2 219/2/2
f 219/2/2 216/2/2 220/2/2
f 221/2/2 222/2/2 225/2/2
f 225/2/2 222/2/2 226/2/2
f 223/2/2 224/2/2 227/2/2
f 227/2/2 224/2/2 228/2/2
f 229/2/2 230/2/2 233/2/2
f 233/2/2 230/2/2 234/2/2
f 231/2/2 232/2/2 235/2/2
f 235/2/2 232/2/2 236/2/2
f 237/2/2 238/2/2 239/2/2
f 239/2/2 238/2/2 240/2/2
f 243/2/3 242/2/3 241/2/3
f 244/2/3 242/2/3 243/2/3
f 247/2/3 246/2/3 245/2/3
f 248/2/3 246/2/3 247/2/3
f 251/2/3 250/2/3 249/2/3
f 252/2/3 250/2/3 251/2/3
f 255/2/3 254/2/3 253/2/3
f 256/2/3 254/2/3 255/2/3
f 259/2/3 258/2/3 257/2/3
f 260/2/3 258/2/3 259/2/3
f 263/1/3 262/1/3 261/1/3
f 264/1/3 262/1/3 263/1/3
f 267/1/3 266/1/3 265/1/3
f 268/1/3 266/1/3 267/1/3
f 271/2/3 270/2/3 269/2/3
f 272/2/3 270/2/3 271/2/3
f 275/1/3 274/1/3 273/1/3
f 276/1/3 274/1/3 275/1/3
f 279/1/3 278/1/3 277/1/3
f 280/1/3 278/1/3 279/1/3
f 283/2/3 282/2/3 281/2/3
f 284/2/3 282/2/3 283/2/3
f 287/1/3 286/1/3 285/1/3
f 288/1/3 286/1/3 287/1/3
f 291/1/3 290/1/3 289/1/3
f 292/1/3 291/1/3 289/1/3
f 296/1/3 292/1/3 289/1/3
f 296/1/3 293/1/3 292/1/3
f 297/1/3 293/1/3 296/1/3
f 298/1/3 295/1/3 294/1/3
f 299/1/3 295/1/3 298/1/3
f 304/1/3 301/1/3 300/1/3
f 305/1/3 301/1/3 304/1/3
f 306/1/3 303/1/3 302/1/3
f 307/1/3 303/1/3 306/1/3
f 308/1/3 304/1/3 300/1/3
f 309/1/3 308/1/3 300/1/3
f 310/1/3 308/1/3 309/1/3
f 313/1/3 312/1/3 311/1/3
f 314/1/3 312/1/3 313/1/3
f 317/1/3 316/1/3 315/1/3
f 318/1/3 316/1/3 317/1/3
f 321/1/3 320/1/3 319/1/3
f 323/1/3 321/1/3 319/1/3
f 323/1/3 322/1/3 321/1/3
f 324/1/3 322/1/3 323/1/3
f 327/1/3 326/1/3 325/1/3
f 328/1/3 326/1/3 327/1/3
f 329/1/3 327/1/3 325/1/3
f 330/1/3 327/1/3 329/1/3
f 331/1/4 332/1/4 333/1/4
f 333/1/4 332/1/4 334/1/4
f 335/1/4 336/1/4 337/1/4
f 335/1/4 337/1/4 338/1/4
f 335/1/4 338/1/4 340/1/4
f 338/1/4 339/1/4 340/1/4
f 340/1/4 339/1/4 341/1/4
f 342/1/4 343/1/4 344/1/4
f 344/1/4 343/1/4 345/1/4
f 346/1/4 347/1/4 348/1/4
f 348/1/4 347/1/4 349/1/4
f 346/1/4 348/1/4 350/1/4
f 346/1/4 350/1/4 351/1/4
f 351/1/4 350/1/4 352/1/4
f 353/1/4 354/1/4 355/1/4
f 355/1/4 354/1/4 356/1/4
f 357/1/4 358/1/4 359/1/4
f 359/1/4 358/1/4 360/1/4
f 361/1/4 362/1/4 365/1/4
f 365/1/4 362/1/4 366/1/4
f 363/1/4 364/1/4 367/1/4
f 367/1/4 364/1/4 368/1/4
f 369/1/4 370/1/4 372/1/4
f 371/1/4 372/1/4 373/1/4
f 372/1/4 370/1/4 374/1/4
f 373/1/4 372/1/4 374/1/4
f 374/1/4 370/1/4 375/1/4
f 375/1/4 370/1/4 376/1/4
f 377/1/4 378/1/4 381/1/4
f 381/1/4 378/1/4 382/1/4
f 379/1/4 380/1/4 383/1/4
f 383/1/4 380/1/4 384/1/4
f 385/1/4 386/1/4 388/1/4
f 388/1/4 386/1/4 389/1/4
f 387/1/4 388/1/4 391/1/4
f 389/1/4 390/1/4 391/1/4
f 388/1/4 389/1/4 391/1/4
f 391/1/4 390/1/4 392/1/4
f 392/1/4 390/1/4 394/1/4
f 393/1/4 394/1/4 395/1/4
f 394/1/4 390/1/4 396/1/4
f 395/1/4 394/1/4 396/1/4
f 387/1/4 391/1/4 397/1/4
f 396/1/4 390/1/4 398/1/4
f 387/1/4 397/1/4 399/1/4
f 397/1/4 398/1/4 399/1/4
f 399/1/4 398/1/4 400/1/4
f 398/1/4 390/1/4 401/1/4
f 400/1/4 398/1/4 401/1/4
f 401/1/4 390/1/4 402/1/4
f 400/1/4 401/1/4 403/1/4
f 403/1/4 401/1/4 404/1/4
f 405/1/4 406/1/4 408/1/4
f 408/1/4 406/1/4 409/1/4
f 408/1/4 409/1/4 411/1/4
f 409/1/4 410/1/4 411/1/4
f 407/1/4 408/1/4 411/1/4
f 411/1/4 410/1/4 412/1/4
f 412/1/4 410/1/4 414/1/4
f 413/1/4 414/1/4 415/1/4
f 414/1/4 410/1/4 416/1/4
f 415/1/4 414/1/4 416/1/4
f 407/1/4 411/1/4 417/1/4
f 416/1/4 410/1/4 418/1/4
f 407/1/4 417/1/4 419/1/4
f 417/1/4 418/1/4 419/1/4
f 419/1/4 418/1/4 420/1/4
f 418/1/4 410/1/4 421/1/4
f 420/1/4 418/1/4 421/1/4
f 421/1/4 410/1/4 422/1/4
f 420/1/4 421/1/4 423/1/4
f 423/1/4 421/1/4 424/1/4
f 425/2/4 426/2/4 427/2/4
f 427/2/4 426/2/4 428/2/4
f 429/1/4 430/1/4 431/1/4
f 431/1/4 430/1/4 432/1/4
f 433/3/4 434/3/4 435/3/4
f 435/3/4 434/3/4 436/3/4
f 433/3/4 435/3/4 437/3/4
f 433/3/4 437/3/4 439/3/4
f 437/3/4 438/3/4 439/3/4
f 439/3/4 438/3/4 440/3/4
f 441/3/4 442/3/4 443/3/4
f 443/3/4 442/3/4 444/3/4
f 441/3/4 443/3/4 445/3/4
f 441/3/4 445/3/4 447/3/4
f 445/3/4 446/3/4 447/3/4
f 447/3/4 446/3/4 448/3/4
f 449/1/4 450/1/4 451/1/4
f 451/1/4 450/1/4 452/1/4
f 453/2/4 454/2/4 455/2/4
f 455/2/4 454/2/4 456/2/4
f 457/1/4 458/1/4 459/1/4
f 459/1/4 458/1/4 460/1/4
f 461/1/4 462/1/4 463/1/4
f 463/1/4 462/1/4 464/1/4
f 465/2/4 466/2/4 467/2/4
f 467/2/4 466/2/4 468/2/4
f 469/2/4 470/2/4 471/2/4
f 471/2/4 470/2/4 472/2/4
f 473/2/4 474/2/4 475/2/4
f 475/2/4 474/2/4 476/2/4
f 477/2/4 478/2/4 479/2/4
f 479/2/4 478/2/4 480/2/4
f 481/2/4 482/2/4 483/2/4
f 483/2/4 482/2/4 484/2/4
f 490/1/5 486/1/5 485/1/5
f 491/1/5 488/1/5 487/1/5
f 493/1/5 490/1/5 489/1/5
f 494/1/5 486/1/5 490/1/5
f 494/1/5 490/1/5 493/1/5
f 495/1/5 492/1/5 491/1/5
f 495/1/5 491/1/5 487/1/5
f 496/1/5 492/1/5 495/1/5
f 501/1/5 498/1/5 497/1/5
f 502/1/5 498/1/5 501/1/5
f 503/1/5 500/1/5 499/1/5
f 504/1/5 500/1/5 503/1/5
f 505/1/5 498/1/5 502/1/5
f 506/1/5 498/1/5 505/1/5
f 507/1/5 503/1/5 499/1/5
f 508/1/5 503/1/5 507/1/5
f 512/2/5 510/2/5 509/2/5
f 513/1/5 511/1/5 510/1/5
f 513/2/5 510/2/5 512/2/5
f 514/1/5 511/1/5 513/1/5
f 518/1/5 516/1/5 515/1/5
f 519/2/5 517/2/5 516/2/5
f 519/1/5 516/1/5 518/1/5
f 520/2/5 517/2/5 519/2/5
f 523/1/5 522/1/5 521/1/5
f 524/1/5 522/1/5 523/1/5
f 529/1/5 526/1/5 525/1/5
f 530/1/5 526/1/5 529/1/5
f 531/1/5 528/1/5 527/1/5
f 532/1/5 528/1/5 531/1/5
f 535/1/5 534/1/5 533/1/5
f 536/1/5 534/1/5 535/1/5
f 537/1/5 535/1/5 533/1/5
f 538/1/5 535/1/5 537/1/5
f 539/1/5 534/1/5 536/1/5
f 540/1/5 534/1/5 539/1/5
f 541/1/5 535/1/5 538/1/5
f 542/1/5 535/1/5 541/1/5
f 543/1/5 539/1/5 536/1/5
f 544/1/5 539/1/5 543/1/5
f 549/1/5 546/1/5 545/1/5
f 550/1/5 546/1/5 549/1/5
f 553/1/5 548/1/5 547/1/5
f 554/1/5 548/1/5 553/1/5
f 555/1/5 549/1/5 545/1/5
f 556/1/5 549/1/5 555/1/5
f 557/1/5 546/1/5 550/1/5
f 558/1/5 546/1/5 557/1/5
f 559/1/5 552/1/5 551/1/5
f 560/1/5 552/1/5 559/1/5
f 565/3/5 562/3/5 561/3/5
f 566/3/5 562/3/5 565/3/5
f 567/3/5 564/3/5 563/3/5
f 568/3/5 564/3/5 567/3/5
f 573/1/5 570/1/5 569/1/5
f 574/1/5 570/1/5 573/1/5
f 575/1/5 572/1/5 571/1/5
f 576/1/5 572/1/5 575/1/5
f 580/2/5 578/2/5 577/2/5
f 581/2/5 578/2/5 580/2/5
f 584/2/5 580/2/5 579/2/5
f 584/2/5 582/2/5 581/2/5
f 584/2/5 581/2/5 580/2/5
f 585/2/5 582/2/5 584/2/5
f 587/2/5 584/2/5 583/2/5
f 587/2/5 586/2/5 585/2/5
f 587/2/5 585/2/5 584/2/5
f 588/2/5 586/2/5 587/2/5
f 589/2/5 586/2/5 588/2/5
f 590/2/5 586/2/5 589/2/5
f 592/2/5 587/2/5 583/2/5
f 593/2/5 587/2/5 592/2/5
f 594/2/5 587/2/5 593/2/5
f 595/2/5 586/2/5 590/2/5
f 596/2/5 586/2/5 595/2/5
f 597/2/5 586/2/5 596/2/5
f 599/2/5 589/2/5 588/2/5
f 600/2/5 589/2/5 599/2/5
f 601/2/5 592/2/5 591/2/5
f 601/2/5 593/2/5 592/2/5
f 602/2/5 598/2/5 597/2/5
f 602/2/5 597/2/5 596/2/5
f 607/2/5 601/2/5 591/2/5
f 608/2/5 604/2/5 603/2/5
f 609/2/5 604/2/5 608/2/5
f 610/2/5 606/2/5 605/2/5
f 611/2/5 606/2/5 610/2/5
f 612/2/5 598/2/5 602/2/5
f 613/2/5 604/2/5 609/2/5
f 614/2/5 604/2/5 613/2/5
f 615/2/5 610/2/5 605/2/5
f 616/2/5 610/2/5 615/2/5
f 618/2/5 604/2/5 614/2/5
f 619/2/5 604/2/5 618/2/5
f 620/2/5 615/2/5 605/2/5
f 621/2/5 615/2/5 620/2/5
f 623/2/5 618/2/5 617/2/5
f 624/2/5 620/2/5 619/2/5
f 625/2/5 620/2/5 624/2/5
f 626/2/5 622/2/5 621/2/5
f 627/2/5 607/2/5 591/2/5
f 628/2/5 607/2/5 627/2/5
f 629/2/5 607/2/5 628/2/5
f 632/2/5 598/2/5 612/2/5
f 633/2/5 598/2/5 632/2/5
f 634/2/5 598/2/5 633/2/5
f 635/2/5 629/2/5 628/2/5
f 635/2/5 630/2/5 629/2/5
f 636/2/5 626/2/5 625/2/5
f 636/2/5 625/2/5 624/2/5
f 636/2/5 623/2/5 617/2/5
f 636/2/5 624/2/5 623/2/5
f 637/2/5 622/2/5 626/2/5
f 637/2/5 626/2/5 636/2/5
f 638/2/5 633/2/5 632/2/5
f 638/2/5 632/2/5 631/2/5
f 639/2/5 635/2/5 628/2/5
f 639/2/5 638/2/5 637/2/5
f 639/2/5 637/2/5 636/2/5
f 639/2/5 636/2/5 635/2/5
f 640/2/5 638/2/5 639/2/5
f 641/2/5 633/2/5 638/2/5
f 641/2/5 638/2/5 640/2/5
f 642/2/5 633/2/5 641/2/5
f 643/2/5 641/2/5 640/2/5
f 644/2/5 641/2/5 643/2/5
f 645/2/5 641/2/5 644/2/5
f 646/2/5 641/2/5 645/2/5
f 647/2/5 645/2/5 644/2/5
f 648/2/5 645/2/5 647/2/5
f 649/1/6 650/1/6 653/1/6
f 653/1/6 650/1/6 654/1/6
f 651/1/6 652/1/6 655/1/6
f 655/1/6 652/1/6 656/1/6
f 654/1/6 650/1/6 657/1/6
f 657/1/6 650/1/6 658/1/6
f 651/1/6 655/1/6 659/1/6
f 659/1/6 655/1/6 660/1/6
f 661/3/6 662/3/6 665/3/6
f 665/3/6 662/3/6 666/3/6
f 663/3/6 664/3/6 667/3/6
f 667/3/6 664/3/6 668/3/6
f 669/3/6 670/3/6 677/3/6
f 677/3/6 670/3/6 678/3/6
f 671/3/6 672/3/6 679/3/6
f 679/3/6 672/3/6 680/3/6
f 673/3/6 674/3/6 681/3/6
f 681/3/6 674/3/6 682/3/6
f 675/3/6 676/3/6 683/3/6
f 683/3/6 676/3/6 684/3/6
f 685/1/6 686/1/6 693/1/6
f 693/1/6 686/1/6 694/1/6
f 687/1/6 688/1/6 695/1/6
f 695/1/6 688/1/6 696/1/6
f 689/1/6 690/1/6 697/1/6
f 697/1/6 690/1/6 698/1/6
f 691/1/6 692/1/6 699/1/6
f 699/1/6 692/1/6 700/1/6
f 701/2/6 702/2/6 704/2/6
f 704/2/6 702/2/6 705/2/6
f 703/2/6 704/2/6 708/2/6
f 705/2/6 706/2/6 708/2/6
f 704/2/6 705/2/6 708/2/6
f 708/2/6 706/2/6 709/2/6
f 707/2/6 708/2/6 712/2/6
f 709/2/6 710/2/6 712/2/6
f 708/2/6 709/2/6 712/2/6
f 712/2/6 710/2/6 713/2/6
f 711/2/6 712/2/6 715/2/6
f 713/2/6 714/2/6 715/2/6
f 712/2/6 713/2/6 715/2/6
f 715/2/6 714/2/6 716/2/6
f 716/2/6 714/2/6 717/2/6
f 717/2/6 714/2/6 718/2/6
f 716/2/6 717/2/6 719/2/6
f 719/2/6 717/2/6 720/2/6
f 720/2/6 717/2/6 721/2/6
f 721/2/6 717/2/6 722/2/6
f 720/2/6 721/2/6 723/2/6
f 723/2/6 721/2/6 724/2/6
f 724/2/6 721/2/6 725/2/6
f 725/2/6 721/2/6 726/2/6
f 724/2/6 725/2/6 727/2/6
f 727/2/6 725/2/6 728/2/6
