# MagicaVoxel @ Ephtracy

# group
o 

# material
mtllib jalousie_frame.mtl
usemtl palette

# normals
vn -1 0 0
vn 1 0 0
vn 0 0 1
vn 0 0 -1
vn 0 -1 0
vn 0 1 0

# texcoords
vt 0.970703 0.5
vt 0.974609 0.5
vt 0.978516 0.5

# verts
v -2.2 0 1.7
v -2.2 0 -1.7
v -2.2 0.2 1.5
v -2.2 0.2 1.4
v -2.2 0.2 1.3
v -2.2 0.2 -1.3
v -2.2 0.2 -1.4
v -2.2 0.2 -1.5
v -2.2 0.3 1.4
v -2.2 0.3 1.3
v -2.2 0.3 -1.3
v -2.2 0.3 -1.4
v -2.2 0.9 1.4
v -2.2 0.9 1.3
v -2.2 0.9 -1.3
v -2.2 0.9 -1.4
v -2.2 1.1 1.4
v -2.2 1.1 1.3
v -2.2 1.1 -1.3
v -2.2 1.1 -1.4
v -2.2 1.7 1.4
v -2.2 1.7 1.3
v -2.2 1.7 -1.3
v -2.2 1.7 -1.4
v -2.2 1.9 1.4
v -2.2 1.9 1.3
v -2.2 1.9 -1.3
v -2.2 1.9 -1.4
v -2.2 2.5 1.4
v -2.2 2.5 1.3
v -2.2 2.5 -1.3
v -2.2 2.5 -1.4
v -2.2 2.7 1.4
v -2.2 2.7 1.3
v -2.2 2.7 -1.3
v -2.2 2.7 -1.4
v -2.2 3.3 1.4
v -2.2 3.3 1.3
v -2.2 3.3 -1.3
v -2.2 3.3 -1.4
v -2.2 3.5 1.4
v -2.2 3.5 1.3
v -2.2 3.5 -1.3
v -2.2 3.5 -1.4
v -2.2 4.1 1.4
v -2.2 4.1 1.3
v -2.2 4.1 -1.3
v -2.2 4.1 -1.4
v -2.2 4.3 1.4
v -2.2 4.3 1.3
v -2.2 4.3 -1.3
v -2.2 4.3 -1.4
v -2.2 4.9 1.4
v -2.2 4.9 1.3
v -2.2 4.9 -1.3
v -2.2 4.9 -1.4
v -2.2 5.3 1.4
v -2.2 5.3 1.3
v -2.2 5.3 -1.3
v -2.2 5.3 -1.4
v -2.2 6.2 1.5
v -2.2 6.2 -1.5
v -2.2 6.4 1.7
v -2.2 6.4 -1.7
v -2.1 0.2 1.5
v -2.1 0.2 1.4
v -2.1 0.2 -1.4
v -2.1 0.2 -1.5
v -2.1 0.3 1.4
v -2.1 0.3 1.3
v -2.1 0.3 -1.3
v -2.1 0.3 -1.4
v -2.1 0.7 1.4
v -2.1 0.7 1.3
v -2.1 0.7 -1.3
v -2.1 0.7 -1.4
v -2.1 0.9 1.4
v -2.1 0.9 -1.4
v -2.1 1.1 1.4
v -2.1 1.1 1.3
v -2.1 1.1 -1.3
v -2.1 1.1 -1.4
v -2.1 1.5 1.4
v -2.1 1.5 1.3
v -2.1 1.5 -1.3
v -2.1 1.5 -1.4
v -2.1 1.7 1.4
v -2.1 1.7 -1.4
v -2.1 1.9 1.4
v -2.1 1.9 1.3
v -2.1 1.9 -1.3
v -2.1 1.9 -1.4
v -2.1 2.3 1.4
v -2.1 2.3 1.3
v -2.1 2.3 -1.3
v -2.1 2.3 -1.4
v -2.1 2.5 1.4
v -2.1 2.5 -1.4
v -2.1 2.7 1.4
v -2.1 2.7 1.3
v -2.1 2.7 -1.3
v -2.1 2.7 -1.4
v -2.1 3.1 1.4
v -2.1 3.1 1.3
v -2.1 3.1 -1.3
v -2.1 3.1 -1.4
v -2.1 3.3 1.4
v -2.1 3.3 -1.4
v -2.1 3.5 1.4
v -2.1 3.5 1.3
v -2.1 3.5 -1.3
v -2.1 3.5 -1.4
v -2.1 3.9 1.4
v -2.1 3.9 1.3
v -2.1 3.9 -1.3
v -2.1 3.9 -1.4
v -2.1 4.1 1.4
v -2.1 4.1 -1.4
v -2.1 4.3 1.4
v -2.1 4.3 1.3
v -2.1 4.3 -1.3
v -2.1 4.3 -1.4
v -2.1 4.7 1.4
v -2.1 4.7 1.3
v -2.1 4.7 -1.3
v -2.1 4.7 -1.4
v -2.1 4.9 1.4
v -2.1 4.9 -1.4
v -2.1 5.3 1.4
v -2.1 5.3 1.3
v -2.1 5.3 -1.3
v -2.1 5.3 -1.4
v -2.1 5.9 1.4
v -2.1 5.9 1.3
v -2.1 5.9 -1.3
v -2.1 5.9 -1.4
v -2.1 6.2 1.5
v -2.1 6.2 1.4
v -2.1 6.2 -1.4
v -2.1 6.2 -1.5
v -2 0.2 1.4
v -2 0.2 1.3
v -2 0.2 -1.3
v -2 0.2 -1.4
v -2 0.3 1.4
v -2 0.3 1.3
v -2 0.3 -1.3
v -2 0.3 -1.4
v -2 0.7 1.4
v -2 0.7 1.3
v -2 0.7 -1.3
v -2 0.7 -1.4
v -2 1.1 1.4
v -2 1.1 1.3
v -2 1.1 -1.3
v -2 1.1 -1.4
v -2 1.5 1.4
v -2 1.5 1.3
v -2 1.5 -1.3
v -2 1.5 -1.4
v -2 1.9 1.4
v -2 1.9 1.3
v -2 1.9 -1.3
v -2 1.9 -1.4
v -2 2.3 1.4
v -2 2.3 1.3
v -2 2.3 -1.3
v -2 2.3 -1.4
v -2 2.7 1.4
v -2 2.7 1.3
v -2 2.7 -1.3
v -2 2.7 -1.4
v -2 3.1 1.4
v -2 3.1 1.3
v -2 3.1 -1.3
v -2 3.1 -1.4
v -2 3.5 1.4
v -2 3.5 1.3
v -2 3.5 -1.3
v -2 3.5 -1.4
v -2 3.9 1.4
v -2 3.9 1.3
v -2 3.9 -1.3
v -2 3.9 -1.4
v -2 4.3 1.4
v -2 4.3 1.3
v -2 4.3 -1.3
v -2 4.3 -1.4
v -2 4.7 1.4
v -2 4.7 1.3
v -2 4.7 -1.3
v -2 4.7 -1.4
v -2 5.3 1.4
v -2 5.3 1.3
v -2 5.3 -1.3
v -2 5.3 -1.4
v -2 5.9 1.4
v -2 5.9 1.3
v -2 5.9 -1.3
v -2 5.9 -1.4
v -2 6.2 1.4
v -2 6.2 1.3
v -2 6.2 -1.3
v -2 6.2 -1.4
v -1.9 0.3 1.4
v -1.9 0.3 1.3
v -1.9 0.3 -1.3
v -1.9 0.3 -1.4
v -1.9 0.7 1.4
v -1.9 0.7 1.3
v -1.9 0.7 -1.3
v -1.9 0.7 -1.4
v -1.9 1.1 1.4
v -1.9 1.1 1.3
v -1.9 1.1 -1.3
v -1.9 1.1 -1.4
v -1.9 1.5 1.4
v -1.9 1.5 1.3
v -1.9 1.5 -1.3
v -1.9 1.5 -1.4
v -1.9 1.9 1.4
v -1.9 1.9 1.3
v -1.9 1.9 -1.3
v -1.9 1.9 -1.4
v -1.9 2.3 1.4
v -1.9 2.3 1.3
v -1.9 2.3 -1.3
v -1.9 2.3 -1.4
v -1.9 2.7 1.4
v -1.9 2.7 1.3
v -1.9 2.7 -1.3
v -1.9 2.7 -1.4
v -1.9 3.1 1.4
v -1.9 3.1 1.3
v -1.9 3.1 -1.3
v -1.9 3.1 -1.4
v -1.9 3.5 1.4
v -1.9 3.5 1.3
v -1.9 3.5 -1.3
v -1.9 3.5 -1.4
v -1.9 3.9 1.4
v -1.9 3.9 1.3
v -1.9 3.9 -1.3
v -1.9 3.9 -1.4
v -1.9 4.3 1.4
v -1.9 4.3 1.3
v -1.9 4.3 -1.3
v -1.9 4.3 -1.4
v -1.9 4.7 1.4
v -1.9 4.7 1.3
v -1.9 4.7 -1.3
v -1.9 4.7 -1.4
v -1.9 5.3 1.4
v -1.9 5.3 1.3
v -1.9 5.3 -1.3
v -1.9 5.3 -1.4
v -1.9 5.9 1.4
v -1.9 5.9 1.3
v -1.9 5.9 -1.3
v -1.9 5.9 -1.4
v -1.8 0.7 1.4
v -1.8 0.7 1.3
v -1.8 0.7 -1.3
v -1.8 0.7 -1.4
v -1.8 0.9 1.4
v -1.8 0.9 1.3
v -1.8 0.9 -1.3
v -1.8 0.9 -1.4
v -1.8 1.5 1.4
v -1.8 1.5 1.3
v -1.8 1.5 -1.3
v -1.8 1.5 -1.4
v -1.8 1.7 1.4
v -1.8 1.7 1.3
v -1.8 1.7 -1.3
v -1.8 1.7 -1.4
v -1.8 2.3 1.4
v -1.8 2.3 1.3
v -1.8 2.3 -1.3
v -1.8 2.3 -1.4
v -1.8 2.5 1.4
v -1.8 2.5 1.3
v -1.8 2.5 -1.3
v -1.8 2.5 -1.4
v -1.8 3.1 1.4
v -1.8 3.1 1.3
v -1.8 3.1 -1.3
v -1.8 3.1 -1.4
v -1.8 3.3 1.4
v -1.8 3.3 1.3
v -1.8 3.3 -1.3
v -1.8 3.3 -1.4
v -1.8 3.9 1.4
v -1.8 3.9 1.3
v -1.8 3.9 -1.3
v -1.8 3.9 -1.4
v -1.8 4.1 1.4
v -1.8 4.1 1.3
v -1.8 4.1 -1.3
v -1.8 4.1 -1.4
v -1.8 4.7 1.4
v -1.8 4.7 1.3
v -1.8 4.7 -1.3
v -1.8 4.7 -1.4
v -1.8 4.9 1.4
v -1.8 4.9 1.3
v -1.8 4.9 -1.3
v -1.8 4.9 -1.4
v -1.8 5.9 1.4
v -1.8 5.9 1.3
v -1.8 5.9 -1.3
v -1.8 5.9 -1.4
v -1.8 6.2 1.4
v -1.8 6.2 1.3
v -1.8 6.2 -1.3
v -1.8 6.2 -1.4
v -2.1 0.2 1.4
v -2.1 0.2 1.3
v -2.1 0.2 -1.3
v -2.1 0.2 -1.4
v -2.1 0.3 1.4
v -2.1 0.3 1.3
v -2.1 0.3 -1.3
v -2.1 0.3 -1.4
v -2.1 0.9 1.4
v -2.1 0.9 1.3
v -2.1 0.9 -1.3
v -2.1 0.9 -1.4
v -2.1 1.1 1.4
v -2.1 1.1 1.3
v -2.1 1.1 -1.3
v -2.1 1.1 -1.4
v -2.1 1.7 1.4
v -2.1 1.7 1.3
v -2.1 1.7 -1.3
v -2.1 1.7 -1.4
v -2.1 1.9 1.4
v -2.1 1.9 1.3
v -2.1 1.9 -1.3
v -2.1 1.9 -1.4
v -2.1 2.5 1.4
v -2.1 2.5 1.3
v -2.1 2.5 -1.3
v -2.1 2.5 -1.4
v -2.1 2.7 1.4
v -2.1 2.7 1.3
v -2.1 2.7 -1.3
v -2.1 2.7 -1.4
v -2.1 3.3 1.4
v -2.1 3.3 1.3
v -2.1 3.3 -1.3
v -2.1 3.3 -1.4
v -2.1 3.5 1.4
v -2.1 3.5 1.3
v -2.1 3.5 -1.3
v -2.1 3.5 -1.4
v -2.1 4.1 1.4
v -2.1 4.1 1.3
v -2.1 4.1 -1.3
v -2.1 4.1 -1.4
v -2.1 4.3 1.4
v -2.1 4.3 1.3
v -2.1 4.3 -1.3
v -2.1 4.3 -1.4
v -2.1 4.9 1.4
v -2.1 4.9 1.3
v -2.1 4.9 -1.3
v -2.1 4.9 -1.4
v -2.1 5.3 1.4
v -2.1 5.3 1.3
v -2.1 5.3 -1.3
v -2.1 5.3 -1.4
v -2 0.3 1.4
v -2 0.3 1.3
v -2 0.3 -1.3
v -2 0.3 -1.4
v -2 0.7 1.4
v -2 0.7 1.3
v -2 0.7 -1.3
v -2 0.7 -1.4
v -2 1.1 1.4
v -2 1.1 1.3
v -2 1.1 -1.3
v -2 1.1 -1.4
v -2 1.5 1.4
v -2 1.5 1.3
v -2 1.5 -1.3
v -2 1.5 -1.4
v -2 1.9 1.4
v -2 1.9 1.3
v -2 1.9 -1.3
v -2 1.9 -1.4
v -2 2.3 1.4
v -2 2.3 1.3
v -2 2.3 -1.3
v -2 2.3 -1.4
v -2 2.7 1.4
v -2 2.7 1.3
v -2 2.7 -1.3
v -2 2.7 -1.4
v -2 3.1 1.4
v -2 3.1 1.3
v -2 3.1 -1.3
v -2 3.1 -1.4
v -2 3.5 1.4
v -2 3.5 1.3
v -2 3.5 -1.3
v -2 3.5 -1.4
v -2 3.9 1.4
v -2 3.9 1.3
v -2 3.9 -1.3
v -2 3.9 -1.4
v -2 4.3 1.4
v -2 4.3 1.3
v -2 4.3 -1.3
v -2 4.3 -1.4
v -2 4.7 1.4
v -2 4.7 1.3
v -2 4.7 -1.3
v -2 4.7 -1.4
v -2 5.3 1.4
v -2 5.3 1.3
v -2 5.3 -1.3
v -2 5.3 -1.4
v -2 5.9 1.4
v -2 5.9 1.3
v -2 5.9 -1.3
v -2 5.9 -1.4
v -1.9 0.2 1.4
v -1.9 0.2 1.3
v -1.9 0.2 -1.3
v -1.9 0.2 -1.4
v -1.9 0.3 1.4
v -1.9 0.3 1.3
v -1.9 0.3 -1.3
v -1.9 0.3 -1.4
v -1.9 0.7 1.4
v -1.9 0.7 1.3
v -1.9 0.7 -1.3
v -1.9 0.7 -1.4
v -1.9 1.1 1.4
v -1.9 1.1 1.3
v -1.9 1.1 -1.3
v -1.9 1.1 -1.4
v -1.9 1.5 1.4
v -1.9 1.5 1.3
v -1.9 1.5 -1.3
v -1.9 1.5 -1.4
v -1.9 1.9 1.4
v -1.9 1.9 1.3
v -1.9 1.9 -1.3
v -1.9 1.9 -1.4
v -1.9 2.3 1.4
v -1.9 2.3 1.3
v -1.9 2.3 -1.3
v -1.9 2.3 -1.4
v -1.9 2.7 1.4
v -1.9 2.7 1.3
v -1.9 2.7 -1.3
v -1.9 2.7 -1.4
v -1.9 3.1 1.4
v -1.9 3.1 1.3
v -1.9 3.1 -1.3
v -1.9 3.1 -1.4
v -1.9 3.5 1.4
v -1.9 3.5 1.3
v -1.9 3.5 -1.3
v -1.9 3.5 -1.4
v -1.9 3.9 1.4
v -1.9 3.9 1.3
v -1.9 3.9 -1.3
v -1.9 3.9 -1.4
v -1.9 4.3 1.4
v -1.9 4.3 1.3
v -1.9 4.3 -1.3
v -1.9 4.3 -1.4
v -1.9 4.7 1.4
v -1.9 4.7 1.3
v -1.9 4.7 -1.3
v -1.9 4.7 -1.4
v -1.9 5.3 1.4
v -1.9 5.3 1.3
v -1.9 5.3 -1.3
v -1.9 5.3 -1.4
v -1.9 5.9 1.4
v -1.9 5.9 1.3
v -1.9 5.9 -1.3
v -1.9 5.9 -1.4
v -1.9 6.2 1.4
v -1.9 6.2 1.3
v -1.9 6.2 -1.3
v -1.9 6.2 -1.4
v -1.8 0.2 1.5
v -1.8 0.2 1.4
v -1.8 0.2 -1.4
v -1.8 0.2 -1.5
v -1.8 0.3 1.4
v -1.8 0.3 1.3
v -1.8 0.3 -1.3
v -1.8 0.3 -1.4
v -1.8 0.7 1.4
v -1.8 0.7 1.3
v -1.8 0.7 -1.3
v -1.8 0.7 -1.4
v -1.8 0.9 1.4
v -1.8 0.9 -1.4
v -1.8 1.1 1.4
v -1.8 1.1 1.3
v -1.8 1.1 -1.3
v -1.8 1.1 -1.4
v -1.8 1.5 1.4
v -1.8 1.5 1.3
v -1.8 1.5 -1.3
v -1.8 1.5 -1.4
v -1.8 1.7 1.4
v -1.8 1.7 -1.4
v -1.8 1.9 1.4
v -1.8 1.9 1.3
v -1.8 1.9 -1.3
v -1.8 1.9 -1.4
v -1.8 2.3 1.4
v -1.8 2.3 1.3
v -1.8 2.3 -1.3
v -1.8 2.3 -1.4
v -1.8 2.5 1.4
v -1.8 2.5 -1.4
v -1.8 2.7 1.4
v -1.8 2.7 1.3
v -1.8 2.7 -1.3
v -1.8 2.7 -1.4
v -1.8 3.1 1.4
v -1.8 3.1 1.3
v -1.8 3.1 -1.3
v -1.8 3.1 -1.4
v -1.8 3.3 1.4
v -1.8 3.3 -1.4
v -1.8 3.5 1.4
v -1.8 3.5 1.3
v -1.8 3.5 -1.3
v -1.8 3.5 -1.4
v -1.8 3.9 1.4
v -1.8 3.9 1.3
v -1.8 3.9 -1.3
v -1.8 3.9 -1.4
v -1.8 4.1 1.4
v -1.8 4.1 -1.4
v -1.8 4.3 1.4
v -1.8 4.3 1.3
v -1.8 4.3 -1.3
v -1.8 4.3 -1.4
v -1.8 4.7 1.4
v -1.8 4.7 1.3
v -1.8 4.7 -1.3
v -1.8 4.7 -1.4
v -1.8 4.9 1.4
v -1.8 4.9 -1.4
v -1.8 5.3 1.4
v -1.8 5.3 1.3
v -1.8 5.3 -1.3
v -1.8 5.3 -1.4
v -1.8 5.9 1.4
v -1.8 5.9 1.3
v -1.8 5.9 -1.3
v -1.8 5.9 -1.4
v -1.8 6.2 1.5
v -1.8 6.2 1.4
v -1.8 6.2 -1.4
v -1.8 6.2 -1.5
v -1.7 0 1.7
v -1.7 0 -1.7
v -1.7 0.2 1.5
v -1.7 0.2 -1.5
v -1.7 0.7 1.4
v -1.7 0.7 1.3
v -1.7 0.7 -1.3
v -1.7 0.7 -1.4
v -1.7 0.9 1.4
v -1.7 0.9 1.3
v -1.7 0.9 -1.3
v -1.7 0.9 -1.4
v -1.7 1.5 1.4
v -1.7 1.5 1.3
v -1.7 1.5 -1.3
v -1.7 1.5 -1.4
v -1.7 1.7 1.4
v -1.7 1.7 1.3
v -1.7 1.7 -1.3
v -1.7 1.7 -1.4
v -1.7 2.3 1.4
v -1.7 2.3 1.3
v -1.7 2.3 -1.3
v -1.7 2.3 -1.4
v -1.7 2.5 1.4
v -1.7 2.5 1.3
v -1.7 2.5 -1.3
v -1.7 2.5 -1.4
v -1.7 3.1 1.4
v -1.7 3.1 1.3
v -1.7 3.1 -1.3
v -1.7 3.1 -1.4
v -1.7 3.3 1.4
v -1.7 3.3 1.3
v -1.7 3.3 -1.3
v -1.7 3.3 -1.4
v -1.7 3.9 1.4
v -1.7 3.9 1.3
v -1.7 3.9 -1.3
v -1.7 3.9 -1.4
v -1.7 4.1 1.4
v -1.7 4.1 1.3
v -1.7 4.1 -1.3
v -1.7 4.1 -1.4
v -1.7 4.7 1.4
v -1.7 4.7 1.3
v -1.7 4.7 -1.3
v -1.7 4.7 -1.4
v -1.7 4.9 1.4
v -1.7 4.9 1.3
v -1.7 4.9 -1.3
v -1.7 4.9 -1.4
v -1.7 5.9 1.4
v -1.7 5.9 1.3
v -1.7 5.9 -1.3
v -1.7 5.9 -1.4
v -1.7 6.2 1.5
v -1.7 6.2 1.4
v -1.7 6.2 1.3
v -1.7 6.2 -1.3
v -1.7 6.2 -1.4
v -1.7 6.2 -1.5
v -1.7 6.4 1.7
v -1.7 6.4 -1.7
v -2.2 0 1.7
v -2.2 6.4 1.7
v -1.7 0 1.7
v -1.7 6.4 1.7
v -2.2 0.2 1.4
v -2.2 0.3 1.4
v -2.2 0.9 1.4
v -2.2 1.1 1.4
v -2.2 1.7 1.4
v -2.2 1.9 1.4
v -2.2 2.5 1.4
v -2.2 2.7 1.4
v -2.2 3.3 1.4
v -2.2 3.5 1.4
v -2.2 4.1 1.4
v -2.2 4.3 1.4
v -2.2 4.9 1.4
v -2.2 5.3 1.4
v -2.1 0.2 1.4
v -2.1 0.3 1.4
v -2.1 0.9 1.4
v -2.1 1.1 1.4
v -2.1 1.7 1.4
v -2.1 1.9 1.4
v -2.1 2.5 1.4
v -2.1 2.7 1.4
v -2.1 3.3 1.4
v -2.1 3.5 1.4
v -2.1 4.1 1.4
v -2.1 4.3 1.4
v -2.1 4.9 1.4
v -2.1 5.3 1.4
v -1.8 0.7 1.4
v -1.8 0.9 1.4
v -1.8 1.5 1.4
v -1.8 1.7 1.4
v -1.8 2.3 1.4
v -1.8 2.5 1.4
v -1.8 3.1 1.4
v -1.8 3.3 1.4
v -1.8 3.9 1.4
v -1.8 4.1 1.4
v -1.8 4.7 1.4
v -1.8 4.9 1.4
v -1.8 5.9 1.4
v -1.8 6.2 1.4
v -1.7 0.7 1.4
v -1.7 0.9 1.4
v -1.7 1.5 1.4
v -1.7 1.7 1.4
v -1.7 2.3 1.4
v -1.7 2.5 1.4
v -1.7 3.1 1.4
v -1.7 3.3 1.4
v -1.7 3.9 1.4
v -1.7 4.1 1.4
v -1.7 4.7 1.4
v -1.7 4.9 1.4
v -1.7 5.9 1.4
v -1.7 6.2 1.4
v -2.2 0.2 -1.3
v -2.2 0.3 -1.3
v -2.2 0.9 -1.3
v -2.2 1.1 -1.3
v -2.2 1.7 -1.3
v -2.2 1.9 -1.3
v -2.2 2.5 -1.3
v -2.2 2.7 -1.3
v -2.2 3.3 -1.3
v -2.2 3.5 -1.3
v -2.2 4.1 -1.3
v -2.2 4.3 -1.3
v -2.2 4.9 -1.3
v -2.2 5.3 -1.3
v -2.1 0.2 -1.3
v -2.1 0.3 -1.3
v -2.1 0.7 -1.3
v -2.1 0.9 -1.3
v -2.1 1.1 -1.3
v -2.1 1.5 -1.3
v -2.1 1.7 -1.3
v -2.1 1.9 -1.3
v -2.1 2.3 -1.3
v -2.1 2.5 -1.3
v -2.1 2.7 -1.3
v -2.1 3.1 -1.3
v -2.1 3.3 -1.3
v -2.1 3.5 -1.3
v -2.1 3.9 -1.3
v -2.1 4.1 -1.3
v -2.1 4.3 -1.3
v -2.1 4.7 -1.3
v -2.1 4.9 -1.3
v -2.1 5.3 -1.3
v -2.1 5.9 -1.3
v -2 0.2 -1.3
v -2 0.3 -1.3
v -2 0.7 -1.3
v -2 1.1 -1.3
v -2 1.5 -1.3
v -2 1.9 -1.3
v -2 2.3 -1.3
v -2 2.7 -1.3
v -2 3.1 -1.3
v -2 3.5 -1.3
v -2 3.9 -1.3
v -2 4.3 -1.3
v -2 4.7 -1.3
v -2 5.3 -1.3
v -2 5.9 -1.3
v -2 6.2 -1.3
v -1.9 0.2 -1.3
v -1.9 0.3 -1.3
v -1.9 0.7 -1.3
v -1.9 1.1 -1.3
v -1.9 1.5 -1.3
v -1.9 1.9 -1.3
v -1.9 2.3 -1.3
v -1.9 2.7 -1.3
v -1.9 3.1 -1.3
v -1.9 3.5 -1.3
v -1.9 3.9 -1.3
v -1.9 4.3 -1.3
v -1.9 4.7 -1.3
v -1.9 5.3 -1.3
v -1.9 5.9 -1.3
v -1.9 6.2 -1.3
v -1.8 0.3 -1.3
v -1.8 0.7 -1.3
v -1.8 0.9 -1.3
v -1.8 1.1 -1.3
v -1.8 1.5 -1.3
v -1.8 1.7 -1.3
v -1.8 1.9 -1.3
v -1.8 2.3 -1.3
v -1.8 2.5 -1.3
v -1.8 2.7 -1.3
v -1.8 3.1 -1.3
v -1.8 3.3 -1.3
v -1.8 3.5 -1.3
v -1.8 3.9 -1.3
v -1.8 4.1 -1.3
v -1.8 4.3 -1.3
v -1.8 4.7 -1.3
v -1.8 4.9 -1.3
v -1.8 5.3 -1.3
v -1.8 5.9 -1.3
v -1.8 6.2 -1.3
v -1.7 0.7 -1.3
v -1.7 0.9 -1.3
v -1.7 1.5 -1.3
v -1.7 1.7 -1.3
v -1.7 2.3 -1.3
v -1.7 2.5 -1.3
v -1.7 3.1 -1.3
v -1.7 3.3 -1.3
v -1.7 3.9 -1.3
v -1.7 4.1 -1.3
v -1.7 4.7 -1.3
v -1.7 4.9 -1.3
v -1.7 5.9 -1.3
v -1.7 6.2 -1.3
v -2.1 0.2 -1.4
v -2.1 0.3 -1.4
v -2.1 0.7 -1.4
v -2.1 0.9 -1.4
v -2.1 1.1 -1.4
v -2.1 1.5 -1.4
v -2.1 1.7 -1.4
v -2.1 1.9 -1.4
v -2.1 2.3 -1.4
v -2.1 2.5 -1.4
v -2.1 2.7 -1.4
v -2.1 3.1 -1.4
v -2.1 3.3 -1.4
v -2.1 3.5 -1.4
v -2.1 3.9 -1.4
v -2.1 4.1 -1.4
v -2.1 4.3 -1.4
v -2.1 4.7 -1.4
v -2.1 4.9 -1.4
v -2.1 5.3 -1.4
v -2.1 5.9 -1.4
v -2.1 6.2 -1.4
v -2 0.2 -1.4
v -2 0.3 -1.4
v -2 0.7 -1.4
v -2 1.1 -1.4
v -2 1.5 -1.4
v -2 1.9 -1.4
v -2 2.3 -1.4
v -2 2.7 -1.4
v -2 3.1 -1.4
v -2 3.5 -1.4
v -2 3.9 -1.4
v -2 4.3 -1.4
v -2 4.7 -1.4
v -2 5.3 -1.4
v -2 5.9 -1.4
v -2 6.2 -1.4
v -1.9 0.2 -1.4
v -1.9 0.3 -1.4
v -1.9 0.7 -1.4
v -1.9 1.1 -1.4
v -1.9 1.5 -1.4
v -1.9 1.9 -1.4
v -1.9 2.3 -1.4
v -1.9 2.7 -1.4
v -1.9 3.1 -1.4
v -1.9 3.5 -1.4
v -1.9 3.9 -1.4
v -1.9 4.3 -1.4
v -1.9 4.7 -1.4
v -1.9 5.3 -1.4
v -1.9 5.9 -1.4
v -1.9 6.2 -1.4
v -1.8 0.2 -1.4
v -1.8 0.3 -1.4
v -1.8 0.7 -1.4
v -1.8 0.9 -1.4
v -1.8 1.1 -1.4
v -1.8 1.5 -1.4
v -1.8 1.7 -1.4
v -1.8 1.9 -1.4
v -1.8 2.3 -1.4
v -1.8 2.5 -1.4
v -1.8 2.7 -1.4
v -1.8 3.1 -1.4
v -1.8 3.3 -1.4
v -1.8 3.5 -1.4
v -1.8 3.9 -1.4
v -1.8 4.1 -1.4
v -1.8 4.3 -1.4
v -1.8 4.7 -1.4
v -1.8 4.9 -1.4
v -1.8 5.3 -1.4
v -1.8 5.9 -1.4
v -1.8 6.2 -1.4
v -2.2 0.2 -1.5
v -2.2 6.2 -1.5
v -2.1 0.2 -1.5
v -2.1 6.2 -1.5
v -1.8 0.2 -1.5
v -1.8 6.2 -1.5
v -1.7 0.2 -1.5
v -1.7 6.2 -1.5
v -2.2 0.2 1.5
v -2.2 6.2 1.5
v -2.1 0.2 1.5
v -2.1 6.2 1.5
v -1.8 0.2 1.5
v -1.8 6.2 1.5
v -1.7 0.2 1.5
v -1.7 6.2 1.5
v -2.1 0.2 1.4
v -2.1 0.3 1.4
v -2.1 0.7 1.4
v -2.1 0.9 1.4
v -2.1 1.1 1.4
v -2.1 1.5 1.4
v -2.1 1.7 1.4
v -2.1 1.9 1.4
v -2.1 2.3 1.4
v -2.1 2.5 1.4
v -2.1 2.7 1.4
v -2.1 3.1 1.4
v -2.1 3.3 1.4
v -2.1 3.5 1.4
v -2.1 3.9 1.4
v -2.1 4.1 1.4
v -2.1 4.3 1.4
v -2.1 4.7 1.4
v -2.1 4.9 1.4
v -2.1 5.3 1.4
v -2.1 5.9 1.4
v -2.1 6.2 1.4
v -2 0.2 1.4
v -2 0.3 1.4
v -2 0.7 1.4
v -2 1.1 1.4
v -2 1.5 1.4
v -2 1.9 1.4
v -2 2.3 1.4
v -2 2.7 1.4
v -2 3.1 1.4
v -2 3.5 1.4
v -2 3.9 1.4
v -2 4.3 1.4
v -2 4.7 1.4
v -2 5.3 1.4
v -2 5.9 1.4
v -2 6.2 1.4
v -1.9 0.2 1.4
v -1.9 0.3 1.4
v -1.9 0.7 1.4
v -1.9 1.1 1.4
v -1.9 1.5 1.4
v -1.9 1.9 1.4
v -1.9 2.3 1.4
v -1.9 2.7 1.4
v -1.9 3.1 1.4
v -1.9 3.5 1.4
v -1.9 3.9 1.4
v -1.9 4.3 1.4
v -1.9 4.7 1.4
v -1.9 5.3 1.4
v -1.9 5.9 1.4
v -1.9 6.2 1.4
v -1.8 0.2 1.4
v -1.8 0.3 1.4
v -1.8 0.7 1.4
v -1.8 0.9 1.4
v -1.8 1.1 1.4
v -1.8 1.5 1.4
v -1.8 1.7 1.4
v -1.8 1.9 1.4
v -1.8 2.3 1.4
v -1.8 2.5 1.4
v -1.8 2.7 1.4
v -1.8 3.1 1.4
v -1.8 3.3 1.4
v -1.8 3.5 1.4
v -1.8 3.9 1.4
v -1.8 4.1 1.4
v -1.8 4.3 1.4
v -1.8 4.7 1.4
v -1.8 4.9 1.4
v -1.8 5.3 1.4
v -1.8 5.9 1.4
v -1.8 6.2 1.4
v -2.2 0.2 1.3
v -2.2 0.3 1.3
v -2.2 0.9 1.3
v -2.2 1.1 1.3
v -2.2 1.7 1.3
v -2.2 1.9 1.3
v -2.2 2.5 1.3
v -2.2 2.7 1.3
v -2.2 3.3 1.3
v -2.2 3.5 1.3
v -2.2 4.1 1.3
v -2.2 4.3 1.3
v -2.2 4.9 1.3
v -2.2 5.3 1.3
v -2.1 0.2 1.3
v -2.1 0.3 1.3
v -2.1 0.7 1.3
v -2.1 0.9 1.3
v -2.1 1.1 1.3
v -2.1 1.5 1.3
v -2.1 1.7 1.3
v -2.1 1.9 1.3
v -2.1 2.3 1.3
v -2.1 2.5 1.3
v -2.1 2.7 1.3
v -2.1 3.1 1.3
v -2.1 3.3 1.3
v -2.1 3.5 1.3
v -2.1 3.9 1.3
v -2.1 4.1 1.3
v -2.1 4.3 1.3
v -2.1 4.7 1.3
v -2.1 4.9 1.3
v -2.1 5.3 1.3
v -2.1 5.9 1.3
v -2 0.2 1.3
v -2 0.3 1.3
v -2 0.7 1.3
v -2 1.1 1.3
v -2 1.5 1.3
v -2 1.9 1.3
v -2 2.3 1.3
v -2 2.7 1.3
v -2 3.1 1.3
v -2 3.5 1.3
v -2 3.9 1.3
v -2 4.3 1.3
v -2 4.7 1.3
v -2 5.3 1.3
v -2 5.9 1.3
v -2 6.2 1.3
v -1.9 0.2 1.3
v -1.9 0.3 1.3
v -1.9 0.7 1.3
v -1.9 1.1 1.3
v -1.9 1.5 1.3
v -1.9 1.9 1.3
v -1.9 2.3 1.3
v -1.9 2.7 1.3
v -1.9 3.1 1.3
v -1.9 3.5 1.3
v -1.9 3.9 1.3
v -1.9 4.3 1.3
v -1.9 4.7 1.3
v -1.9 5.3 1.3
v -1.9 5.9 1.3
v -1.9 6.2 1.3
v -1.8 0.3 1.3
v -1.8 0.7 1.3
v -1.8 0.9 1.3
v -1.8 1.1 1.3
v -1.8 1.5 1.3
v -1.8 1.7 1.3
v -1.8 1.9 1.3
v -1.8 2.3 1.3
v -1.8 2.5 1.3
v -1.8 2.7 1.3
v -1.8 3.1 1.3
v -1.8 3.3 1.3
v -1.8 3.5 1.3
v -1.8 3.9 1.3
v -1.8 4.1 1.3
v -1.8 4.3 1.3
v -1.8 4.7 1.3
v -1.8 4.9 1.3
v -1.8 5.3 1.3
v -1.8 5.9 1.3
v -1.8 6.2 1.3
v -1.7 0.7 1.3
v -1.7 0.9 1.3
v -1.7 1.5 1.3
v -1.7 1.7 1.3
v -1.7 2.3 1.3
v -1.7 2.5 1.3
v -1.7 3.1 1.3
v -1.7 3.3 1.3
v -1.7 3.9 1.3
v -1.7 4.1 1.3
v -1.7 4.7 1.3
v -1.7 4.9 1.3
v -1.7 5.9 1.3
v -1.7 6.2 1.3
v -2.2 0.2 -1.4
v -2.2 0.3 -1.4
v -2.2 0.9 -1.4
v -2.2 1.1 -1.4
v -2.2 1.7 -1.4
v -2.2 1.9 -1.4
v -2.2 2.5 -1.4
v -2.2 2.7 -1.4
v -2.2 3.3 -1.4
v -2.2 3.5 -1.4
v -2.2 4.1 -1.4
v -2.2 4.3 -1.4
v -2.2 4.9 -1.4
v -2.2 5.3 -1.4
v -2.1 0.2 -1.4
v -2.1 0.3 -1.4
v -2.1 0.9 -1.4
v -2.1 1.1 -1.4
v -2.1 1.7 -1.4
v -2.1 1.9 -1.4
v -2.1 2.5 -1.4
v -2.1 2.7 -1.4
v -2.1 3.3 -1.4
v -2.1 3.5 -1.4
v -2.1 4.1 -1.4
v -2.1 4.3 -1.4
v -2.1 4.9 -1.4
v -2.1 5.3 -1.4
v -1.8 0.7 -1.4
v -1.8 0.9 -1.4
v -1.8 1.5 -1.4
v -1.8 1.7 -1.4
v -1.8 2.3 -1.4
v -1.8 2.5 -1.4
v -1.8 3.1 -1.4
v -1.8 3.3 -1.4
v -1.8 3.9 -1.4
v -1.8 4.1 -1.4
v -1.8 4.7 -1.4
v -1.8 4.9 -1.4
v -1.8 5.9 -1.4
v -1.8 6.2 -1.4
v -1.7 0.7 -1.4
v -1.7 0.9 -1.4
v -1.7 1.5 -1.4
v -1.7 1.7 -1.4
v -1.7 2.3 -1.4
v -1.7 2.5 -1.4
v -1.7 3.1 -1.4
v -1.7 3.3 -1.4
v -1.7 3.9 -1.4
v -1.7 4.1 -1.4
v -1.7 4.7 -1.4
v -1.7 4.9 -1.4
v -1.7 5.9 -1.4
v -1.7 6.2 -1.4
v -2.2 0 -1.7
v -2.2 6.4 -1.7
v -1.7 0 -1.7
v -1.7 6.4 -1.7
v -2.2 0 1.7
v -1.7 0 1.7
v -2.2 0 -1.7
v -1.7 0 -1.7
v -2.1 0.3 1.4
v -2 0.3 1.4
v -1.9 0.3 1.4
v -1.8 0.3 1.4
v -2.1 0.3 1.3
v -2 0.3 1.3
v -1.9 0.3 1.3
v -1.8 0.3 1.3
v -2.1 0.3 -1.3
v -2 0.3 -1.3
v -1.9 0.3 -1.3
v -1.8 0.3 -1.3
v -2.1 0.3 -1.4
v -2 0.3 -1.4
v -1.9 0.3 -1.4
v -1.8 0.3 -1.4
v -2 0.7 1.4
v -1.9 0.7 1.4
v -1.8 0.7 1.4
v -1.7 0.7 1.4
v -2 0.7 1.3
v -1.9 0.7 1.3
v -1.8 0.7 1.3
v -1.7 0.7 1.3
v -2 0.7 -1.3
v -1.9 0.7 -1.3
v -1.8 0.7 -1.3
v -1.7 0.7 -1.3
v -2 0.7 -1.4
v -1.9 0.7 -1.4
v -1.8 0.7 -1.4
v -1.7 0.7 -1.4
v -2.2 0.9 1.4
v -2.1 0.9 1.4
v -2.2 0.9 1.3
v -2.1 0.9 1.3
v -2.2 0.9 -1.3
v -2.1 0.9 -1.3
v -2.2 0.9 -1.4
v -2.1 0.9 -1.4
v -2.1 1.1 1.4
v -2 1.1 1.4
v -1.9 1.1 1.4
v -1.8 1.1 1.4
v -2.1 1.1 1.3
v -2 1.1 1.3
v -1.9 1.1 1.3
v -1.8 1.1 1.3
v -2.1 1.1 -1.3
v -2 1.1 -1.3
v -1.9 1.1 -1.3
v -1.8 1.1 -1.3
v -2.1 1.1 -1.4
v -2 1.1 -1.4
v -1.9 1.1 -1.4
v -1.8 1.1 -1.4
v -2 1.5 1.4
v -1.9 1.5 1.4
v -1.8 1.5 1.4
v -1.7 1.5 1.4
v -2 1.5 1.3
v -1.9 1.5 1.3
v -1.8 1.5 1.3
v -1.7 1.5 1.3
v -2 1.5 -1.3
v -1.9 1.5 -1.3
v -1.8 1.5 -1.3
v -1.7 1.5 -1.3
v -2 1.5 -1.4
v -1.9 1.5 -1.4
v -1.8 1.5 -1.4
v -1.7 1.5 -1.4
v -2.2 1.7 1.4
v -2.1 1.7 1.4
v -2.2 1.7 1.3
v -2.1 1.7 1.3
v -2.2 1.7 -1.3
v -2.1 1.7 -1.3
v -2.2 1.7 -1.4
v -2.1 1.7 -1.4
v -2.1 1.9 1.4
v -2 1.9 1.4
v -1.9 1.9 1.4
v -1.8 1.9 1.4
v -2.1 1.9 1.3
v -2 1.9 1.3
v -1.9 1.9 1.3
v -1.8 1.9 1.3
v -2.1 1.9 -1.3
v -2 1.9 -1.3
v -1.9 1.9 -1.3
v -1.8 1.9 -1.3
v -2.1 1.9 -1.4
v -2 1.9 -1.4
v -1.9 1.9 -1.4
v -1.8 1.9 -1.4
v -2 2.3 1.4
v -1.9 2.3 1.4
v -1.8 2.3 1.4
v -1.7 2.3 1.4
v -2 2.3 1.3
v -1.9 2.3 1.3
v -1.8 2.3 1.3
v -1.7 2.3 1.3
v -2 2.3 -1.3
v -1.9 2.3 -1.3
v -1.8 2.3 -1.3
v -1.7 2.3 -1.3
v -2 2.3 -1.4
v -1.9 2.3 -1.4
v -1.8 2.3 -1.4
v -1.7 2.3 -1.4
v -2.2 2.5 1.4
v -2.1 2.5 1.4
v -2.2 2.5 1.3
v -2.1 2.5 1.3
v -2.2 2.5 -1.3
v -2.1 2.5 -1.3
v -2.2 2.5 -1.4
v -2.1 2.5 -1.4
v -2.1 2.7 1.4
v -2 2.7 1.4
v -1.9 2.7 1.4
v -1.8 2.7 1.4
v -2.1 2.7 1.3
v -2 2.7 1.3
v -1.9 2.7 1.3
v -1.8 2.7 1.3
v -2.1 2.7 -1.3
v -2 2.7 -1.3
v -1.9 2.7 -1.3
v -1.8 2.7 -1.3
v -2.1 2.7 -1.4
v -2 2.7 -1.4
v -1.9 2.7 -1.4
v -1.8 2.7 -1.4
v -2 3.1 1.4
v -1.9 3.1 1.4
v -1.8 3.1 1.4
v -1.7 3.1 1.4
v -2 3.1 1.3
v -1.9 3.1 1.3
v -1.8 3.1 1.3
v -1.7 3.1 1.3
v -2 3.1 -1.3
v -1.9 3.1 -1.3
v -1.8 3.1 -1.3
v -1.7 3.1 -1.3
v -2 3.1 -1.4
v -1.9 3.1 -1.4
v -1.8 3.1 -1.4
v -1.7 3.1 -1.4
v -2.2 3.3 1.4
v -2.1 3.3 1.4
v -2.2 3.3 1.3
v -2.1 3.3 1.3
v -2.2 3.3 -1.3
v -2.1 3.3 -1.3
v -2.2 3.3 -1.4
v -2.1 3.3 -1.4
v -2.1 3.5 1.4
v -2 3.5 1.4
v -1.9 3.5 1.4
v -1.8 3.5 1.4
v -2.1 3.5 1.3
v -2 3.5 1.3
v -1.9 3.5 1.3
v -1.8 3.5 1.3
v -2.1 3.5 -1.3
v -2 3.5 -1.3
v -1.9 3.5 -1.3
v -1.8 3.5 -1.3
v -2.1 3.5 -1.4
v -2 3.5 -1.4
v -1.9 3.5 -1.4
v -1.8 3.5 -1.4
v -2 3.9 1.4
v -1.9 3.9 1.4
v -1.8 3.9 1.4
v -1.7 3.9 1.4
v -2 3.9 1.3
v -1.9 3.9 1.3
v -1.8 3.9 1.3
v -1.7 3.9 1.3
v -2 3.9 -1.3
v -1.9 3.9 -1.3
v -1.8 3.9 -1.3
v -1.7 3.9 -1.3
v -2 3.9 -1.4
v -1.9 3.9 -1.4
v -1.8 3.9 -1.4
v -1.7 3.9 -1.4
v -2.2 4.1 1.4
v -2.1 4.1 1.4
v -2.2 4.1 1.3
v -2.1 4.1 1.3
v -2.2 4.1 -1.3
v -2.1 4.1 -1.3
v -2.2 4.1 -1.4
v -2.1 4.1 -1.4
v -2.1 4.3 1.4
v -2 4.3 1.4
v -1.9 4.3 1.4
v -1.8 4.3 1.4
v -2.1 4.3 1.3
v -2 4.3 1.3
v -1.9 4.3 1.3
v -1.8 4.3 1.3
v -2.1 4.3 -1.3
v -2 4.3 -1.3
v -1.9 4.3 -1.3
v -1.8 4.3 -1.3
v -2.1 4.3 -1.4
v -2 4.3 -1.4
v -1.9 4.3 -1.4
v -1.8 4.3 -1.4
v -2 4.7 1.4
v -1.9 4.7 1.4
v -1.8 4.7 1.4
v -1.7 4.7 1.4
v -2 4.7 1.3
v -1.9 4.7 1.3
v -1.8 4.7 1.3
v -1.7 4.7 1.3
v -2 4.7 -1.3
v -1.9 4.7 -1.3
v -1.8 4.7 -1.3
v -1.7 4.7 -1.3
v -2 4.7 -1.4
v -1.9 4.7 -1.4
v -1.8 4.7 -1.4
v -1.7 4.7 -1.4
v -2.2 4.9 1.4
v -2.1 4.9 1.4
v -2.2 4.9 1.3
v -2.1 4.9 1.3
v -2.2 4.9 -1.3
v -2.1 4.9 -1.3
v -2.2 4.9 -1.4
v -2.1 4.9 -1.4
v -2.1 5.3 1.4
v -2 5.3 1.4
v -1.9 5.3 1.4
v -1.8 5.3 1.4
v -2.1 5.3 1.3
v -2 5.3 1.3
v -1.9 5.3 1.3
v -1.8 5.3 1.3
v -2.1 5.3 -1.3
v -2 5.3 -1.3
v -1.9 5.3 -1.3
v -1.8 5.3 -1.3
v -2.1 5.3 -1.4
v -2 5.3 -1.4
v -1.9 5.3 -1.4
v -1.8 5.3 -1.4
v -2 5.9 1.4
v -1.9 5.9 1.4
v -1.8 5.9 1.4
v -1.7 5.9 1.4
v -2 5.9 1.3
v -1.9 5.9 1.3
v -1.8 5.9 1.3
v -1.7 5.9 1.3
v -2 5.9 -1.3
v -1.9 5.9 -1.3
v -1.8 5.9 -1.3
v -1.7 5.9 -1.3
v -2 5.9 -1.4
v -1.9 5.9 -1.4
v -1.8 5.9 -1.4
v -1.7 5.9 -1.4
v -2.2 6.2 1.5
v -2.1 6.2 1.5
v -1.8 6.2 1.5
v -1.7 6.2 1.5
v -2.1 6.2 1.4
v -2 6.2 1.4
v -1.9 6.2 1.4
v -1.8 6.2 1.4
v -1.7 6.2 1.4
v -2 6.2 1.3
v -1.9 6.2 1.3
v -1.8 6.2 1.3
v -1.7 6.2 1.3
v -2 6.2 -1.3
v -1.9 6.2 -1.3
v -1.8 6.2 -1.3
v -1.7 6.2 -1.3
v -2.1 6.2 -1.4
v -2 6.2 -1.4
v -1.9 6.2 -1.4
v -1.8 6.2 -1.4
v -1.7 6.2 -1.4
v -2.2 6.2 -1.5
v -2.1 6.2 -1.5
v -1.8 6.2 -1.5
v -1.7 6.2 -1.5
v -2.2 0.2 1.5
v -2.1 0.2 1.5
v -1.8 0.2 1.5
v -1.7 0.2 1.5
v -2.2 0.2 1.4
v -2.1 0.2 1.4
v -2 0.2 1.4
v -1.9 0.2 1.4
v -1.8 0.2 1.4
v -2.2 0.2 1.3
v -2.1 0.2 1.3
v -2 0.2 1.3
v -1.9 0.2 1.3
v -2.2 0.2 -1.3
v -2.1 0.2 -1.3
v -2 0.2 -1.3
v -1.9 0.2 -1.3
v -2.2 0.2 -1.4
v -2.1 0.2 -1.4
v -2 0.2 -1.4
v -1.9 0.2 -1.4
v -1.8 0.2 -1.4
v -2.2 0.2 -1.5
v -2.1 0.2 -1.5
v -1.8 0.2 -1.5
v -1.7 0.2 -1.5
v -2.2 0.3 1.4
v -2.1 0.3 1.4
v -2 0.3 1.4
v -1.9 0.3 1.4
v -2.2 0.3 1.3
v -2.1 0.3 1.3
v -2 0.3 1.3
v -1.9 0.3 1.3
v -2.2 0.3 -1.3
v -2.1 0.3 -1.3
v -2 0.3 -1.3
v -1.9 0.3 -1.3
v -2.2 0.3 -1.4
v -2.1 0.3 -1.4
v -2 0.3 -1.4
v -1.9 0.3 -1.4
v -2.1 0.7 1.4
v -2 0.7 1.4
v -1.9 0.7 1.4
v -1.8 0.7 1.4
v -2.1 0.7 1.3
v -2 0.7 1.3
v -1.9 0.7 1.3
v -1.8 0.7 1.3
v -2.1 0.7 -1.3
v -2 0.7 -1.3
v -1.9 0.7 -1.3
v -1.8 0.7 -1.3
v -2.1 0.7 -1.4
v -2 0.7 -1.4
v -1.9 0.7 -1.4
v -1.8 0.7 -1.4
v -1.8 0.9 1.4
v -1.7 0.9 1.4
v -1.8 0.9 1.3
v -1.7 0.9 1.3
v -1.8 0.9 -1.3
v -1.7 0.9 -1.3
v -1.8 0.9 -1.4
v -1.7 0.9 -1.4
v -2.2 1.1 1.4
v -2.1 1.1 1.4
v -2 1.1 1.4
v -1.9 1.1 1.4
v -2.2 1.1 1.3
v -2.1 1.1 1.3
v -2 1.1 1.3
v -1.9 1.1 1.3
v -2.2 1.1 -1.3
v -2.1 1.1 -1.3
v -2 1.1 -1.3
v -1.9 1.1 -1.3
v -2.2 1.1 -1.4
v -2.1 1.1 -1.4
v -2 1.1 -1.4
v -1.9 1.1 -1.4
v -2.1 1.5 1.4
v -2 1.5 1.4
v -1.9 1.5 1.4
v -1.8 1.5 1.4
v -2.1 1.5 1.3
v -2 1.5 1.3
v -1.9 1.5 1.3
v -1.8 1.5 1.3
v -2.1 1.5 -1.3
v -2 1.5 -1.3
v -1.9 1.5 -1.3
v -1.8 1.5 -1.3
v -2.1 1.5 -1.4
v -2 1.5 -1.4
v -1.9 1.5 -1.4
v -1.8 1.5 -1.4
v -1.8 1.7 1.4
v -1.7 1.7 1.4
v -1.8 1.7 1.3
v -1.7 1.7 1.3
v -1.8 1.7 -1.3
v -1.7 1.7 -1.3
v -1.8 1.7 -1.4
v -1.7 1.7 -1.4
v -2.2 1.9 1.4
v -2.1 1.9 1.4
v -2 1.9 1.4
v -1.9 1.9 1.4
v -2.2 1.9 1.3
v -2.1 1.9 1.3
v -2 1.9 1.3
v -1.9 1.9 1.3
v -2.2 1.9 -1.3
v -2.1 1.9 -1.3
v -2 1.9 -1.3
v -1.9 1.9 -1.3
v -2.2 1.9 -1.4
v -2.1 1.9 -1.4
v -2 1.9 -1.4
v -1.9 1.9 -1.4
v -2.1 2.3 1.4
v -2 2.3 1.4
v -1.9 2.3 1.4
v -1.8 2.3 1.4
v -2.1 2.3 1.3
v -2 2.3 1.3
v -1.9 2.3 1.3
v -1.8 2.3 1.3
v -2.1 2.3 -1.3
v -2 2.3 -1.3
v -1.9 2.3 -1.3
v -1.8 2.3 -1.3
v -2.1 2.3 -1.4
v -2 2.3 -1.4
v -1.9 2.3 -1.4
v -1.8 2.3 -1.4
v -1.8 2.5 1.4
v -1.7 2.5 1.4
v -1.8 2.5 1.3
v -1.7 2.5 1.3
v -1.8 2.5 -1.3
v -1.7 2.5 -1.3
v -1.8 2.5 -1.4
v -1.7 2.5 -1.4
v -2.2 2.7 1.4
v -2.1 2.7 1.4
v -2 2.7 1.4
v -1.9 2.7 1.4
v -2.2 2.7 1.3
v -2.1 2.7 1.3
v -2 2.7 1.3
v -1.9 2.7 1.3
v -2.2 2.7 -1.3
v -2.1 2.7 -1.3
v -2 2.7 -1.3
v -1.9 2.7 -1.3
v -2.2 2.7 -1.4
v -2.1 2.7 -1.4
v -2 2.7 -1.4
v -1.9 2.7 -1.4
v -2.1 3.1 1.4
v -2 3.1 1.4
v -1.9 3.1 1.4
v -1.8 3.1 1.4
v -2.1 3.1 1.3
v -2 3.1 1.3
v -1.9 3.1 1.3
v -1.8 3.1 1.3
v -2.1 3.1 -1.3
v -2 3.1 -1.3
v -1.9 3.1 -1.3
v -1.8 3.1 -1.3
v -2.1 3.1 -1.4
v -2 3.1 -1.4
v -1.9 3.1 -1.4
v -1.8 3.1 -1.4
v -1.8 3.3 1.4
v -1.7 3.3 1.4
v -1.8 3.3 1.3
v -1.7 3.3 1.3
v -1.8 3.3 -1.3
v -1.7 3.3 -1.3
v -1.8 3.3 -1.4
v -1.7 3.3 -1.4
v -2.2 3.5 1.4
v -2.1 3.5 1.4
v -2 3.5 1.4
v -1.9 3.5 1.4
v -2.2 3.5 1.3
v -2.1 3.5 1.3
v -2 3.5 1.3
v -1.9 3.5 1.3
v -2.2 3.5 -1.3
v -2.1 3.5 -1.3
v -2 3.5 -1.3
v -1.9 3.5 -1.3
v -2.2 3.5 -1.4
v -2.1 3.5 -1.4
v -2 3.5 -1.4
v -1.9 3.5 -1.4
v -2.1 3.9 1.4
v -2 3.9 1.4
v -1.9 3.9 1.4
v -1.8 3.9 1.4
v -2.1 3.9 1.3
v -2 3.9 1.3
v -1.9 3.9 1.3
v -1.8 3.9 1.3
v -2.1 3.9 -1.3
v -2 3.9 -1.3
v -1.9 3.9 -1.3
v -1.8 3.9 -1.3
v -2.1 3.9 -1.4
v -2 3.9 -1.4
v -1.9 3.9 -1.4
v -1.8 3.9 -1.4
v -1.8 4.1 1.4
v -1.7 4.1 1.4
v -1.8 4.1 1.3
v -1.7 4.1 1.3
v -1.8 4.1 -1.3
v -1.7 4.1 -1.3
v -1.8 4.1 -1.4
v -1.7 4.1 -1.4
v -2.2 4.3 1.4
v -2.1 4.3 1.4
v -2 4.3 1.4
v -1.9 4.3 1.4
v -2.2 4.3 1.3
v -2.1 4.3 1.3
v -2 4.3 1.3
v -1.9 4.3 1.3
v -2.2 4.3 -1.3
v -2.1 4.3 -1.3
v -2 4.3 -1.3
v -1.9 4.3 -1.3
v -2.2 4.3 -1.4
v -2.1 4.3 -1.4
v -2 4.3 -1.4
v -1.9 4.3 -1.4
v -2.1 4.7 1.4
v -2 4.7 1.4
v -1.9 4.7 1.4
v -1.8 4.7 1.4
v -2.1 4.7 1.3
v -2 4.7 1.3
v -1.9 4.7 1.3
v -1.8 4.7 1.3
v -2.1 4.7 -1.3
v -2 4.7 -1.3
v -1.9 4.7 -1.3
v -1.8 4.7 -1.3
v -2.1 4.7 -1.4
v -2 4.7 -1.4
v -1.9 4.7 -1.4
v -1.8 4.7 -1.4
v -1.8 4.9 1.4
v -1.7 4.9 1.4
v -1.8 4.9 1.3
v -1.7 4.9 1.3
v -1.8 4.9 -1.3
v -1.7 4.9 -1.3
v -1.8 4.9 -1.4
v -1.7 4.9 -1.4
v -2.2 5.3 1.4
v -2.1 5.3 1.4
v -2 5.3 1.4
v -1.9 5.3 1.4
v -2.2 5.3 1.3
v -2.1 5.3 1.3
v -2 5.3 1.3
v -1.9 5.3 1.3
v -2.2 5.3 -1.3
v -2.1 5.3 -1.3
v -2 5.3 -1.3
v -1.9 5.3 -1.3
v -2.2 5.3 -1.4
v -2.1 5.3 -1.4
v -2 5.3 -1.4
v -1.9 5.3 -1.4
v -2.1 5.9 1.4
v -2 5.9 1.4
v -1.9 5.9 1.4
v -1.8 5.9 1.4
v -2.1 5.9 1.3
v -2 5.9 1.3
v -1.9 5.9 1.3
v -1.8 5.9 1.3
v -2.1 5.9 -1.3
v -2 5.9 -1.3
v -1.9 5.9 -1.3
v -1.8 5.9 -1.3
v -2.1 5.9 -1.4
v -2 5.9 -1.4
v -1.9 5.9 -1.4
v -1.8 5.9 -1.4
v -2.2 6.4 1.7
v -1.7 6.4 1.7
v -2.2 6.4 -1.7
v -1.7 6.4 -1.7

# faces
f 3/1/1 2/1/1 1/1/1
f 4/1/1 2/1/1 3/1/1
f 5/1/1 2/1/1 4/1/1
f 6/1/1 2/1/1 5/1/1
f 7/1/1 2/1/1 6/1/1
f 8/1/1 2/1/1 7/1/1
f 9/3/1 5/3/1 4/3/1
f 10/3/1 5/3/1 9/3/1
f 11/3/1 7/3/1 6/3/1
f 12/3/1 7/3/1 11/3/1
f 17/3/1 14/3/1 13/3/1
f 18/3/1 14/3/1 17/3/1
f 19/3/1 16/3/1 15/3/1
f 20/3/1 16/3/1 19/3/1
f 25/3/1 22/3/1 21/3/1
f 26/3/1 22/3/1 25/3/1
f 27/3/1 24/3/1 23/3/1
f 28/3/1 24/3/1 27/3/1
f 33/3/1 30/3/1 29/3/1
f 34/3/1 30/3/1 33/3/1
f 35/3/1 32/3/1 31/3/1
f 36/3/1 32/3/1 35/3/1
f 41/3/1 38/3/1 37/3/1
f 42/3/1 38/3/1 41/3/1
f 43/3/1 40/3/1 39/3/1
f 44/3/1 40/3/1 43/3/1
f 49/3/1 46/3/1 45/3/1
f 50/3/1 46/3/1 49/3/1
f 51/3/1 48/3/1 47/3/1
f 52/3/1 48/3/1 51/3/1
f 57/3/1 54/3/1 53/3/1
f 58/3/1 54/3/1 57/3/1
f 59/3/1 56/3/1 55/3/1
f 60/3/1 56/3/1 59/3/1
f 61/1/1 3/1/1 1/1/1
f 62/1/1 2/1/1 8/1/1
f 63/1/1 61/1/1 1/1/1
f 63/1/1 62/1/1 61/1/1
f 64/1/1 2/1/1 62/1/1
f 64/1/1 62/1/1 63/1/1
f 69/3/1 66/3/1 65/3/1
f 72/3/1 68/3/1 67/3/1
f 73/3/1 70/3/1 69/3/1
f 73/3/1 69/3/1 65/3/1
f 74/3/1 70/3/1 73/3/1
f 75/3/1 72/3/1 71/3/1
f 76/3/1 68/3/1 72/3/1
f 76/3/1 72/3/1 75/3/1
f 77/3/1 73/3/1 65/3/1
f 78/3/1 68/3/1 76/3/1
f 79/3/1 77/3/1 65/3/1
f 82/3/1 68/3/1 78/3/1
f 83/3/1 80/3/1 79/3/1
f 83/3/1 79/3/1 65/3/1
f 84/3/1 80/3/1 83/3/1
f 85/3/1 82/3/1 81/3/1
f 86/3/1 68/3/1 82/3/1
f 86/3/1 82/3/1 85/3/1
f 87/3/1 83/3/1 65/3/1
f 88/3/1 68/3/1 86/3/1
f 89/3/1 87/3/1 65/3/1
f 92/3/1 68/3/1 88/3/1
f 93/3/1 90/3/1 89/3/1
f 93/3/1 89/3/1 65/3/1
f 94/3/1 90/3/1 93/3/1
f 95/3/1 92/3/1 91/3/1
f 96/3/1 68/3/1 92/3/1
f 96/3/1 92/3/1 95/3/1
f 97/3/1 93/3/1 65/3/1
f 98/3/1 68/3/1 96/3/1
f 99/3/1 97/3/1 65/3/1
f 102/3/1 68/3/1 98/3/1
f 103/3/1 100/3/1 99/3/1
f 103/3/1 99/3/1 65/3/1
f 104/3/1 100/3/1 103/3/1
f 105/3/1 102/3/1 101/3/1
f 106/3/1 68/3/1 102/3/1
f 106/3/1 102/3/1 105/3/1
f 107/3/1 103/3/1 65/3/1
f 108/3/1 68/3/1 106/3/1
f 109/3/1 107/3/1 65/3/1
f 112/3/1 68/3/1 108/3/1
f 113/3/1 110/3/1 109/3/1
f 113/3/1 109/3/1 65/3/1
f 114/3/1 110/3/1 113/3/1
f 115/3/1 112/3/1 111/3/1
f 116/3/1 68/3/1 112/3/1
f 116/3/1 112/3/1 115/3/1
f 117/3/1 113/3/1 65/3/1
f 118/3/1 68/3/1 116/3/1
f 119/3/1 117/3/1 65/3/1
f 122/3/1 68/3/1 118/3/1
f 123/3/1 120/3/1 119/3/1
f 123/3/1 119/3/1 65/3/1
f 124/3/1 120/3/1 123/3/1
f 125/3/1 122/3/1 121/3/1
f 126/3/1 68/3/1 122/3/1
f 126/3/1 122/3/1 125/3/1
f 127/3/1 123/3/1 65/3/1
f 128/3/1 68/3/1 126/3/1
f 129/3/1 127/3/1 65/3/1
f 132/3/1 68/3/1 128/3/1
f 133/3/1 130/3/1 129/3/1
f 133/3/1 129/3/1 65/3/1
f 134/3/1 130/3/1 133/3/1
f 135/3/1 132/3/1 131/3/1
f 136/3/1 68/3/1 132/3/1
f 136/3/1 132/3/1 135/3/1
f 137/3/1 133/3/1 65/3/1
f 138/3/1 133/3/1 137/3/1
f 139/3/1 68/3/1 136/3/1
f 140/3/1 68/3/1 139/3/1
f 145/3/1 142/3/1 141/3/1
f 146/3/1 142/3/1 145/3/1
f 147/3/1 144/3/1 143/3/1
f 148/3/1 144/3/1 147/3/1
f 153/3/1 150/3/1 149/3/1
f 154/3/1 150/3/1 153/3/1
f 155/3/1 152/3/1 151/3/1
f 156/3/1 152/3/1 155/3/1
f 161/3/1 158/3/1 157/3/1
f 162/3/1 158/3/1 161/3/1
f 163/3/1 160/3/1 159/3/1
f 164/3/1 160/3/1 163/3/1
f 169/3/1 166/3/1 165/3/1
f 170/3/1 166/3/1 169/3/1
f 171/3/1 168/3/1 167/3/1
f 172/3/1 168/3/1 171/3/1
f 177/3/1 174/3/1 173/3/1
f 178/3/1 174/3/1 177/3/1
f 179/3/1 176/3/1 175/3/1
f 180/3/1 176/3/1 179/3/1
f 185/3/1 182/3/1 181/3/1
f 186/3/1 182/3/1 185/3/1
f 187/3/1 184/3/1 183/3/1
f 188/3/1 184/3/1 187/3/1
f 193/3/1 190/3/1 189/3/1
f 194/3/1 190/3/1 193/3/1
f 195/3/1 192/3/1 191/3/1
f 196/3/1 192/3/1 195/3/1
f 201/3/1 198/3/1 197/3/1
f 202/3/1 198/3/1 201/3/1
f 203/3/1 200/3/1 199/3/1
f 204/3/1 200/3/1 203/3/1
f 209/3/1 206/3/1 205/3/1
f 210/3/1 206/3/1 209/3/1
f 211/3/1 208/3/1 207/3/1
f 212/3/1 208/3/1 211/3/1
f 217/3/1 214/3/1 213/3/1
f 218/3/1 214/3/1 217/3/1
f 219/3/1 216/3/1 215/3/1
f 220/3/1 216/3/1 219/3/1
f 225/3/1 222/3/1 221/3/1
f 226/3/1 222/3/1 225/3/1
f 227/3/1 224/3/1 223/3/1
f 228/3/1 224/3/1 227/3/1
f 233/3/1 230/3/1 229/3/1
f 234/3/1 230/3/1 233/3/1
f 235/3/1 232/3/1 231/3/1
f 236/3/1 232/3/1 235/3/1
f 241/3/1 238/3/1 237/3/1
f 242/3/1 238/3/1 241/3/1
f 243/3/1 240/3/1 239/3/1
f 244/3/1 240/3/1 243/3/1
f 249/3/1 246/3/1 245/3/1
f 250/3/1 246/3/1 249/3/1
f 251/3/1 248/3/1 247/3/1
f 252/3/1 248/3/1 251/3/1
f 257/3/1 254/3/1 253/3/1
f 258/3/1 254/3/1 257/3/1
f 259/3/1 256/3/1 255/3/1
f 260/3/1 256/3/1 259/3/1
f 265/3/1 262/3/1 261/3/1
f 266/3/1 262/3/1 265/3/1
f 267/3/1 264/3/1 263/3/1
f 268/3/1 264/3/1 267/3/1
f 273/3/1 270/3/1 269/3/1
f 274/3/1 270/3/1 273/3/1
f 275/3/1 272/3/1 271/3/1
f 276/3/1 272/3/1 275/3/1
f 281/3/1 278/3/1 277/3/1
f 282/3/1 278/3/1 281/3/1
f 283/3/1 280/3/1 279/3/1
f 284/3/1 280/3/1 283/3/1
f 289/3/1 286/3/1 285/3/1
f 290/3/1 286/3/1 289/3/1
f 291/3/1 288/3/1 287/3/1
f 292/3/1 288/3/1 291/3/1
f 297/3/1 294/3/1 293/3/1
f 298/3/1 294/3/1 297/3/1
f 299/3/1 296/3/1 295/3/1
f 300/3/1 296/3/1 299/3/1
f 305/3/1 302/3/1 301/3/1
f 306/3/1 302/3/1 305/3/1
f 307/3/1 304/3/1 303/3/1
f 308/3/1 304/3/1 307/3/1
f 313/3/1 310/3/1 309/3/1
f 314/3/1 310/3/1 313/3/1
f 315/3/1 312/3/1 311/3/1
f 316/3/1 312/3/1 315/3/1
f 317/3/2 318/3/2 321/3/2
f 321/3/2 318/3/2 322/3/2
f 319/3/2 320/3/2 323/3/2
f 323/3/2 320/3/2 324/3/2
f 325/3/2 326/3/2 329/3/2
f 329/3/2 326/3/2 330/3/2
f 327/3/2 328/3/2 331/3/2
f 331/3/2 328/3/2 332/3/2
f 333/3/2 334/3/2 337/3/2
f 337/3/2 334/3/2 338/3/2
f 335/3/2 336/3/2 339/3/2
f 339/3/2 336/3/2 340/3/2
f 341/3/2 342/3/2 345/3/2
f 345/3/2 342/3/2 346/3/2
f 343/3/2 344/3/2 347/3/2
f 347/3/2 344/3/2 348/3/2
f 349/3/2 350/3/2 353/3/2
f 353/3/2 350/3/2 354/3/2
f 351/3/2 352/3/2 355/3/2
f 355/3/2 352/3/2 356/3/2
f 357/3/2 358/3/2 361/3/2
f 361/3/2 358/3/2 362/3/2
f 359/3/2 360/3/2 363/3/2
f 363/3/2 360/3/2 364/3/2
f 365/3/2 366/3/2 369/3/2
f 369/3/2 366/3/2 370/3/2
f 367/3/2 368/3/2 371/3/2
f 371/3/2 368/3/2 372/3/2
f 373/3/2 374/3/2 377/3/2
f 377/3/2 374/3/2 378/3/2
f 375/3/2 376/3/2 379/3/2
f 379/3/2 376/3/2 380/3/2
f 381/3/2 382/3/2 385/3/2
f 385/3/2 382/3/2 386/3/2
f 383/3/2 384/3/2 387/3/2
f 387/3/2 384/3/2 388/3/2
f 389/3/2 390/3/2 393/3/2
f 393/3/2 390/3/2 394/3/2
f 391/3/2 392/3/2 395/3/2
f 395/3/2 392/3/2 396/3/2
f 397/3/2 398/3/2 401/3/2
f 401/3/2 398/3/2 402/3/2
f 399/3/2 400/3/2 403/3/2
f 403/3/2 400/3/2 404/3/2
f 405/3/2 406/3/2 409/3/2
f 409/3/2 406/3/2 410/3/2
f 407/3/2 408/3/2 411/3/2
f 411/3/2 408/3/2 412/3/2
f 413/3/2 414/3/2 417/3/2
f 417/3/2 414/3/2 418/3/2
f 415/3/2 416/3/2 419/3/2
f 419/3/2 416/3/2 420/3/2
f 421/3/2 422/3/2 425/3/2
f 425/3/2 422/3/2 426/3/2
f 423/3/2 424/3/2 427/3/2
f 427/3/2 424/3/2 428/3/2
f 429/3/2 430/3/2 433/3/2
f 433/3/2 430/3/2 434/3/2
f 431/3/2 432/3/2 435/3/2
f 435/3/2 432/3/2 436/3/2
f 437/3/2 438/3/2 441/3/2
f 441/3/2 438/3/2 442/3/2
f 439/3/2 440/3/2 443/3/2
f 443/3/2 440/3/2 444/3/2
f 445/3/2 446/3/2 449/3/2
f 449/3/2 446/3/2 450/3/2
f 447/3/2 448/3/2 451/3/2
f 451/3/2 448/3/2 452/3/2
f 453/3/2 454/3/2 457/3/2
f 457/3/2 454/3/2 458/3/2
f 455/3/2 456/3/2 459/3/2
f 459/3/2 456/3/2 460/3/2
f 461/3/2 462/3/2 465/3/2
f 465/3/2 462/3/2 466/3/2
f 463/3/2 464/3/2 467/3/2
f 467/3/2 464/3/2 468/3/2
f 469/3/2 470/3/2 473/3/2
f 473/3/2 470/3/2 474/3/2
f 471/3/2 472/3/2 475/3/2
f 475/3/2 472/3/2 476/3/2
f 477/3/2 478/3/2 481/3/2
f 481/3/2 478/3/2 482/3/2
f 479/3/2 480/3/2 483/3/2
f 483/3/2 480/3/2 484/3/2
f 485/3/2 486/3/2 489/3/2
f 489/3/2 486/3/2 490/3/2
f 487/3/2 488/3/2 491/3/2
f 491/3/2 488/3/2 492/3/2
f 493/3/2 494/3/2 497/3/2
f 495/3/2 496/3/2 500/3/2
f 497/3/2 498/3/2 501/3/2
f 493/3/2 497/3/2 501/3/2
f 501/3/2 498/3/2 502/3/2
f 499/3/2 500/3/2 503/3/2
f 500/3/2 496/3/2 504/3/2
f 503/3/2 500/3/2 504/3/2
f 493/3/2 501/3/2 505/3/2
f 504/3/2 496/3/2 506/3/2
f 493/3/2 505/3/2 507/3/2
f 506/3/2 496/3/2 510/3/2
f 507/3/2 508/3/2 511/3/2
f 493/3/2 507/3/2 511/3/2
f 511/3/2 508/3/2 512/3/2
f 509/3/2 510/3/2 513/3/2
f 510/3/2 496/3/2 514/3/2
f 513/3/2 510/3/2 514/3/2
f 493/3/2 511/3/2 515/3/2
f 514/3/2 496/3/2 516/3/2
f 493/3/2 515/3/2 517/3/2
f 516/3/2 496/3/2 520/3/2
f 517/3/2 518/3/2 521/3/2
f 493/3/2 517/3/2 521/3/2
f 521/3/2 518/3/2 522/3/2
f 519/3/2 520/3/2 523/3/2
f 520/3/2 496/3/2 524/3/2
f 523/3/2 520/3/2 524/3/2
f 493/3/2 521/3/2 525/3/2
f 524/3/2 496/3/2 526/3/2
f 493/3/2 525/3/2 527/3/2
f 526/3/2 496/3/2 530/3/2
f 527/3/2 528/3/2 531/3/2
f 493/3/2 527/3/2 531/3/2
f 531/3/2 528/3/2 532/3/2
f 529/3/2 530/3/2 533/3/2
f 530/3/2 496/3/2 534/3/2
f 533/3/2 530/3/2 534/3/2
f 493/3/2 531/3/2 535/3/2
f 534/3/2 496/3/2 536/3/2
f 493/3/2 535/3/2 537/3/2
f 536/3/2 496/3/2 540/3/2
f 537/3/2 538/3/2 541/3/2
f 493/3/2 537/3/2 541/3/2
f 541/3/2 538/3/2 542/3/2
f 539/3/2 540/3/2 543/3/2
f 540/3/2 496/3/2 544/3/2
f 543/3/2 540/3/2 544/3/2
f 493/3/2 541/3/2 545/3/2
f 544/3/2 496/3/2 546/3/2
f 493/3/2 545/3/2 547/3/2
f 546/3/2 496/3/2 550/3/2
f 547/3/2 548/3/2 551/3/2
f 493/3/2 547/3/2 551/3/2
f 551/3/2 548/3/2 552/3/2
f 549/3/2 550/3/2 553/3/2
f 550/3/2 496/3/2 554/3/2
f 553/3/2 550/3/2 554/3/2
f 493/3/2 551/3/2 555/3/2
f 554/3/2 496/3/2 556/3/2
f 493/3/2 555/3/2 557/3/2
f 556/3/2 496/3/2 560/3/2
f 557/3/2 558/3/2 561/3/2
f 493/3/2 557/3/2 561/3/2
f 561/3/2 558/3/2 562/3/2
f 559/3/2 560/3/2 563/3/2
f 560/3/2 496/3/2 564/3/2
f 563/3/2 560/3/2 564/3/2
f 493/3/2 561/3/2 565/3/2
f 565/3/2 561/3/2 566/3/2
f 564/3/2 496/3/2 567/3/2
f 567/3/2 496/3/2 568/3/2
f 569/1/2 570/1/2 571/1/2
f 571/1/2 570/1/2 572/1/2
f 573/3/2 574/3/2 577/3/2
f 577/3/2 574/3/2 578/3/2
f 575/3/2 576/3/2 579/3/2
f 579/3/2 576/3/2 580/3/2
f 581/3/2 582/3/2 585/3/2
f 585/3/2 582/3/2 586/3/2
f 583/3/2 584/3/2 587/3/2
f 587/3/2 584/3/2 588/3/2
f 589/3/2 590/3/2 593/3/2
f 593/3/2 590/3/2 594/3/2
f 591/3/2 592/3/2 595/3/2
f 595/3/2 592/3/2 596/3/2
f 597/3/2 598/3/2 601/3/2
f 601/3/2 598/3/2 602/3/2
f 599/3/2 600/3/2 603/3/2
f 603/3/2 600/3/2 604/3/2
f 605/3/2 606/3/2 609/3/2
f 609/3/2 606/3/2 610/3/2
f 607/3/2 608/3/2 611/3/2
f 611/3/2 608/3/2 612/3/2
f 613/3/2 614/3/2 617/3/2
f 617/3/2 614/3/2 618/3/2
f 615/3/2 616/3/2 619/3/2
f 619/3/2 616/3/2 620/3/2
f 569/1/2 571/1/2 625/1/2
f 621/3/2 622/3/2 626/3/2
f 626/3/2 622/3/2 627/3/2
f 623/3/2 624/3/2 628/3/2
f 628/3/2 624/3/2 629/3/2
f 572/1/2 570/1/2 630/1/2
f 626/1/2 627/1/2 631/1/2
f 629/1/2 630/1/2 631/1/2
f 628/1/2 629/1/2 631/1/2
f 627/1/2 628/1/2 631/1/2
f 625/1/2 626/1/2 631/1/2
f 569/1/2 625/1/2 631/1/2
f 630/1/2 570/1/2 632/1/2
f 631/1/2 630/1/2 632/1/2
f 635/1/3 634/1/3 633/1/3
f 636/1/3 634/1/3 635/1/3
f 651/3/3 638/3/3 637/3/3
f 652/3/3 638/3/3 651/3/3
f 653/3/3 640/3/3 639/3/3
f 654/3/3 640/3/3 653/3/3
f 655/3/3 642/3/3 641/3/3
f 656/3/3 642/3/3 655/3/3
f 657/3/3 644/3/3 643/3/3
f 658/3/3 644/3/3 657/3/3
f 659/3/3 646/3/3 645/3/3
f 660/3/3 646/3/3 659/3/3
f 661/3/3 648/3/3 647/3/3
f 662/3/3 648/3/3 661/3/3
f 663/3/3 650/3/3 649/3/3
f 664/3/3 650/3/3 663/3/3
f 679/3/3 666/3/3 665/3/3
f 680/3/3 666/3/3 679/3/3
f 681/3/3 668/3/3 667/3/3
f 682/3/3 668/3/3 681/3/3
f 683/3/3 670/3/3 669/3/3
f 684/3/3 670/3/3 683/3/3
f 685/3/3 672/3/3 671/3/3
f 686/3/3 672/3/3 685/3/3
f 687/3/3 674/3/3 673/3/3
f 688/3/3 674/3/3 687/3/3
f 689/3/3 676/3/3 675/3/3
f 690/3/3 676/3/3 689/3/3
f 691/3/3 678/3/3 677/3/3
f 692/3/3 678/3/3 691/3/3
f 707/3/3 694/3/3 693/3/3
f 708/3/3 694/3/3 707/3/3
f 710/3/3 696/3/3 695/3/3
f 711/3/3 696/3/3 710/3/3
f 713/3/3 698/3/3 697/3/3
f 714/3/3 698/3/3 713/3/3
f 716/3/3 700/3/3 699/3/3
f 717/3/3 700/3/3 716/3/3
f 719/3/3 702/3/3 701/3/3
f 720/3/3 702/3/3 719/3/3
f 722/3/3 704/3/3 703/3/3
f 723/3/3 704/3/3 722/3/3
f 725/3/3 706/3/3 705/3/3
f 726/3/3 706/3/3 725/3/3
f 729/3/3 709/3/3 708/3/3
f 730/3/3 709/3/3 729/3/3
f 731/3/3 712/3/3 711/3/3
f 732/3/3 712/3/3 731/3/3
f 733/3/3 715/3/3 714/3/3
f 734/3/3 715/3/3 733/3/3
f 735/3/3 718/3/3 717/3/3
f 736/3/3 718/3/3 735/3/3
f 737/3/3 721/3/3 720/3/3
f 738/3/3 721/3/3 737/3/3
f 739/3/3 724/3/3 723/3/3
f 740/3/3 724/3/3 739/3/3
f 741/3/3 727/3/3 726/3/3
f 742/3/3 727/3/3 741/3/3
f 744/3/3 729/3/3 728/3/3
f 745/3/3 729/3/3 744/3/3
f 746/3/3 731/3/3 730/3/3
f 747/3/3 731/3/3 746/3/3
f 748/3/3 733/3/3 732/3/3
f 749/3/3 733/3/3 748/3/3
f 750/3/3 735/3/3 734/3/3
f 751/3/3 735/3/3 750/3/3
f 752/3/3 737/3/3 736/3/3
f 753/3/3 737/3/3 752/3/3
f 754/3/3 739/3/3 738/3/3
f 755/3/3 739/3/3 754/3/3
f 756/3/3 741/3/3 740/3/3
f 757/3/3 741/3/3 756/3/3
f 758/3/3 743/3/3 742/3/3
f 759/3/3 743/3/3 758/3/3
f 760/3/3 746/3/3 745/3/3
f 761/3/3 746/3/3 760/3/3
f 763/3/3 748/3/3 747/3/3
f 764/3/3 748/3/3 763/3/3
f 766/3/3 750/3/3 749/3/3
f 767/3/3 750/3/3 766/3/3
f 769/3/3 752/3/3 751/3/3
f 770/3/3 752/3/3 769/3/3
f 772/3/3 754/3/3 753/3/3
f 773/3/3 754/3/3 772/3/3
f 775/3/3 756/3/3 755/3/3
f 776/3/3 756/3/3 775/3/3
f 778/3/3 758/3/3 757/3/3
f 779/3/3 758/3/3 778/3/3
f 781/3/3 762/3/3 761/3/3
f 782/3/3 762/3/3 781/3/3
f 783/3/3 765/3/3 764/3/3
f 784/3/3 765/3/3 783/3/3
f 785/3/3 768/3/3 767/3/3
f 786/3/3 768/3/3 785/3/3
f 787/3/3 771/3/3 770/3/3
f 788/3/3 771/3/3 787/3/3
f 789/3/3 774/3/3 773/3/3
f 790/3/3 774/3/3 789/3/3
f 791/3/3 777/3/3 776/3/3
f 792/3/3 777/3/3 791/3/3
f 793/3/3 780/3/3 779/3/3
f 794/3/3 780/3/3 793/3/3
f 817/3/3 796/3/3 795/3/3
f 818/3/3 796/3/3 817/3/3
f 819/3/3 798/3/3 797/3/3
f 819/3/3 799/3/3 798/3/3
f 820/3/3 799/3/3 819/3/3
f 821/3/3 801/3/3 800/3/3
f 821/3/3 802/3/3 801/3/3
f 822/3/3 802/3/3 821/3/3
f 823/3/3 804/3/3 803/3/3
f 823/3/3 805/3/3 804/3/3
f 824/3/3 805/3/3 823/3/3
f 825/3/3 807/3/3 806/3/3
f 825/3/3 808/3/3 807/3/3
f 826/3/3 808/3/3 825/3/3
f 827/3/3 810/3/3 809/3/3
f 827/3/3 811/3/3 810/3/3
f 828/3/3 811/3/3 827/3/3
f 829/3/3 813/3/3 812/3/3
f 829/3/3 814/3/3 813/3/3
f 830/3/3 814/3/3 829/3/3
f 831/3/3 816/3/3 815/3/3
f 832/3/3 816/3/3 831/3/3
f 834/3/3 819/3/3 818/3/3
f 835/3/3 819/3/3 834/3/3
f 836/3/3 821/3/3 820/3/3
f 837/3/3 821/3/3 836/3/3
f 838/3/3 823/3/3 822/3/3
f 839/3/3 823/3/3 838/3/3
f 840/3/3 825/3/3 824/3/3
f 841/3/3 825/3/3 840/3/3
f 842/3/3 827/3/3 826/3/3
f 843/3/3 827/3/3 842/3/3
f 844/3/3 829/3/3 828/3/3
f 845/3/3 829/3/3 844/3/3
f 846/3/3 831/3/3 830/3/3
f 847/3/3 831/3/3 846/3/3
f 849/3/3 834/3/3 833/3/3
f 850/3/3 834/3/3 849/3/3
f 851/3/3 836/3/3 835/3/3
f 852/3/3 836/3/3 851/3/3
f 853/3/3 836/3/3 852/3/3
f 854/3/3 838/3/3 837/3/3
f 855/3/3 838/3/3 854/3/3
f 856/3/3 838/3/3 855/3/3
f 857/3/3 840/3/3 839/3/3
f 858/3/3 840/3/3 857/3/3
f 859/3/3 840/3/3 858/3/3
f 860/3/3 842/3/3 841/3/3
f 861/3/3 842/3/3 860/3/3
f 862/3/3 842/3/3 861/3/3
f 863/3/3 844/3/3 843/3/3
f 864/3/3 844/3/3 863/3/3
f 865/3/3 844/3/3 864/3/3
f 866/3/3 846/3/3 845/3/3
f 867/3/3 846/3/3 866/3/3
f 868/3/3 846/3/3 867/3/3
f 869/3/3 848/3/3 847/3/3
f 870/3/3 848/3/3 869/3/3
f 873/1/3 872/1/3 871/1/3
f 874/1/3 872/1/3 873/1/3
f 877/1/3 876/1/3 875/1/3
f 878/1/3 876/1/3 877/1/3
f 879/1/4 880/1/4 881/1/4
f 881/1/4 880/1/4 882/1/4
f 883/1/4 884/1/4 885/1/4
f 885/1/4 884/1/4 886/1/4
f 887/3/4 888/3/4 909/3/4
f 909/3/4 888/3/4 910/3/4
f 889/3/4 890/3/4 911/3/4
f 890/3/4 891/3/4 911/3/4
f 911/3/4 891/3/4 912/3/4
f 892/3/4 893/3/4 913/3/4
f 893/3/4 894/3/4 913/3/4
f 913/3/4 894/3/4 914/3/4
f 895/3/4 896/3/4 915/3/4
f 896/3/4 897/3/4 915/3/4
f 915/3/4 897/3/4 916/3/4
f 898/3/4 899/3/4 917/3/4
f 899/3/4 900/3/4 917/3/4
f 917/3/4 900/3/4 918/3/4
f 901/3/4 902/3/4 919/3/4
f 902/3/4 903/3/4 919/3/4
f 919/3/4 903/3/4 920/3/4
f 904/3/4 905/3/4 921/3/4
f 905/3/4 906/3/4 921/3/4
f 921/3/4 906/3/4 922/3/4
f 907/3/4 908/3/4 923/3/4
f 923/3/4 908/3/4 924/3/4
f 910/3/4 911/3/4 926/3/4
f 926/3/4 911/3/4 927/3/4
f 912/3/4 913/3/4 928/3/4
f 928/3/4 913/3/4 929/3/4
f 914/3/4 915/3/4 930/3/4
f 930/3/4 915/3/4 931/3/4
f 916/3/4 917/3/4 932/3/4
f 932/3/4 917/3/4 933/3/4
f 918/3/4 919/3/4 934/3/4
f 934/3/4 919/3/4 935/3/4
f 920/3/4 921/3/4 936/3/4
f 936/3/4 921/3/4 937/3/4
f 922/3/4 923/3/4 938/3/4
f 938/3/4 923/3/4 939/3/4
f 925/3/4 926/3/4 941/3/4
f 941/3/4 926/3/4 942/3/4
f 927/3/4 928/3/4 943/3/4
f 943/3/4 928/3/4 944/3/4
f 944/3/4 928/3/4 945/3/4
f 929/3/4 930/3/4 946/3/4
f 946/3/4 930/3/4 947/3/4
f 947/3/4 930/3/4 948/3/4
f 931/3/4 932/3/4 949/3/4
f 949/3/4 932/3/4 950/3/4
f 950/3/4 932/3/4 951/3/4
f 933/3/4 934/3/4 952/3/4
f 952/3/4 934/3/4 953/3/4
f 953/3/4 934/3/4 954/3/4
f 935/3/4 936/3/4 955/3/4
f 955/3/4 936/3/4 956/3/4
f 956/3/4 936/3/4 957/3/4
f 937/3/4 938/3/4 958/3/4
f 958/3/4 938/3/4 959/3/4
f 959/3/4 938/3/4 960/3/4
f 939/3/4 940/3/4 961/3/4
f 961/3/4 940/3/4 962/3/4
f 963/3/4 964/3/4 977/3/4
f 977/3/4 964/3/4 978/3/4
f 965/3/4 966/3/4 980/3/4
f 980/3/4 966/3/4 981/3/4
f 967/3/4 968/3/4 983/3/4
f 983/3/4 968/3/4 984/3/4
f 969/3/4 970/3/4 986/3/4
f 986/3/4 970/3/4 987/3/4
f 971/3/4 972/3/4 989/3/4
f 989/3/4 972/3/4 990/3/4
f 973/3/4 974/3/4 992/3/4
f 992/3/4 974/3/4 993/3/4
f 975/3/4 976/3/4 995/3/4
f 995/3/4 976/3/4 996/3/4
f 978/3/4 979/3/4 999/3/4
f 999/3/4 979/3/4 1000/3/4
f 981/3/4 982/3/4 1001/3/4
f 1001/3/4 982/3/4 1002/3/4
f 984/3/4 985/3/4 1003/3/4
f 1003/3/4 985/3/4 1004/3/4
f 987/3/4 988/3/4 1005/3/4
f 1005/3/4 988/3/4 1006/3/4
f 990/3/4 991/3/4 1007/3/4
f 1007/3/4 991/3/4 1008/3/4
f 993/3/4 994/3/4 1009/3/4
f 1009/3/4 994/3/4 1010/3/4
f 996/3/4 997/3/4 1011/3/4
f 1011/3/4 997/3/4 1012/3/4
f 998/3/4 999/3/4 1014/3/4
f 1014/3/4 999/3/4 1015/3/4
f 1000/3/4 1001/3/4 1016/3/4
f 1016/3/4 1001/3/4 1017/3/4
f 1002/3/4 1003/3/4 1018/3/4
f 1018/3/4 1003/3/4 1019/3/4
f 1004/3/4 1005/3/4 1020/3/4
f 1020/3/4 1005/3/4 1021/3/4
f 1006/3/4 1007/3/4 1022/3/4
f 1022/3/4 1007/3/4 1023/3/4
f 1008/3/4 1009/3/4 1024/3/4
f 1024/3/4 1009/3/4 1025/3/4
f 1010/3/4 1011/3/4 1026/3/4
f 1026/3/4 1011/3/4 1027/3/4
f 1012/3/4 1013/3/4 1028/3/4
f 1028/3/4 1013/3/4 1029/3/4
f 1015/3/4 1016/3/4 1030/3/4
f 1030/3/4 1016/3/4 1031/3/4
f 1017/3/4 1018/3/4 1033/3/4
f 1033/3/4 1018/3/4 1034/3/4
f 1019/3/4 1020/3/4 1036/3/4
f 1036/3/4 1020/3/4 1037/3/4
f 1021/3/4 1022/3/4 1039/3/4
f 1039/3/4 1022/3/4 1040/3/4
f 1023/3/4 1024/3/4 1042/3/4
f 1042/3/4 1024/3/4 1043/3/4
f 1025/3/4 1026/3/4 1045/3/4
f 1045/3/4 1026/3/4 1046/3/4
f 1027/3/4 1028/3/4 1048/3/4
f 1048/3/4 1028/3/4 1049/3/4
f 1031/3/4 1032/3/4 1051/3/4
f 1051/3/4 1032/3/4 1052/3/4
f 1034/3/4 1035/3/4 1053/3/4
f 1053/3/4 1035/3/4 1054/3/4
f 1037/3/4 1038/3/4 1055/3/4
f 1055/3/4 1038/3/4 1056/3/4
f 1040/3/4 1041/3/4 1057/3/4
f 1057/3/4 1041/3/4 1058/3/4
f 1043/3/4 1044/3/4 1059/3/4
f 1059/3/4 1044/3/4 1060/3/4
f 1046/3/4 1047/3/4 1061/3/4
f 1061/3/4 1047/3/4 1062/3/4
f 1049/3/4 1050/3/4 1063/3/4
f 1063/3/4 1050/3/4 1064/3/4
f 1065/3/4 1066/3/4 1079/3/4
f 1079/3/4 1066/3/4 1080/3/4
f 1067/3/4 1068/3/4 1081/3/4
f 1081/3/4 1068/3/4 1082/3/4
f 1069/3/4 1070/3/4 1083/3/4
f 1083/3/4 1070/3/4 1084/3/4
f 1071/3/4 1072/3/4 1085/3/4
f 1085/3/4 1072/3/4 1086/3/4
f 1073/3/4 1074/3/4 1087/3/4
f 1087/3/4 1074/3/4 1088/3/4
f 1075/3/4 1076/3/4 1089/3/4
f 1089/3/4 1076/3/4 1090/3/4
f 1077/3/4 1078/3/4 1091/3/4
f 1091/3/4 1078/3/4 1092/3/4
f 1093/3/4 1094/3/4 1107/3/4
f 1107/3/4 1094/3/4 1108/3/4
f 1095/3/4 1096/3/4 1109/3/4
f 1109/3/4 1096/3/4 1110/3/4
f 1097/3/4 1098/3/4 1111/3/4
f 1111/3/4 1098/3/4 1112/3/4
f 1099/3/4 1100/3/4 1113/3/4
f 1113/3/4 1100/3/4 1114/3/4
f 1101/3/4 1102/3/4 1115/3/4
f 1115/3/4 1102/3/4 1116/3/4
f 1103/3/4 1104/3/4 1117/3/4
f 1117/3/4 1104/3/4 1118/3/4
f 1105/3/4 1106/3/4 1119/3/4
f 1119/3/4 1106/3/4 1120/3/4
f 1121/1/4 1122/1/4 1123/1/4
f 1123/1/4 1122/1/4 1124/1/4
f 1127/1/5 1126/1/5 1125/1/5
f 1128/1/5 1126/1/5 1127/1/5
f 1133/3/5 1130/3/5 1129/3/5
f 1134/3/5 1130/3/5 1133/3/5
f 1135/3/5 1132/3/5 1131/3/5
f 1136/3/5 1132/3/5 1135/3/5
f 1141/3/5 1138/3/5 1137/3/5
f 1142/3/5 1138/3/5 1141/3/5
f 1143/3/5 1140/3/5 1139/3/5
f 1144/3/5 1140/3/5 1143/3/5
f 1149/3/5 1146/3/5 1145/3/5
f 1150/3/5 1146/3/5 1149/3/5
f 1151/3/5 1148/3/5 1147/3/5
f 1152/3/5 1148/3/5 1151/3/5
f 1157/3/5 1154/3/5 1153/3/5
f 1158/3/5 1154/3/5 1157/3/5
f 1159/3/5 1156/3/5 1155/3/5
f 1160/3/5 1156/3/5 1159/3/5
f 1163/3/5 1162/3/5 1161/3/5
f 1164/3/5 1162/3/5 1163/3/5
f 1167/3/5 1166/3/5 1165/3/5
f 1168/3/5 1166/3/5 1167/3/5
f 1173/3/5 1170/3/5 1169/3/5
f 1174/3/5 1170/3/5 1173/3/5
f 1175/3/5 1172/3/5 1171/3/5
f 1176/3/5 1172/3/5 1175/3/5
f 1181/3/5 1178/3/5 1177/3/5
f 1182/3/5 1178/3/5 1181/3/5
f 1183/3/5 1180/3/5 1179/3/5
f 1184/3/5 1180/3/5 1183/3/5
f 1189/3/5 1186/3/5 1185/3/5
f 1190/3/5 1186/3/5 1189/3/5
f 1191/3/5 1188/3/5 1187/3/5
f 1192/3/5 1188/3/5 1191/3/5
f 1197/3/5 1194/3/5 1193/3/5
f 1198/3/5 1194/3/5 1197/3/5
f 1199/3/5 1196/3/5 1195/3/5
f 1200/3/5 1196/3/5 1199/3/5
f 1203/3/5 1202/3/5 1201/3/5
f 1204/3/5 1202/3/5 1203/3/5
f 1207/3/5 1206/3/5 1205/3/5
f 1208/3/5 1206/3/5 1207/3/5
f 1213/3/5 1210/3/5 1209/3/5
f 1214/3/5 1210/3/5 1213/3/5
f 1215/3/5 1212/3/5 1211/3/5
f 1216/3/5 1212/3/5 1215/3/5
f 1221/3/5 1218/3/5 1217/3/5
f 1222/3/5 1218/3/5 1221/3/5
f 1223/3/5 1220/3/5 1219/3/5
f 1224/3/5 1220/3/5 1223/3/5
f 1229/3/5 1226/3/5 1225/3/5
f 1230/3/5 1226/3/5 1229/3/5
f 1231/3/5 1228/3/5 1227/3/5
f 1232/3/5 1228/3/5 1231/3/5
f 1237/3/5 1234/3/5 1233/3/5
f 1238/3/5 1234/3/5 1237/3/5
f 1239/3/5 1236/3/5 1235/3/5
f 1240/3/5 1236/3/5 1239/3/5
f 1243/3/5 1242/3/5 1241/3/5
f 1244/3/5 1242/3/5 1243/3/5
f 1247/3/5 1246/3/5 1245/3/5
f 1248/3/5 1246/3/5 1247/3/5
f 1253/3/5 1250/3/5 1249/3/5
f 1254/3/5 1250/3/5 1253/3/5
f 1255/3/5 1252/3/5 1251/3/5
f 1256/3/5 1252/3/5 1255/3/5
f 1261/3/5 1258/3/5 1257/3/5
f 1262/3/5 1258/3/5 1261/3/5
f 1263/3/5 1260/3/5 1259/3/5
f 1264/3/5 1260/3/5 1263/3/5
f 1269/3/5 1266/3/5 1265/3/5
f 1270/3/5 1266/3/5 1269/3/5
f 1271/3/5 1268/3/5 1267/3/5
f 1272/3/5 1268/3/5 1271/3/5
f 1277/3/5 1274/3/5 1273/3/5
f 1278/3/5 1274/3/5 1277/3/5
f 1279/3/5 1276/3/5 1275/3/5
f 1280/3/5 1276/3/5 1279/3/5
f 1283/3/5 1282/3/5 1281/3/5
f 1284/3/5 1282/3/5 1283/3/5
f 1287/3/5 1286/3/5 1285/3/5
f 1288/3/5 1286/3/5 1287/3/5
f 1293/3/5 1290/3/5 1289/3/5
f 1294/3/5 1290/3/5 1293/3/5
f 1295/3/5 1292/3/5 1291/3/5
f 1296/3/5 1292/3/5 1295/3/5
f 1301/3/5 1298/3/5 1297/3/5
f 1302/3/5 1298/3/5 1301/3/5
f 1303/3/5 1300/3/5 1299/3/5
f 1304/3/5 1300/3/5 1303/3/5
f 1309/3/5 1306/3/5 1305/3/5
f 1310/3/5 1306/3/5 1309/3/5
f 1311/3/5 1308/3/5 1307/3/5
f 1312/3/5 1308/3/5 1311/3/5
f 1317/3/5 1314/3/5 1313/3/5
f 1318/3/5 1314/3/5 1317/3/5
f 1319/3/5 1316/3/5 1315/3/5
f 1320/3/5 1316/3/5 1319/3/5
f 1323/3/5 1322/3/5 1321/3/5
f 1324/3/5 1322/3/5 1323/3/5
f 1327/3/5 1326/3/5 1325/3/5
f 1328/3/5 1326/3/5 1327/3/5
f 1333/3/5 1330/3/5 1329/3/5
f 1334/3/5 1330/3/5 1333/3/5
f 1335/3/5 1332/3/5 1331/3/5
f 1336/3/5 1332/3/5 1335/3/5
f 1341/3/5 1338/3/5 1337/3/5
f 1342/3/5 1338/3/5 1341/3/5
f 1343/3/5 1340/3/5 1339/3/5
f 1344/3/5 1340/3/5 1343/3/5
f 1349/3/5 1346/3/5 1345/3/5
f 1350/3/5 1346/3/5 1349/3/5
f 1351/3/5 1348/3/5 1347/3/5
f 1352/3/5 1348/3/5 1351/3/5
f 1357/3/5 1354/3/5 1353/3/5
f 1358/3/5 1354/3/5 1357/3/5
f 1359/3/5 1356/3/5 1355/3/5
f 1360/3/5 1356/3/5 1359/3/5
f 1363/3/5 1362/3/5 1361/3/5
f 1364/3/5 1362/3/5 1363/3/5
f 1367/3/5 1366/3/5 1365/3/5
f 1368/3/5 1366/3/5 1367/3/5
f 1373/3/5 1370/3/5 1369/3/5
f 1374/3/5 1370/3/5 1373/3/5
f 1375/3/5 1372/3/5 1371/3/5
f 1376/3/5 1372/3/5 1375/3/5
f 1381/3/5 1378/3/5 1377/3/5
f 1382/3/5 1378/3/5 1381/3/5
f 1383/3/5 1380/3/5 1379/3/5
f 1384/3/5 1380/3/5 1383/3/5
f 1389/3/5 1386/3/5 1385/3/5
f 1390/3/5 1386/3/5 1389/3/5
f 1391/3/5 1388/3/5 1387/3/5
f 1392/3/5 1388/3/5 1391/3/5
f 1397/3/5 1394/3/5 1393/3/5
f 1398/3/5 1394/3/5 1397/3/5
f 1399/3/5 1396/3/5 1395/3/5
f 1400/3/5 1396/3/5 1399/3/5
f 1405/1/5 1402/1/5 1401/1/5
f 1408/1/5 1404/1/5 1403/1/5
f 1409/1/5 1404/1/5 1408/1/5
f 1410/1/5 1406/1/5 1405/1/5
f 1411/1/5 1408/1/5 1407/1/5
f 1412/1/5 1408/1/5 1411/1/5
f 1414/1/5 1410/1/5 1405/1/5
f 1414/1/5 1413/1/5 1412/1/5
f 1414/1/5 1412/1/5 1411/1/5
f 1414/1/5 1411/1/5 1410/1/5
f 1415/1/5 1413/1/5 1414/1/5
f 1416/1/5 1413/1/5 1415/1/5
f 1417/1/5 1413/1/5 1416/1/5
f 1418/1/5 1405/1/5 1401/1/5
f 1418/1/5 1414/1/5 1405/1/5
f 1419/1/5 1414/1/5 1418/1/5
f 1420/1/5 1416/1/5 1415/1/5
f 1421/1/5 1416/1/5 1420/1/5
f 1423/1/5 1418/1/5 1401/1/5
f 1424/1/5 1418/1/5 1423/1/5
f 1425/1/5 1422/1/5 1421/1/5
f 1426/1/5 1422/1/5 1425/1/5
f 1427/1/6 1428/1/6 1431/1/6
f 1431/1/6 1428/1/6 1432/1/6
f 1429/1/6 1430/1/6 1435/1/6
f 1432/1/6 1433/1/6 1437/1/6
f 1437/1/6 1433/1/6 1438/1/6
f 1434/1/6 1435/1/6 1439/1/6
f 1437/1/6 1438/1/6 1440/1/6
f 1438/1/6 1439/1/6 1440/1/6
f 1436/1/6 1437/1/6 1440/1/6
f 1440/1/6 1439/1/6 1441/1/6
f 1441/1/6 1439/1/6 1442/1/6
f 1439/1/6 1435/1/6 1443/1/6
f 1442/1/6 1439/1/6 1443/1/6
f 1441/1/6 1442/1/6 1445/1/6
f 1445/1/6 1442/1/6 1446/1/6
f 1443/1/6 1435/1/6 1447/1/6
f 1435/1/6 1430/1/6 1448/1/6
f 1447/1/6 1435/1/6 1448/1/6
f 1444/1/6 1445/1/6 1449/1/6
f 1449/1/6 1445/1/6 1450/1/6
f 1448/1/6 1430/1/6 1451/1/6
f 1451/1/6 1430/1/6 1452/1/6
f 1453/3/6 1454/3/6 1457/3/6
f 1457/3/6 1454/3/6 1458/3/6
f 1455/3/6 1456/3/6 1459/3/6
f 1459/3/6 1456/3/6 1460/3/6
f 1461/3/6 1462/3/6 1465/3/6
f 1465/3/6 1462/3/6 1466/3/6
f 1463/3/6 1464/3/6 1467/3/6
f 1467/3/6 1464/3/6 1468/3/6
f 1469/3/6 1470/3/6 1473/3/6
f 1473/3/6 1470/3/6 1474/3/6
f 1471/3/6 1472/3/6 1475/3/6
f 1475/3/6 1472/3/6 1476/3/6
f 1477/3/6 1478/3/6 1481/3/6
f 1481/3/6 1478/3/6 1482/3/6
f 1479/3/6 1480/3/6 1483/3/6
f 1483/3/6 1480/3/6 1484/3/6
f 1485/3/6 1486/3/6 1487/3/6
f 1487/3/6 1486/3/6 1488/3/6
f 1489/3/6 1490/3/6 1491/3/6
f 1491/3/6 1490/3/6 1492/3/6
f 1493/3/6 1494/3/6 1497/3/6
f 1497/3/6 1494/3/6 1498/3/6
f 1495/3/6 1496/3/6 1499/3/6
f 1499/3/6 1496/3/6 1500/3/6
f 1501/3/6 1502/3/6 1505/3/6
f 1505/3/6 1502/3/6 1506/3/6
f 1503/3/6 1504/3/6 1507/3/6
f 1507/3/6 1504/3/6 1508/3/6
f 1509/3/6 1510/3/6 1513/3/6
f 1513/3/6 1510/3/6 1514/3/6
f 1511/3/6 1512/3/6 1515/3/6
f 1515/3/6 1512/3/6 1516/3/6
f 1517/3/6 1518/3/6 1521/3/6
f 1521/3/6 1518/3/6 1522/3/6
f 1519/3/6 1520/3/6 1523/3/6
f 1523/3/6 1520/3/6 1524/3/6
f 1525/3/6 1526/3/6 1527/3/6
f 1527/3/6 1526/3/6 1528/3/6
f 1529/3/6 1530/3/6 1531/3/6
f 1531/3/6 1530/3/6 1532/3/6
f 1533/3/6 1534/3/6 1537/3/6
f 1537/3/6 1534/3/6 1538/3/6
f 1535/3/6 1536/3/6 1539/3/6
f 1539/3/6 1536/3/6 1540/3/6
f 1541/3/6 1542/3/6 1545/3/6
f 1545/3/6 1542/3/6 1546/3/6
f 1543/3/6 1544/3/6 1547/3/6
f 1547/3/6 1544/3/6 1548/3/6
f 1549/3/6 1550/3/6 1553/3/6
f 1553/3/6 1550/3/6 1554/3/6
f 1551/3/6 1552/3/6 1555/3/6
f 1555/3/6 1552/3/6 1556/3/6
f 1557/3/6 1558/3/6 1561/3/6
f 1561/3/6 1558/3/6 1562/3/6
f 1559/3/6 1560/3/6 1563/3/6
f 1563/3/6 1560/3/6 1564/3/6
f 1565/3/6 1566/3/6 1567/3/6
f 1567/3/6 1566/3/6 1568/3/6
f 1569/3/6 1570/3/6 1571/3/6
f 1571/3/6 1570/3/6 1572/3/6
f 1573/3/6 1574/3/6 1577/3/6
f 1577/3/6 1574/3/6 1578/3/6
f 1575/3/6 1576/3/6 1579/3/6
f 1579/3/6 1576/3/6 1580/3/6
f 1581/3/6 1582/3/6 1585/3/6
f 1585/3/6 1582/3/6 1586/3/6
f 1583/3/6 1584/3/6 1587/3/6
f 1587/3/6 1584/3/6 1588/3/6
f 1589/3/6 1590/3/6 1593/3/6
f 1593/3/6 1590/3/6 1594/3/6
f 1591/3/6 1592/3/6 1595/3/6
f 1595/3/6 1592/3/6 1596/3/6
f 1597/3/6 1598/3/6 1601/3/6
f 1601/3/6 1598/3/6 1602/3/6
f 1599/3/6 1600/3/6 1603/3/6
f 1603/3/6 1600/3/6 1604/3/6
f 1605/3/6 1606/3/6 1607/3/6
f 1607/3/6 1606/3/6 1608/3/6
f 1609/3/6 1610/3/6 1611/3/6
f 1611/3/6 1610/3/6 1612/3/6
f 1613/3/6 1614/3/6 1617/3/6
f 1617/3/6 1614/3/6 1618/3/6
f 1615/3/6 1616/3/6 1619/3/6
f 1619/3/6 1616/3/6 1620/3/6
f 1621/3/6 1622/3/6 1625/3/6
f 1625/3/6 1622/3/6 1626/3/6
f 1623/3/6 1624/3/6 1627/3/6
f 1627/3/6 1624/3/6 1628/3/6
f 1629/3/6 1630/3/6 1633/3/6
f 1633/3/6 1630/3/6 1634/3/6
f 1631/3/6 1632/3/6 1635/3/6
f 1635/3/6 1632/3/6 1636/3/6
f 1637/3/6 1638/3/6 1641/3/6
f 1641/3/6 1638/3/6 1642/3/6
f 1639/3/6 1640/3/6 1643/3/6
f 1643/3/6 1640/3/6 1644/3/6
f 1645/3/6 1646/3/6 1647/3/6
f 1647/3/6 1646/3/6 1648/3/6
f 1649/3/6 1650/3/6 1651/3/6
f 1651/3/6 1650/3/6 1652/3/6
f 1653/3/6 1654/3/6 1657/3/6
f 1657/3/6 1654/3/6 1658/3/6
f 1655/3/6 1656/3/6 1659/3/6
f 1659/3/6 1656/3/6 1660/3/6
f 1661/3/6 1662/3/6 1665/3/6
f 1665/3/6 1662/3/6 1666/3/6
f 1663/3/6 1664/3/6 1667/3/6
f 1667/3/6 1664/3/6 1668/3/6
f 1669/3/6 1670/3/6 1673/3/6
f 1673/3/6 1670/3/6 1674/3/6
f 1671/3/6 1672/3/6 1675/3/6
f 1675/3/6 1672/3/6 1676/3/6
f 1677/3/6 1678/3/6 1681/3/6
f 1681/3/6 1678/3/6 1682/3/6
f 1679/3/6 1680/3/6 1683/3/6
f 1683/3/6 1680/3/6 1684/3/6
f 1685/3/6 1686/3/6 1687/3/6
f 1687/3/6 1686/3/6 1688/3/6
f 1689/3/6 1690/3/6 1691/3/6
f 1691/3/6 1690/3/6 1692/3/6
f 1693/3/6 1694/3/6 1697/3/6
f 1697/3/6 1694/3/6 1698/3/6
f 1695/3/6 1696/3/6 1699/3/6
f 1699/3/6 1696/3/6 1700/3/6
f 1701/3/6 1702/3/6 1705/3/6
f 1705/3/6 1702/3/6 1706/3/6
f 1703/3/6 1704/3/6 1707/3/6
f 1707/3/6 1704/3/6 1708/3/6
f 1709/3/6 1710/3/6 1713/3/6
f 1713/3/6 1710/3/6 1714/3/6
f 1711/3/6 1712/3/6 1715/3/6
f 1715/3/6 1712/3/6 1716/3/6
f 1717/3/6 1718/3/6 1721/3/6
f 1721/3/6 1718/3/6 1722/3/6
f 1719/3/6 1720/3/6 1723/3/6
f 1723/3/6 1720/3/6 1724/3/6
f 1725/1/6 1726/1/6 1727/1/6
f 1727/1/6 1726/1/6 1728/1/6
