# MagicaVoxel @ Ephtracy

# group
o 

# material
mtllib socket.mtl
usemtl palette

# normals
vn -1 0 0
vn 1 0 0
vn 0 0 1
vn 0 0 -1
vn 0 -1 0
vn 0 1 0

# texcoords
vt 0.970703 0.5
vt 0.974609 0.5
vt 0.978516 0.5

# verts
v -1.2 0.3 -1.8
v -1.2 0.3 -2
v -1.2 3.6 -1.8
v -1.2 3.6 -2
v -1.1 0.1 -1.8
v -1.1 0.1 -2
v -1.1 0.3 -1.8
v -1.1 0.3 -2
v -1.1 0.4 -1.7
v -1.1 0.4 -1.8
v -1.1 3.5 -1.7
v -1.1 3.5 -1.8
v -1.1 3.6 -1.8
v -1.1 3.6 -2
v -1.1 3.8 -1.8
v -1.1 3.8 -2
v -1 0.3 -1.7
v -1 0.3 -1.8
v -1 0.4 -1.7
v -1 0.4 -1.8
v -1 3.5 -1.7
v -1 3.5 -1.8
v -1 3.6 -1.7
v -1 3.6 -1.8
v -0.9 0 -1.8
v -0.9 0 -2
v -0.9 0.1 -1.8
v -0.9 0.1 -2
v -0.9 0.2 -1.7
v -0.9 0.2 -1.8
v -0.9 0.3 -1.7
v -0.9 0.3 -1.8
v -0.9 3.6 -1.7
v -0.9 3.6 -1.8
v -0.9 3.7 -1.7
v -0.9 3.7 -1.8
v -0.9 3.8 -1.8
v -0.9 3.8 -2
v -0.9 3.9 -1.8
v -0.9 3.9 -2
v -0.2 1.1 -1.7
v -0.2 1.1 -1.9
v -0.2 1.7 -1.7
v -0.2 1.7 -1.9
v -0.2 2.6 -1.7
v -0.2 2.6 -1.9
v -0.2 3.2 -1.7
v -0.2 3.2 -1.9
v 0.0999999 0.9 -1.7
v 0.0999999 0.9 -1.9
v 0.0999999 1 -1.7
v 0.0999999 1 -1.9
v 0.0999999 2.4 -1.7
v 0.0999999 2.4 -1.9
v 0.0999999 2.5 -1.7
v 0.0999999 2.5 -1.9
v 0.2 0.7 -1.7
v 0.2 0.7 -1.9
v 0.2 0.9 -1.7
v 0.2 0.9 -1.9
v 0.2 2.2 -1.7
v 0.2 2.2 -1.9
v 0.2 2.4 -1.7
v 0.2 2.4 -1.9
v 0.3 1.1 -1.7
v 0.3 1.1 -1.9
v 0.3 1.2 -1.7
v 0.3 1.2 -1.9
v 0.3 1.6 -1.7
v 0.3 1.6 -1.9
v 0.3 1.7 -1.7
v 0.3 1.7 -1.9
v 0.3 2.6 -1.7
v 0.3 2.6 -1.9
v 0.3 2.7 -1.7
v 0.3 2.7 -1.9
v 0.3 3.1 -1.7
v 0.3 3.1 -1.9
v 0.3 3.2 -1.7
v 0.3 3.2 -1.9
v 0.5 1.2 -1.7
v 0.5 1.2 -1.9
v 0.5 1.3 -1.7
v 0.5 1.3 -1.9
v 0.5 1.5 -1.7
v 0.5 1.5 -1.9
v 0.5 1.6 -1.7
v 0.5 1.6 -1.9
v 0.5 2.7 -1.7
v 0.5 2.7 -1.9
v 0.5 2.8 -1.7
v 0.5 2.8 -1.9
v 0.5 3 -1.7
v 0.5 3 -1.9
v 0.5 3.1 -1.7
v 0.5 3.1 -1.9
v 0.6 1.3 -1.7
v 0.6 1.3 -1.9
v 0.6 1.5 -1.7
v 0.6 1.5 -1.9
v 0.6 2.8 -1.7
v 0.6 2.8 -1.9
v 0.6 3 -1.7
v 0.6 3 -1.9
v -0.6 1.3 -1.7
v -0.6 1.3 -1.9
v -0.6 1.5 -1.7
v -0.6 1.5 -1.9
v -0.6 2.8 -1.7
v -0.6 2.8 -1.9
v -0.6 3 -1.7
v -0.6 3 -1.9
v -0.5 1.2 -1.7
v -0.5 1.2 -1.9
v -0.5 1.3 -1.7
v -0.5 1.3 -1.9
v -0.5 1.5 -1.7
v -0.5 1.5 -1.9
v -0.5 1.6 -1.7
v -0.5 1.6 -1.9
v -0.5 2.7 -1.7
v -0.5 2.7 -1.9
v -0.5 2.8 -1.7
v -0.5 2.8 -1.9
v -0.5 3 -1.7
v -0.5 3 -1.9
v -0.5 3.1 -1.7
v -0.5 3.1 -1.9
v -0.3 1.1 -1.7
v -0.3 1.1 -1.9
v -0.3 1.2 -1.7
v -0.3 1.2 -1.9
v -0.3 1.6 -1.7
v -0.3 1.6 -1.9
v -0.3 1.7 -1.7
v -0.3 1.7 -1.9
v -0.3 2.6 -1.7
v -0.3 2.6 -1.9
v -0.3 2.7 -1.7
v -0.3 2.7 -1.9
v -0.3 3.1 -1.7
v -0.3 3.1 -1.9
v -0.3 3.2 -1.7
v -0.3 3.2 -1.9
v -0.2 0.7 -1.7
v -0.2 0.7 -1.9
v -0.2 0.9 -1.7
v -0.2 0.9 -1.9
v -0.2 2.2 -1.7
v -0.2 2.2 -1.9
v -0.2 2.4 -1.7
v -0.2 2.4 -1.9
v -0.1 0.9 -1.7
v -0.1 0.9 -1.9
v -0.1 1 -1.7
v -0.1 1 -1.9
v -0.1 2.4 -1.7
v -0.1 2.4 -1.9
v -0.1 2.5 -1.7
v -0.1 2.5 -1.9
v 0.2 1.1 -1.7
v 0.2 1.1 -1.9
v 0.2 1.7 -1.7
v 0.2 1.7 -1.9
v 0.2 2.6 -1.7
v 0.2 2.6 -1.9
v 0.2 3.2 -1.7
v 0.2 3.2 -1.9
v 0.9 0 -1.8
v 0.9 0 -2
v 0.9 0.1 -1.8
v 0.9 0.1 -2
v 0.9 0.2 -1.7
v 0.9 0.2 -1.8
v 0.9 0.3 -1.7
v 0.9 0.3 -1.8
v 0.9 3.6 -1.7
v 0.9 3.6 -1.8
v 0.9 3.7 -1.7
v 0.9 3.7 -1.8
v 0.9 3.8 -1.8
v 0.9 3.8 -2
v 0.9 3.9 -1.8
v 0.9 3.9 -2
v 1 0.3 -1.7
v 1 0.3 -1.8
v 1 0.4 -1.7
v 1 0.4 -1.8
v 1 3.5 -1.7
v 1 3.5 -1.8
v 1 3.6 -1.7
v 1 3.6 -1.8
v 1.1 0.1 -1.8
v 1.1 0.1 -2
v 1.1 0.3 -1.8
v 1.1 0.3 -2
v 1.1 0.4 -1.7
v 1.1 0.4 -1.8
v 1.1 3.5 -1.7
v 1.1 3.5 -1.8
v 1.1 3.6 -1.8
v 1.1 3.6 -2
v 1.1 3.8 -1.8
v 1.1 3.8 -2
v 1.2 0.3 -1.8
v 1.2 0.3 -2
v 1.2 3.6 -1.8
v 1.2 3.6 -2
v -1.1 0.4 -1.7
v -1.1 3.5 -1.7
v -1 0.3 -1.7
v -1 0.4 -1.7
v -1 3.5 -1.7
v -1 3.6 -1.7
v -0.9 0.2 -1.7
v -0.9 0.3 -1.7
v -0.9 3.6 -1.7
v -0.9 3.7 -1.7
v -0.8 0.5 -1.7
v -0.8 3.4 -1.7
v -0.6 1.3 -1.7
v -0.6 1.5 -1.7
v -0.6 2.8 -1.7
v -0.6 3 -1.7
v -0.5 1.2 -1.7
v -0.5 1.3 -1.7
v -0.5 1.5 -1.7
v -0.5 1.6 -1.7
v -0.5 2.7 -1.7
v -0.5 2.8 -1.7
v -0.5 3 -1.7
v -0.5 3.1 -1.7
v -0.3 1.1 -1.7
v -0.3 1.2 -1.7
v -0.3 1.6 -1.7
v -0.3 1.7 -1.7
v -0.3 2.6 -1.7
v -0.3 2.7 -1.7
v -0.3 3.1 -1.7
v -0.3 3.2 -1.7
v -0.2 0.7 -1.7
v -0.2 0.9 -1.7
v -0.2 1.1 -1.7
v -0.2 1.7 -1.7
v -0.2 2.2 -1.7
v -0.2 2.4 -1.7
v -0.2 2.6 -1.7
v -0.2 3.2 -1.7
v -0.1 0.9 -1.7
v -0.1 1 -1.7
v -0.1 2.4 -1.7
v -0.1 2.5 -1.7
v 0.0999999 0.9 -1.7
v 0.0999999 1 -1.7
v 0.0999999 2.4 -1.7
v 0.0999999 2.5 -1.7
v 0.2 0.7 -1.7
v 0.2 0.9 -1.7
v 0.2 1.1 -1.7
v 0.2 1.7 -1.7
v 0.2 2.2 -1.7
v 0.2 2.4 -1.7
v 0.2 2.6 -1.7
v 0.2 3.2 -1.7
v 0.3 1.1 -1.7
v 0.3 1.2 -1.7
v 0.3 1.6 -1.7
v 0.3 1.7 -1.7
v 0.3 2.6 -1.7
v 0.3 2.7 -1.7
v 0.3 3.1 -1.7
v 0.3 3.2 -1.7
v 0.5 1.2 -1.7
v 0.5 1.3 -1.7
v 0.5 1.5 -1.7
v 0.5 1.6 -1.7
v 0.5 2.7 -1.7
v 0.5 2.8 -1.7
v 0.5 3 -1.7
v 0.5 3.1 -1.7
v 0.6 1.3 -1.7
v 0.6 1.5 -1.7
v 0.6 2.8 -1.7
v 0.6 3 -1.7
v 0.8 0.5 -1.7
v 0.8 3.4 -1.7
v 0.9 0.2 -1.7
v 0.9 0.3 -1.7
v 0.9 3.6 -1.7
v 0.9 3.7 -1.7
v 1 0.3 -1.7
v 1 0.4 -1.7
v 1 3.5 -1.7
v 1 3.6 -1.7
v 1.1 0.4 -1.7
v 1.1 3.5 -1.7
v -1.2 0.3 -1.8
v -1.2 3.6 -1.8
v -1.1 0.1 -1.8
v -1.1 0.3 -1.8
v -1.1 0.4 -1.8
v -1.1 3.5 -1.8
v -1.1 3.6 -1.8
v -1.1 3.8 -1.8
v -1 0.3 -1.8
v -1 0.4 -1.8
v -1 3.5 -1.8
v -1 3.6 -1.8
v -0.9 0 -1.8
v -0.9 0.1 -1.8
v -0.9 0.2 -1.8
v -0.9 0.3 -1.8
v -0.9 3.6 -1.8
v -0.9 3.7 -1.8
v -0.9 3.8 -1.8
v -0.9 3.9 -1.8
v 0.9 0 -1.8
v 0.9 0.1 -1.8
v 0.9 0.2 -1.8
v 0.9 0.3 -1.8
v 0.9 3.6 -1.8
v 0.9 3.7 -1.8
v 0.9 3.8 -1.8
v 0.9 3.9 -1.8
v 1 0.3 -1.8
v 1 0.4 -1.8
v 1 3.5 -1.8
v 1 3.6 -1.8
v 1.1 0.1 -1.8
v 1.1 0.3 -1.8
v 1.1 0.4 -1.8
v 1.1 3.5 -1.8
v 1.1 3.6 -1.8
v 1.1 3.8 -1.8
v 1.2 0.3 -1.8
v 1.2 3.6 -1.8
v -0.6 1.3 -1.9
v -0.6 1.5 -1.9
v -0.6 2.8 -1.9
v -0.6 3 -1.9
v -0.5 1.2 -1.9
v -0.5 1.3 -1.9
v -0.5 1.5 -1.9
v -0.5 1.6 -1.9
v -0.5 2.7 -1.9
v -0.5 2.8 -1.9
v -0.5 3 -1.9
v -0.5 3.1 -1.9
v -0.3 1.1 -1.9
v -0.3 1.2 -1.9
v -0.3 1.6 -1.9
v -0.3 1.7 -1.9
v -0.3 2.6 -1.9
v -0.3 2.7 -1.9
v -0.3 3.1 -1.9
v -0.3 3.2 -1.9
v -0.2 0.7 -1.9
v -0.2 0.9 -1.9
v -0.2 1.1 -1.9
v -0.2 1.7 -1.9
v -0.2 2.2 -1.9
v -0.2 2.4 -1.9
v -0.2 2.6 -1.9
v -0.2 3.2 -1.9
v -0.1 0.9 -1.9
v -0.1 1 -1.9
v -0.1 2.4 -1.9
v -0.1 2.5 -1.9
v 0.0999999 0.9 -1.9
v 0.0999999 1 -1.9
v 0.0999999 2.4 -1.9
v 0.0999999 2.5 -1.9
v 0.2 0.7 -1.9
v 0.2 0.9 -1.9
v 0.2 1.1 -1.9
v 0.2 1.7 -1.9
v 0.2 2.2 -1.9
v 0.2 2.4 -1.9
v 0.2 2.6 -1.9
v 0.2 3.2 -1.9
v 0.3 1.1 -1.9
v 0.3 1.2 -1.9
v 0.3 1.6 -1.9
v 0.3 1.7 -1.9
v 0.3 2.6 -1.9
v 0.3 2.7 -1.9
v 0.3 3.1 -1.9
v 0.3 3.2 -1.9
v 0.5 1.2 -1.9
v 0.5 1.3 -1.9
v 0.5 1.5 -1.9
v 0.5 1.6 -1.9
v 0.5 2.7 -1.9
v 0.5 2.8 -1.9
v 0.5 3 -1.9
v 0.5 3.1 -1.9
v 0.6 1.3 -1.9
v 0.6 1.5 -1.9
v 0.6 2.8 -1.9
v 0.6 3 -1.9
v -1.2 0.3 -2
v -1.2 3.6 -2
v -1.1 0.1 -2
v -1.1 0.3 -2
v -1.1 3.6 -2
v -1.1 3.8 -2
v -0.9 0 -2
v -0.9 0.1 -2
v -0.9 3.8 -2
v -0.9 3.9 -2
v -0.8 0.5 -2
v -0.8 3.4 -2
v -0.6 1.3 -2
v -0.6 1.5 -2
v -0.6 2.8 -2
v -0.6 3 -2
v -0.5 1.2 -2
v -0.5 1.3 -2
v -0.5 1.5 -2
v -0.5 1.6 -2
v -0.5 2.7 -2
v -0.5 2.8 -2
v -0.5 3 -2
v -0.5 3.1 -2
v -0.3 1.1 -2
v -0.3 1.2 -2
v -0.3 1.6 -2
v -0.3 1.7 -2
v -0.3 2.6 -2
v -0.3 2.7 -2
v -0.3 3.1 -2
v -0.3 3.2 -2
v -0.2 0.7 -2
v -0.2 0.9 -2
v -0.2 1.1 -2
v -0.2 1.7 -2
v -0.2 2.2 -2
v -0.2 2.4 -2
v -0.2 2.6 -2
v -0.2 3.2 -2
v -0.1 0.9 -2
v -0.1 1 -2
v -0.1 2.4 -2
v -0.1 2.5 -2
v 0.0999999 0.9 -2
v 0.0999999 1 -2
v 0.0999999 2.4 -2
v 0.0999999 2.5 -2
v 0.2 0.7 -2
v 0.2 0.9 -2
v 0.2 1.1 -2
v 0.2 1.7 -2
v 0.2 2.2 -2
v 0.2 2.4 -2
v 0.2 2.6 -2
v 0.2 3.2 -2
v 0.3 1.1 -2
v 0.3 1.2 -2
v 0.3 1.6 -2
v 0.3 1.7 -2
v 0.3 2.6 -2
v 0.3 2.7 -2
v 0.3 3.1 -2
v 0.3 3.2 -2
v 0.5 1.2 -2
v 0.5 1.3 -2
v 0.5 1.5 -2
v 0.5 1.6 -2
v 0.5 2.7 -2
v 0.5 2.8 -2
v 0.5 3 -2
v 0.5 3.1 -2
v 0.6 1.3 -2
v 0.6 1.5 -2
v 0.6 2.8 -2
v 0.6 3 -2
v 0.8 0.5 -2
v 0.8 3.4 -2
v 0.9 0 -2
v 0.9 0.1 -2
v 0.9 3.8 -2
v 0.9 3.9 -2
v 1.1 0.1 -2
v 1.1 0.3 -2
v 1.1 3.6 -2
v 1.1 3.8 -2
v 1.2 0.3 -2
v 1.2 3.6 -2
v -0.9 0 -1.8
v 0.9 0 -1.8
v -0.9 0 -2
v 0.9 0 -2
v -1.1 0.1 -1.8
v -0.9 0.1 -1.8
v 0.9 0.1 -1.8
v 1.1 0.1 -1.8
v -1.1 0.1 -2
v -0.9 0.1 -2
v 0.9 0.1 -2
v 1.1 0.1 -2
v -0.9 0.2 -1.7
v 0.9 0.2 -1.7
v -0.9 0.2 -1.8
v 0.9 0.2 -1.8
v -1 0.3 -1.7
v -0.9 0.3 -1.7
v 0.9 0.3 -1.7
v 1 0.3 -1.7
v -1.2 0.3 -1.8
v -1.1 0.3 -1.8
v -1 0.3 -1.8
v -0.9 0.3 -1.8
v 0.9 0.3 -1.8
v 1 0.3 -1.8
v 1.1 0.3 -1.8
v 1.2 0.3 -1.8
v -1.2 0.3 -2
v -1.1 0.3 -2
v 1.1 0.3 -2
v 1.2 0.3 -2
v -1.1 0.4 -1.7
v -1 0.4 -1.7
v 1 0.4 -1.7
v 1.1 0.4 -1.7
v -1.1 0.4 -1.8
v -1 0.4 -1.8
v 1 0.4 -1.8
v 1.1 0.4 -1.8
v -0.2 0.9 -1.7
v -0.1 0.9 -1.7
v 0.0999999 0.9 -1.7
v 0.2 0.9 -1.7
v -0.2 0.9 -1.9
v -0.1 0.9 -1.9
v 0.0999999 0.9 -1.9
v 0.2 0.9 -1.9
v -0.1 1 -1.7
v 0.0999999 1 -1.7
v -0.1 1 -1.9
v 0.0999999 1 -1.9
v -0.6 1.5 -1.7
v -0.5 1.5 -1.7
v 0.5 1.5 -1.7
v 0.6 1.5 -1.7
v -0.6 1.5 -1.9
v -0.5 1.5 -1.9
v 0.5 1.5 -1.9
v 0.6 1.5 -1.9
v -0.5 1.6 -1.7
v -0.3 1.6 -1.7
v 0.3 1.6 -1.7
v 0.5 1.6 -1.7
v -0.5 1.6 -1.9
v -0.3 1.6 -1.9
v 0.3 1.6 -1.9
v 0.5 1.6 -1.9
v -0.3 1.7 -1.7
v -0.2 1.7 -1.7
v 0.2 1.7 -1.7
v 0.3 1.7 -1.7
v -0.3 1.7 -1.9
v -0.2 1.7 -1.9
v 0.2 1.7 -1.9
v 0.3 1.7 -1.9
v -0.2 2.4 -1.7
v -0.1 2.4 -1.7
v 0.0999999 2.4 -1.7
v 0.2 2.4 -1.7
v -0.2 2.4 -1.9
v -0.1 2.4 -1.9
v 0.0999999 2.4 -1.9
v 0.2 2.4 -1.9
v -0.1 2.5 -1.7
v 0.0999999 2.5 -1.7
v -0.1 2.5 -1.9
v 0.0999999 2.5 -1.9
v -0.6 3 -1.7
v -0.5 3 -1.7
v 0.5 3 -1.7
v 0.6 3 -1.7
v -0.6 3 -1.9
v -0.5 3 -1.9
v 0.5 3 -1.9
v 0.6 3 -1.9
v -0.5 3.1 -1.7
v -0.3 3.1 -1.7
v 0.3 3.1 -1.7
v 0.5 3.1 -1.7
v -0.5 3.1 -1.9
v -0.3 3.1 -1.9
v 0.3 3.1 -1.9
v 0.5 3.1 -1.9
v -0.3 3.2 -1.7
v -0.2 3.2 -1.7
v 0.2 3.2 -1.7
v 0.3 3.2 -1.7
v -0.3 3.2 -1.9
v -0.2 3.2 -1.9
v 0.2 3.2 -1.9
v 0.3 3.2 -1.9
v -0.2 0.7 -1.7
v 0.2 0.7 -1.7
v -0.2 0.7 -1.9
v 0.2 0.7 -1.9
v -0.3 1.1 -1.7
v -0.2 1.1 -1.7
v 0.2 1.1 -1.7
v 0.3 1.1 -1.7
v -0.3 1.1 -1.9
v -0.2 1.1 -1.9
v 0.2 1.1 -1.9
v 0.3 1.1 -1.9
v -0.5 1.2 -1.7
v -0.3 1.2 -1.7
v 0.3 1.2 -1.7
v 0.5 1.2 -1.7
v -0.5 1.2 -1.9
v -0.3 1.2 -1.9
v 0.3 1.2 -1.9
v 0.5 1.2 -1.9
v -0.6 1.3 -1.7
v -0.5 1.3 -1.7
v 0.5 1.3 -1.7
v 0.6 1.3 -1.7
v -0.6 1.3 -1.9
v -0.5 1.3 -1.9
v 0.5 1.3 -1.9
v 0.6 1.3 -1.9
v -0.2 2.2 -1.7
v 0.2 2.2 -1.7
v -0.2 2.2 -1.9
v 0.2 2.2 -1.9
v -0.3 2.6 -1.7
v -0.2 2.6 -1.7
v 0.2 2.6 -1.7
v 0.3 2.6 -1.7
v -0.3 2.6 -1.9
v -0.2 2.6 -1.9
v 0.2 2.6 -1.9
v 0.3 2.6 -1.9
v -0.5 2.7 -1.7
v -0.3 2.7 -1.7
v 0.3 2.7 -1.7
v 0.5 2.7 -1.7
v -0.5 2.7 -1.9
v -0.3 2.7 -1.9
v 0.3 2.7 -1.9
v 0.5 2.7 -1.9
v -0.6 2.8 -1.7
v -0.5 2.8 -1.7
v 0.5 2.8 -1.7
v 0.6 2.8 -1.7
v -0.6 2.8 -1.9
v -0.5 2.8 -1.9
v 0.5 2.8 -1.9
v 0.6 2.8 -1.9
v -1.1 3.5 -1.7
v -1 3.5 -1.7
v 1 3.5 -1.7
v 1.1 3.5 -1.7
v -1.1 3.5 -1.8
v -1 3.5 -1.8
v 1 3.5 -1.8
v 1.1 3.5 -1.8
v -1 3.6 -1.7
v -0.9 3.6 -1.7
v 0.9 3.6 -1.7
v 1 3.6 -1.7
v -1.2 3.6 -1.8
v -1.1 3.6 -1.8
v -1 3.6 -1.8
v -0.9 3.6 -1.8
v 0.9 3.6 -1.8
v 1 3.6 -1.8
v 1.1 3.6 -1.8
v 1.2 3.6 -1.8
v -1.2 3.6 -2
v -1.1 3.6 -2
v 1.1 3.6 -2
v 1.2 3.6 -2
v -0.9 3.7 -1.7
v 0.9 3.7 -1.7
v -0.9 3.7 -1.8
v 0.9 3.7 -1.8
v -1.1 3.8 -1.8
v -0.9 3.8 -1.8
v 0.9 3.8 -1.8
v 1.1 3.8 -1.8
v -1.1 3.8 -2
v -0.9 3.8 -2
v 0.9 3.8 -2
v 1.1 3.8 -2
v -0.9 3.9 -1.8
v 0.9 3.9 -1.8
v -0.9 3.9 -2
v 0.9 3.9 -2

# faces
f 3/3/1 2/3/1 1/3/1
f 4/3/1 2/3/1 3/3/1
f 7/3/1 6/3/1 5/3/1
f 8/3/1 6/3/1 7/3/1
f 11/3/1 10/3/1 9/3/1
f 12/3/1 10/3/1 11/3/1
f 15/3/1 14/3/1 13/3/1
f 16/3/1 14/3/1 15/3/1
f 19/3/1 18/3/1 17/3/1
f 20/3/1 18/3/1 19/3/1
f 23/3/1 22/3/1 21/3/1
f 24/3/1 22/3/1 23/3/1
f 27/3/1 26/3/1 25/3/1
f 28/3/1 26/3/1 27/3/1
f 31/3/1 30/3/1 29/3/1
f 32/3/1 30/3/1 31/3/1
f 35/3/1 34/3/1 33/3/1
f 36/3/1 34/3/1 35/3/1
f 39/3/1 38/3/1 37/3/1
f 40/3/1 38/3/1 39/3/1
f 43/1/1 42/1/1 41/1/1
f 44/1/1 42/1/1 43/1/1
f 47/1/1 46/1/1 45/1/1
f 48/1/1 46/1/1 47/1/1
f 51/1/1 50/1/1 49/1/1
f 52/1/1 50/1/1 51/1/1
f 55/1/1 54/1/1 53/1/1
f 56/1/1 54/1/1 55/1/1
f 59/1/1 58/1/1 57/1/1
f 60/1/1 58/1/1 59/1/1
f 63/1/1 62/1/1 61/1/1
f 64/1/1 62/1/1 63/1/1
f 67/1/1 66/1/1 65/1/1
f 68/1/1 66/1/1 67/1/1
f 71/1/1 70/1/1 69/1/1
f 72/1/1 70/1/1 71/1/1
f 75/1/1 74/1/1 73/1/1
f 76/1/1 74/1/1 75/1/1
f 79/1/1 78/1/1 77/1/1
f 80/1/1 78/1/1 79/1/1
f 83/1/1 82/1/1 81/1/1
f 84/1/1 82/1/1 83/1/1
f 87/1/1 86/1/1 85/1/1
f 88/1/1 86/1/1 87/1/1
f 91/1/1 90/1/1 89/1/1
f 92/1/1 90/1/1 91/1/1
f 95/1/1 94/1/1 93/1/1
f 96/1/1 94/1/1 95/1/1
f 99/1/1 98/1/1 97/1/1
f 100/1/1 98/1/1 99/1/1
f 103/1/1 102/1/1 101/1/1
f 104/1/1 102/1/1 103/1/1
f 105/1/2 106/1/2 107/1/2
f 107/1/2 106/1/2 108/1/2
f 109/1/2 110/1/2 111/1/2
f 111/1/2 110/1/2 112/1/2
f 113/1/2 114/1/2 115/1/2
f 115/1/2 114/1/2 116/1/2
f 117/1/2 118/1/2 119/1/2
f 119/1/2 118/1/2 120/1/2
f 121/1/2 122/1/2 123/1/2
f 123/1/2 122/1/2 124/1/2
f 125/1/2 126/1/2 127/1/2
f 127/1/2 126/1/2 128/1/2
f 129/1/2 130/1/2 131/1/2
f 131/1/2 130/1/2 132/1/2
f 133/1/2 134/1/2 135/1/2
f 135/1/2 134/1/2 136/1/2
f 137/1/2 138/1/2 139/1/2
f 139/1/2 138/1/2 140/1/2
f 141/1/2 142/1/2 143/1/2
f 143/1/2 142/1/2 144/1/2
f 145/1/2 146/1/2 147/1/2
f 147/1/2 146/1/2 148/1/2
f 149/1/2 150/1/2 151/1/2
f 151/1/2 150/1/2 152/1/2
f 153/1/2 154/1/2 155/1/2
f 155/1/2 154/1/2 156/1/2
f 157/1/2 158/1/2 159/1/2
f 159/1/2 158/1/2 160/1/2
f 161/1/2 162/1/2 163/1/2
f 163/1/2 162/1/2 164/1/2
f 165/1/2 166/1/2 167/1/2
f 167/1/2 166/1/2 168/1/2
f 169/3/2 170/3/2 171/3/2
f 171/3/2 170/3/2 172/3/2
f 173/3/2 174/3/2 175/3/2
f 175/3/2 174/3/2 176/3/2
f 177/3/2 178/3/2 179/3/2
f 179/3/2 178/3/2 180/3/2
f 181/3/2 182/3/2 183/3/2
f 183/3/2 182/3/2 184/3/2
f 185/3/2 186/3/2 187/3/2
f 187/3/2 186/3/2 188/3/2
f 189/3/2 190/3/2 191/3/2
f 191/3/2 190/3/2 192/3/2
f 193/3/2 194/3/2 195/3/2
f 195/3/2 194/3/2 196/3/2
f 197/3/2 198/3/2 199/3/2
f 199/3/2 198/3/2 200/3/2
f 201/3/2 202/3/2 203/3/2
f 203/3/2 202/3/2 204/3/2
f 205/3/2 206/3/2 207/3/2
f 207/3/2 206/3/2 208/3/2
f 212/3/3 210/3/3 209/3/3
f 213/3/3 210/3/3 212/3/3
f 216/3/3 212/3/3 211/3/3
f 216/3/3 214/3/3 213/3/3
f 216/3/3 213/3/3 212/3/3
f 217/3/3 214/3/3 216/3/3
f 219/3/3 216/3/3 215/3/3
f 219/3/3 218/3/3 217/3/3
f 219/3/3 217/3/3 216/3/3
f 220/3/3 218/3/3 219/3/3
f 221/1/3 220/1/3 219/1/3
f 222/1/3 220/1/3 221/1/3
f 223/1/3 220/1/3 222/1/3
f 224/1/3 220/1/3 223/1/3
f 225/1/3 221/1/3 219/1/3
f 226/1/3 221/1/3 225/1/3
f 227/1/3 223/1/3 222/1/3
f 228/1/3 223/1/3 227/1/3
f 229/1/3 223/1/3 228/1/3
f 230/1/3 223/1/3 229/1/3
f 231/1/3 220/1/3 224/1/3
f 232/1/3 220/1/3 231/1/3
f 233/1/3 225/1/3 219/1/3
f 234/1/3 225/1/3 233/1/3
f 235/1/3 229/1/3 228/1/3
f 236/1/3 229/1/3 235/1/3
f 237/1/3 229/1/3 236/1/3
f 238/1/3 229/1/3 237/1/3
f 239/1/3 220/1/3 232/1/3
f 240/1/3 220/1/3 239/1/3
f 241/1/3 233/1/3 219/1/3
f 242/1/3 233/1/3 241/1/3
f 243/1/3 233/1/3 242/1/3
f 244/1/3 237/1/3 236/1/3
f 245/1/3 237/1/3 244/1/3
f 246/1/3 237/1/3 245/1/3
f 247/1/3 237/1/3 246/1/3
f 248/1/3 220/1/3 240/1/3
f 249/1/3 243/1/3 242/1/3
f 249/1/3 244/1/3 243/1/3
f 249/1/3 245/1/3 244/1/3
f 250/1/3 245/1/3 249/1/3
f 251/1/3 247/1/3 246/1/3
f 251/1/3 248/1/3 247/1/3
f 252/1/3 248/1/3 251/1/3
f 254/1/3 245/1/3 250/1/3
f 256/1/3 248/1/3 252/1/3
f 257/1/3 241/1/3 219/1/3
f 258/1/3 254/1/3 253/1/3
f 259/1/3 245/1/3 254/1/3
f 259/1/3 254/1/3 258/1/3
f 260/1/3 245/1/3 259/1/3
f 261/1/3 245/1/3 260/1/3
f 262/1/3 256/1/3 255/1/3
f 263/1/3 248/1/3 256/1/3
f 263/1/3 256/1/3 262/1/3
f 264/1/3 220/1/3 248/1/3
f 264/1/3 248/1/3 263/1/3
f 265/1/3 258/1/3 257/1/3
f 265/1/3 259/1/3 258/1/3
f 268/1/3 261/1/3 260/1/3
f 268/1/3 263/1/3 262/1/3
f 268/1/3 262/1/3 261/1/3
f 269/1/3 263/1/3 268/1/3
f 272/1/3 220/1/3 264/1/3
f 273/1/3 266/1/3 265/1/3
f 276/1/3 270/1/3 269/1/3
f 276/1/3 268/1/3 267/1/3
f 276/1/3 269/1/3 268/1/3
f 277/1/3 270/1/3 276/1/3
f 280/1/3 272/1/3 271/1/3
f 281/1/3 274/1/3 273/1/3
f 282/1/3 278/1/3 277/1/3
f 282/1/3 276/1/3 275/1/3
f 282/1/3 277/1/3 276/1/3
f 283/1/3 278/1/3 282/1/3
f 284/1/3 280/1/3 279/1/3
f 285/3/3 219/3/3 215/3/3
f 285/1/3 284/1/3 283/1/3
f 285/1/3 257/1/3 219/1/3
f 285/1/3 281/1/3 273/1/3
f 285/1/3 282/1/3 281/1/3
f 285/1/3 265/1/3 257/1/3
f 285/1/3 283/1/3 282/1/3
f 285/1/3 273/1/3 265/1/3
f 286/1/3 280/1/3 284/1/3
f 286/1/3 284/1/3 285/1/3
f 286/3/3 218/3/3 220/3/3
f 286/1/3 272/1/3 280/1/3
f 286/1/3 220/1/3 272/1/3
f 287/3/3 285/3/3 215/3/3
f 287/3/3 286/3/3 285/3/3
f 288/3/3 286/3/3 287/3/3
f 289/3/3 218/3/3 286/3/3
f 289/3/3 286/3/3 288/3/3
f 290/3/3 218/3/3 289/3/3
f 291/3/3 289/3/3 288/3/3
f 292/3/3 289/3/3 291/3/3
f 293/3/3 289/3/3 292/3/3
f 294/3/3 289/3/3 293/3/3
f 295/3/3 293/3/3 292/3/3
f 296/3/3 293/3/3 295/3/3
f 300/3/3 298/3/3 297/3/3
f 301/3/3 298/3/3 300/3/3
f 302/3/3 298/3/3 301/3/3
f 303/3/3 298/3/3 302/3/3
f 305/3/3 300/3/3 299/3/3
f 305/3/3 301/3/3 300/3/3
f 306/3/3 301/3/3 305/3/3
f 307/3/3 304/3/3 303/3/3
f 307/3/3 303/3/3 302/3/3
f 308/3/3 304/3/3 307/3/3
f 310/3/3 305/3/3 299/3/3
f 311/3/3 305/3/3 310/3/3
f 312/3/3 305/3/3 311/3/3
f 313/3/3 304/3/3 308/3/3
f 314/3/3 304/3/3 313/3/3
f 315/3/3 304/3/3 314/3/3
f 317/3/3 310/3/3 309/3/3
f 317/3/3 311/3/3 310/3/3
f 318/3/3 311/3/3 317/3/3
f 319/3/3 311/3/3 318/3/3
f 322/3/3 316/3/3 315/3/3
f 322/3/3 315/3/3 314/3/3
f 323/3/3 316/3/3 322/3/3
f 324/3/3 316/3/3 323/3/3
f 325/3/3 320/3/3 319/3/3
f 325/3/3 319/3/3 318/3/3
f 328/3/3 323/3/3 322/3/3
f 328/3/3 322/3/3 321/3/3
f 329/3/3 326/3/3 325/3/3
f 329/3/3 325/3/3 318/3/3
f 330/3/3 326/3/3 329/3/3
f 331/3/3 326/3/3 330/3/3
f 332/3/3 328/3/3 327/3/3
f 333/3/3 323/3/3 328/3/3
f 333/3/3 328/3/3 332/3/3
f 334/3/3 323/3/3 333/3/3
f 335/3/3 331/3/3 330/3/3
f 335/3/3 332/3/3 331/3/3
f 335/3/3 333/3/3 332/3/3
f 336/3/3 333/3/3 335/3/3
f 342/2/3 338/2/3 337/2/3
f 343/2/3 338/2/3 342/2/3
f 346/2/3 340/2/3 339/2/3
f 347/2/3 340/2/3 346/2/3
f 350/2/3 344/2/3 343/2/3
f 350/2/3 342/2/3 341/2/3
f 350/2/3 343/2/3 342/2/3
f 351/2/3 344/2/3 350/2/3
f 354/2/3 348/2/3 347/2/3
f 354/2/3 347/2/3 346/2/3
f 354/2/3 346/2/3 345/2/3
f 355/2/3 348/2/3 354/2/3
f 359/2/3 352/2/3 351/2/3
f 359/2/3 351/2/3 350/2/3
f 359/2/3 350/2/3 349/2/3
f 360/2/3 352/2/3 359/2/3
f 363/2/3 356/2/3 355/2/3
f 363/2/3 355/2/3 354/2/3
f 363/2/3 354/2/3 353/2/3
f 364/2/3 356/2/3 363/2/3
f 365/2/3 358/2/3 357/2/3
f 367/2/3 362/2/3 361/2/3
f 369/2/3 366/2/3 365/2/3
f 369/2/3 365/2/3 357/2/3
f 370/2/3 366/2/3 369/2/3
f 371/2/3 368/2/3 367/2/3
f 371/2/3 367/2/3 361/2/3
f 372/2/3 368/2/3 371/2/3
f 373/2/3 369/2/3 357/2/3
f 374/2/3 369/2/3 373/2/3
f 377/2/3 371/2/3 361/2/3
f 378/2/3 371/2/3 377/2/3
f 381/2/3 376/2/3 375/2/3
f 382/2/3 376/2/3 381/2/3
f 383/2/3 376/2/3 382/2/3
f 384/2/3 376/2/3 383/2/3
f 385/2/3 380/2/3 379/2/3
f 386/2/3 380/2/3 385/2/3
f 387/2/3 380/2/3 386/2/3
f 388/2/3 380/2/3 387/2/3
f 389/2/3 383/2/3 382/2/3
f 390/2/3 383/2/3 389/2/3
f 391/2/3 383/2/3 390/2/3
f 392/2/3 383/2/3 391/2/3
f 393/2/3 387/2/3 386/2/3
f 394/2/3 387/2/3 393/2/3
f 395/2/3 387/2/3 394/2/3
f 396/2/3 387/2/3 395/2/3
f 397/2/3 391/2/3 390/2/3
f 398/2/3 391/2/3 397/2/3
f 399/2/3 395/2/3 394/2/3
f 400/2/3 395/2/3 399/2/3
f 401/3/4 402/3/4 404/3/4
f 404/3/4 402/3/4 405/3/4
f 403/3/4 404/3/4 408/3/4
f 405/3/4 406/3/4 408/3/4
f 404/3/4 405/3/4 408/3/4
f 408/3/4 406/3/4 409/3/4
f 407/3/4 408/3/4 411/3/4
f 409/3/4 410/3/4 411/3/4
f 408/3/4 409/3/4 411/3/4
f 411/3/4 410/3/4 412/3/4
f 411/1/4 412/1/4 413/1/4
f 413/1/4 412/1/4 414/1/4
f 414/1/4 412/1/4 415/1/4
f 415/1/4 412/1/4 416/1/4
f 411/1/4 413/1/4 417/1/4
f 413/2/4 414/2/4 418/2/4
f 417/1/4 413/1/4 418/1/4
f 414/1/4 415/1/4 419/1/4
f 418/2/4 414/2/4 419/2/4
f 419/1/4 415/1/4 420/1/4
f 420/1/4 415/1/4 421/1/4
f 415/2/4 416/2/4 422/2/4
f 421/1/4 415/1/4 422/1/4
f 416/1/4 412/1/4 423/1/4
f 422/2/4 416/2/4 423/2/4
f 423/1/4 412/1/4 424/1/4
f 411/1/4 417/1/4 425/1/4
f 417/2/4 418/2/4 426/2/4
f 425/1/4 417/1/4 426/1/4
f 418/2/4 419/2/4 426/2/4
f 419/2/4 420/2/4 426/2/4
f 420/1/4 421/1/4 427/1/4
f 426/2/4 420/2/4 427/2/4
f 427/1/4 421/1/4 428/1/4
f 428/1/4 421/1/4 429/1/4
f 421/2/4 422/2/4 430/2/4
f 429/1/4 421/1/4 430/1/4
f 423/2/4 424/2/4 430/2/4
f 422/2/4 423/2/4 430/2/4
f 424/1/4 412/1/4 431/1/4
f 430/2/4 424/2/4 431/2/4
f 431/1/4 412/1/4 432/1/4
f 411/1/4 425/1/4 433/1/4
f 433/1/4 425/1/4 434/1/4
f 425/2/4 426/2/4 435/2/4
f 434/1/4 425/1/4 435/1/4
f 427/2/4 428/2/4 435/2/4
f 426/2/4 427/2/4 435/2/4
f 428/1/4 429/1/4 436/1/4
f 435/2/4 428/2/4 436/2/4
f 436/1/4 429/1/4 437/1/4
f 437/1/4 429/1/4 438/1/4
f 429/2/4 430/2/4 439/2/4
f 438/1/4 429/1/4 439/1/4
f 431/2/4 432/2/4 439/2/4
f 430/2/4 431/2/4 439/2/4
f 432/1/4 412/1/4 440/1/4
f 439/2/4 432/2/4 440/2/4
f 434/1/4 435/1/4 441/1/4
f 433/2/4 434/2/4 441/2/4
f 436/1/4 437/1/4 441/1/4
f 435/1/4 436/1/4 441/1/4
f 441/1/4 437/1/4 442/1/4
f 437/2/4 438/2/4 443/2/4
f 438/1/4 439/1/4 443/1/4
f 439/1/4 440/1/4 443/1/4
f 443/1/4 440/1/4 444/1/4
f 441/2/4 442/2/4 445/2/4
f 433/2/4 441/2/4 445/2/4
f 442/1/4 437/1/4 446/1/4
f 445/2/4 442/2/4 446/2/4
f 443/2/4 444/2/4 447/2/4
f 437/2/4 443/2/4 447/2/4
f 444/1/4 440/1/4 448/1/4
f 447/2/4 444/2/4 448/2/4
f 433/2/4 445/2/4 449/2/4
f 411/1/4 433/1/4 449/1/4
f 445/1/4 446/1/4 450/1/4
f 449/2/4 445/2/4 450/2/4
f 446/1/4 437/1/4 451/1/4
f 450/1/4 446/1/4 451/1/4
f 451/1/4 437/1/4 452/1/4
f 437/2/4 447/2/4 453/2/4
f 452/1/4 437/1/4 453/1/4
f 447/1/4 448/1/4 454/1/4
f 453/2/4 447/2/4 454/2/4
f 448/1/4 440/1/4 455/1/4
f 454/1/4 448/1/4 455/1/4
f 440/1/4 412/1/4 456/1/4
f 455/1/4 440/1/4 456/1/4
f 451/2/4 452/2/4 457/2/4
f 449/1/4 450/1/4 457/1/4
f 450/1/4 451/1/4 457/1/4
f 457/2/4 452/2/4 458/2/4
f 458/2/4 452/2/4 459/2/4
f 454/1/4 455/1/4 460/1/4
f 459/2/4 452/2/4 460/2/4
f 453/1/4 454/1/4 460/1/4
f 452/1/4 453/1/4 460/1/4
f 455/2/4 456/2/4 461/2/4
f 460/1/4 455/1/4 461/1/4
f 461/2/4 456/2/4 462/2/4
f 462/2/4 456/2/4 463/2/4
f 456/1/4 412/1/4 464/1/4
f 463/2/4 456/2/4 464/2/4
f 458/2/4 459/2/4 465/2/4
f 457/1/4 458/1/4 465/1/4
f 465/2/4 459/2/4 466/2/4
f 466/2/4 459/2/4 467/2/4
f 459/1/4 460/1/4 468/1/4
f 467/2/4 459/2/4 468/2/4
f 460/1/4 461/1/4 468/1/4
f 461/1/4 462/1/4 468/1/4
f 462/2/4 463/2/4 469/2/4
f 468/1/4 462/1/4 469/1/4
f 469/2/4 463/2/4 470/2/4
f 470/2/4 463/2/4 471/2/4
f 463/1/4 464/1/4 472/1/4
f 471/2/4 463/2/4 472/2/4
f 466/2/4 467/2/4 473/2/4
f 465/1/4 466/1/4 473/1/4
f 467/1/4 468/1/4 474/1/4
f 473/2/4 467/2/4 474/2/4
f 468/1/4 469/1/4 474/1/4
f 469/1/4 470/1/4 474/1/4
f 470/2/4 471/2/4 475/2/4
f 474/1/4 470/1/4 475/1/4
f 471/1/4 472/1/4 476/1/4
f 475/2/4 471/2/4 476/2/4
f 407/3/4 411/3/4 477/3/4
f 473/1/4 474/1/4 477/1/4
f 475/1/4 476/1/4 477/1/4
f 457/1/4 465/1/4 477/1/4
f 474/1/4 475/1/4 477/1/4
f 411/1/4 449/1/4 477/1/4
f 449/1/4 457/1/4 477/1/4
f 465/1/4 473/1/4 477/1/4
f 476/1/4 472/1/4 478/1/4
f 477/1/4 476/1/4 478/1/4
f 412/3/4 410/3/4 478/3/4
f 472/1/4 464/1/4 478/1/4
f 464/1/4 412/1/4 478/1/4
f 407/3/4 477/3/4 479/3/4
f 477/3/4 478/3/4 479/3/4
f 479/3/4 478/3/4 480/3/4
f 478/3/4 410/3/4 481/3/4
f 480/3/4 478/3/4 481/3/4
f 481/3/4 410/3/4 482/3/4
f 480/3/4 481/3/4 483/3/4
f 483/3/4 481/3/4 484/3/4
f 484/3/4 481/3/4 485/3/4
f 485/3/4 481/3/4 486/3/4
f 484/3/4 485/3/4 487/3/4
f 487/3/4 485/3/4 488/3/4
f 491/3/5 490/3/5 489/3/5
f 492/3/5 490/3/5 491/3/5
f 497/3/5 494/3/5 493/3/5
f 498/3/5 494/3/5 497/3/5
f 499/3/5 496/3/5 495/3/5
f 500/3/5 496/3/5 499/3/5
f 503/3/5 502/3/5 501/3/5
f 504/3/5 502/3/5 503/3/5
f 511/3/5 506/3/5 505/3/5
f 512/3/5 506/3/5 511/3/5
f 513/3/5 508/3/5 507/3/5
f 514/3/5 508/3/5 513/3/5
f 517/3/5 510/3/5 509/3/5
f 518/3/5 510/3/5 517/3/5
f 519/3/5 516/3/5 515/3/5
f 520/3/5 516/3/5 519/3/5
f 525/3/5 522/3/5 521/3/5
f 526/3/5 522/3/5 525/3/5
f 527/3/5 524/3/5 523/3/5
f 528/3/5 524/3/5 527/3/5
f 533/1/5 530/1/5 529/1/5
f 534/1/5 530/1/5 533/1/5
f 535/1/5 532/1/5 531/1/5
f 536/1/5 532/1/5 535/1/5
f 539/1/5 538/1/5 537/1/5
f 540/1/5 538/1/5 539/1/5
f 545/1/5 542/1/5 541/1/5
f 546/1/5 542/1/5 545/1/5
f 547/1/5 544/1/5 543/1/5
f 548/1/5 544/1/5 547/1/5
f 553/1/5 550/1/5 549/1/5
f 554/1/5 550/1/5 553/1/5
f 555/1/5 552/1/5 551/1/5
f 556/1/5 552/1/5 555/1/5
f 561/1/5 558/1/5 557/1/5
f 562/1/5 558/1/5 561/1/5
f 563/1/5 560/1/5 559/1/5
f 564/1/5 560/1/5 563/1/5
f 569/1/5 566/1/5 565/1/5
f 570/1/5 566/1/5 569/1/5
f 571/1/5 568/1/5 567/1/5
f 572/1/5 568/1/5 571/1/5
f 575/1/5 574/1/5 573/1/5
f 576/1/5 574/1/5 575/1/5
f 581/1/5 578/1/5 577/1/5
f 582/1/5 578/1/5 581/1/5
f 583/1/5 580/1/5 579/1/5
f 584/1/5 580/1/5 583/1/5
f 589/1/5 586/1/5 585/1/5
f 590/1/5 586/1/5 589/1/5
f 591/1/5 588/1/5 587/1/5
f 592/1/5 588/1/5 591/1/5
f 597/1/5 594/1/5 593/1/5
f 598/1/5 594/1/5 597/1/5
f 599/1/5 596/1/5 595/1/5
f 600/1/5 596/1/5 599/1/5
f 601/1/6 602/1/6 603/1/6
f 603/1/6 602/1/6 604/1/6
f 605/1/6 606/1/6 609/1/6
f 609/1/6 606/1/6 610/1/6
f 607/1/6 608/1/6 611/1/6
f 611/1/6 608/1/6 612/1/6
f 613/1/6 614/1/6 617/1/6
f 617/1/6 614/1/6 618/1/6
f 615/1/6 616/1/6 619/1/6
f 619/1/6 616/1/6 620/1/6
f 621/1/6 622/1/6 625/1/6
f 625/1/6 622/1/6 626/1/6
f 623/1/6 624/1/6 627/1/6
f 627/1/6 624/1/6 628/1/6
f 629/1/6 630/1/6 631/1/6
f 631/1/6 630/1/6 632/1/6
f 633/1/6 634/1/6 637/1/6
f 637/1/6 634/1/6 638/1/6
f 635/1/6 636/1/6 639/1/6
f 639/1/6 636/1/6 640/1/6
f 641/1/6 642/1/6 645/1/6
f 645/1/6 642/1/6 646/1/6
f 643/1/6 644/1/6 647/1/6
f 647/1/6 644/1/6 648/1/6
f 649/1/6 650/1/6 653/1/6
f 653/1/6 650/1/6 654/1/6
f 651/1/6 652/1/6 655/1/6
f 655/1/6 652/1/6 656/1/6
f 657/3/6 658/3/6 661/3/6
f 661/3/6 658/3/6 662/3/6
f 659/3/6 660/3/6 663/3/6
f 663/3/6 660/3/6 664/3/6
f 665/3/6 666/3/6 671/3/6
f 671/3/6 666/3/6 672/3/6
f 667/3/6 668/3/6 673/3/6
f 673/3/6 668/3/6 674/3/6
f 669/3/6 670/3/6 677/3/6
f 677/3/6 670/3/6 678/3/6
f 675/3/6 676/3/6 679/3/6
f 679/3/6 676/3/6 680/3/6
f 681/3/6 682/3/6 683/3/6
f 683/3/6 682/3/6 684/3/6
f 685/3/6 686/3/6 689/3/6
f 689/3/6 686/3/6 690/3/6
f 687/3/6 688/3/6 691/3/6
f 691/3/6 688/3/6 692/3/6
f 693/3/6 694/3/6 695/3/6
f 695/3/6 694/3/6 696/3/6
