# MagicaVoxel @ Ephtracy

# group
o 

# material
mtllib bathroom_sink.vox.mtl
usemtl palette

# normals
vn -1 0 0
vn 1 0 0
vn 0 0 1
vn 0 0 -1
vn 0 -1 0
vn 0 1 0

# texcoords
vt 0.00195312 0.5
vt 0.0175781 0.5
vt 0.0253906 0.5
vt 0.0292969 0.5
vt 0.0332031 0.5
vt 0.0371094 0.5

# verts
v -2.4 2.5 -1.1
v -2.4 2.5 -3.2
v -2.4 3 -1.1
v -2.4 3 -3
v -2.4 3.3 -3
v -2.4 3.3 -3.2
v -2.3 2.5 -0.9
v -2.3 2.5 -1.1
v -2.3 3 -0.9
v -2.3 3 -1.1
v -2.3 3.3 -3
v -2.3 3.3 -3.2
v -2.3 3.4 -3
v -2.3 3.4 -3.2
v -2.2 0 -1.1
v -2.2 0 -2.9
v -2.2 2.5 -1.1
v -2.2 2.5 -2.9
v -2.1 0 -1
v -2.1 0 -1.1
v -2.1 0 -2.9
v -2.1 0 -3
v -2.1 2.5 -0.8
v -2.1 2.5 -0.9
v -2.1 2.5 -1
v -2.1 2.5 -1.1
v -2.1 2.5 -2.9
v -2.1 2.5 -3
v -2.1 3 -0.8
v -2.1 3 -0.9
v -1.1 3.3 -2.7
v -1.1 3.3 -2.9
v -1.1 3.4 -2.7
v -1.1 3.4 -2.9
v -1 3 -2.7
v -1 3 -2.9
v -1 3.1 -2.7
v -1 3.1 -2.9
v -0.9 3.1 -2.7
v -0.9 3.1 -2.9
v -0.9 3.3 -2.7
v -0.9 3.3 -2.9
v -0.6 1.3 -0.8
v -0.6 1.3 -1
v -0.6 1.4 -0.9
v -0.6 1.4 -1
v -0.6 1.5 -0.7
v -0.6 1.5 -0.8
v -0.6 1.5 -0.9
v -0.6 1.9 -0.7
v -0.6 1.9 -0.8
v -0.6 1.9 -0.9
v -0.6 2 -0.9
v -0.6 2 -1
v -0.6 2.1 -0.8
v -0.6 2.1 -1
v -0.5 1.2 -0.9
v -0.5 1.2 -1
v -0.5 1.3 -0.9
v -0.5 1.3 -1
v -0.5 1.4 -0.7
v -0.5 1.4 -0.8
v -0.5 1.5 -0.7
v -0.5 1.5 -0.8
v -0.5 1.9 -0.7
v -0.5 1.9 -0.8
v -0.5 2 -0.7
v -0.5 2 -0.8
v -0.5 2.1 -0.9
v -0.5 2.1 -1
v -0.5 2.2 -0.9
v -0.5 2.2 -1
v -0.2 0.7 -1.9
v -0.2 0.7 -2.1
v -0.2 0.8 -1.8
v -0.2 0.8 -1.9
v -0.2 0.9 -1.7
v -0.2 0.9 -1.8
v -0.2 0.9 -2
v -0.2 0.9 -2.1
v -0.2 1 -1.9
v -0.2 1 -2
v -0.2 1.1 -1.7
v -0.2 1.1 -1.9
v -0.2 1.4 -1.7
v -0.2 1.4 -1.9
v -0.2 2.2 -1.6
v -0.2 2.2 -1.7
v -0.2 2.2 -1.9
v -0.2 2.2 -2
v -0.2 2.3 -1.6
v -0.2 2.3 -2
v -0.2 3 -2.8
v -0.2 3 -2.9
v -0.2 3.4 -2.2
v -0.2 3.4 -2.8
v -0.2 3.5 -2.2
v -0.2 3.5 -2.9
v -0.0999999 0.2 -1.1
v -0.0999999 0.2 -2.1
v -0.0999999 0.7 -1.9
v -0.0999999 0.7 -2.1
v -0.0999999 0.8 -1.8
v -0.0999999 0.8 -1.9
v -0.0999999 0.9 -1.7
v -0.0999999 0.9 -1.8
v -0.0999999 0.9 -2
v -0.0999999 0.9 -2.1
v -0.0999999 1 -1.9
v -0.0999999 1 -2
v -0.0999999 1.1 -1.2
v -0.0999999 1.1 -1.7
v -0.0999999 1.1 -1.9
v -0.0999999 1.1 -2.1
v -0.0999999 1.4 -1.2
v -0.0999999 1.4 -1.7
v -0.0999999 1.4 -1.9
v -0.0999999 1.4 -2.1
v -0.0999999 2.2 -1.6
v -0.0999999 2.2 -1.7
v -0.0999999 2.2 -1.9
v -0.0999999 2.2 -2
v -0.0999999 2.3 -1.1
v -0.0999999 2.3 -1.6
v -0.0999999 2.3 -2
v -0.0999999 2.3 -2.1
v -0.0999999 3 -2.7
v -0.0999999 3 -2.8
v -0.0999999 3.4 -2.1
v -0.0999999 3.4 -2.2
v -0.0999999 3.4 -2.7
v -0.0999999 3.4 -2.8
v -0.0999999 3.5 -2.1
v -0.0999999 3.5 -2.2
v -0.0999999 3.5 -2.9
v -0.0999999 3.6 -2.2
v -0.0999999 3.6 -2.9
v 0.1 0 -1
v 0.1 0 -1.1
v 0.1 2.3 -1.7
v 0.1 2.3 -1.9
v 0.1 2.4 -1.6
v 0.1 2.4 -1.7
v 0.1 2.4 -1.9
v 0.1 2.4 -2
v 0.1 2.5 -1
v 0.1 2.5 -1.1
v 0.1 2.5 -1.6
v 0.1 2.5 -1.7
v 0.1 2.5 -1.9
v 0.1 2.5 -2
v 0.2 2.4 -1.7
v 0.2 2.4 -1.9
v 0.2 2.5 -1.7
v 0.2 2.5 -1.9
v 0.4 1.2 -0.9
v 0.4 1.2 -1
v 0.4 1.3 -0.8
v 0.4 1.3 -0.9
v 0.4 1.4 -0.7
v 0.4 1.4 -0.8
v 0.4 1.4 -0.9
v 0.4 1.4 -1
v 0.4 1.5 -0.8
v 0.4 1.5 -0.9
v 0.4 1.9 -0.8
v 0.4 1.9 -0.9
v 0.4 2 -0.7
v 0.4 2 -0.8
v 0.4 2 -0.9
v 0.4 2 -1
v 0.4 2.1 -0.8
v 0.4 2.1 -0.9
v 0.4 2.2 -0.9
v 0.4 2.2 -1
v 0.6 3 -2.7
v 0.6 3 -2.9
v 0.6 3.1 -2.7
v 0.6 3.1 -2.9
v 0.7 3.1 -2.7
v 0.7 3.1 -2.9
v 0.7 3.4 -2.7
v 0.7 3.4 -2.9
v 1 2.5 -1.2
v 1 2.5 -2.2
v 1 2.6 -1.2
v 1 2.6 -2.2
v 1.1 2.6 -1.2
v 1.1 2.6 -2.3
v 1.1 2.7 -1.2
v 1.1 2.7 -2.3
v 1.2 2.7 -1.2
v 1.2 2.7 -2.4
v 1.2 3 -1.2
v 1.2 3 -2.4
v 2 0.2 -1.1
v 2 0.2 -2.1
v 2 1.1 -1.2
v 2 1.1 -2.1
v 2 1.4 -1.2
v 2 1.4 -2.1
v 2 2.3 -1.1
v 2 2.3 -2.1
v -2 0.2 -1.1
v -2 0.2 -2.1
v -2 1.1 -1.2
v -2 1.1 -2.1
v -2 1.4 -1.2
v -2 1.4 -2.1
v -2 2.3 -1.1
v -2 2.3 -2.1
v -1.2 2.7 -1.2
v -1.2 2.7 -2.4
v -1.2 3 -1.2
v -1.2 3 -2.4
v -1.1 2.6 -1.2
v -1.1 2.6 -2.3
v -1.1 2.7 -1.2
v -1.1 2.7 -2.3
v -1 2.5 -1.2
v -1 2.5 -2.2
v -1 2.6 -1.2
v -1 2.6 -2.2
v -0.7 3.1 -2.7
v -0.7 3.1 -2.9
v -0.7 3.4 -2.7
v -0.7 3.4 -2.9
v -0.6 3 -2.7
v -0.6 3 -2.9
v -0.6 3.1 -2.7
v -0.6 3.1 -2.9
v -0.4 1.2 -0.9
v -0.4 1.2 -1
v -0.4 1.3 -0.8
v -0.4 1.3 -0.9
v -0.4 1.4 -0.7
v -0.4 1.4 -0.8
v -0.4 1.4 -0.9
v -0.4 1.4 -1
v -0.4 1.5 -0.8
v -0.4 1.5 -0.9
v -0.4 1.9 -0.8
v -0.4 1.9 -0.9
v -0.4 2 -0.7
v -0.4 2 -0.8
v -0.4 2 -0.9
v -0.4 2 -1
v -0.4 2.1 -0.8
v -0.4 2.1 -0.9
v -0.4 2.2 -0.9
v -0.4 2.2 -1
v -0.2 2.4 -1.7
v -0.2 2.4 -1.9
v -0.2 2.5 -1.7
v -0.2 2.5 -1.9
v -0.0999999 0 -1
v -0.0999999 0 -1.1
v -0.0999999 2.3 -1.7
v -0.0999999 2.3 -1.9
v -0.0999999 2.4 -1.6
v -0.0999999 2.4 -1.7
v -0.0999999 2.4 -1.9
v -0.0999999 2.4 -2
v -0.0999999 2.5 -1
v -0.0999999 2.5 -1.1
v -0.0999999 2.5 -1.6
v -0.0999999 2.5 -1.7
v -0.0999999 2.5 -1.9
v -0.0999999 2.5 -2
v 0.1 0.2 -1.1
v 0.1 0.2 -2.1
v 0.1 0.7 -1.9
v 0.1 0.7 -2.1
v 0.1 0.8 -1.8
v 0.1 0.8 -1.9
v 0.1 0.9 -1.7
v 0.1 0.9 -1.8
v 0.1 0.9 -2
v 0.1 0.9 -2.1
v 0.1 1 -1.9
v 0.1 1 -2
v 0.1 1.1 -1.2
v 0.1 1.1 -1.7
v 0.1 1.1 -1.9
v 0.1 1.1 -2.1
v 0.1 1.4 -1.2
v 0.1 1.4 -1.7
v 0.1 1.4 -1.9
v 0.1 1.4 -2.1
v 0.1 2.2 -1.6
v 0.1 2.2 -1.7
v 0.1 2.2 -1.9
v 0.1 2.2 -2
v 0.1 2.3 -1.1
v 0.1 2.3 -1.6
v 0.1 2.3 -2
v 0.1 2.3 -2.1
v 0.1 3 -2.7
v 0.1 3 -2.8
v 0.1 3.4 -2.1
v 0.1 3.4 -2.2
v 0.1 3.4 -2.7
v 0.1 3.4 -2.8
v 0.1 3.5 -2.1
v 0.1 3.5 -2.2
v 0.1 3.5 -2.9
v 0.1 3.6 -2.2
v 0.1 3.6 -2.9
v 0.2 0.7 -1.9
v 0.2 0.7 -2.1
v 0.2 0.8 -1.8
v 0.2 0.8 -1.9
v 0.2 0.9 -1.7
v 0.2 0.9 -1.8
v 0.2 0.9 -2
v 0.2 0.9 -2.1
v 0.2 1 -1.9
v 0.2 1 -2
v 0.2 1.1 -1.7
v 0.2 1.1 -1.9
v 0.2 1.4 -1.7
v 0.2 1.4 -1.9
v 0.2 2.2 -1.6
v 0.2 2.2 -1.7
v 0.2 2.2 -1.9
v 0.2 2.2 -2
v 0.2 2.3 -1.6
v 0.2 2.3 -2
v 0.2 3 -2.8
v 0.2 3 -2.9
v 0.2 3.4 -2.2
v 0.2 3.4 -2.8
v 0.2 3.5 -2.2
v 0.2 3.5 -2.9
v 0.5 1.2 -0.9
v 0.5 1.2 -1
v 0.5 1.3 -0.9
v 0.5 1.3 -1
v 0.5 1.4 -0.7
v 0.5 1.4 -0.8
v 0.5 1.5 -0.7
v 0.5 1.5 -0.8
v 0.5 1.9 -0.7
v 0.5 1.9 -0.8
v 0.5 2 -0.7
v 0.5 2 -0.8
v 0.5 2.1 -0.9
v 0.5 2.1 -1
v 0.5 2.2 -0.9
v 0.5 2.2 -1
v 0.6 1.3 -0.8
v 0.6 1.3 -1
v 0.6 1.4 -0.9
v 0.6 1.4 -1
v 0.6 1.5 -0.7
v 0.6 1.5 -0.8
v 0.6 1.5 -0.9
v 0.6 1.9 -0.7
v 0.6 1.9 -0.8
v 0.6 1.9 -0.9
v 0.6 2 -0.9
v 0.6 2 -1
v 0.6 2.1 -0.8
v 0.6 2.1 -1
v 0.9 3.1 -2.7
v 0.9 3.1 -2.9
v 0.9 3.3 -2.7
v 0.9 3.3 -2.9
v 1 3 -2.7
v 1 3 -2.9
v 1 3.1 -2.7
v 1 3.1 -2.9
v 1.1 3.3 -2.7
v 1.1 3.3 -2.9
v 1.1 3.4 -2.7
v 1.1 3.4 -2.9
v 2.1 0 -1
v 2.1 0 -1.1
v 2.1 0 -2.9
v 2.1 0 -3
v 2.1 2.5 -0.8
v 2.1 2.5 -0.9
v 2.1 2.5 -1
v 2.1 2.5 -1.1
v 2.1 2.5 -2.9
v 2.1 2.5 -3
v 2.1 3 -0.8
v 2.1 3 -0.9
v 2.2 0 -1.1
v 2.2 0 -2.9
v 2.2 2.5 -1.1
v 2.2 2.5 -2.9
v 2.3 2.5 -0.9
v 2.3 2.5 -1.1
v 2.3 3 -0.9
v 2.3 3 -1.1
v 2.3 3.3 -3
v 2.3 3.3 -3.2
v 2.3 3.4 -3
v 2.3 3.4 -3.2
v 2.4 2.5 -1.1
v 2.4 2.5 -3.2
v 2.4 3 -1.1
v 2.4 3 -3
v 2.4 3.3 -3
v 2.4 3.3 -3.2
v -0.6 1.5 -0.7
v -0.6 1.9 -0.7
v -0.5 1.4 -0.7
v -0.5 1.5 -0.7
v -0.5 1.9 -0.7
v -0.5 2 -0.7
v -0.4 1.4 -0.7
v -0.4 2 -0.7
v 0.4 1.4 -0.7
v 0.4 2 -0.7
v 0.5 1.4 -0.7
v 0.5 1.5 -0.7
v 0.5 1.9 -0.7
v 0.5 2 -0.7
v 0.6 1.5 -0.7
v 0.6 1.9 -0.7
v -2.1 2.5 -0.8
v -2.1 3 -0.8
v -0.6 1.3 -0.8
v -0.6 1.5 -0.8
v -0.6 1.9 -0.8
v -0.6 2.1 -0.8
v -0.5 1.4 -0.8
v -0.5 1.5 -0.8
v -0.5 1.9 -0.8
v -0.5 2 -0.8
v -0.4 1.3 -0.8
v -0.4 1.4 -0.8
v -0.4 2 -0.8
v -0.4 2.1 -0.8
v 0.4 1.3 -0.8
v 0.4 1.4 -0.8
v 0.4 2 -0.8
v 0.4 2.1 -0.8
v 0.5 1.4 -0.8
v 0.5 1.5 -0.8
v 0.5 1.9 -0.8
v 0.5 2 -0.8
v 0.6 1.3 -0.8
v 0.6 1.5 -0.8
v 0.6 1.9 -0.8
v 0.6 2.1 -0.8
v 2.1 2.5 -0.8
v 2.1 3 -0.8
v -2.3 2.5 -0.9
v -2.3 3 -0.9
v -2.1 2.5 -0.9
v -2.1 3 -0.9
v -0.5 1.2 -0.9
v -0.5 1.3 -0.9
v -0.5 2.1 -0.9
v -0.5 2.2 -0.9
v -0.4 1.2 -0.9
v -0.4 1.3 -0.9
v -0.4 2.1 -0.9
v -0.4 2.2 -0.9
v 0.4 1.2 -0.9
v 0.4 1.3 -0.9
v 0.4 2.1 -0.9
v 0.4 2.2 -0.9
v 0.5 1.2 -0.9
v 0.5 1.3 -0.9
v 0.5 2.1 -0.9
v 0.5 2.2 -0.9
v 2.1 2.5 -0.9
v 2.1 3 -0.9
v 2.3 2.5 -0.9
v 2.3 3 -0.9
v -2.1 0 -1
v -2.1 2.5 -1
v -0.6 1.3 -1
v -0.6 1.4 -1
v -0.6 2 -1
v -0.6 2.1 -1
v -0.5 1.2 -1
v -0.5 1.3 -1
v -0.5 2.1 -1
v -0.5 2.2 -1
v -0.4 1.2 -1
v -0.4 1.4 -1
v -0.4 2 -1
v -0.4 2.2 -1
v -0.0999999 0 -1
v -0.0999999 2.5 -1
v 0.1 0 -1
v 0.1 2.5 -1
v 0.4 1.2 -1
v 0.4 1.4 -1
v 0.4 2 -1
v 0.4 2.2 -1
v 0.5 1.2 -1
v 0.5 1.3 -1
v 0.5 2.1 -1
v 0.5 2.2 -1
v 0.6 1.3 -1
v 0.6 1.4 -1
v 0.6 2 -1
v 0.6 2.1 -1
v 2.1 0 -1
v 2.1 2.5 -1
v -2.4 2.5 -1.1
v -2.4 3 -1.1
v -2.3 2.5 -1.1
v -2.3 3 -1.1
v -2.2 0 -1.1
v -2.2 2.5 -1.1
v -2.1 0 -1.1
v -2.1 2.5 -1.1
v -0.0999999 0 -1.1
v -0.0999999 2.5 -1.1
v 0.1 0 -1.1
v 0.1 2.5 -1.1
v 2.1 0 -1.1
v 2.1 2.5 -1.1
v 2.2 0 -1.1
v 2.2 2.5 -1.1
v 2.3 2.5 -1.1
v 2.3 3 -1.1
v 2.4 2.5 -1.1
v 2.4 3 -1.1
v -2 1.1 -1.2
v -2 1.4 -1.2
v -0.0999999 1.1 -1.2
v -0.0999999 1.4 -1.2
v 0.1 1.1 -1.2
v 0.1 1.4 -1.2
v 2 1.1 -1.2
v 2 1.4 -1.2
v -0.2 2.2 -1.6
v -0.2 2.3 -1.6
v -0.0999999 2.2 -1.6
v -0.0999999 2.3 -1.6
v 0.1 2.2 -1.6
v 0.1 2.3 -1.6
v 0.2 2.2 -1.6
v 0.2 2.3 -1.6
v -0.2 0.9 -1.7
v -0.2 1.1 -1.7
v -0.2 1.4 -1.7
v -0.2 2.2 -1.7
v -0.0999999 0.9 -1.7
v -0.0999999 1.1 -1.7
v -0.0999999 1.4 -1.7
v -0.0999999 2.2 -1.7
v 0.1 0.9 -1.7
v 0.1 1.1 -1.7
v 0.1 1.4 -1.7
v 0.1 2.2 -1.7
v 0.2 0.9 -1.7
v 0.2 1.1 -1.7
v 0.2 1.4 -1.7
v 0.2 2.2 -1.7
v -0.2 0.8 -1.8
v -0.2 0.9 -1.8
v -0.0999999 0.8 -1.8
v -0.0999999 0.9 -1.8
v 0.1 0.8 -1.8
v 0.1 0.9 -1.8
v 0.2 0.8 -1.8
v 0.2 0.9 -1.8
v -0.2 0.7 -1.9
v -0.2 0.8 -1.9
v -0.2 2.4 -1.9
v -0.2 2.5 -1.9
v -0.0999999 0.7 -1.9
v -0.0999999 0.8 -1.9
v -0.0999999 2.3 -1.9
v -0.0999999 2.4 -1.9
v -0.0999999 2.5 -1.9
v 0.1 0.7 -1.9
v 0.1 0.8 -1.9
v 0.1 2.3 -1.9
v 0.1 2.4 -1.9
v 0.1 2.5 -1.9
v 0.2 0.7 -1.9
v 0.2 0.8 -1.9
v 0.2 2.4 -1.9
v 0.2 2.5 -1.9
v -0.0999999 2.4 -2
v -0.0999999 2.5 -2
v 0.1 2.4 -2
v 0.1 2.5 -2
v -2 0.2 -2.1
v -2 1.1 -2.1
v -2 1.4 -2.1
v -2 2.3 -2.1
v -0.2 0.7 -2.1
v -0.2 0.9 -2.1
v -0.0999999 0.2 -2.1
v -0.0999999 0.7 -2.1
v -0.0999999 0.9 -2.1
v -0.0999999 1.1 -2.1
v -0.0999999 1.4 -2.1
v -0.0999999 2.3 -2.1
v -0.0999999 3.4 -2.1
v -0.0999999 3.5 -2.1
v 0.1 0.2 -2.1
v 0.1 0.7 -2.1
v 0.1 0.9 -2.1
v 0.1 1.1 -2.1
v 0.1 1.4 -2.1
v 0.1 2.3 -2.1
v 0.1 3.4 -2.1
v 0.1 3.5 -2.1
v 0.2 0.7 -2.1
v 0.2 0.9 -2.1
v 2 0.2 -2.1
v 2 1.1 -2.1
v 2 1.4 -2.1
v 2 2.3 -2.1
v -1 2.5 -2.2
v -1 2.6 -2.2
v -0.2 3.4 -2.2
v -0.2 3.5 -2.2
v -0.0999999 3.4 -2.2
v -0.0999999 3.5 -2.2
v -0.0999999 3.6 -2.2
v 0.1 3.4 -2.2
v 0.1 3.5 -2.2
v 0.1 3.6 -2.2
v 0.2 3.4 -2.2
v 0.2 3.5 -2.2
v 1 2.5 -2.2
v 1 2.6 -2.2
v -1.1 2.6 -2.3
v -1.1 2.7 -2.3
v 1.1 2.6 -2.3
v 1.1 2.7 -2.3
v -1.2 2.7 -2.4
v -1.2 3 -2.4
v 1.2 2.7 -2.4
v 1.2 3 -2.4
v -1.1 3.3 -2.7
v -1.1 3.4 -2.7
v -1 3 -2.7
v -1 3.1 -2.7
v -0.9 3 -2.7
v -0.9 3.1 -2.7
v -0.9 3.3 -2.7
v -0.7 3 -2.7
v -0.7 3.1 -2.7
v -0.7 3.4 -2.7
v -0.6 3 -2.7
v -0.6 3.1 -2.7
v -0.0999999 3 -2.7
v -0.0999999 3.4 -2.7
v 0.1 3 -2.7
v 0.1 3.4 -2.7
v 0.6 3 -2.7
v 0.6 3.1 -2.7
v 0.7 3 -2.7
v 0.7 3.1 -2.7
v 0.7 3.4 -2.7
v 0.9 3 -2.7
v 0.9 3.1 -2.7
v 0.9 3.3 -2.7
v 1 3 -2.7
v 1 3.1 -2.7
v 1.1 3.3 -2.7
v 1.1 3.4 -2.7
v -0.2 3 -2.8
v -0.2 3.4 -2.8
v -0.0999999 3 -2.8
v -0.0999999 3.4 -2.8
v 0.1 3 -2.8
v 0.1 3.4 -2.8
v 0.2 3 -2.8
v 0.2 3.4 -2.8
v -2.4 3 -3
v -2.4 3.3 -3
v -2.3 3.3 -3
v -2.3 3.4 -3
v 2.3 3.3 -3
v 2.3 3.4 -3
v 2.4 3 -3
v 2.4 3.3 -3
v -0.6 1.5 -0.8
v -0.6 1.9 -0.8
v -0.4 1.5 -0.8
v -0.4 1.9 -0.8
v 0.4 1.5 -0.8
v 0.4 1.9 -0.8
v 0.6 1.5 -0.8
v 0.6 1.9 -0.8
v -0.6 1.4 -0.9
v -0.6 1.5 -0.9
v -0.6 1.9 -0.9
v -0.6 2 -0.9
v -0.4 1.4 -0.9
v -0.4 1.5 -0.9
v -0.4 1.9 -0.9
v -0.4 2 -0.9
v 0.4 1.4 -0.9
v 0.4 1.5 -0.9
v 0.4 1.9 -0.9
v 0.4 2 -0.9
v 0.6 1.4 -0.9
v 0.6 1.5 -0.9
v 0.6 1.9 -0.9
v 0.6 2 -0.9
v -2 0.2 -1.1
v -2 2.3 -1.1
v -0.0999999 0.2 -1.1
v -0.0999999 2.3 -1.1
v 0.1 0.2 -1.1
v 0.1 2.3 -1.1
v 2 0.2 -1.1
v 2 2.3 -1.1
v -1.2 2.7 -1.2
v -1.2 3 -1.2
v -1.1 2.6 -1.2
v -1.1 2.7 -1.2
v -1 2.5 -1.2
v -1 2.6 -1.2
v 1 2.5 -1.2
v 1 2.6 -1.2
v 1.1 2.6 -1.2
v 1.1 2.7 -1.2
v 1.2 2.7 -1.2
v 1.2 3 -1.2
v -0.0999999 2.4 -1.6
v -0.0999999 2.5 -1.6
v 0.1 2.4 -1.6
v 0.1 2.5 -1.6
v -0.2 2.4 -1.7
v -0.2 2.5 -1.7
v -0.0999999 2.3 -1.7
v -0.0999999 2.4 -1.7
v -0.0999999 2.5 -1.7
v 0.1 2.3 -1.7
v 0.1 2.4 -1.7
v 0.1 2.5 -1.7
v 0.2 2.4 -1.7
v 0.2 2.5 -1.7
v -0.2 1 -1.9
v -0.2 1.1 -1.9
v -0.2 1.4 -1.9
v -0.2 2.2 -1.9
v -0.0999999 1 -1.9
v -0.0999999 1.1 -1.9
v -0.0999999 1.4 -1.9
v -0.0999999 2.2 -1.9
v 0.1 1 -1.9
v 0.1 1.1 -1.9
v 0.1 1.4 -1.9
v 0.1 2.2 -1.9
v 0.2 1 -1.9
v 0.2 1.1 -1.9
v 0.2 1.4 -1.9
v 0.2 2.2 -1.9
v -0.2 0.9 -2
v -0.2 1 -2
v -0.2 2.2 -2
v -0.2 2.3 -2
v -0.0999999 0.9 -2
v -0.0999999 1 -2
v -0.0999999 2.2 -2
v -0.0999999 2.3 -2
v 0.1 0.9 -2
v 0.1 1 -2
v 0.1 2.2 -2
v 0.1 2.3 -2
v 0.2 0.9 -2
v 0.2 1 -2
v 0.2 2.2 -2
v 0.2 2.3 -2
v -2.2 0 -2.9
v -2.2 2.5 -2.9
v -2.1 0 -2.9
v -2.1 2.5 -2.9
v -1.1 3.3 -2.9
v -1.1 3.4 -2.9
v -1 3 -2.9
v -1 3.1 -2.9
v -0.9 3.1 -2.9
v -0.9 3.3 -2.9
v -0.7 3.1 -2.9
v -0.7 3.4 -2.9
v -0.6 3 -2.9
v -0.6 3.1 -2.9
v -0.2 3 -2.9
v -0.2 3.5 -2.9
v -0.0999999 3.5 -2.9
v -0.0999999 3.6 -2.9
v 0.1 3.5 -2.9
v 0.1 3.6 -2.9
v 0.2 3 -2.9
v 0.2 3.5 -2.9
v 0.6 3 -2.9
v 0.6 3.1 -2.9
v 0.7 3.1 -2.9
v 0.7 3.4 -2.9
v 0.9 3.1 -2.9
v 0.9 3.3 -2.9
v 1 3 -2.9
v 1 3.1 -2.9
v 1.1 3.3 -2.9
v 1.1 3.4 -2.9
v 2.1 0 -2.9
v 2.1 2.5 -2.9
v 2.2 0 -2.9
v 2.2 2.5 -2.9
v -2.1 0 -3
v -2.1 2.5 -3
v 2.1 0 -3
v 2.1 2.5 -3
v -2.4 2.5 -3.2
v -2.4 3.3 -3.2
v -2.3 3.3 -3.2
v -2.3 3.4 -3.2
v 2.3 3.3 -3.2
v 2.3 3.4 -3.2
v 2.4 2.5 -3.2
v 2.4 3.3 -3.2
v -2.1 0 -1
v -0.0999999 0 -1
v 0.1 0 -1
v 2.1 0 -1
v -2.2 0 -1.1
v -2.1 0 -1.1
v -0.0999999 0 -1.1
v 0.1 0 -1.1
v 2.1 0 -1.1
v 2.2 0 -1.1
v -2.2 0 -2.9
v -2.1 0 -2.9
v 2.1 0 -2.9
v 2.2 0 -2.9
v -2.1 0 -3
v 2.1 0 -3
v -0.2 0.7 -1.9
v -0.0999999 0.7 -1.9
v 0.1 0.7 -1.9
v 0.2 0.7 -1.9
v -0.2 0.7 -2.1
v -0.0999999 0.7 -2.1
v 0.1 0.7 -2.1
v 0.2 0.7 -2.1
v -0.2 0.8 -1.8
v -0.0999999 0.8 -1.8
v 0.1 0.8 -1.8
v 0.2 0.8 -1.8
v -0.2 0.8 -1.9
v -0.0999999 0.8 -1.9
v 0.1 0.8 -1.9
v 0.2 0.8 -1.9
v -0.2 0.9 -1.7
v -0.0999999 0.9 -1.7
v 0.1 0.9 -1.7
v 0.2 0.9 -1.7
v -0.2 0.9 -1.8
v -0.0999999 0.9 -1.8
v 0.1 0.9 -1.8
v 0.2 0.9 -1.8
v -2 1.1 -1.2
v -0.0999999 1.1 -1.2
v 0.1 1.1 -1.2
v 2 1.1 -1.2
v -0.2 1.1 -1.7
v -0.0999999 1.1 -1.7
v 0.1 1.1 -1.7
v 0.2 1.1 -1.7
v -0.2 1.1 -1.9
v -0.0999999 1.1 -1.9
v 0.1 1.1 -1.9
v 0.2 1.1 -1.9
v -2 1.1 -2.1
v -0.0999999 1.1 -2.1
v 0.1 1.1 -2.1
v 2 1.1 -2.1
v -0.5 1.2 -0.9
v -0.4 1.2 -0.9
v 0.4 1.2 -0.9
v 0.5 1.2 -0.9
v -0.5 1.2 -1
v -0.4 1.2 -1
v 0.4 1.2 -1
v 0.5 1.2 -1
v -0.6 1.3 -0.8
v -0.4 1.3 -0.8
v 0.4 1.3 -0.8
v 0.6 1.3 -0.8
v -0.5 1.3 -0.9
v -0.4 1.3 -0.9
v 0.4 1.3 -0.9
v 0.5 1.3 -0.9
v -0.6 1.3 -1
v -0.5 1.3 -1
v 0.5 1.3 -1
v 0.6 1.3 -1
v -0.5 1.4 -0.7
v -0.4 1.4 -0.7
v 0.4 1.4 -0.7
v 0.5 1.4 -0.7
v -0.5 1.4 -0.8
v -0.4 1.4 -0.8
v 0.4 1.4 -0.8
v 0.5 1.4 -0.8
v -0.6 1.5 -0.7
v -0.5 1.5 -0.7
v 0.5 1.5 -0.7
v 0.6 1.5 -0.7
v -0.6 1.5 -0.8
v -0.5 1.5 -0.8
v 0.5 1.5 -0.8
v 0.6 1.5 -0.8
v -0.6 1.9 -0.8
v -0.4 1.9 -0.8
v 0.4 1.9 -0.8
v 0.6 1.9 -0.8
v -0.6 1.9 -0.9
v -0.4 1.9 -0.9
v 0.4 1.9 -0.9
v 0.6 1.9 -0.9
v -0.6 2 -0.9
v -0.4 2 -0.9
v 0.4 2 -0.9
v 0.6 2 -0.9
v -0.6 2 -1
v -0.4 2 -1
v 0.4 2 -1
v 0.6 2 -1
v -0.2 2.2 -1.6
v -0.0999999 2.2 -1.6
v 0.1 2.2 -1.6
v 0.2 2.2 -1.6
v -0.2 2.2 -1.7
v -0.0999999 2.2 -1.7
v 0.1 2.2 -1.7
v 0.2 2.2 -1.7
v -0.2 2.2 -1.9
v -0.0999999 2.2 -1.9
v 0.1 2.2 -1.9
v 0.2 2.2 -1.9
v -0.2 2.2 -2
v -0.0999999 2.2 -2
v 0.1 2.2 -2
v 0.2 2.2 -2
v -2 2.3 -1.1
v -0.0999999 2.3 -1.1
v 0.1 2.3 -1.1
v 2 2.3 -1.1
v -0.2 2.3 -1.6
v -0.0999999 2.3 -1.6
v 0.1 2.3 -1.6
v 0.2 2.3 -1.6
v -0.2 2.3 -2
v -0.0999999 2.3 -2
v 0.1 2.3 -2
v 0.2 2.3 -2
v -2 2.3 -2.1
v -0.0999999 2.3 -2.1
v 0.1 2.3 -2.1
v 2 2.3 -2.1
v -2.1 2.5 -0.8
v 2.1 2.5 -0.8
v -2.3 2.5 -0.9
v -2.1 2.5 -0.9
v 2.1 2.5 -0.9
v 2.3 2.5 -0.9
v -2.1 2.5 -1
v -0.0999999 2.5 -1
v 0.1 2.5 -1
v 2.1 2.5 -1
v -2.4 2.5 -1.1
v -2.3 2.5 -1.1
v -2.2 2.5 -1.1
v -2.1 2.5 -1.1
v -0.0999999 2.5 -1.1
v 0.1 2.5 -1.1
v 2.1 2.5 -1.1
v 2.2 2.5 -1.1
v 2.3 2.5 -1.1
v 2.4 2.5 -1.1
v -2.2 2.5 -2.9
v -2.1 2.5 -2.9
v 2.1 2.5 -2.9
v 2.2 2.5 -2.9
v -2.1 2.5 -3
v 2.1 2.5 -3
v -2.4 2.5 -3.2
v 2.4 2.5 -3.2
v -1.1 3.3 -2.7
v -0.9 3.3 -2.7
v 0.9 3.3 -2.7
v 1.1 3.3 -2.7
v -1.1 3.3 -2.9
v -0.9 3.3 -2.9
v 0.9 3.3 -2.9
v 1.1 3.3 -2.9
v -0.0999999 3.4 -2.1
v 0.1 3.4 -2.1
v -0.2 3.4 -2.2
v -0.0999999 3.4 -2.2
v 0.1 3.4 -2.2
v 0.2 3.4 -2.2
v -0.0999999 3.4 -2.7
v 0.1 3.4 -2.7
v -0.2 3.4 -2.8
v -0.0999999 3.4 -2.8
v 0.1 3.4 -2.8
v 0.2 3.4 -2.8
v -2 0.2 -1.1
v -0.0999999 0.2 -1.1
v 0.1 0.2 -1.1
v 2 0.2 -1.1
v -2 0.2 -2.1
v -0.0999999 0.2 -2.1
v 0.1 0.2 -2.1
v 2 0.2 -2.1
v -0.2 0.9 -2
v -0.0999999 0.9 -2
v 0.1 0.9 -2
v 0.2 0.9 -2
v -0.2 0.9 -2.1
v -0.0999999 0.9 -2.1
v 0.1 0.9 -2.1
v 0.2 0.9 -2.1
v -0.2 1 -1.9
v -0.0999999 1 -1.9
v 0.1 1 -1.9
v 0.2 1 -1.9
v -0.2 1 -2
v -0.0999999 1 -2
v 0.1 1 -2
v 0.2 1 -2
v -0.6 1.4 -0.9
v -0.4 1.4 -0.9
v 0.4 1.4 -0.9
v 0.6 1.4 -0.9
v -0.6 1.4 -1
v -0.4 1.4 -1
v 0.4 1.4 -1
v 0.6 1.4 -1
v -2 1.4 -1.2
v -0.0999999 1.4 -1.2
v 0.1 1.4 -1.2
v 2 1.4 -1.2
v -0.2 1.4 -1.7
v -0.0999999 1.4 -1.7
v 0.1 1.4 -1.7
v 0.2 1.4 -1.7
v -0.2 1.4 -1.9
v -0.0999999 1.4 -1.9
v 0.1 1.4 -1.9
v 0.2 1.4 -1.9
v -2 1.4 -2.1
v -0.0999999 1.4 -2.1
v 0.1 1.4 -2.1
v 2 1.4 -2.1
v -0.6 1.5 -0.8
v -0.4 1.5 -0.8
v 0.4 1.5 -0.8
v 0.6 1.5 -0.8
v -0.6 1.5 -0.9
v -0.4 1.5 -0.9
v 0.4 1.5 -0.9
v 0.6 1.5 -0.9
v -0.6 1.9 -0.7
v -0.5 1.9 -0.7
v 0.5 1.9 -0.7
v 0.6 1.9 -0.7
v -0.6 1.9 -0.8
v -0.5 1.9 -0.8
v 0.5 1.9 -0.8
v 0.6 1.9 -0.8
v -0.5 2 -0.7
v -0.4 2 -0.7
v 0.4 2 -0.7
v 0.5 2 -0.7
v -0.5 2 -0.8
v -0.4 2 -0.8
v 0.4 2 -0.8
v 0.5 2 -0.8
v -0.6 2.1 -0.8
v -0.4 2.1 -0.8
v 0.4 2.1 -0.8
v 0.6 2.1 -0.8
v -0.5 2.1 -0.9
v -0.4 2.1 -0.9
v 0.4 2.1 -0.9
v 0.5 2.1 -0.9
v -0.6 2.1 -1
v -0.5 2.1 -1
v 0.5 2.1 -1
v 0.6 2.1 -1
v -0.5 2.2 -0.9
v -0.4 2.2 -0.9
v 0.4 2.2 -0.9
v 0.5 2.2 -0.9
v -0.5 2.2 -1
v -0.4 2.2 -1
v 0.4 2.2 -1
v 0.5 2.2 -1
v -0.0999999 2.3 -1.7
v 0.1 2.3 -1.7
v -0.0999999 2.3 -1.9
v 0.1 2.3 -1.9
v -0.0999999 2.4 -1.6
v 0.1 2.4 -1.6
v -0.2 2.4 -1.7
v -0.0999999 2.4 -1.7
v 0.1 2.4 -1.7
v 0.2 2.4 -1.7
v -0.2 2.4 -1.9
v -0.0999999 2.4 -1.9
v 0.1 2.4 -1.9
v 0.2 2.4 -1.9
v -0.0999999 2.4 -2
v 0.1 2.4 -2
v -1 2.5 -1.2
v 1 2.5 -1.2
v -0.0999999 2.5 -1.6
v 0.1 2.5 -1.6
v -0.2 2.5 -1.7
v -0.0999999 2.5 -1.7
v 0.1 2.5 -1.7
v 0.2 2.5 -1.7
v -0.2 2.5 -1.9
v -0.0999999 2.5 -1.9
v 0.1 2.5 -1.9
v 0.2 2.5 -1.9
v -0.0999999 2.5 -2
v 0.1 2.5 -2
v -1 2.5 -2.2
v 1 2.5 -2.2
v -1.1 2.6 -1.2
v -1 2.6 -1.2
v 1 2.6 -1.2
v 1.1 2.6 -1.2
v -1 2.6 -2.2
v 1 2.6 -2.2
v -1.1 2.6 -2.3
v 1.1 2.6 -2.3
v -1.2 2.7 -1.2
v -1.1 2.7 -1.2
v 1.1 2.7 -1.2
v 1.2 2.7 -1.2
v -1.1 2.7 -2.3
v 1.1 2.7 -2.3
v -1.2 2.7 -2.4
v 1.2 2.7 -2.4
v -2.1 3 -0.8
v 2.1 3 -0.8
v -2.3 3 -0.9
v -2.1 3 -0.9
v 2.1 3 -0.9
v 2.3 3 -0.9
v -2.4 3 -1.1
v -2.3 3 -1.1
v 2.3 3 -1.1
v 2.4 3 -1.1
v -1.2 3 -1.2
v 1.2 3 -1.2
v -1.2 3 -2.4
v 1.2 3 -2.4
v -1 3 -2.7
v -0.9 3 -2.7
v -0.7 3 -2.7
v -0.6 3 -2.7
v -0.0999999 3 -2.7
v 0.1 3 -2.7
v 0.6 3 -2.7
v 0.7 3 -2.7
v 0.9 3 -2.7
v 1 3 -2.7
v -0.2 3 -2.8
v -0.0999999 3 -2.8
v 0.1 3 -2.8
v 0.2 3 -2.8
v -1 3 -2.9
v -0.6 3 -2.9
v -0.2 3 -2.9
v 0.2 3 -2.9
v 0.6 3 -2.9
v 1 3 -2.9
v -2.4 3 -3
v 2.4 3 -3
v -1 3.1 -2.7
v -0.9 3.1 -2.7
v -0.7 3.1 -2.7
v -0.6 3.1 -2.7
v 0.6 3.1 -2.7
v 0.7 3.1 -2.7
v 0.9 3.1 -2.7
v 1 3.1 -2.7
v -1 3.1 -2.9
v -0.9 3.1 -2.9
v -0.7 3.1 -2.9
v -0.6 3.1 -2.9
v 0.6 3.1 -2.9
v 0.7 3.1 -2.9
v 0.9 3.1 -2.9
v 1 3.1 -2.9
v -2.4 3.3 -3
v -2.3 3.3 -3
v 2.3 3.3 -3
v 2.4 3.3 -3
v -2.4 3.3 -3.2
v -2.3 3.3 -3.2
v 2.3 3.3 -3.2
v 2.4 3.3 -3.2
v -1.1 3.4 -2.7
v -0.7 3.4 -2.7
v 0.7 3.4 -2.7
v 1.1 3.4 -2.7
v -1.1 3.4 -2.9
v -0.7 3.4 -2.9
v 0.7 3.4 -2.9
v 1.1 3.4 -2.9
v -2.3 3.4 -3
v 2.3 3.4 -3
v -2.3 3.4 -3.2
v 2.3 3.4 -3.2
v -0.0999999 3.5 -2.1
v 0.1 3.5 -2.1
v -0.2 3.5 -2.2
v -0.0999999 3.5 -2.2
v 0.1 3.5 -2.2
v 0.2 3.5 -2.2
v -0.2 3.5 -2.9
v -0.0999999 3.5 -2.9
v 0.1 3.5 -2.9
v 0.2 3.5 -2.9
v -0.0999999 3.6 -2.2
v 0.1 3.6 -2.2
v -0.0999999 3.6 -2.9
v 0.1 3.6 -2.9

# faces
f 3/1/1 2/1/1 1/1/1
f 4/1/1 2/1/1 3/1/1
f 5/1/1 2/1/1 4/1/1
f 6/1/1 2/1/1 5/1/1
f 9/1/1 8/1/1 7/1/1
f 10/1/1 8/1/1 9/1/1
f 13/1/1 12/1/1 11/1/1
f 14/1/1 12/1/1 13/1/1
f 17/3/1 16/3/1 15/3/1
f 18/3/1 16/3/1 17/3/1
f 25/3/1 20/3/1 19/3/1
f 26/3/1 20/3/1 25/3/1
f 27/3/1 22/3/1 21/3/1
f 28/3/1 22/3/1 27/3/1
f 29/1/1 24/1/1 23/1/1
f 30/1/1 24/1/1 29/1/1
f 33/4/1 32/4/1 31/4/1
f 34/4/1 32/4/1 33/4/1
f 37/4/1 36/4/1 35/4/1
f 38/4/1 36/4/1 37/4/1
f 41/4/1 40/4/1 39/4/1
f 42/4/1 40/4/1 41/4/1
f 45/2/1 44/2/1 43/2/1
f 46/2/1 44/2/1 45/2/1
f 48/2/1 45/2/1 43/2/1
f 49/2/1 45/2/1 48/2/1
f 50/2/1 48/2/1 47/2/1
f 51/2/1 48/2/1 50/2/1
f 53/2/1 52/2/1 51/2/1
f 55/2/1 53/2/1 51/2/1
f 55/2/1 54/2/1 53/2/1
f 56/2/1 54/2/1 55/2/1
f 59/2/1 58/2/1 57/2/1
f 60/2/1 58/2/1 59/2/1
f 63/2/1 62/2/1 61/2/1
f 64/2/1 62/2/1 63/2/1
f 67/2/1 66/2/1 65/2/1
f 68/2/1 66/2/1 67/2/1
f 71/2/1 70/2/1 69/2/1
f 72/2/1 70/2/1 71/2/1
f 76/4/1 74/4/1 73/4/1
f 78/4/1 76/4/1 75/4/1
f 79/4/1 74/4/1 76/4/1
f 79/4/1 76/4/1 78/4/1
f 80/4/1 74/4/1 79/4/1
f 81/4/1 78/4/1 77/4/1
f 81/4/1 79/4/1 78/4/1
f 82/4/1 79/4/1 81/4/1
f 83/4/1 81/4/1 77/4/1
f 84/4/1 81/4/1 83/4/1
f 88/4/1 86/4/1 85/4/1
f 89/4/1 86/4/1 88/4/1
f 91/4/1 89/4/1 88/4/1
f 91/4/1 90/4/1 89/4/1
f 91/4/1 88/4/1 87/4/1
f 92/4/1 90/4/1 91/4/1
f 96/4/1 94/4/1 93/4/1
f 97/4/1 96/4/1 95/4/1
f 98/4/1 94/4/1 96/4/1
f 98/4/1 96/4/1 97/4/1
f 101/3/1 100/3/1 99/3/1
f 102/3/1 100/3/1 101/3/1
f 103/3/1 101/3/1 99/3/1
f 104/3/1 101/3/1 103/3/1
f 105/3/1 103/3/1 99/3/1
f 106/3/1 103/3/1 105/3/1
f 110/3/1 108/3/1 107/3/1
f 111/3/1 105/3/1 99/3/1
f 112/3/1 105/3/1 111/3/1
f 113/3/1 110/3/1 109/3/1
f 114/3/1 108/3/1 110/3/1
f 114/3/1 110/3/1 113/3/1
f 115/3/1 111/3/1 99/3/1
f 119/3/1 116/3/1 115/3/1
f 120/3/1 116/3/1 119/3/1
f 121/3/1 118/3/1 117/3/1
f 122/3/1 118/3/1 121/3/1
f 123/3/1 115/3/1 99/3/1
f 123/3/1 119/3/1 115/3/1
f 124/3/1 119/3/1 123/3/1
f 125/3/1 118/3/1 122/3/1
f 126/3/1 118/3/1 125/3/1
f 131/4/1 128/4/1 127/4/1
f 132/4/1 128/4/1 131/4/1
f 133/4/1 130/4/1 129/4/1
f 134/4/1 130/4/1 133/4/1
f 136/4/1 135/4/1 134/4/1
f 137/4/1 135/4/1 136/4/1
f 143/4/1 141/4/1 140/4/1
f 144/4/1 141/4/1 143/4/1
f 146/3/1 139/3/1 138/3/1
f 147/3/1 139/3/1 146/3/1
f 148/1/1 143/1/1 142/1/1
f 149/1/1 143/1/1 148/1/1
f 150/1/1 145/1/1 144/1/1
f 151/1/1 145/1/1 150/1/1
f 154/1/1 153/1/1 152/1/1
f 155/1/1 153/1/1 154/1/1
f 159/2/1 157/2/1 156/2/1
f 161/2/1 159/2/1 158/2/1
f 162/2/1 157/2/1 159/2/1
f 162/2/1 159/2/1 161/2/1
f 163/2/1 157/2/1 162/2/1
f 164/2/1 161/2/1 160/2/1
f 164/2/1 162/2/1 161/2/1
f 165/2/1 162/2/1 164/2/1
f 166/2/1 164/2/1 160/2/1
f 168/2/1 166/2/1 160/2/1
f 168/2/1 167/2/1 166/2/1
f 169/2/1 167/2/1 168/2/1
f 170/2/1 167/2/1 169/2/1
f 172/2/1 170/2/1 169/2/1
f 172/2/1 171/2/1 170/2/1
f 173/2/1 171/2/1 172/2/1
f 174/2/1 171/2/1 173/2/1
f 175/2/1 171/2/1 174/2/1
f 178/4/1 177/4/1 176/4/1
f 179/4/1 177/4/1 178/4/1
f 182/4/1 181/4/1 180/4/1
f 183/4/1 181/4/1 182/4/1
f 186/1/1 185/1/1 184/1/1
f 187/1/1 185/1/1 186/1/1
f 190/1/1 189/1/1 188/1/1
f 191/1/1 189/1/1 190/1/1
f 194/1/1 193/1/1 192/1/1
f 195/1/1 193/1/1 194/1/1
f 198/3/1 197/3/1 196/3/1
f 199/3/1 197/3/1 198/3/1
f 200/3/1 198/3/1 196/3/1
f 202/3/1 200/3/1 196/3/1
f 202/3/1 201/3/1 200/3/1
f 203/3/1 201/3/1 202/3/1
f 204/3/2 205/3/2 206/3/2
f 206/3/2 205/3/2 207/3/2
f 204/3/2 206/3/2 208/3/2
f 204/3/2 208/3/2 210/3/2
f 208/3/2 209/3/2 210/3/2
f 210/3/2 209/3/2 211/3/2
f 212/1/2 213/1/2 214/1/2
f 214/1/2 213/1/2 215/1/2
f 216/1/2 217/1/2 218/1/2
f 218/1/2 217/1/2 219/1/2
f 220/1/2 221/1/2 222/1/2
f 222/1/2 221/1/2 223/1/2
f 224/4/2 225/4/2 226/4/2
f 226/4/2 225/4/2 227/4/2
f 228/4/2 229/4/2 230/4/2
f 230/4/2 229/4/2 231/4/2
f 232/2/2 233/2/2 235/2/2
f 234/2/2 235/2/2 237/2/2
f 235/2/2 233/2/2 238/2/2
f 237/2/2 235/2/2 238/2/2
f 238/2/2 233/2/2 239/2/2
f 236/2/2 237/2/2 240/2/2
f 237/2/2 238/2/2 240/2/2
f 240/2/2 238/2/2 241/2/2
f 236/2/2 240/2/2 242/2/2
f 236/2/2 242/2/2 244/2/2
f 242/2/2 243/2/2 244/2/2
f 244/2/2 243/2/2 245/2/2
f 245/2/2 243/2/2 246/2/2
f 245/2/2 246/2/2 248/2/2
f 246/2/2 247/2/2 248/2/2
f 248/2/2 247/2/2 249/2/2
f 249/2/2 247/2/2 250/2/2
f 250/2/2 247/2/2 251/2/2
f 252/1/2 253/1/2 254/1/2
f 254/1/2 253/1/2 255/1/2
f 258/4/2 259/4/2 261/4/2
f 261/4/2 259/4/2 262/4/2
f 256/3/2 257/3/2 264/3/2
f 264/3/2 257/3/2 265/3/2
f 260/1/2 261/1/2 266/1/2
f 266/1/2 261/1/2 267/1/2
f 262/1/2 263/1/2 268/1/2
f 268/1/2 263/1/2 269/1/2
f 270/3/2 271/3/2 272/3/2
f 272/3/2 271/3/2 273/3/2
f 270/3/2 272/3/2 274/3/2
f 274/3/2 272/3/2 275/3/2
f 270/3/2 274/3/2 276/3/2
f 276/3/2 274/3/2 277/3/2
f 278/3/2 279/3/2 281/3/2
f 270/3/2 276/3/2 282/3/2
f 282/3/2 276/3/2 283/3/2
f 280/3/2 281/3/2 284/3/2
f 281/3/2 279/3/2 285/3/2
f 284/3/2 281/3/2 285/3/2
f 270/3/2 282/3/2 286/3/2
f 286/3/2 287/3/2 290/3/2
f 290/3/2 287/3/2 291/3/2
f 288/3/2 289/3/2 292/3/2
f 292/3/2 289/3/2 293/3/2
f 270/3/2 286/3/2 294/3/2
f 286/3/2 290/3/2 294/3/2
f 294/3/2 290/3/2 295/3/2
f 293/3/2 289/3/2 296/3/2
f 296/3/2 289/3/2 297/3/2
f 298/4/2 299/4/2 302/4/2
f 302/4/2 299/4/2 303/4/2
f 300/4/2 301/4/2 304/4/2
f 304/4/2 301/4/2 305/4/2
f 305/4/2 306/4/2 307/4/2
f 307/4/2 306/4/2 308/4/2
f 309/4/2 310/4/2 312/4/2
f 311/4/2 312/4/2 314/4/2
f 312/4/2 310/4/2 315/4/2
f 314/4/2 312/4/2 315/4/2
f 315/4/2 310/4/2 316/4/2
f 313/4/2 314/4/2 317/4/2
f 314/4/2 315/4/2 317/4/2
f 317/4/2 315/4/2 318/4/2
f 313/4/2 317/4/2 319/4/2
f 319/4/2 317/4/2 320/4/2
f 321/4/2 322/4/2 324/4/2
f 324/4/2 322/4/2 325/4/2
f 324/4/2 325/4/2 327/4/2
f 325/4/2 326/4/2 327/4/2
f 323/4/2 324/4/2 327/4/2
f 327/4/2 326/4/2 328/4/2
f 329/4/2 330/4/2 332/4/2
f 331/4/2 332/4/2 333/4/2
f 332/4/2 330/4/2 334/4/2
f 333/4/2 332/4/2 334/4/2
f 335/2/2 336/2/2 337/2/2
f 337/2/2 336/2/2 338/2/2
f 339/2/2 340/2/2 341/2/2
f 341/2/2 340/2/2 342/2/2
f 343/2/2 344/2/2 345/2/2
f 345/2/2 344/2/2 346/2/2
f 347/2/2 348/2/2 349/2/2
f 349/2/2 348/2/2 350/2/2
f 351/2/2 352/2/2 353/2/2
f 353/2/2 352/2/2 354/2/2
f 351/2/2 353/2/2 356/2/2
f 356/2/2 353/2/2 357/2/2
f 355/2/2 356/2/2 358/2/2
f 358/2/2 356/2/2 359/2/2
f 359/2/2 360/2/2 361/2/2
f 359/2/2 361/2/2 363/2/2
f 361/2/2 362/2/2 363/2/2
f 363/2/2 362/2/2 364/2/2
f 365/4/2 366/4/2 367/4/2
f 367/4/2 366/4/2 368/4/2
f 369/4/2 370/4/2 371/4/2
f 371/4/2 370/4/2 372/4/2
f 373/4/2 374/4/2 375/4/2
f 375/4/2 374/4/2 376/4/2
f 377/3/2 378/3/2 383/3/2
f 383/3/2 378/3/2 384/3/2
f 379/3/2 380/3/2 385/3/2
f 385/3/2 380/3/2 386/3/2
f 381/1/2 382/1/2 387/1/2
f 387/1/2 382/1/2 388/1/2
f 389/3/2 390/3/2 391/3/2
f 391/3/2 390/3/2 392/3/2
f 393/1/2 394/1/2 395/1/2
f 395/1/2 394/1/2 396/1/2
f 397/1/2 398/1/2 399/1/2
f 399/1/2 398/1/2 400/1/2
f 401/1/2 402/1/2 403/1/2
f 403/1/2 402/1/2 404/1/2
f 404/1/2 402/1/2 405/1/2
f 405/1/2 402/1/2 406/1/2
f 410/2/3 408/2/3 407/2/3
f 411/2/3 408/2/3 410/2/3
f 413/2/3 410/2/3 409/2/3
f 413/2/3 412/2/3 411/2/3
f 413/2/3 411/2/3 410/2/3
f 414/2/3 412/2/3 413/2/3
f 417/2/3 416/2/3 415/2/3
f 418/2/3 416/2/3 417/2/3
f 419/2/3 416/2/3 418/2/3
f 420/2/3 416/2/3 419/2/3
f 421/2/3 419/2/3 418/2/3
f 422/2/3 419/2/3 421/2/3
f 429/2/3 426/2/3 425/2/3
f 430/2/3 426/2/3 429/2/3
f 431/2/3 428/2/3 427/2/3
f 432/2/3 428/2/3 431/2/3
f 433/2/3 429/2/3 425/2/3
f 434/2/3 429/2/3 433/2/3
f 435/2/3 428/2/3 432/2/3
f 436/2/3 428/2/3 435/2/3
f 441/2/3 438/2/3 437/2/3
f 444/2/3 440/2/3 439/2/3
f 445/2/3 442/2/3 441/2/3
f 445/2/3 441/2/3 437/2/3
f 446/2/3 442/2/3 445/2/3
f 447/2/3 444/2/3 443/2/3
f 448/2/3 440/2/3 444/2/3
f 448/2/3 444/2/3 447/2/3
f 449/1/3 424/1/3 423/1/3
f 450/1/3 424/1/3 449/1/3
f 453/1/3 452/1/3 451/1/3
f 454/1/3 452/1/3 453/1/3
f 459/2/3 456/2/3 455/2/3
f 460/2/3 456/2/3 459/2/3
f 461/2/3 458/2/3 457/2/3
f 462/2/3 458/2/3 461/2/3
f 467/2/3 464/2/3 463/2/3
f 468/2/3 464/2/3 467/2/3
f 469/2/3 466/2/3 465/2/3
f 470/2/3 466/2/3 469/2/3
f 473/1/3 472/1/3 471/1/3
f 474/1/3 472/1/3 473/1/3
f 477/3/3 476/3/3 475/3/3
f 478/3/3 476/3/3 477/3/3
f 479/3/3 476/3/3 478/3/3
f 480/3/3 476/3/3 479/3/3
f 481/3/3 477/3/3 475/3/3
f 482/3/3 477/3/3 481/3/3
f 483/3/3 476/3/3 480/3/3
f 484/3/3 476/3/3 483/3/3
f 485/3/3 481/3/3 475/3/3
f 486/3/3 479/3/3 478/3/3
f 487/3/3 479/3/3 486/3/3
f 488/3/3 476/3/3 484/3/3
f 489/3/3 487/3/3 486/3/3
f 489/3/3 488/3/3 487/3/3
f 489/3/3 485/3/3 475/3/3
f 489/3/3 486/3/3 485/3/3
f 490/3/3 476/3/3 488/3/3
f 490/3/3 488/3/3 489/3/3
f 493/3/3 492/3/3 491/3/3
f 494/3/3 492/3/3 493/3/3
f 495/3/3 492/3/3 494/3/3
f 496/3/3 492/3/3 495/3/3
f 497/3/3 493/3/3 491/3/3
f 500/3/3 492/3/3 496/3/3
f 501/3/3 498/3/3 497/3/3
f 502/3/3 495/3/3 494/3/3
f 503/3/3 495/3/3 502/3/3
f 504/3/3 500/3/3 499/3/3
f 505/3/3 503/3/3 502/3/3
f 505/3/3 504/3/3 503/3/3
f 505/3/3 501/3/3 497/3/3
f 505/3/3 497/3/3 491/3/3
f 505/3/3 502/3/3 501/3/3
f 506/3/3 500/3/3 504/3/3
f 506/3/3 504/3/3 505/3/3
f 506/3/3 492/3/3 500/3/3
f 509/1/3 508/1/3 507/1/3
f 510/1/3 508/1/3 509/1/3
f 513/3/3 512/3/3 511/3/3
f 514/3/3 512/3/3 513/3/3
f 517/3/3 516/3/3 515/3/3
f 518/3/3 516/3/3 517/3/3
f 521/3/3 520/3/3 519/3/3
f 522/3/3 520/3/3 521/3/3
f 525/1/3 524/1/3 523/1/3
f 526/1/3 524/1/3 525/1/3
f 529/3/3 528/3/3 527/3/3
f 530/3/3 528/3/3 529/3/3
f 533/3/3 532/3/3 531/3/3
f 534/3/3 532/3/3 533/3/3
f 537/4/3 536/4/3 535/4/3
f 538/4/3 536/4/3 537/4/3
f 541/4/3 540/4/3 539/4/3
f 542/4/3 540/4/3 541/4/3
f 547/4/3 544/4/3 543/4/3
f 548/4/3 544/4/3 547/4/3
f 549/4/3 546/4/3 545/4/3
f 550/4/3 546/4/3 549/4/3
f 555/4/3 552/4/3 551/4/3
f 556/4/3 552/4/3 555/4/3
f 557/4/3 554/4/3 553/4/3
f 558/4/3 554/4/3 557/4/3
f 561/4/3 560/4/3 559/4/3
f 562/4/3 560/4/3 561/4/3
f 565/4/3 564/4/3 563/4/3
f 566/4/3 564/4/3 565/4/3
f 571/4/3 568/4/3 567/4/3
f 572/4/3 568/4/3 571/4/3
f 574/1/3 570/1/3 569/1/3
f 575/1/3 570/1/3 574/1/3
f 578/4/3 574/4/3 573/4/3
f 579/4/3 574/4/3 578/4/3
f 581/4/3 577/4/3 576/4/3
f 582/4/3 577/4/3 581/4/3
f 583/1/3 580/1/3 579/1/3
f 584/1/3 580/1/3 583/1/3
f 587/1/3 586/1/3 585/1/3
f 588/1/3 586/1/3 587/1/3
f 593/3/3 590/3/3 589/3/3
f 594/3/3 590/3/3 593/3/3
f 595/3/3 593/3/3 589/3/3
f 596/3/3 593/3/3 595/3/3
f 597/3/3 590/3/3 594/3/3
f 598/3/3 590/3/3 597/3/3
f 599/3/3 592/3/3 591/3/3
f 600/3/3 592/3/3 599/3/3
f 609/4/3 602/4/3 601/4/3
f 610/4/3 602/4/3 609/4/3
f 611/3/3 604/3/3 603/3/3
f 612/3/3 606/3/3 605/3/3
f 613/3/3 611/3/3 603/3/3
f 613/3/3 612/3/3 611/3/3
f 614/3/3 606/3/3 612/3/3
f 614/3/3 612/3/3 613/3/3
f 615/3/3 608/3/3 607/3/3
f 616/3/3 608/3/3 615/3/3
f 621/4/3 620/4/3 619/4/3
f 622/4/3 620/4/3 621/4/3
f 625/4/3 623/4/3 622/4/3
f 626/4/3 623/4/3 625/4/3
f 627/4/3 625/4/3 624/4/3
f 628/4/3 625/4/3 627/4/3
f 629/1/3 618/1/3 617/1/3
f 630/1/3 618/1/3 629/1/3
f 633/1/3 632/1/3 631/1/3
f 634/1/3 632/1/3 633/1/3
f 637/1/3 636/1/3 635/1/3
f 638/1/3 636/1/3 637/1/3
f 643/4/3 642/4/3 641/4/3
f 644/4/3 642/4/3 643/4/3
f 645/4/3 640/4/3 639/4/3
f 646/5/3 644/5/3 643/5/3
f 647/4/3 645/4/3 644/4/3
f 647/5/3 644/5/3 646/5/3
f 648/4/3 640/4/3 645/4/3
f 648/4/3 645/4/3 647/4/3
f 649/4/3 647/4/3 646/4/3
f 650/4/3 647/4/3 649/4/3
f 653/4/3 652/4/3 651/4/3
f 654/4/3 652/4/3 653/4/3
f 657/4/3 656/4/3 655/4/3
f 658/4/3 656/4/3 657/4/3
f 660/6/3 658/6/3 657/6/3
f 661/4/3 659/4/3 658/4/3
f 661/6/3 658/6/3 660/6/3
f 662/4/3 659/4/3 661/4/3
f 663/4/3 661/4/3 660/4/3
f 664/4/3 661/4/3 663/4/3
f 665/4/3 659/4/3 662/4/3
f 666/4/3 659/4/3 665/4/3
f 669/4/3 668/4/3 667/4/3
f 670/4/3 668/4/3 669/4/3
f 673/4/3 672/4/3 671/4/3
f 674/4/3 672/4/3 673/4/3
f 677/1/3 676/1/3 675/1/3
f 679/1/3 677/1/3 675/1/3
f 679/1/3 678/1/3 677/1/3
f 680/1/3 678/1/3 679/1/3
f 681/1/3 679/1/3 675/1/3
f 682/1/3 679/1/3 681/1/3
f 683/2/4 684/2/4 685/2/4
f 685/2/4 684/2/4 686/2/4
f 687/2/4 688/2/4 689/2/4
f 689/2/4 688/2/4 690/2/4
f 691/2/4 692/2/4 695/2/4
f 695/2/4 692/2/4 696/2/4
f 693/2/4 694/2/4 697/2/4
f 697/2/4 694/2/4 698/2/4
f 699/2/4 700/2/4 703/2/4
f 703/2/4 700/2/4 704/2/4
f 701/2/4 702/2/4 705/2/4
f 705/2/4 702/2/4 706/2/4
f 707/3/4 708/3/4 709/3/4
f 709/3/4 708/3/4 710/3/4
f 711/3/4 712/3/4 713/3/4
f 713/3/4 712/3/4 714/3/4
f 715/1/4 716/1/4 718/1/4
f 717/1/4 718/1/4 720/1/4
f 719/1/4 720/1/4 721/1/4
f 720/1/4 718/1/4 722/1/4
f 721/1/4 720/1/4 722/1/4
f 722/1/4 718/1/4 723/1/4
f 718/1/4 716/1/4 724/1/4
f 723/1/4 718/1/4 724/1/4
f 724/1/4 716/1/4 725/1/4
f 725/1/4 716/1/4 726/1/4
f 727/1/4 728/1/4 729/1/4
f 729/1/4 728/1/4 730/1/4
f 731/1/4 732/1/4 734/1/4
f 734/1/4 732/1/4 735/1/4
f 733/4/4 734/4/4 736/4/4
f 736/4/4 734/4/4 737/4/4
f 737/1/4 738/1/4 739/1/4
f 739/1/4 738/1/4 740/1/4
f 741/4/4 742/4/4 745/4/4
f 745/4/4 742/4/4 746/4/4
f 743/4/4 744/4/4 747/4/4
f 747/4/4 744/4/4 748/4/4
f 749/4/4 750/4/4 753/4/4
f 753/4/4 750/4/4 754/4/4
f 751/4/4 752/4/4 755/4/4
f 755/4/4 752/4/4 756/4/4
f 757/4/4 758/4/4 761/4/4
f 761/4/4 758/4/4 762/4/4
f 759/4/4 760/4/4 763/4/4
f 763/4/4 760/4/4 764/4/4
f 765/4/4 766/4/4 769/4/4
f 769/4/4 766/4/4 770/4/4
f 767/4/4 768/4/4 771/4/4
f 771/4/4 768/4/4 772/4/4
f 773/3/4 774/3/4 775/3/4
f 775/3/4 774/3/4 776/3/4
f 779/4/4 780/4/4 781/4/4
f 777/4/4 778/4/4 782/4/4
f 779/4/4 781/4/4 783/4/4
f 781/4/4 782/4/4 783/4/4
f 782/4/4 778/4/4 784/4/4
f 783/4/4 782/4/4 784/4/4
f 779/4/4 783/4/4 785/4/4
f 785/4/4 783/4/4 786/4/4
f 787/4/4 788/4/4 789/4/4
f 787/4/4 789/4/4 791/4/4
f 789/4/4 790/4/4 791/4/4
f 791/4/4 790/4/4 792/4/4
f 787/4/4 791/4/4 793/4/4
f 793/4/4 791/4/4 794/4/4
f 795/4/4 796/4/4 797/4/4
f 795/4/4 797/4/4 799/4/4
f 797/4/4 798/4/4 799/4/4
f 799/4/4 798/4/4 800/4/4
f 795/4/4 799/4/4 801/4/4
f 801/4/4 799/4/4 802/4/4
f 800/4/4 798/4/4 803/4/4
f 803/4/4 798/4/4 804/4/4
f 805/3/4 806/3/4 807/3/4
f 807/3/4 806/3/4 808/3/4
f 809/3/4 810/3/4 811/3/4
f 811/3/4 810/3/4 812/3/4
f 813/1/4 814/1/4 815/1/4
f 813/1/4 815/1/4 817/1/4
f 815/1/4 816/1/4 817/1/4
f 817/1/4 816/1/4 818/1/4
f 813/1/4 817/1/4 819/1/4
f 819/1/4 817/1/4 820/1/4
f 826/3/5 822/3/5 821/3/5
f 827/3/5 822/3/5 826/3/5
f 828/3/5 824/3/5 823/3/5
f 829/3/5 824/3/5 828/3/5
f 831/3/5 827/3/5 826/3/5
f 831/3/5 830/3/5 829/3/5
f 831/3/5 829/3/5 828/3/5
f 831/3/5 828/3/5 827/3/5
f 831/3/5 826/3/5 825/3/5
f 832/3/5 830/3/5 831/3/5
f 833/3/5 830/3/5 832/3/5
f 834/3/5 830/3/5 833/3/5
f 835/3/5 833/3/5 832/3/5
f 836/3/5 833/3/5 835/3/5
f 841/4/5 838/4/5 837/4/5
f 842/4/5 838/4/5 841/4/5
f 843/4/5 840/4/5 839/4/5
f 844/4/5 840/4/5 843/4/5
f 849/4/5 846/4/5 845/4/5
f 850/4/5 846/4/5 849/4/5
f 851/4/5 848/4/5 847/4/5
f 852/4/5 848/4/5 851/4/5
f 857/4/5 854/4/5 853/4/5
f 858/4/5 854/4/5 857/4/5
f 859/4/5 856/4/5 855/4/5
f 860/4/5 856/4/5 859/4/5
f 865/3/5 862/3/5 861/3/5
f 866/3/5 862/3/5 865/3/5
f 867/3/5 864/3/5 863/3/5
f 868/3/5 864/3/5 867/3/5
f 869/3/5 865/3/5 861/3/5
f 872/3/5 864/3/5 868/3/5
f 873/3/5 870/3/5 869/3/5
f 873/3/5 869/3/5 861/3/5
f 874/3/5 870/3/5 873/3/5
f 875/3/5 872/3/5 871/3/5
f 876/3/5 864/3/5 872/3/5
f 876/3/5 872/3/5 875/3/5
f 881/2/5 878/2/5 877/2/5
f 882/2/5 878/2/5 881/2/5
f 883/2/5 880/2/5 879/2/5
f 884/2/5 880/2/5 883/2/5
f 889/2/5 886/2/5 885/2/5
f 890/2/5 886/2/5 889/2/5
f 891/2/5 888/2/5 887/2/5
f 892/2/5 888/2/5 891/2/5
f 893/2/5 889/2/5 885/2/5
f 894/2/5 889/2/5 893/2/5
f 895/2/5 888/2/5 892/2/5
f 896/2/5 888/2/5 895/2/5
f 901/2/5 898/2/5 897/2/5
f 902/2/5 898/2/5 901/2/5
f 903/2/5 900/2/5 899/2/5
f 904/2/5 900/2/5 903/2/5
f 909/2/5 906/2/5 905/2/5
f 910/2/5 906/2/5 909/2/5
f 911/2/5 908/2/5 907/2/5
f 912/2/5 908/2/5 911/2/5
f 917/2/5 914/2/5 913/2/5
f 918/2/5 914/2/5 917/2/5
f 919/2/5 916/2/5 915/2/5
f 920/2/5 916/2/5 919/2/5
f 925/2/5 922/2/5 921/2/5
f 926/2/5 922/2/5 925/2/5
f 927/2/5 924/2/5 923/2/5
f 928/2/5 924/2/5 927/2/5
f 933/4/5 930/4/5 929/4/5
f 934/4/5 930/4/5 933/4/5
f 935/4/5 932/4/5 931/4/5
f 936/4/5 932/4/5 935/4/5
f 941/4/5 938/4/5 937/4/5
f 942/4/5 938/4/5 941/4/5
f 943/4/5 940/4/5 939/4/5
f 944/4/5 940/4/5 943/4/5
f 949/3/5 946/3/5 945/3/5
f 950/3/5 946/3/5 949/3/5
f 951/3/5 948/3/5 947/3/5
f 952/3/5 948/3/5 951/3/5
f 953/3/5 949/3/5 945/3/5
f 956/3/5 948/3/5 952/3/5
f 957/3/5 954/3/5 953/3/5
f 957/3/5 953/3/5 945/3/5
f 958/3/5 954/3/5 957/3/5
f 959/3/5 956/3/5 955/3/5
f 960/3/5 948/3/5 956/3/5
f 960/3/5 956/3/5 959/3/5
f 964/1/5 962/1/5 961/1/5
f 965/1/5 962/1/5 964/1/5
f 967/1/5 964/1/5 963/1/5
f 967/1/5 966/1/5 965/1/5
f 967/1/5 965/1/5 964/1/5
f 968/1/5 966/1/5 967/1/5
f 969/1/5 966/1/5 968/1/5
f 970/1/5 966/1/5 969/1/5
f 972/1/5 967/1/5 963/1/5
f 973/1/5 967/1/5 972/1/5
f 974/1/5 967/1/5 973/1/5
f 975/1/5 969/1/5 968/1/5
f 976/1/5 969/1/5 975/1/5
f 977/1/5 966/1/5 970/1/5
f 978/1/5 966/1/5 977/1/5
f 979/1/5 966/1/5 978/1/5
f 981/1/5 972/1/5 971/1/5
f 981/1/5 973/1/5 972/1/5
f 984/1/5 980/1/5 979/1/5
f 984/1/5 979/1/5 978/1/5
f 985/1/5 982/1/5 981/1/5
f 986/1/5 984/1/5 983/1/5
f 987/1/5 985/1/5 981/1/5
f 987/1/5 986/1/5 985/1/5
f 987/1/5 981/1/5 971/1/5
f 988/1/5 984/1/5 986/1/5
f 988/1/5 986/1/5 987/1/5
f 988/1/5 980/1/5 984/1/5
f 993/4/5 990/4/5 989/4/5
f 994/4/5 990/4/5 993/4/5
f 995/4/5 992/4/5 991/4/5
f 996/4/5 992/4/5 995/4/5
f 1000/4/5 998/4/5 997/4/5
f 1001/4/5 998/4/5 1000/4/5
f 1003/4/5 1000/4/5 999/4/5
f 1003/4/5 1002/4/5 1001/4/5
f 1003/4/5 1001/4/5 1000/4/5
f 1004/4/5 1002/4/5 1003/4/5
f 1005/4/5 1003/4/5 999/4/5
f 1006/4/5 1003/4/5 1005/4/5
f 1007/4/5 1002/4/5 1004/4/5
f 1008/4/5 1002/4/5 1007/4/5
f 1009/3/6 1010/3/6 1013/3/6
f 1013/3/6 1010/3/6 1014/3/6
f 1011/3/6 1012/3/6 1015/3/6
f 1015/3/6 1012/3/6 1016/3/6
f 1017/4/6 1018/4/6 1021/4/6
f 1021/4/6 1018/4/6 1022/4/6
f 1019/4/6 1020/4/6 1023/4/6
f 1023/4/6 1020/4/6 1024/4/6
f 1025/4/6 1026/4/6 1029/4/6
f 1029/4/6 1026/4/6 1030/4/6
f 1027/4/6 1028/4/6 1031/4/6
f 1031/4/6 1028/4/6 1032/4/6
f 1033/2/6 1034/2/6 1037/2/6
f 1037/2/6 1034/2/6 1038/2/6
f 1035/2/6 1036/2/6 1039/2/6
f 1039/2/6 1036/2/6 1040/2/6
f 1041/3/6 1042/3/6 1045/3/6
f 1045/3/6 1042/3/6 1046/3/6
f 1043/3/6 1044/3/6 1047/3/6
f 1047/3/6 1044/3/6 1048/3/6
f 1041/3/6 1045/3/6 1049/3/6
f 1048/3/6 1044/3/6 1052/3/6
f 1049/3/6 1050/3/6 1053/3/6
f 1041/3/6 1049/3/6 1053/3/6
f 1053/3/6 1050/3/6 1054/3/6
f 1051/3/6 1052/3/6 1055/3/6
f 1052/3/6 1044/3/6 1056/3/6
f 1055/3/6 1052/3/6 1056/3/6
f 1057/2/6 1058/2/6 1061/2/6
f 1061/2/6 1058/2/6 1062/2/6
f 1059/2/6 1060/2/6 1063/2/6
f 1063/2/6 1060/2/6 1064/2/6
f 1065/2/6 1066/2/6 1069/2/6
f 1069/2/6 1066/2/6 1070/2/6
f 1067/2/6 1068/2/6 1071/2/6
f 1071/2/6 1068/2/6 1072/2/6
f 1073/2/6 1074/2/6 1077/2/6
f 1077/2/6 1074/2/6 1078/2/6
f 1075/2/6 1076/2/6 1079/2/6
f 1079/2/6 1076/2/6 1080/2/6
f 1081/2/6 1082/2/6 1085/2/6
f 1085/2/6 1082/2/6 1086/2/6
f 1083/2/6 1084/2/6 1087/2/6
f 1087/2/6 1084/2/6 1088/2/6
f 1081/2/6 1085/2/6 1089/2/6
f 1089/2/6 1085/2/6 1090/2/6
f 1088/2/6 1084/2/6 1091/2/6
f 1091/2/6 1084/2/6 1092/2/6
f 1093/2/6 1094/2/6 1097/2/6
f 1097/2/6 1094/2/6 1098/2/6
f 1095/2/6 1096/2/6 1099/2/6
f 1099/2/6 1096/2/6 1100/2/6
f 1101/4/6 1102/4/6 1103/4/6
f 1103/4/6 1102/4/6 1104/4/6
f 1105/4/6 1106/4/6 1108/4/6
f 1108/4/6 1106/4/6 1109/4/6
f 1107/4/6 1108/4/6 1111/4/6
f 1111/4/6 1108/4/6 1112/4/6
f 1109/4/6 1110/4/6 1113/4/6
f 1113/4/6 1110/4/6 1114/4/6
f 1112/4/6 1113/4/6 1115/4/6
f 1115/4/6 1113/4/6 1116/4/6
f 1117/1/6 1118/1/6 1119/1/6
f 1119/1/6 1118/1/6 1120/1/6
f 1117/1/6 1119/1/6 1121/1/6
f 1121/1/6 1119/1/6 1122/1/6
f 1120/1/6 1118/1/6 1123/1/6
f 1123/1/6 1118/1/6 1124/1/6
f 1117/1/6 1121/1/6 1125/1/6
f 1124/1/6 1118/1/6 1128/1/6
f 1125/1/6 1126/1/6 1129/1/6
f 1127/1/6 1128/1/6 1130/1/6
f 1125/1/6 1129/1/6 1131/1/6
f 1129/1/6 1130/1/6 1131/1/6
f 1117/1/6 1125/1/6 1131/1/6
f 1130/1/6 1128/1/6 1132/1/6
f 1131/1/6 1130/1/6 1132/1/6
f 1128/1/6 1118/1/6 1132/1/6
f 1133/1/6 1134/1/6 1137/1/6
f 1135/1/6 1136/1/6 1138/1/6
f 1133/1/6 1137/1/6 1139/1/6
f 1137/1/6 1138/1/6 1139/1/6
f 1138/1/6 1136/1/6 1140/1/6
f 1139/1/6 1138/1/6 1140/1/6
f 1141/1/6 1142/1/6 1145/1/6
f 1143/1/6 1144/1/6 1146/1/6
f 1141/1/6 1145/1/6 1147/1/6
f 1145/1/6 1146/1/6 1147/1/6
f 1146/1/6 1144/1/6 1148/1/6
f 1147/1/6 1146/1/6 1148/1/6
f 1149/1/6 1150/1/6 1152/1/6
f 1152/1/6 1150/1/6 1153/1/6
f 1151/1/6 1152/1/6 1156/1/6
f 1153/1/6 1154/1/6 1156/1/6
f 1152/1/6 1153/1/6 1156/1/6
f 1156/1/6 1154/1/6 1157/1/6
f 1155/1/6 1156/1/6 1159/1/6
f 1157/1/6 1158/1/6 1159/1/6
f 1156/1/6 1157/1/6 1159/1/6
f 1159/1/6 1158/1/6 1160/1/6
f 1155/1/6 1159/1/6 1161/1/6
f 1160/1/6 1158/1/6 1162/1/6
f 1161/1/6 1162/1/6 1163/1/6
f 1163/1/6 1162/1/6 1164/1/6
f 1164/1/6 1162/1/6 1165/1/6
f 1165/1/6 1162/1/6 1166/1/6
f 1166/1/6 1162/1/6 1167/1/6
f 1167/1/6 1162/1/6 1168/1/6
f 1168/1/6 1162/1/6 1169/1/6
f 1169/1/6 1162/1/6 1170/1/6
f 1170/1/6 1162/1/6 1171/1/6
f 1171/1/6 1162/1/6 1172/1/6
f 1166/1/6 1167/1/6 1173/1/6
f 1173/1/6 1167/1/6 1174/1/6
f 1168/1/6 1169/1/6 1175/1/6
f 1175/1/6 1169/1/6 1176/1/6
f 1161/1/6 1163/1/6 1177/1/6
f 1166/1/6 1173/1/6 1178/1/6
f 1178/1/6 1173/1/6 1179/1/6
f 1176/1/6 1169/1/6 1180/1/6
f 1180/1/6 1169/1/6 1181/1/6
f 1172/1/6 1162/1/6 1182/1/6
f 1155/1/6 1161/1/6 1183/1/6
f 1181/1/6 1182/1/6 1183/1/6
f 1178/1/6 1179/1/6 1183/1/6
f 1180/1/6 1181/1/6 1183/1/6
f 1179/1/6 1180/1/6 1183/1/6
f 1161/1/6 1177/1/6 1183/1/6
f 1177/1/6 1178/1/6 1183/1/6
f 1182/1/6 1162/1/6 1184/1/6
f 1183/1/6 1182/1/6 1184/1/6
f 1162/1/6 1158/1/6 1184/1/6
f 1185/4/6 1186/4/6 1193/4/6
f 1193/4/6 1186/4/6 1194/4/6
f 1187/4/6 1188/4/6 1195/4/6
f 1195/4/6 1188/4/6 1196/4/6
f 1189/4/6 1190/4/6 1197/4/6
f 1197/4/6 1190/4/6 1198/4/6
f 1191/4/6 1192/4/6 1199/4/6
f 1199/4/6 1192/4/6 1200/4/6
f 1201/1/6 1202/1/6 1205/1/6
f 1205/1/6 1202/1/6 1206/1/6
f 1203/1/6 1204/1/6 1207/1/6
f 1207/1/6 1204/1/6 1208/1/6
f 1209/4/6 1210/4/6 1213/4/6
f 1213/4/6 1210/4/6 1214/4/6
f 1211/4/6 1212/4/6 1215/4/6
f 1215/4/6 1212/4/6 1216/4/6
f 1217/1/6 1218/1/6 1219/1/6
f 1219/1/6 1218/1/6 1220/1/6
f 1221/4/6 1222/4/6 1224/4/6
f 1224/4/6 1222/4/6 1225/4/6
f 1223/4/6 1224/4/6 1227/4/6
f 1227/4/6 1224/4/6 1228/4/6
f 1225/4/6 1226/4/6 1229/4/6
f 1229/4/6 1226/4/6 1230/4/6
f 1231/4/6 1232/4/6 1233/4/6
f 1233/4/6 1232/4/6 1234/4/6
