# MagicaVoxel @ Ephtracy

# group
o 

# material
mtllib bathroom_mirror_frame.mtl
usemtl palette

# normals
vn -1 0 0
vn 1 0 0
vn 0 0 1
vn 0 0 -1
vn 0 -1 0
vn 0 1 0

# texcoords
vt 0.00585938 0.5
vt 0.00976562 0.5

# verts
v -1 1.6 -1.9
v -1 1.6 -2
v -1 4 -1.9
v -1 4 -2
v -0.9 1.7 -1.8
v -0.9 1.7 -1.9
v -0.9 3.9 -1.8
v -0.9 3.9 -1.9
v 0.4 1.8 -1.8
v 0.4 1.8 -1.9
v 0.4 1.8 -2
v 0.4 3.8 -1.8
v 0.4 3.8 -1.9
v 0.4 3.8 -2
v -0.8 1.8 -1.8
v -0.8 1.8 -1.9
v -0.8 1.8 -2
v -0.8 3.8 -1.8
v -0.8 3.8 -1.9
v -0.8 3.8 -2
v 0.5 1.7 -1.8
v 0.5 1.7 -1.9
v 0.5 3.9 -1.8
v 0.5 3.9 -1.9
v 0.6 1.6 -1.9
v 0.6 1.6 -2
v 0.6 4 -1.9
v 0.6 4 -2
v -0.9 1.7 -1.8
v -0.9 3.9 -1.8
v -0.8 1.8 -1.8
v -0.8 3.8 -1.8
v 0.4 1.8 -1.8
v 0.4 3.8 -1.8
v 0.5 1.7 -1.8
v 0.5 3.9 -1.8
v -1 1.6 -1.9
v -1 4 -1.9
v -0.9 1.7 -1.9
v -0.9 3.9 -1.9
v 0.5 1.7 -1.9
v 0.5 3.9 -1.9
v 0.6 1.6 -1.9
v 0.6 4 -1.9
v -1 1.6 -2
v -1 4 -2
v -0.8 1.8 -2
v -0.8 3.8 -2
v 0.4 1.8 -2
v 0.4 3.8 -2
v 0.6 1.6 -2
v 0.6 4 -2
v -1 1.6 -1.9
v 0.6 1.6 -1.9
v -1 1.6 -2
v 0.6 1.6 -2
v -0.9 1.7 -1.8
v 0.5 1.7 -1.8
v -0.9 1.7 -1.9
v 0.5 1.7 -1.9
v -0.8 3.8 -1.8
v 0.4 3.8 -1.8
v -0.8 3.8 -1.9
v 0.4 3.8 -1.9
v -0.8 3.8 -2
v 0.4 3.8 -2
v -0.8 1.8 -1.8
v 0.4 1.8 -1.8
v -0.8 1.8 -1.9
v 0.4 1.8 -1.9
v -0.8 1.8 -2
v 0.4 1.8 -2
v -0.9 3.9 -1.8
v 0.5 3.9 -1.8
v -0.9 3.9 -1.9
v 0.5 3.9 -1.9
v -1 4 -1.9
v 0.6 4 -1.9
v -1 4 -2
v 0.6 4 -2

# faces
f 3/1/1 2/1/1 1/1/1
f 4/1/1 2/1/1 3/1/1
f 7/2/1 6/2/1 5/2/1
f 8/2/1 6/2/1 7/2/1
f 12/2/1 10/2/1 9/2/1
f 13/1/1 11/1/1 10/1/1
f 13/2/1 10/2/1 12/2/1
f 14/1/1 11/1/1 13/1/1
f 15/2/2 16/2/2 18/2/2
f 16/1/2 17/1/2 19/1/2
f 18/2/2 16/2/2 19/2/2
f 19/1/2 17/1/2 20/1/2
f 21/2/2 22/2/2 23/2/2
f 23/2/2 22/2/2 24/2/2
f 25/1/2 26/1/2 27/1/2
f 27/1/2 26/1/2 28/1/2
f 31/2/3 30/2/3 29/2/3
f 32/2/3 30/2/3 31/2/3
f 33/2/3 31/2/3 29/2/3
f 34/2/3 30/2/3 32/2/3
f 35/2/3 33/2/3 29/2/3
f 35/2/3 34/2/3 33/2/3
f 36/2/3 30/2/3 34/2/3
f 36/2/3 34/2/3 35/2/3
f 39/1/3 38/1/3 37/1/3
f 40/1/3 38/1/3 39/1/3
f 41/1/3 39/1/3 37/1/3
f 42/1/3 38/1/3 40/1/3
f 43/1/3 41/1/3 37/1/3
f 43/1/3 42/1/3 41/1/3
f 44/1/3 38/1/3 42/1/3
f 44/1/3 42/1/3 43/1/3
f 45/1/4 46/1/4 47/1/4
f 47/1/4 46/1/4 48/1/4
f 45/1/4 47/1/4 49/1/4
f 48/1/4 46/1/4 50/1/4
f 45/1/4 49/1/4 51/1/4
f 49/1/4 50/1/4 51/1/4
f 50/1/4 46/1/4 52/1/4
f 51/1/4 50/1/4 52/1/4
f 55/1/5 54/1/5 53/1/5
f 56/1/5 54/1/5 55/1/5
f 59/2/5 58/2/5 57/2/5
f 60/2/5 58/2/5 59/2/5
f 63/2/5 62/2/5 61/2/5
f 64/2/5 62/2/5 63/2/5
f 65/1/5 64/1/5 63/1/5
f 66/1/5 64/1/5 65/1/5
f 67/2/6 68/2/6 69/2/6
f 69/2/6 68/2/6 70/2/6
f 69/1/6 70/1/6 71/1/6
f 71/1/6 70/1/6 72/1/6
f 73/2/6 74/2/6 75/2/6
f 75/2/6 74/2/6 76/2/6
f 77/1/6 78/1/6 79/1/6
f 79/1/6 78/1/6 80/1/6
