# MagicaVoxel @ Ephtracy

# group
o 

# material
mtllib bed.vox.mtl
usemtl palette

# normals
vn -1 0 0
vn 1 0 0
vn 0 0 1
vn 0 0 -1
vn 0 -1 0
vn 0 1 0

# texcoords
vt 0.00195312 0.5
vt 0.00585938 0.5
vt 0.00976562 0.5
vt 0.0136719 0.5

# verts
v -2.4 0 3.1
v -2.4 0 -2.8
v -2.4 0 -3.2
v -2.4 0.9 3.1
v -2.4 0.9 -0.3
v -2.4 0.9 -0.7
v -2.4 0.9 -2.8
v -2.4 1.3 -0.3
v -2.4 1.3 -0.7
v -2.4 3.2 -2.8
v -2.4 3.2 -3.2
v -2.3 0 3.2
v -2.3 0 3.1
v -2.3 0.9 3.2
v -2.3 0.9 3.1
v -2.3 0.9 -0.2
v -2.3 0.9 -0.3
v -2.3 1.3 -0.3
v -2.3 1.3 -0.7
v -2.3 1.4 -0.2
v -2.3 1.4 -0.7
v -2.2 0.9 3
v -2.2 0.9 -0.2
v -2.2 1.1 2.8
v -2.2 1.1 0.0999999
v -2.2 1.2 3
v -2.2 1.2 2.8
v -2.2 1.2 0.0999999
v -2.2 1.2 -0.2
v -2.2 1.4 -0.2
v -2.2 1.4 -0.7
v -2.2 1.5 -0.2
v -2.2 1.5 -0.7
v -2.1 0.9 -0.7
v -2.1 0.9 -2.7
v -2.1 0.9 -2.8
v -2.1 1.1 2.8
v -2.1 1.1 0.0999999
v -2.1 1.2 2.9
v -2.1 1.2 2.8
v -2.1 1.2 2.7
v -2.1 1.2 0.0999999
v -2.1 1.2 -0.2
v -2.1 1.3 2.9
v -2.1 1.3 2.7
v -2.1 1.3 0.0999999
v -2.1 1.3 -0.2
v -2.1 1.3 -0.7
v -2.1 1.3 -2.7
v -2.1 2.9 -2.7
v -2.1 2.9 -2.8
v -2 1.2 2.7
v -2 1.2 0.0999999
v -2 1.3 2.8
v -2 1.3 2.7
v -2 1.3 2.6
v -2 1.3 0.0999999
v -2 1.3 -0.2
v -2 1.4 2.8
v -2 1.4 2.6
v -2 1.4 0.0999999
v -2 1.4 -0.2
v -1.9 1.3 2.6
v -1.9 1.3 0.0999999
v -1.9 1.3 -2.6
v -1.9 1.3 -2.7
v -1.9 1.4 2.6
v -1.9 1.4 0.0999999
v -1.9 2.7 -2.6
v -1.9 2.7 -2.7
v -1.7 1.3 -1
v -1.7 1.3 -1.3
v -1.7 1.6 -1
v -1.7 1.6 -1.3
v -1.6 1.3 -0.9
v -1.6 1.3 -1
v -1.6 1.3 -1.3
v -1.6 1.3 -1.4
v -1.6 1.6 -0.9
v -1.6 1.6 -1
v -1.6 1.6 -1.3
v -1.6 1.6 -1.4
v -1.6 1.7 -1
v -1.6 1.7 -1.3
v -1.5 1.3 -0.8
v -1.5 1.3 -0.9
v -1.5 1.3 -1.4
v -1.5 1.3 -1.5
v -1.5 1.6 -0.8
v -1.5 1.6 -0.9
v -1.5 1.6 -1
v -1.5 1.6 -1.3
v -1.5 1.6 -1.4
v -1.5 1.6 -1.5
v -1.5 1.7 -0.9
v -1.5 1.7 -1
v -1.5 1.7 -1.3
v -1.5 1.7 -1.4
v -1.5 1.8 -1
v -1.5 1.8 -1.3
v -1.4 1.3 -1.9
v -1.4 1.3 -2.4
v -1.4 1.5 -1.9
v -1.4 1.5 -2.4
v -1.4 2.5 -2.4
v -1.4 2.5 -2.6
v -1.4 2.7 -2.4
v -1.4 2.7 -2.6
v -1.3 1.5 -1.8
v -1.3 1.5 -1.9
v -1.3 1.5 -2.4
v -1.3 1.5 -2.5
v -1.3 1.6 -1.8
v -1.3 1.6 -1.9
v -1.3 1.8 -1.9
v -1.3 1.8 -2.5
v -1.3 2.2 -2.3
v -1.3 2.2 -2.6
v -1.3 2.5 -2.3
v -1.3 2.5 -2.4
v -1.3 2.5 -2.6
v -1.2 1.8 -2
v -1.2 1.8 -2.5
v -1.2 1.9 -2.5
v -1.2 1.9 -2.6
v -1.2 2 -2
v -1.2 2 -2.1
v -1.2 2.1 -2.1
v -1.2 2.1 -2.2
v -1.2 2.2 -2.3
v -1.2 2.2 -2.6
v -1.2 2.3 -2.2
v -1.2 2.3 -2.3
v -1.1 1.8 -2.5
v -1.1 1.8 -2.6
v -1.1 1.9 -2.5
v -1.1 1.9 -2.6
v -0.9 1.7 -2.5
v -0.9 1.7 -2.6
v -0.9 1.8 -2.5
v -0.9 1.8 -2.6
v 1.8 1.3 2.8
v 1.8 1.3 2.7
v 1.8 1.4 2.8
v 1.8 1.4 2.7
v 1.9 1.2 2.9
v 1.9 1.2 2.8
v 1.9 1.3 2.9
v 1.9 1.3 2.8
v 2 1.1 3
v 2 1.1 2.9
v 2 1.2 3
v 2 1.2 2.9
v -2 1.1 3
v -2 1.1 2.9
v -2 1.2 3
v -2 1.2 2.9
v -1.9 1.2 2.9
v -1.9 1.2 2.8
v -1.9 1.3 2.9
v -1.9 1.3 2.8
v -1.8 1.3 2.8
v -1.8 1.3 2.7
v -1.8 1.4 2.8
v -1.8 1.4 2.7
v 0.9 1.7 -2.5
v 0.9 1.7 -2.6
v 0.9 1.8 -2.5
v 0.9 1.8 -2.6
v 1.1 1.8 -2.5
v 1.1 1.8 -2.6
v 1.1 1.9 -2.5
v 1.1 1.9 -2.6
v 1.2 1.7 -1.9
v 1.2 1.7 -2.5
v 1.2 1.8 -1.9
v 1.2 1.8 -2
v 1.2 1.9 -2.5
v 1.2 1.9 -2.6
v 1.2 2 -2
v 1.2 2 -2.1
v 1.2 2.1 -2.1
v 1.2 2.1 -2.2
v 1.2 2.3 -2.2
v 1.2 2.3 -2.3
v 1.2 2.3 -2.6
v 1.3 1.5 -1.8
v 1.3 1.5 -1.9
v 1.3 1.5 -2.4
v 1.3 1.5 -2.5
v 1.3 1.6 -1.8
v 1.3 1.6 -1.9
v 1.3 1.7 -1.9
v 1.3 1.7 -2.5
v 1.3 2.3 -2.3
v 1.3 2.3 -2.6
v 1.3 2.5 -2.3
v 1.3 2.5 -2.4
v 1.3 2.5 -2.6
v 1.4 1.3 -1.9
v 1.4 1.3 -2.4
v 1.4 1.5 -1.9
v 1.4 1.5 -2.4
v 1.4 2.5 -2.4
v 1.4 2.5 -2.6
v 1.4 2.7 -2.4
v 1.4 2.7 -2.6
v 1.5 1.3 -0.8
v 1.5 1.3 -0.9
v 1.5 1.3 -1.4
v 1.5 1.3 -1.5
v 1.5 1.6 -0.8
v 1.5 1.6 -0.9
v 1.5 1.6 -1
v 1.5 1.6 -1.3
v 1.5 1.6 -1.4
v 1.5 1.6 -1.5
v 1.5 1.7 -0.9
v 1.5 1.7 -1
v 1.5 1.7 -1.3
v 1.5 1.7 -1.4
v 1.5 1.8 -1
v 1.5 1.8 -1.3
v 1.6 1.3 -0.9
v 1.6 1.3 -1
v 1.6 1.3 -1.3
v 1.6 1.3 -1.4
v 1.6 1.6 -0.9
v 1.6 1.6 -1
v 1.6 1.6 -1.3
v 1.6 1.6 -1.4
v 1.6 1.7 -1
v 1.6 1.7 -1.3
v 1.7 1.3 -1
v 1.7 1.3 -1.3
v 1.7 1.6 -1
v 1.7 1.6 -1.3
v 1.9 1.3 2.6
v 1.9 1.3 0.0999999
v 1.9 1.3 -2.6
v 1.9 1.3 -2.7
v 1.9 1.4 2.6
v 1.9 1.4 0.0999999
v 1.9 2.7 -2.6
v 1.9 2.7 -2.7
v 2 1.2 2.7
v 2 1.2 0.0999999
v 2 1.3 2.8
v 2 1.3 2.7
v 2 1.3 2.6
v 2 1.3 0.0999999
v 2 1.3 -0.2
v 2 1.4 2.8
v 2 1.4 2.6
v 2 1.4 0.0999999
v 2 1.4 -0.2
v 2.1 0.9 -0.7
v 2.1 0.9 -2.7
v 2.1 0.9 -2.8
v 2.1 1.1 2.8
v 2.1 1.1 0.0999999
v 2.1 1.2 2.9
v 2.1 1.2 2.8
v 2.1 1.2 2.7
v 2.1 1.2 0.0999999
v 2.1 1.2 -0.2
v 2.1 1.3 2.9
v 2.1 1.3 2.7
v 2.1 1.3 0.0999999
v 2.1 1.3 -0.2
v 2.1 1.3 -0.7
v 2.1 1.3 -2.7
v 2.1 2.9 -2.7
v 2.1 2.9 -2.8
v 2.2 0.9 3
v 2.2 0.9 -0.2
v 2.2 1.1 2.8
v 2.2 1.1 0.0999999
v 2.2 1.2 3
v 2.2 1.2 2.8
v 2.2 1.2 0.0999999
v 2.2 1.2 -0.2
v 2.2 1.4 -0.2
v 2.2 1.4 -0.7
v 2.2 1.5 -0.2
v 2.2 1.5 -0.7
v 2.3 0 3.2
v 2.3 0 3.1
v 2.3 0.9 3.2
v 2.3 0.9 3.1
v 2.3 0.9 -0.2
v 2.3 0.9 -0.3
v 2.3 1.3 -0.3
v 2.3 1.3 -0.7
v 2.3 1.4 -0.2
v 2.3 1.4 -0.7
v 2.4 0 3.1
v 2.4 0 -2.8
v 2.4 0 -3.2
v 2.4 0.9 3.1
v 2.4 0.9 -0.3
v 2.4 0.9 -0.7
v 2.4 0.9 -2.8
v 2.4 1.3 -0.3
v 2.4 1.3 -0.7
v 2.4 3.2 -2.8
v 2.4 3.2 -3.2
v -2.3 0 3.2
v -2.3 0.9 3.2
v 2.3 0 3.2
v 2.3 0.9 3.2
v -2.4 0 3.1
v -2.4 0.9 3.1
v -2.3 0 3.1
v -2.3 0.9 3.1
v 2.3 0 3.1
v 2.3 0.9 3.1
v 2.4 0 3.1
v 2.4 0.9 3.1
v -2.2 0.9 3
v -2.2 1.2 3
v -2 1.1 3
v -2 1.2 3
v 2 1.1 3
v 2 1.2 3
v 2.2 0.9 3
v 2.2 1.2 3
v -2.1 1.2 2.9
v -2.1 1.3 2.9
v -2 1.1 2.9
v -2 1.2 2.9
v -1.9 1.2 2.9
v -1.9 1.3 2.9
v 1.9 1.2 2.9
v 1.9 1.3 2.9
v 2 1.1 2.9
v 2 1.2 2.9
v 2.1 1.2 2.9
v 2.1 1.3 2.9
v -2 1.3 2.8
v -2 1.4 2.8
v -1.9 1.2 2.8
v -1.9 1.3 2.8
v -1.8 1.3 2.8
v -1.8 1.4 2.8
v 1.8 1.3 2.8
v 1.8 1.4 2.8
v 1.9 1.2 2.8
v 1.9 1.3 2.8
v 2 1.3 2.8
v 2 1.4 2.8
v -1.8 1.3 2.7
v -1.8 1.4 2.7
v 1.8 1.3 2.7
v 1.8 1.4 2.7
v -2.2 1.1 0.0999999
v -2.2 1.2 0.0999999
v -2.1 1.1 0.0999999
v -2.1 1.2 0.0999999
v -2.1 1.3 0.0999999
v -2 1.2 0.0999999
v -2 1.3 0.0999999
v -2 1.4 0.0999999
v -1.9 1.3 0.0999999
v -1.9 1.4 0.0999999
v 1.9 1.3 0.0999999
v 1.9 1.4 0.0999999
v 2 1.2 0.0999999
v 2 1.3 0.0999999
v 2 1.4 0.0999999
v 2.1 1.1 0.0999999
v 2.1 1.2 0.0999999
v 2.1 1.3 0.0999999
v 2.2 1.1 0.0999999
v 2.2 1.2 0.0999999
v -2.3 0.9 -0.2
v -2.3 1.4 -0.2
v -2.2 0.9 -0.2
v -2.2 1.2 -0.2
v -2.2 1.4 -0.2
v -2.2 1.5 -0.2
v -2.1 1.2 -0.2
v -2.1 1.3 -0.2
v -2 1.3 -0.2
v -2 1.4 -0.2
v 2 1.3 -0.2
v 2 1.4 -0.2
v 2.1 1.2 -0.2
v 2.1 1.3 -0.2
v 2.2 0.9 -0.2
v 2.2 1.2 -0.2
v 2.2 1.4 -0.2
v 2.2 1.5 -0.2
v 2.3 0.9 -0.2
v 2.3 1.4 -0.2
v -2.4 0.9 -0.3
v -2.4 1.3 -0.3
v -2.3 0.9 -0.3
v -2.3 1.3 -0.3
v 2.3 0.9 -0.3
v 2.3 1.3 -0.3
v 2.4 0.9 -0.3
v 2.4 1.3 -0.3
v -1.5 1.3 -0.8
v -1.5 1.6 -0.8
v 1.5 1.3 -0.8
v 1.5 1.6 -0.8
v -1.6 1.3 -0.9
v -1.6 1.6 -0.9
v -1.5 1.3 -0.9
v -1.5 1.6 -0.9
v -1.5 1.7 -0.9
v 1.5 1.3 -0.9
v 1.5 1.6 -0.9
v 1.5 1.7 -0.9
v 1.6 1.3 -0.9
v 1.6 1.6 -0.9
v -1.7 1.3 -1
v -1.7 1.6 -1
v -1.6 1.3 -1
v -1.6 1.6 -1
v -1.6 1.7 -1
v -1.5 1.6 -1
v -1.5 1.7 -1
v -1.5 1.8 -1
v 1.5 1.6 -1
v 1.5 1.7 -1
v 1.5 1.8 -1
v 1.6 1.3 -1
v 1.6 1.6 -1
v 1.6 1.7 -1
v 1.7 1.3 -1
v 1.7 1.6 -1
v -1.3 1.5 -1.8
v -1.3 1.6 -1.8
v 1.3 1.5 -1.8
v 1.3 1.6 -1.8
v -1.4 1.3 -1.9
v -1.4 1.5 -1.9
v -1.3 1.5 -1.9
v -1.3 1.6 -1.9
v -1.3 1.8 -1.9
v 1.2 1.7 -1.9
v 1.2 1.8 -1.9
v 1.3 1.5 -1.9
v 1.3 1.6 -1.9
v 1.3 1.7 -1.9
v 1.4 1.3 -1.9
v 1.4 1.5 -1.9
v -1.2 1.8 -2
v -1.2 2 -2
v 1.2 1.8 -2
v 1.2 2 -2
v -1.2 2 -2.1
v -1.2 2.1 -2.1
v 1.2 2 -2.1
v 1.2 2.1 -2.1
v -1.2 2.1 -2.2
v -1.2 2.3 -2.2
v 1.2 2.1 -2.2
v 1.2 2.3 -2.2
v -1.3 2.2 -2.3
v -1.3 2.5 -2.3
v -1.2 2.2 -2.3
v -1.2 2.3 -2.3
v 1.2 2.3 -2.3
v 1.3 2.3 -2.3
v 1.3 2.5 -2.3
v -1.4 2.5 -2.4
v -1.4 2.7 -2.4
v -1.3 2.5 -2.4
v 1.3 2.5 -2.4
v 1.4 2.5 -2.4
v 1.4 2.7 -2.4
v -1.9 1.3 -2.6
v -1.9 2.7 -2.6
v -1.4 2.5 -2.6
v -1.4 2.7 -2.6
v -1.3 2.2 -2.6
v -1.3 2.5 -2.6
v -1.2 1.9 -2.6
v -1.2 2.2 -2.6
v -1.1 1.8 -2.6
v -1.1 1.9 -2.6
v -0.9 1.7 -2.6
v -0.9 1.8 -2.6
v 0.9 1.7 -2.6
v 0.9 1.8 -2.6
v 1.1 1.8 -2.6
v 1.1 1.9 -2.6
v 1.2 1.9 -2.6
v 1.2 2.3 -2.6
v 1.3 2.3 -2.6
v 1.3 2.5 -2.6
v 1.4 2.5 -2.6
v 1.4 2.7 -2.6
v 1.9 1.3 -2.6
v 1.9 2.7 -2.6
v -2.1 1.3 -2.7
v -2.1 2.9 -2.7
v -1.9 1.3 -2.7
v -1.9 2.7 -2.7
v 1.9 1.3 -2.7
v 1.9 2.7 -2.7
v 2.1 1.3 -2.7
v 2.1 2.9 -2.7
v -2.4 0.9 -2.8
v -2.4 3.2 -2.8
v -2.1 0.9 -2.8
v -2.1 2.9 -2.8
v 2.1 0.9 -2.8
v 2.1 2.9 -2.8
v 2.4 0.9 -2.8
v 2.4 3.2 -2.8
v -2.2 1.1 2.8
v -2.2 1.2 2.8
v -2.1 1.1 2.8
v -2.1 1.2 2.8
v 2.1 1.1 2.8
v 2.1 1.2 2.8
v 2.2 1.1 2.8
v 2.2 1.2 2.8
v -2.1 1.2 2.7
v -2.1 1.3 2.7
v -2 1.2 2.7
v -2 1.3 2.7
v 2 1.2 2.7
v 2 1.3 2.7
v 2.1 1.2 2.7
v 2.1 1.3 2.7
v -2 1.3 2.6
v -2 1.4 2.6
v -1.9 1.3 2.6
v -1.9 1.4 2.6
v 1.9 1.3 2.6
v 1.9 1.4 2.6
v 2 1.3 2.6
v 2 1.4 2.6
v -2.4 0.9 -0.7
v -2.4 1.3 -0.7
v -2.3 1.3 -0.7
v -2.3 1.4 -0.7
v -2.2 1.4 -0.7
v -2.2 1.5 -0.7
v -2.1 0.9 -0.7
v -2.1 1.3 -0.7
v 2.1 0.9 -0.7
v 2.1 1.3 -0.7
v 2.2 1.4 -0.7
v 2.2 1.5 -0.7
v 2.3 1.3 -0.7
v 2.3 1.4 -0.7
v 2.4 0.9 -0.7
v 2.4 1.3 -0.7
v -1.7 1.3 -1.3
v -1.7 1.6 -1.3
v -1.6 1.3 -1.3
v -1.6 1.6 -1.3
v -1.6 1.7 -1.3
v -1.5 1.6 -1.3
v -1.5 1.7 -1.3
v -1.5 1.8 -1.3
v 1.5 1.6 -1.3
v 1.5 1.7 -1.3
v 1.5 1.8 -1.3
v 1.6 1.3 -1.3
v 1.6 1.6 -1.3
v 1.6 1.7 -1.3
v 1.7 1.3 -1.3
v 1.7 1.6 -1.3
v -1.6 1.3 -1.4
v -1.6 1.6 -1.4
v -1.5 1.3 -1.4
v -1.5 1.6 -1.4
v -1.5 1.7 -1.4
v 1.5 1.3 -1.4
v 1.5 1.6 -1.4
v 1.5 1.7 -1.4
v 1.6 1.3 -1.4
v 1.6 1.6 -1.4
v -1.5 1.3 -1.5
v -1.5 1.6 -1.5
v 1.5 1.3 -1.5
v 1.5 1.6 -1.5
v -1.4 1.3 -2.4
v -1.4 1.5 -2.4
v -1.3 1.5 -2.4
v 1.3 1.5 -2.4
v 1.4 1.3 -2.4
v 1.4 1.5 -2.4
v -1.3 1.5 -2.5
v -1.3 1.8 -2.5
v -1.2 1.8 -2.5
v -1.2 1.9 -2.5
v -1.1 1.8 -2.5
v -1.1 1.9 -2.5
v -0.9 1.7 -2.5
v -0.9 1.8 -2.5
v 0.9 1.7 -2.5
v 0.9 1.8 -2.5
v 1.1 1.8 -2.5
v 1.1 1.9 -2.5
v 1.2 1.7 -2.5
v 1.2 1.9 -2.5
v 1.3 1.5 -2.5
v 1.3 1.7 -2.5
v -2.4 0 -3.2
v -2.4 3.2 -3.2
v 2.4 0 -3.2
v 2.4 3.2 -3.2
v -2.3 0 3.2
v 2.3 0 3.2
v -2.4 0 3.1
v -2.3 0 3.1
v 2.3 0 3.1
v 2.4 0 3.1
v -2.4 0 -2.8
v 2.4 0 -2.8
v -2.4 0 -3.2
v 2.4 0 -3.2
v -1.3 1.5 -1.8
v 1.3 1.5 -1.8
v -1.3 1.5 -1.9
v 1.3 1.5 -1.9
v -1.3 1.5 -2.4
v 1.3 1.5 -2.4
v -1.3 1.5 -2.5
v 1.3 1.5 -2.5
v -0.9 1.7 -2.5
v 0.9 1.7 -2.5
v -0.9 1.7 -2.6
v 0.9 1.7 -2.6
v -1.1 1.8 -2.5
v -0.9 1.8 -2.5
v 0.9 1.8 -2.5
v 1.1 1.8 -2.5
v -1.1 1.8 -2.6
v -0.9 1.8 -2.6
v 0.9 1.8 -2.6
v 1.1 1.8 -2.6
v -1.2 1.9 -2.5
v -1.1 1.9 -2.5
v 1.1 1.9 -2.5
v 1.2 1.9 -2.5
v -1.2 1.9 -2.6
v -1.1 1.9 -2.6
v 1.1 1.9 -2.6
v 1.2 1.9 -2.6
v -1.3 2.2 -2.3
v -1.2 2.2 -2.3
v -1.3 2.2 -2.6
v -1.2 2.2 -2.6
v 1.2 2.3 -2.3
v 1.3 2.3 -2.3
v 1.2 2.3 -2.6
v 1.3 2.3 -2.6
v -1.4 2.5 -2.4
v -1.3 2.5 -2.4
v 1.3 2.5 -2.4
v 1.4 2.5 -2.4
v -1.4 2.5 -2.6
v -1.3 2.5 -2.6
v 1.3 2.5 -2.6
v 1.4 2.5 -2.6
v -2.3 0.9 3.2
v 2.3 0.9 3.2
v -2.4 0.9 3.1
v -2.3 0.9 3.1
v 2.3 0.9 3.1
v 2.4 0.9 3.1
v -2.2 0.9 3
v 2.2 0.9 3
v -2.3 0.9 -0.2
v -2.2 0.9 -0.2
v 2.2 0.9 -0.2
v 2.3 0.9 -0.2
v -2.4 0.9 -0.3
v -2.3 0.9 -0.3
v 2.3 0.9 -0.3
v 2.4 0.9 -0.3
v -2.4 0.9 -0.7
v -2.1 0.9 -0.7
v 2.1 0.9 -0.7
v 2.4 0.9 -0.7
v -2.1 0.9 -2.7
v 2.1 0.9 -2.7
v -2.4 0.9 -2.8
v -2.1 0.9 -2.8
v 2.1 0.9 -2.8
v 2.4 0.9 -2.8
v -2 1.1 3
v 2 1.1 3
v -2 1.1 2.9
v 2 1.1 2.9
v -2.2 1.1 2.8
v -2.1 1.1 2.8
v 2.1 1.1 2.8
v 2.2 1.1 2.8
v -2.2 1.1 0.0999999
v -2.1 1.1 0.0999999
v 2.1 1.1 0.0999999
v 2.2 1.1 0.0999999
v -2.2 1.2 3
v -2 1.2 3
v 2 1.2 3
v 2.2 1.2 3
v -2.1 1.2 2.9
v -2 1.2 2.9
v -1.9 1.2 2.9
v 1.9 1.2 2.9
v 2 1.2 2.9
v 2.1 1.2 2.9
v -2.2 1.2 2.8
v -2.1 1.2 2.8
v -1.9 1.2 2.8
v 1.9 1.2 2.8
v 2.1 1.2 2.8
v 2.2 1.2 2.8
v -2.1 1.2 2.7
v -2 1.2 2.7
v 2 1.2 2.7
v 2.1 1.2 2.7
v -2.2 1.2 0.0999999
v -2.1 1.2 0.0999999
v -2 1.2 0.0999999
v 2 1.2 0.0999999
v 2.1 1.2 0.0999999
v 2.2 1.2 0.0999999
v -2.2 1.2 -0.2
v -2.1 1.2 -0.2
v 2.1 1.2 -0.2
v 2.2 1.2 -0.2
v -2.1 1.3 2.9
v -1.9 1.3 2.9
v 1.9 1.3 2.9
v 2.1 1.3 2.9
v -2 1.3 2.8
v -1.9 1.3 2.8
v -1.8 1.3 2.8
v 1.8 1.3 2.8
v 1.9 1.3 2.8
v 2 1.3 2.8
v -2.1 1.3 2.7
v -2 1.3 2.7
v -1.8 1.3 2.7
v 1.8 1.3 2.7
v 2 1.3 2.7
v 2.1 1.3 2.7
v -2 1.3 2.6
v -1.9 1.3 2.6
v 1.9 1.3 2.6
v 2 1.3 2.6
v -2.1 1.3 0.0999999
v -2 1.3 0.0999999
v -1.9 1.3 0.0999999
v 1.9 1.3 0.0999999
v 2 1.3 0.0999999
v 2.1 1.3 0.0999999
v -2.1 1.3 -0.2
v -2 1.3 -0.2
v 2 1.3 -0.2
v 2.1 1.3 -0.2
v -2.4 1.3 -0.3
v -2.3 1.3 -0.3
v 2.3 1.3 -0.3
v 2.4 1.3 -0.3
v -2.4 1.3 -0.7
v -2.3 1.3 -0.7
v -2.1 1.3 -0.7
v 2.1 1.3 -0.7
v 2.3 1.3 -0.7
v 2.4 1.3 -0.7
v -1.5 1.3 -0.8
v 1.5 1.3 -0.8
v -1.6 1.3 -0.9
v -1.5 1.3 -0.9
v 1.5 1.3 -0.9
v 1.6 1.3 -0.9
v -1.7 1.3 -1
v -1.6 1.3 -1
v 1.6 1.3 -1
v 1.7 1.3 -1
v -1.7 1.3 -1.3
v -1.6 1.3 -1.3
v 1.6 1.3 -1.3
v 1.7 1.3 -1.3
v -1.6 1.3 -1.4
v -1.5 1.3 -1.4
v 1.5 1.3 -1.4
v 1.6 1.3 -1.4
v -1.5 1.3 -1.5
v 1.5 1.3 -1.5
v -1.4 1.3 -1.9
v 1.4 1.3 -1.9
v -1.4 1.3 -2.4
v 1.4 1.3 -2.4
v -1.9 1.3 -2.6
v 1.9 1.3 -2.6
v -2.1 1.3 -2.7
v -1.9 1.3 -2.7
v 1.9 1.3 -2.7
v 2.1 1.3 -2.7
v -2 1.4 2.8
v -1.8 1.4 2.8
v 1.8 1.4 2.8
v 2 1.4 2.8
v -1.8 1.4 2.7
v 1.8 1.4 2.7
v -2 1.4 2.6
v -1.9 1.4 2.6
v 1.9 1.4 2.6
v 2 1.4 2.6
v -2 1.4 0.0999999
v -1.9 1.4 0.0999999
v 1.9 1.4 0.0999999
v 2 1.4 0.0999999
v -2.3 1.4 -0.2
v -2.2 1.4 -0.2
v -2 1.4 -0.2
v 2 1.4 -0.2
v 2.2 1.4 -0.2
v 2.3 1.4 -0.2
v -2.3 1.4 -0.7
v -2.2 1.4 -0.7
v 2.2 1.4 -0.7
v 2.3 1.4 -0.7
v -2.2 1.5 -0.2
v 2.2 1.5 -0.2
v -2.2 1.5 -0.7
v 2.2 1.5 -0.7
v -1.4 1.5 -1.9
v -1.3 1.5 -1.9
v 1.3 1.5 -1.9
v 1.4 1.5 -1.9
v -1.4 1.5 -2.4
v -1.3 1.5 -2.4
v 1.3 1.5 -2.4
v 1.4 1.5 -2.4
v -1.5 1.6 -0.8
v 1.5 1.6 -0.8
v -1.6 1.6 -0.9
v -1.5 1.6 -0.9
v 1.5 1.6 -0.9
v 1.6 1.6 -0.9
v -1.7 1.6 -1
v -1.6 1.6 -1
v -1.5 1.6 -1
v 1.5 1.6 -1
v 1.6 1.6 -1
v 1.7 1.6 -1
v -1.7 1.6 -1.3
v -1.6 1.6 -1.3
v -1.5 1.6 -1.3
v 1.5 1.6 -1.3
v 1.6 1.6 -1.3
v 1.7 1.6 -1.3
v -1.6 1.6 -1.4
v -1.5 1.6 -1.4
v 1.5 1.6 -1.4
v 1.6 1.6 -1.4
v -1.5 1.6 -1.5
v 1.5 1.6 -1.5
v -1.3 1.6 -1.8
v 1.3 1.6 -1.8
v -1.3 1.6 -1.9
v 1.3 1.6 -1.9
v -1.5 1.7 -0.9
v 1.5 1.7 -0.9
v -1.6 1.7 -1
v -1.5 1.7 -1
v 1.5 1.7 -1
v 1.6 1.7 -1
v -1.6 1.7 -1.3
v -1.5 1.7 -1.3
v 1.5 1.7 -1.3
v 1.6 1.7 -1.3
v -1.5 1.7 -1.4
v 1.5 1.7 -1.4
v 1.2 1.7 -1.9
v 1.3 1.7 -1.9
v 1.2 1.7 -2.5
v 1.3 1.7 -2.5
v -1.5 1.8 -1
v 1.5 1.8 -1
v -1.5 1.8 -1.3
v 1.5 1.8 -1.3
v -1.3 1.8 -1.9
v 1.2 1.8 -1.9
v -1.2 1.8 -2
v 1.2 1.8 -2
v -1.3 1.8 -2.5
v -1.2 1.8 -2.5
v -1.2 2 -2
v 1.2 2 -2
v -1.2 2 -2.1
v 1.2 2 -2.1
v -1.2 2.1 -2.1
v 1.2 2.1 -2.1
v -1.2 2.1 -2.2
v 1.2 2.1 -2.2
v -1.2 2.3 -2.2
v 1.2 2.3 -2.2
v -1.2 2.3 -2.3
v 1.2 2.3 -2.3
v -1.3 2.5 -2.3
v 1.3 2.5 -2.3
v -1.3 2.5 -2.4
v 1.3 2.5 -2.4
v -1.4 2.7 -2.4
v 1.4 2.7 -2.4
v -1.9 2.7 -2.6
v -1.4 2.7 -2.6
v 1.4 2.7 -2.6
v 1.9 2.7 -2.6
v -1.9 2.7 -2.7
v 1.9 2.7 -2.7
v -2.1 2.9 -2.7
v 2.1 2.9 -2.7
v -2.1 2.9 -2.8
v 2.1 2.9 -2.8
v -2.4 3.2 -2.8
v 2.4 3.2 -2.8
v -2.4 3.2 -3.2
v 2.4 3.2 -3.2

# faces
f 4/1/1 2/1/1 1/1/1
f 5/1/1 2/1/1 4/1/1
f 6/1/1 2/1/1 5/1/1
f 7/2/1 3/2/1 2/2/1
f 7/1/1 2/1/1 6/1/1
f 8/4/1 6/4/1 5/4/1
f 9/4/1 6/4/1 8/4/1
f 10/2/1 3/2/1 7/2/1
f 11/2/1 3/2/1 10/2/1
f 14/1/1 13/1/1 12/1/1
f 15/1/1 13/1/1 14/1/1
f 18/4/1 17/4/1 16/4/1
f 20/4/1 18/4/1 16/4/1
f 20/4/1 19/4/1 18/4/1
f 21/4/1 19/4/1 20/4/1
f 24/4/1 23/4/1 22/4/1
f 25/4/1 23/4/1 24/4/1
f 26/4/1 24/4/1 22/4/1
f 27/4/1 24/4/1 26/4/1
f 28/4/1 23/4/1 25/4/1
f 29/4/1 23/4/1 28/4/1
f 32/4/1 31/4/1 30/4/1
f 33/4/1 31/4/1 32/4/1
f 40/4/1 38/4/1 37/4/1
f 41/4/1 38/4/1 40/4/1
f 42/4/1 38/4/1 41/4/1
f 44/4/1 40/4/1 39/4/1
f 44/4/1 41/4/1 40/4/1
f 45/4/1 41/4/1 44/4/1
f 46/4/1 43/4/1 42/4/1
f 47/4/1 43/4/1 46/4/1
f 48/4/1 35/4/1 34/4/1
f 49/3/1 36/3/1 35/3/1
f 49/4/1 35/4/1 48/4/1
f 50/3/1 36/3/1 49/3/1
f 51/3/1 36/3/1 50/3/1
f 55/4/1 53/4/1 52/4/1
f 56/4/1 53/4/1 55/4/1
f 57/4/1 53/4/1 56/4/1
f 59/4/1 55/4/1 54/4/1
f 59/4/1 56/4/1 55/4/1
f 60/4/1 56/4/1 59/4/1
f 61/4/1 58/4/1 57/4/1
f 62/4/1 58/4/1 61/4/1
f 67/4/1 64/4/1 63/4/1
f 68/4/1 64/4/1 67/4/1
f 69/3/1 66/3/1 65/3/1
f 70/3/1 66/3/1 69/3/1
f 73/1/1 72/1/1 71/1/1
f 74/1/1 72/1/1 73/1/1
f 79/1/1 76/1/1 75/1/1
f 80/1/1 76/1/1 79/1/1
f 81/1/1 78/1/1 77/1/1
f 82/1/1 78/1/1 81/1/1
f 83/1/1 81/1/1 80/1/1
f 84/1/1 81/1/1 83/1/1
f 89/1/1 86/1/1 85/1/1
f 90/1/1 86/1/1 89/1/1
f 93/1/1 88/1/1 87/1/1
f 94/1/1 88/1/1 93/1/1
f 95/1/1 91/1/1 90/1/1
f 96/1/1 91/1/1 95/1/1
f 97/1/1 93/1/1 92/1/1
f 98/1/1 93/1/1 97/1/1
f 99/1/1 97/1/1 96/1/1
f 100/1/1 97/1/1 99/1/1
f 103/1/1 102/1/1 101/1/1
f 104/1/1 102/1/1 103/1/1
f 107/1/1 106/1/1 105/1/1
f 108/1/1 106/1/1 107/1/1
f 113/1/1 110/1/1 109/1/1
f 113/1/1 112/1/1 111/1/1
f 113/1/1 111/1/1 110/1/1
f 114/1/1 112/1/1 113/1/1
f 115/1/1 112/1/1 114/1/1
f 116/1/1 112/1/1 115/1/1
f 119/1/1 118/1/1 117/1/1
f 120/1/1 118/1/1 119/1/1
f 121/1/1 118/1/1 120/1/1
f 124/1/1 123/1/1 122/1/1
f 126/1/1 124/1/1 122/1/1
f 126/1/1 125/1/1 124/1/1
f 127/1/1 125/1/1 126/1/1
f 128/1/1 125/1/1 127/1/1
f 129/1/1 125/1/1 128/1/1
f 130/1/1 125/1/1 129/1/1
f 131/1/1 125/1/1 130/1/1
f 132/1/1 130/1/1 129/1/1
f 133/1/1 130/1/1 132/1/1
f 136/1/1 135/1/1 134/1/1
f 137/1/1 135/1/1 136/1/1
f 140/1/1 139/1/1 138/1/1
f 141/1/1 139/1/1 140/1/1
f 144/4/1 143/4/1 142/4/1
f 145/4/1 143/4/1 144/4/1
f 148/4/1 147/4/1 146/4/1
f 149/4/1 147/4/1 148/4/1
f 152/4/1 151/4/1 150/4/1
f 153/4/1 151/4/1 152/4/1
f 154/4/2 155/4/2 156/4/2
f 156/4/2 155/4/2 157/4/2
f 158/4/2 159/4/2 160/4/2
f 160/4/2 159/4/2 161/4/2
f 162/4/2 163/4/2 164/4/2
f 164/4/2 163/4/2 165/4/2
f 166/1/2 167/1/2 168/1/2
f 168/1/2 167/1/2 169/1/2
f 170/1/2 171/1/2 172/1/2
f 172/1/2 171/1/2 173/1/2
f 174/1/2 175/1/2 176/1/2
f 176/1/2 175/1/2 177/1/2
f 177/1/2 175/1/2 178/1/2
f 177/1/2 178/1/2 180/1/2
f 178/1/2 179/1/2 180/1/2
f 180/1/2 179/1/2 181/1/2
f 181/1/2 179/1/2 182/1/2
f 182/1/2 179/1/2 183/1/2
f 183/1/2 179/1/2 184/1/2
f 184/1/2 179/1/2 185/1/2
f 185/1/2 179/1/2 186/1/2
f 187/1/2 188/1/2 191/1/2
f 189/1/2 190/1/2 191/1/2
f 188/1/2 189/1/2 191/1/2
f 191/1/2 190/1/2 192/1/2
f 192/1/2 190/1/2 193/1/2
f 193/1/2 190/1/2 194/1/2
f 195/1/2 196/1/2 197/1/2
f 197/1/2 196/1/2 198/1/2
f 198/1/2 196/1/2 199/1/2
f 200/1/2 201/1/2 202/1/2
f 202/1/2 201/1/2 203/1/2
f 204/1/2 205/1/2 206/1/2
f 206/1/2 205/1/2 207/1/2
f 208/1/2 209/1/2 212/1/2
f 212/1/2 209/1/2 213/1/2
f 210/1/2 211/1/2 216/1/2
f 216/1/2 211/1/2 217/1/2
f 213/1/2 214/1/2 218/1/2
f 218/1/2 214/1/2 219/1/2
f 215/1/2 216/1/2 220/1/2
f 220/1/2 216/1/2 221/1/2
f 219/1/2 220/1/2 222/1/2
f 222/1/2 220/1/2 223/1/2
f 224/1/2 225/1/2 228/1/2
f 228/1/2 225/1/2 229/1/2
f 226/1/2 227/1/2 230/1/2
f 230/1/2 227/1/2 231/1/2
f 229/1/2 230/1/2 232/1/2
f 232/1/2 230/1/2 233/1/2
f 234/1/2 235/1/2 236/1/2
f 236/1/2 235/1/2 237/1/2
f 238/4/2 239/4/2 242/4/2
f 242/4/2 239/4/2 243/4/2
f 240/3/2 241/3/2 244/3/2
f 244/3/2 241/3/2 245/3/2
f 246/4/2 247/4/2 249/4/2
f 249/4/2 247/4/2 250/4/2
f 250/4/2 247/4/2 251/4/2
f 248/4/2 249/4/2 253/4/2
f 249/4/2 250/4/2 253/4/2
f 253/4/2 250/4/2 254/4/2
f 251/4/2 252/4/2 255/4/2
f 255/4/2 252/4/2 256/4/2
f 260/4/2 261/4/2 263/4/2
f 263/4/2 261/4/2 264/4/2
f 264/4/2 261/4/2 265/4/2
f 262/4/2 263/4/2 267/4/2
f 263/4/2 264/4/2 267/4/2
f 267/4/2 264/4/2 268/4/2
f 265/4/2 266/4/2 269/4/2
f 269/4/2 266/4/2 270/4/2
f 257/4/2 258/4/2 271/4/2
f 258/3/2 259/3/2 272/3/2
f 271/4/2 258/4/2 272/4/2
f 272/3/2 259/3/2 273/3/2
f 273/3/2 259/3/2 274/3/2
f 275/4/2 276/4/2 277/4/2
f 277/4/2 276/4/2 278/4/2
f 275/4/2 277/4/2 279/4/2
f 279/4/2 277/4/2 280/4/2
f 278/4/2 276/4/2 281/4/2
f 281/4/2 276/4/2 282/4/2
f 283/4/2 284/4/2 285/4/2
f 285/4/2 284/4/2 286/4/2
f 287/1/2 288/1/2 289/1/2
f 289/1/2 288/1/2 290/1/2
f 291/4/2 292/4/2 293/4/2
f 291/4/2 293/4/2 295/4/2
f 293/4/2 294/4/2 295/4/2
f 295/4/2 294/4/2 296/4/2
f 297/1/2 298/1/2 300/1/2
f 300/1/2 298/1/2 301/1/2
f 301/1/2 298/1/2 302/1/2
f 298/2/2 299/2/2 303/2/2
f 302/1/2 298/1/2 303/1/2
f 301/4/2 302/4/2 304/4/2
f 304/4/2 302/4/2 305/4/2
f 303/2/2 299/2/2 306/2/2
f 306/2/2 299/2/2 307/2/2
f 310/1/3 309/1/3 308/1/3
f 311/1/3 309/1/3 310/1/3
f 314/1/3 313/1/3 312/1/3
f 315/1/3 313/1/3 314/1/3
f 318/1/3 317/1/3 316/1/3
f 319/1/3 317/1/3 318/1/3
f 322/4/3 321/4/3 320/4/3
f 323/4/3 321/4/3 322/4/3
f 324/4/3 322/4/3 320/4/3
f 326/4/3 324/4/3 320/4/3
f 326/4/3 325/4/3 324/4/3
f 327/4/3 325/4/3 326/4/3
f 331/4/3 329/4/3 328/4/3
f 332/4/3 329/4/3 331/4/3
f 332/4/3 331/4/3 330/4/3
f 333/4/3 329/4/3 332/4/3
f 334/4/3 332/4/3 330/4/3
f 336/4/3 334/4/3 330/4/3
f 336/4/3 335/4/3 334/4/3
f 337/4/3 335/4/3 336/4/3
f 338/4/3 335/4/3 337/4/3
f 339/4/3 335/4/3 338/4/3
f 343/4/3 341/4/3 340/4/3
f 344/4/3 341/4/3 343/4/3
f 344/4/3 343/4/3 342/4/3
f 345/4/3 341/4/3 344/4/3
f 346/4/3 344/4/3 342/4/3
f 348/4/3 346/4/3 342/4/3
f 348/4/3 347/4/3 346/4/3
f 349/4/3 347/4/3 348/4/3
f 350/4/3 347/4/3 349/4/3
f 351/4/3 347/4/3 350/4/3
f 354/4/3 353/4/3 352/4/3
f 355/4/3 353/4/3 354/4/3
f 358/4/3 357/4/3 356/4/3
f 359/4/3 357/4/3 358/4/3
f 361/4/3 360/4/3 359/4/3
f 362/4/3 360/4/3 361/4/3
f 364/4/3 363/4/3 362/4/3
f 365/4/3 363/4/3 364/4/3
f 369/4/3 367/4/3 366/4/3
f 370/4/3 367/4/3 369/4/3
f 372/4/3 369/4/3 368/4/3
f 373/4/3 369/4/3 372/4/3
f 374/4/3 372/4/3 371/4/3
f 375/4/3 372/4/3 374/4/3
f 378/4/3 377/4/3 376/4/3
f 379/4/3 377/4/3 378/4/3
f 380/4/3 377/4/3 379/4/3
f 382/4/3 381/4/3 380/4/3
f 382/4/3 380/4/3 379/4/3
f 383/4/3 381/4/3 382/4/3
f 384/4/3 381/4/3 383/4/3
f 385/4/3 381/4/3 384/4/3
f 387/4/3 381/4/3 385/4/3
f 389/4/3 387/4/3 386/4/3
f 391/4/3 389/4/3 388/4/3
f 392/4/3 381/4/3 387/4/3
f 392/4/3 387/4/3 389/4/3
f 392/4/3 389/4/3 391/4/3
f 393/4/3 381/4/3 392/4/3
f 394/4/3 391/4/3 390/4/3
f 394/4/3 392/4/3 391/4/3
f 395/4/3 392/4/3 394/4/3
f 398/4/3 397/4/3 396/4/3
f 399/4/3 397/4/3 398/4/3
f 402/4/3 401/4/3 400/4/3
f 403/4/3 401/4/3 402/4/3
f 406/1/3 405/1/3 404/1/3
f 407/1/3 405/1/3 406/1/3
f 410/1/3 409/1/3 408/1/3
f 411/1/3 409/1/3 410/1/3
f 414/1/3 412/1/3 411/1/3
f 415/1/3 412/1/3 414/1/3
f 416/1/3 414/1/3 413/1/3
f 417/1/3 414/1/3 416/1/3
f 420/1/3 419/1/3 418/1/3
f 421/1/3 419/1/3 420/1/3
f 423/1/3 422/1/3 421/1/3
f 424/1/3 422/1/3 423/1/3
f 427/1/3 425/1/3 424/1/3
f 428/1/3 425/1/3 427/1/3
f 430/1/3 427/1/3 426/1/3
f 431/1/3 427/1/3 430/1/3
f 432/1/3 430/1/3 429/1/3
f 433/1/3 430/1/3 432/1/3
f 436/1/3 435/1/3 434/1/3
f 437/1/3 435/1/3 436/1/3
f 440/1/3 439/1/3 438/1/3
f 443/1/3 442/1/3 441/1/3
f 444/1/3 442/1/3 443/1/3
f 445/1/3 440/1/3 438/1/3
f 446/1/3 443/1/3 441/1/3
f 447/1/3 443/1/3 446/1/3
f 448/1/3 445/1/3 438/1/3
f 449/1/3 445/1/3 448/1/3
f 452/1/3 451/1/3 450/1/3
f 453/1/3 451/1/3 452/1/3
f 456/1/3 455/1/3 454/1/3
f 457/1/3 455/1/3 456/1/3
f 460/1/3 459/1/3 458/1/3
f 461/1/3 459/1/3 460/1/3
f 464/1/3 463/1/3 462/1/3
f 465/1/3 463/1/3 464/1/3
f 466/1/3 463/1/3 465/1/3
f 467/1/3 463/1/3 466/1/3
f 468/1/3 463/1/3 467/1/3
f 471/1/3 470/1/3 469/1/3
f 472/1/3 470/1/3 471/1/3
f 473/1/3 470/1/3 472/1/3
f 474/1/3 470/1/3 473/1/3
f 477/3/3 476/3/3 475/3/3
f 478/3/3 476/3/3 477/3/3
f 479/3/3 477/3/3 475/3/3
f 480/3/3 477/3/3 479/3/3
f 481/3/3 479/3/3 475/3/3
f 482/3/3 479/3/3 481/3/3
f 483/3/3 481/3/3 475/3/3
f 484/3/3 481/3/3 483/3/3
f 485/3/3 483/3/3 475/3/3
f 486/3/3 483/3/3 485/3/3
f 487/3/3 485/3/3 475/3/3
f 489/3/3 488/3/3 487/3/3
f 491/3/3 490/3/3 489/3/3
f 493/3/3 492/3/3 491/3/3
f 495/3/3 494/3/3 493/3/3
f 497/3/3 495/3/3 493/3/3
f 497/3/3 496/3/3 495/3/3
f 497/3/3 493/3/3 491/3/3
f 497/3/3 489/3/3 487/3/3
f 497/3/3 487/3/3 475/3/3
f 497/3/3 491/3/3 489/3/3
f 498/3/3 496/3/3 497/3/3
f 501/3/3 500/3/3 499/3/3
f 502/3/3 500/3/3 501/3/3
f 504/3/3 500/3/3 502/3/3
f 505/3/3 504/3/3 503/3/3
f 506/3/3 500/3/3 504/3/3
f 506/3/3 504/3/3 505/3/3
f 509/2/3 508/2/3 507/2/3
f 510/2/3 508/2/3 509/2/3
f 512/2/3 508/2/3 510/2/3
f 513/2/3 512/2/3 511/2/3
f 514/2/3 508/2/3 512/2/3
f 514/2/3 512/2/3 513/2/3
f 515/4/4 516/4/4 517/4/4
f 517/4/4 516/4/4 518/4/4
f 519/4/4 520/4/4 521/4/4
f 521/4/4 520/4/4 522/4/4
f 523/4/4 524/4/4 525/4/4
f 525/4/4 524/4/4 526/4/4
f 527/4/4 528/4/4 529/4/4
f 529/4/4 528/4/4 530/4/4
f 531/4/4 532/4/4 533/4/4
f 533/4/4 532/4/4 534/4/4
f 535/4/4 536/4/4 537/4/4
f 537/4/4 536/4/4 538/4/4
f 539/4/4 540/4/4 541/4/4
f 541/4/4 542/4/4 543/4/4
f 539/4/4 541/4/4 545/4/4
f 543/4/4 544/4/4 545/4/4
f 541/4/4 543/4/4 545/4/4
f 545/4/4 544/4/4 546/4/4
f 546/4/4 544/4/4 548/4/4
f 548/4/4 544/4/4 549/4/4
f 547/4/4 548/4/4 549/4/4
f 549/4/4 544/4/4 550/4/4
f 547/4/4 549/4/4 551/4/4
f 551/4/4 549/4/4 552/4/4
f 547/4/4 551/4/4 553/4/4
f 553/4/4 551/4/4 554/4/4
f 555/1/4 556/1/4 557/1/4
f 557/1/4 556/1/4 558/1/4
f 558/1/4 559/1/4 560/1/4
f 560/1/4 559/1/4 561/1/4
f 561/1/4 562/1/4 564/1/4
f 564/1/4 562/1/4 565/1/4
f 563/1/4 564/1/4 567/1/4
f 567/1/4 564/1/4 568/1/4
f 566/1/4 567/1/4 569/1/4
f 569/1/4 567/1/4 570/1/4
f 571/1/4 572/1/4 573/1/4
f 573/1/4 572/1/4 574/1/4
f 574/1/4 575/1/4 577/1/4
f 577/1/4 575/1/4 578/1/4
f 576/1/4 577/1/4 579/1/4
f 579/1/4 577/1/4 580/1/4
f 581/1/4 582/1/4 583/1/4
f 583/1/4 582/1/4 584/1/4
f 585/1/4 586/1/4 587/1/4
f 585/1/4 587/1/4 588/1/4
f 585/1/4 588/1/4 589/1/4
f 589/1/4 588/1/4 590/1/4
f 591/1/4 592/1/4 593/1/4
f 591/1/4 593/1/4 595/1/4
f 593/1/4 594/1/4 595/1/4
f 595/1/4 594/1/4 596/1/4
f 591/1/4 595/1/4 597/1/4
f 597/1/4 595/1/4 598/1/4
f 591/1/4 597/1/4 599/1/4
f 599/1/4 600/1/4 601/1/4
f 599/1/4 601/1/4 603/1/4
f 601/1/4 602/1/4 603/1/4
f 591/1/4 599/1/4 603/1/4
f 603/1/4 602/1/4 604/1/4
f 591/1/4 603/1/4 605/1/4
f 605/1/4 603/1/4 606/1/4
f 607/2/4 608/2/4 609/2/4
f 609/2/4 608/2/4 610/2/4
f 614/1/5 612/1/5 611/1/5
f 615/1/5 612/1/5 614/1/5
f 617/1/5 614/1/5 613/1/5
f 617/1/5 616/1/5 615/1/5
f 617/1/5 615/1/5 614/1/5
f 618/1/5 616/1/5 617/1/5
f 619/2/5 618/2/5 617/2/5
f 620/2/5 618/2/5 619/2/5
f 623/1/5 622/1/5 621/1/5
f 624/1/5 622/1/5 623/1/5
f 627/1/5 626/1/5 625/1/5
f 628/1/5 626/1/5 627/1/5
f 631/1/5 630/1/5 629/1/5
f 632/1/5 630/1/5 631/1/5
f 637/1/5 634/1/5 633/1/5
f 638/1/5 634/1/5 637/1/5
f 639/1/5 636/1/5 635/1/5
f 640/1/5 636/1/5 639/1/5
f 645/1/5 642/1/5 641/1/5
f 646/1/5 642/1/5 645/1/5
f 647/1/5 644/1/5 643/1/5
f 648/1/5 644/1/5 647/1/5
f 651/1/5 650/1/5 649/1/5
f 652/1/5 650/1/5 651/1/5
f 655/1/5 654/1/5 653/1/5
f 656/1/5 654/1/5 655/1/5
f 661/1/5 658/1/5 657/1/5
f 662/1/5 658/1/5 661/1/5
f 663/1/5 660/1/5 659/1/5
f 664/1/5 660/1/5 663/1/5
f 665/1/6 666/1/6 668/1/6
f 668/1/6 666/1/6 669/1/6
f 667/1/6 668/1/6 671/1/6
f 669/1/6 670/1/6 671/1/6
f 668/1/6 669/1/6 671/1/6
f 671/1/6 670/1/6 672/1/6
f 667/1/6 671/1/6 673/1/6
f 673/1/6 671/1/6 674/1/6
f 672/1/6 670/1/6 675/1/6
f 675/1/6 670/1/6 676/1/6
f 667/1/6 673/1/6 677/1/6
f 677/1/6 673/1/6 678/1/6
f 676/1/6 670/1/6 679/1/6
f 679/1/6 670/1/6 680/1/6
f 681/1/6 682/1/6 685/1/6
f 683/1/6 684/1/6 686/1/6
f 681/1/6 685/1/6 687/1/6
f 687/1/6 685/1/6 688/1/6
f 686/1/6 684/1/6 689/1/6
f 689/1/6 684/1/6 690/1/6
f 691/4/6 692/4/6 693/4/6
f 693/4/6 692/4/6 694/4/6
f 695/4/6 696/4/6 699/4/6
f 699/4/6 696/4/6 700/4/6
f 697/4/6 698/4/6 701/4/6
f 701/4/6 698/4/6 702/4/6
f 703/4/6 704/4/6 707/4/6
f 707/4/6 704/4/6 708/4/6
f 705/4/6 706/4/6 711/4/6
f 711/4/6 706/4/6 712/4/6
f 703/4/6 707/4/6 713/4/6
f 713/4/6 707/4/6 714/4/6
f 709/4/6 710/4/6 715/4/6
f 715/4/6 710/4/6 716/4/6
f 712/4/6 706/4/6 717/4/6
f 717/4/6 706/4/6 718/4/6
f 719/4/6 720/4/6 724/4/6
f 724/4/6 720/4/6 725/4/6
f 721/4/6 722/4/6 726/4/6
f 726/4/6 722/4/6 727/4/6
f 723/4/6 724/4/6 729/4/6
f 729/4/6 724/4/6 730/4/6
f 727/4/6 728/4/6 731/4/6
f 731/4/6 728/4/6 732/4/6
f 733/4/6 734/4/6 737/4/6
f 737/4/6 734/4/6 738/4/6
f 735/4/6 736/4/6 741/4/6
f 741/4/6 736/4/6 742/4/6
f 733/4/6 737/4/6 743/4/6
f 743/4/6 737/4/6 744/4/6
f 739/4/6 740/4/6 745/4/6
f 745/4/6 740/4/6 746/4/6
f 742/4/6 736/4/6 747/4/6
f 747/4/6 736/4/6 748/4/6
f 749/4/6 750/4/6 754/4/6
f 754/4/6 750/4/6 755/4/6
f 751/4/6 752/4/6 756/4/6
f 756/4/6 752/4/6 757/4/6
f 753/4/6 754/4/6 759/4/6
f 759/4/6 754/4/6 760/4/6
f 757/4/6 758/4/6 761/4/6
f 761/4/6 758/4/6 762/4/6
f 763/4/6 764/4/6 767/4/6
f 767/4/6 764/4/6 768/4/6
f 765/4/6 766/4/6 771/4/6
f 771/4/6 766/4/6 772/4/6
f 769/4/6 770/4/6 773/4/6
f 773/4/6 770/4/6 774/4/6
f 769/4/6 773/4/6 775/4/6
f 775/4/6 773/4/6 776/4/6
f 774/4/6 770/4/6 777/4/6
f 777/4/6 770/4/6 778/4/6
f 769/4/6 775/4/6 779/4/6
f 779/4/6 775/4/6 780/4/6
f 778/4/6 770/4/6 781/4/6
f 781/4/6 770/4/6 782/4/6
f 769/4/6 779/4/6 783/4/6
f 782/4/6 770/4/6 786/4/6
f 783/4/6 784/4/6 787/4/6
f 785/4/6 786/4/6 790/4/6
f 787/4/6 788/4/6 791/4/6
f 789/4/6 790/4/6 792/4/6
f 791/4/6 792/4/6 793/4/6
f 793/4/6 792/4/6 794/4/6
f 791/4/6 793/4/6 795/4/6
f 794/4/6 792/4/6 796/4/6
f 787/4/6 791/4/6 797/4/6
f 795/4/6 796/4/6 797/4/6
f 769/4/6 783/4/6 797/4/6
f 783/4/6 787/4/6 797/4/6
f 791/4/6 795/4/6 797/4/6
f 796/4/6 792/4/6 798/4/6
f 797/4/6 796/4/6 798/4/6
f 786/4/6 770/4/6 798/4/6
f 792/4/6 790/4/6 798/4/6
f 790/4/6 786/4/6 798/4/6
f 769/4/6 797/4/6 799/4/6
f 799/4/6 797/4/6 800/4/6
f 798/4/6 770/4/6 801/4/6
f 801/4/6 770/4/6 802/4/6
f 803/4/6 804/4/6 807/4/6
f 805/4/6 806/4/6 808/4/6
f 803/4/6 807/4/6 809/4/6
f 807/4/6 808/4/6 809/4/6
f 809/4/6 808/4/6 810/4/6
f 808/4/6 806/4/6 811/4/6
f 810/4/6 808/4/6 811/4/6
f 811/4/6 806/4/6 812/4/6
f 810/4/6 811/4/6 814/4/6
f 814/4/6 811/4/6 815/4/6
f 813/4/6 814/4/6 819/4/6
f 814/4/6 815/4/6 819/4/6
f 815/4/6 816/4/6 819/4/6
f 819/4/6 816/4/6 820/4/6
f 817/4/6 818/4/6 823/4/6
f 823/4/6 818/4/6 824/4/6
f 821/4/6 822/4/6 825/4/6
f 825/4/6 822/4/6 826/4/6
f 827/4/6 828/4/6 829/4/6
f 829/4/6 828/4/6 830/4/6
f 831/1/6 832/1/6 835/1/6
f 835/1/6 832/1/6 836/1/6
f 833/1/6 834/1/6 837/1/6
f 837/1/6 834/1/6 838/1/6
f 839/1/6 840/1/6 842/1/6
f 842/1/6 840/1/6 843/1/6
f 841/1/6 842/1/6 846/1/6
f 846/1/6 842/1/6 847/1/6
f 843/1/6 844/1/6 848/1/6
f 848/1/6 844/1/6 849/1/6
f 845/1/6 846/1/6 851/1/6
f 851/1/6 846/1/6 852/1/6
f 849/1/6 850/1/6 855/1/6
f 855/1/6 850/1/6 856/1/6
f 852/1/6 853/1/6 857/1/6
f 857/1/6 853/1/6 858/1/6
f 854/1/6 855/1/6 859/1/6
f 859/1/6 855/1/6 860/1/6
f 858/1/6 859/1/6 861/1/6
f 861/1/6 859/1/6 862/1/6
f 863/1/6 864/1/6 865/1/6
f 865/1/6 864/1/6 866/1/6
f 867/1/6 868/1/6 870/1/6
f 870/1/6 868/1/6 871/1/6
f 869/1/6 870/1/6 873/1/6
f 873/1/6 870/1/6 874/1/6
f 871/1/6 872/1/6 875/1/6
f 875/1/6 872/1/6 876/1/6
f 874/1/6 875/1/6 877/1/6
f 877/1/6 875/1/6 878/1/6
f 879/1/6 880/1/6 881/1/6
f 881/1/6 880/1/6 882/1/6
f 883/1/6 884/1/6 885/1/6
f 885/1/6 884/1/6 886/1/6
f 887/1/6 888/1/6 889/1/6
f 889/1/6 888/1/6 890/1/6
f 887/1/6 889/1/6 891/1/6
f 891/1/6 889/1/6 892/1/6
f 893/1/6 894/1/6 895/1/6
f 895/1/6 894/1/6 896/1/6
f 897/1/6 898/1/6 899/1/6
f 899/1/6 898/1/6 900/1/6
f 901/1/6 902/1/6 903/1/6
f 903/1/6 902/1/6 904/1/6
f 905/1/6 906/1/6 907/1/6
f 907/1/6 906/1/6 908/1/6
f 909/1/6 910/1/6 912/1/6
f 912/1/6 910/1/6 913/1/6
f 911/3/6 912/3/6 915/3/6
f 913/3/6 914/3/6 915/3/6
f 912/3/6 913/3/6 915/3/6
f 915/3/6 914/3/6 916/3/6
f 917/3/6 918/3/6 919/3/6
f 919/3/6 918/3/6 920/3/6
f 921/2/6 922/2/6 923/2/6
f 923/2/6 922/2/6 924/2/6
