# MagicaVoxel @ Ephtracy

# group
o 

# material
mtllib bedroom_table.vox.mtl
usemtl palette

# normals
vn -1 0 0
vn 1 0 0
vn 0 0 1
vn 0 0 -1
vn 0 -1 0
vn 0 1 0

# texcoords
vt 0.00195312 0.5
vt 0.00585938 0.5
vt 0.0175781 0.5

# verts
v -2.4 1.9 -1.1
v -2.4 1.9 -3
v -2.4 2.1 -1.1
v -2.4 2.1 -3
v -2.3 0 -0.9
v -2.3 0 -1.1
v -2.3 0 -2.8
v -2.3 0 -3
v -2.3 0.2 -1.1
v -2.3 0.2 -1.2
v -2.3 0.2 -2.7
v -2.3 0.2 -2.8
v -2.3 0.5 -0.9
v -2.3 0.5 -1
v -2.3 0.5 -2.9
v -2.3 0.5 -3
v -2.3 0.7 -1
v -2.3 0.7 -1.2
v -2.3 0.7 -2.7
v -2.3 0.7 -2.9
v -2.3 1.9 -0.9
v -2.3 1.9 -1.1
v -2.3 1.9 -3
v -2.3 1.9 -3.1
v -2.3 2.1 -0.9
v -2.3 2.1 -1.1
v -2.3 2.1 -3
v -2.3 2.1 -3.1
v -2.2 0.5 -0.9
v -2.2 0.5 -1
v -2.2 0.5 -2.9
v -2.2 0.5 -3
v -2.2 0.7 -0.9
v -2.2 0.7 -1
v -2.2 0.7 -1.2
v -2.2 0.7 -2.7
v -2.2 0.7 -2.9
v -2.2 0.7 -3
v -2.2 0.9 -1.2
v -2.2 0.9 -1.3
v -2.2 0.9 -2.6
v -2.2 0.9 -2.7
v -2.2 1.1 -1
v -2.2 1.1 -1.1
v -2.2 1.1 -2.8
v -2.2 1.1 -2.9
v -2.2 1.3 -1.1
v -2.2 1.3 -1.3
v -2.2 1.3 -2.6
v -2.2 1.3 -2.8
v -2.2 1.9 -3.1
v -2.2 1.9 -3.2
v -2.2 2.1 -3.1
v -2.2 2.1 -3.2
v -2.1 0.7 -1.2
v -2.1 0.7 -1.3
v -2.1 0.7 -2.6
v -2.1 0.7 -2.7
v -2.1 0.9 -1.2
v -2.1 0.9 -1.3
v -2.1 0.9 -2.6
v -2.1 0.9 -2.7
v -2.1 1.1 -1
v -2.1 1.1 -1.1
v -2.1 1.1 -2.8
v -2.1 1.1 -2.9
v -2.1 1.3 -1
v -2.1 1.3 -1.1
v -2.1 1.3 -1.3
v -2.1 1.3 -2.6
v -2.1 1.3 -2.8
v -2.1 1.3 -2.9
v -2.1 1.4 -1.3
v -2.1 1.4 -1.4
v -2.1 1.4 -2.5
v -2.1 1.4 -2.6
v -2.1 1.7 -1.3
v -2.1 1.7 -1.4
v -2.1 1.7 -2.5
v -2.1 1.7 -2.6
v -2.1 1.9 -0.8
v -2.1 1.9 -0.9
v -2.1 1.9 -1.1
v -2.1 1.9 -1.3
v -2.1 1.9 -2.6
v -2.1 1.9 -2.8
v -2.1 2.1 -0.8
v -2.1 2.1 -0.9
v -2 1.3 -1.3
v -2 1.3 -1.4
v -2 1.3 -2.5
v -2 1.3 -2.6
v -2 1.4 -1.3
v -2 1.4 -1.4
v -2 1.4 -2.5
v -2 1.4 -2.6
v -2 1.7 -1.3
v -2 1.7 -1.4
v -2 1.7 -2.5
v -2 1.7 -2.6
v -2 1.9 -1.3
v -2 1.9 -1.4
v -2 1.9 -2.5
v -2 1.9 -2.6
v 0.7 0 -1.3
v 0.7 0 -3.2
v 0.7 1.9 -1.3
v 0.7 1.9 -3.2
v 1.1 1.9 -0.9
v 1.1 1.9 -1
v 1.1 2.1 -0.9
v 1.1 2.1 -1
v 1.3 0.4 -1.3
v 1.3 0.4 -1.4
v 1.3 0.5 -1.3
v 1.3 0.5 -1.4
v 1.3 1 -1.3
v 1.3 1 -1.4
v 1.3 1.1 -1.3
v 1.3 1.1 -1.4
v 1.3 1.6 -1.3
v 1.3 1.6 -1.4
v 1.3 1.7 -1.3
v 1.3 1.7 -1.4
v 1.4 0.3 -1.3
v 1.4 0.3 -1.4
v 1.4 0.4 -1.3
v 1.4 0.4 -1.4
v 1.4 0.9 -1.3
v 1.4 0.9 -1.4
v 1.4 1 -1.3
v 1.4 1 -1.4
v 1.4 1.5 -1.3
v 1.4 1.5 -1.4
v 1.4 1.6 -1.3
v 1.4 1.6 -1.4
v 1.5 0.4 -1.3
v 1.5 0.4 -1.4
v 1.5 0.5 -1.3
v 1.5 0.5 -1.4
v 1.5 1 -1.3
v 1.5 1 -1.4
v 1.5 1.1 -1.3
v 1.5 1.1 -1.4
v 1.5 1.6 -1.3
v 1.5 1.6 -1.4
v 1.5 1.7 -1.3
v 1.5 1.7 -1.4
v 1.5 1.9 -0.8
v 1.5 1.9 -0.9
v 1.5 2.1 -0.8
v 1.5 2.1 -0.9
v 2.1 0.2 -1.3
v 2.1 0.2 -1.4
v 2.1 0.2 -1.5
v 2.1 0.2 -2.9
v 2.1 0.6 -1.3
v 2.1 0.6 -1.4
v 2.1 0.6 -1.5
v 2.1 0.6 -2.9
v 2.1 0.8 -1.3
v 2.1 0.8 -1.4
v 2.1 0.8 -1.5
v 2.1 0.8 -2.9
v 2.1 1.2 -1.3
v 2.1 1.2 -1.4
v 2.1 1.2 -1.5
v 2.1 1.2 -2.9
v 2.1 1.4 -1.3
v 2.1 1.4 -1.4
v 2.1 1.4 -1.5
v 2.1 1.4 -2.9
v 2.1 1.8 -1.3
v 2.1 1.8 -1.4
v 2.1 1.8 -1.5
v 2.1 1.8 -2.9
v -2.2 0.2 -1.1
v -2.2 0.2 -1.2
v -2.2 0.2 -2.7
v -2.2 0.2 -2.8
v -2.2 0.3 -1.1
v -2.2 0.3 -1.2
v -2.2 0.3 -2.7
v -2.2 0.3 -2.8
v -2.1 0 -0.9
v -2.1 0 -1.1
v -2.1 0 -2.8
v -2.1 0 -3
v -2.1 0.2 -0.9
v -2.1 0.2 -1
v -2.1 0.2 -2.9
v -2.1 0.2 -3
v -2.1 0.3 -1
v -2.1 0.3 -1.1
v -2.1 0.3 -2.8
v -2.1 0.3 -2.9
v -2 0.2 -0.9
v -2 0.2 -1
v -2 0.2 -2.9
v -2 0.2 -3
v -2 0.3 -1
v -2 0.3 -1.2
v -2 0.3 -2.7
v -2 0.3 -2.9
v -2 0.7 -0.9
v -2 0.7 -1
v -2 0.7 -1.1
v -2 0.7 -1.2
v -2 0.7 -1.3
v -2 0.7 -2.6
v -2 0.7 -2.7
v -2 0.7 -2.8
v -2 0.7 -2.9
v -2 0.7 -3
v -2 0.8 -1.2
v -2 0.8 -1.3
v -2 0.8 -2.6
v -2 0.8 -2.7
v -2 0.9 -1
v -2 0.9 -1.1
v -2 0.9 -2.8
v -2 0.9 -2.9
v -1.9 0.7 -1.1
v -1.9 0.7 -1.2
v -1.9 0.7 -2.7
v -1.9 0.7 -2.8
v -1.9 0.8 -1.2
v -1.9 0.8 -1.3
v -1.9 0.8 -2.6
v -1.9 0.8 -2.7
v -1.9 0.9 -1
v -1.9 0.9 -1.1
v -1.9 0.9 -2.8
v -1.9 0.9 -2.9
v -1.9 1.3 -1
v -1.9 1.3 -1.1
v -1.9 1.3 -1.2
v -1.9 1.3 -1.3
v -1.9 1.3 -1.4
v -1.9 1.3 -2.5
v -1.9 1.3 -2.6
v -1.9 1.3 -2.7
v -1.9 1.3 -2.8
v -1.9 1.3 -2.9
v -1.9 1.4 -1.1
v -1.9 1.4 -1.2
v -1.9 1.4 -1.3
v -1.9 1.4 -1.4
v -1.9 1.4 -2.5
v -1.9 1.4 -2.6
v -1.9 1.4 -2.7
v -1.9 1.4 -2.8
v -1.9 1.7 -1.1
v -1.9 1.7 -1.2
v -1.9 1.7 -2.7
v -1.9 1.7 -2.8
v -1.9 1.9 -1.1
v -1.9 1.9 -1.2
v -1.9 1.9 -2.7
v -1.9 1.9 -2.8
v -1.8 1.3 -1.2
v -1.8 1.3 -1.3
v -1.8 1.3 -2.6
v -1.8 1.3 -2.7
v -1.8 1.4 -1.1
v -1.8 1.4 -1.2
v -1.8 1.4 -1.3
v -1.8 1.4 -1.4
v -1.8 1.4 -2.5
v -1.8 1.4 -2.6
v -1.8 1.4 -2.7
v -1.8 1.4 -2.8
v -1.8 1.7 -1.1
v -1.8 1.7 -1.2
v -1.8 1.7 -2.7
v -1.8 1.7 -2.8
v -1.8 1.9 -1.2
v -1.8 1.9 -1.4
v -1.8 1.9 -2.5
v -1.8 1.9 -2.7
v -1.5 1.9 -0.8
v -1.5 1.9 -0.9
v -1.5 2.1 -0.8
v -1.5 2.1 -0.9
v -1.1 1.9 -0.9
v -1.1 1.9 -1
v -1.1 2.1 -0.9
v -1.1 2.1 -1
v 0.8 0.2 -1.3
v 0.8 0.2 -1.4
v 0.8 0.2 -1.5
v 0.8 0.2 -2.9
v 0.8 0.6 -1.3
v 0.8 0.6 -1.4
v 0.8 0.6 -1.5
v 0.8 0.6 -2.9
v 0.8 0.8 -1.3
v 0.8 0.8 -1.4
v 0.8 0.8 -1.5
v 0.8 0.8 -2.9
v 0.8 1.2 -1.3
v 0.8 1.2 -1.4
v 0.8 1.2 -1.5
v 0.8 1.2 -2.9
v 0.8 1.4 -1.3
v 0.8 1.4 -1.4
v 0.8 1.4 -1.5
v 0.8 1.4 -2.9
v 0.8 1.8 -1.3
v 0.8 1.8 -1.4
v 0.8 1.8 -1.5
v 0.8 1.8 -2.9
v 1.4 0.4 -1.3
v 1.4 0.4 -1.4
v 1.4 0.5 -1.3
v 1.4 0.5 -1.4
v 1.4 1 -1.3
v 1.4 1 -1.4
v 1.4 1.1 -1.3
v 1.4 1.1 -1.4
v 1.4 1.6 -1.3
v 1.4 1.6 -1.4
v 1.4 1.7 -1.3
v 1.4 1.7 -1.4
v 1.5 0.3 -1.3
v 1.5 0.3 -1.4
v 1.5 0.4 -1.3
v 1.5 0.4 -1.4
v 1.5 0.9 -1.3
v 1.5 0.9 -1.4
v 1.5 1 -1.3
v 1.5 1 -1.4
v 1.5 1.5 -1.3
v 1.5 1.5 -1.4
v 1.5 1.6 -1.3
v 1.5 1.6 -1.4
v 1.6 0.4 -1.3
v 1.6 0.4 -1.4
v 1.6 0.5 -1.3
v 1.6 0.5 -1.4
v 1.6 1 -1.3
v 1.6 1 -1.4
v 1.6 1.1 -1.3
v 1.6 1.1 -1.4
v 1.6 1.6 -1.3
v 1.6 1.6 -1.4
v 1.6 1.7 -1.3
v 1.6 1.7 -1.4
v 2.1 1.9 -0.8
v 2.1 1.9 -0.9
v 2.1 2.1 -0.8
v 2.1 2.1 -0.9
v 2.2 0 -1.3
v 2.2 0 -3.2
v 2.2 1.9 -1.3
v 2.2 1.9 -3.1
v 2.2 2.1 -3.1
v 2.2 2.1 -3.2
v 2.3 1.9 -0.9
v 2.3 1.9 -1
v 2.3 1.9 -3
v 2.3 1.9 -3.1
v 2.3 2.1 -0.9
v 2.3 2.1 -1
v 2.3 2.1 -3
v 2.3 2.1 -3.1
v 2.4 1.9 -1
v 2.4 1.9 -3
v 2.4 2.1 -1
v 2.4 2.1 -3
v -2.1 1.9 -0.8
v -2.1 2.1 -0.8
v -1.5 1.9 -0.8
v -1.5 2.1 -0.8
v 1.5 1.9 -0.8
v 1.5 2.1 -0.8
v 2.1 1.9 -0.8
v 2.1 2.1 -0.8
v -2.3 0 -0.9
v -2.3 0.5 -0.9
v -2.3 1.9 -0.9
v -2.3 2.1 -0.9
v -2.2 0.5 -0.9
v -2.2 0.7 -0.9
v -2.1 0 -0.9
v -2.1 0.2 -0.9
v -2.1 1.9 -0.9
v -2.1 2.1 -0.9
v -2 0.2 -0.9
v -2 0.7 -0.9
v -1.5 1.9 -0.9
v -1.5 2.1 -0.9
v -1.1 1.9 -0.9
v -1.1 2.1 -0.9
v 1.1 1.9 -0.9
v 1.1 2.1 -0.9
v 1.5 1.9 -0.9
v 1.5 2.1 -0.9
v 2.1 1.9 -0.9
v 2.1 2.1 -0.9
v 2.3 1.9 -0.9
v 2.3 2.1 -0.9
v -2.3 0.5 -1
v -2.3 0.7 -1
v -2.2 0.5 -1
v -2.2 0.7 -1
v -2.2 1.1 -1
v -2.1 1.1 -1
v -2.1 1.3 -1
v -2 0.7 -1
v -2 0.9 -1
v -1.9 0.9 -1
v -1.9 1.3 -1
v -1.1 1.9 -1
v -1.1 2.1 -1
v 1.1 1.9 -1
v 1.1 2.1 -1
v 2.3 1.9 -1
v 2.3 2.1 -1
v 2.4 1.9 -1
v 2.4 2.1 -1
v -2.4 1.9 -1.1
v -2.4 2.1 -1.1
v -2.3 1.9 -1.1
v -2.3 2.1 -1.1
v -2.2 1.1 -1.1
v -2.2 1.3 -1.1
v -2.1 1.1 -1.1
v -2.1 1.3 -1.1
v -2.1 1.9 -1.1
v -2 0.7 -1.1
v -2 0.9 -1.1
v -1.9 0.7 -1.1
v -1.9 0.9 -1.1
v -1.9 1.3 -1.1
v -1.9 1.4 -1.1
v -1.9 1.7 -1.1
v -1.9 1.9 -1.1
v -1.8 1.4 -1.1
v -1.8 1.7 -1.1
v -1.9 1.3 -1.2
v -1.9 1.4 -1.2
v -1.9 1.7 -1.2
v -1.9 1.9 -1.2
v -1.8 1.3 -1.2
v -1.8 1.4 -1.2
v -1.8 1.7 -1.2
v -1.8 1.9 -1.2
v 0.7 0 -1.3
v 0.7 1.9 -1.3
v 0.8 0.2 -1.3
v 0.8 0.6 -1.3
v 0.8 0.8 -1.3
v 0.8 1.2 -1.3
v 0.8 1.4 -1.3
v 0.8 1.8 -1.3
v 1.3 0.4 -1.3
v 1.3 0.5 -1.3
v 1.3 1 -1.3
v 1.3 1.1 -1.3
v 1.3 1.6 -1.3
v 1.3 1.7 -1.3
v 1.4 0.3 -1.3
v 1.4 0.4 -1.3
v 1.4 0.5 -1.3
v 1.4 0.9 -1.3
v 1.4 1 -1.3
v 1.4 1.1 -1.3
v 1.4 1.5 -1.3
v 1.4 1.6 -1.3
v 1.4 1.7 -1.3
v 1.5 0.3 -1.3
v 1.5 0.4 -1.3
v 1.5 0.5 -1.3
v 1.5 0.9 -1.3
v 1.5 1 -1.3
v 1.5 1.1 -1.3
v 1.5 1.5 -1.3
v 1.5 1.6 -1.3
v 1.5 1.7 -1.3
v 1.6 0.4 -1.3
v 1.6 0.5 -1.3
v 1.6 1 -1.3
v 1.6 1.1 -1.3
v 1.6 1.6 -1.3
v 1.6 1.7 -1.3
v 2.1 0.2 -1.3
v 2.1 0.6 -1.3
v 2.1 0.8 -1.3
v 2.1 1.2 -1.3
v 2.1 1.4 -1.3
v 2.1 1.8 -1.3
v 2.2 0 -1.3
v 2.2 1.9 -1.3
v 0.8 0.2 -1.4
v 0.8 0.6 -1.4
v 0.8 0.8 -1.4
v 0.8 1.2 -1.4
v 0.8 1.4 -1.4
v 0.8 1.8 -1.4
v 1.3 0.4 -1.4
v 1.3 0.5 -1.4
v 1.3 1 -1.4
v 1.3 1.1 -1.4
v 1.3 1.6 -1.4
v 1.3 1.7 -1.4
v 1.4 0.3 -1.4
v 1.4 0.4 -1.4
v 1.4 0.5 -1.4
v 1.4 0.9 -1.4
v 1.4 1 -1.4
v 1.4 1.1 -1.4
v 1.4 1.5 -1.4
v 1.4 1.6 -1.4
v 1.4 1.7 -1.4
v 1.5 0.3 -1.4
v 1.5 0.4 -1.4
v 1.5 0.5 -1.4
v 1.5 0.9 -1.4
v 1.5 1 -1.4
v 1.5 1.1 -1.4
v 1.5 1.5 -1.4
v 1.5 1.6 -1.4
v 1.5 1.7 -1.4
v 1.6 0.4 -1.4
v 1.6 0.5 -1.4
v 1.6 1 -1.4
v 1.6 1.1 -1.4
v 1.6 1.6 -1.4
v 1.6 1.7 -1.4
v 2.1 0.2 -1.4
v 2.1 0.6 -1.4
v 2.1 0.8 -1.4
v 2.1 1.2 -1.4
v 2.1 1.4 -1.4
v 2.1 1.8 -1.4
v -2.1 1.4 -2.5
v -2.1 1.7 -2.5
v -2 1.3 -2.5
v -2 1.4 -2.5
v -2 1.7 -2.5
v -2 1.9 -2.5
v -1.9 1.3 -2.5
v -1.9 1.4 -2.5
v -1.8 1.4 -2.5
v -1.8 1.9 -2.5
v -2.2 0.9 -2.6
v -2.2 1.3 -2.6
v -2.1 0.7 -2.6
v -2.1 0.9 -2.6
v -2.1 1.3 -2.6
v -2.1 1.4 -2.6
v -2.1 1.7 -2.6
v -2.1 1.9 -2.6
v -2 0.7 -2.6
v -2 0.8 -2.6
v -2 1.3 -2.6
v -2 1.4 -2.6
v -2 1.7 -2.6
v -2 1.9 -2.6
v -1.9 0.8 -2.6
v -1.9 1.3 -2.6
v -1.9 1.4 -2.6
v -1.8 1.3 -2.6
v -1.8 1.4 -2.6
v -2.3 0.2 -2.7
v -2.3 0.7 -2.7
v -2.2 0.2 -2.7
v -2.2 0.3 -2.7
v -2.2 0.7 -2.7
v -2.2 0.9 -2.7
v -2.1 0.7 -2.7
v -2.1 0.9 -2.7
v -2 0.3 -2.7
v -2 0.7 -2.7
v -2 0.8 -2.7
v -1.9 0.7 -2.7
v -1.9 0.8 -2.7
v -2.3 0 -2.8
v -2.3 0.2 -2.8
v -2.2 0.2 -2.8
v -2.2 0.3 -2.8
v -2.1 0 -2.8
v -2.1 0.3 -2.8
v -2.1 0.2 -2.9
v -2.1 0.3 -2.9
v -2 0.2 -2.9
v -2 0.3 -2.9
v 0.8 0.2 -2.9
v 0.8 0.6 -2.9
v 0.8 0.8 -2.9
v 0.8 1.2 -2.9
v 0.8 1.4 -2.9
v 0.8 1.8 -2.9
v 2.1 0.2 -2.9
v 2.1 0.6 -2.9
v 2.1 0.8 -2.9
v 2.1 1.2 -2.9
v 2.1 1.4 -2.9
v 2.1 1.8 -2.9
v -2.1 0.2 -1
v -2.1 0.3 -1
v -2 0.2 -1
v -2 0.3 -1
v -2.3 0 -1.1
v -2.3 0.2 -1.1
v -2.2 0.2 -1.1
v -2.2 0.3 -1.1
v -2.1 0 -1.1
v -2.1 0.3 -1.1
v -2.3 0.2 -1.2
v -2.3 0.7 -1.2
v -2.2 0.2 -1.2
v -2.2 0.3 -1.2
v -2.2 0.7 -1.2
v -2.2 0.9 -1.2
v -2.1 0.7 -1.2
v -2.1 0.9 -1.2
v -2 0.3 -1.2
v -2 0.7 -1.2
v -2 0.8 -1.2
v -1.9 0.7 -1.2
v -1.9 0.8 -1.2
v -2.2 0.9 -1.3
v -2.2 1.3 -1.3
v -2.1 0.7 -1.3
v -2.1 0.9 -1.3
v -2.1 1.3 -1.3
v -2.1 1.4 -1.3
v -2.1 1.7 -1.3
v -2.1 1.9 -1.3
v -2 0.7 -1.3
v -2 0.8 -1.3
v -2 1.3 -1.3
v -2 1.4 -1.3
v -2 1.7 -1.3
v -2 1.9 -1.3
v -1.9 0.8 -1.3
v -1.9 1.3 -1.3
v -1.9 1.4 -1.3
v -1.8 1.3 -1.3
v -1.8 1.4 -1.3
v -2.1 1.4 -1.4
v -2.1 1.7 -1.4
v -2 1.3 -1.4
v -2 1.4 -1.4
v -2 1.7 -1.4
v -2 1.9 -1.4
v -1.9 1.3 -1.4
v -1.9 1.4 -1.4
v -1.8 1.4 -1.4
v -1.8 1.9 -1.4
v 0.8 0.2 -1.5
v 0.8 0.6 -1.5
v 0.8 0.8 -1.5
v 0.8 1.2 -1.5
v 0.8 1.4 -1.5
v 0.8 1.8 -1.5
v 2.1 0.2 -1.5
v 2.1 0.6 -1.5
v 2.1 0.8 -1.5
v 2.1 1.2 -1.5
v 2.1 1.4 -1.5
v 2.1 1.8 -1.5
v -1.9 1.3 -2.7
v -1.9 1.4 -2.7
v -1.9 1.7 -2.7
v -1.9 1.9 -2.7
v -1.8 1.3 -2.7
v -1.8 1.4 -2.7
v -1.8 1.7 -2.7
v -1.8 1.9 -2.7
v -2.2 1.1 -2.8
v -2.2 1.3 -2.8
v -2.1 1.1 -2.8
v -2.1 1.3 -2.8
v -2.1 1.9 -2.8
v -2 0.7 -2.8
v -2 0.9 -2.8
v -1.9 0.7 -2.8
v -1.9 0.9 -2.8
v -1.9 1.3 -2.8
v -1.9 1.4 -2.8
v -1.9 1.7 -2.8
v -1.9 1.9 -2.8
v -1.8 1.4 -2.8
v -1.8 1.7 -2.8
v -2.3 0.5 -2.9
v -2.3 0.7 -2.9
v -2.2 0.5 -2.9
v -2.2 0.7 -2.9
v -2.2 1.1 -2.9
v -2.1 1.1 -2.9
v -2.1 1.3 -2.9
v -2 0.7 -2.9
v -2 0.9 -2.9
v -1.9 0.9 -2.9
v -1.9 1.3 -2.9
v -2.4 1.9 -3
v -2.4 2.1 -3
v -2.3 0 -3
v -2.3 0.5 -3
v -2.3 1.9 -3
v -2.3 2.1 -3
v -2.2 0.5 -3
v -2.2 0.7 -3
v -2.1 0 -3
v -2.1 0.2 -3
v -2 0.2 -3
v -2 0.7 -3
v 2.3 1.9 -3
v 2.3 2.1 -3
v 2.4 1.9 -3
v 2.4 2.1 -3
v -2.3 1.9 -3.1
v -2.3 2.1 -3.1
v -2.2 1.9 -3.1
v -2.2 2.1 -3.1
v 2.2 1.9 -3.1
v 2.2 2.1 -3.1
v 2.3 1.9 -3.1
v 2.3 2.1 -3.1
v -2.2 1.9 -3.2
v -2.2 2.1 -3.2
v 0.7 0 -3.2
v 0.7 1.9 -3.2
v 2.2 0 -3.2
v 2.2 2.1 -3.2
v -2.3 0 -0.9
v -2.1 0 -0.9
v -2.3 0 -1.1
v -2.1 0 -1.1
v 0.7 0 -1.3
v 2.2 0 -1.3
v -2.3 0 -2.8
v -2.1 0 -2.8
v -2.3 0 -3
v -2.1 0 -3
v 0.7 0 -3.2
v 2.2 0 -3.2
v -2.1 0.2 -0.9
v -2 0.2 -0.9
v -2.1 0.2 -1
v -2 0.2 -1
v -2.3 0.2 -1.1
v -2.2 0.2 -1.1
v -2.3 0.2 -1.2
v -2.2 0.2 -1.2
v -2.3 0.2 -2.7
v -2.2 0.2 -2.7
v -2.3 0.2 -2.8
v -2.2 0.2 -2.8
v -2.1 0.2 -2.9
v -2 0.2 -2.9
v -2.1 0.2 -3
v -2 0.2 -3
v -2.1 0.3 -1
v -2 0.3 -1
v -2.2 0.3 -1.1
v -2.1 0.3 -1.1
v -2.2 0.3 -1.2
v -2 0.3 -1.2
v 1.4 0.3 -1.3
v 1.5 0.3 -1.3
v 1.4 0.3 -1.4
v 1.5 0.3 -1.4
v -2.2 0.3 -2.7
v -2 0.3 -2.7
v -2.2 0.3 -2.8
v -2.1 0.3 -2.8
v -2.1 0.3 -2.9
v -2 0.3 -2.9
v 1.3 0.4 -1.3
v 1.4 0.4 -1.3
v 1.5 0.4 -1.3
v 1.6 0.4 -1.3
v 1.3 0.4 -1.4
v 1.4 0.4 -1.4
v 1.5 0.4 -1.4
v 1.6 0.4 -1.4
v 0.8 0.6 -1.3
v 2.1 0.6 -1.3
v 0.8 0.6 -1.4
v 2.1 0.6 -1.4
v 0.8 0.6 -1.5
v 2.1 0.6 -1.5
v 0.8 0.6 -2.9
v 2.1 0.6 -2.9
v -2 0.7 -1.1
v -1.9 0.7 -1.1
v -2.1 0.7 -1.2
v -2 0.7 -1.2
v -1.9 0.7 -1.2
v -2.1 0.7 -1.3
v -2 0.7 -1.3
v -2.1 0.7 -2.6
v -2 0.7 -2.6
v -2.1 0.7 -2.7
v -2 0.7 -2.7
v -1.9 0.7 -2.7
v -2 0.7 -2.8
v -1.9 0.7 -2.8
v -2 0.8 -1.2
v -1.9 0.8 -1.2
v -2 0.8 -1.3
v -1.9 0.8 -1.3
v -2 0.8 -2.6
v -1.9 0.8 -2.6
v -2 0.8 -2.7
v -1.9 0.8 -2.7
v -2 0.9 -1
v -1.9 0.9 -1
v -2 0.9 -1.1
v -1.9 0.9 -1.1
v -2.2 0.9 -1.2
v -2.1 0.9 -1.2
v -2.2 0.9 -1.3
v -2.1 0.9 -1.3
v 1.4 0.9 -1.3
v 1.5 0.9 -1.3
v 1.4 0.9 -1.4
v 1.5 0.9 -1.4
v -2.2 0.9 -2.6
v -2.1 0.9 -2.6
v -2.2 0.9 -2.7
v -2.1 0.9 -2.7
v -2 0.9 -2.8
v -1.9 0.9 -2.8
v -2 0.9 -2.9
v -1.9 0.9 -2.9
v 1.3 1 -1.3
v 1.4 1 -1.3
v 1.5 1 -1.3
v 1.6 1 -1.3
v 1.3 1 -1.4
v 1.4 1 -1.4
v 1.5 1 -1.4
v 1.6 1 -1.4
v 0.8 1.2 -1.3
v 2.1 1.2 -1.3
v 0.8 1.2 -1.4
v 2.1 1.2 -1.4
v 0.8 1.2 -1.5
v 2.1 1.2 -1.5
v 0.8 1.2 -2.9
v 2.1 1.2 -2.9
v -1.9 1.3 -1.2
v -1.8 1.3 -1.2
v -2 1.3 -1.3
v -1.9 1.3 -1.3
v -1.8 1.3 -1.3
v -2 1.3 -1.4
v -1.9 1.3 -1.4
v -2 1.3 -2.5
v -1.9 1.3 -2.5
v -2 1.3 -2.6
v -1.9 1.3 -2.6
v -1.8 1.3 -2.6
v -1.9 1.3 -2.7
v -1.8 1.3 -2.7
v -1.9 1.4 -1.1
v -1.8 1.4 -1.1
v -1.9 1.4 -1.2
v -1.8 1.4 -1.2
v -2.1 1.4 -1.3
v -2 1.4 -1.3
v -1.9 1.4 -1.3
v -1.8 1.4 -1.3
v -2.1 1.4 -1.4
v -2 1.4 -1.4
v -1.9 1.4 -1.4
v -1.8 1.4 -1.4
v -2.1 1.4 -2.5
v -2 1.4 -2.5
v -1.9 1.4 -2.5
v -1.8 1.4 -2.5
v -2.1 1.4 -2.6
v -2 1.4 -2.6
v -1.9 1.4 -2.6
v -1.8 1.4 -2.6
v -1.9 1.4 -2.7
v -1.8 1.4 -2.7
v -1.9 1.4 -2.8
v -1.8 1.4 -2.8
v 1.4 1.5 -1.3
v 1.5 1.5 -1.3
v 1.4 1.5 -1.4
v 1.5 1.5 -1.4
v 1.3 1.6 -1.3
v 1.4 1.6 -1.3
v 1.5 1.6 -1.3
v 1.6 1.6 -1.3
v 1.3 1.6 -1.4
v 1.4 1.6 -1.4
v 1.5 1.6 -1.4
v 1.6 1.6 -1.4
v 0.8 1.8 -1.3
v 2.1 1.8 -1.3
v 0.8 1.8 -1.4
v 2.1 1.8 -1.4
v 0.8 1.8 -1.5
v 2.1 1.8 -1.5
v 0.8 1.8 -2.9
v 2.1 1.8 -2.9
v -2.1 1.9 -0.8
v -1.5 1.9 -0.8
v 1.5 1.9 -0.8
v 2.1 1.9 -0.8
v -2.3 1.9 -0.9
v -2.1 1.9 -0.9
v -1.5 1.9 -0.9
v -1.1 1.9 -0.9
v 1.1 1.9 -0.9
v 1.5 1.9 -0.9
v 2.1 1.9 -0.9
v 2.3 1.9 -0.9
v -1.1 1.9 -1
v 1.1 1.9 -1
v 2.3 1.9 -1
v 2.4 1.9 -1
v -2.4 1.9 -1.1
v -2.3 1.9 -1.1
v -2.1 1.9 -1.1
v -1.9 1.9 -1.1
v -1.9 1.9 -1.2
v -1.8 1.9 -1.2
v -2.1 1.9 -1.3
v -2 1.9 -1.3
v 0.7 1.9 -1.3
v 2.2 1.9 -1.3
v -2 1.9 -1.4
v -1.8 1.9 -1.4
v -2 1.9 -2.5
v -1.8 1.9 -2.5
v -2.1 1.9 -2.6
v -2 1.9 -2.6
v -1.9 1.9 -2.7
v -1.8 1.9 -2.7
v -2.1 1.9 -2.8
v -1.9 1.9 -2.8
v -2.4 1.9 -3
v -2.3 1.9 -3
v 2.3 1.9 -3
v 2.4 1.9 -3
v -2.3 1.9 -3.1
v -2.2 1.9 -3.1
v 2.2 1.9 -3.1
v 2.3 1.9 -3.1
v -2.2 1.9 -3.2
v 0.7 1.9 -3.2
v 0.8 0.2 -1.3
v 2.1 0.2 -1.3
v 0.8 0.2 -1.4
v 2.1 0.2 -1.4
v 0.8 0.2 -1.5
v 2.1 0.2 -1.5
v 0.8 0.2 -2.9
v 2.1 0.2 -2.9
v 1.4 0.4 -1.3
v 1.5 0.4 -1.3
v 1.4 0.4 -1.4
v 1.5 0.4 -1.4
v -2.3 0.5 -0.9
v -2.2 0.5 -0.9
v -2.3 0.5 -1
v -2.2 0.5 -1
v 1.3 0.5 -1.3
v 1.4 0.5 -1.3
v 1.5 0.5 -1.3
v 1.6 0.5 -1.3
v 1.3 0.5 -1.4
v 1.4 0.5 -1.4
v 1.5 0.5 -1.4
v 1.6 0.5 -1.4
v -2.3 0.5 -2.9
v -2.2 0.5 -2.9
v -2.3 0.5 -3
v -2.2 0.5 -3
v -2.2 0.7 -0.9
v -2 0.7 -0.9
v -2.3 0.7 -1
v -2.2 0.7 -1
v -2 0.7 -1
v -2.3 0.7 -1.2
v -2.2 0.7 -1.2
v -2.3 0.7 -2.7
v -2.2 0.7 -2.7
v -2.3 0.7 -2.9
v -2.2 0.7 -2.9
v -2 0.7 -2.9
v -2.2 0.7 -3
v -2 0.7 -3
v 0.8 0.8 -1.3
v 2.1 0.8 -1.3
v 0.8 0.8 -1.4
v 2.1 0.8 -1.4
v 0.8 0.8 -1.5
v 2.1 0.8 -1.5
v 0.8 0.8 -2.9
v 2.1 0.8 -2.9
v 1.4 1 -1.3
v 1.5 1 -1.3
v 1.4 1 -1.4
v 1.5 1 -1.4
v -2.2 1.1 -1
v -2.1 1.1 -1
v -2.2 1.1 -1.1
v -2.1 1.1 -1.1
v 1.3 1.1 -1.3
v 1.4 1.1 -1.3
v 1.5 1.1 -1.3
v 1.6 1.1 -1.3
v 1.3 1.1 -1.4
v 1.4 1.1 -1.4
v 1.5 1.1 -1.4
v 1.6 1.1 -1.4
v -2.2 1.1 -2.8
v -2.1 1.1 -2.8
v -2.2 1.1 -2.9
v -2.1 1.1 -2.9
v -2.1 1.3 -1
v -1.9 1.3 -1
v -2.2 1.3 -1.1
v -2.1 1.3 -1.1
v -1.9 1.3 -1.1
v -2.2 1.3 -1.3
v -2.1 1.3 -1.3
v -2.2 1.3 -2.6
v -2.1 1.3 -2.6
v -2.2 1.3 -2.8
v -2.1 1.3 -2.8
v -1.9 1.3 -2.8
v -2.1 1.3 -2.9
v -1.9 1.3 -2.9
v 0.8 1.4 -1.3
v 2.1 1.4 -1.3
v 0.8 1.4 -1.4
v 2.1 1.4 -1.4
v 0.8 1.4 -1.5
v 2.1 1.4 -1.5
v 0.8 1.4 -2.9
v 2.1 1.4 -2.9
v 1.4 1.6 -1.3
v 1.5 1.6 -1.3
v 1.4 1.6 -1.4
v 1.5 1.6 -1.4
v -1.9 1.7 -1.1
v -1.8 1.7 -1.1
v -1.9 1.7 -1.2
v -1.8 1.7 -1.2
v -2.1 1.7 -1.3
v -2 1.7 -1.3
v 1.3 1.7 -1.3
v 1.4 1.7 -1.3
v 1.5 1.7 -1.3
v 1.6 1.7 -1.3
v -2.1 1.7 -1.4
v -2 1.7 -1.4
v 1.3 1.7 -1.4
v 1.4 1.7 -1.4
v 1.5 1.7 -1.4
v 1.6 1.7 -1.4
v -2.1 1.7 -2.5
v -2 1.7 -2.5
v -2.1 1.7 -2.6
v -2 1.7 -2.6
v -1.9 1.7 -2.7
v -1.8 1.7 -2.7
v -1.9 1.7 -2.8
v -1.8 1.7 -2.8
v -2.1 2.1 -0.8
v -1.5 2.1 -0.8
v 1.5 2.1 -0.8
v 2.1 2.1 -0.8
v -2.3 2.1 -0.9
v -2.1 2.1 -0.9
v -1.5 2.1 -0.9
v -1.1 2.1 -0.9
v 1.1 2.1 -0.9
v 1.5 2.1 -0.9
v 2.1 2.1 -0.9
v 2.3 2.1 -0.9
v -1.1 2.1 -1
v 1.1 2.1 -1
v 2.3 2.1 -1
v 2.4 2.1 -1
v -2.4 2.1 -1.1
v -2.3 2.1 -1.1
v -2.4 2.1 -3
v -2.3 2.1 -3
v 2.3 2.1 -3
v 2.4 2.1 -3
v -2.3 2.1 -3.1
v -2.2 2.1 -3.1
v 2.2 2.1 -3.1
v 2.3 2.1 -3.1
v -2.2 2.1 -3.2
v 2.2 2.1 -3.2

# faces
f 3/1/1 2/1/1 1/1/1
f 4/1/1 2/1/1 3/1/1
f 9/2/1 6/2/1 5/2/1
f 12/2/1 8/2/1 7/2/1
f 13/2/1 10/2/1 9/2/1
f 13/2/1 9/2/1 5/2/1
f 14/2/1 10/2/1 13/2/1
f 15/2/1 12/2/1 11/2/1
f 15/2/1 8/2/1 12/2/1
f 16/2/1 8/2/1 15/2/1
f 17/2/1 10/2/1 14/2/1
f 18/2/1 10/2/1 17/2/1
f 19/2/1 15/2/1 11/2/1
f 20/2/1 15/2/1 19/2/1
f 25/1/1 22/1/1 21/1/1
f 26/1/1 22/1/1 25/1/1
f 27/1/1 24/1/1 23/1/1
f 28/1/1 24/1/1 27/1/1
f 33/2/1 30/2/1 29/2/1
f 34/2/1 30/2/1 33/2/1
f 37/2/1 32/2/1 31/2/1
f 38/2/1 32/2/1 37/2/1
f 39/2/1 35/2/1 34/2/1
f 42/2/1 37/2/1 36/2/1
f 43/2/1 40/2/1 39/2/1
f 43/2/1 39/2/1 34/2/1
f 44/2/1 40/2/1 43/2/1
f 45/2/1 42/2/1 41/2/1
f 45/2/1 37/2/1 42/2/1
f 46/2/1 37/2/1 45/2/1
f 47/2/1 40/2/1 44/2/1
f 48/2/1 40/2/1 47/2/1
f 49/2/1 45/2/1 41/2/1
f 50/2/1 45/2/1 49/2/1
f 53/1/1 52/1/1 51/1/1
f 54/1/1 52/1/1 53/1/1
f 59/2/1 56/2/1 55/2/1
f 60/2/1 56/2/1 59/2/1
f 61/2/1 58/2/1 57/2/1
f 62/2/1 58/2/1 61/2/1
f 67/2/1 64/2/1 63/2/1
f 68/2/1 64/2/1 67/2/1
f 71/2/1 66/2/1 65/2/1
f 72/2/1 66/2/1 71/2/1
f 73/2/1 69/2/1 68/2/1
f 76/2/1 71/2/1 70/2/1
f 77/2/1 74/2/1 73/2/1
f 77/2/1 73/2/1 68/2/1
f 78/2/1 74/2/1 77/2/1
f 79/2/1 76/2/1 75/2/1
f 80/2/1 71/2/1 76/2/1
f 80/2/1 76/2/1 79/2/1
f 83/2/1 77/2/1 68/2/1
f 84/2/1 77/2/1 83/2/1
f 85/2/1 71/2/1 80/2/1
f 86/2/1 71/2/1 85/2/1
f 87/1/1 82/1/1 81/1/1
f 88/1/1 82/1/1 87/1/1
f 93/2/1 90/2/1 89/2/1
f 94/2/1 90/2/1 93/2/1
f 95/2/1 92/2/1 91/2/1
f 96/2/1 92/2/1 95/2/1
f 101/2/1 98/2/1 97/2/1
f 102/2/1 98/2/1 101/2/1
f 103/2/1 100/2/1 99/2/1
f 104/2/1 100/2/1 103/2/1
f 107/1/1 106/1/1 105/1/1
f 108/1/1 106/1/1 107/1/1
f 111/1/1 110/1/1 109/1/1
f 112/1/1 110/1/1 111/1/1
f 115/3/1 114/3/1 113/3/1
f 116/3/1 114/3/1 115/3/1
f 119/3/1 118/3/1 117/3/1
f 120/3/1 118/3/1 119/3/1
f 123/3/1 122/3/1 121/3/1
f 124/3/1 122/3/1 123/3/1
f 127/3/1 126/3/1 125/3/1
f 128/3/1 126/3/1 127/3/1
f 131/3/1 130/3/1 129/3/1
f 132/3/1 130/3/1 131/3/1
f 135/3/1 134/3/1 133/3/1
f 136/3/1 134/3/1 135/3/1
f 139/3/1 138/3/1 137/3/1
f 140/3/1 138/3/1 139/3/1
f 143/3/1 142/3/1 141/3/1
f 144/3/1 142/3/1 143/3/1
f 147/3/1 146/3/1 145/3/1
f 148/3/1 146/3/1 147/3/1
f 151/1/1 150/1/1 149/1/1
f 152/1/1 150/1/1 151/1/1
f 157/1/1 154/1/1 153/1/1
f 158/1/1 154/1/1 157/1/1
f 159/1/1 156/1/1 155/1/1
f 160/1/1 156/1/1 159/1/1
f 165/1/1 162/1/1 161/1/1
f 166/1/1 162/1/1 165/1/1
f 167/1/1 164/1/1 163/1/1
f 168/1/1 164/1/1 167/1/1
f 173/1/1 170/1/1 169/1/1
f 174/1/1 170/1/1 173/1/1
f 175/1/1 172/1/1 171/1/1
f 176/1/1 172/1/1 175/1/1
f 177/2/2 178/2/2 181/2/2
f 181/2/2 178/2/2 182/2/2
f 179/2/2 180/2/2 183/2/2
f 183/2/2 180/2/2 184/2/2
f 185/2/2 186/2/2 189/2/2
f 189/2/2 186/2/2 190/2/2
f 187/2/2 188/2/2 191/2/2
f 191/2/2 188/2/2 192/2/2
f 190/2/2 186/2/2 193/2/2
f 193/2/2 186/2/2 194/2/2
f 187/2/2 191/2/2 195/2/2
f 195/2/2 191/2/2 196/2/2
f 197/2/2 198/2/2 201/2/2
f 199/2/2 200/2/2 204/2/2
f 201/2/2 202/2/2 205/2/2
f 197/2/2 201/2/2 205/2/2
f 205/2/2 202/2/2 206/2/2
f 206/2/2 202/2/2 207/2/2
f 207/2/2 202/2/2 208/2/2
f 203/2/2 204/2/2 211/2/2
f 211/2/2 204/2/2 212/2/2
f 204/2/2 200/2/2 213/2/2
f 212/2/2 204/2/2 213/2/2
f 213/2/2 200/2/2 214/2/2
f 208/2/2 209/2/2 215/2/2
f 215/2/2 209/2/2 216/2/2
f 210/2/2 211/2/2 217/2/2
f 217/2/2 211/2/2 218/2/2
f 206/2/2 207/2/2 219/2/2
f 219/2/2 207/2/2 220/2/2
f 212/2/2 213/2/2 221/2/2
f 221/2/2 213/2/2 222/2/2
f 223/2/2 224/2/2 227/2/2
f 225/2/2 226/2/2 230/2/2
f 227/2/2 228/2/2 232/2/2
f 223/2/2 227/2/2 232/2/2
f 229/2/2 230/2/2 233/2/2
f 230/2/2 226/2/2 233/2/2
f 231/2/2 232/2/2 235/2/2
f 232/2/2 228/2/2 236/2/2
f 235/2/2 232/2/2 236/2/2
f 236/2/2 228/2/2 237/2/2
f 237/2/2 228/2/2 238/2/2
f 233/2/2 234/2/2 241/2/2
f 229/2/2 233/2/2 241/2/2
f 241/2/2 234/2/2 242/2/2
f 242/2/2 234/2/2 243/2/2
f 243/2/2 234/2/2 244/2/2
f 236/2/2 237/2/2 245/2/2
f 245/2/2 237/2/2 246/2/2
f 238/2/2 239/2/2 247/2/2
f 247/2/2 239/2/2 248/2/2
f 240/2/2 241/2/2 249/2/2
f 249/2/2 241/2/2 250/2/2
f 242/2/2 243/2/2 251/2/2
f 251/2/2 243/2/2 252/2/2
f 253/2/2 254/2/2 257/2/2
f 257/2/2 254/2/2 258/2/2
f 255/2/2 256/2/2 259/2/2
f 259/2/2 256/2/2 260/2/2
f 261/2/2 262/2/2 266/2/2
f 266/2/2 262/2/2 267/2/2
f 263/2/2 264/2/2 270/2/2
f 270/2/2 264/2/2 271/2/2
f 267/2/2 268/2/2 273/2/2
f 265/2/2 266/2/2 273/2/2
f 266/2/2 267/2/2 273/2/2
f 273/2/2 268/2/2 274/2/2
f 271/2/2 272/2/2 275/2/2
f 270/2/2 271/2/2 275/2/2
f 269/2/2 270/2/2 275/2/2
f 275/2/2 272/2/2 276/2/2
f 274/2/2 268/2/2 277/2/2
f 277/2/2 268/2/2 278/2/2
f 269/2/2 275/2/2 279/2/2
f 279/2/2 275/2/2 280/2/2
f 281/1/2 282/1/2 283/1/2
f 283/1/2 282/1/2 284/1/2
f 285/1/2 286/1/2 287/1/2
f 287/1/2 286/1/2 288/1/2
f 289/1/2 290/1/2 293/1/2
f 293/1/2 290/1/2 294/1/2
f 291/1/2 292/1/2 295/1/2
f 295/1/2 292/1/2 296/1/2
f 297/1/2 298/1/2 301/1/2
f 301/1/2 298/1/2 302/1/2
f 299/1/2 300/1/2 303/1/2
f 303/1/2 300/1/2 304/1/2
f 305/1/2 306/1/2 309/1/2
f 309/1/2 306/1/2 310/1/2
f 307/1/2 308/1/2 311/1/2
f 311/1/2 308/1/2 312/1/2
f 313/3/2 314/3/2 315/3/2
f 315/3/2 314/3/2 316/3/2
f 317/3/2 318/3/2 319/3/2
f 319/3/2 318/3/2 320/3/2
f 321/3/2 322/3/2 323/3/2
f 323/3/2 322/3/2 324/3/2
f 325/3/2 326/3/2 327/3/2
f 327/3/2 326/3/2 328/3/2
f 329/3/2 330/3/2 331/3/2
f 331/3/2 330/3/2 332/3/2
f 333/3/2 334/3/2 335/3/2
f 335/3/2 334/3/2 336/3/2
f 337/3/2 338/3/2 339/3/2
f 339/3/2 338/3/2 340/3/2
f 341/3/2 342/3/2 343/3/2
f 343/3/2 342/3/2 344/3/2
f 345/3/2 346/3/2 347/3/2
f 347/3/2 346/3/2 348/3/2
f 349/1/2 350/1/2 351/1/2
f 351/1/2 350/1/2 352/1/2
f 353/1/2 354/1/2 355/1/2
f 355/1/2 354/1/2 356/1/2
f 356/1/2 354/1/2 357/1/2
f 357/1/2 354/1/2 358/1/2
f 359/1/2 360/1/2 363/1/2
f 363/1/2 360/1/2 364/1/2
f 361/1/2 362/1/2 365/1/2
f 365/1/2 362/1/2 366/1/2
f 367/1/2 368/1/2 369/1/2
f 369/1/2 368/1/2 370/1/2
f 373/1/3 372/1/3 371/1/3
f 374/1/3 372/1/3 373/1/3
f 377/1/3 376/1/3 375/1/3
f 378/1/3 376/1/3 377/1/3
f 383/2/3 380/2/3 379/2/3
f 385/2/3 383/2/3 379/2/3
f 385/2/3 384/2/3 383/2/3
f 386/2/3 384/2/3 385/2/3
f 387/1/3 382/1/3 381/1/3
f 388/1/3 382/1/3 387/1/3
f 389/2/3 384/2/3 386/2/3
f 390/2/3 384/2/3 389/2/3
f 393/1/3 392/1/3 391/1/3
f 394/1/3 392/1/3 393/1/3
f 397/1/3 396/1/3 395/1/3
f 398/1/3 396/1/3 397/1/3
f 401/1/3 400/1/3 399/1/3
f 402/1/3 400/1/3 401/1/3
f 405/2/3 404/2/3 403/2/3
f 406/2/3 404/2/3 405/2/3
f 408/2/3 407/2/3 406/2/3
f 410/2/3 408/2/3 406/2/3
f 410/2/3 409/2/3 408/2/3
f 411/2/3 409/2/3 410/2/3
f 412/2/3 409/2/3 411/2/3
f 413/2/3 409/2/3 412/2/3
f 416/1/3 415/1/3 414/1/3
f 417/1/3 415/1/3 416/1/3
f 420/1/3 419/1/3 418/1/3
f 421/1/3 419/1/3 420/1/3
f 424/1/3 423/1/3 422/1/3
f 425/1/3 423/1/3 424/1/3
f 428/2/3 427/2/3 426/2/3
f 429/2/3 427/2/3 428/2/3
f 433/2/3 432/2/3 431/2/3
f 434/2/3 432/2/3 433/2/3
f 435/2/3 430/2/3 429/2/3
f 436/2/3 430/2/3 435/2/3
f 437/2/3 430/2/3 436/2/3
f 438/2/3 430/2/3 437/2/3
f 439/2/3 437/2/3 436/2/3
f 440/2/3 437/2/3 439/2/3
f 445/2/3 442/2/3 441/2/3
f 446/2/3 442/2/3 445/2/3
f 447/2/3 444/2/3 443/2/3
f 448/2/3 444/2/3 447/2/3
f 451/1/3 450/1/3 449/1/3
f 452/1/3 450/1/3 451/1/3
f 453/1/3 450/1/3 452/1/3
f 454/1/3 450/1/3 453/1/3
f 455/1/3 450/1/3 454/1/3
f 456/1/3 450/1/3 455/1/3
f 464/3/3 458/3/3 457/3/3
f 465/3/3 458/3/3 464/3/3
f 467/3/3 460/3/3 459/3/3
f 468/3/3 460/3/3 467/3/3
f 470/3/3 462/3/3 461/3/3
f 471/3/3 462/3/3 470/3/3
f 472/3/3 464/3/3 463/3/3
f 473/3/3 464/3/3 472/3/3
f 475/3/3 467/3/3 466/3/3
f 476/3/3 467/3/3 475/3/3
f 478/3/3 470/3/3 469/3/3
f 479/3/3 470/3/3 478/3/3
f 481/3/3 474/3/3 473/3/3
f 482/3/3 474/3/3 481/3/3
f 483/3/3 477/3/3 476/3/3
f 484/3/3 477/3/3 483/3/3
f 485/3/3 480/3/3 479/3/3
f 486/3/3 480/3/3 485/3/3
f 487/1/3 451/1/3 449/1/3
f 488/1/3 453/1/3 452/1/3
f 489/1/3 453/1/3 488/1/3
f 490/1/3 455/1/3 454/1/3
f 491/1/3 455/1/3 490/1/3
f 492/1/3 450/1/3 456/1/3
f 493/1/3 491/1/3 490/1/3
f 493/1/3 492/1/3 491/1/3
f 493/1/3 490/1/3 489/1/3
f 493/1/3 487/1/3 449/1/3
f 493/1/3 488/1/3 487/1/3
f 493/1/3 489/1/3 488/1/3
f 494/1/3 450/1/3 492/1/3
f 494/1/3 492/1/3 493/1/3
f 501/1/3 496/1/3 495/1/3
f 502/1/3 496/1/3 501/1/3
f 503/1/3 498/1/3 497/1/3
f 504/1/3 498/1/3 503/1/3
f 505/1/3 500/1/3 499/1/3
f 506/1/3 500/1/3 505/1/3
f 507/1/3 501/1/3 495/1/3
f 508/1/3 501/1/3 507/1/3
f 509/1/3 496/1/3 502/1/3
f 510/1/3 503/1/3 497/1/3
f 511/1/3 503/1/3 510/1/3
f 512/1/3 498/1/3 504/1/3
f 513/1/3 505/1/3 499/1/3
f 514/1/3 505/1/3 513/1/3
f 515/1/3 500/1/3 506/1/3
f 516/1/3 507/1/3 495/1/3
f 517/1/3 509/1/3 508/1/3
f 518/1/3 496/1/3 509/1/3
f 518/1/3 509/1/3 517/1/3
f 519/1/3 510/1/3 497/1/3
f 520/1/3 512/1/3 511/1/3
f 521/1/3 498/1/3 512/1/3
f 521/1/3 512/1/3 520/1/3
f 522/1/3 513/1/3 499/1/3
f 523/1/3 515/1/3 514/1/3
f 524/1/3 500/1/3 515/1/3
f 524/1/3 515/1/3 523/1/3
f 525/1/3 517/1/3 516/1/3
f 526/1/3 496/1/3 518/1/3
f 527/1/3 520/1/3 519/1/3
f 528/1/3 498/1/3 521/1/3
f 529/1/3 523/1/3 522/1/3
f 530/1/3 500/1/3 524/1/3
f 531/1/3 516/1/3 495/1/3
f 531/1/3 525/1/3 516/1/3
f 531/1/3 526/1/3 525/1/3
f 532/1/3 496/1/3 526/1/3
f 532/1/3 526/1/3 531/1/3
f 533/1/3 528/1/3 527/1/3
f 533/1/3 519/1/3 497/1/3
f 533/1/3 527/1/3 519/1/3
f 534/1/3 498/1/3 528/1/3
f 534/1/3 528/1/3 533/1/3
f 535/1/3 522/1/3 499/1/3
f 535/1/3 530/1/3 529/1/3
f 535/1/3 529/1/3 522/1/3
f 536/1/3 500/1/3 530/1/3
f 536/1/3 530/1/3 535/1/3
f 540/2/3 538/2/3 537/2/3
f 541/2/3 538/2/3 540/2/3
f 543/2/3 540/2/3 539/2/3
f 543/2/3 542/2/3 541/2/3
f 543/2/3 541/2/3 540/2/3
f 544/2/3 542/2/3 543/2/3
f 545/2/3 542/2/3 544/2/3
f 546/2/3 542/2/3 545/2/3
f 550/2/3 548/2/3 547/2/3
f 551/2/3 548/2/3 550/2/3
f 555/2/3 550/2/3 549/2/3
f 555/2/3 551/2/3 550/2/3
f 555/2/3 552/2/3 551/2/3
f 556/2/3 552/2/3 555/2/3
f 557/2/3 552/2/3 556/2/3
f 558/2/3 552/2/3 557/2/3
f 559/2/3 554/2/3 553/2/3
f 560/2/3 554/2/3 559/2/3
f 561/2/3 557/2/3 556/2/3
f 562/2/3 557/2/3 561/2/3
f 564/2/3 563/2/3 562/2/3
f 565/2/3 563/2/3 564/2/3
f 568/2/3 567/2/3 566/2/3
f 569/2/3 567/2/3 568/2/3
f 570/2/3 567/2/3 569/2/3
f 572/2/3 571/2/3 570/2/3
f 572/2/3 570/2/3 569/2/3
f 573/2/3 571/2/3 572/2/3
f 574/2/3 572/2/3 569/2/3
f 575/2/3 572/2/3 574/2/3
f 577/2/3 576/2/3 575/2/3
f 578/2/3 576/2/3 577/2/3
f 581/2/3 580/2/3 579/2/3
f 583/2/3 581/2/3 579/2/3
f 583/2/3 582/2/3 581/2/3
f 584/2/3 582/2/3 583/2/3
f 587/2/3 586/2/3 585/2/3
f 588/2/3 586/2/3 587/2/3
f 595/1/3 590/1/3 589/1/3
f 596/1/3 590/1/3 595/1/3
f 597/1/3 592/1/3 591/1/3
f 598/1/3 592/1/3 597/1/3
f 599/1/3 594/1/3 593/1/3
f 600/1/3 594/1/3 599/1/3
f 601/2/4 602/2/4 603/2/4
f 603/2/4 602/2/4 604/2/4
f 605/2/4 606/2/4 607/2/4
f 605/2/4 607/2/4 609/2/4
f 607/2/4 608/2/4 609/2/4
f 609/2/4 608/2/4 610/2/4
f 611/2/4 612/2/4 613/2/4
f 613/2/4 612/2/4 614/2/4
f 614/2/4 612/2/4 615/2/4
f 615/2/4 616/2/4 617/2/4
f 614/2/4 615/2/4 617/2/4
f 617/2/4 616/2/4 618/2/4
f 614/2/4 617/2/4 619/2/4
f 619/2/4 617/2/4 620/2/4
f 620/2/4 621/2/4 622/2/4
f 622/2/4 621/2/4 623/2/4
f 624/2/4 625/2/4 627/2/4
f 627/2/4 625/2/4 628/2/4
f 626/2/4 627/2/4 632/2/4
f 627/2/4 628/2/4 632/2/4
f 628/2/4 629/2/4 632/2/4
f 632/2/4 629/2/4 633/2/4
f 633/2/4 629/2/4 634/2/4
f 634/2/4 629/2/4 635/2/4
f 630/2/4 631/2/4 636/2/4
f 636/2/4 631/2/4 637/2/4
f 633/2/4 634/2/4 638/2/4
f 638/2/4 634/2/4 639/2/4
f 639/2/4 640/2/4 641/2/4
f 641/2/4 640/2/4 642/2/4
f 643/2/4 644/2/4 646/2/4
f 646/2/4 644/2/4 647/2/4
f 645/2/4 646/2/4 649/2/4
f 647/2/4 648/2/4 649/2/4
f 646/2/4 647/2/4 649/2/4
f 649/2/4 648/2/4 650/2/4
f 650/2/4 648/2/4 651/2/4
f 651/2/4 648/2/4 652/2/4
f 653/1/4 654/1/4 659/1/4
f 659/1/4 654/1/4 660/1/4
f 655/1/4 656/1/4 661/1/4
f 661/1/4 656/1/4 662/1/4
f 657/1/4 658/1/4 663/1/4
f 663/1/4 658/1/4 664/1/4
f 665/2/4 666/2/4 669/2/4
f 669/2/4 666/2/4 670/2/4
f 667/2/4 668/2/4 671/2/4
f 671/2/4 668/2/4 672/2/4
f 673/2/4 674/2/4 675/2/4
f 675/2/4 674/2/4 676/2/4
f 678/2/4 679/2/4 680/2/4
f 680/2/4 679/2/4 681/2/4
f 676/2/4 677/2/4 682/2/4
f 682/2/4 677/2/4 683/2/4
f 683/2/4 677/2/4 684/2/4
f 684/2/4 677/2/4 685/2/4
f 683/2/4 684/2/4 686/2/4
f 686/2/4 684/2/4 687/2/4
f 688/2/4 689/2/4 690/2/4
f 690/2/4 689/2/4 691/2/4
f 691/2/4 692/2/4 693/2/4
f 691/2/4 693/2/4 695/2/4
f 693/2/4 694/2/4 695/2/4
f 695/2/4 694/2/4 696/2/4
f 696/2/4 694/2/4 697/2/4
f 697/2/4 694/2/4 698/2/4
f 699/1/4 700/1/4 703/1/4
f 703/1/4 700/1/4 704/1/4
f 701/2/4 702/2/4 705/2/4
f 701/2/4 705/2/4 707/2/4
f 705/2/4 706/2/4 707/2/4
f 707/2/4 706/2/4 708/2/4
f 708/2/4 706/2/4 709/2/4
f 709/2/4 706/2/4 710/2/4
f 711/1/4 712/1/4 713/1/4
f 713/1/4 712/1/4 714/1/4
f 715/1/4 716/1/4 717/1/4
f 717/1/4 716/1/4 718/1/4
f 719/1/4 720/1/4 721/1/4
f 721/1/4 720/1/4 722/1/4
f 723/1/4 724/1/4 726/1/4
f 725/1/4 726/1/4 727/1/4
f 726/1/4 724/1/4 728/1/4
f 727/1/4 726/1/4 728/1/4
f 731/2/5 730/2/5 729/2/5
f 732/2/5 730/2/5 731/2/5
f 737/2/5 736/2/5 735/2/5
f 738/2/5 736/2/5 737/2/5
f 739/1/5 734/1/5 733/1/5
f 740/1/5 734/1/5 739/1/5
f 743/2/5 742/2/5 741/2/5
f 744/2/5 742/2/5 743/2/5
f 747/2/5 746/2/5 745/2/5
f 748/2/5 746/2/5 747/2/5
f 751/2/5 750/2/5 749/2/5
f 752/2/5 750/2/5 751/2/5
f 755/2/5 754/2/5 753/2/5
f 756/2/5 754/2/5 755/2/5
f 760/2/5 758/2/5 757/2/5
f 761/2/5 760/2/5 759/2/5
f 762/2/5 758/2/5 760/2/5
f 762/2/5 760/2/5 761/2/5
f 765/3/5 764/3/5 763/3/5
f 766/3/5 764/3/5 765/3/5
f 769/2/5 768/2/5 767/2/5
f 770/2/5 768/2/5 769/2/5
f 771/2/5 768/2/5 770/2/5
f 772/2/5 768/2/5 771/2/5
f 777/3/5 774/3/5 773/3/5
f 778/3/5 774/3/5 777/3/5
f 779/3/5 776/3/5 775/3/5
f 780/3/5 776/3/5 779/3/5
f 783/1/5 782/1/5 781/1/5
f 784/1/5 782/1/5 783/1/5
f 787/1/5 786/1/5 785/1/5
f 788/1/5 786/1/5 787/1/5
f 792/2/5 790/2/5 789/2/5
f 793/2/5 790/2/5 792/2/5
f 794/2/5 792/2/5 791/2/5
f 795/2/5 792/2/5 794/2/5
f 798/2/5 797/2/5 796/2/5
f 799/2/5 797/2/5 798/2/5
f 801/2/5 800/2/5 799/2/5
f 802/2/5 800/2/5 801/2/5
f 805/2/5 804/2/5 803/2/5
f 806/2/5 804/2/5 805/2/5
f 809/2/5 808/2/5 807/2/5
f 810/2/5 808/2/5 809/2/5
f 813/2/5 812/2/5 811/2/5
f 814/2/5 812/2/5 813/2/5
f 817/2/5 816/2/5 815/2/5
f 818/2/5 816/2/5 817/2/5
f 821/3/5 820/3/5 819/3/5
f 822/3/5 820/3/5 821/3/5
f 825/2/5 824/2/5 823/2/5
f 826/2/5 824/2/5 825/2/5
f 829/2/5 828/2/5 827/2/5
f 830/2/5 828/2/5 829/2/5
f 835/3/5 832/3/5 831/3/5
f 836/3/5 832/3/5 835/3/5
f 837/3/5 834/3/5 833/3/5
f 838/3/5 834/3/5 837/3/5
f 841/1/5 840/1/5 839/1/5
f 842/1/5 840/1/5 841/1/5
f 845/1/5 844/1/5 843/1/5
f 846/1/5 844/1/5 845/1/5
f 850/2/5 848/2/5 847/2/5
f 851/2/5 848/2/5 850/2/5
f 852/2/5 850/2/5 849/2/5
f 853/2/5 850/2/5 852/2/5
f 856/2/5 855/2/5 854/2/5
f 857/2/5 855/2/5 856/2/5
f 859/2/5 858/2/5 857/2/5
f 860/2/5 858/2/5 859/2/5
f 863/2/5 862/2/5 861/2/5
f 864/2/5 862/2/5 863/2/5
f 869/2/5 866/2/5 865/2/5
f 870/2/5 866/2/5 869/2/5
f 871/2/5 868/2/5 867/2/5
f 872/2/5 868/2/5 871/2/5
f 877/2/5 874/2/5 873/2/5
f 878/2/5 874/2/5 877/2/5
f 879/2/5 876/2/5 875/2/5
f 880/2/5 876/2/5 879/2/5
f 883/2/5 882/2/5 881/2/5
f 884/2/5 882/2/5 883/2/5
f 887/3/5 886/3/5 885/3/5
f 888/3/5 886/3/5 887/3/5
f 893/3/5 890/3/5 889/3/5
f 894/3/5 890/3/5 893/3/5
f 895/3/5 892/3/5 891/3/5
f 896/3/5 892/3/5 895/3/5
f 899/1/5 898/1/5 897/1/5
f 900/1/5 898/1/5 899/1/5
f 903/1/5 902/1/5 901/1/5
f 904/1/5 902/1/5 903/1/5
f 910/1/5 906/1/5 905/1/5
f 911/1/5 906/1/5 910/1/5
f 914/1/5 908/1/5 907/1/5
f 915/1/5 908/1/5 914/1/5
f 917/1/5 912/1/5 911/1/5
f 917/1/5 910/1/5 909/1/5
f 917/1/5 911/1/5 910/1/5
f 918/1/5 916/1/5 915/1/5
f 918/1/5 915/1/5 914/1/5
f 918/1/5 914/1/5 913/1/5
f 919/1/5 916/1/5 918/1/5
f 922/1/5 917/1/5 909/1/5
f 922/1/5 920/1/5 919/1/5
f 922/1/5 919/1/5 918/1/5
f 922/1/5 918/1/5 917/1/5
f 923/1/5 920/1/5 922/1/5
f 924/1/5 920/1/5 923/1/5
f 925/1/5 920/1/5 924/1/5
f 926/1/5 920/1/5 925/1/5
f 927/1/5 922/1/5 921/1/5
f 927/1/5 923/1/5 922/1/5
f 929/1/5 920/1/5 926/1/5
f 930/1/5 920/1/5 929/1/5
f 931/1/5 928/1/5 927/1/5
f 932/1/5 929/1/5 926/1/5
f 933/1/5 931/1/5 927/1/5
f 933/1/5 932/1/5 931/1/5
f 934/1/5 929/1/5 932/1/5
f 934/1/5 932/1/5 933/1/5
f 935/1/5 927/1/5 921/1/5
f 935/1/5 933/1/5 927/1/5
f 936/1/5 933/1/5 935/1/5
f 938/1/5 929/1/5 934/1/5
f 939/1/5 935/1/5 921/1/5
f 940/1/5 938/1/5 937/1/5
f 941/1/5 939/1/5 921/1/5
f 941/1/5 940/1/5 939/1/5
f 942/1/5 940/1/5 941/1/5
f 943/1/5 920/1/5 930/1/5
f 944/1/5 920/1/5 943/1/5
f 945/1/5 940/1/5 942/1/5
f 946/1/5 940/1/5 945/1/5
f 947/1/5 943/1/5 930/1/5
f 948/1/5 943/1/5 947/1/5
f 949/1/5 940/1/5 946/1/5
f 950/1/5 938/1/5 940/1/5
f 950/1/5 940/1/5 949/1/5
f 950/1/5 929/1/5 938/1/5
f 951/1/6 952/1/6 953/1/6
f 953/1/6 952/1/6 954/1/6
f 955/1/6 956/1/6 957/1/6
f 957/1/6 956/1/6 958/1/6
f 959/3/6 960/3/6 961/3/6
f 961/3/6 960/3/6 962/3/6
f 963/2/6 964/2/6 965/2/6
f 965/2/6 964/2/6 966/2/6
f 967/3/6 968/3/6 971/3/6
f 971/3/6 968/3/6 972/3/6
f 969/3/6 970/3/6 973/3/6
f 973/3/6 970/3/6 974/3/6
f 975/2/6 976/2/6 977/2/6
f 977/2/6 976/2/6 978/2/6
f 979/2/6 980/2/6 982/2/6
f 982/2/6 980/2/6 983/2/6
f 981/2/6 982/2/6 984/2/6
f 984/2/6 982/2/6 985/2/6
f 986/2/6 987/2/6 988/2/6
f 988/2/6 987/2/6 989/2/6
f 989/2/6 990/2/6 991/2/6
f 991/2/6 990/2/6 992/2/6
f 993/1/6 994/1/6 995/1/6
f 995/1/6 994/1/6 996/1/6
f 997/1/6 998/1/6 999/1/6
f 999/1/6 998/1/6 1000/1/6
f 1001/3/6 1002/3/6 1003/3/6
f 1003/3/6 1002/3/6 1004/3/6
f 1005/2/6 1006/2/6 1007/2/6
f 1007/2/6 1006/2/6 1008/2/6
f 1009/3/6 1010/3/6 1013/3/6
f 1013/3/6 1010/3/6 1014/3/6
f 1011/3/6 1012/3/6 1015/3/6
f 1015/3/6 1012/3/6 1016/3/6
f 1017/2/6 1018/2/6 1019/2/6
f 1019/2/6 1018/2/6 1020/2/6
f 1021/2/6 1022/2/6 1024/2/6
f 1024/2/6 1022/2/6 1025/2/6
f 1023/2/6 1024/2/6 1026/2/6
f 1026/2/6 1024/2/6 1027/2/6
f 1028/2/6 1029/2/6 1030/2/6
f 1030/2/6 1029/2/6 1031/2/6
f 1031/2/6 1032/2/6 1033/2/6
f 1033/2/6 1032/2/6 1034/2/6
f 1035/1/6 1036/1/6 1037/1/6
f 1037/1/6 1036/1/6 1038/1/6
f 1039/1/6 1040/1/6 1041/1/6
f 1041/1/6 1040/1/6 1042/1/6
f 1043/3/6 1044/3/6 1045/3/6
f 1045/3/6 1044/3/6 1046/3/6
f 1047/2/6 1048/2/6 1049/2/6
f 1049/2/6 1048/2/6 1050/2/6
f 1051/2/6 1052/2/6 1057/2/6
f 1057/2/6 1052/2/6 1058/2/6
f 1053/3/6 1054/3/6 1059/3/6
f 1059/3/6 1054/3/6 1060/3/6
f 1055/3/6 1056/3/6 1061/3/6
f 1061/3/6 1056/3/6 1062/3/6
f 1063/2/6 1064/2/6 1065/2/6
f 1065/2/6 1064/2/6 1066/2/6
f 1067/2/6 1068/2/6 1069/2/6
f 1069/2/6 1068/2/6 1070/2/6
f 1071/1/6 1072/1/6 1076/1/6
f 1076/1/6 1072/1/6 1077/1/6
f 1073/1/6 1074/1/6 1080/1/6
f 1080/1/6 1074/1/6 1081/1/6
f 1077/1/6 1078/1/6 1083/1/6
f 1075/1/6 1076/1/6 1083/1/6
f 1076/1/6 1077/1/6 1083/1/6
f 1081/1/6 1082/1/6 1084/1/6
f 1080/1/6 1081/1/6 1084/1/6
f 1079/1/6 1080/1/6 1084/1/6
f 1084/1/6 1082/1/6 1085/1/6
f 1075/1/6 1083/1/6 1088/1/6
f 1085/1/6 1086/1/6 1088/1/6
f 1084/1/6 1085/1/6 1088/1/6
f 1083/1/6 1084/1/6 1088/1/6
f 1087/1/6 1088/1/6 1089/1/6
f 1088/1/6 1086/1/6 1090/1/6
f 1089/1/6 1088/1/6 1090/1/6
f 1090/1/6 1086/1/6 1091/1/6
f 1091/1/6 1086/1/6 1092/1/6
f 1090/1/6 1091/1/6 1093/1/6
f 1093/1/6 1091/1/6 1094/1/6
f 1094/1/6 1091/1/6 1095/1/6
f 1095/1/6 1091/1/6 1096/1/6
f 1094/1/6 1095/1/6 1097/1/6
f 1097/1/6 1095/1/6 1098/1/6
