# MagicaVoxel @ Ephtracy

# group
o 

# material
mtllib bedroom_chair.mtl
usemtl palette

# normals
vn -1 0 0
vn 1 0 0
vn 0 0 1
vn 0 0 -1
vn 0 -1 0
vn 0 1 0

# texcoords
vt 0.00195312 0.5
vt 0.0605469 0.5

# verts
v -0.3 2.4 1
v -0.3 2.4 -0.7
v -0.3 2.5 -0.7
v -0.3 2.5 -0.8
v -0.3 2.6 0.6
v -0.3 2.6 -0.8
v -0.3 3.9 0.7
v -0.3 3.9 0.6
v -0.3 4 0.8
v -0.3 4 0.7
v -0.3 4.1 0.9
v -0.3 4.1 0.8
v -0.3 4.2 1
v -0.3 4.2 0.9
v -0.2 2.3 1
v -0.2 2.3 -0.7
v -0.2 2.4 1.1
v -0.2 2.4 1
v -0.2 2.4 -0.7
v -0.2 2.4 -0.8
v -0.2 2.5 -0.7
v -0.2 2.5 -0.8
v -0.2 2.5 -0.9
v -0.2 2.6 -0.8
v -0.2 2.6 -0.9
v -0.2 4.2 1
v -0.2 4.3 1.1
v -0.2 4.3 1
v -0.1 2.3 -0.7
v -0.1 2.3 -0.8
v -0.1 2.4 1.2
v -0.1 2.4 1.1
v -0.1 2.4 -0.7
v -0.1 2.4 -0.8
v -0.1 2.4 -0.9
v -0.1 2.5 -0.8
v -0.1 2.5 -0.9
v -0.1 2.5 -1
v -0.1 2.6 -0.9
v -0.1 2.6 -1
v -0.1 4.3 1.1
v -0.1 4.4 1.2
v -0.1 4.4 1.1
v 0 0.7 1
v 0 0.7 0.8
v 0 0.7 -0.6
v 0 0.7 -0.8
v 0 1.4 1
v 0 1.4 0.9
v 0 1.4 -0.7
v 0 1.4 -0.8
v 0 1.5 0.9
v 0 1.5 0.8
v 0 1.5 -0.6
v 0 1.5 -0.7
v 0 2.3 1.1
v 0 2.3 1
v 0 2.4 1.1
v 0 2.4 1
v 0 4.4 1.2
v 0 4.4 1.1
v 0 4.5 1.2
v 0 4.5 1.1
v 0.1 1.3 0.8
v 0.1 1.3 0.7
v 0.1 1.3 -0.5
v 0.1 1.3 -0.6
v 0.1 1.4 1
v 0.1 1.4 0.9
v 0.1 1.4 -0.7
v 0.1 1.4 -0.8
v 0.1 1.5 1
v 0.1 1.5 0.9
v 0.1 1.5 0.8
v 0.1 1.5 -0.6
v 0.1 1.5 -0.7
v 0.1 1.5 -0.8
v 0.1 1.9 0.9
v 0.1 1.9 0.8
v 0.1 1.9 -0.6
v 0.1 1.9 -0.7
v 0.1 2 0.8
v 0.1 2 0.7
v 0.1 2 -0.5
v 0.1 2 -0.6
v 0.1 2.3 -0.8
v 0.1 2.3 -0.9
v 0.1 2.4 -0.8
v 0.1 2.4 -0.9
v 0.1 2.4 -1
v 0.1 2.5 1.3
v 0.1 2.5 1.2
v 0.1 2.5 -0.9
v 0.1 2.5 -1
v 0.1 2.5 -1.1
v 0.1 2.6 -1
v 0.1 2.6 -1.1
v 0.1 4.5 1.2
v 0.1 4.6 1.3
v 0.1 4.6 1.2
v 0.2 1.8 0.7
v 0.2 1.8 0.6
v 0.2 1.8 -0.4
v 0.2 1.8 -0.5
v 0.2 1.9 0.9
v 0.2 1.9 0.8
v 0.2 1.9 -0.6
v 0.2 1.9 -0.7
v 0.2 2 0.9
v 0.2 2 0.8
v 0.2 2 0.7
v 0.2 2 -0.5
v 0.2 2 -0.6
v 0.2 2 -0.7
v 0.2 2.3 0.8
v 0.2 2.3 0.6
v 0.2 2.3 -0.4
v 0.2 2.3 -0.6
v 0.2 4.6 1.3
v 0.2 4.6 1.2
v 0.2 4.7 1.3
v 0.2 4.7 1.2
v 1.4 1.8 0.8
v 1.4 1.8 0.6
v 1.4 1.8 -0.4
v 1.4 1.8 -0.6
v 1.4 2.3 0.8
v 1.4 2.3 0.6
v 1.4 2.3 -0.4
v 1.4 2.3 -0.6
v 1.5 1.3 0.9
v 1.5 1.3 0.7
v 1.5 1.3 -0.5
v 1.5 1.3 -0.7
v 1.5 1.8 0.8
v 1.5 1.8 0.7
v 1.5 1.8 -0.5
v 1.5 1.8 -0.6
v 1.5 2 0.9
v 1.5 2 0.8
v 1.5 2 -0.6
v 1.5 2 -0.7
v 1.6 0.7 1
v 1.6 0.7 0.8
v 1.6 0.7 -0.6
v 1.6 0.7 -0.8
v 1.6 1.3 0.9
v 1.6 1.3 0.8
v 1.6 1.3 -0.6
v 1.6 1.3 -0.7
v 1.6 1.5 1
v 1.6 1.5 0.9
v 1.6 1.5 -0.7
v 1.6 1.5 -0.8
v 1.7 2.8 1.2
v 1.7 2.8 1.1
v 1.7 4.5 1.2
v 1.7 4.5 1.1
v 1.9 2.6 1
v 1.9 2.6 0.9
v 1.9 2.7 1.1
v 1.9 2.7 1
v 1.9 2.7 0.9
v 1.9 4.3 1.1
v 1.9 4.3 1
v 2 2.6 0.9
v 2 2.6 0.6
v 2 2.7 1
v 2 2.7 0.9
v 2 3.9 0.7
v 2 3.9 0.6
v 2 4 0.8
v 2 4 0.7
v 2 4.1 0.9
v 2 4.1 0.8
v 2 4.2 1
v 2 4.2 0.9
v -0.2 2.6 0.9
v -0.2 2.6 0.6
v -0.2 2.7 1
v -0.2 2.7 0.9
v -0.2 3.9 0.7
v -0.2 3.9 0.6
v -0.2 4 0.8
v -0.2 4 0.7
v -0.2 4.1 0.9
v -0.2 4.1 0.8
v -0.2 4.2 1
v -0.2 4.2 0.9
v -0.1 2.6 1
v -0.1 2.6 0.9
v -0.1 2.7 1.1
v -0.1 2.7 1
v -0.1 2.7 0.9
v -0.1 4.3 1.1
v -0.1 4.3 1
v 0.1 2.8 1.2
v 0.1 2.8 1.1
v 0.1 4.5 1.2
v 0.1 4.5 1.1
v 0.2 0.7 1
v 0.2 0.7 0.8
v 0.2 0.7 -0.6
v 0.2 0.7 -0.8
v 0.2 1.3 0.9
v 0.2 1.3 0.8
v 0.2 1.3 -0.6
v 0.2 1.3 -0.7
v 0.2 1.5 1
v 0.2 1.5 0.9
v 0.2 1.5 -0.7
v 0.2 1.5 -0.8
v 0.3 1.3 0.9
v 0.3 1.3 0.7
v 0.3 1.3 -0.5
v 0.3 1.3 -0.7
v 0.3 1.8 0.8
v 0.3 1.8 0.7
v 0.3 1.8 -0.5
v 0.3 1.8 -0.6
v 0.3 2 0.9
v 0.3 2 0.8
v 0.3 2 -0.6
v 0.3 2 -0.7
v 0.4 1.8 0.8
v 0.4 1.8 0.6
v 0.4 1.8 -0.4
v 0.4 1.8 -0.6
v 0.4 2.3 0.8
v 0.4 2.3 0.6
v 0.4 2.3 -0.4
v 0.4 2.3 -0.6
v 1.6 1.8 0.7
v 1.6 1.8 0.6
v 1.6 1.8 -0.4
v 1.6 1.8 -0.5
v 1.6 1.9 0.9
v 1.6 1.9 0.8
v 1.6 1.9 -0.6
v 1.6 1.9 -0.7
v 1.6 2 0.9
v 1.6 2 0.8
v 1.6 2 0.7
v 1.6 2 -0.5
v 1.6 2 -0.6
v 1.6 2 -0.7
v 1.6 2.3 0.8
v 1.6 2.3 0.6
v 1.6 2.3 -0.4
v 1.6 2.3 -0.6
v 1.6 4.6 1.3
v 1.6 4.6 1.2
v 1.6 4.7 1.3
v 1.6 4.7 1.2
v 1.7 1.3 0.8
v 1.7 1.3 0.7
v 1.7 1.3 -0.5
v 1.7 1.3 -0.6
v 1.7 1.4 1
v 1.7 1.4 0.9
v 1.7 1.4 -0.7
v 1.7 1.4 -0.8
v 1.7 1.5 1
v 1.7 1.5 0.9
v 1.7 1.5 0.8
v 1.7 1.5 -0.6
v 1.7 1.5 -0.7
v 1.7 1.5 -0.8
v 1.7 1.9 0.9
v 1.7 1.9 0.8
v 1.7 1.9 -0.6
v 1.7 1.9 -0.7
v 1.7 2 0.8
v 1.7 2 0.7
v 1.7 2 -0.5
v 1.7 2 -0.6
v 1.7 2.3 -0.8
v 1.7 2.3 -0.9
v 1.7 2.4 -0.8
v 1.7 2.4 -0.9
v 1.7 2.4 -1
v 1.7 2.5 1.3
v 1.7 2.5 1.2
v 1.7 2.5 -0.9
v 1.7 2.5 -1
v 1.7 2.5 -1.1
v 1.7 2.6 -1
v 1.7 2.6 -1.1
v 1.7 4.5 1.2
v 1.7 4.6 1.3
v 1.7 4.6 1.2
v 1.8 0.7 1
v 1.8 0.7 0.8
v 1.8 0.7 -0.6
v 1.8 0.7 -0.8
v 1.8 1.4 1
v 1.8 1.4 0.9
v 1.8 1.4 -0.7
v 1.8 1.4 -0.8
v 1.8 1.5 0.9
v 1.8 1.5 0.8
v 1.8 1.5 -0.6
v 1.8 1.5 -0.7
v 1.8 2.3 1.1
v 1.8 2.3 1
v 1.8 2.4 1.1
v 1.8 2.4 1
v 1.8 4.4 1.2
v 1.8 4.4 1.1
v 1.8 4.5 1.2
v 1.8 4.5 1.1
v 1.9 2.3 -0.7
v 1.9 2.3 -0.8
v 1.9 2.4 1.2
v 1.9 2.4 1.1
v 1.9 2.4 -0.7
v 1.9 2.4 -0.8
v 1.9 2.4 -0.9
v 1.9 2.5 -0.8
v 1.9 2.5 -0.9
v 1.9 2.5 -1
v 1.9 2.6 -0.9
v 1.9 2.6 -1
v 1.9 4.3 1.1
v 1.9 4.4 1.2
v 1.9 4.4 1.1
v 2 2.3 1
v 2 2.3 -0.7
v 2 2.4 1.1
v 2 2.4 1
v 2 2.4 -0.7
v 2 2.4 -0.8
v 2 2.5 -0.7
v 2 2.5 -0.8
v 2 2.5 -0.9
v 2 2.6 -0.8
v 2 2.6 -0.9
v 2 4.2 1
v 2 4.3 1.1
v 2 4.3 1
v 2.1 2.4 1
v 2.1 2.4 -0.7
v 2.1 2.5 -0.7
v 2.1 2.5 -0.8
v 2.1 2.6 0.6
v 2.1 2.6 -0.8
v 2.1 3.9 0.7
v 2.1 3.9 0.6
v 2.1 4 0.8
v 2.1 4 0.7
v 2.1 4.1 0.9
v 2.1 4.1 0.8
v 2.1 4.2 1
v 2.1 4.2 0.9
v 0.1 2.5 1.3
v 0.1 4.6 1.3
v 0.2 4.6 1.3
v 0.2 4.7 1.3
v 1.6 4.6 1.3
v 1.6 4.7 1.3
v 1.7 2.5 1.3
v 1.7 4.6 1.3
v -0.1 2.4 1.2
v -0.1 4.4 1.2
v 0 4.4 1.2
v 0 4.5 1.2
v 0.1 2.5 1.2
v 0.1 4.5 1.2
v 1.7 2.5 1.2
v 1.7 4.5 1.2
v 1.8 4.4 1.2
v 1.8 4.5 1.2
v 1.9 2.4 1.2
v 1.9 4.4 1.2
v -0.2 2.4 1.1
v -0.2 4.3 1.1
v -0.1 2.4 1.1
v -0.1 4.3 1.1
v 0 2.3 1.1
v 0 2.4 1.1
v 1.8 2.3 1.1
v 1.8 2.4 1.1
v 1.9 2.4 1.1
v 1.9 4.3 1.1
v 2 2.4 1.1
v 2 4.3 1.1
v -0.3 2.4 1
v -0.3 4.2 1
v -0.2 2.3 1
v -0.2 2.4 1
v -0.2 4.2 1
v 0 0.7 1
v 0 1.4 1
v 0 2.3 1
v 0 2.4 1
v 0.1 1.4 1
v 0.1 1.5 1
v 0.2 0.7 1
v 0.2 1.5 1
v 1.6 0.7 1
v 1.6 1.5 1
v 1.7 1.4 1
v 1.7 1.5 1
v 1.8 0.7 1
v 1.8 1.4 1
v 1.8 2.3 1
v 1.8 2.4 1
v 2 2.3 1
v 2 2.4 1
v 2 4.2 1
v 2.1 2.4 1
v 2.1 4.2 1
v 0 1.4 0.9
v 0 1.5 0.9
v 0.1 1.4 0.9
v 0.1 1.5 0.9
v 0.1 1.9 0.9
v 0.2 1.3 0.9
v 0.2 1.5 0.9
v 0.2 1.9 0.9
v 0.2 2 0.9
v 0.3 1.3 0.9
v 0.3 2 0.9
v 1.5 1.3 0.9
v 1.5 2 0.9
v 1.6 1.3 0.9
v 1.6 1.5 0.9
v 1.6 1.9 0.9
v 1.6 2 0.9
v 1.7 1.4 0.9
v 1.7 1.5 0.9
v 1.7 1.9 0.9
v 1.8 1.4 0.9
v 1.8 1.5 0.9
v 0.1 1.9 0.8
v 0.1 2 0.8
v 0.2 1.9 0.8
v 0.2 2 0.8
v 0.2 2.3 0.8
v 0.3 1.8 0.8
v 0.3 2 0.8
v 0.4 1.8 0.8
v 0.4 2.3 0.8
v 1.4 1.8 0.8
v 1.4 2.3 0.8
v 1.5 1.8 0.8
v 1.5 2 0.8
v 1.6 1.9 0.8
v 1.6 2 0.8
v 1.6 2.3 0.8
v 1.7 1.9 0.8
v 1.7 2 0.8
v 0.2 1.8 -0.4
v 0.2 2.3 -0.4
v 0.4 1.8 -0.4
v 0.4 2.3 -0.4
v 1.4 1.8 -0.4
v 1.4 2.3 -0.4
v 1.6 1.8 -0.4
v 1.6 2.3 -0.4
v 0.1 1.3 -0.5
v 0.1 2 -0.5
v 0.2 1.8 -0.5
v 0.2 2 -0.5
v 0.3 1.3 -0.5
v 0.3 1.8 -0.5
v 1.5 1.3 -0.5
v 1.5 1.8 -0.5
v 1.6 1.8 -0.5
v 1.6 2 -0.5
v 1.7 1.3 -0.5
v 1.7 2 -0.5
v 0 0.7 -0.6
v 0 1.5 -0.6
v 0.1 1.3 -0.6
v 0.1 1.5 -0.6
v 0.2 0.7 -0.6
v 0.2 1.3 -0.6
v 1.6 0.7 -0.6
v 1.6 1.3 -0.6
v 1.7 1.3 -0.6
v 1.7 1.5 -0.6
v 1.8 0.7 -0.6
v 1.8 1.5 -0.6
v 0.1 2.8 1.2
v 0.1 4.5 1.2
v 0.1 4.6 1.2
v 0.2 4.6 1.2
v 0.2 4.7 1.2
v 1.6 4.6 1.2
v 1.6 4.7 1.2
v 1.7 2.8 1.2
v 1.7 4.5 1.2
v 1.7 4.6 1.2
v -0.1 2.7 1.1
v -0.1 4.3 1.1
v -0.1 4.4 1.1
v 0 4.4 1.1
v 0 4.5 1.1
v 0.1 2.8 1.1
v 0.1 4.5 1.1
v 1.7 2.8 1.1
v 1.7 4.5 1.1
v 1.8 4.4 1.1
v 1.8 4.5 1.1
v 1.9 2.7 1.1
v 1.9 4.3 1.1
v 1.9 4.4 1.1
v -0.2 2.7 1
v -0.2 4.2 1
v -0.2 4.3 1
v -0.1 2.6 1
v -0.1 2.7 1
v -0.1 4.3 1
v 1.9 2.6 1
v 1.9 2.7 1
v 1.9 4.3 1
v 2 2.7 1
v 2 4.2 1
v 2 4.3 1
v -0.3 4.1 0.9
v -0.3 4.2 0.9
v -0.2 2.6 0.9
v -0.2 2.7 0.9
v -0.2 4.1 0.9
v -0.2 4.2 0.9
v -0.1 2.6 0.9
v -0.1 2.7 0.9
v 1.9 2.6 0.9
v 1.9 2.7 0.9
v 2 2.6 0.9
v 2 2.7 0.9
v 2 4.1 0.9
v 2 4.2 0.9
v 2.1 4.1 0.9
v 2.1 4.2 0.9
v -0.3 4 0.8
v -0.3 4.1 0.8
v -0.2 4 0.8
v -0.2 4.1 0.8
v 0 0.7 0.8
v 0 1.5 0.8
v 0.1 1.3 0.8
v 0.1 1.5 0.8
v 0.2 0.7 0.8
v 0.2 1.3 0.8
v 1.6 0.7 0.8
v 1.6 1.3 0.8
v 1.7 1.3 0.8
v 1.7 1.5 0.8
v 1.8 0.7 0.8
v 1.8 1.5 0.8
v 2 4 0.8
v 2 4.1 0.8
v 2.1 4 0.8
v 2.1 4.1 0.8
v -0.3 3.9 0.7
v -0.3 4 0.7
v -0.2 3.9 0.7
v -0.2 4 0.7
v 0.1 1.3 0.7
v 0.1 2 0.7
v 0.2 1.8 0.7
v 0.2 2 0.7
v 0.3 1.3 0.7
v 0.3 1.8 0.7
v 1.5 1.3 0.7
v 1.5 1.8 0.7
v 1.6 1.8 0.7
v 1.6 2 0.7
v 1.7 1.3 0.7
v 1.7 2 0.7
v 2 3.9 0.7
v 2 4 0.7
v 2.1 3.9 0.7
v 2.1 4 0.7
v -0.3 2.6 0.6
v -0.3 3.9 0.6
v -0.2 2.6 0.6
v -0.2 3.9 0.6
v 0.2 1.8 0.6
v 0.2 2.3 0.6
v 0.4 1.8 0.6
v 0.4 2.3 0.6
v 1.4 1.8 0.6
v 1.4 2.3 0.6
v 1.6 1.8 0.6
v 1.6 2.3 0.6
v 2 2.6 0.6
v 2 3.9 0.6
v 2.1 2.6 0.6
v 2.1 3.9 0.6
v 0.1 1.9 -0.6
v 0.1 2 -0.6
v 0.2 1.9 -0.6
v 0.2 2 -0.6
v 0.2 2.3 -0.6
v 0.3 1.8 -0.6
v 0.3 2 -0.6
v 0.4 1.8 -0.6
v 0.4 2.3 -0.6
v 1.4 1.8 -0.6
v 1.4 2.3 -0.6
v 1.5 1.8 -0.6
v 1.5 2 -0.6
v 1.6 1.9 -0.6
v 1.6 2 -0.6
v 1.6 2.3 -0.6
v 1.7 1.9 -0.6
v 1.7 2 -0.6
v -0.3 2.4 -0.7
v -0.3 2.5 -0.7
v -0.2 2.3 -0.7
v -0.2 2.4 -0.7
v -0.2 2.5 -0.7
v -0.1 2.3 -0.7
v -0.1 2.4 -0.7
v 0 1.4 -0.7
v 0 1.5 -0.7
v 0.1 1.4 -0.7
v 0.1 1.5 -0.7
v 0.1 1.9 -0.7
v 0.2 1.3 -0.7
v 0.2 1.5 -0.7
v 0.2 1.9 -0.7
v 0.2 2 -0.7
v 0.3 1.3 -0.7
v 0.3 2 -0.7
v 1.5 1.3 -0.7
v 1.5 2 -0.7
v 1.6 1.3 -0.7
v 1.6 1.5 -0.7
v 1.6 1.9 -0.7
v 1.6 2 -0.7
v 1.7 1.4 -0.7
v 1.7 1.5 -0.7
v 1.7 1.9 -0.7
v 1.8 1.4 -0.7
v 1.8 1.5 -0.7
v 1.9 2.3 -0.7
v 1.9 2.4 -0.7
v 2 2.3 -0.7
v 2 2.4 -0.7
v 2 2.5 -0.7
v 2.1 2.4 -0.7
v 2.1 2.5 -0.7
v -0.3 2.5 -0.8
v -0.3 2.6 -0.8
v -0.2 2.4 -0.8
v -0.2 2.5 -0.8
v -0.2 2.6 -0.8
v -0.1 2.3 -0.8
v -0.1 2.4 -0.8
v -0.1 2.5 -0.8
v 0 0.7 -0.8
v 0 1.4 -0.8
v 0.1 1.4 -0.8
v 0.1 1.5 -0.8
v 0.1 2.3 -0.8
v 0.1 2.4 -0.8
v 0.2 0.7 -0.8
v 0.2 1.5 -0.8
v 1.6 0.7 -0.8
v 1.6 1.5 -0.8
v 1.7 1.4 -0.8
v 1.7 1.5 -0.8
v 1.7 2.3 -0.8
v 1.7 2.4 -0.8
v 1.8 0.7 -0.8
v 1.8 1.4 -0.8
v 1.9 2.3 -0.8
v 1.9 2.4 -0.8
v 1.9 2.5 -0.8
v 2 2.4 -0.8
v 2 2.5 -0.8
v 2 2.6 -0.8
v 2.1 2.5 -0.8
v 2.1 2.6 -0.8
v -0.2 2.5 -0.9
v -0.2 2.6 -0.9
v -0.1 2.4 -0.9
v -0.1 2.5 -0.9
v -0.1 2.6 -0.9
v 0.1 2.3 -0.9
v 0.1 2.4 -0.9
v 0.1 2.5 -0.9
v 1.7 2.3 -0.9
v 1.7 2.4 -0.9
v 1.7 2.5 -0.9
v 1.9 2.4 -0.9
v 1.9 2.5 -0.9
v 1.9 2.6 -0.9
v 2 2.5 -0.9
v 2 2.6 -0.9
v -0.1 2.5 -1
v -0.1 2.6 -1
v 0.1 2.4 -1
v 0.1 2.5 -1
v 0.1 2.6 -1
v 1.7 2.4 -1
v 1.7 2.5 -1
v 1.7 2.6 -1
v 1.9 2.5 -1
v 1.9 2.6 -1
v 0.1 2.5 -1.1
v 0.1 2.6 -1.1
v 1.7 2.5 -1.1
v 1.7 2.6 -1.1
v 0 0.7 1
v 0.2 0.7 1
v 1.6 0.7 1
v 1.8 0.7 1
v 0 0.7 0.8
v 0.2 0.7 0.8
v 1.6 0.7 0.8
v 1.8 0.7 0.8
v 0 0.7 -0.6
v 0.2 0.7 -0.6
v 1.6 0.7 -0.6
v 1.8 0.7 -0.6
v 0 0.7 -0.8
v 0.2 0.7 -0.8
v 1.6 0.7 -0.8
v 1.8 0.7 -0.8
v 0.2 1.3 0.9
v 0.3 1.3 0.9
v 1.5 1.3 0.9
v 1.6 1.3 0.9
v 0.1 1.3 0.8
v 0.2 1.3 0.8
v 1.6 1.3 0.8
v 1.7 1.3 0.8
v 0.1 1.3 0.7
v 0.3 1.3 0.7
v 1.5 1.3 0.7
v 1.7 1.3 0.7
v 0.1 1.3 -0.5
v 0.3 1.3 -0.5
v 1.5 1.3 -0.5
v 1.7 1.3 -0.5
v 0.1 1.3 -0.6
v 0.2 1.3 -0.6
v 1.6 1.3 -0.6
v 1.7 1.3 -0.6
v 0.2 1.3 -0.7
v 0.3 1.3 -0.7
v 1.5 1.3 -0.7
v 1.6 1.3 -0.7
v 0.3 1.8 0.8
v 0.4 1.8 0.8
v 1.4 1.8 0.8
v 1.5 1.8 0.8
v 0.2 1.8 0.7
v 0.3 1.8 0.7
v 1.5 1.8 0.7
v 1.6 1.8 0.7
v 0.2 1.8 0.6
v 0.4 1.8 0.6
v 1.4 1.8 0.6
v 1.6 1.8 0.6
v 0.2 1.8 -0.4
v 0.4 1.8 -0.4
v 1.4 1.8 -0.4
v 1.6 1.8 -0.4
v 0.2 1.8 -0.5
v 0.3 1.8 -0.5
v 1.5 1.8 -0.5
v 1.6 1.8 -0.5
v 0.3 1.8 -0.6
v 0.4 1.8 -0.6
v 1.4 1.8 -0.6
v 1.5 1.8 -0.6
v 0 2.3 1.1
v 1.8 2.3 1.1
v -0.2 2.3 1
v 0 2.3 1
v 1.8 2.3 1
v 2 2.3 1
v 0.2 2.3 0.8
v 0.4 2.3 0.8
v 1.4 2.3 0.8
v 1.6 2.3 0.8
v 0.2 2.3 0.6
v 0.4 2.3 0.6
v 1.4 2.3 0.6
v 1.6 2.3 0.6
v 0.2 2.3 -0.4
v 0.4 2.3 -0.4
v 1.4 2.3 -0.4
v 1.6 2.3 -0.4
v 0.2 2.3 -0.6
v 0.4 2.3 -0.6
v 1.4 2.3 -0.6
v 1.6 2.3 -0.6
v -0.2 2.3 -0.7
v -0.1 2.3 -0.7
v 1.9 2.3 -0.7
v 2 2.3 -0.7
v -0.1 2.3 -0.8
v 0.1 2.3 -0.8
v 1.7 2.3 -0.8
v 1.9 2.3 -0.8
v 0.1 2.3 -0.9
v 1.7 2.3 -0.9
v -0.1 2.4 1.2
v 1.9 2.4 1.2
v -0.2 2.4 1.1
v -0.1 2.4 1.1
v 0 2.4 1.1
v 1.8 2.4 1.1
v 1.9 2.4 1.1
v 2 2.4 1.1
v -0.3 2.4 1
v -0.2 2.4 1
v 0 2.4 1
v 1.8 2.4 1
v 2 2.4 1
v 2.1 2.4 1
v -0.3 2.4 -0.7
v -0.2 2.4 -0.7
v -0.1 2.4 -0.7
v 1.9 2.4 -0.7
v 2 2.4 -0.7
v 2.1 2.4 -0.7
v -0.2 2.4 -0.8
v -0.1 2.4 -0.8
v 0.1 2.4 -0.8
v 1.7 2.4 -0.8
v 1.9 2.4 -0.8
v 2 2.4 -0.8
v -0.1 2.4 -0.9
v 0.1 2.4 -0.9
v 1.7 2.4 -0.9
v 1.9 2.4 -0.9
v 0.1 2.4 -1
v 1.7 2.4 -1
v 0.1 2.5 1.3
v 1.7 2.5 1.3
v 0.1 2.5 1.2
v 1.7 2.5 1.2
v -0.3 2.5 -0.7
v -0.2 2.5 -0.7
v 2 2.5 -0.7
v 2.1 2.5 -0.7
v -0.3 2.5 -0.8
v -0.2 2.5 -0.8
v -0.1 2.5 -0.8
v 1.9 2.5 -0.8
v 2 2.5 -0.8
v 2.1 2.5 -0.8
v -0.2 2.5 -0.9
v -0.1 2.5 -0.9
v 0.1 2.5 -0.9
v 1.7 2.5 -0.9
v 1.9 2.5 -0.9
v 2 2.5 -0.9
v -0.1 2.5 -1
v 0.1 2.5 -1
v 1.7 2.5 -1
v 1.9 2.5 -1
v 0.1 2.5 -1.1
v 1.7 2.5 -1.1
v 0 1.4 1
v 0.1 1.4 1
v 1.7 1.4 1
v 1.8 1.4 1
v 0 1.4 0.9
v 0.1 1.4 0.9
v 1.7 1.4 0.9
v 1.8 1.4 0.9
v 0 1.4 -0.7
v 0.1 1.4 -0.7
v 1.7 1.4 -0.7
v 1.8 1.4 -0.7
v 0 1.4 -0.8
v 0.1 1.4 -0.8
v 1.7 1.4 -0.8
v 1.8 1.4 -0.8
v 0.1 1.5 1
v 0.2 1.5 1
v 1.6 1.5 1
v 1.7 1.5 1
v 0 1.5 0.9
v 0.1 1.5 0.9
v 0.2 1.5 0.9
v 1.6 1.5 0.9
v 1.7 1.5 0.9
v 1.8 1.5 0.9
v 0 1.5 0.8
v 0.1 1.5 0.8
v 1.7 1.5 0.8
v 1.8 1.5 0.8
v 0 1.5 -0.6
v 0.1 1.5 -0.6
v 1.7 1.5 -0.6
v 1.8 1.5 -0.6
v 0 1.5 -0.7
v 0.1 1.5 -0.7
v 0.2 1.5 -0.7
v 1.6 1.5 -0.7
v 1.7 1.5 -0.7
v 1.8 1.5 -0.7
v 0.1 1.5 -0.8
v 0.2 1.5 -0.8
v 1.6 1.5 -0.8
v 1.7 1.5 -0.8
v 0.1 1.9 0.9
v 0.2 1.9 0.9
v 1.6 1.9 0.9
v 1.7 1.9 0.9
v 0.1 1.9 0.8
v 0.2 1.9 0.8
v 1.6 1.9 0.8
v 1.7 1.9 0.8
v 0.1 1.9 -0.6
v 0.2 1.9 -0.6
v 1.6 1.9 -0.6
v 1.7 1.9 -0.6
v 0.1 1.9 -0.7
v 0.2 1.9 -0.7
v 1.6 1.9 -0.7
v 1.7 1.9 -0.7
v 0.2 2 0.9
v 0.3 2 0.9
v 1.5 2 0.9
v 1.6 2 0.9
v 0.1 2 0.8
v 0.2 2 0.8
v 0.3 2 0.8
v 1.5 2 0.8
v 1.6 2 0.8
v 1.7 2 0.8
v 0.1 2 0.7
v 0.2 2 0.7
v 1.6 2 0.7
v 1.7 2 0.7
v 0.1 2 -0.5
v 0.2 2 -0.5
v 1.6 2 -0.5
v 1.7 2 -0.5
v 0.1 2 -0.6
v 0.2 2 -0.6
v 0.3 2 -0.6
v 1.5 2 -0.6
v 1.6 2 -0.6
v 1.7 2 -0.6
v 0.2 2 -0.7
v 0.3 2 -0.7
v 1.5 2 -0.7
v 1.6 2 -0.7
v -0.1 2.6 1
v 1.9 2.6 1
v -0.2 2.6 0.9
v -0.1 2.6 0.9
v 1.9 2.6 0.9
v 2 2.6 0.9
v -0.3 2.6 0.6
v -0.2 2.6 0.6
v 2 2.6 0.6
v 2.1 2.6 0.6
v -0.3 2.6 -0.8
v -0.2 2.6 -0.8
v 2 2.6 -0.8
v 2.1 2.6 -0.8
v -0.2 2.6 -0.9
v -0.1 2.6 -0.9
v 1.9 2.6 -0.9
v 2 2.6 -0.9
v -0.1 2.6 -1
v 0.1 2.6 -1
v 1.7 2.6 -1
v 1.9 2.6 -1
v 0.1 2.6 -1.1
v 1.7 2.6 -1.1
v -0.1 2.7 1.1
v 1.9 2.7 1.1
v -0.2 2.7 1
v -0.1 2.7 1
v 1.9 2.7 1
v 2 2.7 1
v -0.2 2.7 0.9
v -0.1 2.7 0.9
v 1.9 2.7 0.9
v 2 2.7 0.9
v 0.1 2.8 1.2
v 1.7 2.8 1.2
v 0.1 2.8 1.1
v 1.7 2.8 1.1
v -0.3 3.9 0.7
v -0.2 3.9 0.7
v 2 3.9 0.7
v 2.1 3.9 0.7
v -0.3 3.9 0.6
v -0.2 3.9 0.6
v 2 3.9 0.6
v 2.1 3.9 0.6
v -0.3 4 0.8
v -0.2 4 0.8
v 2 4 0.8
v 2.1 4 0.8
v -0.3 4 0.7
v -0.2 4 0.7
v 2 4 0.7
v 2.1 4 0.7
v -0.3 4.1 0.9
v -0.2 4.1 0.9
v 2 4.1 0.9
v 2.1 4.1 0.9
v -0.3 4.1 0.8
v -0.2 4.1 0.8
v 2 4.1 0.8
v 2.1 4.1 0.8
v -0.3 4.2 1
v -0.2 4.2 1
v 2 4.2 1
v 2.1 4.2 1
v -0.3 4.2 0.9
v -0.2 4.2 0.9
v 2 4.2 0.9
v 2.1 4.2 0.9
v -0.2 4.3 1.1
v -0.1 4.3 1.1
v 1.9 4.3 1.1
v 2 4.3 1.1
v -0.2 4.3 1
v -0.1 4.3 1
v 1.9 4.3 1
v 2 4.3 1
v -0.1 4.4 1.2
v 0 4.4 1.2
v 1.8 4.4 1.2
v 1.9 4.4 1.2
v -0.1 4.4 1.1
v 0 4.4 1.1
v 1.8 4.4 1.1
v 1.9 4.4 1.1
v 0 4.5 1.2
v 0.1 4.5 1.2
v 1.7 4.5 1.2
v 1.8 4.5 1.2
v 0 4.5 1.1
v 0.1 4.5 1.1
v 1.7 4.5 1.1
v 1.8 4.5 1.1
v 0.1 4.6 1.3
v 0.2 4.6 1.3
v 1.6 4.6 1.3
v 1.7 4.6 1.3
v 0.1 4.6 1.2
v 0.2 4.6 1.2
v 1.6 4.6 1.2
v 1.7 4.6 1.2
v 0.2 4.7 1.3
v 1.6 4.7 1.3
v 0.2 4.7 1.2
v 1.6 4.7 1.2

# faces
f 3/1/1 2/1/1 1/1/1
f 5/1/1 3/1/1 1/1/1
f 5/1/1 4/1/1 3/1/1
f 6/1/1 4/1/1 5/1/1
f 7/1/1 5/1/1 1/1/1
f 8/1/1 5/1/1 7/1/1
f 9/1/1 7/1/1 1/1/1
f 10/1/1 7/1/1 9/1/1
f 11/1/1 9/1/1 1/1/1
f 12/1/1 9/1/1 11/1/1
f 13/1/1 11/1/1 1/1/1
f 14/1/1 11/1/1 13/1/1
f 18/1/1 16/1/1 15/1/1
f 19/1/1 16/1/1 18/1/1
f 21/1/1 20/1/1 19/1/1
f 22/1/1 20/1/1 21/1/1
f 24/1/1 23/1/1 22/1/1
f 25/1/1 23/1/1 24/1/1
f 26/1/1 18/1/1 17/1/1
f 27/1/1 26/1/1 17/1/1
f 28/1/1 26/1/1 27/1/1
f 33/1/1 30/1/1 29/1/1
f 34/1/1 30/1/1 33/1/1
f 36/1/1 35/1/1 34/1/1
f 37/1/1 35/1/1 36/1/1
f 39/1/1 38/1/1 37/1/1
f 40/1/1 38/1/1 39/1/1
f 41/1/1 32/1/1 31/1/1
f 42/1/1 41/1/1 31/1/1
f 43/1/1 41/1/1 42/1/1
f 48/2/1 45/2/1 44/2/1
f 49/2/1 45/2/1 48/2/1
f 50/2/1 47/2/1 46/2/1
f 51/2/1 47/2/1 50/2/1
f 52/2/1 45/2/1 49/2/1
f 53/2/1 45/2/1 52/2/1
f 54/2/1 50/2/1 46/2/1
f 55/2/1 50/2/1 54/2/1
f 58/1/1 57/1/1 56/1/1
f 59/1/1 57/1/1 58/1/1
f 62/1/1 61/1/1 60/1/1
f 63/1/1 61/1/1 62/1/1
f 72/2/1 69/2/1 68/2/1
f 73/2/1 69/2/1 72/2/1
f 74/2/1 65/2/1 64/2/1
f 75/2/1 67/2/1 66/2/1
f 76/2/1 71/2/1 70/2/1
f 77/2/1 71/2/1 76/2/1
f 78/2/1 74/2/1 73/2/1
f 79/2/1 65/2/1 74/2/1
f 79/2/1 74/2/1 78/2/1
f 80/2/1 76/2/1 75/2/1
f 80/2/1 75/2/1 66/2/1
f 81/2/1 76/2/1 80/2/1
f 82/2/1 65/2/1 79/2/1
f 83/2/1 65/2/1 82/2/1
f 84/2/1 80/2/1 66/2/1
f 85/2/1 80/2/1 84/2/1
f 88/1/1 87/1/1 86/1/1
f 89/1/1 87/1/1 88/1/1
f 93/1/1 90/1/1 89/1/1
f 94/1/1 90/1/1 93/1/1
f 96/1/1 95/1/1 94/1/1
f 97/1/1 95/1/1 96/1/1
f 98/1/1 92/1/1 91/1/1
f 99/1/1 98/1/1 91/1/1
f 100/1/1 98/1/1 99/1/1
f 109/2/1 106/2/1 105/2/1
f 110/2/1 106/2/1 109/2/1
f 111/2/1 102/2/1 101/2/1
f 112/2/1 104/2/1 103/2/1
f 113/2/1 108/2/1 107/2/1
f 114/2/1 108/2/1 113/2/1
f 115/2/1 111/2/1 110/2/1
f 116/2/1 102/2/1 111/2/1
f 116/2/1 111/2/1 115/2/1
f 117/2/1 113/2/1 112/2/1
f 117/2/1 112/2/1 103/2/1
f 118/2/1 113/2/1 117/2/1
f 121/1/1 120/1/1 119/1/1
f 122/1/1 120/1/1 121/1/1
f 127/2/1 124/2/1 123/2/1
f 128/2/1 124/2/1 127/2/1
f 129/2/1 126/2/1 125/2/1
f 130/2/1 126/2/1 129/2/1
f 135/2/1 132/2/1 131/2/1
f 136/2/1 132/2/1 135/2/1
f 137/2/1 134/2/1 133/2/1
f 138/2/1 134/2/1 137/2/1
f 139/2/1 135/2/1 131/2/1
f 140/2/1 135/2/1 139/2/1
f 141/2/1 134/2/1 138/2/1
f 142/2/1 134/2/1 141/2/1
f 147/2/1 144/2/1 143/2/1
f 148/2/1 144/2/1 147/2/1
f 149/2/1 146/2/1 145/2/1
f 150/2/1 146/2/1 149/2/1
f 151/2/1 147/2/1 143/2/1
f 152/2/1 147/2/1 151/2/1
f 153/2/1 146/2/1 150/2/1
f 154/2/1 146/2/1 153/2/1
f 157/1/1 156/1/1 155/1/1
f 158/1/1 156/1/1 157/1/1
f 162/1/1 160/1/1 159/1/1
f 163/1/1 160/1/1 162/1/1
f 164/1/1 162/1/1 161/1/1
f 165/1/1 162/1/1 164/1/1
f 169/1/1 167/1/1 166/1/1
f 170/1/1 167/1/1 169/1/1
f 170/1/1 169/1/1 168/1/1
f 171/1/1 167/1/1 170/1/1
f 172/1/1 170/1/1 168/1/1
f 173/1/1 170/1/1 172/1/1
f 174/1/1 172/1/1 168/1/1
f 175/1/1 172/1/1 174/1/1
f 176/1/1 174/1/1 168/1/1
f 177/1/1 174/1/1 176/1/1
f 178/1/2 179/1/2 181/1/2
f 181/1/2 179/1/2 182/1/2
f 180/1/2 181/1/2 182/1/2
f 182/1/2 179/1/2 183/1/2
f 180/1/2 182/1/2 184/1/2
f 184/1/2 182/1/2 185/1/2
f 180/1/2 184/1/2 186/1/2
f 186/1/2 184/1/2 187/1/2
f 180/1/2 186/1/2 188/1/2
f 188/1/2 186/1/2 189/1/2
f 190/1/2 191/1/2 193/1/2
f 193/1/2 191/1/2 194/1/2
f 192/1/2 193/1/2 195/1/2
f 195/1/2 193/1/2 196/1/2
f 197/1/2 198/1/2 199/1/2
f 199/1/2 198/1/2 200/1/2
f 201/2/2 202/2/2 205/2/2
f 205/2/2 202/2/2 206/2/2
f 203/2/2 204/2/2 207/2/2
f 207/2/2 204/2/2 208/2/2
f 201/2/2 205/2/2 209/2/2
f 209/2/2 205/2/2 210/2/2
f 208/2/2 204/2/2 211/2/2
f 211/2/2 204/2/2 212/2/2
f 213/2/2 214/2/2 217/2/2
f 217/2/2 214/2/2 218/2/2
f 215/2/2 216/2/2 219/2/2
f 219/2/2 216/2/2 220/2/2
f 213/2/2 217/2/2 221/2/2
f 221/2/2 217/2/2 222/2/2
f 220/2/2 216/2/2 223/2/2
f 223/2/2 216/2/2 224/2/2
f 225/2/2 226/2/2 229/2/2
f 229/2/2 226/2/2 230/2/2
f 227/2/2 228/2/2 231/2/2
f 231/2/2 228/2/2 232/2/2
f 237/2/2 238/2/2 241/2/2
f 241/2/2 238/2/2 242/2/2
f 233/2/2 234/2/2 243/2/2
f 235/2/2 236/2/2 244/2/2
f 239/2/2 240/2/2 245/2/2
f 245/2/2 240/2/2 246/2/2
f 242/2/2 243/2/2 247/2/2
f 243/2/2 234/2/2 248/2/2
f 247/2/2 243/2/2 248/2/2
f 244/2/2 245/2/2 249/2/2
f 235/2/2 244/2/2 249/2/2
f 249/2/2 245/2/2 250/2/2
f 251/1/2 252/1/2 253/1/2
f 253/1/2 252/1/2 254/1/2
f 259/2/2 260/2/2 263/2/2
f 263/2/2 260/2/2 264/2/2
f 255/2/2 256/2/2 265/2/2
f 257/2/2 258/2/2 266/2/2
f 261/2/2 262/2/2 267/2/2
f 267/2/2 262/2/2 268/2/2
f 264/2/2 265/2/2 269/2/2
f 265/2/2 256/2/2 270/2/2
f 269/2/2 265/2/2 270/2/2
f 266/2/2 267/2/2 271/2/2
f 257/2/2 266/2/2 271/2/2
f 271/2/2 267/2/2 272/2/2
f 270/2/2 256/2/2 273/2/2
f 273/2/2 256/2/2 274/2/2
f 257/2/2 271/2/2 275/2/2
f 275/2/2 271/2/2 276/2/2
f 277/1/2 278/1/2 279/1/2
f 279/1/2 278/1/2 280/1/2
f 280/1/2 281/1/2 284/1/2
f 284/1/2 281/1/2 285/1/2
f 285/1/2 286/1/2 287/1/2
f 287/1/2 286/1/2 288/1/2
f 282/1/2 283/1/2 289/1/2
f 282/1/2 289/1/2 290/1/2
f 290/1/2 289/1/2 291/1/2
f 292/2/2 293/2/2 296/2/2
f 296/2/2 293/2/2 297/2/2
f 294/2/2 295/2/2 298/2/2
f 298/2/2 295/2/2 299/2/2
f 297/2/2 293/2/2 300/2/2
f 300/2/2 293/2/2 301/2/2
f 294/2/2 298/2/2 302/2/2
f 302/2/2 298/2/2 303/2/2
f 304/1/2 305/1/2 306/1/2
f 306/1/2 305/1/2 307/1/2
f 308/1/2 309/1/2 310/1/2
f 310/1/2 309/1/2 311/1/2
f 312/1/2 313/1/2 316/1/2
f 316/1/2 313/1/2 317/1/2
f 317/1/2 318/1/2 319/1/2
f 319/1/2 318/1/2 320/1/2
f 320/1/2 321/1/2 322/1/2
f 322/1/2 321/1/2 323/1/2
f 314/1/2 315/1/2 324/1/2
f 314/1/2 324/1/2 325/1/2
f 325/1/2 324/1/2 326/1/2
f 327/1/2 328/1/2 330/1/2
f 330/1/2 328/1/2 331/1/2
f 331/1/2 332/1/2 333/1/2
f 333/1/2 332/1/2 334/1/2
f 334/1/2 335/1/2 336/1/2
f 336/1/2 335/1/2 337/1/2
f 329/1/2 330/1/2 338/1/2
f 329/1/2 338/1/2 339/1/2
f 339/1/2 338/1/2 340/1/2
f 341/1/2 342/1/2 343/1/2
f 341/1/2 343/1/2 345/1/2
f 343/1/2 344/1/2 345/1/2
f 345/1/2 344/1/2 346/1/2
f 341/1/2 345/1/2 347/1/2
f 347/1/2 345/1/2 348/1/2
f 341/1/2 347/1/2 349/1/2
f 349/1/2 347/1/2 350/1/2
f 341/1/2 349/1/2 351/1/2
f 351/1/2 349/1/2 352/1/2
f 341/1/2 351/1/2 353/1/2
f 353/1/2 351/1/2 354/1/2
f 357/1/3 356/1/3 355/1/3
f 359/1/3 357/1/3 355/1/3
f 359/1/3 358/1/3 357/1/3
f 360/1/3 358/1/3 359/1/3
f 361/1/3 359/1/3 355/1/3
f 362/1/3 359/1/3 361/1/3
f 365/1/3 364/1/3 363/1/3
f 367/1/3 365/1/3 363/1/3
f 367/1/3 366/1/3 365/1/3
f 368/1/3 366/1/3 367/1/3
f 369/1/3 367/1/3 363/1/3
f 371/1/3 370/1/3 369/1/3
f 372/1/3 370/1/3 371/1/3
f 373/1/3 369/1/3 363/1/3
f 373/1/3 371/1/3 369/1/3
f 374/1/3 371/1/3 373/1/3
f 377/1/3 376/1/3 375/1/3
f 378/1/3 376/1/3 377/1/3
f 381/1/3 380/1/3 379/1/3
f 382/1/3 380/1/3 381/1/3
f 385/1/3 384/1/3 383/1/3
f 386/1/3 384/1/3 385/1/3
f 390/1/3 388/1/3 387/1/3
f 391/1/3 388/1/3 390/1/3
f 394/1/3 390/1/3 389/1/3
f 395/1/3 390/1/3 394/1/3
f 396/2/3 393/2/3 392/2/3
f 398/2/3 396/2/3 392/2/3
f 398/2/3 397/2/3 396/2/3
f 399/2/3 397/2/3 398/2/3
f 402/2/3 401/2/3 400/2/3
f 403/2/3 401/2/3 402/2/3
f 404/2/3 402/2/3 400/2/3
f 405/2/3 402/2/3 404/2/3
f 408/1/3 407/1/3 406/1/3
f 409/1/3 407/1/3 408/1/3
f 411/1/3 410/1/3 409/1/3
f 412/1/3 410/1/3 411/1/3
f 415/2/3 414/2/3 413/2/3
f 416/2/3 414/2/3 415/2/3
f 419/2/3 417/2/3 416/2/3
f 420/2/3 417/2/3 419/2/3
f 422/2/3 419/2/3 418/2/3
f 422/2/3 421/2/3 420/2/3
f 422/2/3 420/2/3 419/2/3
f 423/2/3 421/2/3 422/2/3
f 426/2/3 425/2/3 424/2/3
f 427/2/3 425/2/3 426/2/3
f 428/2/3 425/2/3 427/2/3
f 429/2/3 425/2/3 428/2/3
f 431/2/3 428/2/3 427/2/3
f 432/2/3 428/2/3 431/2/3
f 433/2/3 431/2/3 430/2/3
f 434/2/3 431/2/3 433/2/3
f 437/2/3 436/2/3 435/2/3
f 438/2/3 436/2/3 437/2/3
f 441/2/3 439/2/3 438/2/3
f 442/2/3 441/2/3 440/2/3
f 443/2/3 439/2/3 441/2/3
f 443/2/3 441/2/3 442/2/3
f 446/2/3 445/2/3 444/2/3
f 447/2/3 445/2/3 446/2/3
f 449/2/3 445/2/3 447/2/3
f 450/2/3 445/2/3 449/2/3
f 451/2/3 449/2/3 448/2/3
f 452/2/3 449/2/3 451/2/3
f 455/2/3 454/2/3 453/2/3
f 456/2/3 454/2/3 455/2/3
f 459/2/3 458/2/3 457/2/3
f 460/2/3 458/2/3 459/2/3
f 463/2/3 462/2/3 461/2/3
f 464/2/3 462/2/3 463/2/3
f 465/2/3 463/2/3 461/2/3
f 466/2/3 463/2/3 465/2/3
f 469/2/3 468/2/3 467/2/3
f 471/2/3 469/2/3 467/2/3
f 471/2/3 470/2/3 469/2/3
f 472/2/3 470/2/3 471/2/3
f 475/2/3 474/2/3 473/2/3
f 476/2/3 474/2/3 475/2/3
f 477/2/3 475/2/3 473/2/3
f 478/2/3 475/2/3 477/2/3
f 481/2/3 480/2/3 479/2/3
f 483/2/3 481/2/3 479/2/3
f 483/2/3 482/2/3 481/2/3
f 484/2/3 482/2/3 483/2/3
f 485/1/4 486/1/4 488/1/4
f 486/1/4 487/1/4 488/1/4
f 485/1/4 488/1/4 490/1/4
f 488/1/4 489/1/4 490/1/4
f 490/1/4 489/1/4 491/1/4
f 485/1/4 490/1/4 492/1/4
f 492/1/4 490/1/4 493/1/4
f 493/1/4 490/1/4 494/1/4
f 495/1/4 496/1/4 498/1/4
f 496/1/4 497/1/4 498/1/4
f 495/1/4 498/1/4 500/1/4
f 498/1/4 499/1/4 500/1/4
f 500/1/4 499/1/4 501/1/4
f 495/1/4 500/1/4 502/1/4
f 502/1/4 503/1/4 504/1/4
f 504/1/4 503/1/4 505/1/4
f 495/1/4 502/1/4 506/1/4
f 502/1/4 504/1/4 506/1/4
f 506/1/4 504/1/4 507/1/4
f 507/1/4 504/1/4 508/1/4
f 509/1/4 510/1/4 513/1/4
f 510/1/4 511/1/4 513/1/4
f 513/1/4 511/1/4 514/1/4
f 512/1/4 513/1/4 515/1/4
f 515/1/4 513/1/4 516/1/4
f 516/1/4 517/1/4 518/1/4
f 518/1/4 517/1/4 519/1/4
f 519/1/4 517/1/4 520/1/4
f 521/1/4 522/1/4 525/1/4
f 525/1/4 522/1/4 526/1/4
f 523/1/4 524/1/4 527/1/4
f 527/1/4 524/1/4 528/1/4
f 529/1/4 530/1/4 531/1/4
f 531/1/4 530/1/4 532/1/4
f 533/1/4 534/1/4 535/1/4
f 535/1/4 534/1/4 536/1/4
f 537/1/4 538/1/4 539/1/4
f 539/1/4 538/1/4 540/1/4
f 541/2/4 542/2/4 543/2/4
f 543/2/4 542/2/4 544/2/4
f 541/2/4 543/2/4 545/2/4
f 545/2/4 543/2/4 546/2/4
f 547/2/4 548/2/4 549/2/4
f 547/2/4 549/2/4 551/2/4
f 549/2/4 550/2/4 551/2/4
f 551/2/4 550/2/4 552/2/4
f 553/1/4 554/1/4 555/1/4
f 555/1/4 554/1/4 556/1/4
f 557/1/4 558/1/4 559/1/4
f 559/1/4 558/1/4 560/1/4
f 561/2/4 562/2/4 563/2/4
f 563/2/4 562/2/4 564/2/4
f 561/2/4 563/2/4 565/2/4
f 565/2/4 563/2/4 566/2/4
f 567/2/4 568/2/4 569/2/4
f 567/2/4 569/2/4 571/2/4
f 569/2/4 570/2/4 571/2/4
f 571/2/4 570/2/4 572/2/4
f 573/1/4 574/1/4 575/1/4
f 575/1/4 574/1/4 576/1/4
f 577/1/4 578/1/4 579/1/4
f 579/1/4 578/1/4 580/1/4
f 581/2/4 582/2/4 583/2/4
f 583/2/4 582/2/4 584/2/4
f 585/2/4 586/2/4 587/2/4
f 587/2/4 586/2/4 588/2/4
f 589/1/4 590/1/4 591/1/4
f 591/1/4 590/1/4 592/1/4
f 593/2/4 594/2/4 595/2/4
f 595/2/4 594/2/4 596/2/4
f 596/2/4 597/2/4 599/2/4
f 598/2/4 599/2/4 600/2/4
f 599/2/4 597/2/4 601/2/4
f 600/2/4 599/2/4 601/2/4
f 602/2/4 603/2/4 604/2/4
f 604/2/4 603/2/4 605/2/4
f 605/2/4 603/2/4 607/2/4
f 607/2/4 603/2/4 608/2/4
f 606/2/4 607/2/4 609/2/4
f 609/2/4 607/2/4 610/2/4
f 611/1/4 612/1/4 614/1/4
f 614/1/4 612/1/4 615/1/4
f 613/1/4 614/1/4 616/1/4
f 616/1/4 614/1/4 617/1/4
f 618/2/4 619/2/4 620/2/4
f 620/2/4 619/2/4 621/2/4
f 621/2/4 622/2/4 624/2/4
f 624/2/4 622/2/4 625/2/4
f 623/2/4 624/2/4 627/2/4
f 625/2/4 626/2/4 627/2/4
f 624/2/4 625/2/4 627/2/4
f 627/2/4 626/2/4 628/2/4
f 629/2/4 630/2/4 631/2/4
f 631/2/4 630/2/4 632/2/4
f 632/2/4 630/2/4 633/2/4
f 633/2/4 630/2/4 634/2/4
f 632/2/4 633/2/4 636/2/4
f 636/2/4 633/2/4 637/2/4
f 635/2/4 636/2/4 638/2/4
f 638/2/4 636/2/4 639/2/4
f 640/1/4 641/1/4 642/1/4
f 642/1/4 641/1/4 643/1/4
f 643/1/4 644/1/4 645/1/4
f 645/1/4 644/1/4 646/1/4
f 647/1/4 648/1/4 650/1/4
f 650/1/4 648/1/4 651/1/4
f 649/1/4 650/1/4 653/1/4
f 653/1/4 650/1/4 654/1/4
f 655/2/4 656/2/4 657/2/4
f 652/1/4 653/1/4 659/1/4
f 659/1/4 653/1/4 660/1/4
f 657/2/4 658/2/4 661/2/4
f 655/2/4 657/2/4 661/2/4
f 661/2/4 658/2/4 662/2/4
f 663/2/4 664/2/4 665/2/4
f 665/2/4 664/2/4 666/2/4
f 663/2/4 665/2/4 669/2/4
f 669/2/4 665/2/4 670/2/4
f 667/1/4 668/1/4 671/1/4
f 671/1/4 668/1/4 672/1/4
f 672/1/4 673/1/4 674/1/4
f 674/1/4 673/1/4 675/1/4
f 675/1/4 676/1/4 677/1/4
f 677/1/4 676/1/4 678/1/4
f 679/1/4 680/1/4 682/1/4
f 682/1/4 680/1/4 683/1/4
f 681/1/4 682/1/4 685/1/4
f 685/1/4 682/1/4 686/1/4
f 684/1/4 685/1/4 687/1/4
f 687/1/4 685/1/4 688/1/4
f 688/1/4 689/1/4 690/1/4
f 690/1/4 689/1/4 691/1/4
f 691/1/4 692/1/4 693/1/4
f 693/1/4 692/1/4 694/1/4
f 695/1/4 696/1/4 698/1/4
f 698/1/4 696/1/4 699/1/4
f 697/1/4 698/1/4 700/1/4
f 700/1/4 698/1/4 701/1/4
f 701/1/4 702/1/4 703/1/4
f 703/1/4 702/1/4 704/1/4
f 705/1/4 706/1/4 707/1/4
f 707/1/4 706/1/4 708/1/4
f 713/2/5 710/2/5 709/2/5
f 714/2/5 710/2/5 713/2/5
f 715/2/5 712/2/5 711/2/5
f 716/2/5 712/2/5 715/2/5
f 721/2/5 718/2/5 717/2/5
f 722/2/5 718/2/5 721/2/5
f 723/2/5 720/2/5 719/2/5
f 724/2/5 720/2/5 723/2/5
f 730/2/5 726/2/5 725/2/5
f 731/2/5 728/2/5 727/2/5
f 733/2/5 730/2/5 729/2/5
f 734/2/5 726/2/5 730/2/5
f 734/2/5 730/2/5 733/2/5
f 735/2/5 732/2/5 731/2/5
f 735/2/5 731/2/5 727/2/5
f 736/2/5 732/2/5 735/2/5
f 741/2/5 738/2/5 737/2/5
f 742/2/5 738/2/5 741/2/5
f 743/2/5 740/2/5 739/2/5
f 744/2/5 740/2/5 743/2/5
f 745/2/5 738/2/5 742/2/5
f 746/2/5 738/2/5 745/2/5
f 747/2/5 743/2/5 739/2/5
f 748/2/5 743/2/5 747/2/5
f 754/2/5 750/2/5 749/2/5
f 755/2/5 752/2/5 751/2/5
f 757/2/5 754/2/5 753/2/5
f 758/2/5 750/2/5 754/2/5
f 758/2/5 754/2/5 757/2/5
f 759/2/5 756/2/5 755/2/5
f 759/2/5 755/2/5 751/2/5
f 760/2/5 756/2/5 759/2/5
f 765/2/5 762/2/5 761/2/5
f 766/2/5 762/2/5 765/2/5
f 767/2/5 764/2/5 763/2/5
f 768/2/5 764/2/5 767/2/5
f 769/2/5 762/2/5 766/2/5
f 770/2/5 762/2/5 769/2/5
f 771/2/5 767/2/5 763/2/5
f 772/2/5 767/2/5 771/2/5
f 776/1/5 774/1/5 773/1/5
f 777/1/5 774/1/5 776/1/5
f 779/1/5 776/1/5 775/1/5
f 779/1/5 778/1/5 777/1/5
f 779/1/5 777/1/5 776/1/5
f 780/1/5 778/1/5 779/1/5
f 781/1/5 778/1/5 780/1/5
f 782/1/5 778/1/5 781/1/5
f 783/1/5 779/1/5 775/1/5
f 784/1/5 781/1/5 780/1/5
f 785/1/5 781/1/5 784/1/5
f 786/1/5 778/1/5 782/1/5
f 787/1/5 785/1/5 784/1/5
f 787/1/5 786/1/5 785/1/5
f 787/1/5 783/1/5 775/1/5
f 787/1/5 784/1/5 783/1/5
f 788/1/5 786/1/5 787/1/5
f 789/1/5 786/1/5 788/1/5
f 790/1/5 778/1/5 786/1/5
f 790/1/5 786/1/5 789/1/5
f 791/1/5 787/1/5 775/1/5
f 792/1/5 789/1/5 788/1/5
f 793/1/5 789/1/5 792/1/5
f 794/1/5 778/1/5 790/1/5
f 795/1/5 791/1/5 775/1/5
f 795/1/5 794/1/5 793/1/5
f 795/1/5 793/1/5 792/1/5
f 795/1/5 792/1/5 791/1/5
f 796/1/5 794/1/5 795/1/5
f 797/1/5 778/1/5 794/1/5
f 797/1/5 794/1/5 796/1/5
f 798/1/5 778/1/5 797/1/5
f 799/1/5 797/1/5 796/1/5
f 800/1/5 797/1/5 799/1/5
f 801/1/5 797/1/5 800/1/5
f 802/1/5 797/1/5 801/1/5
f 803/1/5 801/1/5 800/1/5
f 804/1/5 801/1/5 803/1/5
f 808/1/5 806/1/5 805/1/5
f 809/1/5 806/1/5 808/1/5
f 810/1/5 806/1/5 809/1/5
f 811/1/5 806/1/5 810/1/5
f 814/1/5 808/1/5 807/1/5
f 814/1/5 809/1/5 808/1/5
f 815/1/5 809/1/5 814/1/5
f 816/1/5 811/1/5 810/1/5
f 816/1/5 812/1/5 811/1/5
f 817/1/5 812/1/5 816/1/5
f 819/1/5 814/1/5 813/1/5
f 820/1/5 814/1/5 819/1/5
f 823/1/5 818/1/5 817/1/5
f 824/1/5 818/1/5 823/1/5
f 825/1/5 821/1/5 820/1/5
f 826/1/5 821/1/5 825/1/5
f 829/1/5 823/1/5 822/1/5
f 830/1/5 823/1/5 829/1/5
f 831/1/5 827/1/5 826/1/5
f 832/1/5 827/1/5 831/1/5
f 833/1/5 829/1/5 828/1/5
f 834/1/5 829/1/5 833/1/5
f 835/1/5 833/1/5 832/1/5
f 836/1/5 833/1/5 835/1/5
f 839/1/5 838/1/5 837/1/5
f 840/1/5 838/1/5 839/1/5
f 845/1/5 842/1/5 841/1/5
f 846/1/5 842/1/5 845/1/5
f 849/1/5 844/1/5 843/1/5
f 850/1/5 844/1/5 849/1/5
f 851/1/5 847/1/5 846/1/5
f 852/1/5 847/1/5 851/1/5
f 855/1/5 849/1/5 848/1/5
f 856/1/5 849/1/5 855/1/5
f 857/1/5 853/1/5 852/1/5
f 858/1/5 853/1/5 857/1/5
f 859/1/5 855/1/5 854/1/5
f 860/1/5 855/1/5 859/1/5
f 861/1/5 859/1/5 858/1/5
f 862/1/5 859/1/5 861/1/5
f 863/2/6 864/2/6 867/2/6
f 867/2/6 864/2/6 868/2/6
f 865/2/6 866/2/6 869/2/6
f 869/2/6 866/2/6 870/2/6
f 871/2/6 872/2/6 875/2/6
f 875/2/6 872/2/6 876/2/6
f 873/2/6 874/2/6 877/2/6
f 877/2/6 874/2/6 878/2/6
f 879/2/6 880/2/6 884/2/6
f 884/2/6 880/2/6 885/2/6
f 881/2/6 882/2/6 886/2/6
f 886/2/6 882/2/6 887/2/6
f 883/2/6 884/2/6 889/2/6
f 889/2/6 884/2/6 890/2/6
f 887/2/6 888/2/6 891/2/6
f 891/2/6 888/2/6 892/2/6
f 893/2/6 894/2/6 897/2/6
f 897/2/6 894/2/6 898/2/6
f 895/2/6 896/2/6 901/2/6
f 901/2/6 896/2/6 902/2/6
f 898/2/6 899/2/6 903/2/6
f 903/2/6 899/2/6 904/2/6
f 900/2/6 901/2/6 905/2/6
f 905/2/6 901/2/6 906/2/6
f 907/2/6 908/2/6 911/2/6
f 911/2/6 908/2/6 912/2/6
f 909/2/6 910/2/6 913/2/6
f 913/2/6 910/2/6 914/2/6
f 915/2/6 916/2/6 919/2/6
f 919/2/6 916/2/6 920/2/6
f 917/2/6 918/2/6 921/2/6
f 921/2/6 918/2/6 922/2/6
f 923/2/6 924/2/6 928/2/6
f 928/2/6 924/2/6 929/2/6
f 925/2/6 926/2/6 930/2/6
f 930/2/6 926/2/6 931/2/6
f 927/2/6 928/2/6 933/2/6
f 933/2/6 928/2/6 934/2/6
f 931/2/6 932/2/6 935/2/6
f 935/2/6 932/2/6 936/2/6
f 937/2/6 938/2/6 941/2/6
f 941/2/6 938/2/6 942/2/6
f 939/2/6 940/2/6 945/2/6
f 945/2/6 940/2/6 946/2/6
f 942/2/6 943/2/6 947/2/6
f 947/2/6 943/2/6 948/2/6
f 944/2/6 945/2/6 949/2/6
f 949/2/6 945/2/6 950/2/6
f 951/1/6 952/1/6 954/1/6
f 954/1/6 952/1/6 955/1/6
f 953/1/6 954/1/6 958/1/6
f 955/1/6 956/1/6 958/1/6
f 954/1/6 955/1/6 958/1/6
f 958/1/6 956/1/6 959/1/6
f 957/1/6 958/1/6 961/1/6
f 959/1/6 960/1/6 961/1/6
f 958/1/6 959/1/6 961/1/6
f 961/1/6 960/1/6 962/1/6
f 962/1/6 960/1/6 963/1/6
f 963/1/6 960/1/6 964/1/6
f 962/1/6 963/1/6 965/1/6
f 965/1/6 963/1/6 966/1/6
f 966/1/6 963/1/6 967/1/6
f 967/1/6 963/1/6 968/1/6
f 966/1/6 967/1/6 969/1/6
f 969/1/6 967/1/6 970/1/6
f 970/1/6 967/1/6 971/1/6
f 971/1/6 967/1/6 972/1/6
f 970/1/6 971/1/6 973/1/6
f 973/1/6 971/1/6 974/1/6
f 975/1/6 976/1/6 978/1/6
f 978/1/6 976/1/6 979/1/6
f 977/1/6 978/1/6 981/1/6
f 981/1/6 978/1/6 982/1/6
f 979/1/6 980/1/6 983/1/6
f 983/1/6 980/1/6 984/1/6
f 985/1/6 986/1/6 987/1/6
f 987/1/6 986/1/6 988/1/6
f 989/1/6 990/1/6 993/1/6
f 993/1/6 990/1/6 994/1/6
f 991/1/6 992/1/6 995/1/6
f 995/1/6 992/1/6 996/1/6
f 997/1/6 998/1/6 1001/1/6
f 1001/1/6 998/1/6 1002/1/6
f 999/1/6 1000/1/6 1003/1/6
f 1003/1/6 1000/1/6 1004/1/6
f 1005/1/6 1006/1/6 1009/1/6
f 1009/1/6 1006/1/6 1010/1/6
f 1007/1/6 1008/1/6 1011/1/6
f 1011/1/6 1008/1/6 1012/1/6
f 1013/1/6 1014/1/6 1017/1/6
f 1017/1/6 1014/1/6 1018/1/6
f 1015/1/6 1016/1/6 1019/1/6
f 1019/1/6 1016/1/6 1020/1/6
f 1021/1/6 1022/1/6 1025/1/6
f 1025/1/6 1022/1/6 1026/1/6
f 1023/1/6 1024/1/6 1027/1/6
f 1027/1/6 1024/1/6 1028/1/6
f 1029/1/6 1030/1/6 1033/1/6
f 1033/1/6 1030/1/6 1034/1/6
f 1031/1/6 1032/1/6 1035/1/6
f 1035/1/6 1032/1/6 1036/1/6
f 1037/1/6 1038/1/6 1041/1/6
f 1041/1/6 1038/1/6 1042/1/6
f 1039/1/6 1040/1/6 1043/1/6
f 1043/1/6 1040/1/6 1044/1/6
f 1045/1/6 1046/1/6 1049/1/6
f 1049/1/6 1046/1/6 1050/1/6
f 1047/1/6 1048/1/6 1051/1/6
f 1051/1/6 1048/1/6 1052/1/6
f 1053/1/6 1054/1/6 1055/1/6
f 1055/1/6 1054/1/6 1056/1/6
