# MagicaVoxel @ Ephtracy

# group
o 

# material
mtllib bedroom_cabinet.vox.mtl
usemtl palette

# normals
vn -1 0 0
vn 1 0 0
vn 0 0 1
vn 0 0 -1
vn 0 -1 0
vn 0 1 0

# texcoords
vt 0.00195312 0.5
vt 0.00585938 0.5
vt 0.00976562 0.5
vt 0.0136719 0.5
vt 0.0175781 0.5

# verts
v -1.6 0.4 -1.6
v -1.6 0.4 -3.2
v -1.6 5.4 -1.6
v -1.6 5.4 -3.2
v -1.4 0 -1.9
v -1.4 0 -2.1
v -1.4 0 -2.7
v -1.4 0 -2.9
v -1.4 0.2 -1.8
v -1.4 0.2 -1.9
v -1.4 0.2 -2.9
v -1.4 0.2 -3
v -1.4 0.4 -1.8
v -1.4 0.4 -2.1
v -1.4 0.4 -2.7
v -1.4 0.4 -3
v -1.3 0 -1.8
v -1.3 0 -1.9
v -1.3 0 -2.9
v -1.3 0 -3
v -1.3 0.2 -1.8
v -1.3 0.2 -1.9
v -1.3 0.2 -2.9
v -1.3 0.2 -3
v -0.5 3.2 -1.5
v -0.5 3.2 -1.6
v -0.5 3.7 -1.5
v -0.5 3.7 -1.6
v -0.4 3 -1.5
v -0.4 3 -1.6
v -0.4 3.1 -1.6
v -0.4 3.1 -1.7
v -0.4 3.2 -1.4
v -0.4 3.2 -1.5
v -0.4 3.2 -1.6
v -0.4 3.7 -1.4
v -0.4 3.7 -1.5
v -0.4 3.7 -1.6
v -0.4 3.8 -1.6
v -0.4 3.8 -1.7
v -0.4 3.9 -1.5
v -0.4 3.9 -1.6
v -0.3 1 -1.6
v -0.3 1 -1.7
v -0.3 1.2 -1.6
v -0.3 1.2 -1.7
v -0.2 0.9 -1.5
v -0.2 0.9 -1.6
v -0.2 1 -1.6
v -0.2 1.1 -1.4
v -0.2 1.1 -1.5
v -0.2 1.2 -1.4
v -0.2 1.2 -1.5
v -0.2 1.2 -1.6
v -0.2 1.3 -1.5
v -0.2 1.3 -1.6
v -0.1 1 -1.4
v -0.1 1 -1.5
v -0.1 1.1 -1.4
v -0.1 1.1 -1.5
v 0 1.7 -1.8
v 0 1.7 -1.9
v 0 5.2 -1.8
v 0 5.2 -1.9
v 0.1 1.7 -1.7
v 0.1 1.7 -1.8
v 0.1 5.2 -1.7
v 0.1 5.2 -1.8
v 0.3 3.2 -1.5
v 0.3 3.2 -1.6
v 0.3 3.7 -1.5
v 0.3 3.7 -1.6
v 0.4 3 -1.5
v 0.4 3 -1.6
v 0.4 3.1 -1.6
v 0.4 3.1 -1.7
v 0.4 3.2 -1.4
v 0.4 3.2 -1.5
v 0.4 3.2 -1.6
v 0.4 3.7 -1.4
v 0.4 3.7 -1.5
v 0.4 3.7 -1.6
v 0.4 3.8 -1.6
v 0.4 3.8 -1.7
v 0.4 3.9 -1.5
v 0.4 3.9 -1.6
v 1.2 0 -1.8
v 1.2 0 -2
v 1.2 0 -2.8
v 1.2 0 -3
v 1.2 0.2 -2
v 1.2 0.2 -2.1
v 1.2 0.2 -2.7
v 1.2 0.2 -2.8
v 1.2 0.4 -1.8
v 1.2 0.4 -2.1
v 1.2 0.4 -2.7
v 1.2 0.4 -3
v 1.3 0 -2
v 1.3 0 -2.1
v 1.3 0 -2.7
v 1.3 0 -2.8
v 1.3 0.2 -2
v 1.3 0.2 -2.1
v 1.3 0.2 -2.7
v 1.3 0.2 -2.8
v 1.5 0.6 -1.6
v 1.5 0.6 -1.7
v 1.5 0.6 -1.8
v 1.5 0.6 -3
v 1.5 1.6 -1.6
v 1.5 1.6 -1.7
v 1.5 1.6 -1.8
v 1.5 1.6 -3
v 1.5 1.7 -1.6
v 1.5 1.7 -1.7
v 1.5 1.7 -1.8
v 1.5 1.7 -3
v 1.5 5.2 -1.6
v 1.5 5.2 -1.7
v 1.5 5.2 -1.8
v 1.5 5.2 -3
v -1.4 0.6 -1.6
v -1.4 0.6 -1.7
v -1.4 0.6 -1.8
v -1.4 0.6 -3
v -1.4 1.6 -1.6
v -1.4 1.6 -1.7
v -1.4 1.6 -1.8
v -1.4 1.6 -3
v -1.4 1.7 -1.6
v -1.4 1.7 -1.7
v -1.4 1.7 -1.8
v -1.4 1.7 -3
v -1.4 5.2 -1.6
v -1.4 5.2 -1.7
v -1.4 5.2 -1.8
v -1.4 5.2 -3
v -1.2 0 -2
v -1.2 0 -2.1
v -1.2 0 -2.7
v -1.2 0 -2.8
v -1.2 0.2 -2
v -1.2 0.2 -2.1
v -1.2 0.2 -2.7
v -1.2 0.2 -2.8
v -1.1 0 -1.8
v -1.1 0 -2
v -1.1 0 -2.8
v -1.1 0 -3
v -1.1 0.2 -2
v -1.1 0.2 -2.1
v -1.1 0.2 -2.7
v -1.1 0.2 -2.8
v -1.1 0.4 -1.8
v -1.1 0.4 -2.1
v -1.1 0.4 -2.7
v -1.1 0.4 -3
v -0.3 3 -1.5
v -0.3 3 -1.6
v -0.3 3.1 -1.6
v -0.3 3.1 -1.7
v -0.3 3.2 -1.4
v -0.3 3.2 -1.5
v -0.3 3.2 -1.6
v -0.3 3.7 -1.4
v -0.3 3.7 -1.5
v -0.3 3.7 -1.6
v -0.3 3.8 -1.6
v -0.3 3.8 -1.7
v -0.3 3.9 -1.5
v -0.3 3.9 -1.6
v -0.2 3.2 -1.5
v -0.2 3.2 -1.6
v -0.2 3.7 -1.5
v -0.2 3.7 -1.6
v 0 1.7 -1.7
v 0 1.7 -1.8
v 0 5.2 -1.7
v 0 5.2 -1.8
v 0.1 1.7 -1.8
v 0.1 1.7 -1.9
v 0.1 5.2 -1.8
v 0.1 5.2 -1.9
v 0.2 1 -1.4
v 0.2 1 -1.5
v 0.2 1.1 -1.4
v 0.2 1.1 -1.5
v 0.3 0.9 -1.5
v 0.3 0.9 -1.6
v 0.3 1 -1.6
v 0.3 1.1 -1.4
v 0.3 1.1 -1.5
v 0.3 1.2 -1.4
v 0.3 1.2 -1.5
v 0.3 1.2 -1.6
v 0.3 1.3 -1.5
v 0.3 1.3 -1.6
v 0.4 1 -1.6
v 0.4 1 -1.7
v 0.4 1.2 -1.6
v 0.4 1.2 -1.7
v 0.5 3 -1.5
v 0.5 3 -1.6
v 0.5 3.1 -1.6
v 0.5 3.1 -1.7
v 0.5 3.2 -1.4
v 0.5 3.2 -1.5
v 0.5 3.2 -1.6
v 0.5 3.7 -1.4
v 0.5 3.7 -1.5
v 0.5 3.7 -1.6
v 0.5 3.8 -1.6
v 0.5 3.8 -1.7
v 0.5 3.9 -1.5
v 0.5 3.9 -1.6
v 0.6 3.2 -1.5
v 0.6 3.2 -1.6
v 0.6 3.7 -1.5
v 0.6 3.7 -1.6
v 1.4 0 -1.8
v 1.4 0 -1.9
v 1.4 0 -2.9
v 1.4 0 -3
v 1.4 0.2 -1.8
v 1.4 0.2 -1.9
v 1.4 0.2 -2.9
v 1.4 0.2 -3
v 1.5 0 -1.9
v 1.5 0 -2.1
v 1.5 0 -2.7
v 1.5 0 -2.9
v 1.5 0.2 -1.8
v 1.5 0.2 -1.9
v 1.5 0.2 -2.9
v 1.5 0.2 -3
v 1.5 0.4 -1.8
v 1.5 0.4 -2.1
v 1.5 0.4 -2.7
v 1.5 0.4 -3
v 1.7 0.4 -1.6
v 1.7 0.4 -3.2
v 1.7 5.4 -1.6
v 1.7 5.4 -3.2
v -0.4 3.2 -1.4
v -0.4 3.7 -1.4
v -0.3 3.2 -1.4
v -0.3 3.7 -1.4
v -0.2 1.1 -1.4
v -0.2 1.2 -1.4
v -0.1 1 -1.4
v -0.1 1.1 -1.4
v 0.2 1 -1.4
v 0.2 1.1 -1.4
v 0.3 1.1 -1.4
v 0.3 1.2 -1.4
v 0.4 3.2 -1.4
v 0.4 3.7 -1.4
v 0.5 3.2 -1.4
v 0.5 3.7 -1.4
v -0.5 3.2 -1.5
v -0.5 3.7 -1.5
v -0.4 3 -1.5
v -0.4 3.2 -1.5
v -0.4 3.7 -1.5
v -0.4 3.9 -1.5
v -0.3 3 -1.5
v -0.3 3.2 -1.5
v -0.3 3.7 -1.5
v -0.3 3.9 -1.5
v -0.2 0.9 -1.5
v -0.2 1.1 -1.5
v -0.2 1.2 -1.5
v -0.2 1.3 -1.5
v -0.2 3.2 -1.5
v -0.2 3.7 -1.5
v -0.1 1 -1.5
v -0.1 1.1 -1.5
v 0.2 1 -1.5
v 0.2 1.1 -1.5
v 0.3 0.9 -1.5
v 0.3 1.1 -1.5
v 0.3 1.2 -1.5
v 0.3 1.3 -1.5
v 0.3 3.2 -1.5
v 0.3 3.7 -1.5
v 0.4 3 -1.5
v 0.4 3.2 -1.5
v 0.4 3.7 -1.5
v 0.4 3.9 -1.5
v 0.5 3 -1.5
v 0.5 3.2 -1.5
v 0.5 3.7 -1.5
v 0.5 3.9 -1.5
v 0.6 3.2 -1.5
v 0.6 3.7 -1.5
v -1.6 0.4 -1.6
v -1.6 5.4 -1.6
v -1.4 0.6 -1.6
v -1.4 1.6 -1.6
v -1.4 1.7 -1.6
v -1.4 5.2 -1.6
v -0.3 1 -1.6
v -0.3 1.2 -1.6
v -0.2 1 -1.6
v -0.2 1.2 -1.6
v 0.3 1 -1.6
v 0.3 1.2 -1.6
v 0.4 1 -1.6
v 0.4 1.2 -1.6
v 1.5 0.6 -1.6
v 1.5 1.6 -1.6
v 1.5 1.7 -1.6
v 1.5 5.2 -1.6
v 1.7 0.4 -1.6
v 1.7 5.4 -1.6
v -1.4 0.6 -1.7
v -1.4 1.6 -1.7
v -1.4 1.7 -1.7
v -1.4 5.2 -1.7
v -0.4 3.1 -1.7
v -0.4 3.8 -1.7
v -0.3 1 -1.7
v -0.3 1.2 -1.7
v -0.3 3.1 -1.7
v -0.3 3.8 -1.7
v 0 1.7 -1.7
v 0 5.2 -1.7
v 0.1 1.7 -1.7
v 0.1 5.2 -1.7
v 0.4 1 -1.7
v 0.4 1.2 -1.7
v 0.4 3.1 -1.7
v 0.4 3.8 -1.7
v 0.5 3.1 -1.7
v 0.5 3.8 -1.7
v 1.5 0.6 -1.7
v 1.5 1.6 -1.7
v 1.5 1.7 -1.7
v 1.5 5.2 -1.7
v -1.4 0.2 -1.8
v -1.4 0.4 -1.8
v -1.3 0 -1.8
v -1.3 0.2 -1.8
v -1.1 0 -1.8
v -1.1 0.4 -1.8
v 0 1.7 -1.8
v 0 5.2 -1.8
v 0.1 1.7 -1.8
v 0.1 5.2 -1.8
v 1.2 0 -1.8
v 1.2 0.4 -1.8
v 1.4 0 -1.8
v 1.4 0.2 -1.8
v 1.5 0.2 -1.8
v 1.5 0.4 -1.8
v -1.4 0 -1.9
v -1.4 0.2 -1.9
v -1.3 0 -1.9
v -1.3 0.2 -1.9
v 1.4 0 -1.9
v 1.4 0.2 -1.9
v 1.5 0 -1.9
v 1.5 0.2 -1.9
v -1.4 0 -2.7
v -1.4 0.4 -2.7
v -1.2 0 -2.7
v -1.2 0.2 -2.7
v -1.1 0.2 -2.7
v -1.1 0.4 -2.7
v 1.2 0.2 -2.7
v 1.2 0.4 -2.7
v 1.3 0 -2.7
v 1.3 0.2 -2.7
v 1.5 0 -2.7
v 1.5 0.4 -2.7
v -1.2 0 -2.8
v -1.2 0.2 -2.8
v -1.1 0 -2.8
v -1.1 0.2 -2.8
v 1.2 0 -2.8
v 1.2 0.2 -2.8
v 1.3 0 -2.8
v 1.3 0.2 -2.8
v -1.4 0.6 -3
v -1.4 1.6 -3
v -1.4 1.7 -3
v -1.4 5.2 -3
v 1.5 0.6 -3
v 1.5 1.6 -3
v 1.5 1.7 -3
v 1.5 5.2 -3
v -0.5 3.2 -1.6
v -0.5 3.7 -1.6
v -0.4 3 -1.6
v -0.4 3.1 -1.6
v -0.4 3.2 -1.6
v -0.4 3.7 -1.6
v -0.4 3.8 -1.6
v -0.4 3.9 -1.6
v -0.3 3 -1.6
v -0.3 3.1 -1.6
v -0.3 3.2 -1.6
v -0.3 3.7 -1.6
v -0.3 3.8 -1.6
v -0.3 3.9 -1.6
v -0.2 0.9 -1.6
v -0.2 1 -1.6
v -0.2 1.2 -1.6
v -0.2 1.3 -1.6
v -0.2 3.2 -1.6
v -0.2 3.7 -1.6
v 0.3 0.9 -1.6
v 0.3 1 -1.6
v 0.3 1.2 -1.6
v 0.3 1.3 -1.6
v 0.3 3.2 -1.6
v 0.3 3.7 -1.6
v 0.4 3 -1.6
v 0.4 3.1 -1.6
v 0.4 3.2 -1.6
v 0.4 3.7 -1.6
v 0.4 3.8 -1.6
v 0.4 3.9 -1.6
v 0.5 3 -1.6
v 0.5 3.1 -1.6
v 0.5 3.2 -1.6
v 0.5 3.7 -1.6
v 0.5 3.8 -1.6
v 0.5 3.9 -1.6
v 0.6 3.2 -1.6
v 0.6 3.7 -1.6
v -1.4 0.6 -1.8
v -1.4 1.6 -1.8
v -1.4 1.7 -1.8
v -1.4 5.2 -1.8
v 0 1.7 -1.8
v 0 5.2 -1.8
v 0.1 1.7 -1.8
v 0.1 5.2 -1.8
v 1.5 0.6 -1.8
v 1.5 1.6 -1.8
v 1.5 1.7 -1.8
v 1.5 5.2 -1.8
v 0 1.7 -1.9
v 0 5.2 -1.9
v 0.1 1.7 -1.9
v 0.1 5.2 -1.9
v -1.2 0 -2
v -1.2 0.2 -2
v -1.1 0 -2
v -1.1 0.2 -2
v 1.2 0 -2
v 1.2 0.2 -2
v 1.3 0 -2
v 1.3 0.2 -2
v -1.4 0 -2.1
v -1.4 0.4 -2.1
v -1.2 0 -2.1
v -1.2 0.2 -2.1
v -1.1 0.2 -2.1
v -1.1 0.4 -2.1
v 1.2 0.2 -2.1
v 1.2 0.4 -2.1
v 1.3 0 -2.1
v 1.3 0.2 -2.1
v 1.5 0 -2.1
v 1.5 0.4 -2.1
v -1.4 0 -2.9
v -1.4 0.2 -2.9
v -1.3 0 -2.9
v -1.3 0.2 -2.9
v 1.4 0 -2.9
v 1.4 0.2 -2.9
v 1.5 0 -2.9
v 1.5 0.2 -2.9
v -1.4 0.2 -3
v -1.4 0.4 -3
v -1.3 0 -3
v -1.3 0.2 -3
v -1.1 0 -3
v -1.1 0.4 -3
v 1.2 0 -3
v 1.2 0.4 -3
v 1.4 0 -3
v 1.4 0.2 -3
v 1.5 0.2 -3
v 1.5 0.4 -3
v -1.6 0.4 -3.2
v -1.6 5.4 -3.2
v 1.7 0.4 -3.2
v 1.7 5.4 -3.2
v -1.3 0 -1.8
v -1.1 0 -1.8
v 1.2 0 -1.8
v 1.4 0 -1.8
v -1.4 0 -1.9
v -1.3 0 -1.9
v 1.4 0 -1.9
v 1.5 0 -1.9
v -1.2 0 -2
v -1.1 0 -2
v 1.2 0 -2
v 1.3 0 -2
v -1.4 0 -2.1
v -1.2 0 -2.1
v 1.3 0 -2.1
v 1.5 0 -2.1
v -1.4 0 -2.7
v -1.2 0 -2.7
v 1.3 0 -2.7
v 1.5 0 -2.7
v -1.2 0 -2.8
v -1.1 0 -2.8
v 1.2 0 -2.8
v 1.3 0 -2.8
v -1.4 0 -2.9
v -1.3 0 -2.9
v 1.4 0 -2.9
v 1.5 0 -2.9
v -1.3 0 -3
v -1.1 0 -3
v 1.2 0 -3
v 1.4 0 -3
v -1.4 0.2 -1.8
v -1.3 0.2 -1.8
v 1.4 0.2 -1.8
v 1.5 0.2 -1.8
v -1.4 0.2 -1.9
v -1.3 0.2 -1.9
v 1.4 0.2 -1.9
v 1.5 0.2 -1.9
v -1.2 0.2 -2
v -1.1 0.2 -2
v 1.2 0.2 -2
v 1.3 0.2 -2
v -1.2 0.2 -2.1
v -1.1 0.2 -2.1
v 1.2 0.2 -2.1
v 1.3 0.2 -2.1
v -1.2 0.2 -2.7
v -1.1 0.2 -2.7
v 1.2 0.2 -2.7
v 1.3 0.2 -2.7
v -1.2 0.2 -2.8
v -1.1 0.2 -2.8
v 1.2 0.2 -2.8
v 1.3 0.2 -2.8
v -1.4 0.2 -2.9
v -1.3 0.2 -2.9
v 1.4 0.2 -2.9
v 1.5 0.2 -2.9
v -1.4 0.2 -3
v -1.3 0.2 -3
v 1.4 0.2 -3
v 1.5 0.2 -3
v -1.6 0.4 -1.6
v 1.7 0.4 -1.6
v -1.4 0.4 -1.8
v -1.1 0.4 -1.8
v 1.2 0.4 -1.8
v 1.5 0.4 -1.8
v -1.4 0.4 -2.1
v -1.1 0.4 -2.1
v 1.2 0.4 -2.1
v 1.5 0.4 -2.1
v -1.4 0.4 -2.7
v -1.1 0.4 -2.7
v 1.2 0.4 -2.7
v 1.5 0.4 -2.7
v -1.4 0.4 -3
v -1.1 0.4 -3
v 1.2 0.4 -3
v 1.5 0.4 -3
v -1.6 0.4 -3.2
v 1.7 0.4 -3.2
v -0.2 0.9 -1.5
v 0.3 0.9 -1.5
v -0.2 0.9 -1.6
v 0.3 0.9 -1.6
v -0.1 1 -1.4
v 0.2 1 -1.4
v -0.1 1 -1.5
v 0.2 1 -1.5
v -0.3 1 -1.6
v -0.2 1 -1.6
v 0.3 1 -1.6
v 0.4 1 -1.6
v -0.3 1 -1.7
v 0.4 1 -1.7
v -0.2 1.1 -1.4
v -0.1 1.1 -1.4
v 0.2 1.1 -1.4
v 0.3 1.1 -1.4
v -0.2 1.1 -1.5
v -0.1 1.1 -1.5
v 0.2 1.1 -1.5
v 0.3 1.1 -1.5
v -1.4 1.6 -1.6
v 1.5 1.6 -1.6
v -1.4 1.6 -1.7
v 1.5 1.6 -1.7
v -1.4 1.6 -1.8
v 1.5 1.6 -1.8
v -1.4 1.6 -3
v 1.5 1.6 -3
v -0.4 3 -1.5
v -0.3 3 -1.5
v 0.4 3 -1.5
v 0.5 3 -1.5
v -0.4 3 -1.6
v -0.3 3 -1.6
v 0.4 3 -1.6
v 0.5 3 -1.6
v -0.4 3.1 -1.6
v -0.3 3.1 -1.6
v 0.4 3.1 -1.6
v 0.5 3.1 -1.6
v -0.4 3.1 -1.7
v -0.3 3.1 -1.7
v 0.4 3.1 -1.7
v 0.5 3.1 -1.7
v -0.4 3.2 -1.4
v -0.3 3.2 -1.4
v 0.4 3.2 -1.4
v 0.5 3.2 -1.4
v -0.5 3.2 -1.5
v -0.4 3.2 -1.5
v -0.3 3.2 -1.5
v -0.2 3.2 -1.5
v 0.3 3.2 -1.5
v 0.4 3.2 -1.5
v 0.5 3.2 -1.5
v 0.6 3.2 -1.5
v -0.5 3.2 -1.6
v -0.4 3.2 -1.6
v -0.3 3.2 -1.6
v -0.2 3.2 -1.6
v 0.3 3.2 -1.6
v 0.4 3.2 -1.6
v 0.5 3.2 -1.6
v 0.6 3.2 -1.6
v -1.4 5.2 -1.6
v 1.5 5.2 -1.6
v -1.4 5.2 -1.7
v 0 5.2 -1.7
v 0.1 5.2 -1.7
v 1.5 5.2 -1.7
v -1.4 5.2 -1.8
v 0 5.2 -1.8
v 0.1 5.2 -1.8
v 1.5 5.2 -1.8
v 0 5.2 -1.9
v 0.1 5.2 -1.9
v -1.4 5.2 -3
v 1.5 5.2 -3
v -1.4 0.6 -1.6
v 1.5 0.6 -1.6
v -1.4 0.6 -1.7
v 1.5 0.6 -1.7
v -1.4 0.6 -1.8
v 1.5 0.6 -1.8
v -1.4 0.6 -3
v 1.5 0.6 -3
v -0.2 1.2 -1.4
v 0.3 1.2 -1.4
v -0.2 1.2 -1.5
v 0.3 1.2 -1.5
v -0.3 1.2 -1.6
v -0.2 1.2 -1.6
v 0.3 1.2 -1.6
v 0.4 1.2 -1.6
v -0.3 1.2 -1.7
v 0.4 1.2 -1.7
v -0.2 1.3 -1.5
v 0.3 1.3 -1.5
v -0.2 1.3 -1.6
v 0.3 1.3 -1.6
v -1.4 1.7 -1.6
v 1.5 1.7 -1.6
v -1.4 1.7 -1.7
v 0 1.7 -1.7
v 0.1 1.7 -1.7
v 1.5 1.7 -1.7
v -1.4 1.7 -1.8
v 0 1.7 -1.8
v 0.1 1.7 -1.8
v 1.5 1.7 -1.8
v 0 1.7 -1.9
v 0.1 1.7 -1.9
v -1.4 1.7 -3
v 1.5 1.7 -3
v -0.4 3.7 -1.4
v -0.3 3.7 -1.4
v 0.4 3.7 -1.4
v 0.5 3.7 -1.4
v -0.5 3.7 -1.5
v -0.4 3.7 -1.5
v -0.3 3.7 -1.5
v -0.2 3.7 -1.5
v 0.3 3.7 -1.5
v 0.4 3.7 -1.5
v 0.5 3.7 -1.5
v 0.6 3.7 -1.5
v -0.5 3.7 -1.6
v -0.4 3.7 -1.6
v -0.3 3.7 -1.6
v -0.2 3.7 -1.6
v 0.3 3.7 -1.6
v 0.4 3.7 -1.6
v 0.5 3.7 -1.6
v 0.6 3.7 -1.6
v -0.4 3.8 -1.6
v -0.3 3.8 -1.6
v 0.4 3.8 -1.6
v 0.5 3.8 -1.6
v -0.4 3.8 -1.7
v -0.3 3.8 -1.7
v 0.4 3.8 -1.7
v 0.5 3.8 -1.7
v -0.4 3.9 -1.5
v -0.3 3.9 -1.5
v 0.4 3.9 -1.5
v 0.5 3.9 -1.5
v -0.4 3.9 -1.6
v -0.3 3.9 -1.6
v 0.4 3.9 -1.6
v 0.5 3.9 -1.6
v -1.6 5.4 -1.6
v 1.7 5.4 -1.6
v -1.6 5.4 -3.2
v 1.7 5.4 -3.2

# faces
f 3/3/1 2/3/1 1/3/1
f 4/3/1 2/3/1 3/3/1
f 10/2/1 6/2/1 5/2/1
f 11/2/1 8/2/1 7/2/1
f 13/2/1 10/2/1 9/2/1
f 14/2/1 6/2/1 10/2/1
f 14/2/1 10/2/1 13/2/1
f 15/2/1 12/2/1 11/2/1
f 15/2/1 11/2/1 7/2/1
f 16/2/1 12/2/1 15/2/1
f 21/2/1 18/2/1 17/2/1
f 22/2/1 18/2/1 21/2/1
f 23/2/1 20/2/1 19/2/1
f 24/2/1 20/2/1 23/2/1
f 27/5/1 26/5/1 25/5/1
f 28/5/1 26/5/1 27/5/1
f 31/5/1 30/5/1 29/5/1
f 34/5/1 31/5/1 29/5/1
f 34/5/1 32/5/1 31/5/1
f 35/5/1 32/5/1 34/5/1
f 36/5/1 34/5/1 33/5/1
f 37/5/1 34/5/1 36/5/1
f 38/5/1 32/5/1 35/5/1
f 39/5/1 38/5/1 37/5/1
f 39/5/1 32/5/1 38/5/1
f 40/5/1 32/5/1 39/5/1
f 41/5/1 39/5/1 37/5/1
f 42/5/1 39/5/1 41/5/1
f 45/5/1 44/5/1 43/5/1
f 46/5/1 44/5/1 45/5/1
f 49/5/1 48/5/1 47/5/1
f 51/5/1 49/5/1 47/5/1
f 52/5/1 51/5/1 50/5/1
f 53/5/1 49/5/1 51/5/1
f 53/5/1 51/5/1 52/5/1
f 54/5/1 49/5/1 53/5/1
f 55/5/1 54/5/1 53/5/1
f 56/5/1 54/5/1 55/5/1
f 59/5/1 58/5/1 57/5/1
f 60/5/1 58/5/1 59/5/1
f 63/4/1 62/4/1 61/4/1
f 64/4/1 62/4/1 63/4/1
f 67/1/1 66/1/1 65/1/1
f 68/1/1 66/1/1 67/1/1
f 71/5/1 70/5/1 69/5/1
f 72/5/1 70/5/1 71/5/1
f 75/5/1 74/5/1 73/5/1
f 78/5/1 75/5/1 73/5/1
f 78/5/1 76/5/1 75/5/1
f 79/5/1 76/5/1 78/5/1
f 80/5/1 78/5/1 77/5/1
f 81/5/1 78/5/1 80/5/1
f 82/5/1 76/5/1 79/5/1
f 83/5/1 82/5/1 81/5/1
f 83/5/1 76/5/1 82/5/1
f 84/5/1 76/5/1 83/5/1
f 85/5/1 83/5/1 81/5/1
f 86/5/1 83/5/1 85/5/1
f 91/2/1 88/2/1 87/2/1
f 94/2/1 90/2/1 89/2/1
f 95/2/1 92/2/1 91/2/1
f 95/2/1 91/2/1 87/2/1
f 96/2/1 92/2/1 95/2/1
f 97/2/1 94/2/1 93/2/1
f 98/2/1 90/2/1 94/2/1
f 98/2/1 94/2/1 97/2/1
f 103/2/1 100/2/1 99/2/1
f 104/2/1 100/2/1 103/2/1
f 105/2/1 102/2/1 101/2/1
f 106/2/1 102/2/1 105/2/1
f 111/3/1 108/3/1 107/3/1
f 112/3/1 108/3/1 111/3/1
f 113/1/1 110/1/1 109/1/1
f 114/1/1 110/1/1 113/1/1
f 119/3/1 116/3/1 115/3/1
f 120/3/1 116/3/1 119/3/1
f 121/1/1 118/1/1 117/1/1
f 122/1/1 118/1/1 121/1/1
f 123/3/2 124/3/2 127/3/2
f 127/3/2 124/3/2 128/3/2
f 125/1/2 126/1/2 129/1/2
f 129/1/2 126/1/2 130/1/2
f 131/3/2 132/3/2 135/3/2
f 135/3/2 132/3/2 136/3/2
f 133/1/2 134/1/2 137/1/2
f 137/1/2 134/1/2 138/1/2
f 139/2/2 140/2/2 143/2/2
f 143/2/2 140/2/2 144/2/2
f 141/2/2 142/2/2 145/2/2
f 145/2/2 142/2/2 146/2/2
f 147/2/2 148/2/2 151/2/2
f 149/2/2 150/2/2 154/2/2
f 151/2/2 152/2/2 155/2/2
f 147/2/2 151/2/2 155/2/2
f 155/2/2 152/2/2 156/2/2
f 153/2/2 154/2/2 157/2/2
f 154/2/2 150/2/2 158/2/2
f 157/2/2 154/2/2 158/2/2
f 159/5/2 160/5/2 161/5/2
f 159/5/2 161/5/2 164/5/2
f 161/5/2 162/5/2 164/5/2
f 164/5/2 162/5/2 165/5/2
f 163/5/2 164/5/2 166/5/2
f 166/5/2 164/5/2 167/5/2
f 165/5/2 162/5/2 168/5/2
f 167/5/2 168/5/2 169/5/2
f 168/5/2 162/5/2 169/5/2
f 169/5/2 162/5/2 170/5/2
f 167/5/2 169/5/2 171/5/2
f 171/5/2 169/5/2 172/5/2
f 173/5/2 174/5/2 175/5/2
f 175/5/2 174/5/2 176/5/2
f 177/1/2 178/1/2 179/1/2
f 179/1/2 178/1/2 180/1/2
f 181/4/2 182/4/2 183/4/2
f 183/4/2 182/4/2 184/4/2
f 185/5/2 186/5/2 187/5/2
f 187/5/2 186/5/2 188/5/2
f 189/5/2 190/5/2 191/5/2
f 189/5/2 191/5/2 193/5/2
f 192/5/2 193/5/2 194/5/2
f 193/5/2 191/5/2 195/5/2
f 194/5/2 193/5/2 195/5/2
f 195/5/2 191/5/2 196/5/2
f 195/5/2 196/5/2 197/5/2
f 197/5/2 196/5/2 198/5/2
f 199/5/2 200/5/2 201/5/2
f 201/5/2 200/5/2 202/5/2
f 203/5/2 204/5/2 205/5/2
f 203/5/2 205/5/2 208/5/2
f 205/5/2 206/5/2 208/5/2
f 208/5/2 206/5/2 209/5/2
f 207/5/2 208/5/2 210/5/2
f 210/5/2 208/5/2 211/5/2
f 209/5/2 206/5/2 212/5/2
f 211/5/2 212/5/2 213/5/2
f 212/5/2 206/5/2 213/5/2
f 213/5/2 206/5/2 214/5/2
f 211/5/2 213/5/2 215/5/2
f 215/5/2 213/5/2 216/5/2
f 217/5/2 218/5/2 219/5/2
f 219/5/2 218/5/2 220/5/2
f 221/2/2 222/2/2 225/2/2
f 225/2/2 222/2/2 226/2/2
f 223/2/2 224/2/2 227/2/2
f 227/2/2 224/2/2 228/2/2
f 229/2/2 230/2/2 234/2/2
f 231/2/2 232/2/2 235/2/2
f 233/2/2 234/2/2 237/2/2
f 234/2/2 230/2/2 238/2/2
f 237/2/2 234/2/2 238/2/2
f 235/2/2 236/2/2 239/2/2
f 231/2/2 235/2/2 239/2/2
f 239/2/2 236/2/2 240/2/2
f 241/3/2 242/3/2 243/3/2
f 243/3/2 242/3/2 244/3/2
f 247/5/3 246/5/3 245/5/3
f 248/5/3 246/5/3 247/5/3
f 252/5/3 250/5/3 249/5/3
f 253/5/3 252/5/3 251/5/3
f 254/5/3 250/5/3 252/5/3
f 254/5/3 252/5/3 253/5/3
f 255/5/3 250/5/3 254/5/3
f 256/5/3 250/5/3 255/5/3
f 259/5/3 258/5/3 257/5/3
f 260/5/3 258/5/3 259/5/3
f 264/5/3 262/5/3 261/5/3
f 265/5/3 262/5/3 264/5/3
f 267/5/3 264/5/3 263/5/3
f 268/5/3 264/5/3 267/5/3
f 269/5/3 266/5/3 265/5/3
f 270/5/3 266/5/3 269/5/3
f 275/5/3 269/5/3 268/5/3
f 276/5/3 269/5/3 275/5/3
f 277/5/3 272/5/3 271/5/3
f 278/5/3 272/5/3 277/5/3
f 279/5/3 277/5/3 271/5/3
f 281/5/3 279/5/3 271/5/3
f 281/5/3 280/5/3 279/5/3
f 282/5/3 280/5/3 281/5/3
f 283/5/3 274/5/3 273/5/3
f 284/5/3 274/5/3 283/5/3
f 288/5/3 286/5/3 285/5/3
f 289/5/3 286/5/3 288/5/3
f 291/5/3 288/5/3 287/5/3
f 292/5/3 288/5/3 291/5/3
f 293/5/3 290/5/3 289/5/3
f 294/5/3 290/5/3 293/5/3
f 295/5/3 293/5/3 292/5/3
f 296/5/3 293/5/3 295/5/3
f 299/3/3 298/3/3 297/3/3
f 300/3/3 298/3/3 299/3/3
f 301/3/3 298/3/3 300/3/3
f 302/3/3 298/3/3 301/3/3
f 305/5/3 304/5/3 303/5/3
f 306/5/3 304/5/3 305/5/3
f 309/5/3 308/5/3 307/5/3
f 310/5/3 308/5/3 309/5/3
f 311/3/3 299/3/3 297/3/3
f 312/3/3 301/3/3 300/3/3
f 313/3/3 301/3/3 312/3/3
f 314/3/3 298/3/3 302/3/3
f 315/3/3 311/3/3 297/3/3
f 315/3/3 314/3/3 313/3/3
f 315/3/3 313/3/3 312/3/3
f 315/3/3 312/3/3 311/3/3
f 316/3/3 298/3/3 314/3/3
f 316/3/3 314/3/3 315/3/3
f 321/1/3 320/1/3 319/1/3
f 322/1/3 320/1/3 321/1/3
f 323/1/3 318/1/3 317/1/3
f 324/1/3 318/1/3 323/1/3
f 325/1/3 321/1/3 319/1/3
f 326/1/3 320/1/3 322/1/3
f 327/1/3 325/1/3 319/1/3
f 327/1/3 326/1/3 325/1/3
f 328/1/3 320/1/3 326/1/3
f 328/1/3 326/1/3 327/1/3
f 331/1/3 323/1/3 317/1/3
f 332/1/3 318/1/3 324/1/3
f 333/1/3 330/1/3 329/1/3
f 334/1/3 330/1/3 333/1/3
f 335/1/3 333/1/3 329/1/3
f 336/1/3 330/1/3 334/1/3
f 337/1/3 331/1/3 317/1/3
f 337/1/3 332/1/3 331/1/3
f 338/1/3 318/1/3 332/1/3
f 338/1/3 332/1/3 337/1/3
f 339/1/3 336/1/3 335/1/3
f 339/1/3 335/1/3 329/1/3
f 340/1/3 330/1/3 336/1/3
f 340/1/3 336/1/3 339/1/3
f 344/2/3 342/2/3 341/2/3
f 345/2/3 344/2/3 343/2/3
f 346/2/3 342/2/3 344/2/3
f 346/2/3 344/2/3 345/2/3
f 349/4/3 348/4/3 347/4/3
f 350/4/3 348/4/3 349/4/3
f 353/2/3 352/2/3 351/2/3
f 354/2/3 352/2/3 353/2/3
f 355/2/3 352/2/3 354/2/3
f 356/2/3 352/2/3 355/2/3
f 359/2/3 358/2/3 357/2/3
f 360/2/3 358/2/3 359/2/3
f 363/2/3 362/2/3 361/2/3
f 364/2/3 362/2/3 363/2/3
f 367/2/3 366/2/3 365/2/3
f 368/2/3 366/2/3 367/2/3
f 369/2/3 366/2/3 368/2/3
f 370/2/3 366/2/3 369/2/3
f 374/2/3 372/2/3 371/2/3
f 375/2/3 374/2/3 373/2/3
f 376/2/3 372/2/3 374/2/3
f 376/2/3 374/2/3 375/2/3
f 379/2/3 378/2/3 377/2/3
f 380/2/3 378/2/3 379/2/3
f 383/2/3 382/2/3 381/2/3
f 384/2/3 382/2/3 383/2/3
f 389/1/3 386/1/3 385/1/3
f 390/1/3 386/1/3 389/1/3
f 391/1/3 388/1/3 387/1/3
f 392/1/3 388/1/3 391/1/3
f 393/5/4 394/5/4 397/5/4
f 397/5/4 394/5/4 398/5/4
f 395/5/4 396/5/4 401/5/4
f 401/5/4 396/5/4 402/5/4
f 399/5/4 400/5/4 405/5/4
f 405/5/4 400/5/4 406/5/4
f 403/5/4 404/5/4 411/5/4
f 411/5/4 404/5/4 412/5/4
f 407/5/4 408/5/4 413/5/4
f 413/5/4 408/5/4 414/5/4
f 409/5/4 410/5/4 415/5/4
f 415/5/4 410/5/4 416/5/4
f 417/5/4 418/5/4 421/5/4
f 421/5/4 418/5/4 422/5/4
f 419/5/4 420/5/4 425/5/4
f 425/5/4 420/5/4 426/5/4
f 423/5/4 424/5/4 429/5/4
f 429/5/4 424/5/4 430/5/4
f 427/5/4 428/5/4 431/5/4
f 431/5/4 428/5/4 432/5/4
f 435/1/4 436/1/4 437/1/4
f 437/1/4 436/1/4 438/1/4
f 433/1/4 434/1/4 441/1/4
f 441/1/4 434/1/4 442/1/4
f 439/1/4 440/1/4 443/1/4
f 443/1/4 440/1/4 444/1/4
f 445/4/4 446/4/4 447/4/4
f 447/4/4 446/4/4 448/4/4
f 449/2/4 450/2/4 451/2/4
f 451/2/4 450/2/4 452/2/4
f 453/2/4 454/2/4 455/2/4
f 455/2/4 454/2/4 456/2/4
f 457/2/4 458/2/4 459/2/4
f 459/2/4 458/2/4 460/2/4
f 460/2/4 458/2/4 461/2/4
f 461/2/4 458/2/4 462/2/4
f 463/2/4 464/2/4 466/2/4
f 465/2/4 466/2/4 467/2/4
f 466/2/4 464/2/4 468/2/4
f 467/2/4 466/2/4 468/2/4
f 469/2/4 470/2/4 471/2/4
f 471/2/4 470/2/4 472/2/4
f 473/2/4 474/2/4 475/2/4
f 475/2/4 474/2/4 476/2/4
f 477/2/4 478/2/4 480/2/4
f 479/2/4 480/2/4 481/2/4
f 480/2/4 478/2/4 482/2/4
f 481/2/4 480/2/4 482/2/4
f 483/2/4 484/2/4 485/2/4
f 485/2/4 484/2/4 486/2/4
f 486/2/4 484/2/4 487/2/4
f 487/2/4 484/2/4 488/2/4
f 489/3/4 490/3/4 491/3/4
f 491/3/4 490/3/4 492/3/4
f 498/2/5 494/2/5 493/2/5
f 499/2/5 496/2/5 495/2/5
f 501/2/5 498/2/5 497/2/5
f 501/2/5 494/2/5 498/2/5
f 502/2/5 494/2/5 501/2/5
f 503/2/5 500/2/5 499/2/5
f 503/2/5 499/2/5 495/2/5
f 504/2/5 500/2/5 503/2/5
f 505/2/5 501/2/5 497/2/5
f 506/2/5 501/2/5 505/2/5
f 507/2/5 500/2/5 504/2/5
f 508/2/5 500/2/5 507/2/5
f 513/2/5 510/2/5 509/2/5
f 516/2/5 512/2/5 511/2/5
f 517/2/5 514/2/5 513/2/5
f 517/2/5 513/2/5 509/2/5
f 518/2/5 514/2/5 517/2/5
f 519/2/5 516/2/5 515/2/5
f 519/2/5 512/2/5 516/2/5
f 520/2/5 512/2/5 519/2/5
f 521/2/5 514/2/5 518/2/5
f 522/2/5 514/2/5 521/2/5
f 523/2/5 519/2/5 515/2/5
f 524/2/5 519/2/5 523/2/5
f 529/2/5 526/2/5 525/2/5
f 530/2/5 526/2/5 529/2/5
f 531/2/5 528/2/5 527/2/5
f 532/2/5 528/2/5 531/2/5
f 537/2/5 534/2/5 533/2/5
f 538/2/5 534/2/5 537/2/5
f 539/2/5 536/2/5 535/2/5
f 540/2/5 536/2/5 539/2/5
f 545/2/5 542/2/5 541/2/5
f 546/2/5 542/2/5 545/2/5
f 547/2/5 544/2/5 543/2/5
f 548/2/5 544/2/5 547/2/5
f 553/2/5 550/2/5 549/2/5
f 554/2/5 550/2/5 553/2/5
f 555/2/5 552/2/5 551/2/5
f 556/2/5 552/2/5 555/2/5
f 559/3/5 558/3/5 557/3/5
f 560/3/5 558/3/5 559/3/5
f 561/3/5 558/3/5 560/3/5
f 562/3/5 558/3/5 561/3/5
f 563/3/5 559/3/5 557/3/5
f 564/3/5 561/3/5 560/3/5
f 565/3/5 561/3/5 564/3/5
f 566/3/5 558/3/5 562/3/5
f 567/3/5 565/3/5 564/3/5
f 567/3/5 566/3/5 565/3/5
f 567/3/5 563/3/5 557/3/5
f 567/3/5 564/3/5 563/3/5
f 568/3/5 566/3/5 567/3/5
f 569/3/5 566/3/5 568/3/5
f 570/3/5 558/3/5 566/3/5
f 570/3/5 566/3/5 569/3/5
f 571/3/5 567/3/5 557/3/5
f 572/3/5 569/3/5 568/3/5
f 573/3/5 569/3/5 572/3/5
f 574/3/5 558/3/5 570/3/5
f 575/3/5 571/3/5 557/3/5
f 575/3/5 574/3/5 573/3/5
f 575/3/5 573/3/5 572/3/5
f 575/3/5 572/3/5 571/3/5
f 576/3/5 558/3/5 574/3/5
f 576/3/5 574/3/5 575/3/5
f 579/5/5 578/5/5 577/5/5
f 580/5/5 578/5/5 579/5/5
f 583/5/5 582/5/5 581/5/5
f 584/5/5 582/5/5 583/5/5
f 589/5/5 586/5/5 585/5/5
f 589/5/5 588/5/5 587/5/5
f 589/5/5 587/5/5 586/5/5
f 590/5/5 588/5/5 589/5/5
f 595/5/5 592/5/5 591/5/5
f 596/5/5 592/5/5 595/5/5
f 597/5/5 594/5/5 593/5/5
f 598/5/5 594/5/5 597/5/5
f 601/3/5 600/3/5 599/3/5
f 602/3/5 600/3/5 601/3/5
f 605/1/5 604/1/5 603/1/5
f 606/1/5 604/1/5 605/1/5
f 611/5/5 608/5/5 607/5/5
f 612/5/5 608/5/5 611/5/5
f 613/5/5 610/5/5 609/5/5
f 614/5/5 610/5/5 613/5/5
f 619/5/5 616/5/5 615/5/5
f 620/5/5 616/5/5 619/5/5
f 621/5/5 618/5/5 617/5/5
f 622/5/5 618/5/5 621/5/5
f 628/5/5 624/5/5 623/5/5
f 629/5/5 624/5/5 628/5/5
f 632/5/5 626/5/5 625/5/5
f 633/5/5 626/5/5 632/5/5
f 635/5/5 628/5/5 627/5/5
f 636/5/5 628/5/5 635/5/5
f 637/5/5 630/5/5 629/5/5
f 638/5/5 630/5/5 637/5/5
f 639/5/5 632/5/5 631/5/5
f 640/5/5 632/5/5 639/5/5
f 641/5/5 634/5/5 633/5/5
f 642/5/5 634/5/5 641/5/5
f 645/3/5 644/3/5 643/3/5
f 646/3/5 644/3/5 645/3/5
f 647/3/5 644/3/5 646/3/5
f 648/3/5 644/3/5 647/3/5
f 650/1/5 647/1/5 646/1/5
f 651/1/5 647/1/5 650/1/5
f 653/1/5 650/1/5 649/1/5
f 654/1/5 652/1/5 651/1/5
f 655/1/5 653/1/5 649/1/5
f 655/1/5 654/1/5 653/1/5
f 656/1/5 652/1/5 654/1/5
f 656/1/5 654/1/5 655/1/5
f 657/3/6 658/3/6 659/3/6
f 659/3/6 658/3/6 660/3/6
f 661/1/6 662/1/6 663/1/6
f 663/1/6 662/1/6 664/1/6
f 665/5/6 666/5/6 667/5/6
f 667/5/6 666/5/6 668/5/6
f 670/5/6 671/5/6 673/5/6
f 671/5/6 672/5/6 673/5/6
f 669/5/6 670/5/6 673/5/6
f 673/5/6 672/5/6 674/5/6
f 675/5/6 676/5/6 677/5/6
f 677/5/6 676/5/6 678/5/6
f 679/3/6 680/3/6 681/3/6
f 681/3/6 680/3/6 682/3/6
f 682/3/6 680/3/6 683/3/6
f 683/3/6 680/3/6 684/3/6
f 682/4/6 683/4/6 686/4/6
f 686/4/6 683/4/6 687/4/6
f 685/1/6 686/1/6 689/1/6
f 687/1/6 688/1/6 690/1/6
f 685/1/6 689/1/6 691/1/6
f 689/1/6 690/1/6 691/1/6
f 690/1/6 688/1/6 692/1/6
f 691/1/6 690/1/6 692/1/6
f 693/5/6 694/5/6 698/5/6
f 698/5/6 694/5/6 699/5/6
f 695/5/6 696/5/6 702/5/6
f 702/5/6 696/5/6 703/5/6
f 697/5/6 698/5/6 705/5/6
f 705/5/6 698/5/6 706/5/6
f 699/5/6 700/5/6 707/5/6
f 707/5/6 700/5/6 708/5/6
f 701/5/6 702/5/6 709/5/6
f 709/5/6 702/5/6 710/5/6
f 703/5/6 704/5/6 711/5/6
f 711/5/6 704/5/6 712/5/6
f 713/5/6 714/5/6 717/5/6
f 717/5/6 714/5/6 718/5/6
f 715/5/6 716/5/6 719/5/6
f 719/5/6 716/5/6 720/5/6
f 721/5/6 722/5/6 725/5/6
f 725/5/6 722/5/6 726/5/6
f 723/5/6 724/5/6 727/5/6
f 727/5/6 724/5/6 728/5/6
f 729/3/6 730/3/6 731/3/6
f 731/3/6 730/3/6 732/3/6
