# MagicaVoxel @ Ephtracy

# group
o 

# material
mtllib condo_door.mtl
usemtl palette

# normals
vn -1 0 0
vn 1 0 0
vn 0 0 1
vn 0 0 -1
vn 0 -1 0
vn 0 1 0

# texcoords
vt 0.0214844 0.5
vt 0.0292969 0.5
vt 0.970703 0.5
vt 0.974609 0.5

# verts
v -1.8 0 1.7
v -1.8 0 1.3
v -1.8 6.4 1.7
v -1.8 6.4 1.3
v -0.9 0 1.7
v -0.9 0 1.6
v -0.9 0 1.4
v -0.9 0 1.3
v -0.9 1.3 1.7
v -0.9 1.3 1.6
v -0.9 1.3 1.4
v -0.9 1.3 1.3
v -0.9 1.4 1.7
v -0.9 1.4 1.6
v -0.9 1.4 1.4
v -0.9 1.4 1.3
v -0.9 2.5 1.7
v -0.9 2.5 1.6
v -0.9 2.5 1.4
v -0.9 2.5 1.3
v -0.9 2.6 1.7
v -0.9 2.6 1.6
v -0.9 2.6 1.4
v -0.9 2.6 1.3
v -0.9 3.7 1.7
v -0.9 3.7 1.6
v -0.9 3.7 1.4
v -0.9 3.7 1.3
v -0.9 3.8 1.7
v -0.9 3.8 1.6
v -0.9 3.8 1.4
v -0.9 3.8 1.3
v -0.9 4.9 1.7
v -0.9 4.9 1.6
v -0.9 4.9 1.4
v -0.9 4.9 1.3
v -0.9 5 1.7
v -0.9 5 1.6
v -0.9 5 1.4
v -0.9 5 1.3
v -0.9 6.4 1.7
v -0.9 6.4 1.6
v -0.9 6.4 1.4
v -0.9 6.4 1.3
v 0.8 3 2
v 0.8 3 1.9
v 0.8 3 1.1
v 0.8 3 1
v 0.8 3.2 2
v 0.8 3.2 1.9
v 0.8 3.2 1.1
v 0.8 3.2 1
v 1 0 1.7
v 1 0 1.6
v 1 0 1.4
v 1 0 1.3
v 1 6.4 1.7
v 1 6.4 1.6
v 1 6.4 1.4
v 1 6.4 1.3
v 1.2 3 1.8
v 1.2 3 1.7
v 1.2 3 1.3
v 1.2 3 1.2
v 1.2 3.2 1.8
v 1.2 3.2 1.7
v 1.2 3.2 1.3
v 1.2 3.2 1.2
v 1.3 2.9 1.8
v 1.3 2.9 1.7
v 1.3 2.9 1.3
v 1.3 2.9 1.2
v 1.3 3 1.9
v 1.3 3 1.8
v 1.3 3 1.7
v 1.3 3 1.3
v 1.3 3 1.2
v 1.3 3 1.1
v 1.3 3.2 1.9
v 1.3 3.2 1.8
v 1.3 3.2 1.7
v 1.3 3.2 1.3
v 1.3 3.2 1.2
v 1.3 3.2 1.1
v 1.3 3.3 1.8
v 1.3 3.3 1.7
v 1.3 3.3 1.3
v 1.3 3.3 1.2
v -1 0 1.7
v -1 0 1.6
v -1 0 1.4
v -1 0 1.3
v -1 6.4 1.7
v -1 6.4 1.6
v -1 6.4 1.4
v -1 6.4 1.3
v 0.9 0 1.7
v 0.9 0 1.6
v 0.9 0 1.4
v 0.9 0 1.3
v 0.9 1.3 1.7
v 0.9 1.3 1.6
v 0.9 1.3 1.4
v 0.9 1.3 1.3
v 0.9 1.4 1.7
v 0.9 1.4 1.6
v 0.9 1.4 1.4
v 0.9 1.4 1.3
v 0.9 2.5 1.7
v 0.9 2.5 1.6
v 0.9 2.5 1.4
v 0.9 2.5 1.3
v 0.9 2.6 1.7
v 0.9 2.6 1.6
v 0.9 2.6 1.4
v 0.9 2.6 1.3
v 0.9 3.7 1.7
v 0.9 3.7 1.6
v 0.9 3.7 1.4
v 0.9 3.7 1.3
v 0.9 3.8 1.7
v 0.9 3.8 1.6
v 0.9 3.8 1.4
v 0.9 3.8 1.3
v 0.9 4.9 1.7
v 0.9 4.9 1.6
v 0.9 4.9 1.4
v 0.9 4.9 1.3
v 0.9 5 1.7
v 0.9 5 1.6
v 0.9 5 1.4
v 0.9 5 1.3
v 0.9 6.4 1.7
v 0.9 6.4 1.6
v 0.9 6.4 1.4
v 0.9 6.4 1.3
v 1.4 3 2
v 1.4 3 1.9
v 1.4 3 1.1
v 1.4 3 1
v 1.4 3.2 2
v 1.4 3.2 1.9
v 1.4 3.2 1.1
v 1.4 3.2 1
v 1.5 2.9 1.8
v 1.5 2.9 1.7
v 1.5 2.9 1.3
v 1.5 2.9 1.2
v 1.5 3 1.9
v 1.5 3 1.8
v 1.5 3 1.7
v 1.5 3 1.3
v 1.5 3 1.2
v 1.5 3 1.1
v 1.5 3.2 1.9
v 1.5 3.2 1.8
v 1.5 3.2 1.7
v 1.5 3.2 1.3
v 1.5 3.2 1.2
v 1.5 3.2 1.1
v 1.5 3.3 1.8
v 1.5 3.3 1.7
v 1.5 3.3 1.3
v 1.5 3.3 1.2
v 1.6 3 1.8
v 1.6 3 1.7
v 1.6 3 1.3
v 1.6 3 1.2
v 1.6 3.2 1.8
v 1.6 3.2 1.7
v 1.6 3.2 1.3
v 1.6 3.2 1.2
v 1.8 0 1.7
v 1.8 0 1.3
v 1.8 6.4 1.7
v 1.8 6.4 1.3
v 0.8 3 2
v 0.8 3.2 2
v 1.4 3 2
v 1.4 3.2 2
v 1.4 3 1.9
v 1.4 3.2 1.9
v 1.5 3 1.9
v 1.5 3.2 1.9
v 1.2 3 1.8
v 1.2 3.2 1.8
v 1.3 2.9 1.8
v 1.3 3 1.8
v 1.3 3.2 1.8
v 1.3 3.3 1.8
v 1.5 2.9 1.8
v 1.5 3 1.8
v 1.5 3.2 1.8
v 1.5 3.3 1.8
v 1.6 3 1.8
v 1.6 3.2 1.8
v -1.8 0 1.7
v -1.8 6.4 1.7
v -1 0 1.7
v -1 6.4 1.7
v -0.9 0 1.7
v -0.9 1.3 1.7
v -0.9 1.4 1.7
v -0.9 2.5 1.7
v -0.9 2.6 1.7
v -0.9 3.7 1.7
v -0.9 3.8 1.7
v -0.9 4.9 1.7
v -0.9 5 1.7
v -0.9 6.4 1.7
v 0.9 0 1.7
v 0.9 1.3 1.7
v 0.9 1.4 1.7
v 0.9 2.5 1.7
v 0.9 2.6 1.7
v 0.9 3.7 1.7
v 0.9 3.8 1.7
v 0.9 4.9 1.7
v 0.9 5 1.7
v 0.9 6.4 1.7
v 1 0 1.7
v 1 6.4 1.7
v 1.2 3 1.7
v 1.2 3.2 1.7
v 1.3 2.9 1.7
v 1.3 3 1.7
v 1.3 3.2 1.7
v 1.3 3.3 1.7
v 1.5 2.9 1.7
v 1.5 3 1.7
v 1.5 3.2 1.7
v 1.5 3.3 1.7
v 1.6 3 1.7
v 1.6 3.2 1.7
v 1.8 0 1.7
v 1.8 6.4 1.7
v -1 0 1.6
v -1 6.4 1.6
v -0.9 0 1.6
v -0.9 1.3 1.6
v -0.9 1.4 1.6
v -0.9 2.5 1.6
v -0.9 2.6 1.6
v -0.9 3.7 1.6
v -0.9 3.8 1.6
v -0.9 4.9 1.6
v -0.9 5 1.6
v -0.9 6.4 1.6
v 0.9 0 1.6
v 0.9 1.3 1.6
v 0.9 1.4 1.6
v 0.9 2.5 1.6
v 0.9 2.6 1.6
v 0.9 3.7 1.6
v 0.9 3.8 1.6
v 0.9 4.9 1.6
v 0.9 5 1.6
v 0.9 6.4 1.6
v 1 0 1.6
v 1 6.4 1.6
v 0.8 3 1.1
v 0.8 3.2 1.1
v 1.3 3 1.1
v 1.3 3.2 1.1
v 0.8 3 1.9
v 0.8 3.2 1.9
v 1.3 3 1.9
v 1.3 3.2 1.9
v -1 0 1.4
v -1 6.4 1.4
v -0.9 0 1.4
v -0.9 1.3 1.4
v -0.9 1.4 1.4
v -0.9 2.5 1.4
v -0.9 2.6 1.4
v -0.9 3.7 1.4
v -0.9 3.8 1.4
v -0.9 4.9 1.4
v -0.9 5 1.4
v -0.9 6.4 1.4
v 0.9 0 1.4
v 0.9 1.3 1.4
v 0.9 1.4 1.4
v 0.9 2.5 1.4
v 0.9 2.6 1.4
v 0.9 3.7 1.4
v 0.9 3.8 1.4
v 0.9 4.9 1.4
v 0.9 5 1.4
v 0.9 6.4 1.4
v 1 0 1.4
v 1 6.4 1.4
v -1.8 0 1.3
v -1.8 6.4 1.3
v -1 0 1.3
v -1 6.4 1.3
v -0.9 0 1.3
v -0.9 1.3 1.3
v -0.9 1.4 1.3
v -0.9 2.5 1.3
v -0.9 2.6 1.3
v -0.9 3.7 1.3
v -0.9 3.8 1.3
v -0.9 4.9 1.3
v -0.9 5 1.3
v -0.9 6.4 1.3
v 0.9 0 1.3
v 0.9 1.3 1.3
v 0.9 1.4 1.3
v 0.9 2.5 1.3
v 0.9 2.6 1.3
v 0.9 3.7 1.3
v 0.9 3.8 1.3
v 0.9 4.9 1.3
v 0.9 5 1.3
v 0.9 6.4 1.3
v 1 0 1.3
v 1 6.4 1.3
v 1.2 3 1.3
v 1.2 3.2 1.3
v 1.3 2.9 1.3
v 1.3 3 1.3
v 1.3 3.2 1.3
v 1.3 3.3 1.3
v 1.5 2.9 1.3
v 1.5 3 1.3
v 1.5 3.2 1.3
v 1.5 3.3 1.3
v 1.6 3 1.3
v 1.6 3.2 1.3
v 1.8 0 1.3
v 1.8 6.4 1.3
v 1.2 3 1.2
v 1.2 3.2 1.2
v 1.3 2.9 1.2
v 1.3 3 1.2
v 1.3 3.2 1.2
v 1.3 3.3 1.2
v 1.5 2.9 1.2
v 1.5 3 1.2
v 1.5 3.2 1.2
v 1.5 3.3 1.2
v 1.6 3 1.2
v 1.6 3.2 1.2
v 1.4 3 1.1
v 1.4 3.2 1.1
v 1.5 3 1.1
v 1.5 3.2 1.1
v 0.8 3 1
v 0.8 3.2 1
v 1.4 3 1
v 1.4 3.2 1
v -1.8 0 1.7
v -1 0 1.7
v -0.9 0 1.7
v 0.9 0 1.7
v 1 0 1.7
v 1.8 0 1.7
v -1.1 0 1.6
v -1 0 1.6
v -0.9 0 1.6
v 0.9 0 1.6
v 1 0 1.6
v 1.1 0 1.6
v -1.1 0 1.5
v -1 0 1.5
v -0.9 0 1.5
v 0.9 0 1.5
v 1 0 1.5
v 1.1 0 1.5
v -1 0 1.4
v -0.9 0 1.4
v 0.9 0 1.4
v 1 0 1.4
v -1.8 0 1.3
v -1 0 1.3
v -0.9 0 1.3
v 0.9 0 1.3
v 1 0 1.3
v 1.8 0 1.3
v -0.9 1.4 1.7
v 0.9 1.4 1.7
v -0.9 1.4 1.6
v 0.9 1.4 1.6
v -0.9 1.4 1.4
v 0.9 1.4 1.4
v -0.9 1.4 1.3
v 0.9 1.4 1.3
v -0.9 2.6 1.7
v 0.9 2.6 1.7
v -0.9 2.6 1.6
v 0.9 2.6 1.6
v -0.9 2.6 1.4
v 0.9 2.6 1.4
v -0.9 2.6 1.3
v 0.9 2.6 1.3
v 1.3 2.9 1.8
v 1.5 2.9 1.8
v 1.3 2.9 1.7
v 1.5 2.9 1.7
v 1.3 2.9 1.3
v 1.5 2.9 1.3
v 1.3 2.9 1.2
v 1.5 2.9 1.2
v 0.8 3 2
v 1.4 3 2
v 0.8 3 1.9
v 1.3 3 1.9
v 1.4 3 1.9
v 1.5 3 1.9
v 1.2 3 1.8
v 1.3 3 1.8
v 1.5 3 1.8
v 1.6 3 1.8
v 1.2 3 1.7
v 1.3 3 1.7
v 1.5 3 1.7
v 1.6 3 1.7
v 1.2 3 1.3
v 1.3 3 1.3
v 1.5 3 1.3
v 1.6 3 1.3
v 1.2 3 1.2
v 1.3 3 1.2
v 1.5 3 1.2
v 1.6 3 1.2
v 0.8 3 1.1
v 1.3 3 1.1
v 1.4 3 1.1
v 1.5 3 1.1
v 0.8 3 1
v 1.4 3 1
v -0.9 3.8 1.7
v 0.9 3.8 1.7
v -0.9 3.8 1.6
v 0.9 3.8 1.6
v -0.9 3.8 1.4
v 0.9 3.8 1.4
v -0.9 3.8 1.3
v 0.9 3.8 1.3
v -0.9 5 1.7
v 0.9 5 1.7
v -0.9 5 1.6
v 0.9 5 1.6
v -0.9 5 1.4
v 0.9 5 1.4
v -0.9 5 1.3
v 0.9 5 1.3
v -0.9 1.3 1.7
v 0.9 1.3 1.7
v -0.9 1.3 1.6
v 0.9 1.3 1.6
v -0.9 1.3 1.4
v 0.9 1.3 1.4
v -0.9 1.3 1.3
v 0.9 1.3 1.3
v -0.9 2.5 1.7
v 0.9 2.5 1.7
v -0.9 2.5 1.6
v 0.9 2.5 1.6
v -0.9 2.5 1.4
v 0.9 2.5 1.4
v -0.9 2.5 1.3
v 0.9 2.5 1.3
v 0.8 3.2 2
v 1.4 3.2 2
v 0.8 3.2 1.9
v 1.3 3.2 1.9
v 1.4 3.2 1.9
v 1.5 3.2 1.9
v 1.2 3.2 1.8
v 1.3 3.2 1.8
v 1.5 3.2 1.8
v 1.6 3.2 1.8
v 1.2 3.2 1.7
v 1.3 3.2 1.7
v 1.5 3.2 1.7
v 1.6 3.2 1.7
v 1.2 3.2 1.3
v 1.3 3.2 1.3
v 1.5 3.2 1.3
v 1.6 3.2 1.3
v 1.2 3.2 1.2
v 1.3 3.2 1.2
v 1.5 3.2 1.2
v 1.6 3.2 1.2
v 0.8 3.2 1.1
v 1.3 3.2 1.1
v 1.4 3.2 1.1
v 1.5 3.2 1.1
v 0.8 3.2 1
v 1.4 3.2 1
v 1.3 3.3 1.8
v 1.5 3.3 1.8
v 1.3 3.3 1.7
v 1.5 3.3 1.7
v 1.3 3.3 1.3
v 1.5 3.3 1.3
v 1.3 3.3 1.2
v 1.5 3.3 1.2
v -0.9 3.7 1.7
v 0.9 3.7 1.7
v -0.9 3.7 1.6
v 0.9 3.7 1.6
v -0.9 3.7 1.4
v 0.9 3.7 1.4
v -0.9 3.7 1.3
v 0.9 3.7 1.3
v -0.9 4.9 1.7
v 0.9 4.9 1.7
v -0.9 4.9 1.6
v 0.9 4.9 1.6
v -0.9 4.9 1.4
v 0.9 4.9 1.4
v -0.9 4.9 1.3
v 0.9 4.9 1.3
v -1.8 6.4 1.7
v -1 6.4 1.7
v -0.9 6.4 1.7
v 0.9 6.4 1.7
v 1 6.4 1.7
v 1.8 6.4 1.7
v -1.1 6.4 1.6
v -1 6.4 1.6
v -0.9 6.4 1.6
v 0.9 6.4 1.6
v 1 6.4 1.6
v 1.1 6.4 1.6
v -1.1 6.4 1.5
v -1 6.4 1.5
v -0.9 6.4 1.5
v 0.9 6.4 1.5
v 1 6.4 1.5
v 1.1 6.4 1.5
v -1 6.4 1.4
v -0.9 6.4 1.4
v 0.9 6.4 1.4
v 1 6.4 1.4
v -1.8 6.4 1.3
v -1 6.4 1.3
v -0.9 6.4 1.3
v 0.9 6.4 1.3
v 1 6.4 1.3
v 1.8 6.4 1.3

# faces
f 3/4/1 2/4/1 1/4/1
f 4/4/1 2/4/1 3/4/1
f 9/4/1 6/4/1 5/4/1
f 10/4/1 6/4/1 9/4/1
f 11/4/1 8/4/1 7/4/1
f 12/4/1 8/4/1 11/4/1
f 17/4/1 14/4/1 13/4/1
f 18/4/1 14/4/1 17/4/1
f 19/4/1 16/4/1 15/4/1
f 20/4/1 16/4/1 19/4/1
f 25/4/1 22/4/1 21/4/1
f 26/4/1 22/4/1 25/4/1
f 27/4/1 24/4/1 23/4/1
f 28/4/1 24/4/1 27/4/1
f 33/4/1 30/4/1 29/4/1
f 34/4/1 30/4/1 33/4/1
f 35/4/1 32/4/1 31/4/1
f 36/4/1 32/4/1 35/4/1
f 41/4/1 38/4/1 37/4/1
f 42/4/1 38/4/1 41/4/1
f 43/4/1 40/4/1 39/4/1
f 44/4/1 40/4/1 43/4/1
f 49/2/1 46/2/1 45/2/1
f 50/2/1 46/2/1 49/2/1
f 51/2/1 48/2/1 47/2/1
f 52/2/1 48/2/1 51/2/1
f 57/4/1 54/4/1 53/4/1
f 58/4/1 54/4/1 57/4/1
f 59/4/1 56/4/1 55/4/1
f 60/4/1 56/4/1 59/4/1
f 65/2/1 62/2/1 61/2/1
f 66/2/1 62/2/1 65/2/1
f 67/2/1 64/2/1 63/2/1
f 68/2/1 64/2/1 67/2/1
f 74/2/1 70/2/1 69/2/1
f 75/2/1 70/2/1 74/2/1
f 76/2/1 72/2/1 71/2/1
f 77/2/1 72/2/1 76/2/1
f 79/2/1 74/2/1 73/2/1
f 80/2/1 74/2/1 79/2/1
f 83/2/1 78/2/1 77/2/1
f 84/2/1 78/2/1 83/2/1
f 85/2/1 81/2/1 80/2/1
f 86/2/1 81/2/1 85/2/1
f 87/2/1 83/2/1 82/2/1
f 88/2/1 83/2/1 87/2/1
f 89/4/2 90/4/2 93/4/2
f 93/4/2 90/4/2 94/4/2
f 91/4/2 92/4/2 95/4/2
f 95/4/2 92/4/2 96/4/2
f 97/4/2 98/4/2 101/4/2
f 101/4/2 98/4/2 102/4/2
f 99/4/2 100/4/2 103/4/2
f 103/4/2 100/4/2 104/4/2
f 105/4/2 106/4/2 109/4/2
f 109/4/2 106/4/2 110/4/2
f 107/4/2 108/4/2 111/4/2
f 111/4/2 108/4/2 112/4/2
f 113/4/2 114/4/2 117/4/2
f 117/4/2 114/4/2 118/4/2
f 115/4/2 116/4/2 119/4/2
f 119/4/2 116/4/2 120/4/2
f 121/4/2 122/4/2 125/4/2
f 125/4/2 122/4/2 126/4/2
f 123/4/2 124/4/2 127/4/2
f 127/4/2 124/4/2 128/4/2
f 129/4/2 130/4/2 133/4/2
f 133/4/2 130/4/2 134/4/2
f 131/4/2 132/4/2 135/4/2
f 135/4/2 132/4/2 136/4/2
f 137/2/2 138/2/2 141/2/2
f 141/2/2 138/2/2 142/2/2
f 139/2/2 140/2/2 143/2/2
f 143/2/2 140/2/2 144/2/2
f 145/2/2 146/2/2 150/2/2
f 150/2/2 146/2/2 151/2/2
f 147/2/2 148/2/2 152/2/2
f 152/2/2 148/2/2 153/2/2
f 149/2/2 150/2/2 155/2/2
f 155/2/2 150/2/2 156/2/2
f 153/2/2 154/2/2 159/2/2
f 159/2/2 154/2/2 160/2/2
f 156/2/2 157/2/2 161/2/2
f 161/2/2 157/2/2 162/2/2
f 158/2/2 159/2/2 163/2/2
f 163/2/2 159/2/2 164/2/2
f 165/2/2 166/2/2 169/2/2
f 169/2/2 166/2/2 170/2/2
f 167/2/2 168/2/2 171/2/2
f 171/2/2 168/2/2 172/2/2
f 173/4/2 174/4/2 175/4/2
f 175/4/2 174/4/2 176/4/2
f 179/2/3 178/2/3 177/2/3
f 180/2/3 178/2/3 179/2/3
f 183/2/3 182/2/3 181/2/3
f 184/2/3 182/2/3 183/2/3
f 188/2/3 186/2/3 185/2/3
f 189/2/3 186/2/3 188/2/3
f 191/2/3 188/2/3 187/2/3
f 192/2/3 188/2/3 191/2/3
f 193/2/3 190/2/3 189/2/3
f 194/2/3 190/2/3 193/2/3
f 195/2/3 193/2/3 192/2/3
f 196/2/3 193/2/3 195/2/3
f 199/4/3 198/4/3 197/4/3
f 200/4/3 198/4/3 199/4/3
f 211/4/3 202/4/3 201/4/3
f 212/4/3 202/4/3 211/4/3
f 213/4/3 204/4/3 203/4/3
f 214/4/3 204/4/3 213/4/3
f 215/4/3 206/4/3 205/4/3
f 216/4/3 206/4/3 215/4/3
f 217/4/3 208/4/3 207/4/3
f 218/4/3 208/4/3 217/4/3
f 219/4/3 210/4/3 209/4/3
f 220/4/3 210/4/3 219/4/3
f 223/4/3 222/4/3 221/4/3
f 224/4/3 222/4/3 223/4/3
f 225/4/3 223/4/3 221/4/3
f 226/4/3 223/4/3 225/4/3
f 227/4/3 222/4/3 224/4/3
f 228/4/3 222/4/3 227/4/3
f 229/4/3 225/4/3 221/4/3
f 232/4/3 222/4/3 228/4/3
f 233/4/3 230/4/3 229/4/3
f 234/4/3 232/4/3 231/4/3
f 235/4/3 233/4/3 229/4/3
f 235/4/3 234/4/3 233/4/3
f 235/4/3 229/4/3 221/4/3
f 236/4/3 232/4/3 234/4/3
f 236/4/3 234/4/3 235/4/3
f 236/4/3 222/4/3 232/4/3
f 239/1/3 238/1/3 237/1/3
f 240/1/3 238/1/3 239/1/3
f 241/1/3 238/1/3 240/1/3
f 242/1/3 238/1/3 241/1/3
f 243/1/3 238/1/3 242/1/3
f 244/1/3 238/1/3 243/1/3
f 245/1/3 238/1/3 244/1/3
f 246/1/3 238/1/3 245/1/3
f 247/1/3 238/1/3 246/1/3
f 248/1/3 238/1/3 247/1/3
f 250/1/3 241/1/3 240/1/3
f 251/1/3 241/1/3 250/1/3
f 252/1/3 243/1/3 242/1/3
f 253/1/3 243/1/3 252/1/3
f 254/1/3 245/1/3 244/1/3
f 255/1/3 245/1/3 254/1/3
f 256/1/3 247/1/3 246/1/3
f 257/1/3 247/1/3 256/1/3
f 259/1/3 253/1/3 252/1/3
f 259/1/3 258/1/3 257/1/3
f 259/1/3 257/1/3 256/1/3
f 259/1/3 256/1/3 255/1/3
f 259/1/3 255/1/3 254/1/3
f 259/1/3 254/1/3 253/1/3
f 259/1/3 251/1/3 250/1/3
f 259/1/3 252/1/3 251/1/3
f 259/1/3 250/1/3 249/1/3
f 260/1/3 258/1/3 259/1/3
f 263/2/3 262/2/3 261/2/3
f 264/2/3 262/2/3 263/2/3
f 265/2/4 266/2/4 267/2/4
f 267/2/4 266/2/4 268/2/4
f 269/1/4 270/1/4 271/1/4
f 271/1/4 270/1/4 272/1/4
f 272/1/4 270/1/4 273/1/4
f 273/1/4 270/1/4 274/1/4
f 274/1/4 270/1/4 275/1/4
f 275/1/4 270/1/4 276/1/4
f 276/1/4 270/1/4 277/1/4
f 277/1/4 270/1/4 278/1/4
f 278/1/4 270/1/4 279/1/4
f 279/1/4 270/1/4 280/1/4
f 272/1/4 273/1/4 282/1/4
f 282/1/4 273/1/4 283/1/4
f 274/1/4 275/1/4 284/1/4
f 284/1/4 275/1/4 285/1/4
f 276/1/4 277/1/4 286/1/4
f 286/1/4 277/1/4 287/1/4
f 278/1/4 279/1/4 288/1/4
f 288/1/4 279/1/4 289/1/4
f 284/1/4 285/1/4 291/1/4
f 289/1/4 290/1/4 291/1/4
f 288/1/4 289/1/4 291/1/4
f 287/1/4 288/1/4 291/1/4
f 286/1/4 287/1/4 291/1/4
f 285/1/4 286/1/4 291/1/4
f 282/1/4 283/1/4 291/1/4
f 283/1/4 284/1/4 291/1/4
f 281/1/4 282/1/4 291/1/4
f 291/1/4 290/1/4 292/1/4
f 293/4/4 294/4/4 295/4/4
f 295/4/4 294/4/4 296/4/4
f 297/4/4 298/4/4 307/4/4
f 307/4/4 298/4/4 308/4/4
f 299/4/4 300/4/4 309/4/4
f 309/4/4 300/4/4 310/4/4
f 301/4/4 302/4/4 311/4/4
f 311/4/4 302/4/4 312/4/4
f 303/4/4 304/4/4 313/4/4
f 313/4/4 304/4/4 314/4/4
f 305/4/4 306/4/4 315/4/4
f 315/4/4 306/4/4 316/4/4
f 317/4/4 318/4/4 319/4/4
f 319/4/4 318/4/4 320/4/4
f 317/4/4 319/4/4 321/4/4
f 321/4/4 319/4/4 322/4/4
f 320/4/4 318/4/4 323/4/4
f 323/4/4 318/4/4 324/4/4
f 317/4/4 321/4/4 325/4/4
f 324/4/4 318/4/4 328/4/4
f 325/4/4 326/4/4 329/4/4
f 327/4/4 328/4/4 330/4/4
f 325/4/4 329/4/4 331/4/4
f 329/4/4 330/4/4 331/4/4
f 317/4/4 325/4/4 331/4/4
f 330/4/4 328/4/4 332/4/4
f 331/4/4 330/4/4 332/4/4
f 328/4/4 318/4/4 332/4/4
f 333/2/4 334/2/4 336/2/4
f 336/2/4 334/2/4 337/2/4
f 335/2/4 336/2/4 339/2/4
f 339/2/4 336/2/4 340/2/4
f 337/2/4 338/2/4 341/2/4
f 341/2/4 338/2/4 342/2/4
f 340/2/4 341/2/4 343/2/4
f 343/2/4 341/2/4 344/2/4
f 345/2/4 346/2/4 347/2/4
f 347/2/4 346/2/4 348/2/4
f 349/2/4 350/2/4 351/2/4
f 351/2/4 350/2/4 352/2/4
f 359/4/5 354/4/5 353/4/5
f 360/4/5 354/4/5 359/4/5
f 361/4/5 356/4/5 355/4/5
f 362/4/5 356/4/5 361/4/5
f 363/4/5 358/4/5 357/4/5
f 364/4/5 358/4/5 363/4/5
f 365/1/5 362/1/5 361/1/5
f 365/1/5 360/1/5 359/1/5
f 365/1/5 364/1/5 363/1/5
f 365/1/5 363/1/5 362/1/5
f 365/4/5 359/4/5 353/4/5
f 365/1/5 361/1/5 360/1/5
f 366/1/5 364/1/5 365/1/5
f 367/1/5 364/1/5 366/1/5
f 368/1/5 364/1/5 367/1/5
f 369/1/5 364/1/5 368/1/5
f 370/4/5 358/4/5 364/4/5
f 370/1/5 364/1/5 369/1/5
f 371/4/5 366/4/5 365/4/5
f 371/1/5 367/1/5 366/1/5
f 372/4/5 368/4/5 367/4/5
f 372/1/5 367/1/5 371/1/5
f 373/1/5 369/1/5 368/1/5
f 373/4/5 368/4/5 372/4/5
f 374/4/5 370/4/5 369/4/5
f 374/1/5 369/1/5 373/1/5
f 375/4/5 365/4/5 353/4/5
f 375/4/5 371/4/5 365/4/5
f 376/4/5 371/4/5 375/4/5
f 377/4/5 373/4/5 372/4/5
f 378/4/5 373/4/5 377/4/5
f 379/4/5 370/4/5 374/4/5
f 380/4/5 358/4/5 370/4/5
f 380/4/5 370/4/5 379/4/5
f 383/4/5 382/4/5 381/4/5
f 384/4/5 382/4/5 383/4/5
f 387/4/5 386/4/5 385/4/5
f 388/4/5 386/4/5 387/4/5
f 391/4/5 390/4/5 389/4/5
f 392/4/5 390/4/5 391/4/5
f 395/4/5 394/4/5 393/4/5
f 396/4/5 394/4/5 395/4/5
f 399/2/5 398/2/5 397/2/5
f 400/2/5 398/2/5 399/2/5
f 403/2/5 402/2/5 401/2/5
f 404/2/5 402/2/5 403/2/5
f 407/2/5 406/2/5 405/2/5
f 408/2/5 406/2/5 407/2/5
f 409/2/5 406/2/5 408/2/5
f 412/2/5 410/2/5 409/2/5
f 412/2/5 409/2/5 408/2/5
f 413/2/5 410/2/5 412/2/5
f 415/2/5 412/2/5 411/2/5
f 416/2/5 412/2/5 415/2/5
f 417/2/5 414/2/5 413/2/5
f 418/2/5 414/2/5 417/2/5
f 423/2/5 420/2/5 419/2/5
f 424/2/5 420/2/5 423/2/5
f 425/2/5 422/2/5 421/2/5
f 426/2/5 422/2/5 425/2/5
f 428/2/5 425/2/5 424/2/5
f 429/2/5 425/2/5 428/2/5
f 430/2/5 425/2/5 429/2/5
f 431/2/5 428/2/5 427/2/5
f 431/2/5 429/2/5 428/2/5
f 432/2/5 429/2/5 431/2/5
f 435/4/5 434/4/5 433/4/5
f 436/4/5 434/4/5 435/4/5
f 439/4/5 438/4/5 437/4/5
f 440/4/5 438/4/5 439/4/5
f 443/4/5 442/4/5 441/4/5
f 444/4/5 442/4/5 443/4/5
f 447/4/5 446/4/5 445/4/5
f 448/4/5 446/4/5 447/4/5
f 449/4/6 450/4/6 451/4/6
f 451/4/6 450/4/6 452/4/6
f 453/4/6 454/4/6 455/4/6
f 455/4/6 454/4/6 456/4/6
f 457/4/6 458/4/6 459/4/6
f 459/4/6 458/4/6 460/4/6
f 461/4/6 462/4/6 463/4/6
f 463/4/6 462/4/6 464/4/6
f 465/2/6 466/2/6 467/2/6
f 467/2/6 466/2/6 468/2/6
f 468/2/6 466/2/6 469/2/6
f 469/2/6 470/2/6 472/2/6
f 468/2/6 469/2/6 472/2/6
f 472/2/6 470/2/6 473/2/6
f 471/2/6 472/2/6 475/2/6
f 475/2/6 472/2/6 476/2/6
f 473/2/6 474/2/6 477/2/6
f 477/2/6 474/2/6 478/2/6
f 479/2/6 480/2/6 483/2/6
f 483/2/6 480/2/6 484/2/6
f 481/2/6 482/2/6 485/2/6
f 485/2/6 482/2/6 486/2/6
f 484/2/6 485/2/6 488/2/6
f 488/2/6 485/2/6 489/2/6
f 489/2/6 485/2/6 490/2/6
f 487/2/6 488/2/6 491/2/6
f 488/2/6 489/2/6 491/2/6
f 491/2/6 489/2/6 492/2/6
f 493/2/6 494/2/6 495/2/6
f 495/2/6 494/2/6 496/2/6
f 497/2/6 498/2/6 499/2/6
f 499/2/6 498/2/6 500/2/6
f 501/4/6 502/4/6 503/4/6
f 503/4/6 502/4/6 504/4/6
f 505/4/6 506/4/6 507/4/6
f 507/4/6 506/4/6 508/4/6
f 509/4/6 510/4/6 511/4/6
f 511/4/6 510/4/6 512/4/6
f 513/4/6 514/4/6 515/4/6
f 515/4/6 514/4/6 516/4/6
f 517/4/6 518/4/6 523/4/6
f 523/4/6 518/4/6 524/4/6
f 519/4/6 520/4/6 525/4/6
f 525/4/6 520/4/6 526/4/6
f 521/4/6 522/4/6 527/4/6
f 527/4/6 522/4/6 528/4/6
f 525/1/6 526/1/6 529/1/6
f 523/1/6 524/1/6 529/1/6
f 527/1/6 528/1/6 529/1/6
f 526/1/6 527/1/6 529/1/6
f 517/4/6 523/4/6 529/4/6
f 524/1/6 525/1/6 529/1/6
f 529/1/6 528/1/6 530/1/6
f 530/1/6 528/1/6 531/1/6
f 531/1/6 528/1/6 532/1/6
f 532/1/6 528/1/6 533/1/6
f 528/4/6 522/4/6 534/4/6
f 533/1/6 528/1/6 534/1/6
f 529/4/6 530/4/6 535/4/6
f 530/1/6 531/1/6 535/1/6
f 531/4/6 532/4/6 536/4/6
f 535/1/6 531/1/6 536/1/6
f 532/1/6 533/1/6 537/1/6
f 536/4/6 532/4/6 537/4/6
f 533/4/6 534/4/6 538/4/6
f 537/1/6 533/1/6 538/1/6
f 517/4/6 529/4/6 539/4/6
f 529/4/6 535/4/6 539/4/6
f 539/4/6 535/4/6 540/4/6
f 536/4/6 537/4/6 541/4/6
f 541/4/6 537/4/6 542/4/6
f 538/4/6 534/4/6 543/4/6
f 534/4/6 522/4/6 544/4/6
f 543/4/6 534/4/6 544/4/6
