# MagicaVoxel @ Ephtracy

# group
o 

# material
mtllib condo_main_door.mtl
usemtl palette

# normals
vn -1 0 0
vn 1 0 0
vn 0 0 1
vn 0 0 -1
vn 0 -1 0
vn 0 1 0

# texcoords
vt 0.0214844 0.5
vt 0.0292969 0.5
vt 0.0722656 0.5
vt 0.970703 0.5

# verts
v -1.8 0 1.7
v -1.8 0 1.3
v -1.8 6.4 1.7
v -1.8 6.4 1.3
v -0.9 0.2 1.7
v -0.9 0.2 1.6
v -0.9 0.2 1.4
v -0.9 0.2 1.3
v -0.9 1.3 1.7
v -0.9 1.3 1.6
v -0.9 1.3 1.4
v -0.9 1.3 1.3
v -0.9 1.4 1.7
v -0.9 1.4 1.6
v -0.9 1.4 1.4
v -0.9 1.4 1.3
v -0.9 2.5 1.7
v -0.9 2.5 1.6
v -0.9 2.5 1.4
v -0.9 2.5 1.3
v -0.9 2.6 1.7
v -0.9 2.6 1.6
v -0.9 2.6 1.4
v -0.9 2.6 1.3
v -0.9 3.7 1.7
v -0.9 3.7 1.6
v -0.9 3.7 1.4
v -0.9 3.7 1.3
v -0.9 3.8 1.7
v -0.9 3.8 1.6
v -0.9 3.8 1.4
v -0.9 3.8 1.3
v -0.9 4.9 1.7
v -0.9 4.9 1.6
v -0.9 4.9 1.4
v -0.9 4.9 1.3
v -0.9 5 1.7
v -0.9 5 1.6
v -0.9 5 1.4
v -0.9 5 1.3
v -0.9 6.1 1.7
v -0.9 6.1 1.6
v -0.9 6.1 1.4
v -0.9 6.1 1.3
v 0.8 3 2
v 0.8 3 1.9
v 0.8 3 1.1
v 0.8 3 1
v 0.8 3.2 2
v 0.8 3.2 1.9
v 0.8 3.2 1.1
v 0.8 3.2 1
v 1 0 1.7
v 1 0 1.6
v 1 0 1.4
v 1 0 1.3
v 1 6.4 1.7
v 1 6.4 1.6
v 1 6.4 1.4
v 1 6.4 1.3
v 1.1 2.6 1.3
v 1.1 2.6 1.2
v 1.1 3.4 1.3
v 1.1 3.4 1.2
v 1.2 2.5 1.3
v 1.2 2.5 1.2
v 1.2 2.6 1.3
v 1.2 2.6 1.2
v 1.2 3 1.8
v 1.2 3 1.7
v 1.2 3.2 1.8
v 1.2 3.2 1.7
v 1.2 3.4 1.3
v 1.2 3.4 1.2
v 1.2 3.5 1.3
v 1.2 3.5 1.2
v 1.3 2.9 1.8
v 1.3 2.9 1.7
v 1.3 3 1.9
v 1.3 3 1.8
v 1.3 3 1.7
v 1.3 3 1.2
v 1.3 3 1.1
v 1.3 3.2 1.9
v 1.3 3.2 1.8
v 1.3 3.2 1.7
v 1.3 3.2 1.2
v 1.3 3.2 1.1
v 1.3 3.3 1.8
v 1.3 3.3 1.7
v -1 0 1.7
v -1 0 1.6
v -1 0 1.4
v -1 0 1.3
v -1 6.4 1.7
v -1 6.4 1.6
v -1 6.4 1.4
v -1 6.4 1.3
v 0.9 0.2 1.7
v 0.9 0.2 1.6
v 0.9 0.2 1.4
v 0.9 0.2 1.3
v 0.9 1.3 1.7
v 0.9 1.3 1.6
v 0.9 1.3 1.4
v 0.9 1.3 1.3
v 0.9 1.4 1.7
v 0.9 1.4 1.6
v 0.9 1.4 1.4
v 0.9 1.4 1.3
v 0.9 2.5 1.7
v 0.9 2.5 1.6
v 0.9 2.5 1.4
v 0.9 2.5 1.3
v 0.9 2.6 1.7
v 0.9 2.6 1.6
v 0.9 2.6 1.4
v 0.9 2.6 1.3
v 0.9 3.7 1.7
v 0.9 3.7 1.6
v 0.9 3.7 1.4
v 0.9 3.7 1.3
v 0.9 3.8 1.7
v 0.9 3.8 1.6
v 0.9 3.8 1.4
v 0.9 3.8 1.3
v 0.9 4.9 1.7
v 0.9 4.9 1.6
v 0.9 4.9 1.4
v 0.9 4.9 1.3
v 0.9 5 1.7
v 0.9 5 1.6
v 0.9 5 1.4
v 0.9 5 1.3
v 0.9 6.1 1.7
v 0.9 6.1 1.6
v 0.9 6.1 1.4
v 0.9 6.1 1.3
v 1.4 3 2
v 1.4 3 1.9
v 1.4 3 1.1
v 1.4 3 1
v 1.4 3.2 2
v 1.4 3.2 1.9
v 1.4 3.2 1.1
v 1.4 3.2 1
v 1.5 2.9 1.8
v 1.5 2.9 1.7
v 1.5 3 1.9
v 1.5 3 1.8
v 1.5 3 1.7
v 1.5 3 1.2
v 1.5 3 1.1
v 1.5 3.2 1.9
v 1.5 3.2 1.8
v 1.5 3.2 1.7
v 1.5 3.2 1.2
v 1.5 3.2 1.1
v 1.5 3.3 1.8
v 1.5 3.3 1.7
v 1.6 2.5 1.3
v 1.6 2.5 1.2
v 1.6 2.6 1.3
v 1.6 2.6 1.2
v 1.6 3 1.8
v 1.6 3 1.7
v 1.6 3.2 1.8
v 1.6 3.2 1.7
v 1.6 3.4 1.3
v 1.6 3.4 1.2
v 1.6 3.5 1.3
v 1.6 3.5 1.2
v 1.7 2.6 1.3
v 1.7 2.6 1.2
v 1.7 3.4 1.3
v 1.7 3.4 1.2
v 1.8 0 1.7
v 1.8 0 1.3
v 1.8 6.4 1.7
v 1.8 6.4 1.3
v 0.8 3 2
v 0.8 3.2 2
v 1.4 3 2
v 1.4 3.2 2
v 1.4 3 1.9
v 1.4 3.2 1.9
v 1.5 3 1.9
v 1.5 3.2 1.9
v 1.2 3 1.8
v 1.2 3.2 1.8
v 1.3 2.9 1.8
v 1.3 3 1.8
v 1.3 3.2 1.8
v 1.3 3.3 1.8
v 1.5 2.9 1.8
v 1.5 3 1.8
v 1.5 3.2 1.8
v 1.5 3.3 1.8
v 1.6 3 1.8
v 1.6 3.2 1.8
v -1.8 0 1.7
v -1.8 6.4 1.7
v -1 0 1.7
v -1 6.4 1.7
v -0.9 0.2 1.7
v -0.9 1.3 1.7
v -0.9 1.4 1.7
v -0.9 2.5 1.7
v -0.9 2.6 1.7
v -0.9 3.7 1.7
v -0.9 3.8 1.7
v -0.9 4.9 1.7
v -0.9 5 1.7
v -0.9 6.1 1.7
v 0.9 0.2 1.7
v 0.9 1.3 1.7
v 0.9 1.4 1.7
v 0.9 2.5 1.7
v 0.9 2.6 1.7
v 0.9 3.7 1.7
v 0.9 3.8 1.7
v 0.9 4.9 1.7
v 0.9 5 1.7
v 0.9 6.1 1.7
v 1 0 1.7
v 1 6.4 1.7
v 1.2 3 1.7
v 1.2 3.2 1.7
v 1.3 2.9 1.7
v 1.3 3 1.7
v 1.3 3.2 1.7
v 1.3 3.3 1.7
v 1.5 2.9 1.7
v 1.5 3 1.7
v 1.5 3.2 1.7
v 1.5 3.3 1.7
v 1.6 3 1.7
v 1.6 3.2 1.7
v 1.8 0 1.7
v 1.8 6.4 1.7
v -1 0 1.6
v -1 6.4 1.6
v -0.9 0.2 1.6
v -0.9 1.3 1.6
v -0.9 1.4 1.6
v -0.9 2.5 1.6
v -0.9 2.6 1.6
v -0.9 3.7 1.6
v -0.9 3.8 1.6
v -0.9 4.9 1.6
v -0.9 5 1.6
v -0.9 6.1 1.6
v 0.9 0.2 1.6
v 0.9 1.3 1.6
v 0.9 1.4 1.6
v 0.9 2.5 1.6
v 0.9 2.6 1.6
v 0.9 3.7 1.6
v 0.9 3.8 1.6
v 0.9 4.9 1.6
v 0.9 5 1.6
v 0.9 6.1 1.6
v 1 0 1.6
v 1 6.4 1.6
v 0.8 3 1.1
v 0.8 3.2 1.1
v 1.3 3 1.1
v 1.3 3.2 1.1
v 0.8 3 1.9
v 0.8 3.2 1.9
v 1.3 3 1.9
v 1.3 3.2 1.9
v -1 0 1.4
v -1 6.4 1.4
v -0.9 0.2 1.4
v -0.9 1.3 1.4
v -0.9 1.4 1.4
v -0.9 2.5 1.4
v -0.9 2.6 1.4
v -0.9 3.7 1.4
v -0.9 3.8 1.4
v -0.9 4.9 1.4
v -0.9 5 1.4
v -0.9 6.1 1.4
v 0.9 0.2 1.4
v 0.9 1.3 1.4
v 0.9 1.4 1.4
v 0.9 2.5 1.4
v 0.9 2.6 1.4
v 0.9 3.7 1.4
v 0.9 3.8 1.4
v 0.9 4.9 1.4
v 0.9 5 1.4
v 0.9 6.1 1.4
v 1 0 1.4
v 1 6.4 1.4
v -1.8 0 1.3
v -1.8 6.4 1.3
v -1 0 1.3
v -1 6.4 1.3
v -0.9 0.2 1.3
v -0.9 1.3 1.3
v -0.9 1.4 1.3
v -0.9 2.5 1.3
v -0.9 2.6 1.3
v -0.9 3.7 1.3
v -0.9 3.8 1.3
v -0.9 4.9 1.3
v -0.9 5 1.3
v -0.9 6.1 1.3
v 0.9 0.2 1.3
v 0.9 1.3 1.3
v 0.9 1.4 1.3
v 0.9 2.5 1.3
v 0.9 2.6 1.3
v 0.9 3.7 1.3
v 0.9 3.8 1.3
v 0.9 4.9 1.3
v 0.9 5 1.3
v 0.9 6.1 1.3
v 1 0 1.3
v 1 6.4 1.3
v 1.1 2.6 1.3
v 1.1 3.4 1.3
v 1.2 2.5 1.3
v 1.2 2.6 1.3
v 1.2 3.4 1.3
v 1.2 3.5 1.3
v 1.6 2.5 1.3
v 1.6 2.6 1.3
v 1.6 3.4 1.3
v 1.6 3.5 1.3
v 1.7 2.6 1.3
v 1.7 3.4 1.3
v 1.8 0 1.3
v 1.8 6.4 1.3
v 1.1 2.6 1.2
v 1.1 3.4 1.2
v 1.2 2.5 1.2
v 1.2 2.6 1.2
v 1.2 2.7 1.2
v 1.2 2.8 1.2
v 1.2 3 1.2
v 1.2 3.2 1.2
v 1.2 3.4 1.2
v 1.2 3.5 1.2
v 1.3 2.9 1.2
v 1.3 3 1.2
v 1.3 3.2 1.2
v 1.3 3.3 1.2
v 1.5 2.9 1.2
v 1.5 3 1.2
v 1.5 3.2 1.2
v 1.5 3.3 1.2
v 1.6 2.5 1.2
v 1.6 2.6 1.2
v 1.6 2.7 1.2
v 1.6 2.8 1.2
v 1.6 3 1.2
v 1.6 3.2 1.2
v 1.6 3.4 1.2
v 1.6 3.5 1.2
v 1.7 2.6 1.2
v 1.7 3.4 1.2
v 1.4 3 1.1
v 1.4 3.2 1.1
v 1.5 3 1.1
v 1.5 3.2 1.1
v 0.8 3 1
v 0.8 3.2 1
v 1.4 3 1
v 1.4 3.2 1
v -1.8 0 1.7
v -1 0 1.7
v 1 0 1.7
v 1.8 0 1.7
v -1 0 1.6
v 1 0 1.6
v -1 0 1.4
v 1 0 1.4
v -1.8 0 1.3
v -1 0 1.3
v 1 0 1.3
v 1.8 0 1.3
v -0.9 0.2 1.7
v 0.9 0.2 1.7
v -0.9 0.2 1.6
v 0.9 0.2 1.6
v -0.9 0.2 1.4
v 0.9 0.2 1.4
v -0.9 0.2 1.3
v 0.9 0.2 1.3
v -0.9 1.4 1.7
v 0.9 1.4 1.7
v -0.9 1.4 1.6
v 0.9 1.4 1.6
v -0.9 1.4 1.4
v 0.9 1.4 1.4
v -0.9 1.4 1.3
v 0.9 1.4 1.3
v 1.2 2.5 1.3
v 1.6 2.5 1.3
v 1.2 2.5 1.2
v 1.6 2.5 1.2
v -0.9 2.6 1.7
v 0.9 2.6 1.7
v -0.9 2.6 1.6
v 0.9 2.6 1.6
v -0.9 2.6 1.4
v 0.9 2.6 1.4
v -0.9 2.6 1.3
v 0.9 2.6 1.3
v 1.1 2.6 1.3
v 1.2 2.6 1.3
v 1.6 2.6 1.3
v 1.7 2.6 1.3
v 1.1 2.6 1.2
v 1.2 2.6 1.2
v 1.6 2.6 1.2
v 1.7 2.6 1.2
v 1.3 2.9 1.8
v 1.5 2.9 1.8
v 1.3 2.9 1.7
v 1.5 2.9 1.7
v 0.8 3 2
v 1.4 3 2
v 0.8 3 1.9
v 1.3 3 1.9
v 1.4 3 1.9
v 1.5 3 1.9
v 1.2 3 1.8
v 1.3 3 1.8
v 1.5 3 1.8
v 1.6 3 1.8
v 1.2 3 1.7
v 1.3 3 1.7
v 1.5 3 1.7
v 1.6 3 1.7
v 1.3 3 1.2
v 1.5 3 1.2
v 0.8 3 1.1
v 1.3 3 1.1
v 1.4 3 1.1
v 1.5 3 1.1
v 0.8 3 1
v 1.4 3 1
v -0.9 3.8 1.7
v 0.9 3.8 1.7
v -0.9 3.8 1.6
v 0.9 3.8 1.6
v -0.9 3.8 1.4
v 0.9 3.8 1.4
v -0.9 3.8 1.3
v 0.9 3.8 1.3
v -0.9 5 1.7
v 0.9 5 1.7
v -0.9 5 1.6
v 0.9 5 1.6
v -0.9 5 1.4
v 0.9 5 1.4
v -0.9 5 1.3
v 0.9 5 1.3
v -0.9 1.3 1.7
v 0.9 1.3 1.7
v -0.9 1.3 1.6
v 0.9 1.3 1.6
v -0.9 1.3 1.4
v 0.9 1.3 1.4
v -0.9 1.3 1.3
v 0.9 1.3 1.3
v -0.9 2.5 1.7
v 0.9 2.5 1.7
v -0.9 2.5 1.6
v 0.9 2.5 1.6
v -0.9 2.5 1.4
v 0.9 2.5 1.4
v -0.9 2.5 1.3
v 0.9 2.5 1.3
v 0.8 3.2 2
v 1.4 3.2 2
v 0.8 3.2 1.9
v 1.3 3.2 1.9
v 1.4 3.2 1.9
v 1.5 3.2 1.9
v 1.2 3.2 1.8
v 1.3 3.2 1.8
v 1.5 3.2 1.8
v 1.6 3.2 1.8
v 1.2 3.2 1.7
v 1.3 3.2 1.7
v 1.5 3.2 1.7
v 1.6 3.2 1.7
v 1.3 3.2 1.2
v 1.5 3.2 1.2
v 0.8 3.2 1.1
v 1.3 3.2 1.1
v 1.4 3.2 1.1
v 1.5 3.2 1.1
v 0.8 3.2 1
v 1.4 3.2 1
v 1.3 3.3 1.8
v 1.5 3.3 1.8
v 1.3 3.3 1.7
v 1.5 3.3 1.7
v 1.1 3.4 1.3
v 1.2 3.4 1.3
v 1.6 3.4 1.3
v 1.7 3.4 1.3
v 1.1 3.4 1.2
v 1.2 3.4 1.2
v 1.6 3.4 1.2
v 1.7 3.4 1.2
v 1.2 3.5 1.3
v 1.6 3.5 1.3
v 1.2 3.5 1.2
v 1.6 3.5 1.2
v -0.9 3.7 1.7
v 0.9 3.7 1.7
v -0.9 3.7 1.6
v 0.9 3.7 1.6
v -0.9 3.7 1.4
v 0.9 3.7 1.4
v -0.9 3.7 1.3
v 0.9 3.7 1.3
v -0.9 4.9 1.7
v 0.9 4.9 1.7
v -0.9 4.9 1.6
v 0.9 4.9 1.6
v -0.9 4.9 1.4
v 0.9 4.9 1.4
v -0.9 4.9 1.3
v 0.9 4.9 1.3
v -0.9 6.1 1.7
v 0.9 6.1 1.7
v -0.9 6.1 1.6
v 0.9 6.1 1.6
v -0.9 6.1 1.4
v 0.9 6.1 1.4
v -0.9 6.1 1.3
v 0.9 6.1 1.3
v -1.8 6.4 1.7
v -1 6.4 1.7
v 1 6.4 1.7
v 1.8 6.4 1.7
v -1 6.4 1.6
v 1 6.4 1.6
v -1 6.4 1.4
v 1 6.4 1.4
v -1.8 6.4 1.3
v -1 6.4 1.3
v 1 6.4 1.3
v 1.8 6.4 1.3

# faces
f 3/4/1 2/4/1 1/4/1
f 4/4/1 2/4/1 3/4/1
f 9/4/1 6/4/1 5/4/1
f 10/4/1 6/4/1 9/4/1
f 11/4/1 8/4/1 7/4/1
f 12/4/1 8/4/1 11/4/1
f 17/4/1 14/4/1 13/4/1
f 18/4/1 14/4/1 17/4/1
f 19/4/1 16/4/1 15/4/1
f 20/4/1 16/4/1 19/4/1
f 25/4/1 22/4/1 21/4/1
f 26/4/1 22/4/1 25/4/1
f 27/4/1 24/4/1 23/4/1
f 28/4/1 24/4/1 27/4/1
f 33/4/1 30/4/1 29/4/1
f 34/4/1 30/4/1 33/4/1
f 35/4/1 32/4/1 31/4/1
f 36/4/1 32/4/1 35/4/1
f 41/4/1 38/4/1 37/4/1
f 42/4/1 38/4/1 41/4/1
f 43/4/1 40/4/1 39/4/1
f 44/4/1 40/4/1 43/4/1
f 49/2/1 46/2/1 45/2/1
f 50/2/1 46/2/1 49/2/1
f 51/2/1 48/2/1 47/2/1
f 52/2/1 48/2/1 51/2/1
f 57/4/1 54/4/1 53/4/1
f 58/4/1 54/4/1 57/4/1
f 59/4/1 56/4/1 55/4/1
f 60/4/1 56/4/1 59/4/1
f 63/1/1 62/1/1 61/1/1
f 64/1/1 62/1/1 63/1/1
f 67/1/1 66/1/1 65/1/1
f 68/1/1 66/1/1 67/1/1
f 71/2/1 70/2/1 69/2/1
f 72/2/1 70/2/1 71/2/1
f 75/1/1 74/1/1 73/1/1
f 76/1/1 74/1/1 75/1/1
f 80/2/1 78/2/1 77/2/1
f 81/2/1 78/2/1 80/2/1
f 84/2/1 80/2/1 79/2/1
f 85/2/1 80/2/1 84/2/1
f 87/2/1 83/2/1 82/2/1
f 88/2/1 83/2/1 87/2/1
f 89/2/1 86/2/1 85/2/1
f 90/2/1 86/2/1 89/2/1
f 91/4/2 92/4/2 95/4/2
f 95/4/2 92/4/2 96/4/2
f 93/4/2 94/4/2 97/4/2
f 97/4/2 94/4/2 98/4/2
f 99/4/2 100/4/2 103/4/2
f 103/4/2 100/4/2 104/4/2
f 101/4/2 102/4/2 105/4/2
f 105/4/2 102/4/2 106/4/2
f 107/4/2 108/4/2 111/4/2
f 111/4/2 108/4/2 112/4/2
f 109/4/2 110/4/2 113/4/2
f 113/4/2 110/4/2 114/4/2
f 115/4/2 116/4/2 119/4/2
f 119/4/2 116/4/2 120/4/2
f 117/4/2 118/4/2 121/4/2
f 121/4/2 118/4/2 122/4/2
f 123/4/2 124/4/2 127/4/2
f 127/4/2 124/4/2 128/4/2
f 125/4/2 126/4/2 129/4/2
f 129/4/2 126/4/2 130/4/2
f 131/4/2 132/4/2 135/4/2
f 135/4/2 132/4/2 136/4/2
f 133/4/2 134/4/2 137/4/2
f 137/4/2 134/4/2 138/4/2
f 139/2/2 140/2/2 143/2/2
f 143/2/2 140/2/2 144/2/2
f 141/2/2 142/2/2 145/2/2
f 145/2/2 142/2/2 146/2/2
f 147/2/2 148/2/2 150/2/2
f 150/2/2 148/2/2 151/2/2
f 149/2/2 150/2/2 154/2/2
f 154/2/2 150/2/2 155/2/2
f 152/2/2 153/2/2 157/2/2
f 157/2/2 153/2/2 158/2/2
f 155/2/2 156/2/2 159/2/2
f 159/2/2 156/2/2 160/2/2
f 161/1/2 162/1/2 163/1/2
f 163/1/2 162/1/2 164/1/2
f 165/2/2 166/2/2 167/2/2
f 167/2/2 166/2/2 168/2/2
f 169/1/2 170/1/2 171/1/2
f 171/1/2 170/1/2 172/1/2
f 173/1/2 174/1/2 175/1/2
f 175/1/2 174/1/2 176/1/2
f 177/4/2 178/4/2 179/4/2
f 179/4/2 178/4/2 180/4/2
f 183/2/3 182/2/3 181/2/3
f 184/2/3 182/2/3 183/2/3
f 187/2/3 186/2/3 185/2/3
f 188/2/3 186/2/3 187/2/3
f 192/2/3 190/2/3 189/2/3
f 193/2/3 190/2/3 192/2/3
f 195/2/3 192/2/3 191/2/3
f 196/2/3 192/2/3 195/2/3
f 197/2/3 194/2/3 193/2/3
f 198/2/3 194/2/3 197/2/3
f 199/2/3 197/2/3 196/2/3
f 200/2/3 197/2/3 199/2/3
f 203/4/3 202/4/3 201/4/3
f 204/4/3 202/4/3 203/4/3
f 215/4/3 206/4/3 205/4/3
f 216/4/3 206/4/3 215/4/3
f 217/4/3 208/4/3 207/4/3
f 218/4/3 208/4/3 217/4/3
f 219/4/3 210/4/3 209/4/3
f 220/4/3 210/4/3 219/4/3
f 221/4/3 212/4/3 211/4/3
f 222/4/3 212/4/3 221/4/3
f 223/4/3 214/4/3 213/4/3
f 224/4/3 214/4/3 223/4/3
f 227/4/3 226/4/3 225/4/3
f 228/4/3 226/4/3 227/4/3
f 229/4/3 227/4/3 225/4/3
f 230/4/3 227/4/3 229/4/3
f 231/4/3 226/4/3 228/4/3
f 232/4/3 226/4/3 231/4/3
f 233/4/3 229/4/3 225/4/3
f 236/4/3 226/4/3 232/4/3
f 237/4/3 234/4/3 233/4/3
f 238/4/3 236/4/3 235/4/3
f 239/4/3 237/4/3 233/4/3
f 239/4/3 238/4/3 237/4/3
f 239/4/3 233/4/3 225/4/3
f 240/4/3 236/4/3 238/4/3
f 240/4/3 238/4/3 239/4/3
f 240/4/3 226/4/3 236/4/3
f 243/4/3 242/4/3 241/4/3
f 244/4/3 242/4/3 243/4/3
f 245/4/3 242/4/3 244/4/3
f 246/4/3 242/4/3 245/4/3
f 247/4/3 242/4/3 246/4/3
f 248/4/3 242/4/3 247/4/3
f 249/4/3 242/4/3 248/4/3
f 250/4/3 242/4/3 249/4/3
f 251/4/3 242/4/3 250/4/3
f 252/4/3 242/4/3 251/4/3
f 253/4/3 243/4/3 241/4/3
f 254/4/3 245/4/3 244/4/3
f 255/4/3 245/4/3 254/4/3
f 256/4/3 247/4/3 246/4/3
f 257/4/3 247/4/3 256/4/3
f 258/4/3 249/4/3 248/4/3
f 259/4/3 249/4/3 258/4/3
f 260/4/3 251/4/3 250/4/3
f 261/4/3 251/4/3 260/4/3
f 262/4/3 242/4/3 252/4/3
f 263/4/3 261/4/3 260/4/3
f 263/4/3 262/4/3 261/4/3
f 263/4/3 259/4/3 258/4/3
f 263/4/3 253/4/3 241/4/3
f 263/4/3 260/4/3 259/4/3
f 263/4/3 257/4/3 256/4/3
f 263/4/3 258/4/3 257/4/3
f 263/4/3 255/4/3 254/4/3
f 263/4/3 256/4/3 255/4/3
f 263/4/3 254/4/3 253/4/3
f 264/4/3 242/4/3 262/4/3
f 264/4/3 262/4/3 263/4/3
f 267/2/3 266/2/3 265/2/3
f 268/2/3 266/2/3 267/2/3
f 269/2/4 270/2/4 271/2/4
f 271/2/4 270/2/4 272/2/4
f 273/4/4 274/4/4 275/4/4
f 275/4/4 274/4/4 276/4/4
f 276/4/4 274/4/4 277/4/4
f 277/4/4 274/4/4 278/4/4
f 278/4/4 274/4/4 279/4/4
f 279/4/4 274/4/4 280/4/4
f 280/4/4 274/4/4 281/4/4
f 281/4/4 274/4/4 282/4/4
f 282/4/4 274/4/4 283/4/4
f 283/4/4 274/4/4 284/4/4
f 273/4/4 275/4/4 285/4/4
f 276/4/4 277/4/4 286/4/4
f 286/4/4 277/4/4 287/4/4
f 278/4/4 279/4/4 288/4/4
f 288/4/4 279/4/4 289/4/4
f 280/4/4 281/4/4 290/4/4
f 290/4/4 281/4/4 291/4/4
f 282/4/4 283/4/4 292/4/4
f 292/4/4 283/4/4 293/4/4
f 284/4/4 274/4/4 294/4/4
f 292/4/4 293/4/4 295/4/4
f 293/4/4 294/4/4 295/4/4
f 290/4/4 291/4/4 295/4/4
f 273/4/4 285/4/4 295/4/4
f 291/4/4 292/4/4 295/4/4
f 288/4/4 289/4/4 295/4/4
f 289/4/4 290/4/4 295/4/4
f 286/4/4 287/4/4 295/4/4
f 287/4/4 288/4/4 295/4/4
f 285/4/4 286/4/4 295/4/4
f 294/4/4 274/4/4 296/4/4
f 295/4/4 294/4/4 296/4/4
f 297/4/4 298/4/4 299/4/4
f 299/4/4 298/4/4 300/4/4
f 301/4/4 302/4/4 311/4/4
f 311/4/4 302/4/4 312/4/4
f 303/4/4 304/4/4 313/4/4
f 313/4/4 304/4/4 314/4/4
f 305/4/4 306/4/4 315/4/4
f 315/4/4 306/4/4 316/4/4
f 307/4/4 308/4/4 317/4/4
f 317/4/4 308/4/4 318/4/4
f 309/4/4 310/4/4 319/4/4
f 319/4/4 310/4/4 320/4/4
f 321/4/4 322/4/4 323/4/4
f 323/4/4 322/4/4 324/4/4
f 321/4/4 323/4/4 325/4/4
f 325/4/4 323/4/4 326/4/4
f 324/4/4 322/4/4 327/4/4
f 327/4/4 322/4/4 328/4/4
f 321/4/4 325/4/4 329/4/4
f 328/4/4 322/4/4 332/4/4
f 329/4/4 330/4/4 333/4/4
f 331/4/4 332/4/4 334/4/4
f 329/4/4 333/4/4 335/4/4
f 333/4/4 334/4/4 335/4/4
f 321/4/4 329/4/4 335/4/4
f 334/4/4 332/4/4 336/4/4
f 335/4/4 334/4/4 336/4/4
f 332/4/4 322/4/4 336/4/4
f 337/1/4 338/1/4 340/1/4
f 340/1/4 338/1/4 341/1/4
f 341/1/4 338/1/4 342/1/4
f 342/1/4 338/1/4 343/1/4
f 343/1/4 338/1/4 344/1/4
f 344/1/4 338/1/4 345/1/4
f 342/1/4 343/1/4 347/1/4
f 343/2/4 344/2/4 348/2/4
f 347/1/4 343/1/4 348/1/4
f 345/1/4 346/1/4 349/1/4
f 348/2/4 344/2/4 349/2/4
f 344/1/4 345/1/4 349/1/4
f 349/1/4 346/1/4 350/1/4
f 347/2/4 348/2/4 351/2/4
f 342/1/4 347/1/4 351/1/4
f 351/2/4 348/2/4 352/2/4
f 349/2/4 350/2/4 353/2/4
f 350/1/4 346/1/4 354/1/4
f 353/2/4 350/2/4 354/2/4
f 339/1/4 340/1/4 355/1/4
f 340/1/4 341/1/4 355/1/4
f 355/1/4 341/1/4 356/1/4
f 341/3/4 342/3/4 357/3/4
f 356/1/4 341/1/4 357/1/4
f 351/1/4 352/1/4 358/1/4
f 357/3/4 342/3/4 358/3/4
f 342/1/4 351/1/4 358/1/4
f 352/2/4 353/2/4 359/2/4
f 358/1/4 352/1/4 359/1/4
f 353/1/4 354/1/4 360/1/4
f 359/2/4 353/2/4 360/2/4
f 354/1/4 346/1/4 361/1/4
f 360/1/4 354/1/4 361/1/4
f 361/1/4 346/1/4 362/1/4
f 359/1/4 360/1/4 363/1/4
f 358/1/4 359/1/4 363/1/4
f 360/1/4 361/1/4 363/1/4
f 357/1/4 358/1/4 363/1/4
f 356/1/4 357/1/4 363/1/4
f 363/1/4 361/1/4 364/1/4
f 365/2/4 366/2/4 367/2/4
f 367/2/4 366/2/4 368/2/4
f 369/2/4 370/2/4 371/2/4
f 371/2/4 370/2/4 372/2/4
f 377/4/5 374/4/5 373/4/5
f 378/4/5 376/4/5 375/4/5
f 379/4/5 377/4/5 373/4/5
f 379/4/5 378/4/5 377/4/5
f 380/4/5 376/4/5 378/4/5
f 380/4/5 378/4/5 379/4/5
f 381/4/5 379/4/5 373/4/5
f 382/4/5 379/4/5 381/4/5
f 383/4/5 376/4/5 380/4/5
f 384/4/5 376/4/5 383/4/5
f 387/4/5 386/4/5 385/4/5
f 388/4/5 386/4/5 387/4/5
f 391/4/5 390/4/5 389/4/5
f 392/4/5 390/4/5 391/4/5
f 395/4/5 394/4/5 393/4/5
f 396/4/5 394/4/5 395/4/5
f 399/4/5 398/4/5 397/4/5
f 400/4/5 398/4/5 399/4/5
f 403/1/5 402/1/5 401/1/5
f 404/1/5 402/1/5 403/1/5
f 407/4/5 406/4/5 405/4/5
f 408/4/5 406/4/5 407/4/5
f 411/4/5 410/4/5 409/4/5
f 412/4/5 410/4/5 411/4/5
f 417/1/5 414/1/5 413/1/5
f 418/1/5 414/1/5 417/1/5
f 419/1/5 416/1/5 415/1/5
f 420/1/5 416/1/5 419/1/5
f 423/2/5 422/2/5 421/2/5
f 424/2/5 422/2/5 423/2/5
f 427/2/5 426/2/5 425/2/5
f 428/2/5 426/2/5 427/2/5
f 429/2/5 426/2/5 428/2/5
f 432/2/5 430/2/5 429/2/5
f 432/2/5 429/2/5 428/2/5
f 433/2/5 430/2/5 432/2/5
f 435/2/5 432/2/5 431/2/5
f 436/2/5 432/2/5 435/2/5
f 437/2/5 434/2/5 433/2/5
f 438/2/5 434/2/5 437/2/5
f 442/2/5 440/2/5 439/2/5
f 443/2/5 440/2/5 442/2/5
f 444/2/5 440/2/5 443/2/5
f 445/2/5 442/2/5 441/2/5
f 445/2/5 443/2/5 442/2/5
f 446/2/5 443/2/5 445/2/5
f 449/4/5 448/4/5 447/4/5
f 450/4/5 448/4/5 449/4/5
f 453/4/5 452/4/5 451/4/5
f 454/4/5 452/4/5 453/4/5
f 457/4/5 456/4/5 455/4/5
f 458/4/5 456/4/5 457/4/5
f 461/4/5 460/4/5 459/4/5
f 462/4/5 460/4/5 461/4/5
f 463/4/6 464/4/6 465/4/6
f 465/4/6 464/4/6 466/4/6
f 467/4/6 468/4/6 469/4/6
f 469/4/6 468/4/6 470/4/6
f 471/4/6 472/4/6 473/4/6
f 473/4/6 472/4/6 474/4/6
f 475/4/6 476/4/6 477/4/6
f 477/4/6 476/4/6 478/4/6
f 479/2/6 480/2/6 481/2/6
f 481/2/6 480/2/6 482/2/6
f 482/2/6 480/2/6 483/2/6
f 483/2/6 484/2/6 486/2/6
f 482/2/6 483/2/6 486/2/6
f 486/2/6 484/2/6 487/2/6
f 485/2/6 486/2/6 489/2/6
f 489/2/6 486/2/6 490/2/6
f 487/2/6 488/2/6 491/2/6
f 491/2/6 488/2/6 492/2/6
f 493/2/6 494/2/6 496/2/6
f 496/2/6 494/2/6 497/2/6
f 497/2/6 494/2/6 498/2/6
f 495/2/6 496/2/6 499/2/6
f 496/2/6 497/2/6 499/2/6
f 499/2/6 497/2/6 500/2/6
f 501/2/6 502/2/6 503/2/6
f 503/2/6 502/2/6 504/2/6
f 505/1/6 506/1/6 509/1/6
f 509/1/6 506/1/6 510/1/6
f 507/1/6 508/1/6 511/1/6
f 511/1/6 508/1/6 512/1/6
f 513/1/6 514/1/6 515/1/6
f 515/1/6 514/1/6 516/1/6
f 517/4/6 518/4/6 519/4/6
f 519/4/6 518/4/6 520/4/6
f 521/4/6 522/4/6 523/4/6
f 523/4/6 522/4/6 524/4/6
f 525/4/6 526/4/6 527/4/6
f 527/4/6 526/4/6 528/4/6
f 529/4/6 530/4/6 531/4/6
f 531/4/6 530/4/6 532/4/6
f 533/4/6 534/4/6 535/4/6
f 535/4/6 534/4/6 536/4/6
f 537/4/6 538/4/6 539/4/6
f 539/4/6 538/4/6 540/4/6
f 541/4/6 542/4/6 545/4/6
f 543/4/6 544/4/6 546/4/6
f 541/4/6 545/4/6 547/4/6
f 545/4/6 546/4/6 547/4/6
f 546/4/6 544/4/6 548/4/6
f 547/4/6 546/4/6 548/4/6
f 541/4/6 547/4/6 549/4/6
f 549/4/6 547/4/6 550/4/6
f 548/4/6 544/4/6 551/4/6
f 551/4/6 544/4/6 552/4/6
