# MagicaVoxel @ Ephtracy

# group
o 

# material
mtllib dining_chair.mtl
usemtl palette

# normals
vn -1 0 0
vn 1 0 0
vn 0 0 1
vn 0 0 -1
vn 0 -1 0
vn 0 1 0

# texcoords
vt 0.00195312 0.5
vt 0.00585938 0.5
vt 0.0605469 0.5

# verts
v -0.3 2.4 1
v -0.3 2.4 -0.7
v -0.3 2.5 -0.7
v -0.3 2.5 -0.8
v -0.3 2.6 0.6
v -0.3 2.6 -0.8
v -0.3 3.9 0.7
v -0.3 3.9 0.6
v -0.3 4 0.8
v -0.3 4 0.7
v -0.3 4.1 0.9
v -0.3 4.1 0.8
v -0.3 4.2 1
v -0.3 4.2 0.9
v -0.2 2.3 1
v -0.2 2.3 -0.7
v -0.2 2.4 1.1
v -0.2 2.4 1
v -0.2 2.4 -0.7
v -0.2 2.4 -0.8
v -0.2 2.5 -0.7
v -0.2 2.5 -0.8
v -0.2 2.5 -0.9
v -0.2 2.6 -0.8
v -0.2 2.6 -0.9
v -0.2 4.2 1
v -0.2 4.3 1.1
v -0.2 4.3 1
v -0.1 2.3 -0.7
v -0.1 2.3 -0.8
v -0.1 2.4 1.2
v -0.1 2.4 1.1
v -0.1 2.4 -0.7
v -0.1 2.4 -0.8
v -0.1 2.4 -0.9
v -0.1 2.5 -0.8
v -0.1 2.5 -0.9
v -0.1 2.5 -1
v -0.1 2.6 -0.9
v -0.1 2.6 -1
v -0.1 4.3 1.1
v -0.1 4.4 1.2
v -0.1 4.4 1.1
v 0 0.7 1
v 0 0.7 0.8
v 0 0.7 -0.6
v 0 0.7 -0.8
v 0 1.4 1
v 0 1.4 0.9
v 0 1.4 -0.7
v 0 1.4 -0.8
v 0 1.5 0.9
v 0 1.5 0.8
v 0 1.5 -0.6
v 0 1.5 -0.7
v 0 2.3 1.1
v 0 2.3 1
v 0 2.4 1.1
v 0 2.4 1
v 0 4.4 1.2
v 0 4.4 1.1
v 0 4.5 1.2
v 0 4.5 1.1
v 0.1 1.3 0.8
v 0.1 1.3 0.7
v 0.1 1.3 -0.5
v 0.1 1.3 -0.6
v 0.1 1.4 1
v 0.1 1.4 0.9
v 0.1 1.4 -0.7
v 0.1 1.4 -0.8
v 0.1 1.5 1
v 0.1 1.5 0.9
v 0.1 1.5 0.8
v 0.1 1.5 -0.6
v 0.1 1.5 -0.7
v 0.1 1.5 -0.8
v 0.1 1.9 0.9
v 0.1 1.9 0.8
v 0.1 1.9 -0.6
v 0.1 1.9 -0.7
v 0.1 2 0.8
v 0.1 2 0.7
v 0.1 2 -0.5
v 0.1 2 -0.6
v 0.1 2.3 -0.8
v 0.1 2.3 -0.9
v 0.1 2.4 -0.8
v 0.1 2.4 -0.9
v 0.1 2.4 -1
v 0.1 2.5 1.3
v 0.1 2.5 1.2
v 0.1 2.5 -0.9
v 0.1 2.5 -1
v 0.1 2.5 -1.1
v 0.1 2.6 -1
v 0.1 2.6 -1.1
v 0.1 4.5 1.2
v 0.1 4.6 1.3
v 0.1 4.6 1.2
v 0.2 1.8 0.7
v 0.2 1.8 0.6
v 0.2 1.8 -0.4
v 0.2 1.8 -0.5
v 0.2 1.9 0.9
v 0.2 1.9 0.8
v 0.2 1.9 -0.6
v 0.2 1.9 -0.7
v 0.2 2 0.9
v 0.2 2 0.8
v 0.2 2 0.7
v 0.2 2 -0.5
v 0.2 2 -0.6
v 0.2 2 -0.7
v 0.2 2.3 0.8
v 0.2 2.3 0.6
v 0.2 2.3 -0.4
v 0.2 2.3 -0.6
v 0.2 4.6 1.3
v 0.2 4.6 1.2
v 0.2 4.7 1.3
v 0.2 4.7 1.2
v 1.4 1.8 0.8
v 1.4 1.8 0.6
v 1.4 1.8 -0.4
v 1.4 1.8 -0.6
v 1.4 2.3 0.8
v 1.4 2.3 0.6
v 1.4 2.3 -0.4
v 1.4 2.3 -0.6
v 1.5 1.3 0.9
v 1.5 1.3 0.7
v 1.5 1.3 -0.5
v 1.5 1.3 -0.7
v 1.5 1.8 0.8
v 1.5 1.8 0.7
v 1.5 1.8 -0.5
v 1.5 1.8 -0.6
v 1.5 2 0.9
v 1.5 2 0.8
v 1.5 2 -0.6
v 1.5 2 -0.7
v 1.6 0.7 1
v 1.6 0.7 0.8
v 1.6 0.7 -0.6
v 1.6 0.7 -0.8
v 1.6 1.3 0.9
v 1.6 1.3 0.8
v 1.6 1.3 -0.6
v 1.6 1.3 -0.7
v 1.6 1.5 1
v 1.6 1.5 0.9
v 1.6 1.5 -0.7
v 1.6 1.5 -0.8
v 1.7 2.8 1.2
v 1.7 2.8 1.1
v 1.7 4.5 1.2
v 1.7 4.5 1.1
v 1.9 2.6 1
v 1.9 2.6 0.9
v 1.9 2.7 1.1
v 1.9 2.7 1
v 1.9 2.7 0.9
v 1.9 4.3 1.1
v 1.9 4.3 1
v 2 2.6 0.9
v 2 2.6 0.6
v 2 2.7 1
v 2 2.7 0.9
v 2 3.9 0.7
v 2 3.9 0.6
v 2 4 0.8
v 2 4 0.7
v 2 4.1 0.9
v 2 4.1 0.8
v 2 4.2 1
v 2 4.2 0.9
v -0.2 2.6 0.9
v -0.2 2.6 0.6
v -0.2 2.7 1
v -0.2 2.7 0.9
v -0.2 3.9 0.7
v -0.2 3.9 0.6
v -0.2 4 0.8
v -0.2 4 0.7
v -0.2 4.1 0.9
v -0.2 4.1 0.8
v -0.2 4.2 1
v -0.2 4.2 0.9
v -0.1 2.6 1
v -0.1 2.6 0.9
v -0.1 2.7 1.1
v -0.1 2.7 1
v -0.1 2.7 0.9
v -0.1 4.3 1.1
v -0.1 4.3 1
v 0.1 2.8 1.2
v 0.1 2.8 1.1
v 0.1 4.5 1.2
v 0.1 4.5 1.1
v 0.2 0.7 1
v 0.2 0.7 0.8
v 0.2 0.7 -0.6
v 0.2 0.7 -0.8
v 0.2 1.3 0.9
v 0.2 1.3 0.8
v 0.2 1.3 -0.6
v 0.2 1.3 -0.7
v 0.2 1.5 1
v 0.2 1.5 0.9
v 0.2 1.5 -0.7
v 0.2 1.5 -0.8
v 0.3 1.3 0.9
v 0.3 1.3 0.7
v 0.3 1.3 -0.5
v 0.3 1.3 -0.7
v 0.3 1.8 0.8
v 0.3 1.8 0.7
v 0.3 1.8 -0.5
v 0.3 1.8 -0.6
v 0.3 2 0.9
v 0.3 2 0.8
v 0.3 2 -0.6
v 0.3 2 -0.7
v 0.4 1.8 0.8
v 0.4 1.8 0.6
v 0.4 1.8 -0.4
v 0.4 1.8 -0.6
v 0.4 2.3 0.8
v 0.4 2.3 0.6
v 0.4 2.3 -0.4
v 0.4 2.3 -0.6
v 1.6 1.8 0.7
v 1.6 1.8 0.6
v 1.6 1.8 -0.4
v 1.6 1.8 -0.5
v 1.6 1.9 0.9
v 1.6 1.9 0.8
v 1.6 1.9 -0.6
v 1.6 1.9 -0.7
v 1.6 2 0.9
v 1.6 2 0.8
v 1.6 2 0.7
v 1.6 2 -0.5
v 1.6 2 -0.6
v 1.6 2 -0.7
v 1.6 2.3 0.8
v 1.6 2.3 0.6
v 1.6 2.3 -0.4
v 1.6 2.3 -0.6
v 1.6 4.6 1.3
v 1.6 4.6 1.2
v 1.6 4.7 1.3
v 1.6 4.7 1.2
v 1.7 1.3 0.8
v 1.7 1.3 0.7
v 1.7 1.3 -0.5
v 1.7 1.3 -0.6
v 1.7 1.4 1
v 1.7 1.4 0.9
v 1.7 1.4 -0.7
v 1.7 1.4 -0.8
v 1.7 1.5 1
v 1.7 1.5 0.9
v 1.7 1.5 0.8
v 1.7 1.5 -0.6
v 1.7 1.5 -0.7
v 1.7 1.5 -0.8
v 1.7 1.9 0.9
v 1.7 1.9 0.8
v 1.7 1.9 -0.6
v 1.7 1.9 -0.7
v 1.7 2 0.8
v 1.7 2 0.7
v 1.7 2 -0.5
v 1.7 2 -0.6
v 1.7 2.3 -0.8
v 1.7 2.3 -0.9
v 1.7 2.4 -0.8
v 1.7 2.4 -0.9
v 1.7 2.4 -1
v 1.7 2.5 1.3
v 1.7 2.5 1.2
v 1.7 2.5 -0.9
v 1.7 2.5 -1
v 1.7 2.5 -1.1
v 1.7 2.6 -1
v 1.7 2.6 -1.1
v 1.7 4.5 1.2
v 1.7 4.6 1.3
v 1.7 4.6 1.2
v 1.8 0.7 1
v 1.8 0.7 0.8
v 1.8 0.7 -0.6
v 1.8 0.7 -0.8
v 1.8 1.4 1
v 1.8 1.4 0.9
v 1.8 1.4 -0.7
v 1.8 1.4 -0.8
v 1.8 1.5 0.9
v 1.8 1.5 0.8
v 1.8 1.5 -0.6
v 1.8 1.5 -0.7
v 1.8 2.3 1.1
v 1.8 2.3 1
v 1.8 2.4 1.1
v 1.8 2.4 1
v 1.8 4.4 1.2
v 1.8 4.4 1.1
v 1.8 4.5 1.2
v 1.8 4.5 1.1
v 1.9 2.3 -0.7
v 1.9 2.3 -0.8
v 1.9 2.4 1.2
v 1.9 2.4 1.1
v 1.9 2.4 -0.7
v 1.9 2.4 -0.8
v 1.9 2.4 -0.9
v 1.9 2.5 -0.8
v 1.9 2.5 -0.9
v 1.9 2.5 -1
v 1.9 2.6 -0.9
v 1.9 2.6 -1
v 1.9 4.3 1.1
v 1.9 4.4 1.2
v 1.9 4.4 1.1
v 2 2.3 1
v 2 2.3 -0.7
v 2 2.4 1.1
v 2 2.4 1
v 2 2.4 -0.7
v 2 2.4 -0.8
v 2 2.5 -0.7
v 2 2.5 -0.8
v 2 2.5 -0.9
v 2 2.6 -0.8
v 2 2.6 -0.9
v 2 4.2 1
v 2 4.3 1.1
v 2 4.3 1
v 2.1 2.4 1
v 2.1 2.4 -0.7
v 2.1 2.5 -0.7
v 2.1 2.5 -0.8
v 2.1 2.6 0.6
v 2.1 2.6 -0.8
v 2.1 3.9 0.7
v 2.1 3.9 0.6
v 2.1 4 0.8
v 2.1 4 0.7
v 2.1 4.1 0.9
v 2.1 4.1 0.8
v 2.1 4.2 1
v 2.1 4.2 0.9
v 0.1 2.5 1.3
v 0.1 4.6 1.3
v 0.2 4.6 1.3
v 0.2 4.7 1.3
v 1.6 4.6 1.3
v 1.6 4.7 1.3
v 1.7 2.5 1.3
v 1.7 4.6 1.3
v -0.1 2.4 1.2
v -0.1 4.4 1.2
v 0 4.4 1.2
v 0 4.5 1.2
v 0.1 2.5 1.2
v 0.1 4.5 1.2
v 1.7 2.5 1.2
v 1.7 4.5 1.2
v 1.8 4.4 1.2
v 1.8 4.5 1.2
v 1.9 2.4 1.2
v 1.9 4.4 1.2
v -0.2 2.4 1.1
v -0.2 4.3 1.1
v -0.1 2.4 1.1
v -0.1 4.3 1.1
v 0 2.3 1.1
v 0 2.4 1.1
v 1.8 2.3 1.1
v 1.8 2.4 1.1
v 1.9 2.4 1.1
v 1.9 4.3 1.1
v 2 2.4 1.1
v 2 4.3 1.1
v -0.3 2.4 1
v -0.3 4.2 1
v -0.2 2.3 1
v -0.2 2.4 1
v -0.2 4.2 1
v 0 0.7 1
v 0 1.4 1
v 0 2.3 1
v 0 2.4 1
v 0.1 1.4 1
v 0.1 1.5 1
v 0.2 0.7 1
v 0.2 1.5 1
v 1.6 0.7 1
v 1.6 1.5 1
v 1.7 1.4 1
v 1.7 1.5 1
v 1.8 0.7 1
v 1.8 1.4 1
v 1.8 2.3 1
v 1.8 2.4 1
v 2 2.3 1
v 2 2.4 1
v 2 4.2 1
v 2.1 2.4 1
v 2.1 4.2 1
v 0 1.4 0.9
v 0 1.5 0.9
v 0.1 1.4 0.9
v 0.1 1.5 0.9
v 0.1 1.9 0.9
v 0.2 1.3 0.9
v 0.2 1.5 0.9
v 0.2 1.9 0.9
v 0.2 2 0.9
v 0.3 1.3 0.9
v 0.3 2 0.9
v 1.5 1.3 0.9
v 1.5 2 0.9
v 1.6 1.3 0.9
v 1.6 1.5 0.9
v 1.6 1.9 0.9
v 1.6 2 0.9
v 1.7 1.4 0.9
v 1.7 1.5 0.9
v 1.7 1.9 0.9
v 1.8 1.4 0.9
v 1.8 1.5 0.9
v 0.1 1.9 0.8
v 0.1 2 0.8
v 0.2 1.9 0.8
v 0.2 2 0.8
v 0.2 2.3 0.8
v 0.3 1.8 0.8
v 0.3 2 0.8
v 0.4 1.8 0.8
v 0.4 2.3 0.8
v 1.4 1.8 0.8
v 1.4 2.3 0.8
v 1.5 1.8 0.8
v 1.5 2 0.8
v 1.6 1.9 0.8
v 1.6 2 0.8
v 1.6 2.3 0.8
v 1.7 1.9 0.8
v 1.7 2 0.8
v 0.2 1.8 -0.4
v 0.2 2.3 -0.4
v 0.4 1.8 -0.4
v 0.4 2.3 -0.4
v 1.4 1.8 -0.4
v 1.4 2.3 -0.4
v 1.6 1.8 -0.4
v 1.6 2.3 -0.4
v 0.1 1.3 -0.5
v 0.1 2 -0.5
v 0.2 1.8 -0.5
v 0.2 2 -0.5
v 0.3 1.3 -0.5
v 0.3 1.8 -0.5
v 1.5 1.3 -0.5
v 1.5 1.8 -0.5
v 1.6 1.8 -0.5
v 1.6 2 -0.5
v 1.7 1.3 -0.5
v 1.7 2 -0.5
v 0 0.7 -0.6
v 0 1.5 -0.6
v 0.1 1.3 -0.6
v 0.1 1.5 -0.6
v 0.2 0.7 -0.6
v 0.2 1.3 -0.6
v 1.6 0.7 -0.6
v 1.6 1.3 -0.6
v 1.7 1.3 -0.6
v 1.7 1.5 -0.6
v 1.8 0.7 -0.6
v 1.8 1.5 -0.6
v 0.1 2.8 1.2
v 0.1 4.5 1.2
v 0.1 4.6 1.2
v 0.2 4.6 1.2
v 0.2 4.7 1.2
v 1.6 4.6 1.2
v 1.6 4.7 1.2
v 1.7 2.8 1.2
v 1.7 4.5 1.2
v 1.7 4.6 1.2
v -0.1 2.7 1.1
v -0.1 4.3 1.1
v -0.1 4.4 1.1
v 0 4.4 1.1
v 0 4.5 1.1
v 0.1 2.8 1.1
v 0.1 4.5 1.1
v 1.7 2.8 1.1
v 1.7 4.5 1.1
v 1.8 4.4 1.1
v 1.8 4.5 1.1
v 1.9 2.7 1.1
v 1.9 4.3 1.1
v 1.9 4.4 1.1
v -0.2 2.7 1
v -0.2 4.2 1
v -0.2 4.3 1
v -0.1 2.6 1
v -0.1 2.7 1
v -0.1 4.3 1
v 1.9 2.6 1
v 1.9 2.7 1
v 1.9 4.3 1
v 2 2.7 1
v 2 4.2 1
v 2 4.3 1
v -0.3 4.1 0.9
v -0.3 4.2 0.9
v -0.2 2.6 0.9
v -0.2 2.7 0.9
v -0.2 4.1 0.9
v -0.2 4.2 0.9
v -0.1 2.6 0.9
v -0.1 2.7 0.9
v 1.9 2.6 0.9
v 1.9 2.7 0.9
v 2 2.6 0.9
v 2 2.7 0.9
v 2 4.1 0.9
v 2 4.2 0.9
v 2.1 4.1 0.9
v 2.1 4.2 0.9
v -0.3 4 0.8
v -0.3 4.1 0.8
v -0.2 4 0.8
v -0.2 4.1 0.8
v 0 0.7 0.8
v 0 1.5 0.8
v 0.1 1.3 0.8
v 0.1 1.5 0.8
v 0.2 0.7 0.8
v 0.2 1.3 0.8
v 1.6 0.7 0.8
v 1.6 1.3 0.8
v 1.7 1.3 0.8
v 1.7 1.5 0.8
v 1.8 0.7 0.8
v 1.8 1.5 0.8
v 2 4 0.8
v 2 4.1 0.8
v 2.1 4 0.8
v 2.1 4.1 0.8
v -0.3 3.9 0.7
v -0.3 4 0.7
v -0.2 3.9 0.7
v -0.2 4 0.7
v 0.1 1.3 0.7
v 0.1 2 0.7
v 0.2 1.8 0.7
v 0.2 2 0.7
v 0.3 1.3 0.7
v 0.3 1.8 0.7
v 1.5 1.3 0.7
v 1.5 1.8 0.7
v 1.6 1.8 0.7
v 1.6 2 0.7
v 1.7 1.3 0.7
v 1.7 2 0.7
v 2 3.9 0.7
v 2 4 0.7
v 2.1 3.9 0.7
v 2.1 4 0.7
v -0.3 2.6 0.6
v -0.3 3.9 0.6
v -0.2 2.6 0.6
v -0.2 3.9 0.6
v 0.2 1.8 0.6
v 0.2 2.3 0.6
v 0.4 1.8 0.6
v 0.4 2.3 0.6
v 1.4 1.8 0.6
v 1.4 2.3 0.6
v 1.6 1.8 0.6
v 1.6 2.3 0.6
v 2 2.6 0.6
v 2 3.9 0.6
v 2.1 2.6 0.6
v 2.1 3.9 0.6
v 0.1 1.9 -0.6
v 0.1 2 -0.6
v 0.2 1.9 -0.6
v 0.2 2 -0.6
v 0.2 2.3 -0.6
v 0.3 1.8 -0.6
v 0.3 2 -0.6
v 0.4 1.8 -0.6
v 0.4 2.3 -0.6
v 1.4 1.8 -0.6
v 1.4 2.3 -0.6
v 1.5 1.8 -0.6
v 1.5 2 -0.6
v 1.6 1.9 -0.6
v 1.6 2 -0.6
v 1.6 2.3 -0.6
v 1.7 1.9 -0.6
v 1.7 2 -0.6
v -0.3 2.4 -0.7
v -0.3 2.5 -0.7
v -0.2 2.3 -0.7
v -0.2 2.4 -0.7
v -0.2 2.5 -0.7
v -0.1 2.3 -0.7
v -0.1 2.4 -0.7
v 0 1.4 -0.7
v 0 1.5 -0.7
v 0.1 1.4 -0.7
v 0.1 1.5 -0.7
v 0.1 1.9 -0.7
v 0.2 1.3 -0.7
v 0.2 1.5 -0.7
v 0.2 1.9 -0.7
v 0.2 2 -0.7
v 0.3 1.3 -0.7
v 0.3 2 -0.7
v 1.5 1.3 -0.7
v 1.5 2 -0.7
v 1.6 1.3 -0.7
v 1.6 1.5 -0.7
v 1.6 1.9 -0.7
v 1.6 2 -0.7
v 1.7 1.4 -0.7
v 1.7 1.5 -0.7
v 1.7 1.9 -0.7
v 1.8 1.4 -0.7
v 1.8 1.5 -0.7
v 1.9 2.3 -0.7
v 1.9 2.4 -0.7
v 2 2.3 -0.7
v 2 2.4 -0.7
v 2 2.5 -0.7
v 2.1 2.4 -0.7
v 2.1 2.5 -0.7
v -0.3 2.5 -0.8
v -0.3 2.6 -0.8
v -0.2 2.4 -0.8
v -0.2 2.5 -0.8
v -0.2 2.6 -0.8
v -0.1 2.3 -0.8
v -0.1 2.4 -0.8
v -0.1 2.5 -0.8
v 0 0.7 -0.8
v 0 1.4 -0.8
v 0.1 1.4 -0.8
v 0.1 1.5 -0.8
v 0.1 2.3 -0.8
v 0.1 2.4 -0.8
v 0.2 0.7 -0.8
v 0.2 1.5 -0.8
v 1.6 0.7 -0.8
v 1.6 1.5 -0.8
v 1.7 1.4 -0.8
v 1.7 1.5 -0.8
v 1.7 2.3 -0.8
v 1.7 2.4 -0.8
v 1.8 0.7 -0.8
v 1.8 1.4 -0.8
v 1.9 2.3 -0.8
v 1.9 2.4 -0.8
v 1.9 2.5 -0.8
v 2 2.4 -0.8
v 2 2.5 -0.8
v 2 2.6 -0.8
v 2.1 2.5 -0.8
v 2.1 2.6 -0.8
v -0.2 2.5 -0.9
v -0.2 2.6 -0.9
v -0.1 2.4 -0.9
v -0.1 2.5 -0.9
v -0.1 2.6 -0.9
v 0.1 2.3 -0.9
v 0.1 2.4 -0.9
v 0.1 2.5 -0.9
v 1.7 2.3 -0.9
v 1.7 2.4 -0.9
v 1.7 2.5 -0.9
v 1.9 2.4 -0.9
v 1.9 2.5 -0.9
v 1.9 2.6 -0.9
v 2 2.5 -0.9
v 2 2.6 -0.9
v -0.1 2.5 -1
v -0.1 2.6 -1
v 0.1 2.4 -1
v 0.1 2.5 -1
v 0.1 2.6 -1
v 1.7 2.4 -1
v 1.7 2.5 -1
v 1.7 2.6 -1
v 1.9 2.5 -1
v 1.9 2.6 -1
v 0.1 2.5 -1.1
v 0.1 2.6 -1.1
v 1.7 2.5 -1.1
v 1.7 2.6 -1.1
v 0 0.7 1
v 0.2 0.7 1
v 1.6 0.7 1
v 1.8 0.7 1
v 0 0.7 0.8
v 0.2 0.7 0.8
v 1.6 0.7 0.8
v 1.8 0.7 0.8
v 0 0.7 -0.6
v 0.2 0.7 -0.6
v 1.6 0.7 -0.6
v 1.8 0.7 -0.6
v 0 0.7 -0.8
v 0.2 0.7 -0.8
v 1.6 0.7 -0.8
v 1.8 0.7 -0.8
v 0.2 1.3 0.9
v 0.3 1.3 0.9
v 1.5 1.3 0.9
v 1.6 1.3 0.9
v 0.1 1.3 0.8
v 0.2 1.3 0.8
v 1.6 1.3 0.8
v 1.7 1.3 0.8
v 0.1 1.3 0.7
v 0.3 1.3 0.7
v 1.5 1.3 0.7
v 1.7 1.3 0.7
v 0.1 1.3 -0.5
v 0.3 1.3 -0.5
v 1.5 1.3 -0.5
v 1.7 1.3 -0.5
v 0.1 1.3 -0.6
v 0.2 1.3 -0.6
v 1.6 1.3 -0.6
v 1.7 1.3 -0.6
v 0.2 1.3 -0.7
v 0.3 1.3 -0.7
v 1.5 1.3 -0.7
v 1.6 1.3 -0.7
v 0.3 1.8 0.8
v 0.4 1.8 0.8
v 1.4 1.8 0.8
v 1.5 1.8 0.8
v 0.2 1.8 0.7
v 0.3 1.8 0.7
v 1.5 1.8 0.7
v 1.6 1.8 0.7
v 0.2 1.8 0.6
v 0.4 1.8 0.6
v 1.4 1.8 0.6
v 1.6 1.8 0.6
v 0.2 1.8 -0.4
v 0.4 1.8 -0.4
v 1.4 1.8 -0.4
v 1.6 1.8 -0.4
v 0.2 1.8 -0.5
v 0.3 1.8 -0.5
v 1.5 1.8 -0.5
v 1.6 1.8 -0.5
v 0.3 1.8 -0.6
v 0.4 1.8 -0.6
v 1.4 1.8 -0.6
v 1.5 1.8 -0.6
v 0 2.3 1.1
v 1.8 2.3 1.1
v -0.2 2.3 1
v 0 2.3 1
v 1.8 2.3 1
v 2 2.3 1
v 0.2 2.3 0.8
v 0.4 2.3 0.8
v 1.4 2.3 0.8
v 1.6 2.3 0.8
v 0.2 2.3 0.6
v 0.4 2.3 0.6
v 1.4 2.3 0.6
v 1.6 2.3 0.6
v 0.2 2.3 -0.4
v 0.4 2.3 -0.4
v 1.4 2.3 -0.4
v 1.6 2.3 -0.4
v 0.2 2.3 -0.6
v 0.4 2.3 -0.6
v 1.4 2.3 -0.6
v 1.6 2.3 -0.6
v -0.2 2.3 -0.7
v -0.1 2.3 -0.7
v 1.9 2.3 -0.7
v 2 2.3 -0.7
v -0.1 2.3 -0.8
v 0.1 2.3 -0.8
v 1.7 2.3 -0.8
v 1.9 2.3 -0.8
v 0.1 2.3 -0.9
v 1.7 2.3 -0.9
v -0.1 2.4 1.2
v 1.9 2.4 1.2
v -0.2 2.4 1.1
v -0.1 2.4 1.1
v 0 2.4 1.1
v 1.8 2.4 1.1
v 1.9 2.4 1.1
v 2 2.4 1.1
v -0.3 2.4 1
v -0.2 2.4 1
v 0 2.4 1
v 1.8 2.4 1
v 2 2.4 1
v 2.1 2.4 1
v -0.3 2.4 -0.7
v -0.2 2.4 -0.7
v -0.1 2.4 -0.7
v 1.9 2.4 -0.7
v 2 2.4 -0.7
v 2.1 2.4 -0.7
v -0.2 2.4 -0.8
v -0.1 2.4 -0.8
v 0.1 2.4 -0.8
v 1.7 2.4 -0.8
v 1.9 2.4 -0.8
v 2 2.4 -0.8
v -0.1 2.4 -0.9
v 0.1 2.4 -0.9
v 1.7 2.4 -0.9
v 1.9 2.4 -0.9
v 0.1 2.4 -1
v 1.7 2.4 -1
v 0.1 2.5 1.3
v 1.7 2.5 1.3
v 0.1 2.5 1.2
v 1.7 2.5 1.2
v -0.3 2.5 -0.7
v -0.2 2.5 -0.7
v 2 2.5 -0.7
v 2.1 2.5 -0.7
v -0.3 2.5 -0.8
v -0.2 2.5 -0.8
v -0.1 2.5 -0.8
v 1.9 2.5 -0.8
v 2 2.5 -0.8
v 2.1 2.5 -0.8
v -0.2 2.5 -0.9
v -0.1 2.5 -0.9
v 0.1 2.5 -0.9
v 1.7 2.5 -0.9
v 1.9 2.5 -0.9
v 2 2.5 -0.9
v -0.1 2.5 -1
v 0.1 2.5 -1
v 1.7 2.5 -1
v 1.9 2.5 -1
v 0.1 2.5 -1.1
v 1.7 2.5 -1.1
v 0 1.4 1
v 0.1 1.4 1
v 1.7 1.4 1
v 1.8 1.4 1
v 0 1.4 0.9
v 0.1 1.4 0.9
v 1.7 1.4 0.9
v 1.8 1.4 0.9
v 0 1.4 -0.7
v 0.1 1.4 -0.7
v 1.7 1.4 -0.7
v 1.8 1.4 -0.7
v 0 1.4 -0.8
v 0.1 1.4 -0.8
v 1.7 1.4 -0.8
v 1.8 1.4 -0.8
v 0.1 1.5 1
v 0.2 1.5 1
v 1.6 1.5 1
v 1.7 1.5 1
v 0 1.5 0.9
v 0.1 1.5 0.9
v 0.2 1.5 0.9
v 1.6 1.5 0.9
v 1.7 1.5 0.9
v 1.8 1.5 0.9
v 0 1.5 0.8
v 0.1 1.5 0.8
v 1.7 1.5 0.8
v 1.8 1.5 0.8
v 0 1.5 -0.6
v 0.1 1.5 -0.6
v 1.7 1.5 -0.6
v 1.8 1.5 -0.6
v 0 1.5 -0.7
v 0.1 1.5 -0.7
v 0.2 1.5 -0.7
v 1.6 1.5 -0.7
v 1.7 1.5 -0.7
v 1.8 1.5 -0.7
v 0.1 1.5 -0.8
v 0.2 1.5 -0.8
v 1.6 1.5 -0.8
v 1.7 1.5 -0.8
v 0.1 1.9 0.9
v 0.2 1.9 0.9
v 1.6 1.9 0.9
v 1.7 1.9 0.9
v 0.1 1.9 0.8
v 0.2 1.9 0.8
v 1.6 1.9 0.8
v 1.7 1.9 0.8
v 0.1 1.9 -0.6
v 0.2 1.9 -0.6
v 1.6 1.9 -0.6
v 1.7 1.9 -0.6
v 0.1 1.9 -0.7
v 0.2 1.9 -0.7
v 1.6 1.9 -0.7
v 1.7 1.9 -0.7
v 0.2 2 0.9
v 0.3 2 0.9
v 1.5 2 0.9
v 1.6 2 0.9
v 0.1 2 0.8
v 0.2 2 0.8
v 0.3 2 0.8
v 1.5 2 0.8
v 1.6 2 0.8
v 1.7 2 0.8
v 0.1 2 0.7
v 0.2 2 0.7
v 1.6 2 0.7
v 1.7 2 0.7
v 0.1 2 -0.5
v 0.2 2 -0.5
v 1.6 2 -0.5
v 1.7 2 -0.5
v 0.1 2 -0.6
v 0.2 2 -0.6
v 0.3 2 -0.6
v 1.5 2 -0.6
v 1.6 2 -0.6
v 1.7 2 -0.6
v 0.2 2 -0.7
v 0.3 2 -0.7
v 1.5 2 -0.7
v 1.6 2 -0.7
v -0.1 2.6 1
v 1.9 2.6 1
v -0.2 2.6 0.9
v -0.1 2.6 0.9
v 1.9 2.6 0.9
v 2 2.6 0.9
v -0.3 2.6 0.6
v -0.2 2.6 0.6
v 2 2.6 0.6
v 2.1 2.6 0.6
v -0.3 2.6 -0.8
v -0.2 2.6 -0.8
v 2 2.6 -0.8
v 2.1 2.6 -0.8
v -0.2 2.6 -0.9
v -0.1 2.6 -0.9
v 1.9 2.6 -0.9
v 2 2.6 -0.9
v -0.1 2.6 -1
v 0.1 2.6 -1
v 1.7 2.6 -1
v 1.9 2.6 -1
v 0.1 2.6 -1.1
v 1.7 2.6 -1.1
v -0.1 2.7 1.1
v 1.9 2.7 1.1
v -0.2 2.7 1
v -0.1 2.7 1
v 1.9 2.7 1
v 2 2.7 1
v -0.2 2.7 0.9
v -0.1 2.7 0.9
v 1.9 2.7 0.9
v 2 2.7 0.9
v 0.1 2.8 1.2
v 1.7 2.8 1.2
v 0.1 2.8 1.1
v 1.7 2.8 1.1
v -0.3 3.9 0.7
v -0.2 3.9 0.7
v 2 3.9 0.7
v 2.1 3.9 0.7
v -0.3 3.9 0.6
v -0.2 3.9 0.6
v 2 3.9 0.6
v 2.1 3.9 0.6
v -0.3 4 0.8
v -0.2 4 0.8
v 2 4 0.8
v 2.1 4 0.8
v -0.3 4 0.7
v -0.2 4 0.7
v 2 4 0.7
v 2.1 4 0.7
v -0.3 4.1 0.9
v -0.2 4.1 0.9
v 2 4.1 0.9
v 2.1 4.1 0.9
v -0.3 4.1 0.8
v -0.2 4.1 0.8
v 2 4.1 0.8
v 2.1 4.1 0.8
v -0.3 4.2 1
v -0.2 4.2 1
v 2 4.2 1
v 2.1 4.2 1
v -0.3 4.2 0.9
v -0.2 4.2 0.9
v 2 4.2 0.9
v 2.1 4.2 0.9
v -0.2 4.3 1.1
v -0.1 4.3 1.1
v 1.9 4.3 1.1
v 2 4.3 1.1
v -0.2 4.3 1
v -0.1 4.3 1
v 1.9 4.3 1
v 2 4.3 1
v -0.1 4.4 1.2
v 0 4.4 1.2
v 1.8 4.4 1.2
v 1.9 4.4 1.2
v -0.1 4.4 1.1
v 0 4.4 1.1
v 1.8 4.4 1.1
v 1.9 4.4 1.1
v 0 4.5 1.2
v 0.1 4.5 1.2
v 1.7 4.5 1.2
v 1.8 4.5 1.2
v 0 4.5 1.1
v 0.1 4.5 1.1
v 1.7 4.5 1.1
v 1.8 4.5 1.1
v 0.1 4.6 1.3
v 0.2 4.6 1.3
v 1.6 4.6 1.3
v 1.7 4.6 1.3
v 0.1 4.6 1.2
v 0.2 4.6 1.2
v 1.6 4.6 1.2
v 1.7 4.6 1.2
v 0.2 4.7 1.3
v 1.6 4.7 1.3
v 0.2 4.7 1.2
v 1.6 4.7 1.2

# faces
f 3/2/1 2/2/1 1/2/1
f 5/2/1 3/2/1 1/2/1
f 5/2/1 4/2/1 3/2/1
f 6/2/1 4/2/1 5/2/1
f 7/2/1 5/2/1 1/2/1
f 8/2/1 5/2/1 7/2/1
f 9/2/1 7/2/1 1/2/1
f 10/2/1 7/2/1 9/2/1
f 11/2/1 9/2/1 1/2/1
f 12/2/1 9/2/1 11/2/1
f 13/2/1 11/2/1 1/2/1
f 14/2/1 11/2/1 13/2/1
f 18/2/1 16/2/1 15/2/1
f 19/2/1 16/2/1 18/2/1
f 21/2/1 20/2/1 19/2/1
f 22/2/1 20/2/1 21/2/1
f 24/2/1 23/2/1 22/2/1
f 25/2/1 23/2/1 24/2/1
f 26/2/1 18/2/1 17/2/1
f 27/2/1 26/2/1 17/2/1
f 28/2/1 26/2/1 27/2/1
f 33/2/1 30/2/1 29/2/1
f 34/2/1 30/2/1 33/2/1
f 36/2/1 35/2/1 34/2/1
f 37/2/1 35/2/1 36/2/1
f 39/2/1 38/2/1 37/2/1
f 40/2/1 38/2/1 39/2/1
f 41/2/1 32/2/1 31/2/1
f 42/2/1 41/2/1 31/2/1
f 43/2/1 41/2/1 42/2/1
f 48/3/1 45/3/1 44/3/1
f 49/3/1 45/3/1 48/3/1
f 50/3/1 47/3/1 46/3/1
f 51/3/1 47/3/1 50/3/1
f 52/3/1 45/3/1 49/3/1
f 53/3/1 45/3/1 52/3/1
f 54/3/1 50/3/1 46/3/1
f 55/3/1 50/3/1 54/3/1
f 58/2/1 57/2/1 56/2/1
f 59/2/1 57/2/1 58/2/1
f 62/2/1 61/2/1 60/2/1
f 63/2/1 61/2/1 62/2/1
f 72/3/1 69/3/1 68/3/1
f 73/3/1 69/3/1 72/3/1
f 74/3/1 65/3/1 64/3/1
f 75/3/1 67/3/1 66/3/1
f 76/3/1 71/3/1 70/3/1
f 77/3/1 71/3/1 76/3/1
f 78/3/1 74/3/1 73/3/1
f 79/3/1 65/3/1 74/3/1
f 79/3/1 74/3/1 78/3/1
f 80/3/1 76/3/1 75/3/1
f 80/3/1 75/3/1 66/3/1
f 81/3/1 76/3/1 80/3/1
f 82/3/1 65/3/1 79/3/1
f 83/3/1 65/3/1 82/3/1
f 84/3/1 80/3/1 66/3/1
f 85/3/1 80/3/1 84/3/1
f 88/2/1 87/2/1 86/2/1
f 89/2/1 87/2/1 88/2/1
f 93/2/1 90/2/1 89/2/1
f 94/2/1 90/2/1 93/2/1
f 96/2/1 95/2/1 94/2/1
f 97/2/1 95/2/1 96/2/1
f 98/2/1 92/2/1 91/2/1
f 99/2/1 98/2/1 91/2/1
f 100/2/1 98/2/1 99/2/1
f 109/3/1 106/3/1 105/3/1
f 110/3/1 106/3/1 109/3/1
f 111/3/1 102/3/1 101/3/1
f 112/3/1 104/3/1 103/3/1
f 113/3/1 108/3/1 107/3/1
f 114/3/1 108/3/1 113/3/1
f 115/3/1 111/3/1 110/3/1
f 116/3/1 102/3/1 111/3/1
f 116/3/1 111/3/1 115/3/1
f 117/3/1 113/3/1 112/3/1
f 117/3/1 112/3/1 103/3/1
f 118/3/1 113/3/1 117/3/1
f 121/2/1 120/2/1 119/2/1
f 122/2/1 120/2/1 121/2/1
f 127/3/1 124/3/1 123/3/1
f 128/3/1 124/3/1 127/3/1
f 129/3/1 126/3/1 125/3/1
f 130/3/1 126/3/1 129/3/1
f 135/3/1 132/3/1 131/3/1
f 136/3/1 132/3/1 135/3/1
f 137/3/1 134/3/1 133/3/1
f 138/3/1 134/3/1 137/3/1
f 139/3/1 135/3/1 131/3/1
f 140/3/1 135/3/1 139/3/1
f 141/3/1 134/3/1 138/3/1
f 142/3/1 134/3/1 141/3/1
f 147/3/1 144/3/1 143/3/1
f 148/3/1 144/3/1 147/3/1
f 149/3/1 146/3/1 145/3/1
f 150/3/1 146/3/1 149/3/1
f 151/3/1 147/3/1 143/3/1
f 152/3/1 147/3/1 151/3/1
f 153/3/1 146/3/1 150/3/1
f 154/3/1 146/3/1 153/3/1
f 157/2/1 156/2/1 155/2/1
f 158/2/1 156/2/1 157/2/1
f 162/2/1 160/2/1 159/2/1
f 163/2/1 160/2/1 162/2/1
f 164/2/1 162/2/1 161/2/1
f 165/2/1 162/2/1 164/2/1
f 169/2/1 167/2/1 166/2/1
f 170/2/1 167/2/1 169/2/1
f 170/2/1 169/2/1 168/2/1
f 171/2/1 167/2/1 170/2/1
f 172/2/1 170/2/1 168/2/1
f 173/2/1 170/2/1 172/2/1
f 174/2/1 172/2/1 168/2/1
f 175/2/1 172/2/1 174/2/1
f 176/2/1 174/2/1 168/2/1
f 177/2/1 174/2/1 176/2/1
f 178/2/2 179/2/2 181/2/2
f 181/2/2 179/2/2 182/2/2
f 180/2/2 181/2/2 182/2/2
f 182/2/2 179/2/2 183/2/2
f 180/2/2 182/2/2 184/2/2
f 184/2/2 182/2/2 185/2/2
f 180/2/2 184/2/2 186/2/2
f 186/2/2 184/2/2 187/2/2
f 180/2/2 186/2/2 188/2/2
f 188/2/2 186/2/2 189/2/2
f 190/2/2 191/2/2 193/2/2
f 193/2/2 191/2/2 194/2/2
f 192/2/2 193/2/2 195/2/2
f 195/2/2 193/2/2 196/2/2
f 197/2/2 198/2/2 199/2/2
f 199/2/2 198/2/2 200/2/2
f 201/3/2 202/3/2 205/3/2
f 205/3/2 202/3/2 206/3/2
f 203/3/2 204/3/2 207/3/2
f 207/3/2 204/3/2 208/3/2
f 201/3/2 205/3/2 209/3/2
f 209/3/2 205/3/2 210/3/2
f 208/3/2 204/3/2 211/3/2
f 211/3/2 204/3/2 212/3/2
f 213/3/2 214/3/2 217/3/2
f 217/3/2 214/3/2 218/3/2
f 215/3/2 216/3/2 219/3/2
f 219/3/2 216/3/2 220/3/2
f 213/3/2 217/3/2 221/3/2
f 221/3/2 217/3/2 222/3/2
f 220/3/2 216/3/2 223/3/2
f 223/3/2 216/3/2 224/3/2
f 225/3/2 226/3/2 229/3/2
f 229/3/2 226/3/2 230/3/2
f 227/3/2 228/3/2 231/3/2
f 231/3/2 228/3/2 232/3/2
f 237/3/2 238/3/2 241/3/2
f 241/3/2 238/3/2 242/3/2
f 233/3/2 234/3/2 243/3/2
f 235/3/2 236/3/2 244/3/2
f 239/3/2 240/3/2 245/3/2
f 245/3/2 240/3/2 246/3/2
f 242/3/2 243/3/2 247/3/2
f 243/3/2 234/3/2 248/3/2
f 247/3/2 243/3/2 248/3/2
f 244/3/2 245/3/2 249/3/2
f 235/3/2 244/3/2 249/3/2
f 249/3/2 245/3/2 250/3/2
f 251/2/2 252/2/2 253/2/2
f 253/2/2 252/2/2 254/2/2
f 259/3/2 260/3/2 263/3/2
f 263/3/2 260/3/2 264/3/2
f 255/3/2 256/3/2 265/3/2
f 257/3/2 258/3/2 266/3/2
f 261/3/2 262/3/2 267/3/2
f 267/3/2 262/3/2 268/3/2
f 264/3/2 265/3/2 269/3/2
f 265/3/2 256/3/2 270/3/2
f 269/3/2 265/3/2 270/3/2
f 266/3/2 267/3/2 271/3/2
f 257/3/2 266/3/2 271/3/2
f 271/3/2 267/3/2 272/3/2
f 270/3/2 256/3/2 273/3/2
f 273/3/2 256/3/2 274/3/2
f 257/3/2 271/3/2 275/3/2
f 275/3/2 271/3/2 276/3/2
f 277/2/2 278/2/2 279/2/2
f 279/2/2 278/2/2 280/2/2
f 280/2/2 281/2/2 284/2/2
f 284/2/2 281/2/2 285/2/2
f 285/2/2 286/2/2 287/2/2
f 287/2/2 286/2/2 288/2/2
f 282/2/2 283/2/2 289/2/2
f 282/2/2 289/2/2 290/2/2
f 290/2/2 289/2/2 291/2/2
f 292/3/2 293/3/2 296/3/2
f 296/3/2 293/3/2 297/3/2
f 294/3/2 295/3/2 298/3/2
f 298/3/2 295/3/2 299/3/2
f 297/3/2 293/3/2 300/3/2
f 300/3/2 293/3/2 301/3/2
f 294/3/2 298/3/2 302/3/2
f 302/3/2 298/3/2 303/3/2
f 304/2/2 305/2/2 306/2/2
f 306/2/2 305/2/2 307/2/2
f 308/2/2 309/2/2 310/2/2
f 310/2/2 309/2/2 311/2/2
f 312/2/2 313/2/2 316/2/2
f 316/2/2 313/2/2 317/2/2
f 317/2/2 318/2/2 319/2/2
f 319/2/2 318/2/2 320/2/2
f 320/2/2 321/2/2 322/2/2
f 322/2/2 321/2/2 323/2/2
f 314/2/2 315/2/2 324/2/2
f 314/2/2 324/2/2 325/2/2
f 325/2/2 324/2/2 326/2/2
f 327/2/2 328/2/2 330/2/2
f 330/2/2 328/2/2 331/2/2
f 331/2/2 332/2/2 333/2/2
f 333/2/2 332/2/2 334/2/2
f 334/2/2 335/2/2 336/2/2
f 336/2/2 335/2/2 337/2/2
f 329/2/2 330/2/2 338/2/2
f 329/2/2 338/2/2 339/2/2
f 339/2/2 338/2/2 340/2/2
f 341/2/2 342/2/2 343/2/2
f 341/2/2 343/2/2 345/2/2
f 343/2/2 344/2/2 345/2/2
f 345/2/2 344/2/2 346/2/2
f 341/2/2 345/2/2 347/2/2
f 347/2/2 345/2/2 348/2/2
f 341/2/2 347/2/2 349/2/2
f 349/2/2 347/2/2 350/2/2
f 341/2/2 349/2/2 351/2/2
f 351/2/2 349/2/2 352/2/2
f 341/2/2 351/2/2 353/2/2
f 353/2/2 351/2/2 354/2/2
f 357/2/3 356/2/3 355/2/3
f 359/2/3 357/2/3 355/2/3
f 359/2/3 358/2/3 357/2/3
f 360/2/3 358/2/3 359/2/3
f 361/2/3 359/2/3 355/2/3
f 362/2/3 359/2/3 361/2/3
f 365/2/3 364/2/3 363/2/3
f 367/2/3 365/2/3 363/2/3
f 367/2/3 366/2/3 365/2/3
f 368/2/3 366/2/3 367/2/3
f 369/2/3 367/2/3 363/2/3
f 371/2/3 370/2/3 369/2/3
f 372/2/3 370/2/3 371/2/3
f 373/2/3 369/2/3 363/2/3
f 373/2/3 371/2/3 369/2/3
f 374/2/3 371/2/3 373/2/3
f 377/2/3 376/2/3 375/2/3
f 378/2/3 376/2/3 377/2/3
f 381/2/3 380/2/3 379/2/3
f 382/2/3 380/2/3 381/2/3
f 385/2/3 384/2/3 383/2/3
f 386/2/3 384/2/3 385/2/3
f 390/2/3 388/2/3 387/2/3
f 391/2/3 388/2/3 390/2/3
f 394/2/3 390/2/3 389/2/3
f 395/2/3 390/2/3 394/2/3
f 396/3/3 393/3/3 392/3/3
f 398/3/3 396/3/3 392/3/3
f 398/3/3 397/3/3 396/3/3
f 399/3/3 397/3/3 398/3/3
f 402/3/3 401/3/3 400/3/3
f 403/3/3 401/3/3 402/3/3
f 404/3/3 402/3/3 400/3/3
f 405/3/3 402/3/3 404/3/3
f 408/2/3 407/2/3 406/2/3
f 409/2/3 407/2/3 408/2/3
f 411/2/3 410/2/3 409/2/3
f 412/2/3 410/2/3 411/2/3
f 415/3/3 414/3/3 413/3/3
f 416/3/3 414/3/3 415/3/3
f 419/3/3 417/3/3 416/3/3
f 420/3/3 417/3/3 419/3/3
f 422/3/3 419/3/3 418/3/3
f 422/3/3 421/3/3 420/3/3
f 422/3/3 420/3/3 419/3/3
f 423/3/3 421/3/3 422/3/3
f 426/3/3 425/3/3 424/3/3
f 427/3/3 425/3/3 426/3/3
f 428/3/3 425/3/3 427/3/3
f 429/3/3 425/3/3 428/3/3
f 431/3/3 428/3/3 427/3/3
f 432/3/3 428/3/3 431/3/3
f 433/3/3 431/3/3 430/3/3
f 434/3/3 431/3/3 433/3/3
f 437/3/3 436/3/3 435/3/3
f 438/3/3 436/3/3 437/3/3
f 441/3/3 439/3/3 438/3/3
f 442/3/3 441/3/3 440/3/3
f 443/3/3 439/3/3 441/3/3
f 443/3/3 441/3/3 442/3/3
f 446/3/3 445/3/3 444/3/3
f 447/3/3 445/3/3 446/3/3
f 449/3/3 445/3/3 447/3/3
f 450/3/3 445/3/3 449/3/3
f 451/3/3 449/3/3 448/3/3
f 452/3/3 449/3/3 451/3/3
f 455/3/3 454/3/3 453/3/3
f 456/3/3 454/3/3 455/3/3
f 459/3/3 458/3/3 457/3/3
f 460/3/3 458/3/3 459/3/3
f 463/3/3 462/3/3 461/3/3
f 464/3/3 462/3/3 463/3/3
f 465/3/3 463/3/3 461/3/3
f 466/3/3 463/3/3 465/3/3
f 469/3/3 468/3/3 467/3/3
f 471/3/3 469/3/3 467/3/3
f 471/3/3 470/3/3 469/3/3
f 472/3/3 470/3/3 471/3/3
f 475/3/3 474/3/3 473/3/3
f 476/3/3 474/3/3 475/3/3
f 477/3/3 475/3/3 473/3/3
f 478/3/3 475/3/3 477/3/3
f 481/3/3 480/3/3 479/3/3
f 483/3/3 481/3/3 479/3/3
f 483/3/3 482/3/3 481/3/3
f 484/3/3 482/3/3 483/3/3
f 485/2/4 486/2/4 488/2/4
f 486/2/4 487/2/4 488/2/4
f 485/2/4 488/2/4 490/2/4
f 488/2/4 489/2/4 490/2/4
f 490/2/4 489/2/4 491/2/4
f 485/2/4 490/2/4 492/2/4
f 492/2/4 490/2/4 493/2/4
f 493/2/4 490/2/4 494/2/4
f 495/2/4 496/2/4 498/2/4
f 496/2/4 497/2/4 498/2/4
f 495/2/4 498/2/4 500/2/4
f 498/2/4 499/2/4 500/2/4
f 500/2/4 499/2/4 501/2/4
f 495/2/4 500/2/4 502/2/4
f 502/2/4 503/2/4 504/2/4
f 504/2/4 503/2/4 505/2/4
f 495/2/4 502/2/4 506/2/4
f 502/2/4 504/2/4 506/2/4
f 506/2/4 504/2/4 507/2/4
f 507/2/4 504/2/4 508/2/4
f 509/2/4 510/2/4 513/2/4
f 510/2/4 511/2/4 513/2/4
f 513/2/4 511/2/4 514/2/4
f 512/2/4 513/2/4 515/2/4
f 515/2/4 513/2/4 516/2/4
f 516/2/4 517/2/4 518/2/4
f 518/2/4 517/2/4 519/2/4
f 519/2/4 517/2/4 520/2/4
f 521/2/4 522/2/4 525/2/4
f 525/2/4 522/2/4 526/2/4
f 523/2/4 524/2/4 527/2/4
f 527/2/4 524/2/4 528/2/4
f 529/2/4 530/2/4 531/2/4
f 531/2/4 530/2/4 532/2/4
f 533/2/4 534/2/4 535/2/4
f 535/2/4 534/2/4 536/2/4
f 537/2/4 538/2/4 539/2/4
f 539/2/4 538/2/4 540/2/4
f 541/3/4 542/3/4 543/3/4
f 543/3/4 542/3/4 544/3/4
f 541/3/4 543/3/4 545/3/4
f 545/3/4 543/3/4 546/3/4
f 547/3/4 548/3/4 549/3/4
f 547/3/4 549/3/4 551/3/4
f 549/3/4 550/3/4 551/3/4
f 551/3/4 550/3/4 552/3/4
f 553/2/4 554/2/4 555/2/4
f 555/2/4 554/2/4 556/2/4
f 557/2/4 558/2/4 559/2/4
f 559/2/4 558/2/4 560/2/4
f 561/3/4 562/3/4 563/3/4
f 563/3/4 562/3/4 564/3/4
f 561/3/4 563/3/4 565/3/4
f 565/3/4 563/3/4 566/3/4
f 567/3/4 568/3/4 569/3/4
f 567/3/4 569/3/4 571/3/4
f 569/3/4 570/3/4 571/3/4
f 571/3/4 570/3/4 572/3/4
f 573/2/4 574/2/4 575/2/4
f 575/2/4 574/2/4 576/2/4
f 577/2/4 578/2/4 579/2/4
f 579/2/4 578/2/4 580/2/4
f 581/3/4 582/3/4 583/3/4
f 583/3/4 582/3/4 584/3/4
f 585/3/4 586/3/4 587/3/4
f 587/3/4 586/3/4 588/3/4
f 589/2/4 590/2/4 591/2/4
f 591/2/4 590/2/4 592/2/4
f 593/3/4 594/3/4 595/3/4
f 595/3/4 594/3/4 596/3/4
f 596/3/4 597/3/4 599/3/4
f 598/3/4 599/3/4 600/3/4
f 599/3/4 597/3/4 601/3/4
f 600/3/4 599/3/4 601/3/4
f 602/3/4 603/3/4 604/3/4
f 604/3/4 603/3/4 605/3/4
f 605/3/4 603/3/4 607/3/4
f 607/3/4 603/3/4 608/3/4
f 606/3/4 607/3/4 609/3/4
f 609/3/4 607/3/4 610/3/4
f 611/2/4 612/2/4 614/2/4
f 614/2/4 612/2/4 615/2/4
f 613/2/4 614/2/4 616/2/4
f 616/2/4 614/2/4 617/2/4
f 618/3/4 619/3/4 620/3/4
f 620/3/4 619/3/4 621/3/4
f 621/3/4 622/3/4 624/3/4
f 624/3/4 622/3/4 625/3/4
f 623/3/4 624/3/4 627/3/4
f 625/3/4 626/3/4 627/3/4
f 624/3/4 625/3/4 627/3/4
f 627/3/4 626/3/4 628/3/4
f 629/3/4 630/3/4 631/3/4
f 631/3/4 630/3/4 632/3/4
f 632/3/4 630/3/4 633/3/4
f 633/3/4 630/3/4 634/3/4
f 632/3/4 633/3/4 636/3/4
f 636/3/4 633/3/4 637/3/4
f 635/3/4 636/3/4 638/3/4
f 638/3/4 636/3/4 639/3/4
f 640/2/4 641/2/4 642/2/4
f 642/2/4 641/2/4 643/2/4
f 643/2/4 644/2/4 645/2/4
f 645/2/4 644/2/4 646/2/4
f 647/2/4 648/2/4 650/2/4
f 650/2/4 648/2/4 651/2/4
f 649/2/4 650/2/4 653/2/4
f 653/2/4 650/2/4 654/2/4
f 655/3/4 656/3/4 657/3/4
f 652/2/4 653/2/4 659/2/4
f 659/2/4 653/2/4 660/2/4
f 657/3/4 658/3/4 661/3/4
f 655/3/4 657/3/4 661/3/4
f 661/3/4 658/3/4 662/3/4
f 663/3/4 664/3/4 665/3/4
f 665/3/4 664/3/4 666/3/4
f 663/3/4 665/3/4 669/3/4
f 669/3/4 665/3/4 670/3/4
f 667/2/4 668/2/4 671/2/4
f 671/2/4 668/2/4 672/2/4
f 672/2/4 673/2/4 674/2/4
f 674/2/4 673/2/4 675/2/4
f 675/2/4 676/2/4 677/2/4
f 677/2/4 676/2/4 678/2/4
f 679/2/4 680/2/4 682/2/4
f 682/2/4 680/2/4 683/2/4
f 681/2/4 682/2/4 685/2/4
f 685/2/4 682/2/4 686/2/4
f 684/2/4 685/2/4 687/2/4
f 687/2/4 685/2/4 688/2/4
f 688/2/4 689/2/4 690/2/4
f 690/2/4 689/2/4 691/2/4
f 691/2/4 692/2/4 693/2/4
f 693/2/4 692/2/4 694/2/4
f 695/2/4 696/2/4 698/2/4
f 698/2/4 696/2/4 699/2/4
f 697/2/4 698/2/4 700/2/4
f 700/2/4 698/2/4 701/2/4
f 701/2/4 702/2/4 703/2/4
f 703/2/4 702/2/4 704/2/4
f 705/2/4 706/2/4 707/2/4
f 707/2/4 706/2/4 708/2/4
f 713/3/5 710/3/5 709/3/5
f 714/3/5 710/3/5 713/3/5
f 715/3/5 712/3/5 711/3/5
f 716/3/5 712/3/5 715/3/5
f 721/3/5 718/3/5 717/3/5
f 722/3/5 718/3/5 721/3/5
f 723/3/5 720/3/5 719/3/5
f 724/3/5 720/3/5 723/3/5
f 730/3/5 726/3/5 725/3/5
f 731/3/5 728/3/5 727/3/5
f 733/3/5 730/3/5 729/3/5
f 734/3/5 726/3/5 730/3/5
f 734/3/5 730/3/5 733/3/5
f 735/3/5 732/3/5 731/3/5
f 735/3/5 731/3/5 727/3/5
f 736/3/5 732/3/5 735/3/5
f 741/3/5 738/3/5 737/3/5
f 742/3/5 738/3/5 741/3/5
f 743/3/5 740/3/5 739/3/5
f 744/3/5 740/3/5 743/3/5
f 745/3/5 738/3/5 742/3/5
f 746/3/5 738/3/5 745/3/5
f 747/3/5 743/3/5 739/3/5
f 748/3/5 743/3/5 747/3/5
f 754/3/5 750/3/5 749/3/5
f 755/3/5 752/3/5 751/3/5
f 757/3/5 754/3/5 753/3/5
f 758/3/5 750/3/5 754/3/5
f 758/3/5 754/3/5 757/3/5
f 759/3/5 756/3/5 755/3/5
f 759/3/5 755/3/5 751/3/5
f 760/3/5 756/3/5 759/3/5
f 765/3/5 762/3/5 761/3/5
f 766/3/5 762/3/5 765/3/5
f 767/3/5 764/3/5 763/3/5
f 768/3/5 764/3/5 767/3/5
f 769/3/5 762/3/5 766/3/5
f 770/3/5 762/3/5 769/3/5
f 771/3/5 767/3/5 763/3/5
f 772/3/5 767/3/5 771/3/5
f 776/2/5 774/2/5 773/2/5
f 777/2/5 774/2/5 776/2/5
f 779/2/5 776/2/5 775/2/5
f 779/2/5 778/2/5 777/2/5
f 779/2/5 777/2/5 776/2/5
f 780/2/5 778/2/5 779/2/5
f 781/2/5 778/2/5 780/2/5
f 782/2/5 778/2/5 781/2/5
f 783/2/5 779/2/5 775/2/5
f 784/2/5 781/2/5 780/2/5
f 785/2/5 781/2/5 784/2/5
f 786/2/5 778/2/5 782/2/5
f 787/2/5 785/2/5 784/2/5
f 787/2/5 786/2/5 785/2/5
f 787/2/5 783/2/5 775/2/5
f 787/2/5 784/2/5 783/2/5
f 788/2/5 786/2/5 787/2/5
f 789/2/5 786/2/5 788/2/5
f 790/2/5 778/2/5 786/2/5
f 790/2/5 786/2/5 789/2/5
f 791/2/5 787/2/5 775/2/5
f 792/2/5 789/2/5 788/2/5
f 793/2/5 789/2/5 792/2/5
f 794/2/5 778/2/5 790/2/5
f 795/2/5 791/2/5 775/2/5
f 795/2/5 794/2/5 793/2/5
f 795/2/5 793/2/5 792/2/5
f 795/2/5 792/2/5 791/2/5
f 796/2/5 794/2/5 795/2/5
f 797/2/5 778/2/5 794/2/5
f 797/2/5 794/2/5 796/2/5
f 798/2/5 778/2/5 797/2/5
f 799/2/5 797/2/5 796/2/5
f 800/2/5 797/2/5 799/2/5
f 801/2/5 797/2/5 800/2/5
f 802/2/5 797/2/5 801/2/5
f 803/2/5 801/2/5 800/2/5
f 804/2/5 801/2/5 803/2/5
f 808/2/5 806/2/5 805/2/5
f 809/2/5 806/2/5 808/2/5
f 810/2/5 806/2/5 809/2/5
f 811/2/5 806/2/5 810/2/5
f 814/2/5 808/2/5 807/2/5
f 814/2/5 809/2/5 808/2/5
f 815/2/5 809/2/5 814/2/5
f 816/2/5 811/2/5 810/2/5
f 816/2/5 812/2/5 811/2/5
f 817/2/5 812/2/5 816/2/5
f 819/2/5 814/2/5 813/2/5
f 820/2/5 814/2/5 819/2/5
f 823/2/5 818/2/5 817/2/5
f 824/2/5 818/2/5 823/2/5
f 825/2/5 821/2/5 820/2/5
f 826/2/5 821/2/5 825/2/5
f 829/2/5 823/2/5 822/2/5
f 830/2/5 823/2/5 829/2/5
f 831/2/5 827/2/5 826/2/5
f 832/2/5 827/2/5 831/2/5
f 833/2/5 829/2/5 828/2/5
f 834/2/5 829/2/5 833/2/5
f 835/2/5 833/2/5 832/2/5
f 836/2/5 833/2/5 835/2/5
f 839/2/5 838/2/5 837/2/5
f 840/2/5 838/2/5 839/2/5
f 845/2/5 842/2/5 841/2/5
f 846/2/5 842/2/5 845/2/5
f 849/2/5 844/2/5 843/2/5
f 850/2/5 844/2/5 849/2/5
f 851/2/5 847/2/5 846/2/5
f 852/2/5 847/2/5 851/2/5
f 855/2/5 849/2/5 848/2/5
f 856/2/5 849/2/5 855/2/5
f 857/2/5 853/2/5 852/2/5
f 858/2/5 853/2/5 857/2/5
f 859/2/5 855/2/5 854/2/5
f 860/2/5 855/2/5 859/2/5
f 861/2/5 859/2/5 858/2/5
f 862/2/5 859/2/5 861/2/5
f 863/3/6 864/3/6 867/3/6
f 867/3/6 864/3/6 868/3/6
f 865/3/6 866/3/6 869/3/6
f 869/3/6 866/3/6 870/3/6
f 871/3/6 872/3/6 875/3/6
f 875/3/6 872/3/6 876/3/6
f 873/3/6 874/3/6 877/3/6
f 877/3/6 874/3/6 878/3/6
f 879/3/6 880/3/6 884/3/6
f 884/3/6 880/3/6 885/3/6
f 881/3/6 882/3/6 886/3/6
f 886/3/6 882/3/6 887/3/6
f 883/3/6 884/3/6 889/3/6
f 889/3/6 884/3/6 890/3/6
f 887/3/6 888/3/6 891/3/6
f 891/3/6 888/3/6 892/3/6
f 893/3/6 894/3/6 897/3/6
f 897/3/6 894/3/6 898/3/6
f 895/3/6 896/3/6 901/3/6
f 901/3/6 896/3/6 902/3/6
f 898/3/6 899/3/6 903/3/6
f 903/3/6 899/3/6 904/3/6
f 900/3/6 901/3/6 905/3/6
f 905/3/6 901/3/6 906/3/6
f 907/3/6 908/3/6 911/3/6
f 911/3/6 908/3/6 912/3/6
f 909/3/6 910/3/6 913/3/6
f 913/3/6 910/3/6 914/3/6
f 915/3/6 916/3/6 919/3/6
f 919/3/6 916/3/6 920/3/6
f 917/3/6 918/3/6 921/3/6
f 921/3/6 918/3/6 922/3/6
f 923/3/6 924/3/6 928/3/6
f 928/3/6 924/3/6 929/3/6
f 925/3/6 926/3/6 930/3/6
f 930/3/6 926/3/6 931/3/6
f 927/3/6 928/3/6 933/3/6
f 933/3/6 928/3/6 934/3/6
f 931/3/6 932/3/6 935/3/6
f 935/3/6 932/3/6 936/3/6
f 937/3/6 938/3/6 941/3/6
f 941/3/6 938/3/6 942/3/6
f 939/3/6 940/3/6 945/3/6
f 945/3/6 940/3/6 946/3/6
f 942/3/6 943/3/6 947/3/6
f 947/3/6 943/3/6 948/3/6
f 944/3/6 945/3/6 949/3/6
f 949/3/6 945/3/6 950/3/6
f 951/2/6 952/2/6 954/2/6
f 954/2/6 952/2/6 955/2/6
f 953/2/6 954/2/6 958/2/6
f 955/2/6 956/2/6 958/2/6
f 954/2/6 955/2/6 958/2/6
f 958/2/6 956/2/6 959/2/6
f 957/2/6 958/2/6 961/2/6
f 959/2/6 960/2/6 961/2/6
f 958/2/6 959/2/6 961/2/6
f 961/2/6 960/2/6 962/2/6
f 962/2/6 960/2/6 963/2/6
f 963/2/6 960/2/6 964/2/6
f 962/2/6 963/2/6 965/2/6
f 965/2/6 963/2/6 966/2/6
f 966/2/6 963/2/6 967/2/6
f 967/2/6 963/2/6 968/2/6
f 966/2/6 967/2/6 969/2/6
f 969/2/6 967/2/6 970/2/6
f 970/2/6 967/2/6 971/2/6
f 971/2/6 967/2/6 972/2/6
f 970/2/6 971/2/6 973/2/6
f 973/2/6 971/2/6 974/2/6
f 975/2/6 976/2/6 978/2/6
f 978/2/6 976/2/6 979/2/6
f 977/2/6 978/2/6 981/2/6
f 981/2/6 978/2/6 982/2/6
f 979/2/6 980/2/6 983/2/6
f 983/2/6 980/2/6 984/2/6
f 985/2/6 986/2/6 987/2/6
f 987/2/6 986/2/6 988/2/6
f 989/2/6 990/2/6 993/2/6
f 993/2/6 990/2/6 994/2/6
f 991/2/6 992/2/6 995/2/6
f 995/2/6 992/2/6 996/2/6
f 997/2/6 998/2/6 1001/2/6
f 1001/2/6 998/2/6 1002/2/6
f 999/2/6 1000/2/6 1003/2/6
f 1003/2/6 1000/2/6 1004/2/6
f 1005/2/6 1006/2/6 1009/2/6
f 1009/2/6 1006/2/6 1010/2/6
f 1007/2/6 1008/2/6 1011/2/6
f 1011/2/6 1008/2/6 1012/2/6
f 1013/2/6 1014/2/6 1017/2/6
f 1017/2/6 1014/2/6 1018/2/6
f 1015/2/6 1016/2/6 1019/2/6
f 1019/2/6 1016/2/6 1020/2/6
f 1021/2/6 1022/2/6 1025/2/6
f 1025/2/6 1022/2/6 1026/2/6
f 1023/2/6 1024/2/6 1027/2/6
f 1027/2/6 1024/2/6 1028/2/6
f 1029/2/6 1030/2/6 1033/2/6
f 1033/2/6 1030/2/6 1034/2/6
f 1031/2/6 1032/2/6 1035/2/6
f 1035/2/6 1032/2/6 1036/2/6
f 1037/2/6 1038/2/6 1041/2/6
f 1041/2/6 1038/2/6 1042/2/6
f 1039/2/6 1040/2/6 1043/2/6
f 1043/2/6 1040/2/6 1044/2/6
f 1045/2/6 1046/2/6 1049/2/6
f 1049/2/6 1046/2/6 1050/2/6
f 1047/2/6 1048/2/6 1051/2/6
f 1051/2/6 1048/2/6 1052/2/6
f 1053/2/6 1054/2/6 1055/2/6
f 1055/2/6 1054/2/6 1056/2/6
