# MagicaVoxel @ Ephtracy

# group
o 

# material
mtllib dining_table.mtl
usemtl palette

# normals
vn -1 0 0
vn 1 0 0
vn 0 0 1
vn 0 0 -1
vn 0 -1 0
vn 0 1 0

# texcoords
vt 0.00195312 0.5
vt 0.0488281 0.5

# verts
v -3.2 3.2 -0.4
v -3.2 3.2 -2.8
v -3.2 3.4 -0.4
v -3.2 3.4 -2.8
v -3.1 3.2 -0.2
v -3.1 3.2 -0.4
v -3.1 3.2 -2.8
v -3.1 3.2 -3
v -3.1 3.4 -0.2
v -3.1 3.4 -0.4
v -3.1 3.4 -2.8
v -3.1 3.4 -3
v -3 3.2 -0.1
v -3 3.2 -0.2
v -3 3.2 -3
v -3 3.2 -3.1
v -3 3.4 -0.1
v -3 3.4 -0.2
v -3 3.4 -3
v -3 3.4 -3.1
v -2.9 0 -0.2
v -2.9 0 -0.5
v -2.9 0 -2.7
v -2.9 0 -3
v -2.9 1 -0.2
v -2.9 1 -0.3
v -2.9 1 -2.9
v -2.9 1 -3
v -2.9 1.1 -0.3
v -2.9 1.1 -0.5
v -2.9 1.1 -2.7
v -2.9 1.1 -2.9
v -2.8 0.9 -0.5
v -2.8 0.9 -0.6
v -2.8 0.9 -2.6
v -2.8 0.9 -2.7
v -2.8 1 -0.2
v -2.8 1 -0.3
v -2.8 1 -2.9
v -2.8 1 -3
v -2.8 1.1 -0.2
v -2.8 1.1 -0.3
v -2.8 1.1 -0.5
v -2.8 1.1 -2.7
v -2.8 1.1 -2.9
v -2.8 1.1 -3
v -2.8 2 -0.3
v -2.8 2 -0.4
v -2.8 2 -2.8
v -2.8 2 -2.9
v -2.8 2.1 -0.4
v -2.8 2.1 -0.6
v -2.8 2.1 -2.6
v -2.8 2.1 -2.8
v -2.8 3.2 0
v -2.8 3.2 -0.1
v -2.8 3.2 -3.1
v -2.8 3.2 -3.2
v -2.8 3.4 0
v -2.8 3.4 -0.1
v -2.8 3.4 -3.1
v -2.8 3.4 -3.2
v -2.7 1.9 -0.6
v -2.7 1.9 -0.7
v -2.7 1.9 -2.5
v -2.7 1.9 -2.6
v -2.7 2 -0.3
v -2.7 2 -0.4
v -2.7 2 -2.8
v -2.7 2 -2.9
v -2.7 2.1 -0.3
v -2.7 2.1 -0.4
v -2.7 2.1 -0.6
v -2.7 2.1 -2.6
v -2.7 2.1 -2.8
v -2.7 2.1 -2.9
v -2.7 2.8 -0.4
v -2.7 2.8 -0.5
v -2.7 2.8 -0.7
v -2.7 2.8 -0.8
v -2.7 2.8 -2.4
v -2.7 2.8 -2.5
v -2.7 2.8 -2.7
v -2.7 2.8 -2.8
v -2.7 3 -0.5
v -2.7 3 -0.6
v -2.7 3 -2.6
v -2.7 3 -2.7
v -2.7 3.2 -0.6
v -2.7 3.2 -0.8
v -2.7 3.2 -2.4
v -2.7 3.2 -2.6
v -2.6 2.8 -0.4
v -2.6 2.8 -0.5
v -2.6 2.8 -0.8
v -2.6 2.8 -2.4
v -2.6 2.8 -2.7
v -2.6 2.8 -2.8
v -2.6 3 -0.4
v -2.6 3 -0.5
v -2.6 3 -0.6
v -2.6 3 -0.8
v -2.6 3 -2.4
v -2.6 3 -2.6
v -2.6 3 -2.7
v -2.6 3 -2.8
v -2.6 3.2 -0.5
v -2.6 3.2 -0.6
v -2.6 3.2 -2.6
v -2.6 3.2 -2.7
v -2.5 3 -0.4
v -2.5 3 -0.5
v -2.5 3 -0.8
v -2.5 3 -2.4
v -2.5 3 -2.7
v -2.5 3 -2.8
v -2.5 3.2 -0.4
v -2.5 3.2 -0.5
v -2.5 3.2 -0.8
v -2.5 3.2 -2.4
v -2.5 3.2 -2.7
v -2.5 3.2 -2.8
v 2.3 2.8 -0.4
v 2.3 2.8 -0.5
v 2.3 2.8 -2.7
v 2.3 2.8 -2.8
v 2.3 3 -0.5
v 2.3 3 -0.6
v 2.3 3 -2.6
v 2.3 3 -2.7
v 2.3 3.2 -0.4
v 2.3 3.2 -0.6
v 2.3 3.2 -2.6
v 2.3 3.2 -2.8
v 2.3 3.3 -0.4
v 2.3 3.3 -0.6
v 2.4 1.9 -0.4
v 2.4 1.9 -0.7
v 2.4 1.9 -2.5
v 2.4 1.9 -2.8
v 2.4 2.8 -0.4
v 2.4 2.8 -0.7
v 2.4 2.8 -2.5
v 2.4 2.8 -2.8
v 2.5 0.9 -0.3
v 2.5 0.9 -0.6
v 2.5 0.9 -2.6
v 2.5 0.9 -2.9
v 2.5 1.9 -0.4
v 2.5 1.9 -0.6
v 2.5 1.9 -2.6
v 2.5 1.9 -2.8
v 2.5 2.1 -0.3
v 2.5 2.1 -0.4
v 2.5 2.1 -2.8
v 2.5 2.1 -2.9
v 2.6 0 -0.2
v 2.6 0 -0.5
v 2.6 0 -2.7
v 2.6 0 -3
v 2.6 0.9 -0.3
v 2.6 0.9 -0.5
v 2.6 0.9 -2.7
v 2.6 0.9 -2.9
v 2.6 1.1 -0.2
v 2.6 1.1 -0.3
v 2.6 1.1 -2.9
v 2.6 1.1 -3
v -2.6 0 -0.2
v -2.6 0 -0.5
v -2.6 0 -2.7
v -2.6 0 -3
v -2.6 0.9 -0.3
v -2.6 0.9 -0.5
v -2.6 0.9 -2.7
v -2.6 0.9 -2.9
v -2.6 1.1 -0.2
v -2.6 1.1 -0.3
v -2.6 1.1 -2.9
v -2.6 1.1 -3
v -2.5 0.9 -0.3
v -2.5 0.9 -0.6
v -2.5 0.9 -2.6
v -2.5 0.9 -2.9
v -2.5 1.9 -0.4
v -2.5 1.9 -0.6
v -2.5 1.9 -2.6
v -2.5 1.9 -2.8
v -2.5 2.1 -0.3
v -2.5 2.1 -0.4
v -2.5 2.1 -2.8
v -2.5 2.1 -2.9
v -2.4 1.9 -0.4
v -2.4 1.9 -0.7
v -2.4 1.9 -2.5
v -2.4 1.9 -2.8
v -2.4 2.8 -0.4
v -2.4 2.8 -0.7
v -2.4 2.8 -2.5
v -2.4 2.8 -2.8
v -2.3 2.8 -0.4
v -2.3 2.8 -0.5
v -2.3 2.8 -2.7
v -2.3 2.8 -2.8
v -2.3 3 -0.5
v -2.3 3 -0.6
v -2.3 3 -2.6
v -2.3 3 -2.7
v -2.3 3.2 -0.4
v -2.3 3.2 -0.6
v -2.3 3.2 -2.6
v -2.3 3.2 -2.8
v -2.3 3.3 -0.4
v -2.3 3.3 -0.6
v 2.5 3 -0.4
v 2.5 3 -0.5
v 2.5 3 -0.8
v 2.5 3 -2.4
v 2.5 3 -2.7
v 2.5 3 -2.8
v 2.5 3.2 -0.4
v 2.5 3.2 -0.5
v 2.5 3.2 -0.8
v 2.5 3.2 -2.4
v 2.5 3.2 -2.7
v 2.5 3.2 -2.8
v 2.6 2.8 -0.4
v 2.6 2.8 -0.5
v 2.6 2.8 -0.8
v 2.6 2.8 -2.4
v 2.6 2.8 -2.7
v 2.6 2.8 -2.8
v 2.6 3 -0.4
v 2.6 3 -0.5
v 2.6 3 -0.6
v 2.6 3 -0.8
v 2.6 3 -2.4
v 2.6 3 -2.6
v 2.6 3 -2.7
v 2.6 3 -2.8
v 2.6 3.2 -0.5
v 2.6 3.2 -0.6
v 2.6 3.2 -2.6
v 2.6 3.2 -2.7
v 2.7 1.9 -0.6
v 2.7 1.9 -0.7
v 2.7 1.9 -2.5
v 2.7 1.9 -2.6
v 2.7 2 -0.3
v 2.7 2 -0.4
v 2.7 2 -2.8
v 2.7 2 -2.9
v 2.7 2.1 -0.3
v 2.7 2.1 -0.4
v 2.7 2.1 -0.6
v 2.7 2.1 -2.6
v 2.7 2.1 -2.8
v 2.7 2.1 -2.9
v 2.7 2.8 -0.4
v 2.7 2.8 -0.5
v 2.7 2.8 -0.7
v 2.7 2.8 -0.8
v 2.7 2.8 -2.4
v 2.7 2.8 -2.5
v 2.7 2.8 -2.7
v 2.7 2.8 -2.8
v 2.7 3 -0.5
v 2.7 3 -0.6
v 2.7 3 -2.6
v 2.7 3 -2.7
v 2.7 3.2 -0.6
v 2.7 3.2 -0.8
v 2.7 3.2 -2.4
v 2.7 3.2 -2.6
v 2.8 0.9 -0.5
v 2.8 0.9 -0.6
v 2.8 0.9 -2.6
v 2.8 0.9 -2.7
v 2.8 1 -0.2
v 2.8 1 -0.3
v 2.8 1 -2.9
v 2.8 1 -3
v 2.8 1.1 -0.2
v 2.8 1.1 -0.3
v 2.8 1.1 -0.5
v 2.8 1.1 -2.7
v 2.8 1.1 -2.9
v 2.8 1.1 -3
v 2.8 2 -0.3
v 2.8 2 -0.4
v 2.8 2 -2.8
v 2.8 2 -2.9
v 2.8 2.1 -0.4
v 2.8 2.1 -0.6
v 2.8 2.1 -2.6
v 2.8 2.1 -2.8
v 2.8 3.2 0
v 2.8 3.2 -0.1
v 2.8 3.2 -3.1
v 2.8 3.2 -3.2
v 2.8 3.4 0
v 2.8 3.4 -0.1
v 2.8 3.4 -3.1
v 2.8 3.4 -3.2
v 2.9 0 -0.2
v 2.9 0 -0.5
v 2.9 0 -2.7
v 2.9 0 -3
v 2.9 1 -0.2
v 2.9 1 -0.3
v 2.9 1 -2.9
v 2.9 1 -3
v 2.9 1.1 -0.3
v 2.9 1.1 -0.5
v 2.9 1.1 -2.7
v 2.9 1.1 -2.9
v 3 3.2 -0.1
v 3 3.2 -0.2
v 3 3.2 -3
v 3 3.2 -3.1
v 3 3.4 -0.1
v 3 3.4 -0.2
v 3 3.4 -3
v 3 3.4 -3.1
v 3.1 3.2 -0.2
v 3.1 3.2 -0.4
v 3.1 3.2 -2.8
v 3.1 3.2 -3
v 3.1 3.4 -0.2
v 3.1 3.4 -0.4
v 3.1 3.4 -2.8
v 3.1 3.4 -3
v 3.2 3.2 -0.4
v 3.2 3.2 -2.8
v 3.2 3.4 -0.4
v 3.2 3.4 -2.8
v -2.8 3.2 0
v -2.8 3.4 0
v 2.8 3.2 0
v 2.8 3.4 0
v -3 3.2 -0.1
v -3 3.4 -0.1
v -2.8 3.2 -0.1
v -2.8 3.4 -0.1
v 2.8 3.2 -0.1
v 2.8 3.4 -0.1
v 3 3.2 -0.1
v 3 3.4 -0.1
v -3.1 3.2 -0.2
v -3.1 3.4 -0.2
v -3 3.2 -0.2
v -3 3.4 -0.2
v -2.9 0 -0.2
v -2.9 1 -0.2
v -2.8 1 -0.2
v -2.8 1.1 -0.2
v -2.6 0 -0.2
v -2.6 1.1 -0.2
v 2.6 0 -0.2
v 2.6 1.1 -0.2
v 2.8 1 -0.2
v 2.8 1.1 -0.2
v 2.9 0 -0.2
v 2.9 1 -0.2
v 3 3.2 -0.2
v 3 3.4 -0.2
v 3.1 3.2 -0.2
v 3.1 3.4 -0.2
v -2.9 1 -0.3
v -2.9 1.1 -0.3
v -2.8 1 -0.3
v -2.8 1.1 -0.3
v -2.8 2 -0.3
v -2.7 2 -0.3
v -2.7 2.1 -0.3
v -2.6 0.9 -0.3
v -2.6 1.1 -0.3
v -2.5 0.9 -0.3
v -2.5 2.1 -0.3
v 2.5 0.9 -0.3
v 2.5 2.1 -0.3
v 2.6 0.9 -0.3
v 2.6 1.1 -0.3
v 2.7 2 -0.3
v 2.7 2.1 -0.3
v 2.8 1 -0.3
v 2.8 1.1 -0.3
v 2.8 2 -0.3
v 2.9 1 -0.3
v 2.9 1.1 -0.3
v -3.2 3.2 -0.4
v -3.2 3.4 -0.4
v -3.1 3.2 -0.4
v -3.1 3.4 -0.4
v -2.8 2 -0.4
v -2.8 2.1 -0.4
v -2.7 2 -0.4
v -2.7 2.1 -0.4
v -2.7 2.8 -0.4
v -2.6 2.8 -0.4
v -2.6 3 -0.4
v -2.5 1.9 -0.4
v -2.5 2.1 -0.4
v -2.5 3 -0.4
v -2.5 3.2 -0.4
v -2.4 1.9 -0.4
v -2.4 2.8 -0.4
v -2.3 2.8 -0.4
v -2.3 3.2 -0.4
v 2.3 2.8 -0.4
v 2.3 3.2 -0.4
v 2.4 1.9 -0.4
v 2.4 2.8 -0.4
v 2.5 1.9 -0.4
v 2.5 2.1 -0.4
v 2.5 3 -0.4
v 2.5 3.2 -0.4
v 2.6 2.8 -0.4
v 2.6 3 -0.4
v 2.7 2 -0.4
v 2.7 2.1 -0.4
v 2.7 2.8 -0.4
v 2.8 2 -0.4
v 2.8 2.1 -0.4
v 3.1 3.2 -0.4
v 3.1 3.4 -0.4
v 3.2 3.2 -0.4
v 3.2 3.4 -0.4
v -2.7 2.8 -0.5
v -2.7 3 -0.5
v -2.6 2.8 -0.5
v -2.6 3 -0.5
v -2.6 3.2 -0.5
v -2.5 3 -0.5
v -2.5 3.2 -0.5
v -2.3 2.8 -0.5
v -2.3 3 -0.5
v 2.3 2.8 -0.5
v 2.3 3 -0.5
v 2.5 3 -0.5
v 2.5 3.2 -0.5
v 2.6 2.8 -0.5
v 2.6 3 -0.5
v 2.6 3.2 -0.5
v 2.7 2.8 -0.5
v 2.7 3 -0.5
v -2.7 3 -0.6
v -2.7 3.2 -0.6
v -2.6 3 -0.6
v -2.6 3.2 -0.6
v -2.3 3 -0.6
v -2.3 3.2 -0.6
v -2.3 3.3 -0.6
v 2.3 3 -0.6
v 2.3 3.2 -0.6
v 2.3 3.3 -0.6
v 2.6 3 -0.6
v 2.6 3.2 -0.6
v 2.7 3 -0.6
v 2.7 3.2 -0.6
v -2.7 2.8 -2.4
v -2.7 3.2 -2.4
v -2.6 2.8 -2.4
v -2.6 3 -2.4
v -2.5 3 -2.4
v -2.5 3.2 -2.4
v 2.5 3 -2.4
v 2.5 3.2 -2.4
v 2.6 2.8 -2.4
v 2.6 3 -2.4
v 2.7 2.8 -2.4
v 2.7 3.2 -2.4
v -2.7 1.9 -2.5
v -2.7 2.8 -2.5
v -2.4 1.9 -2.5
v -2.4 2.8 -2.5
v 2.4 1.9 -2.5
v 2.4 2.8 -2.5
v 2.7 1.9 -2.5
v 2.7 2.8 -2.5
v -2.8 0.9 -2.6
v -2.8 2.1 -2.6
v -2.7 1.9 -2.6
v -2.7 2.1 -2.6
v -2.5 0.9 -2.6
v -2.5 1.9 -2.6
v 2.5 0.9 -2.6
v 2.5 1.9 -2.6
v 2.7 1.9 -2.6
v 2.7 2.1 -2.6
v 2.8 0.9 -2.6
v 2.8 2.1 -2.6
v -2.9 0 -2.7
v -2.9 1.1 -2.7
v -2.8 0.9 -2.7
v -2.8 1.1 -2.7
v -2.6 0 -2.7
v -2.6 0.9 -2.7
v 2.6 0 -2.7
v 2.6 0.9 -2.7
v 2.8 0.9 -2.7
v 2.8 1.1 -2.7
v 2.9 0 -2.7
v 2.9 1.1 -2.7
v -2.3 3.2 -0.4
v -2.3 3.3 -0.4
v 2.3 3.2 -0.4
v 2.3 3.3 -0.4
v -2.9 0 -0.5
v -2.9 1.1 -0.5
v -2.8 0.9 -0.5
v -2.8 1.1 -0.5
v -2.6 0 -0.5
v -2.6 0.9 -0.5
v 2.6 0 -0.5
v 2.6 0.9 -0.5
v 2.8 0.9 -0.5
v 2.8 1.1 -0.5
v 2.9 0 -0.5
v 2.9 1.1 -0.5
v -2.8 0.9 -0.6
v -2.8 2.1 -0.6
v -2.7 1.9 -0.6
v -2.7 2.1 -0.6
v -2.5 0.9 -0.6
v -2.5 1.9 -0.6
v 2.5 0.9 -0.6
v 2.5 1.9 -0.6
v 2.7 1.9 -0.6
v 2.7 2.1 -0.6
v 2.8 0.9 -0.6
v 2.8 2.1 -0.6
v -2.7 1.9 -0.7
v -2.7 2.8 -0.7
v -2.4 1.9 -0.7
v -2.4 2.8 -0.7
v 2.4 1.9 -0.7
v 2.4 2.8 -0.7
v 2.7 1.9 -0.7
v 2.7 2.8 -0.7
v -2.7 2.8 -0.8
v -2.7 3.2 -0.8
v -2.6 2.8 -0.8
v -2.6 3 -0.8
v -2.5 3 -0.8
v -2.5 3.2 -0.8
v 2.5 3 -0.8
v 2.5 3.2 -0.8
v 2.6 2.8 -0.8
v 2.6 3 -0.8
v 2.7 2.8 -0.8
v 2.7 3.2 -0.8
v -2.7 3 -2.6
v -2.7 3.2 -2.6
v -2.6 3 -2.6
v -2.6 3.2 -2.6
v -2.3 3 -2.6
v -2.3 3.2 -2.6
v 2.3 3 -2.6
v 2.3 3.2 -2.6
v 2.6 3 -2.6
v 2.6 3.2 -2.6
v 2.7 3 -2.6
v 2.7 3.2 -2.6
v -2.7 2.8 -2.7
v -2.7 3 -2.7
v -2.6 2.8 -2.7
v -2.6 3 -2.7
v -2.6 3.2 -2.7
v -2.5 3 -2.7
v -2.5 3.2 -2.7
v -2.3 2.8 -2.7
v -2.3 3 -2.7
v 2.3 2.8 -2.7
v 2.3 3 -2.7
v 2.5 3 -2.7
v 2.5 3.2 -2.7
v 2.6 2.8 -2.7
v 2.6 3 -2.7
v 2.6 3.2 -2.7
v 2.7 2.8 -2.7
v 2.7 3 -2.7
v -3.2 3.2 -2.8
v -3.2 3.4 -2.8
v -3.1 3.2 -2.8
v -3.1 3.4 -2.8
v -2.8 2 -2.8
v -2.8 2.1 -2.8
v -2.7 2 -2.8
v -2.7 2.1 -2.8
v -2.7 2.8 -2.8
v -2.6 2.8 -2.8
v -2.6 3 -2.8
v -2.5 1.9 -2.8
v -2.5 2.1 -2.8
v -2.5 3 -2.8
v -2.5 3.2 -2.8
v -2.4 1.9 -2.8
v -2.4 2.8 -2.8
v -2.3 2.8 -2.8
v -2.3 3.2 -2.8
v 2.3 2.8 -2.8
v 2.3 3.2 -2.8
v 2.4 1.9 -2.8
v 2.4 2.8 -2.8
v 2.5 1.9 -2.8
v 2.5 2.1 -2.8
v 2.5 3 -2.8
v 2.5 3.2 -2.8
v 2.6 2.8 -2.8
v 2.6 3 -2.8
v 2.7 2 -2.8
v 2.7 2.1 -2.8
v 2.7 2.8 -2.8
v 2.8 2 -2.8
v 2.8 2.1 -2.8
v 3.1 3.2 -2.8
v 3.1 3.4 -2.8
v 3.2 3.2 -2.8
v 3.2 3.4 -2.8
v -2.9 1 -2.9
v -2.9 1.1 -2.9
v -2.8 1 -2.9
v -2.8 1.1 -2.9
v -2.8 2 -2.9
v -2.7 2 -2.9
v -2.7 2.1 -2.9
v -2.6 0.9 -2.9
v -2.6 1.1 -2.9
v -2.5 0.9 -2.9
v -2.5 2.1 -2.9
v 2.5 0.9 -2.9
v 2.5 2.1 -2.9
v 2.6 0.9 -2.9
v 2.6 1.1 -2.9
v 2.7 2 -2.9
v 2.7 2.1 -2.9
v 2.8 1 -2.9
v 2.8 1.1 -2.9
v 2.8 2 -2.9
v 2.9 1 -2.9
v 2.9 1.1 -2.9
v -3.1 3.2 -3
v -3.1 3.4 -3
v -3 3.2 -3
v -3 3.4 -3
v -2.9 0 -3
v -2.9 1 -3
v -2.8 1 -3
v -2.8 1.1 -3
v -2.6 0 -3
v -2.6 1.1 -3
v 2.6 0 -3
v 2.6 1.1 -3
v 2.8 1 -3
v 2.8 1.1 -3
v 2.9 0 -3
v 2.9 1 -3
v 3 3.2 -3
v 3 3.4 -3
v 3.1 3.2 -3
v 3.1 3.4 -3
v -3 3.2 -3.1
v -3 3.4 -3.1
v -2.8 3.2 -3.1
v -2.8 3.4 -3.1
v 2.8 3.2 -3.1
v 2.8 3.4 -3.1
v 3 3.2 -3.1
v 3 3.4 -3.1
v -2.8 3.2 -3.2
v -2.8 3.4 -3.2
v 2.8 3.2 -3.2
v 2.8 3.4 -3.2
v -2.9 0 -0.2
v -2.6 0 -0.2
v 2.6 0 -0.2
v 2.9 0 -0.2
v -2.9 0 -0.5
v -2.6 0 -0.5
v 2.6 0 -0.5
v 2.9 0 -0.5
v -2.9 0 -2.7
v -2.6 0 -2.7
v 2.6 0 -2.7
v 2.9 0 -2.7
v -2.9 0 -3
v -2.6 0 -3
v 2.6 0 -3
v 2.9 0 -3
v -2.6 0.9 -0.3
v -2.5 0.9 -0.3
v 2.5 0.9 -0.3
v 2.6 0.9 -0.3
v -2.8 0.9 -0.5
v -2.6 0.9 -0.5
v 2.6 0.9 -0.5
v 2.8 0.9 -0.5
v -2.8 0.9 -0.6
v -2.5 0.9 -0.6
v 2.5 0.9 -0.6
v 2.8 0.9 -0.6
v -2.8 0.9 -2.6
v -2.5 0.9 -2.6
v 2.5 0.9 -2.6
v 2.8 0.9 -2.6
v -2.8 0.9 -2.7
v -2.6 0.9 -2.7
v 2.6 0.9 -2.7
v 2.8 0.9 -2.7
v -2.6 0.9 -2.9
v -2.5 0.9 -2.9
v 2.5 0.9 -2.9
v 2.6 0.9 -2.9
v -2.5 1.9 -0.4
v -2.4 1.9 -0.4
v 2.4 1.9 -0.4
v 2.5 1.9 -0.4
v -2.7 1.9 -0.6
v -2.5 1.9 -0.6
v 2.5 1.9 -0.6
v 2.7 1.9 -0.6
v -2.7 1.9 -0.7
v -2.4 1.9 -0.7
v 2.4 1.9 -0.7
v 2.7 1.9 -0.7
v -2.7 1.9 -2.5
v -2.4 1.9 -2.5
v 2.4 1.9 -2.5
v 2.7 1.9 -2.5
v -2.7 1.9 -2.6
v -2.5 1.9 -2.6
v 2.5 1.9 -2.6
v 2.7 1.9 -2.6
v -2.5 1.9 -2.8
v -2.4 1.9 -2.8
v 2.4 1.9 -2.8
v 2.5 1.9 -2.8
v -2.4 2.8 -0.4
v -2.3 2.8 -0.4
v 2.3 2.8 -0.4
v 2.4 2.8 -0.4
v -2.3 2.8 -0.5
v 2.3 2.8 -0.5
v -2.7 2.8 -0.7
v -2.4 2.8 -0.7
v 2.4 2.8 -0.7
v 2.7 2.8 -0.7
v -2.7 2.8 -0.8
v -2.6 2.8 -0.8
v 2.6 2.8 -0.8
v 2.7 2.8 -0.8
v -2.7 2.8 -2.4
v -2.6 2.8 -2.4
v 2.6 2.8 -2.4
v 2.7 2.8 -2.4
v -2.7 2.8 -2.5
v -2.4 2.8 -2.5
v 2.4 2.8 -2.5
v 2.7 2.8 -2.5
v -2.3 2.8 -2.7
v 2.3 2.8 -2.7
v -2.4 2.8 -2.8
v -2.3 2.8 -2.8
v 2.3 2.8 -2.8
v 2.4 2.8 -2.8
v -2.8 3.2 0
v 2.8 3.2 0
v -3 3.2 -0.1
v -2.8 3.2 -0.1
v 2.8 3.2 -0.1
v 3 3.2 -0.1
v -3.1 3.2 -0.2
v -3 3.2 -0.2
v 3 3.2 -0.2
v 3.1 3.2 -0.2
v -3.2 3.2 -0.4
v -3.1 3.2 -0.4
v -2.5 3.2 -0.4
v -2.3 3.2 -0.4
v 2.3 3.2 -0.4
v 2.5 3.2 -0.4
v 3.1 3.2 -0.4
v 3.2 3.2 -0.4
v -2.6 3.2 -0.5
v -2.5 3.2 -0.5
v 2.5 3.2 -0.5
v 2.6 3.2 -0.5
v -2.7 3.2 -0.6
v -2.6 3.2 -0.6
v 2.6 3.2 -0.6
v 2.7 3.2 -0.6
v -2.7 3.2 -0.8
v -2.5 3.2 -0.8
v 2.5 3.2 -0.8
v 2.7 3.2 -0.8
v -2.7 3.2 -2.4
v -2.5 3.2 -2.4
v 2.5 3.2 -2.4
v 2.7 3.2 -2.4
v -2.7 3.2 -2.6
v -2.6 3.2 -2.6
v -2.3 3.2 -2.6
v 2.3 3.2 -2.6
v 2.6 3.2 -2.6
v 2.7 3.2 -2.6
v -2.6 3.2 -2.7
v -2.5 3.2 -2.7
v 2.5 3.2 -2.7
v 2.6 3.2 -2.7
v -3.2 3.2 -2.8
v -3.1 3.2 -2.8
v -2.5 3.2 -2.8
v -2.3 3.2 -2.8
v 2.3 3.2 -2.8
v 2.5 3.2 -2.8
v 3.1 3.2 -2.8
v 3.2 3.2 -2.8
v -3.1 3.2 -3
v -3 3.2 -3
v 3 3.2 -3
v 3.1 3.2 -3
v -3 3.2 -3.1
v -2.8 3.2 -3.1
v 2.8 3.2 -3.1
v 3 3.2 -3.1
v -2.8 3.2 -3.2
v 2.8 3.2 -3.2
v -2.3 3.3 -0.4
v 2.3 3.3 -0.4
v -2.3 3.3 -0.6
v 2.3 3.3 -0.6
v -2.9 1 -0.2
v -2.8 1 -0.2
v 2.8 1 -0.2
v 2.9 1 -0.2
v -2.9 1 -0.3
v -2.8 1 -0.3
v 2.8 1 -0.3
v 2.9 1 -0.3
v -2.9 1 -2.9
v -2.8 1 -2.9
v 2.8 1 -2.9
v 2.9 1 -2.9
v -2.9 1 -3
v -2.8 1 -3
v 2.8 1 -3
v 2.9 1 -3
v -2.8 1.1 -0.2
v -2.6 1.1 -0.2
v 2.6 1.1 -0.2
v 2.8 1.1 -0.2
v -2.9 1.1 -0.3
v -2.8 1.1 -0.3
v -2.6 1.1 -0.3
v 2.6 1.1 -0.3
v 2.8 1.1 -0.3
v 2.9 1.1 -0.3
v -2.9 1.1 -0.5
v -2.8 1.1 -0.5
v 2.8 1.1 -0.5
v 2.9 1.1 -0.5
v -2.9 1.1 -2.7
v -2.8 1.1 -2.7
v 2.8 1.1 -2.7
v 2.9 1.1 -2.7
v -2.9 1.1 -2.9
v -2.8 1.1 -2.9
v -2.6 1.1 -2.9
v 2.6 1.1 -2.9
v 2.8 1.1 -2.9
v 2.9 1.1 -2.9
v -2.8 1.1 -3
v -2.6 1.1 -3
v 2.6 1.1 -3
v 2.8 1.1 -3
v -2.8 2 -0.3
v -2.7 2 -0.3
v 2.7 2 -0.3
v 2.8 2 -0.3
v -2.8 2 -0.4
v -2.7 2 -0.4
v 2.7 2 -0.4
v 2.8 2 -0.4
v -2.8 2 -2.8
v -2.7 2 -2.8
v 2.7 2 -2.8
v 2.8 2 -2.8
v -2.8 2 -2.9
v -2.7 2 -2.9
v 2.7 2 -2.9
v 2.8 2 -2.9
v -2.7 2.1 -0.3
v -2.5 2.1 -0.3
v 2.5 2.1 -0.3
v 2.7 2.1 -0.3
v -2.8 2.1 -0.4
v -2.7 2.1 -0.4
v -2.5 2.1 -0.4
v 2.5 2.1 -0.4
v 2.7 2.1 -0.4
v 2.8 2.1 -0.4
v -2.8 2.1 -0.6
v -2.7 2.1 -0.6
v 2.7 2.1 -0.6
v 2.8 2.1 -0.6
v -2.8 2.1 -2.6
v -2.7 2.1 -2.6
v 2.7 2.1 -2.6
v 2.8 2.1 -2.6
v -2.8 2.1 -2.8
v -2.7 2.1 -2.8
v -2.5 2.1 -2.8
v 2.5 2.1 -2.8
v 2.7 2.1 -2.8
v 2.8 2.1 -2.8
v -2.7 2.1 -2.9
v -2.5 2.1 -2.9
v 2.5 2.1 -2.9
v 2.7 2.1 -2.9
v -2.7 2.8 -0.4
v -2.6 2.8 -0.4
v 2.6 2.8 -0.4
v 2.7 2.8 -0.4
v -2.7 2.8 -0.5
v -2.6 2.8 -0.5
v 2.6 2.8 -0.5
v 2.7 2.8 -0.5
v -2.7 2.8 -2.7
v -2.6 2.8 -2.7
v 2.6 2.8 -2.7
v 2.7 2.8 -2.7
v -2.7 2.8 -2.8
v -2.6 2.8 -2.8
v 2.6 2.8 -2.8
v 2.7 2.8 -2.8
v -2.6 3 -0.4
v -2.5 3 -0.4
v 2.5 3 -0.4
v 2.6 3 -0.4
v -2.7 3 -0.5
v -2.6 3 -0.5
v -2.5 3 -0.5
v -2.3 3 -0.5
v 2.3 3 -0.5
v 2.5 3 -0.5
v 2.6 3 -0.5
v 2.7 3 -0.5
v -2.7 3 -0.6
v -2.6 3 -0.6
v -2.3 3 -0.6
v 2.3 3 -0.6
v 2.6 3 -0.6
v 2.7 3 -0.6
v -2.6 3 -0.8
v -2.5 3 -0.8
v 2.5 3 -0.8
v 2.6 3 -0.8
v -2.6 3 -2.4
v -2.5 3 -2.4
v 2.5 3 -2.4
v 2.6 3 -2.4
v -2.7 3 -2.6
v -2.6 3 -2.6
v -2.3 3 -2.6
v 2.3 3 -2.6
v 2.6 3 -2.6
v 2.7 3 -2.6
v -2.7 3 -2.7
v -2.6 3 -2.7
v -2.5 3 -2.7
v -2.3 3 -2.7
v 2.3 3 -2.7
v 2.5 3 -2.7
v 2.6 3 -2.7
v 2.7 3 -2.7
v -2.6 3 -2.8
v -2.5 3 -2.8
v 2.5 3 -2.8
v 2.6 3 -2.8
v -2.8 3.4 0
v 2.8 3.4 0
v -3 3.4 -0.1
v -2.8 3.4 -0.1
v 2.8 3.4 -0.1
v 3 3.4 -0.1
v -3.1 3.4 -0.2
v -3 3.4 -0.2
v 3 3.4 -0.2
v 3.1 3.4 -0.2
v -3.2 3.4 -0.4
v -3.1 3.4 -0.4
v 3.1 3.4 -0.4
v 3.2 3.4 -0.4
v -3.2 3.4 -2.8
v -3.1 3.4 -2.8
v 3.1 3.4 -2.8
v 3.2 3.4 -2.8
v -3.1 3.4 -3
v -3 3.4 -3
v 3 3.4 -3
v 3.1 3.4 -3
v -3 3.4 -3.1
v -2.8 3.4 -3.1
v 2.8 3.4 -3.1
v 3 3.4 -3.1
v -2.8 3.4 -3.2
v 2.8 3.4 -3.2

# faces
f 3/1/1 2/1/1 1/1/1
f 4/1/1 2/1/1 3/1/1
f 9/1/1 6/1/1 5/1/1
f 10/1/1 6/1/1 9/1/1
f 11/1/1 8/1/1 7/1/1
f 12/1/1 8/1/1 11/1/1
f 17/1/1 14/1/1 13/1/1
f 18/1/1 14/1/1 17/1/1
f 19/1/1 16/1/1 15/1/1
f 20/1/1 16/1/1 19/1/1
f 25/2/1 22/2/1 21/2/1
f 26/2/1 22/2/1 25/2/1
f 27/2/1 24/2/1 23/2/1
f 28/2/1 24/2/1 27/2/1
f 29/2/1 22/2/1 26/2/1
f 30/2/1 22/2/1 29/2/1
f 31/2/1 27/2/1 23/2/1
f 32/2/1 27/2/1 31/2/1
f 41/2/1 38/2/1 37/2/1
f 42/2/1 38/2/1 41/2/1
f 43/2/1 34/2/1 33/2/1
f 44/2/1 36/2/1 35/2/1
f 45/2/1 40/2/1 39/2/1
f 46/2/1 40/2/1 45/2/1
f 47/2/1 43/2/1 42/2/1
f 48/2/1 43/2/1 47/2/1
f 49/2/1 45/2/1 44/2/1
f 50/2/1 45/2/1 49/2/1
f 51/2/1 43/2/1 48/2/1
f 52/2/1 34/2/1 43/2/1
f 52/2/1 43/2/1 51/2/1
f 53/2/1 44/2/1 35/2/1
f 53/2/1 49/2/1 44/2/1
f 54/2/1 49/2/1 53/2/1
f 59/1/1 56/1/1 55/1/1
f 60/1/1 56/1/1 59/1/1
f 61/1/1 58/1/1 57/1/1
f 62/1/1 58/1/1 61/1/1
f 71/2/1 68/2/1 67/2/1
f 72/2/1 68/2/1 71/2/1
f 73/2/1 64/2/1 63/2/1
f 74/2/1 66/2/1 65/2/1
f 75/2/1 70/2/1 69/2/1
f 76/2/1 70/2/1 75/2/1
f 77/2/1 73/2/1 72/2/1
f 78/2/1 73/2/1 77/2/1
f 79/2/1 64/2/1 73/2/1
f 79/2/1 73/2/1 78/2/1
f 82/2/1 75/2/1 74/2/1
f 82/2/1 74/2/1 65/2/1
f 83/2/1 75/2/1 82/2/1
f 84/2/1 75/2/1 83/2/1
f 85/2/1 80/2/1 79/2/1
f 85/2/1 79/2/1 78/2/1
f 86/2/1 80/2/1 85/2/1
f 87/2/1 83/2/1 82/2/1
f 87/2/1 82/2/1 81/2/1
f 88/2/1 83/2/1 87/2/1
f 89/2/1 80/2/1 86/2/1
f 90/2/1 80/2/1 89/2/1
f 91/2/1 87/2/1 81/2/1
f 92/2/1 87/2/1 91/2/1
f 99/2/1 94/2/1 93/2/1
f 100/2/1 94/2/1 99/2/1
f 102/2/1 96/2/1 95/2/1
f 103/2/1 96/2/1 102/2/1
f 105/2/1 98/2/1 97/2/1
f 106/2/1 98/2/1 105/2/1
f 107/2/1 101/2/1 100/2/1
f 108/2/1 101/2/1 107/2/1
f 109/2/1 105/2/1 104/2/1
f 110/2/1 105/2/1 109/2/1
f 117/2/1 112/2/1 111/2/1
f 118/2/1 112/2/1 117/2/1
f 119/2/1 114/2/1 113/2/1
f 120/2/1 114/2/1 119/2/1
f 121/2/1 116/2/1 115/2/1
f 122/2/1 116/2/1 121/2/1
f 127/2/1 124/2/1 123/2/1
f 130/2/1 126/2/1 125/2/1
f 131/2/1 128/2/1 127/2/1
f 131/2/1 127/2/1 123/2/1
f 132/2/1 128/2/1 131/2/1
f 133/2/1 130/2/1 129/2/1
f 134/2/1 126/2/1 130/2/1
f 134/2/1 130/2/1 133/2/1
f 135/1/1 132/1/1 131/1/1
f 136/1/1 132/1/1 135/1/1
f 141/2/1 138/2/1 137/2/1
f 142/2/1 138/2/1 141/2/1
f 143/2/1 140/2/1 139/2/1
f 144/2/1 140/2/1 143/2/1
f 149/2/1 146/2/1 145/2/1
f 150/2/1 146/2/1 149/2/1
f 151/2/1 148/2/1 147/2/1
f 152/2/1 148/2/1 151/2/1
f 153/2/1 149/2/1 145/2/1
f 154/2/1 149/2/1 153/2/1
f 155/2/1 148/2/1 152/2/1
f 156/2/1 148/2/1 155/2/1
f 161/2/1 158/2/1 157/2/1
f 162/2/1 158/2/1 161/2/1
f 163/2/1 160/2/1 159/2/1
f 164/2/1 160/2/1 163/2/1
f 165/2/1 161/2/1 157/2/1
f 166/2/1 161/2/1 165/2/1
f 167/2/1 160/2/1 164/2/1
f 168/2/1 160/2/1 167/2/1
f 169/2/2 170/2/2 173/2/2
f 173/2/2 170/2/2 174/2/2
f 171/2/2 172/2/2 175/2/2
f 175/2/2 172/2/2 176/2/2
f 169/2/2 173/2/2 177/2/2
f 177/2/2 173/2/2 178/2/2
f 176/2/2 172/2/2 179/2/2
f 179/2/2 172/2/2 180/2/2
f 181/2/2 182/2/2 185/2/2
f 185/2/2 182/2/2 186/2/2
f 183/2/2 184/2/2 187/2/2
f 187/2/2 184/2/2 188/2/2
f 181/2/2 185/2/2 189/2/2
f 189/2/2 185/2/2 190/2/2
f 188/2/2 184/2/2 191/2/2
f 191/2/2 184/2/2 192/2/2
f 193/2/2 194/2/2 197/2/2
f 197/2/2 194/2/2 198/2/2
f 195/2/2 196/2/2 199/2/2
f 199/2/2 196/2/2 200/2/2
f 201/2/2 202/2/2 205/2/2
f 203/2/2 204/2/2 208/2/2
f 205/2/2 206/2/2 209/2/2
f 201/2/2 205/2/2 209/2/2
f 209/2/2 206/2/2 210/2/2
f 207/2/2 208/2/2 211/2/2
f 208/2/2 204/2/2 212/2/2
f 211/2/2 208/2/2 212/2/2
f 209/1/2 210/1/2 213/1/2
f 213/1/2 210/1/2 214/1/2
f 215/2/2 216/2/2 221/2/2
f 221/2/2 216/2/2 222/2/2
f 217/2/2 218/2/2 223/2/2
f 223/2/2 218/2/2 224/2/2
f 219/2/2 220/2/2 225/2/2
f 225/2/2 220/2/2 226/2/2
f 227/2/2 228/2/2 233/2/2
f 233/2/2 228/2/2 234/2/2
f 229/2/2 230/2/2 236/2/2
f 236/2/2 230/2/2 237/2/2
f 231/2/2 232/2/2 239/2/2
f 239/2/2 232/2/2 240/2/2
f 234/2/2 235/2/2 241/2/2
f 241/2/2 235/2/2 242/2/2
f 238/2/2 239/2/2 243/2/2
f 243/2/2 239/2/2 244/2/2
f 249/2/2 250/2/2 253/2/2
f 253/2/2 250/2/2 254/2/2
f 245/2/2 246/2/2 255/2/2
f 247/2/2 248/2/2 256/2/2
f 251/2/2 252/2/2 257/2/2
f 257/2/2 252/2/2 258/2/2
f 254/2/2 255/2/2 259/2/2
f 259/2/2 255/2/2 260/2/2
f 255/2/2 246/2/2 261/2/2
f 260/2/2 255/2/2 261/2/2
f 256/2/2 257/2/2 264/2/2
f 247/2/2 256/2/2 264/2/2
f 264/2/2 257/2/2 265/2/2
f 265/2/2 257/2/2 266/2/2
f 261/2/2 262/2/2 267/2/2
f 260/2/2 261/2/2 267/2/2
f 267/2/2 262/2/2 268/2/2
f 264/2/2 265/2/2 269/2/2
f 263/2/2 264/2/2 269/2/2
f 269/2/2 265/2/2 270/2/2
f 268/2/2 262/2/2 271/2/2
f 271/2/2 262/2/2 272/2/2
f 263/2/2 269/2/2 273/2/2
f 273/2/2 269/2/2 274/2/2
f 279/2/2 280/2/2 283/2/2
f 283/2/2 280/2/2 284/2/2
f 275/2/2 276/2/2 285/2/2
f 277/2/2 278/2/2 286/2/2
f 281/2/2 282/2/2 287/2/2
f 287/2/2 282/2/2 288/2/2
f 284/2/2 285/2/2 289/2/2
f 289/2/2 285/2/2 290/2/2
f 286/2/2 287/2/2 291/2/2
f 291/2/2 287/2/2 292/2/2
f 290/2/2 285/2/2 293/2/2
f 285/2/2 276/2/2 294/2/2
f 293/2/2 285/2/2 294/2/2
f 277/2/2 286/2/2 295/2/2
f 286/2/2 291/2/2 295/2/2
f 295/2/2 291/2/2 296/2/2
f 297/1/2 298/1/2 301/1/2
f 301/1/2 298/1/2 302/1/2
f 299/1/2 300/1/2 303/1/2
f 303/1/2 300/1/2 304/1/2
f 305/2/2 306/2/2 309/2/2
f 309/2/2 306/2/2 310/2/2
f 307/2/2 308/2/2 311/2/2
f 311/2/2 308/2/2 312/2/2
f 310/2/2 306/2/2 313/2/2
f 313/2/2 306/2/2 314/2/2
f 307/2/2 311/2/2 315/2/2
f 315/2/2 311/2/2 316/2/2
f 317/1/2 318/1/2 321/1/2
f 321/1/2 318/1/2 322/1/2
f 319/1/2 320/1/2 323/1/2
f 323/1/2 320/1/2 324/1/2
f 325/1/2 326/1/2 329/1/2
f 329/1/2 326/1/2 330/1/2
f 327/1/2 328/1/2 331/1/2
f 331/1/2 328/1/2 332/1/2
f 333/1/2 334/1/2 335/1/2
f 335/1/2 334/1/2 336/1/2
f 339/1/3 338/1/3 337/1/3
f 340/1/3 338/1/3 339/1/3
f 343/1/3 342/1/3 341/1/3
f 344/1/3 342/1/3 343/1/3
f 347/1/3 346/1/3 345/1/3
f 348/1/3 346/1/3 347/1/3
f 351/1/3 350/1/3 349/1/3
f 352/1/3 350/1/3 351/1/3
f 355/2/3 354/2/3 353/2/3
f 357/2/3 355/2/3 353/2/3
f 357/2/3 356/2/3 355/2/3
f 358/2/3 356/2/3 357/2/3
f 361/2/3 360/2/3 359/2/3
f 362/2/3 360/2/3 361/2/3
f 363/2/3 361/2/3 359/2/3
f 364/2/3 361/2/3 363/2/3
f 367/1/3 366/1/3 365/1/3
f 368/1/3 366/1/3 367/1/3
f 371/2/3 370/2/3 369/2/3
f 372/2/3 370/2/3 371/2/3
f 374/2/3 373/2/3 372/2/3
f 377/2/3 374/2/3 372/2/3
f 377/2/3 375/2/3 374/2/3
f 378/2/3 377/2/3 376/2/3
f 379/2/3 375/2/3 377/2/3
f 379/2/3 377/2/3 378/2/3
f 382/2/3 381/2/3 380/2/3
f 383/2/3 381/2/3 382/2/3
f 384/2/3 381/2/3 383/2/3
f 385/2/3 381/2/3 384/2/3
f 387/2/3 384/2/3 383/2/3
f 388/2/3 384/2/3 387/2/3
f 389/2/3 387/2/3 386/2/3
f 390/2/3 387/2/3 389/2/3
f 393/1/3 392/1/3 391/1/3
f 394/1/3 392/1/3 393/1/3
f 397/2/3 396/2/3 395/2/3
f 398/2/3 396/2/3 397/2/3
f 400/2/3 399/2/3 398/2/3
f 403/2/3 400/2/3 398/2/3
f 403/2/3 401/2/3 400/2/3
f 404/2/3 401/2/3 403/2/3
f 406/2/3 403/2/3 402/2/3
f 406/2/3 405/2/3 404/2/3
f 406/2/3 404/2/3 403/2/3
f 407/2/3 405/2/3 406/2/3
f 408/2/3 405/2/3 407/2/3
f 409/2/3 405/2/3 408/2/3
f 413/2/3 411/2/3 410/2/3
f 414/2/3 413/2/3 412/2/3
f 415/2/3 413/2/3 414/2/3
f 416/2/3 411/2/3 413/2/3
f 416/2/3 413/2/3 415/2/3
f 417/2/3 411/2/3 416/2/3
f 418/2/3 416/2/3 415/2/3
f 419/2/3 416/2/3 418/2/3
f 421/2/3 418/2/3 415/2/3
f 422/2/3 418/2/3 421/2/3
f 423/2/3 421/2/3 420/2/3
f 424/2/3 421/2/3 423/2/3
f 427/1/3 426/1/3 425/1/3
f 428/1/3 426/1/3 427/1/3
f 431/2/3 430/2/3 429/2/3
f 432/2/3 430/2/3 431/2/3
f 434/2/3 433/2/3 432/2/3
f 435/2/3 433/2/3 434/2/3
f 438/2/3 437/2/3 436/2/3
f 439/2/3 437/2/3 438/2/3
f 443/2/3 441/2/3 440/2/3
f 444/2/3 441/2/3 443/2/3
f 445/2/3 443/2/3 442/2/3
f 446/2/3 443/2/3 445/2/3
f 449/2/3 448/2/3 447/2/3
f 450/2/3 448/2/3 449/2/3
f 454/2/3 452/2/3 451/2/3
f 455/1/3 453/1/3 452/1/3
f 455/2/3 452/2/3 454/2/3
f 456/1/3 453/1/3 455/1/3
f 459/2/3 458/2/3 457/2/3
f 460/2/3 458/2/3 459/2/3
f 463/2/3 462/2/3 461/2/3
f 464/2/3 462/2/3 463/2/3
f 465/2/3 462/2/3 464/2/3
f 466/2/3 462/2/3 465/2/3
f 470/2/3 468/2/3 467/2/3
f 471/2/3 470/2/3 469/2/3
f 472/2/3 468/2/3 470/2/3
f 472/2/3 470/2/3 471/2/3
f 475/2/3 474/2/3 473/2/3
f 476/2/3 474/2/3 475/2/3
f 479/2/3 478/2/3 477/2/3
f 480/2/3 478/2/3 479/2/3
f 483/2/3 482/2/3 481/2/3
f 484/2/3 482/2/3 483/2/3
f 485/2/3 483/2/3 481/2/3
f 486/2/3 483/2/3 485/2/3
f 489/2/3 488/2/3 487/2/3
f 491/2/3 489/2/3 487/2/3
f 491/2/3 490/2/3 489/2/3
f 492/2/3 490/2/3 491/2/3
f 495/2/3 494/2/3 493/2/3
f 496/2/3 494/2/3 495/2/3
f 497/2/3 495/2/3 493/2/3
f 498/2/3 495/2/3 497/2/3
f 501/2/3 500/2/3 499/2/3
f 503/2/3 501/2/3 499/2/3
f 503/2/3 502/2/3 501/2/3
f 504/2/3 502/2/3 503/2/3
f 505/1/4 506/1/4 507/1/4
f 507/1/4 506/1/4 508/1/4
f 509/2/4 510/2/4 511/2/4
f 511/2/4 510/2/4 512/2/4
f 509/2/4 511/2/4 513/2/4
f 513/2/4 511/2/4 514/2/4
f 515/2/4 516/2/4 517/2/4
f 515/2/4 517/2/4 519/2/4
f 517/2/4 518/2/4 519/2/4
f 519/2/4 518/2/4 520/2/4
f 521/2/4 522/2/4 523/2/4
f 523/2/4 522/2/4 524/2/4
f 521/2/4 523/2/4 525/2/4
f 525/2/4 523/2/4 526/2/4
f 527/2/4 528/2/4 529/2/4
f 527/2/4 529/2/4 531/2/4
f 529/2/4 530/2/4 531/2/4
f 531/2/4 530/2/4 532/2/4
f 533/2/4 534/2/4 535/2/4
f 535/2/4 534/2/4 536/2/4
f 537/2/4 538/2/4 539/2/4
f 539/2/4 538/2/4 540/2/4
f 541/2/4 542/2/4 543/2/4
f 543/2/4 542/2/4 544/2/4
f 544/2/4 542/2/4 545/2/4
f 545/2/4 542/2/4 546/2/4
f 547/2/4 548/2/4 550/2/4
f 549/2/4 550/2/4 551/2/4
f 550/2/4 548/2/4 552/2/4
f 551/2/4 550/2/4 552/2/4
f 553/2/4 554/2/4 555/2/4
f 555/2/4 554/2/4 556/2/4
f 557/2/4 558/2/4 559/2/4
f 559/2/4 558/2/4 560/2/4
f 561/2/4 562/2/4 563/2/4
f 563/2/4 562/2/4 564/2/4
f 565/2/4 566/2/4 567/2/4
f 567/2/4 566/2/4 568/2/4
f 568/2/4 569/2/4 570/2/4
f 570/2/4 569/2/4 571/2/4
f 572/2/4 573/2/4 574/2/4
f 574/2/4 573/2/4 575/2/4
f 576/2/4 577/2/4 579/2/4
f 579/2/4 577/2/4 580/2/4
f 578/2/4 579/2/4 581/2/4
f 581/2/4 579/2/4 582/2/4
f 583/1/4 584/1/4 585/1/4
f 585/1/4 584/1/4 586/1/4
f 587/2/4 588/2/4 589/2/4
f 589/2/4 588/2/4 590/2/4
f 590/2/4 591/2/4 592/2/4
f 590/2/4 592/2/4 595/2/4
f 592/2/4 593/2/4 595/2/4
f 595/2/4 593/2/4 596/2/4
f 594/2/4 595/2/4 598/2/4
f 596/2/4 597/2/4 598/2/4
f 595/2/4 596/2/4 598/2/4
f 598/2/4 597/2/4 599/2/4
f 599/2/4 597/2/4 600/2/4
f 600/2/4 597/2/4 601/2/4
f 602/2/4 603/2/4 605/2/4
f 604/2/4 605/2/4 606/2/4
f 606/2/4 605/2/4 607/2/4
f 605/2/4 603/2/4 608/2/4
f 607/2/4 605/2/4 608/2/4
f 608/2/4 603/2/4 609/2/4
f 607/2/4 608/2/4 610/2/4
f 610/2/4 608/2/4 611/2/4
f 607/2/4 610/2/4 613/2/4
f 613/2/4 610/2/4 614/2/4
f 612/2/4 613/2/4 615/2/4
f 615/2/4 613/2/4 616/2/4
f 617/1/4 618/1/4 619/1/4
f 619/1/4 618/1/4 620/1/4
f 621/2/4 622/2/4 623/2/4
f 623/2/4 622/2/4 624/2/4
f 624/2/4 625/2/4 626/2/4
f 624/2/4 626/2/4 629/2/4
f 626/2/4 627/2/4 629/2/4
f 628/2/4 629/2/4 630/2/4
f 629/2/4 627/2/4 631/2/4
f 630/2/4 629/2/4 631/2/4
f 632/2/4 633/2/4 634/2/4
f 634/2/4 633/2/4 635/2/4
f 635/2/4 633/2/4 636/2/4
f 636/2/4 633/2/4 637/2/4
f 635/2/4 636/2/4 639/2/4
f 639/2/4 636/2/4 640/2/4
f 638/2/4 639/2/4 641/2/4
f 641/2/4 639/2/4 642/2/4
f 643/1/4 644/1/4 645/1/4
f 645/1/4 644/1/4 646/1/4
f 647/2/4 648/2/4 649/2/4
f 647/2/4 649/2/4 651/2/4
f 649/2/4 650/2/4 651/2/4
f 651/2/4 650/2/4 652/2/4
f 653/2/4 654/2/4 655/2/4
f 655/2/4 654/2/4 656/2/4
f 653/2/4 655/2/4 657/2/4
f 657/2/4 655/2/4 658/2/4
f 659/1/4 660/1/4 661/1/4
f 661/1/4 660/1/4 662/1/4
f 663/1/4 664/1/4 665/1/4
f 665/1/4 664/1/4 666/1/4
f 667/1/4 668/1/4 669/1/4
f 669/1/4 668/1/4 670/1/4
f 671/1/4 672/1/4 673/1/4
f 673/1/4 672/1/4 674/1/4
f 679/2/5 676/2/5 675/2/5
f 680/2/5 676/2/5 679/2/5
f 681/2/5 678/2/5 677/2/5
f 682/2/5 678/2/5 681/2/5
f 687/2/5 684/2/5 683/2/5
f 688/2/5 684/2/5 687/2/5
f 689/2/5 686/2/5 685/2/5
f 690/2/5 686/2/5 689/2/5
f 696/2/5 692/2/5 691/2/5
f 697/2/5 694/2/5 693/2/5
f 699/2/5 696/2/5 695/2/5
f 700/2/5 692/2/5 696/2/5
f 700/2/5 696/2/5 699/2/5
f 701/2/5 698/2/5 697/2/5
f 701/2/5 697/2/5 693/2/5
f 702/2/5 698/2/5 701/2/5
f 707/2/5 704/2/5 703/2/5
f 708/2/5 704/2/5 707/2/5
f 709/2/5 706/2/5 705/2/5
f 710/2/5 706/2/5 709/2/5
f 711/2/5 704/2/5 708/2/5
f 712/2/5 704/2/5 711/2/5
f 713/2/5 709/2/5 705/2/5
f 714/2/5 709/2/5 713/2/5
f 720/2/5 716/2/5 715/2/5
f 721/2/5 718/2/5 717/2/5
f 723/2/5 720/2/5 719/2/5
f 724/2/5 716/2/5 720/2/5
f 724/2/5 720/2/5 723/2/5
f 725/2/5 722/2/5 721/2/5
f 725/2/5 721/2/5 717/2/5
f 726/2/5 722/2/5 725/2/5
f 731/2/5 728/2/5 727/2/5
f 732/2/5 728/2/5 731/2/5
f 733/2/5 730/2/5 729/2/5
f 734/2/5 730/2/5 733/2/5
f 735/2/5 728/2/5 732/2/5
f 736/2/5 728/2/5 735/2/5
f 737/2/5 733/2/5 729/2/5
f 738/2/5 733/2/5 737/2/5
f 743/2/5 740/2/5 739/2/5
f 744/2/5 742/2/5 741/2/5
f 746/2/5 743/2/5 739/2/5
f 746/2/5 744/2/5 743/2/5
f 747/2/5 742/2/5 744/2/5
f 747/2/5 744/2/5 746/2/5
f 749/2/5 746/2/5 745/2/5
f 749/2/5 748/2/5 747/2/5
f 749/2/5 747/2/5 746/2/5
f 750/2/5 748/2/5 749/2/5
f 751/2/5 748/2/5 750/2/5
f 752/2/5 748/2/5 751/2/5
f 754/2/5 751/2/5 750/2/5
f 755/2/5 751/2/5 754/2/5
f 757/2/5 754/2/5 753/2/5
f 757/2/5 756/2/5 755/2/5
f 757/2/5 755/2/5 754/2/5
f 758/2/5 756/2/5 757/2/5
f 759/2/5 756/2/5 758/2/5
f 760/2/5 756/2/5 759/2/5
f 761/2/5 759/2/5 758/2/5
f 762/2/5 759/2/5 761/2/5
f 763/2/5 761/2/5 758/2/5
f 764/2/5 761/2/5 763/2/5
f 765/2/5 759/2/5 762/2/5
f 766/2/5 759/2/5 765/2/5
f 770/1/5 768/1/5 767/1/5
f 771/1/5 768/1/5 770/1/5
f 774/1/5 770/1/5 769/1/5
f 774/1/5 772/1/5 771/1/5
f 774/1/5 771/1/5 770/1/5
f 775/1/5 772/1/5 774/1/5
f 778/1/5 774/1/5 773/1/5
f 778/1/5 776/1/5 775/1/5
f 778/1/5 775/1/5 774/1/5
f 779/1/5 776/1/5 778/1/5
f 780/1/5 776/1/5 779/1/5
f 781/1/5 776/1/5 780/1/5
f 782/1/5 776/1/5 781/1/5
f 783/1/5 776/1/5 782/1/5
f 785/1/5 778/1/5 777/1/5
f 785/1/5 779/1/5 778/1/5
f 786/1/5 779/1/5 785/1/5
f 787/1/5 784/1/5 783/1/5
f 787/1/5 783/1/5 782/1/5
f 788/1/5 784/1/5 787/1/5
f 789/1/5 785/1/5 777/1/5
f 790/1/5 785/1/5 789/1/5
f 791/1/5 784/1/5 788/1/5
f 792/1/5 784/1/5 791/1/5
f 793/1/5 789/1/5 777/1/5
f 796/1/5 784/1/5 792/1/5
f 797/1/5 794/1/5 793/1/5
f 797/1/5 793/1/5 777/1/5
f 798/1/5 794/1/5 797/1/5
f 799/1/5 796/1/5 795/1/5
f 800/1/5 784/1/5 796/1/5
f 800/1/5 796/1/5 799/1/5
f 801/1/5 797/1/5 777/1/5
f 806/1/5 784/1/5 800/1/5
f 807/1/5 802/1/5 801/1/5
f 810/1/5 806/1/5 805/1/5
f 811/1/5 801/1/5 777/1/5
f 811/1/5 808/1/5 807/1/5
f 811/1/5 807/1/5 801/1/5
f 812/1/5 808/1/5 811/1/5
f 813/1/5 808/1/5 812/1/5
f 814/1/5 804/1/5 803/1/5
f 815/1/5 804/1/5 814/1/5
f 816/1/5 810/1/5 809/1/5
f 817/1/5 806/1/5 810/1/5
f 817/1/5 784/1/5 806/1/5
f 817/1/5 810/1/5 816/1/5
f 818/1/5 784/1/5 817/1/5
f 819/1/5 813/1/5 812/1/5
f 819/1/5 815/1/5 814/1/5
f 819/1/5 817/1/5 816/1/5
f 819/1/5 814/1/5 813/1/5
f 819/1/5 816/1/5 815/1/5
f 820/1/5 817/1/5 819/1/5
f 821/1/5 817/1/5 820/1/5
f 822/1/5 817/1/5 821/1/5
f 823/1/5 821/1/5 820/1/5
f 824/1/5 821/1/5 823/1/5
f 825/1/5 821/1/5 824/1/5
f 826/1/5 821/1/5 825/1/5
f 827/1/5 825/1/5 824/1/5
f 828/1/5 825/1/5 827/1/5
f 831/1/5 830/1/5 829/1/5
f 832/1/5 830/1/5 831/1/5
f 833/2/6 834/2/6 837/2/6
f 837/2/6 834/2/6 838/2/6
f 835/2/6 836/2/6 839/2/6
f 839/2/6 836/2/6 840/2/6
f 841/2/6 842/2/6 845/2/6
f 845/2/6 842/2/6 846/2/6
f 843/2/6 844/2/6 847/2/6
f 847/2/6 844/2/6 848/2/6
f 849/2/6 850/2/6 854/2/6
f 854/2/6 850/2/6 855/2/6
f 851/2/6 852/2/6 856/2/6
f 856/2/6 852/2/6 857/2/6
f 853/2/6 854/2/6 859/2/6
f 859/2/6 854/2/6 860/2/6
f 857/2/6 858/2/6 861/2/6
f 861/2/6 858/2/6 862/2/6
f 863/2/6 864/2/6 867/2/6
f 867/2/6 864/2/6 868/2/6
f 865/2/6 866/2/6 871/2/6
f 871/2/6 866/2/6 872/2/6
f 868/2/6 869/2/6 873/2/6
f 873/2/6 869/2/6 874/2/6
f 870/2/6 871/2/6 875/2/6
f 875/2/6 871/2/6 876/2/6
f 877/2/6 878/2/6 881/2/6
f 881/2/6 878/2/6 882/2/6
f 879/2/6 880/2/6 883/2/6
f 883/2/6 880/2/6 884/2/6
f 885/2/6 886/2/6 889/2/6
f 889/2/6 886/2/6 890/2/6
f 887/2/6 888/2/6 891/2/6
f 891/2/6 888/2/6 892/2/6
f 893/2/6 894/2/6 898/2/6
f 898/2/6 894/2/6 899/2/6
f 895/2/6 896/2/6 900/2/6
f 900/2/6 896/2/6 901/2/6
f 897/2/6 898/2/6 903/2/6
f 903/2/6 898/2/6 904/2/6
f 901/2/6 902/2/6 905/2/6
f 905/2/6 902/2/6 906/2/6
f 907/2/6 908/2/6 911/2/6
f 911/2/6 908/2/6 912/2/6
f 909/2/6 910/2/6 915/2/6
f 915/2/6 910/2/6 916/2/6
f 912/2/6 913/2/6 917/2/6
f 917/2/6 913/2/6 918/2/6
f 914/2/6 915/2/6 919/2/6
f 919/2/6 915/2/6 920/2/6
f 921/2/6 922/2/6 925/2/6
f 925/2/6 922/2/6 926/2/6
f 923/2/6 924/2/6 927/2/6
f 927/2/6 924/2/6 928/2/6
f 929/2/6 930/2/6 933/2/6
f 933/2/6 930/2/6 934/2/6
f 931/2/6 932/2/6 935/2/6
f 935/2/6 932/2/6 936/2/6
f 937/2/6 938/2/6 942/2/6
f 942/2/6 938/2/6 943/2/6
f 939/2/6 940/2/6 946/2/6
f 946/2/6 940/2/6 947/2/6
f 941/2/6 942/2/6 949/2/6
f 949/2/6 942/2/6 950/2/6
f 944/2/6 945/2/6 951/2/6
f 951/2/6 945/2/6 952/2/6
f 947/2/6 948/2/6 953/2/6
f 953/2/6 948/2/6 954/2/6
f 955/2/6 956/2/6 959/2/6
f 959/2/6 956/2/6 960/2/6
f 957/2/6 958/2/6 961/2/6
f 961/2/6 958/2/6 962/2/6
f 963/2/6 964/2/6 969/2/6
f 969/2/6 964/2/6 970/2/6
f 965/2/6 966/2/6 972/2/6
f 972/2/6 966/2/6 973/2/6
f 967/2/6 968/2/6 975/2/6
f 975/2/6 968/2/6 976/2/6
f 970/2/6 971/2/6 977/2/6
f 977/2/6 971/2/6 978/2/6
f 974/2/6 975/2/6 979/2/6
f 979/2/6 975/2/6 980/2/6
f 981/1/6 982/1/6 984/1/6
f 984/1/6 982/1/6 985/1/6
f 983/1/6 984/1/6 988/1/6
f 985/1/6 986/1/6 988/1/6
f 984/1/6 985/1/6 988/1/6
f 988/1/6 986/1/6 989/1/6
f 987/1/6 988/1/6 992/1/6
f 989/1/6 990/1/6 992/1/6
f 988/1/6 989/1/6 992/1/6
f 992/1/6 990/1/6 993/1/6
f 991/1/6 992/1/6 995/1/6
f 993/1/6 994/1/6 995/1/6
f 992/1/6 993/1/6 995/1/6
f 995/1/6 994/1/6 996/1/6
f 996/1/6 994/1/6 997/1/6
f 997/1/6 994/1/6 998/1/6
f 996/1/6 997/1/6 999/1/6
f 999/1/6 997/1/6 1000/1/6
f 1000/1/6 997/1/6 1001/1/6
f 1001/1/6 997/1/6 1002/1/6
f 1000/1/6 1001/1/6 1003/1/6
f 1003/1/6 1001/1/6 1004/1/6
f 1004/1/6 1001/1/6 1005/1/6
f 1005/1/6 1001/1/6 1006/1/6
f 1004/1/6 1005/1/6 1007/1/6
f 1007/1/6 1005/1/6 1008/1/6
