# MagicaVoxel @ Ephtracy

# group
o 

# material
mtllib drawer_counter.vox.mtl
usemtl palette

# normals
vn -1 0 0
vn 1 0 0
vn 0 0 1
vn 0 0 -1
vn 0 -1 0
vn 0 1 0

# texcoords
vt 0.00195312 0.5
vt 0.00585938 0.5
vt 0.0175781 0.5
vt 0.0292969 0.5

# verts
v 0.2 2.8 2.5
v 0.2 2.8 1.5
v 0.2 2.8 1.3
v 0.2 2.8 0.3
v 0.2 2.9 1.4
v 0.2 2.9 1.3
v 0.2 2.9 1
v 0.2 2.9 0.9
v 0.2 3 2.5
v 0.2 3 1.5
v 0.2 3 1.4
v 0.2 3 1
v 0.2 3 0.9
v 0.2 3 0.3
v 0.4 0 2.2
v 0.4 0 0.3
v 0.4 2.8 2.2
v 0.4 2.8 0.3
v 0.5 0 2.3
v 0.5 0 2.2
v 0.5 2.8 2.3
v 0.5 2.8 2.2
v 1.2 0.6 2.5
v 1.2 0.6 2.3
v 1.2 0.7 2.5
v 1.2 0.7 2.3
v 1.2 1.4 2.5
v 1.2 1.4 2.3
v 1.2 1.5 2.5
v 1.2 1.5 2.3
v 1.2 2.2 2.5
v 1.2 2.2 2.3
v 1.2 2.3 2.5
v 1.2 2.3 2.3
v 1.9 0.6 2.4
v 1.9 0.6 2.3
v 1.9 0.7 2.4
v 1.9 0.7 2.3
v 1.9 1.4 2.4
v 1.9 1.4 2.3
v 1.9 1.5 2.4
v 1.9 1.5 2.3
v 1.9 2.2 2.4
v 1.9 2.2 2.3
v 1.9 2.3 2.4
v 1.9 2.3 2.3
v 2.6 0.2 2.2
v 2.6 0.2 0.9
v 2.6 1 2.2
v 2.6 1 0.9
v 2.6 1.1 2.2
v 2.6 1.1 0.9
v 2.6 1.8 2.2
v 2.6 1.8 0.9
v 2.6 1.9 2.2
v 2.6 1.9 0.9
v 2.6 2.6 2.2
v 2.6 2.6 0.9
v 0.6 0.2 2.2
v 0.6 0.2 0.9
v 0.6 1 2.2
v 0.6 1 0.9
v 0.6 1.1 2.2
v 0.6 1.1 0.9
v 0.6 1.8 2.2
v 0.6 1.8 0.9
v 0.6 1.9 2.2
v 0.6 1.9 0.9
v 0.6 2.6 2.2
v 0.6 2.6 0.9
v 1.3 0.6 2.4
v 1.3 0.6 2.3
v 1.3 0.7 2.4
v 1.3 0.7 2.3
v 1.3 1.4 2.4
v 1.3 1.4 2.3
v 1.3 1.5 2.4
v 1.3 1.5 2.3
v 1.3 2.2 2.4
v 1.3 2.2 2.3
v 1.3 2.3 2.4
v 1.3 2.3 2.3
v 2 0.6 2.5
v 2 0.6 2.3
v 2 0.7 2.5
v 2 0.7 2.3
v 2 1.4 2.5
v 2 1.4 2.3
v 2 1.5 2.5
v 2 1.5 2.3
v 2 2.2 2.5
v 2 2.2 2.3
v 2 2.3 2.5
v 2 2.3 2.3
v 2.7 0 2.3
v 2.7 0 2.2
v 2.7 2.8 2.3
v 2.7 2.8 2.2
v 2.8 0 2.2
v 2.8 0 0.3
v 2.8 2.8 2.2
v 2.8 2.8 0.3
v 3 2.8 2.5
v 3 2.8 0.3
v 3 3 2.5
v 3 3 0.3
v 0.2 2.8 2.5
v 0.2 3 2.5
v 1.1 2.8 2.5
v 1.1 3 2.5
v 1.2 0.6 2.5
v 1.2 0.7 2.5
v 1.2 1.4 2.5
v 1.2 1.5 2.5
v 1.2 2.2 2.5
v 1.2 2.3 2.5
v 1.2 2.8 2.5
v 1.2 2.9 2.5
v 1.3 2.9 2.5
v 1.3 3 2.5
v 2 0.6 2.5
v 2 0.7 2.5
v 2 1.4 2.5
v 2 1.5 2.5
v 2 2.2 2.5
v 2 2.3 2.5
v 2.5 2.8 2.5
v 2.5 2.9 2.5
v 2.6 2.8 2.5
v 2.6 2.9 2.5
v 2.6 3 2.5
v 2.7 2.9 2.5
v 2.7 3 2.5
v 3 2.8 2.5
v 3 3 2.5
v 0.5 0 2.3
v 0.5 2.8 2.3
v 1.2 0.6 2.3
v 1.2 0.7 2.3
v 1.2 1.4 2.3
v 1.2 1.5 2.3
v 1.2 2.2 2.3
v 1.2 2.3 2.3
v 1.3 0.6 2.3
v 1.3 0.7 2.3
v 1.3 1.4 2.3
v 1.3 1.5 2.3
v 1.3 2.2 2.3
v 1.3 2.3 2.3
v 1.9 0.6 2.3
v 1.9 0.7 2.3
v 1.9 1.4 2.3
v 1.9 1.5 2.3
v 1.9 2.2 2.3
v 1.9 2.3 2.3
v 2 0.6 2.3
v 2 0.7 2.3
v 2 1.4 2.3
v 2 1.5 2.3
v 2 2.2 2.3
v 2 2.3 2.3
v 2.7 0 2.3
v 2.7 2.8 2.3
v 0.4 0 2.2
v 0.4 2.8 2.2
v 0.5 0 2.2
v 0.5 2.8 2.2
v 2.7 0 2.2
v 2.7 2.8 2.2
v 2.8 0 2.2
v 2.8 2.8 2.2
v 0.6 0.2 0.9
v 0.6 1 0.9
v 0.6 1.1 0.9
v 0.6 1.8 0.9
v 0.6 1.9 0.9
v 0.6 2.6 0.9
v 2.6 0.2 0.9
v 2.6 1 0.9
v 2.6 1.1 0.9
v 2.6 1.8 0.9
v 2.6 1.9 0.9
v 2.6 2.6 0.9
v 1.3 0.6 2.4
v 1.3 0.7 2.4
v 1.3 1.4 2.4
v 1.3 1.5 2.4
v 1.3 2.2 2.4
v 1.3 2.3 2.4
v 1.9 0.6 2.4
v 1.9 0.7 2.4
v 1.9 1.4 2.4
v 1.9 1.5 2.4
v 1.9 2.2 2.4
v 1.9 2.3 2.4
v 0.6 0.2 2.2
v 0.6 1 2.2
v 0.6 1.1 2.2
v 0.6 1.8 2.2
v 0.6 1.9 2.2
v 0.6 2.6 2.2
v 2.6 0.2 2.2
v 2.6 1 2.2
v 2.6 1.1 2.2
v 2.6 1.8 2.2
v 2.6 1.9 2.2
v 2.6 2.6 2.2
v 0.2 2.8 0.3
v 0.2 3 0.3
v 0.4 0 0.3
v 0.4 2.8 0.3
v 0.9 2.9 0.3
v 0.9 3 0.3
v 1.2 2.9 0.3
v 1.2 3 0.3
v 2.8 0 0.3
v 2.8 2.8 0.3
v 3 2.8 0.3
v 3 3 0.3
v 0.5 0 2.3
v 2.7 0 2.3
v 0.4 0 2.2
v 0.5 0 2.2
v 2.7 0 2.2
v 2.8 0 2.2
v 0.4 0 0.3
v 2.8 0 0.3
v 1.2 0.6 2.5
v 2 0.6 2.5
v 1.3 0.6 2.4
v 1.9 0.6 2.4
v 1.2 0.6 2.3
v 1.3 0.6 2.3
v 1.9 0.6 2.3
v 2 0.6 2.3
v 0.6 1 2.2
v 2.6 1 2.2
v 0.6 1 0.9
v 2.6 1 0.9
v 1.2 1.4 2.5
v 2 1.4 2.5
v 1.3 1.4 2.4
v 1.9 1.4 2.4
v 1.2 1.4 2.3
v 1.3 1.4 2.3
v 1.9 1.4 2.3
v 2 1.4 2.3
v 0.6 1.8 2.2
v 2.6 1.8 2.2
v 0.6 1.8 0.9
v 2.6 1.8 0.9
v 1.2 2.2 2.5
v 2 2.2 2.5
v 1.3 2.2 2.4
v 1.9 2.2 2.4
v 1.2 2.2 2.3
v 1.3 2.2 2.3
v 1.9 2.2 2.3
v 2 2.2 2.3
v 0.6 2.6 2.2
v 2.6 2.6 2.2
v 0.6 2.6 0.9
v 2.6 2.6 0.9
v 0.2 2.8 2.5
v 1.1 2.8 2.5
v 1.2 2.8 2.5
v 2.5 2.8 2.5
v 2.6 2.8 2.5
v 3 2.8 2.5
v 1.1 2.8 2.4
v 1.2 2.8 2.4
v 2.5 2.8 2.4
v 2.6 2.8 2.4
v 0.5 2.8 2.3
v 2.7 2.8 2.3
v 0.4 2.8 2.2
v 0.5 2.8 2.2
v 2.7 2.8 2.2
v 2.8 2.8 2.2
v 0.2 2.8 1.5
v 0.3 2.8 1.5
v 0.2 2.8 1.3
v 0.3 2.8 1.3
v 0.2 2.8 0.3
v 0.4 2.8 0.3
v 2.8 2.8 0.3
v 3 2.8 0.3
v 0.6 0.2 2.2
v 2.6 0.2 2.2
v 0.6 0.2 0.9
v 2.6 0.2 0.9
v 1.2 0.7 2.5
v 2 0.7 2.5
v 1.3 0.7 2.4
v 1.9 0.7 2.4
v 1.2 0.7 2.3
v 1.3 0.7 2.3
v 1.9 0.7 2.3
v 2 0.7 2.3
v 0.6 1.1 2.2
v 2.6 1.1 2.2
v 0.6 1.1 0.9
v 2.6 1.1 0.9
v 1.2 1.5 2.5
v 2 1.5 2.5
v 1.3 1.5 2.4
v 1.9 1.5 2.4
v 1.2 1.5 2.3
v 1.3 1.5 2.3
v 1.9 1.5 2.3
v 2 1.5 2.3
v 0.6 1.9 2.2
v 2.6 1.9 2.2
v 0.6 1.9 0.9
v 2.6 1.9 0.9
v 1.2 2.3 2.5
v 2 2.3 2.5
v 1.3 2.3 2.4
v 1.9 2.3 2.4
v 1.2 2.3 2.3
v 1.3 2.3 2.3
v 1.9 2.3 2.3
v 2 2.3 2.3
v 0.2 3 2.5
v 1.1 3 2.5
v 1.3 3 2.5
v 2.6 3 2.5
v 2.7 3 2.5
v 3 3 2.5
v 1.2 3 2.4
v 1.3 3 2.4
v 1 3 2.3
v 1.1 3 2.3
v 0.9 3 2.2
v 1 3 2.2
v 1.1 3 2.2
v 1.2 3 2.2
v 2.6 3 2.2
v 2.7 3 2.2
v 2.8 3 2.2
v 0.8 3 2.1
v 0.9 3 2.1
v 1 3 2.1
v 1.1 3 2.1
v 1.4 3 2.1
v 1.7 3 2.1
v 2.6 3 2.1
v 2.7 3 2.1
v 0.7 3 2
v 0.8 3 2
v 0.9 3 2
v 1 3 2
v 1.4 3 2
v 1.6 3 2
v 1.7 3 2
v 1.8 3 2
v 2.5 3 2
v 2.6 3 2
v 2.7 3 2
v 2.8 3 2
v 0.6 3 1.9
v 0.7 3 1.9
v 0.8 3 1.9
v 0.9 3 1.9
v 1.6 3 1.9
v 1.7 3 1.9
v 2.4 3 1.9
v 2.5 3 1.9
v 2.7 3 1.9
v 0.7 3 1.8
v 0.8 3 1.8
v 1.8 3 1.8
v 1.9 3 1.8
v 1.7 3 1.7
v 1.9 3 1.7
v 2.3 3 1.7
v 2.4 3 1.7
v 2.5 3 1.7
v 0.5 3 1.6
v 0.6 3 1.6
v 2.2 3 1.6
v 2.3 3 1.6
v 0.2 3 1.5
v 0.5 3 1.5
v 0.6 3 1.5
v 0.7 3 1.5
v 1.2 3 1.5
v 1.3 3 1.5
v 2.1 3 1.5
v 2.2 3 1.5
v 2.4 3 1.5
v 0.2 3 1.4
v 0.6 3 1.4
v 1.1 3 1.4
v 1.2 3 1.4
v 1.3 3 1.4
v 1.7 3 1.4
v 1.8 3 1.4
v 2 3 1.4
v 2.1 3 1.4
v 2.2 3 1.4
v 1 3 1.3
v 1.1 3 1.3
v 1.2 3 1.3
v 1.7 3 1.3
v 1.8 3 1.3
v 2 3 1.3
v 1 3 1.2
v 1.1 3 1.2
v 1.8 3 1.2
v 2 3 1.2
v 0.8 3 1.1
v 1 3 1.1
v 0.2 3 1
v 0.5 3 1
v 0.6 3 1
v 0.8 3 1
v 1 3 1
v 1.9 3 1
v 2 3 1
v 2.1 3 1
v 2.2 3 1
v 0.2 3 0.9
v 0.4 3 0.9
v 0.5 3 0.9
v 0.6 3 0.9
v 0.7 3 0.9
v 0.8 3 0.9
v 1.7 3 0.9
v 1.9 3 0.9
v 2.2 3 0.9
v 2.5 3 0.9
v 0.4 3 0.8
v 0.7 3 0.8
v 1.6 3 0.8
v 1.7 3 0.8
v 1.9 3 0.8
v 2.2 3 0.8
v 2.5 3 0.8
v 2.6 3 0.8
v 1.4 3 0.7
v 1.6 3 0.7
v 1.7 3 0.7
v 2.5 3 0.7
v 2.6 3 0.7
v 2.7 3 0.7
v 1.3 3 0.6
v 1.4 3 0.6
v 1.6 3 0.6
v 2.6 3 0.6
v 2.7 3 0.6
v 1.2 3 0.5
v 1.3 3 0.5
v 1.4 3 0.5
v 0.9 3 0.4
v 1.2 3 0.4
v 1.3 3 0.4
v 0.2 3 0.3
v 0.9 3 0.3
v 1.2 3 0.3
v 3 3 0.3

# faces
f 5/4/1 3/4/1 2/4/1
f 6/1/1 4/1/1 3/1/1
f 6/4/1 3/4/1 5/4/1
f 7/1/1 4/1/1 6/1/1
f 8/1/1 4/1/1 7/1/1
f 9/1/1 2/1/1 1/1/1
f 10/4/1 5/4/1 2/4/1
f 10/1/1 2/1/1 9/1/1
f 11/1/1 6/1/1 5/1/1
f 11/4/1 5/4/1 10/4/1
f 11/1/1 7/1/1 6/1/1
f 12/4/1 8/4/1 7/4/1
f 12/1/1 7/1/1 11/1/1
f 13/1/1 4/1/1 8/1/1
f 13/4/1 8/4/1 12/4/1
f 14/1/1 4/1/1 13/1/1
f 17/2/1 16/2/1 15/2/1
f 18/2/1 16/2/1 17/2/1
f 21/2/1 20/2/1 19/2/1
f 22/2/1 20/2/1 21/2/1
f 25/3/1 24/3/1 23/3/1
f 26/3/1 24/3/1 25/3/1
f 29/3/1 28/3/1 27/3/1
f 30/3/1 28/3/1 29/3/1
f 33/3/1 32/3/1 31/3/1
f 34/3/1 32/3/1 33/3/1
f 37/3/1 36/3/1 35/3/1
f 38/3/1 36/3/1 37/3/1
f 41/3/1 40/3/1 39/3/1
f 42/3/1 40/3/1 41/3/1
f 45/3/1 44/3/1 43/3/1
f 46/3/1 44/3/1 45/3/1
f 49/2/1 48/2/1 47/2/1
f 50/2/1 48/2/1 49/2/1
f 53/2/1 52/2/1 51/2/1
f 54/2/1 52/2/1 53/2/1
f 57/2/1 56/2/1 55/2/1
f 58/2/1 56/2/1 57/2/1
f 59/2/2 60/2/2 61/2/2
f 61/2/2 60/2/2 62/2/2
f 63/2/2 64/2/2 65/2/2
f 65/2/2 64/2/2 66/2/2
f 67/2/2 68/2/2 69/2/2
f 69/2/2 68/2/2 70/2/2
f 71/3/2 72/3/2 73/3/2
f 73/3/2 72/3/2 74/3/2
f 75/3/2 76/3/2 77/3/2
f 77/3/2 76/3/2 78/3/2
f 79/3/2 80/3/2 81/3/2
f 81/3/2 80/3/2 82/3/2
f 83/3/2 84/3/2 85/3/2
f 85/3/2 84/3/2 86/3/2
f 87/3/2 88/3/2 89/3/2
f 89/3/2 88/3/2 90/3/2
f 91/3/2 92/3/2 93/3/2
f 93/3/2 92/3/2 94/3/2
f 95/2/2 96/2/2 97/2/2
f 97/2/2 96/2/2 98/2/2
f 99/2/2 100/2/2 101/2/2
f 101/2/2 100/2/2 102/2/2
f 103/1/2 104/1/2 105/1/2
f 105/1/2 104/1/2 106/1/2
f 109/1/3 108/1/3 107/1/3
f 110/1/3 108/1/3 109/1/3
f 117/4/3 110/4/3 109/4/3
f 118/4/3 110/4/3 117/4/3
f 119/1/3 118/1/3 117/1/3
f 119/4/3 110/4/3 118/4/3
f 120/4/3 110/4/3 119/4/3
f 121/3/3 112/3/3 111/3/3
f 122/3/3 112/3/3 121/3/3
f 123/3/3 114/3/3 113/3/3
f 124/3/3 114/3/3 123/3/3
f 125/3/3 116/3/3 115/3/3
f 126/3/3 116/3/3 125/3/3
f 127/1/3 119/1/3 117/1/3
f 127/1/3 120/1/3 119/1/3
f 128/1/3 120/1/3 127/1/3
f 129/4/3 128/4/3 127/4/3
f 130/1/3 120/1/3 128/1/3
f 130/4/3 128/4/3 129/4/3
f 131/1/3 120/1/3 130/1/3
f 132/1/3 130/1/3 129/1/3
f 132/4/3 131/4/3 130/4/3
f 133/4/3 131/4/3 132/4/3
f 134/1/3 132/1/3 129/1/3
f 134/1/3 133/1/3 132/1/3
f 135/1/3 133/1/3 134/1/3
f 138/2/3 137/2/3 136/2/3
f 139/2/3 137/2/3 138/2/3
f 140/2/3 137/2/3 139/2/3
f 141/2/3 137/2/3 140/2/3
f 142/2/3 137/2/3 141/2/3
f 143/2/3 137/2/3 142/2/3
f 144/2/3 138/2/3 136/2/3
f 145/2/3 140/2/3 139/2/3
f 146/2/3 140/2/3 145/2/3
f 147/2/3 142/2/3 141/2/3
f 148/2/3 142/2/3 147/2/3
f 149/2/3 137/2/3 143/2/3
f 150/2/3 148/2/3 147/2/3
f 150/2/3 149/2/3 148/2/3
f 150/2/3 146/2/3 145/2/3
f 150/2/3 144/2/3 136/2/3
f 150/2/3 147/2/3 146/2/3
f 150/2/3 145/2/3 144/2/3
f 151/2/3 149/2/3 150/2/3
f 152/2/3 149/2/3 151/2/3
f 153/2/3 149/2/3 152/2/3
f 154/2/3 149/2/3 153/2/3
f 155/2/3 137/2/3 149/2/3
f 155/2/3 149/2/3 154/2/3
f 156/2/3 150/2/3 136/2/3
f 157/2/3 152/2/3 151/2/3
f 158/2/3 152/2/3 157/2/3
f 159/2/3 154/2/3 153/2/3
f 160/2/3 154/2/3 159/2/3
f 161/2/3 137/2/3 155/2/3
f 162/2/3 158/2/3 157/2/3
f 162/2/3 161/2/3 160/2/3
f 162/2/3 160/2/3 159/2/3
f 162/2/3 156/2/3 136/2/3
f 162/2/3 159/2/3 158/2/3
f 162/2/3 157/2/3 156/2/3
f 163/2/3 137/2/3 161/2/3
f 163/2/3 161/2/3 162/2/3
f 166/2/3 165/2/3 164/2/3
f 167/2/3 165/2/3 166/2/3
f 170/2/3 169/2/3 168/2/3
f 171/2/3 169/2/3 170/2/3
f 178/2/3 173/2/3 172/2/3
f 179/2/3 173/2/3 178/2/3
f 180/2/3 175/2/3 174/2/3
f 181/2/3 175/2/3 180/2/3
f 182/2/3 177/2/3 176/2/3
f 183/2/3 177/2/3 182/2/3
f 184/3/4 185/3/4 190/3/4
f 190/3/4 185/3/4 191/3/4
f 186/3/4 187/3/4 192/3/4
f 192/3/4 187/3/4 193/3/4
f 188/3/4 189/3/4 194/3/4
f 194/3/4 189/3/4 195/3/4
f 196/2/4 197/2/4 202/2/4
f 202/2/4 197/2/4 203/2/4
f 198/2/4 199/2/4 204/2/4
f 204/2/4 199/2/4 205/2/4
f 200/2/4 201/2/4 206/2/4
f 206/2/4 201/2/4 207/2/4
f 208/1/4 209/1/4 211/1/4
f 211/1/4 209/1/4 212/1/4
f 212/1/4 209/1/4 213/1/4
f 211/1/4 212/1/4 214/1/4
f 212/4/4 213/4/4 214/4/4
f 214/4/4 213/4/4 215/4/4
f 210/2/4 211/2/4 216/2/4
f 211/1/4 214/1/4 217/1/4
f 216/2/4 211/2/4 217/2/4
f 214/1/4 215/1/4 217/1/4
f 217/1/4 215/1/4 218/1/4
f 218/1/4 215/1/4 219/1/4
f 223/2/5 221/2/5 220/2/5
f 224/2/5 221/2/5 223/2/5
f 226/2/5 223/2/5 222/2/5
f 226/2/5 225/2/5 224/2/5
f 226/2/5 224/2/5 223/2/5
f 227/2/5 225/2/5 226/2/5
f 230/3/5 229/3/5 228/3/5
f 231/3/5 229/3/5 230/3/5
f 232/3/5 230/3/5 228/3/5
f 233/3/5 230/3/5 232/3/5
f 234/3/5 229/3/5 231/3/5
f 235/3/5 229/3/5 234/3/5
f 238/2/5 237/2/5 236/2/5
f 239/2/5 237/2/5 238/2/5
f 242/3/5 241/3/5 240/3/5
f 243/3/5 241/3/5 242/3/5
f 244/3/5 242/3/5 240/3/5
f 245/3/5 242/3/5 244/3/5
f 246/3/5 241/3/5 243/3/5
f 247/3/5 241/3/5 246/3/5
f 250/2/5 249/2/5 248/2/5
f 251/2/5 249/2/5 250/2/5
f 254/3/5 253/3/5 252/3/5
f 255/3/5 253/3/5 254/3/5
f 256/3/5 254/3/5 252/3/5
f 257/3/5 254/3/5 256/3/5
f 258/3/5 253/3/5 255/3/5
f 259/3/5 253/3/5 258/3/5
f 262/2/5 261/2/5 260/2/5
f 263/2/5 261/2/5 262/2/5
f 270/1/5 265/1/5 264/1/5
f 270/4/5 266/4/5 265/4/5
f 271/1/5 267/1/5 266/1/5
f 271/4/5 266/4/5 270/4/5
f 272/4/5 268/4/5 267/4/5
f 272/1/5 267/1/5 271/1/5
f 273/1/5 269/1/5 268/1/5
f 273/4/5 268/4/5 272/4/5
f 274/1/5 272/1/5 271/1/5
f 274/1/5 271/1/5 270/1/5
f 274/1/5 273/1/5 272/1/5
f 274/1/5 270/1/5 264/1/5
f 275/1/5 269/1/5 273/1/5
f 275/1/5 273/1/5 274/1/5
f 276/1/5 274/1/5 264/1/5
f 277/1/5 274/1/5 276/1/5
f 278/1/5 269/1/5 275/1/5
f 279/1/5 269/1/5 278/1/5
f 280/1/5 276/1/5 264/1/5
f 281/1/5 276/1/5 280/1/5
f 282/4/5 281/4/5 280/4/5
f 283/1/5 276/1/5 281/1/5
f 283/4/5 281/4/5 282/4/5
f 284/1/5 283/1/5 282/1/5
f 285/1/5 276/1/5 283/1/5
f 285/1/5 283/1/5 284/1/5
f 286/1/5 269/1/5 279/1/5
f 287/1/5 269/1/5 286/1/5
f 288/2/6 289/2/6 290/2/6
f 290/2/6 289/2/6 291/2/6
f 292/3/6 293/3/6 294/3/6
f 294/3/6 293/3/6 295/3/6
f 292/3/6 294/3/6 296/3/6
f 296/3/6 294/3/6 297/3/6
f 295/3/6 293/3/6 298/3/6
f 298/3/6 293/3/6 299/3/6
f 300/2/6 301/2/6 302/2/6
f 302/2/6 301/2/6 303/2/6
f 304/3/6 305/3/6 306/3/6
f 306/3/6 305/3/6 307/3/6
f 304/3/6 306/3/6 308/3/6
f 308/3/6 306/3/6 309/3/6
f 307/3/6 305/3/6 310/3/6
f 310/3/6 305/3/6 311/3/6
f 312/2/6 313/2/6 314/2/6
f 314/2/6 313/2/6 315/2/6
f 316/3/6 317/3/6 318/3/6
f 318/3/6 317/3/6 319/3/6
f 316/3/6 318/3/6 320/3/6
f 320/3/6 318/3/6 321/3/6
f 319/3/6 317/3/6 322/3/6
f 322/3/6 317/3/6 323/3/6
f 325/4/6 326/4/6 330/4/6
f 326/1/6 327/1/6 331/1/6
f 330/4/6 326/4/6 331/4/6
f 324/1/6 325/1/6 332/1/6
f 325/4/6 330/4/6 333/4/6
f 332/1/6 325/1/6 333/1/6
f 324/1/6 332/1/6 334/1/6
f 332/4/6 333/4/6 335/4/6
f 334/1/6 332/1/6 335/1/6
f 333/4/6 330/4/6 336/4/6
f 335/4/6 333/4/6 336/4/6
f 330/1/6 331/1/6 337/1/6
f 336/4/6 330/4/6 337/4/6
f 331/1/6 327/1/6 338/1/6
f 337/1/6 331/1/6 338/1/6
f 327/4/6 328/4/6 338/4/6
f 328/1/6 329/1/6 339/1/6
f 338/4/6 328/4/6 339/4/6
f 339/1/6 329/1/6 340/1/6
f 324/1/6 334/1/6 341/1/6
f 334/4/6 335/4/6 342/4/6
f 341/1/6 334/1/6 342/1/6
f 335/4/6 336/4/6 342/4/6
f 342/4/6 336/4/6 343/4/6
f 336/1/6 337/1/6 344/1/6
f 343/4/6 336/4/6 344/4/6
f 337/1/6 338/1/6 344/1/6
f 338/1/6 339/1/6 344/1/6
f 344/1/6 339/1/6 345/1/6
f 345/1/6 339/1/6 346/1/6
f 346/1/6 339/1/6 347/1/6
f 339/4/6 340/4/6 348/4/6
f 347/1/6 339/1/6 348/1/6
f 324/1/6 341/1/6 349/1/6
f 342/4/6 343/4/6 350/4/6
f 349/1/6 341/1/6 350/1/6
f 341/4/6 342/4/6 350/4/6
f 350/4/6 343/4/6 351/4/6
f 343/1/6 344/1/6 352/1/6
f 351/4/6 343/4/6 352/4/6
f 344/1/6 345/1/6 352/1/6
f 345/4/6 346/4/6 353/4/6
f 352/1/6 345/1/6 353/1/6
f 353/4/6 346/4/6 354/4/6
f 346/1/6 347/1/6 355/1/6
f 354/4/6 346/4/6 355/4/6
f 355/1/6 347/1/6 356/1/6
f 356/1/6 347/1/6 357/1/6
f 347/4/6 348/4/6 358/4/6
f 357/1/6 347/1/6 358/1/6
f 348/4/6 340/4/6 359/4/6
f 358/4/6 348/4/6 359/4/6
f 340/1/6 329/1/6 360/1/6
f 359/4/6 340/4/6 360/4/6
f 324/1/6 349/1/6 361/1/6
f 350/4/6 351/4/6 362/4/6
f 361/1/6 349/1/6 362/1/6
f 349/4/6 350/4/6 362/4/6
f 362/4/6 351/4/6 363/4/6
f 353/1/6 354/1/6 364/1/6
f 363/4/6 351/4/6 364/4/6
f 351/1/6 352/1/6 364/1/6
f 352/1/6 353/1/6 364/1/6
f 355/4/6 356/4/6 365/4/6
f 364/1/6 354/1/6 365/1/6
f 354/4/6 355/4/6 365/4/6
f 365/4/6 356/4/6 366/4/6
f 356/1/6 357/1/6 367/1/6
f 357/4/6 358/4/6 368/4/6
f 367/1/6 357/1/6 368/1/6
f 358/4/6 359/4/6 368/4/6
f 359/1/6 360/1/6 369/1/6
f 368/4/6 359/4/6 369/4/6
f 362/4/6 363/4/6 370/4/6
f 361/4/6 362/4/6 370/4/6
f 365/1/6 366/1/6 371/1/6
f 370/4/6 363/4/6 371/4/6
f 363/1/6 364/1/6 371/1/6
f 364/1/6 365/1/6 371/1/6
f 366/4/6 356/4/6 372/4/6
f 356/1/6 367/1/6 372/1/6
f 372/1/6 367/1/6 373/1/6
f 371/1/6 366/1/6 374/1/6
f 370/1/6 371/1/6 374/1/6
f 372/4/6 373/4/6 374/4/6
f 366/4/6 372/4/6 374/4/6
f 373/1/6 367/1/6 375/1/6
f 374/4/6 373/4/6 375/4/6
f 375/1/6 367/1/6 376/1/6
f 367/4/6 368/4/6 377/4/6
f 376/1/6 367/1/6 377/1/6
f 368/1/6 369/1/6 378/1/6
f 377/4/6 368/4/6 378/4/6
f 324/1/6 361/1/6 379/1/6
f 361/4/6 370/4/6 380/4/6
f 379/1/6 361/1/6 380/1/6
f 375/1/6 376/1/6 381/1/6
f 374/1/6 375/1/6 381/1/6
f 376/4/6 377/4/6 382/4/6
f 381/1/6 376/1/6 382/1/6
f 324/1/6 379/1/6 383/1/6
f 379/4/6 380/4/6 384/4/6
f 383/1/6 379/1/6 384/1/6
f 380/4/6 370/4/6 385/4/6
f 384/4/6 380/4/6 385/4/6
f 370/1/6 374/1/6 386/1/6
f 385/4/6 370/4/6 386/4/6
f 374/1/6 381/1/6 386/1/6
f 386/1/6 381/1/6 387/1/6
f 387/1/6 381/1/6 388/1/6
f 388/1/6 381/1/6 389/1/6
f 381/4/6 382/4/6 390/4/6
f 389/1/6 381/1/6 390/1/6
f 382/4/6 377/4/6 391/4/6
f 390/4/6 382/4/6 391/4/6
f 377/1/6 378/1/6 391/1/6
f 384/4/6 385/4/6 392/4/6
f 383/4/6 384/4/6 392/4/6
f 385/1/6 386/1/6 393/1/6
f 392/4/6 385/4/6 393/4/6
f 386/1/6 387/1/6 393/1/6
f 393/1/6 387/1/6 394/1/6
f 387/4/6 388/4/6 395/4/6
f 394/1/6 387/1/6 395/1/6
f 388/1/6 389/1/6 396/1/6
f 395/4/6 388/4/6 396/4/6
f 396/1/6 389/1/6 397/1/6
f 397/1/6 389/1/6 398/1/6
f 398/1/6 389/1/6 399/1/6
f 389/4/6 390/4/6 400/4/6
f 399/1/6 389/1/6 400/1/6
f 390/1/6 391/1/6 401/1/6
f 400/4/6 390/4/6 401/4/6
f 393/1/6 394/1/6 402/1/6
f 392/1/6 393/1/6 402/1/6
f 394/4/6 395/4/6 403/4/6
f 402/1/6 394/1/6 403/1/6
f 395/1/6 396/1/6 404/1/6
f 403/4/6 395/4/6 404/4/6
f 396/1/6 397/1/6 404/1/6
f 397/4/6 398/4/6 405/4/6
f 404/1/6 397/1/6 405/1/6
f 398/1/6 399/1/6 406/1/6
f 405/4/6 398/4/6 406/4/6
f 399/4/6 400/4/6 407/4/6
f 406/1/6 399/1/6 407/1/6
f 392/1/6 402/1/6 408/1/6
f 402/4/6 403/4/6 408/4/6
f 404/1/6 405/1/6 409/1/6
f 408/4/6 403/4/6 409/4/6
f 405/1/6 406/1/6 409/1/6
f 403/1/6 404/1/6 409/1/6
f 406/4/6 407/4/6 410/4/6
f 409/1/6 406/1/6 410/1/6
f 407/4/6 400/4/6 411/4/6
f 410/4/6 407/4/6 411/4/6
f 409/1/6 410/1/6 412/1/6
f 392/1/6 408/1/6 412/1/6
f 410/1/6 411/1/6 412/1/6
f 408/1/6 409/1/6 412/1/6
f 412/1/6 411/1/6 413/1/6
f 392/1/6 412/1/6 414/1/6
f 414/1/6 412/1/6 415/1/6
f 415/1/6 412/1/6 416/1/6
f 412/4/6 413/4/6 417/4/6
f 416/1/6 412/1/6 417/1/6
f 413/1/6 411/1/6 418/1/6
f 417/4/6 413/4/6 418/4/6
f 418/1/6 411/1/6 419/1/6
f 411/4/6 400/4/6 420/4/6
f 419/1/6 411/1/6 420/1/6
f 400/1/6 401/1/6 421/1/6
f 420/4/6 400/4/6 421/4/6
f 401/1/6 391/1/6 422/1/6
f 421/1/6 401/1/6 422/1/6
f 414/4/6 415/4/6 423/4/6
f 423/4/6 415/4/6 424/4/6
f 415/1/6 416/1/6 425/1/6
f 424/4/6 415/4/6 425/4/6
f 416/4/6 417/4/6 426/4/6
f 425/1/6 416/1/6 426/1/6
f 426/4/6 417/4/6 427/4/6
f 418/1/6 419/1/6 428/1/6
f 427/4/6 417/4/6 428/4/6
f 417/1/6 418/1/6 428/1/6
f 428/1/6 419/1/6 429/1/6
f 419/4/6 420/4/6 430/4/6
f 429/1/6 419/1/6 430/1/6
f 420/4/6 421/4/6 430/4/6
f 421/4/6 422/4/6 430/4/6
f 422/1/6 391/1/6 431/1/6
f 430/4/6 422/4/6 431/4/6
f 391/1/6 378/1/6 432/1/6
f 431/1/6 391/1/6 432/1/6
f 378/1/6 369/1/6 432/1/6
f 426/4/6 427/4/6 433/4/6
f 424/4/6 425/4/6 433/4/6
f 423/1/6 424/1/6 433/1/6
f 425/4/6 426/4/6 433/4/6
f 428/1/6 429/1/6 434/1/6
f 433/4/6 427/4/6 434/4/6
f 427/1/6 428/1/6 434/1/6
f 434/1/6 429/1/6 435/1/6
f 429/4/6 430/4/6 436/4/6
f 435/1/6 429/1/6 436/1/6
f 430/1/6 431/1/6 437/1/6
f 436/4/6 430/4/6 437/4/6
f 431/4/6 432/4/6 438/4/6
f 437/1/6 431/1/6 438/1/6
f 432/1/6 369/1/6 439/1/6
f 438/4/6 432/4/6 439/4/6
f 439/1/6 369/1/6 440/1/6
f 434/1/6 435/1/6 441/1/6
f 433/1/6 434/1/6 441/1/6
f 435/4/6 436/4/6 442/4/6
f 441/1/6 435/1/6 442/1/6
f 437/1/6 438/1/6 443/1/6
f 442/4/6 436/4/6 443/4/6
f 436/1/6 437/1/6 443/1/6
f 438/1/6 439/1/6 443/1/6
f 439/4/6 440/4/6 444/4/6
f 443/1/6 439/1/6 444/1/6
f 440/1/6 369/1/6 445/1/6
f 444/4/6 440/4/6 445/4/6
f 369/1/6 360/1/6 446/1/6
f 445/1/6 369/1/6 446/1/6
f 433/1/6 441/1/6 447/1/6
f 441/4/6 442/4/6 448/4/6
f 447/1/6 441/1/6 448/1/6
f 444/1/6 445/1/6 449/1/6
f 448/4/6 442/4/6 449/4/6
f 442/1/6 443/1/6 449/1/6
f 443/1/6 444/1/6 449/1/6
f 445/4/6 446/4/6 450/4/6
f 449/1/6 445/1/6 450/1/6
f 446/1/6 360/1/6 451/1/6
f 450/4/6 446/4/6 451/4/6
f 433/1/6 447/1/6 452/1/6
f 447/4/6 448/4/6 453/4/6
f 452/1/6 447/1/6 453/1/6
f 449/1/6 450/1/6 454/1/6
f 453/4/6 448/4/6 454/4/6
f 448/1/6 449/1/6 454/1/6
f 450/1/6 451/1/6 454/1/6
f 433/1/6 452/1/6 455/1/6
f 452/4/6 453/4/6 456/4/6
f 455/1/6 452/1/6 456/1/6
f 453/1/6 454/1/6 457/1/6
f 456/4/6 453/4/6 457/4/6
f 433/1/6 455/1/6 458/1/6
f 423/1/6 433/1/6 458/1/6
f 455/4/6 456/4/6 459/4/6
f 458/1/6 455/1/6 459/1/6
f 456/1/6 457/1/6 460/1/6
f 459/4/6 456/4/6 460/4/6
f 360/1/6 329/1/6 461/1/6
f 460/1/6 457/1/6 461/1/6
f 457/1/6 454/1/6 461/1/6
f 451/1/6 360/1/6 461/1/6
f 454/1/6 451/1/6 461/1/6
