# MagicaVoxel @ Ephtracy

# group
o 

# material
mtllib go_bag.vox.mtl
usemtl palette

# normals
vn -1 0 0
vn 1 0 0
vn 0 0 1
vn 0 0 -1
vn 0 -1 0
vn 0 1 0

# texcoords
vt 0.00195312 0.5
vt 0.0136719 0.5
vt 0.0292969 0.5
vt 0.0644531 0.5
vt 0.0683594 0.5

# verts
v -0.9 0.3 -1.5
v -0.9 0.3 -1.9
v -0.9 0.4 -1.4
v -0.9 0.4 -1.5
v -0.9 0.4 -1.9
v -0.9 0.4 -2
v -0.9 1 -1.5
v -0.9 1 -1.9
v -0.9 1.1 -1.4
v -0.9 1.1 -1.5
v -0.9 1.1 -1.9
v -0.9 1.1 -2
v -0.8 0.5 -1.3
v -0.8 0.5 -1.4
v -0.8 0.5 -2
v -0.8 0.5 -2.1
v -0.8 1.1 -1.4
v -0.8 1.1 -2
v -0.8 1.2 -1.3
v -0.8 1.2 -1.4
v -0.8 1.2 -2
v -0.8 1.2 -2.1
v -0.7 0.1 -1.4
v -0.7 0.1 -2
v -0.7 0.1 -2.2
v -0.7 0.2 -2
v -0.7 0.2 -2.2
v -0.7 0.3 -1.5
v -0.7 0.3 -1.9
v -0.7 0.4 -1.4
v -0.7 0.4 -1.5
v -0.7 0.4 -1.9
v -0.7 0.4 -2
v -0.7 0.5 -1.4
v -0.7 0.5 -1.5
v -0.7 0.5 -1.9
v -0.7 0.5 -2
v -0.7 1.2 -1.4
v -0.7 1.2 -1.6
v -0.7 1.2 -1.8
v -0.7 1.2 -2
v -0.7 2.7 -1.4
v -0.7 2.7 -1.6
v -0.7 2.7 -1.8
v -0.7 2.7 -2
v -0.6 0 -1.4
v -0.6 0 -2
v -0.6 0.1 -1.4
v -0.6 0.1 -2
v -0.6 0.2 -2.1
v -0.6 0.2 -2.2
v -0.6 0.2 -2.3
v -0.6 0.3 -2.1
v -0.6 0.3 -2.3
v -0.6 1.2 -1.6
v -0.6 1.2 -1.8
v -0.6 2.7 -1.4
v -0.6 2.7 -1.6
v -0.6 2.7 -1.8
v -0.6 2.7 -2
v -0.6 3 -1.4
v -0.6 3 -1.6
v -0.6 3 -1.8
v -0.6 3 -2
v -0.5 0.3 -2.2
v -0.5 0.3 -2.3
v -0.5 0.3 -2.4
v -0.5 0.6 -1.2
v -0.5 0.6 -1.4
v -0.5 0.8 -2.2
v -0.5 0.8 -2.4
v -0.5 1.4 -1.2
v -0.5 1.4 -1.4
v -0.5 2.7 -1.6
v -0.5 2.7 -1.8
v -0.5 3 -1.4
v -0.5 3 -1.6
v -0.5 3 -1.8
v -0.5 3 -2
v -0.5 3.1 -1.4
v -0.5 3.1 -1.6
v -0.5 3.1 -1.8
v -0.5 3.1 -2
v -0.4 0.4 -1.2
v -0.4 0.4 -1.4
v -0.4 0.6 -1.2
v -0.4 0.6 -1.4
v -0.4 0.8 -2.2
v -0.4 0.8 -2.4
v -0.4 1.2 -2.2
v -0.4 1.2 -2.4
v -0.4 1.4 -1.2
v -0.4 1.4 -1.4
v -0.4 1.6 -1.2
v -0.4 1.6 -1.4
v -0.4 3 -1.6
v -0.4 3 -1.8
v -0.4 3.1 -1.4
v -0.4 3.1 -1.6
v -0.4 3.1 -1.8
v -0.4 3.1 -2
v -0.4 3.2 -1.4
v -0.4 3.2 -1.6
v -0.4 3.2 -1.8
v -0.4 3.2 -2
v -0.3 0.3 -2
v -0.3 0.3 -2.1
v -0.3 0.7 -1
v -0.3 0.7 -1.2
v -0.3 1.2 -2.2
v -0.3 1.2 -2.4
v -0.3 1.3 -1
v -0.3 1.3 -1.2
v -0.3 1.5 -2.2
v -0.3 1.5 -2.4
v -0.3 1.9 -2
v -0.3 1.9 -2.1
v -0.3 3.1 -1.6
v -0.3 3.1 -1.8
v -0.3 3.2 -1.4
v -0.3 3.2 -1.6
v -0.3 3.2 -1.8
v -0.3 3.2 -2
v -0.3 3.3 -1.4
v -0.3 3.3 -1.6
v -0.3 3.3 -1.8
v -0.3 3.3 -2
v -0.2 0.2 -2
v -0.2 0.2 -2.1
v -0.2 0.3 -1.2
v -0.2 0.3 -1.4
v -0.2 0.3 -2
v -0.2 0.3 -2.1
v -0.2 0.4 -1.2
v -0.2 0.4 -1.4
v -0.2 0.6 -1
v -0.2 0.6 -1.2
v -0.2 0.7 -1
v -0.2 0.7 -1.2
v -0.2 1.3 -1
v -0.2 1.3 -1.2
v -0.2 1.4 -1
v -0.2 1.4 -1.2
v -0.2 1.5 -2.2
v -0.2 1.5 -2.4
v -0.2 1.6 -1.2
v -0.2 1.6 -1.4
v -0.2 1.7 -1.2
v -0.2 1.7 -1.4
v -0.2 1.9 -2
v -0.2 1.9 -2.1
v -0.2 2.6 -2
v -0.2 2.6 -2.1
v -0.2 2.9 -2.1
v -0.2 2.9 -2.2
v -0.2 2.9 -2.3
v -0.2 2.9 -2.4
v -0.2 3 -2
v -0.2 3 -2.1
v -0.2 3 -2.2
v -0.2 3 -2.3
v -0.2 3.1 -2.1
v -0.2 3.1 -2.2
v -0.2 3.2 -2
v -0.2 3.2 -2.1
v -0.1 0.5 -1
v -0.1 0.5 -1.2
v -0.1 0.6 -1
v -0.1 0.6 -1.2
v -0.1 1.1 -0.9
v -0.1 1.1 -1
v -0.1 1.3 -0.9
v -0.1 1.3 -1
v -0.1 1.4 -1
v -0.1 1.4 -1.2
v -0.1 1.5 -1
v -0.1 1.5 -1.2
v -0.1 2.6 -2
v -0.1 2.6 -2.1
v -0.1 2.8 -2
v -0.1 2.8 -2.1
v -0.1 3.2 -1.6
v -0.1 3.2 -1.8
v -0.1 3.2 -2
v -0.1 3.2 -2.1
v -0.1 3.3 -1.4
v -0.1 3.3 -1.6
v -0.1 3.3 -1.8
v -0.1 3.3 -2
v -0.1 3.4 -1.4
v -0.1 3.4 -1.6
v -0.1 3.4 -1.8
v -0.1 3.4 -2
v -0.1 3.5 -2
v -0.1 3.5 -2.1
v 0 3.2 -2.1
v 0 3.2 -2.2
v 0 3.5 -2
v 0 3.5 -2.1
v 0 3.5 -2.2
v 0 3.7 -2
v 0 3.7 -2.1
v 0.1 3.3 -1.6
v 0.1 3.3 -1.8
v 0.1 3.4 -1.4
v 0.1 3.4 -1.6
v 0.1 3.4 -1.8
v 0.1 3.4 -2
v 0.1 3.5 -1.4
v 0.1 3.5 -1.6
v 0.1 3.5 -1.8
v 0.1 3.5 -2
v 0.1 3.5 -2.1
v 0.1 3.5 -2.2
v 0.1 3.6 -2.1
v 0.1 3.6 -2.2
v 0.1 3.7 -2
v 0.1 3.7 -2.1
v 0.1 3.8 -2
v 0.1 3.8 -2.1
v 0.2 3.6 -2.1
v 0.2 3.6 -2.2
v 0.2 3.7 -2.1
v 0.2 3.7 -2.2
v 0.4 3.4 -1.7
v 0.4 3.4 -1.8
v 0.4 3.5 -1.8
v 0.4 3.5 -1.9
v 0.4 3.6 -1.7
v 0.4 3.6 -1.9
v 0.5 3.4 -1.6
v 0.5 3.4 -1.7
v 0.5 3.5 -1.6
v 0.5 3.6 -1.6
v 0.5 3.6 -1.7
v 0.6 3.5 -1.5
v 0.6 3.5 -1.6
v 0.6 3.6 -1.5
v 0.6 3.6 -1.6
v 0.7 3.5 -2
v 0.7 3.5 -2.2
v 0.7 3.6 -2
v 0.7 3.6 -2.2
v 0.8 0.3 -2
v 0.8 0.3 -2.1
v 0.8 1.5 -2.2
v 0.8 1.5 -2.4
v 0.8 2.7 -2
v 0.8 2.7 -2.1
v 0.8 2.9 -2.1
v 0.8 2.9 -2.2
v 0.8 2.9 -2.3
v 0.8 2.9 -2.4
v 0.8 3 -2
v 0.8 3 -2.1
v 0.8 3 -2.2
v 0.8 3 -2.3
v 0.8 3.1 -2.1
v 0.8 3.1 -2.2
v 0.8 3.4 -2.1
v 0.8 3.4 -2.2
v 0.8 3.5 -2
v 0.8 3.5 -2.2
v 0.9 0.2 -2
v 0.9 0.2 -2.1
v 0.9 0.3 -2
v 0.9 0.3 -2.1
v 0.9 1.2 -2.2
v 0.9 1.2 -2.4
v 0.9 1.5 -2.2
v 0.9 1.5 -2.4
v 0.9 2.7 -2
v 0.9 2.7 -2.1
v 0.9 2.8 -2
v 0.9 2.8 -2.1
v 0.9 3.2 -2.1
v 0.9 3.2 -2.2
v 0.9 3.4 -2.1
v 0.9 3.4 -2.2
v 1 0.8 -2.2
v 1 0.8 -2.4
v 1 1.2 -1
v 1 1.2 -1.1
v 1 1.2 -2.2
v 1 1.2 -2.4
v 1 1.3 -1
v 1 1.3 -1.1
v 1.1 0.3 -2.2
v 1.1 0.3 -2.4
v 1.1 0.8 -2.2
v 1.1 0.8 -2.4
v 1.2 0.2 -2.1
v 1.2 0.2 -2.3
v 1.2 0.3 -2.1
v 1.2 0.3 -2.2
v 1.2 0.3 -2.3
v 1.3 0.1 -2
v 1.3 0.1 -2.2
v 1.3 0.2 -2
v 1.3 0.2 -2.1
v 1.3 0.2 -2.2
v 1.7 0.5 -1.3
v 1.7 0.5 -1.4
v 1.7 0.5 -2
v 1.7 0.5 -2.1
v 1.7 1.2 -1.3
v 1.7 1.2 -1.4
v 1.7 1.2 -2
v 1.7 1.2 -2.1
v 1.8 0.4 -1.5
v 1.8 0.4 -1.9
v 1.8 0.5 -1.4
v 1.8 0.5 -1.5
v 1.8 0.5 -1.9
v 1.8 0.5 -2
v 1.8 1 -1.5
v 1.8 1 -1.9
v 1.8 1.1 -1.4
v 1.8 1.1 -1.5
v 1.8 1.1 -1.9
v 1.8 1.1 -2
v -0.8 0.4 -1.5
v -0.8 0.4 -1.9
v -0.8 0.5 -1.4
v -0.8 0.5 -1.5
v -0.8 0.5 -1.9
v -0.8 0.5 -2
v -0.8 1 -1.5
v -0.8 1 -1.9
v -0.8 1.1 -1.4
v -0.8 1.1 -1.5
v -0.8 1.1 -1.9
v -0.8 1.1 -2
v -0.7 0.5 -1.3
v -0.7 0.5 -1.4
v -0.7 0.5 -2
v -0.7 0.5 -2.1
v -0.7 1.2 -1.3
v -0.7 1.2 -1.4
v -0.7 1.2 -2
v -0.7 1.2 -2.1
v -0.3 0.1 -2
v -0.3 0.1 -2.2
v -0.3 0.2 -2
v -0.3 0.2 -2.1
v -0.3 0.2 -2.2
v -0.2 0.2 -2.1
v -0.2 0.2 -2.3
v -0.2 0.3 -2.1
v -0.2 0.3 -2.2
v -0.2 0.3 -2.3
v -0.1 0.3 -2.2
v -0.1 0.3 -2.4
v -0.1 0.8 -2.2
v -0.1 0.8 -2.4
v 0 0.8 -2.2
v 0 0.8 -2.4
v 0 1.1 -0.9
v 0 1.1 -1
v 0 1.2 -1
v 0 1.2 -2.2
v 0 1.2 -2.4
v 0 1.3 -0.9
v 0 1.3 -1
v 0.1 0.2 -2
v 0.1 0.2 -2.1
v 0.1 0.3 -2
v 0.1 0.3 -2.1
v 0.1 1.2 -1
v 0.1 1.2 -1.1
v 0.1 1.2 -2.2
v 0.1 1.2 -2.4
v 0.1 1.3 -1
v 0.1 1.3 -1.1
v 0.1 1.5 -2.2
v 0.1 1.5 -2.4
v 0.1 2.7 -2
v 0.1 2.7 -2.1
v 0.1 2.8 -2
v 0.1 2.8 -2.1
v 0.1 3.2 -2.1
v 0.1 3.2 -2.2
v 0.1 3.4 -2.1
v 0.1 3.4 -2.2
v 0.2 0.3 -2
v 0.2 0.3 -2.1
v 0.2 1.5 -2.2
v 0.2 1.5 -2.4
v 0.2 2.7 -2
v 0.2 2.7 -2.1
v 0.2 2.9 -2.1
v 0.2 2.9 -2.2
v 0.2 2.9 -2.3
v 0.2 2.9 -2.4
v 0.2 3 -2
v 0.2 3 -2.1
v 0.2 3 -2.2
v 0.2 3 -2.3
v 0.2 3.1 -2.1
v 0.2 3.1 -2.2
v 0.2 3.4 -2.1
v 0.2 3.4 -2.2
v 0.2 3.5 -2
v 0.2 3.5 -2.2
v 0.3 3.5 -2
v 0.3 3.5 -2.2
v 0.3 3.6 -2
v 0.3 3.6 -2.2
v 0.5 3.4 -1.7
v 0.5 3.4 -1.8
v 0.5 3.5 -1.8
v 0.5 3.5 -1.9
v 0.5 3.6 -1.7
v 0.5 3.6 -1.9
v 0.6 3.4 -1.6
v 0.6 3.4 -1.7
v 0.6 3.5 -1.6
v 0.6 3.6 -1.6
v 0.6 3.6 -1.7
v 0.7 3.5 -1.5
v 0.7 3.5 -1.6
v 0.7 3.6 -1.5
v 0.7 3.6 -1.6
v 0.8 3.6 -2.1
v 0.8 3.6 -2.2
v 0.8 3.7 -2.1
v 0.8 3.7 -2.2
v 0.9 3.3 -1.6
v 0.9 3.3 -1.8
v 0.9 3.4 -1.4
v 0.9 3.4 -1.6
v 0.9 3.4 -1.8
v 0.9 3.4 -2
v 0.9 3.5 -1.4
v 0.9 3.5 -1.6
v 0.9 3.5 -1.8
v 0.9 3.5 -2
v 0.9 3.5 -2.1
v 0.9 3.5 -2.2
v 0.9 3.6 -2.1
v 0.9 3.6 -2.2
v 0.9 3.7 -2
v 0.9 3.7 -2.1
v 0.9 3.8 -2
v 0.9 3.8 -2.1
v 1 3.2 -2.1
v 1 3.2 -2.2
v 1 3.5 -2
v 1 3.5 -2.1
v 1 3.5 -2.2
v 1 3.7 -2
v 1 3.7 -2.1
v 1.1 0.5 -1
v 1.1 0.5 -1.2
v 1.1 0.6 -1
v 1.1 0.6 -1.2
v 1.1 1.4 -1
v 1.1 1.4 -1.2
v 1.1 1.5 -1
v 1.1 1.5 -1.2
v 1.1 2.6 -2
v 1.1 2.6 -2.1
v 1.1 2.8 -2
v 1.1 2.8 -2.1
v 1.1 3.2 -1.6
v 1.1 3.2 -1.8
v 1.1 3.2 -2
v 1.1 3.2 -2.1
v 1.1 3.3 -1.4
v 1.1 3.3 -1.6
v 1.1 3.3 -1.8
v 1.1 3.3 -2
v 1.1 3.4 -1.4
v 1.1 3.4 -1.6
v 1.1 3.4 -1.8
v 1.1 3.4 -2
v 1.1 3.5 -2
v 1.1 3.5 -2.1
v 1.2 0.2 -2
v 1.2 0.2 -2.1
v 1.2 0.3 -1.2
v 1.2 0.3 -1.4
v 1.2 0.3 -2
v 1.2 0.3 -2.1
v 1.2 0.4 -1.2
v 1.2 0.4 -1.4
v 1.2 0.6 -1
v 1.2 0.6 -1.2
v 1.2 0.7 -1
v 1.2 0.7 -1.2
v 1.2 1.3 -1
v 1.2 1.3 -1.2
v 1.2 1.4 -1
v 1.2 1.4 -1.2
v 1.2 1.5 -2.2
v 1.2 1.5 -2.4
v 1.2 1.6 -1.2
v 1.2 1.6 -1.4
v 1.2 1.7 -1.2
v 1.2 1.7 -1.4
v 1.2 1.9 -2
v 1.2 1.9 -2.1
v 1.2 2.6 -2
v 1.2 2.6 -2.1
v 1.2 2.9 -2.1
v 1.2 2.9 -2.2
v 1.2 2.9 -2.3
v 1.2 2.9 -2.4
v 1.2 3 -2
v 1.2 3 -2.1
v 1.2 3 -2.2
v 1.2 3 -2.3
v 1.2 3.1 -2.1
v 1.2 3.1 -2.2
v 1.2 3.2 -2
v 1.2 3.2 -2.1
v 1.3 0.3 -2
v 1.3 0.3 -2.1
v 1.3 0.7 -1
v 1.3 0.7 -1.2
v 1.3 1.2 -2.2
v 1.3 1.2 -2.4
v 1.3 1.3 -1
v 1.3 1.3 -1.2
v 1.3 1.5 -2.2
v 1.3 1.5 -2.4
v 1.3 1.9 -2
v 1.3 1.9 -2.1
v 1.3 3.1 -1.6
v 1.3 3.1 -1.8
v 1.3 3.2 -1.4
v 1.3 3.2 -1.6
v 1.3 3.2 -1.8
v 1.3 3.2 -2
v 1.3 3.3 -1.4
v 1.3 3.3 -1.6
v 1.3 3.3 -1.8
v 1.3 3.3 -2
v 1.4 0.4 -1.2
v 1.4 0.4 -1.4
v 1.4 0.6 -1.2
v 1.4 0.6 -1.4
v 1.4 0.8 -2.2
v 1.4 0.8 -2.4
v 1.4 1.2 -2.2
v 1.4 1.2 -2.4
v 1.4 1.4 -1.2
v 1.4 1.4 -1.4
v 1.4 1.6 -1.2
v 1.4 1.6 -1.4
v 1.4 3 -1.6
v 1.4 3 -1.8
v 1.4 3.1 -1.4
v 1.4 3.1 -1.6
v 1.4 3.1 -1.8
v 1.4 3.1 -2
v 1.4 3.2 -1.4
v 1.4 3.2 -1.6
v 1.4 3.2 -1.8
v 1.4 3.2 -2
v 1.5 0.3 -2.2
v 1.5 0.3 -2.3
v 1.5 0.3 -2.4
v 1.5 0.6 -1.2
v 1.5 0.6 -1.4
v 1.5 0.8 -2.2
v 1.5 0.8 -2.4
v 1.5 1.4 -1.2
v 1.5 1.4 -1.4
v 1.5 2.7 -1.6
v 1.5 2.7 -1.8
v 1.5 3 -1.4
v 1.5 3 -1.6
v 1.5 3 -1.8
v 1.5 3 -2
v 1.5 3.1 -1.4
v 1.5 3.1 -1.6
v 1.5 3.1 -1.8
v 1.5 3.1 -2
v 1.6 0 -1.4
v 1.6 0 -2
v 1.6 0.1 -1.4
v 1.6 0.1 -2
v 1.6 0.2 -2.1
v 1.6 0.2 -2.2
v 1.6 0.2 -2.3
v 1.6 0.3 -2.1
v 1.6 0.3 -2.3
v 1.6 1.2 -1.6
v 1.6 1.2 -1.8
v 1.6 2.7 -1.4
v 1.6 2.7 -1.6
v 1.6 2.7 -1.8
v 1.6 2.7 -2
v 1.6 3 -1.4
v 1.6 3 -1.6
v 1.6 3 -1.8
v 1.6 3 -2
v 1.7 0.1 -1.4
v 1.7 0.1 -2
v 1.7 0.1 -2.2
v 1.7 0.2 -2
v 1.7 0.2 -2.2
v 1.7 0.3 -1.5
v 1.7 0.3 -1.9
v 1.7 0.4 -1.4
v 1.7 0.4 -1.5
v 1.7 0.4 -1.9
v 1.7 0.4 -2
v 1.7 0.5 -1.4
v 1.7 0.5 -1.5
v 1.7 0.5 -1.9
v 1.7 0.5 -2
v 1.7 1.2 -1.4
v 1.7 1.2 -1.6
v 1.7 1.2 -1.8
v 1.7 1.2 -2
v 1.7 2.7 -1.4
v 1.7 2.7 -1.6
v 1.7 2.7 -1.8
v 1.7 2.7 -2
v 1.8 0.5 -1.3
v 1.8 0.5 -1.4
v 1.8 0.5 -2
v 1.8 0.5 -2.1
v 1.8 1.1 -1.4
v 1.8 1.1 -2
v 1.8 1.2 -1.3
v 1.8 1.2 -1.4
v 1.8 1.2 -2
v 1.8 1.2 -2.1
v 1.9 0.3 -1.5
v 1.9 0.3 -1.9
v 1.9 0.4 -1.4
v 1.9 0.4 -1.5
v 1.9 0.4 -1.9
v 1.9 0.4 -2
v 1.9 1 -1.5
v 1.9 1 -1.9
v 1.9 1.1 -1.4
v 1.9 1.1 -1.5
v 1.9 1.1 -1.9
v 1.9 1.1 -2
v -0.1 1.1 -0.9
v -0.1 1.3 -0.9
v 0 1.1 -0.9
v 0 1.3 -0.9
v -0.3 0.7 -1
v -0.3 1.3 -1
v -0.2 0.6 -1
v -0.2 0.7 -1
v -0.2 1.3 -1
v -0.2 1.4 -1
v -0.1 0.5 -1
v -0.1 0.6 -1
v -0.1 1.1 -1
v -0.1 1.3 -1
v -0.1 1.4 -1
v -0.1 1.5 -1
v 0 1.1 -1
v 0 1.2 -1
v 0 1.3 -1
v 0.1 1.2 -1
v 0.1 1.3 -1
v 1 1.2 -1
v 1 1.3 -1
v 1.1 0.5 -1
v 1.1 0.6 -1
v 1.1 1.4 -1
v 1.1 1.5 -1
v 1.2 0.6 -1
v 1.2 0.7 -1
v 1.2 1.3 -1
v 1.2 1.4 -1
v 1.3 0.7 -1
v 1.3 1.3 -1
v 0.1 1.2 -1.1
v 0.1 1.3 -1.1
v 1 1.2 -1.1
v 1 1.3 -1.1
v -0.5 0.6 -1.2
v -0.5 1.4 -1.2
v -0.4 0.4 -1.2
v -0.4 0.6 -1.2
v -0.4 1.4 -1.2
v -0.4 1.6 -1.2
v -0.3 0.7 -1.2
v -0.3 1.3 -1.2
v -0.2 0.3 -1.2
v -0.2 0.4 -1.2
v -0.2 0.6 -1.2
v -0.2 0.7 -1.2
v -0.2 1.3 -1.2
v -0.2 1.4 -1.2
v -0.2 1.6 -1.2
v -0.2 1.7 -1.2
v -0.1 0.5 -1.2
v -0.1 0.6 -1.2
v -0.1 1.4 -1.2
v -0.1 1.5 -1.2
v 1.1 0.5 -1.2
v 1.1 0.6 -1.2
v 1.1 1.4 -1.2
v 1.1 1.5 -1.2
v 1.2 0.3 -1.2
v 1.2 0.4 -1.2
v 1.2 0.6 -1.2
v 1.2 0.7 -1.2
v 1.2 1.3 -1.2
v 1.2 1.4 -1.2
v 1.2 1.6 -1.2
v 1.2 1.7 -1.2
v 1.3 0.7 -1.2
v 1.3 1.3 -1.2
v 1.4 0.4 -1.2
v 1.4 0.6 -1.2
v 1.4 1.4 -1.2
v 1.4 1.6 -1.2
v 1.5 0.6 -1.2
v 1.5 1.4 -1.2
v -0.8 0.5 -1.3
v -0.8 1.2 -1.3
v -0.7 0.5 -1.3
v -0.7 1.2 -1.3
v 1.7 0.5 -1.3
v 1.7 1.2 -1.3
v 1.8 0.5 -1.3
v 1.8 1.2 -1.3
v -0.9 0.4 -1.4
v -0.9 1.1 -1.4
v -0.8 0.5 -1.4
v -0.8 1.1 -1.4
v -0.7 0.1 -1.4
v -0.7 0.4 -1.4
v -0.7 0.5 -1.4
v -0.7 1.2 -1.4
v -0.7 2.7 -1.4
v -0.6 0 -1.4
v -0.6 0.1 -1.4
v -0.6 2.7 -1.4
v -0.6 3 -1.4
v -0.5 0.6 -1.4
v -0.5 1.4 -1.4
v -0.5 3 -1.4
v -0.5 3.1 -1.4
v -0.4 0.4 -1.4
v -0.4 0.6 -1.4
v -0.4 1.4 -1.4
v -0.4 1.6 -1.4
v -0.4 3.1 -1.4
v -0.4 3.2 -1.4
v -0.3 3.2 -1.4
v -0.3 3.3 -1.4
v -0.2 0.3 -1.4
v -0.2 0.4 -1.4
v -0.2 1.6 -1.4
v -0.2 1.7 -1.4
v -0.1 3.3 -1.4
v -0.1 3.4 -1.4
v 0.1 3.4 -1.4
v 0.1 3.5 -1.4
v 0.2 2.5 -1.4
v 0.2 2.7 -1.4
v 0.4 2.3 -1.4
v 0.4 2.5 -1.4
v 0.4 2.7 -1.4
v 0.4 2.9 -1.4
v 0.6 2.3 -1.4
v 0.6 2.5 -1.4
v 0.6 2.7 -1.4
v 0.6 2.9 -1.4
v 0.8 2.5 -1.4
v 0.8 2.7 -1.4
v 0.9 3.4 -1.4
v 0.9 3.5 -1.4
v 1.1 3.3 -1.4
v 1.1 3.4 -1.4
v 1.2 0.3 -1.4
v 1.2 0.4 -1.4
v 1.2 1.6 -1.4
v 1.2 1.7 -1.4
v 1.3 3.2 -1.4
v 1.3 3.3 -1.4
v 1.4 0.4 -1.4
v 1.4 0.6 -1.4
v 1.4 1.4 -1.4
v 1.4 1.6 -1.4
v 1.4 3.1 -1.4
v 1.4 3.2 -1.4
v 1.5 0.6 -1.4
v 1.5 1.4 -1.4
v 1.5 3 -1.4
v 1.5 3.1 -1.4
v 1.6 0 -1.4
v 1.6 0.1 -1.4
v 1.6 2.7 -1.4
v 1.6 3 -1.4
v 1.7 0.1 -1.4
v 1.7 0.4 -1.4
v 1.7 0.5 -1.4
v 1.7 1.2 -1.4
v 1.7 2.7 -1.4
v 1.8 0.5 -1.4
v 1.8 1.1 -1.4
v 1.9 0.4 -1.4
v 1.9 1.1 -1.4
v -0.9 0.3 -1.5
v -0.9 0.4 -1.5
v -0.7 0.3 -1.5
v -0.7 0.4 -1.5
v 0.6 3.5 -1.5
v 0.6 3.6 -1.5
v 0.7 3.5 -1.5
v 0.7 3.6 -1.5
v 1.7 0.3 -1.5
v 1.7 0.4 -1.5
v 1.9 0.3 -1.5
v 1.9 0.4 -1.5
v 0.5 3.5 -1.6
v 0.5 3.6 -1.6
v 0.6 3.5 -1.6
v 0.6 3.6 -1.6
v 0.4 3.4 -1.7
v 0.4 3.6 -1.7
v 0.5 3.4 -1.7
v 0.5 3.6 -1.7
v -0.7 1.2 -1.8
v -0.7 2.7 -1.8
v -0.6 1.2 -1.8
v -0.6 2.7 -1.8
v -0.6 3 -1.8
v -0.5 2.7 -1.8
v -0.5 3 -1.8
v -0.5 3.1 -1.8
v -0.4 3 -1.8
v -0.4 3.1 -1.8
v -0.4 3.2 -1.8
v -0.3 3.1 -1.8
v -0.3 3.2 -1.8
v -0.3 3.3 -1.8
v -0.1 3.2 -1.8
v -0.1 3.3 -1.8
v -0.1 3.4 -1.8
v 0.1 3.3 -1.8
v 0.1 3.4 -1.8
v 0.1 3.5 -1.8
v 0.4 3.4 -1.8
v 0.4 3.5 -1.8
v 0.5 3.4 -1.8
v 0.5 3.5 -1.8
v 0.9 3.3 -1.8
v 0.9 3.4 -1.8
v 0.9 3.5 -1.8
v 1.1 3.2 -1.8
v 1.1 3.3 -1.8
v 1.1 3.4 -1.8
v 1.3 3.1 -1.8
v 1.3 3.2 -1.8
v 1.3 3.3 -1.8
v 1.4 3 -1.8
v 1.4 3.1 -1.8
v 1.4 3.2 -1.8
v 1.5 2.7 -1.8
v 1.5 3 -1.8
v 1.5 3.1 -1.8
v 1.6 1.2 -1.8
v 1.6 2.7 -1.8
v 1.6 3 -1.8
v 1.7 1.2 -1.8
v 1.7 2.7 -1.8
v -0.9 1 -1.9
v -0.9 1.1 -1.9
v -0.8 0.4 -1.9
v -0.8 0.5 -1.9
v -0.8 1 -1.9
v -0.8 1.1 -1.9
v -0.7 0.4 -1.9
v -0.7 0.5 -1.9
v 1.7 0.4 -1.9
v 1.7 0.5 -1.9
v 1.8 0.4 -1.9
v 1.8 0.5 -1.9
v 1.8 1 -1.9
v 1.8 1.1 -1.9
v 1.9 1 -1.9
v 1.9 1.1 -1.9
v -0.8 0.5 -2
v -0.8 1.1 -2
v -0.8 1.2 -2
v -0.7 0.5 -2
v -0.7 1.2 -2
v -0.1 3.4 -2
v -0.1 3.5 -2
v 0 3.5 -2
v 0 3.7 -2
v 0.1 3.4 -2
v 0.1 3.5 -2
v 0.1 3.7 -2
v 0.1 3.8 -2
v 0.3 3.5 -2
v 0.3 3.6 -2
v 0.7 3.5 -2
v 0.7 3.6 -2
v 0.9 3.4 -2
v 0.9 3.5 -2
v 0.9 3.7 -2
v 0.9 3.8 -2
v 1 3.5 -2
v 1 3.7 -2
v 1.1 3.4 -2
v 1.1 3.5 -2
v 1.7 0.5 -2
v 1.7 1.2 -2
v 1.8 0.5 -2
v 1.8 1.1 -2
v 1.8 1.2 -2
v -0.6 0.2 -2.1
v -0.6 0.3 -2.1
v -0.3 0.2 -2.1
v -0.3 0.3 -2.1
v -0.2 0.2 -2.1
v -0.2 0.3 -2.1
v -0.2 2.9 -2.1
v -0.2 3 -2.1
v 0.2 2.9 -2.1
v 0.2 3 -2.1
v 0.8 2.9 -2.1
v 0.8 3 -2.1
v 1.2 0.2 -2.1
v 1.2 0.3 -2.1
v 1.2 2.9 -2.1
v 1.2 3 -2.1
v 1.3 0.2 -2.1
v 1.3 0.3 -2.1
v 1.6 0.2 -2.1
v 1.6 0.3 -2.1
v -0.5 0.3 -2.2
v -0.5 0.8 -2.2
v -0.4 0.8 -2.2
v -0.4 1.2 -2.2
v -0.3 1.2 -2.2
v -0.3 1.5 -2.2
v -0.2 0.3 -2.2
v -0.2 1.5 -2.2
v -0.2 2.9 -2.2
v -0.1 0.3 -2.2
v -0.1 0.8 -2.2
v 0 0.8 -2.2
v 0 1.2 -2.2
v 0.1 1.2 -2.2
v 0.1 1.5 -2.2
v 0.2 1.5 -2.2
v 0.2 2.9 -2.2
v 0.8 1.5 -2.2
v 0.8 2.9 -2.2
v 0.9 1.2 -2.2
v 0.9 1.5 -2.2
v 1 0.8 -2.2
v 1 1.2 -2.2
v 1.1 0.3 -2.2
v 1.1 0.8 -2.2
v 1.2 0.3 -2.2
v 1.2 1.5 -2.2
v 1.2 2.9 -2.2
v 1.3 1.2 -2.2
v 1.3 1.5 -2.2
v 1.4 0.8 -2.2
v 1.4 1.2 -2.2
v 1.5 0.3 -2.2
v 1.5 0.8 -2.2
v -0.8 0.5 -1.4
v -0.8 1.1 -1.4
v -0.8 1.2 -1.4
v -0.7 0.5 -1.4
v -0.7 1.2 -1.4
v 1.7 0.5 -1.4
v 1.7 1.2 -1.4
v 1.8 0.5 -1.4
v 1.8 1.1 -1.4
v 1.8 1.2 -1.4
v -0.9 1 -1.5
v -0.9 1.1 -1.5
v -0.8 0.4 -1.5
v -0.8 0.5 -1.5
v -0.8 1 -1.5
v -0.8 1.1 -1.5
v -0.7 0.4 -1.5
v -0.7 0.5 -1.5
v 1.7 0.4 -1.5
v 1.7 0.5 -1.5
v 1.8 0.4 -1.5
v 1.8 0.5 -1.5
v 1.8 1 -1.5
v 1.8 1.1 -1.5
v 1.9 1 -1.5
v 1.9 1.1 -1.5
v -0.7 1.2 -1.6
v -0.7 2.7 -1.6
v -0.6 1.2 -1.6
v -0.6 2.7 -1.6
v -0.6 3 -1.6
v -0.5 2.7 -1.6
v -0.5 3 -1.6
v -0.5 3.1 -1.6
v -0.4 3 -1.6
v -0.4 3.1 -1.6
v -0.4 3.2 -1.6
v -0.3 3.1 -1.6
v -0.3 3.2 -1.6
v -0.3 3.3 -1.6
v -0.1 3.2 -1.6
v -0.1 3.3 -1.6
v -0.1 3.4 -1.6
v 0.1 3.3 -1.6
v 0.1 3.4 -1.6
v 0.1 3.5 -1.6
v 0.5 3.4 -1.6
v 0.5 3.5 -1.6
v 0.6 3.4 -1.6
v 0.6 3.5 -1.6
v 0.6 3.6 -1.6
v 0.7 3.5 -1.6
v 0.7 3.6 -1.6
v 0.9 3.3 -1.6
v 0.9 3.4 -1.6
v 0.9 3.5 -1.6
v 1.1 3.2 -1.6
v 1.1 3.3 -1.6
v 1.1 3.4 -1.6
v 1.3 3.1 -1.6
v 1.3 3.2 -1.6
v 1.3 3.3 -1.6
v 1.4 3 -1.6
v 1.4 3.1 -1.6
v 1.4 3.2 -1.6
v 1.5 2.7 -1.6
v 1.5 3 -1.6
v 1.5 3.1 -1.6
v 1.6 1.2 -1.6
v 1.6 2.7 -1.6
v 1.6 3 -1.6
v 1.7 1.2 -1.6
v 1.7 2.7 -1.6
v 0.5 3.4 -1.7
v 0.5 3.6 -1.7
v 0.6 3.4 -1.7
v 0.6 3.6 -1.7
v -0.9 0.3 -1.9
v -0.9 0.4 -1.9
v -0.7 0.3 -1.9
v -0.7 0.4 -1.9
v 0.4 3.5 -1.9
v 0.4 3.6 -1.9
v 0.5 3.5 -1.9
v 0.5 3.6 -1.9
v 1.7 0.3 -1.9
v 1.7 0.4 -1.9
v 1.9 0.3 -1.9
v 1.9 0.4 -1.9
v -0.9 0.4 -2
v -0.9 1.1 -2
v -0.8 0.5 -2
v -0.8 1.1 -2
v -0.7 0.2 -2
v -0.7 0.4 -2
v -0.7 0.5 -2
v -0.7 1.2 -2
v -0.7 2.7 -2
v -0.6 0 -2
v -0.6 0.1 -2
v -0.6 2.7 -2
v -0.6 3 -2
v -0.5 3 -2
v -0.5 3.1 -2
v -0.4 3.1 -2
v -0.4 3.2 -2
v -0.3 0.1 -2
v -0.3 0.2 -2
v -0.3 0.3 -2
v -0.3 1.9 -2
v -0.3 3.2 -2
v -0.3 3.3 -2
v -0.2 0.2 -2
v -0.2 0.3 -2
v -0.2 1.9 -2
v -0.2 2.6 -2
v -0.2 3 -2
v -0.2 3.2 -2
v -0.1 2.6 -2
v -0.1 2.8 -2
v -0.1 3.2 -2
v -0.1 3.3 -2
v 0.1 0.2 -2
v 0.1 0.3 -2
v 0.1 2.7 -2
v 0.1 2.8 -2
v 0.2 0.3 -2
v 0.2 2.7 -2
v 0.2 3 -2
v 0.2 3.5 -2
v 0.3 3.5 -2
v 0.7 3.5 -2
v 0.8 0.3 -2
v 0.8 2.7 -2
v 0.8 3 -2
v 0.8 3.5 -2
v 0.9 0.2 -2
v 0.9 0.3 -2
v 0.9 2.7 -2
v 0.9 2.8 -2
v 1.1 2.6 -2
v 1.1 2.8 -2
v 1.1 3.2 -2
v 1.1 3.3 -2
v 1.2 0.2 -2
v 1.2 0.3 -2
v 1.2 1.9 -2
v 1.2 2.6 -2
v 1.2 3 -2
v 1.2 3.2 -2
v 1.3 0.1 -2
v 1.3 0.2 -2
v 1.3 0.3 -2
v 1.3 1.9 -2
v 1.3 3.2 -2
v 1.3 3.3 -2
v 1.4 3.1 -2
v 1.4 3.2 -2
v 1.5 3 -2
v 1.5 3.1 -2
v 1.6 0 -2
v 1.6 0.1 -2
v 1.6 2.7 -2
v 1.6 3 -2
v 1.7 0.2 -2
v 1.7 0.4 -2
v 1.7 0.5 -2
v 1.7 1.2 -2
v 1.7 2.7 -2
v 1.8 0.5 -2
v 1.8 1.1 -2
v 1.9 0.4 -2
v 1.9 1.1 -2
v -0.8 0.5 -2.1
v -0.8 1.2 -2.1
v -0.7 0.5 -2.1
v -0.7 1.2 -2.1
v -0.3 0.3 -2.1
v -0.3 1.9 -2.1
v -0.2 0.2 -2.1
v -0.2 0.3 -2.1
v -0.2 1.9 -2.1
v -0.2 2.6 -2.1
v -0.2 3.1 -2.1
v -0.2 3.2 -2.1
v -0.1 2.6 -2.1
v -0.1 2.8 -2.1
v -0.1 3.2 -2.1
v -0.1 3.5 -2.1
v 0 3.2 -2.1
v 0 3.5 -2.1
v 0 3.7 -2.1
v 0.1 0.2 -2.1
v 0.1 0.3 -2.1
v 0.1 2.7 -2.1
v 0.1 2.8 -2.1
v 0.1 3.2 -2.1
v 0.1 3.4 -2.1
v 0.1 3.5 -2.1
v 0.1 3.6 -2.1
v 0.1 3.7 -2.1
v 0.1 3.8 -2.1
v 0.2 0.3 -2.1
v 0.2 2.7 -2.1
v 0.2 3.1 -2.1
v 0.2 3.4 -2.1
v 0.2 3.6 -2.1
v 0.2 3.7 -2.1
v 0.8 0.3 -2.1
v 0.8 2.7 -2.1
v 0.8 3.1 -2.1
v 0.8 3.4 -2.1
v 0.8 3.6 -2.1
v 0.8 3.7 -2.1
v 0.9 0.2 -2.1
v 0.9 0.3 -2.1
v 0.9 2.7 -2.1
v 0.9 2.8 -2.1
v 0.9 3.2 -2.1
v 0.9 3.4 -2.1
v 0.9 3.5 -2.1
v 0.9 3.6 -2.1
v 0.9 3.7 -2.1
v 0.9 3.8 -2.1
v 1 3.2 -2.1
v 1 3.5 -2.1
v 1 3.7 -2.1
v 1.1 2.6 -2.1
v 1.1 2.8 -2.1
v 1.1 3.2 -2.1
v 1.1 3.5 -2.1
v 1.2 0.2 -2.1
v 1.2 0.3 -2.1
v 1.2 1.9 -2.1
v 1.2 2.6 -2.1
v 1.2 3.1 -2.1
v 1.2 3.2 -2.1
v 1.3 0.3 -2.1
v 1.3 1.9 -2.1
v 1.7 0.5 -2.1
v 1.7 1.2 -2.1
v 1.8 0.5 -2.1
v 1.8 1.2 -2.1
v -0.7 0.1 -2.2
v -0.7 0.2 -2.2
v -0.6 0.2 -2.2
v -0.3 0.1 -2.2
v -0.3 0.2 -2.2
v -0.2 3 -2.2
v -0.2 3.1 -2.2
v 0 3.2 -2.2
v 0 3.5 -2.2
v 0.1 3.2 -2.2
v 0.1 3.4 -2.2
v 0.1 3.5 -2.2
v 0.1 3.6 -2.2
v 0.2 3 -2.2
v 0.2 3.1 -2.2
v 0.2 3.4 -2.2
v 0.2 3.5 -2.2
v 0.2 3.6 -2.2
v 0.2 3.7 -2.2
v 0.3 3.5 -2.2
v 0.3 3.6 -2.2
v 0.7 3.5 -2.2
v 0.7 3.6 -2.2
v 0.8 3 -2.2
v 0.8 3.1 -2.2
v 0.8 3.4 -2.2
v 0.8 3.5 -2.2
v 0.8 3.6 -2.2
v 0.8 3.7 -2.2
v 0.9 3.2 -2.2
v 0.9 3.4 -2.2
v 0.9 3.5 -2.2
v 0.9 3.6 -2.2
v 1 3.2 -2.2
v 1 3.5 -2.2
v 1.2 3 -2.2
v 1.2 3.1 -2.2
v 1.3 0.1 -2.2
v 1.3 0.2 -2.2
v 1.6 0.2 -2.2
v 1.7 0.1 -2.2
v 1.7 0.2 -2.2
v -0.6 0.2 -2.3
v -0.6 0.3 -2.3
v -0.5 0.3 -2.3
v -0.2 0.2 -2.3
v -0.2 0.3 -2.3
v -0.2 2.9 -2.3
v -0.2 3 -2.3
v 0.2 2.9 -2.3
v 0.2 3 -2.3
v 0.8 2.9 -2.3
v 0.8 3 -2.3
v 1.2 0.2 -2.3
v 1.2 0.3 -2.3
v 1.2 2.9 -2.3
v 1.2 3 -2.3
v 1.5 0.3 -2.3
v 1.6 0.2 -2.3
v 1.6 0.3 -2.3
v -0.5 0.3 -2.4
v -0.5 0.8 -2.4
v -0.4 0.8 -2.4
v -0.4 1.2 -2.4
v -0.3 1.2 -2.4
v -0.3 1.5 -2.4
v -0.2 1.5 -2.4
v -0.2 2.9 -2.4
v -0.1 0.3 -2.4
v -0.1 0.8 -2.4
v 0 0.8 -2.4
v 0 1.2 -2.4
v 0.1 1.2 -2.4
v 0.1 1.5 -2.4
v 0.2 1.5 -2.4
v 0.2 2.9 -2.4
v 0.8 1.5 -2.4
v 0.8 2.9 -2.4
v 0.9 1.2 -2.4
v 0.9 1.5 -2.4
v 1 0.8 -2.4
v 1 1.2 -2.4
v 1.1 0.3 -2.4
v 1.1 0.8 -2.4
v 1.2 1.5 -2.4
v 1.2 2.9 -2.4
v 1.3 1.2 -2.4
v 1.3 1.5 -2.4
v 1.4 0.8 -2.4
v 1.4 1.2 -2.4
v 1.5 0.3 -2.4
v 1.5 0.8 -2.4
v -0.6 0 -1.4
v 1.6 0 -1.4
v -0.6 0 -2
v 1.6 0 -2
v -0.7 0.1 -1.4
v -0.6 0.1 -1.4
v 1.6 0.1 -1.4
v 1.7 0.1 -1.4
v -0.7 0.1 -2
v -0.6 0.1 -2
v -0.3 0.1 -2
v 1.3 0.1 -2
v 1.6 0.1 -2
v 1.7 0.1 -2
v -0.7 0.1 -2.2
v -0.3 0.1 -2.2
v 1.3 0.1 -2.2
v 1.7 0.1 -2.2
v -0.2 0.2 -2
v 0.1 0.2 -2
v 0.9 0.2 -2
v 1.2 0.2 -2
v -0.3 0.2 -2.1
v -0.2 0.2 -2.1
v 0.1 0.2 -2.1
v 0.9 0.2 -2.1
v 1.2 0.2 -2.1
v 1.3 0.2 -2.1
v -0.6 0.2 -2.2
v -0.3 0.2 -2.2
v 1.3 0.2 -2.2
v 1.6 0.2 -2.2
v -0.6 0.2 -2.3
v -0.2 0.2 -2.3
v 1.2 0.2 -2.3
v 1.6 0.2 -2.3
v -0.2 0.3 -1.2
v 1.2 0.3 -1.2
v -0.2 0.3 -1.4
v 1.2 0.3 -1.4
v -0.9 0.3 -1.5
v -0.7 0.3 -1.5
v 1.7 0.3 -1.5
v 1.9 0.3 -1.5
v -0.9 0.3 -1.9
v -0.7 0.3 -1.9
v 1.7 0.3 -1.9
v 1.9 0.3 -1.9
v -0.3 0.3 -2
v -0.2 0.3 -2
v 0.1 0.3 -2
v 0.2 0.3 -2
v 0.8 0.3 -2
v 0.9 0.3 -2
v 1.2 0.3 -2
v 1.3 0.3 -2
v -0.3 0.3 -2.1
v -0.2 0.3 -2.1
v 0.1 0.3 -2.1
v 0.2 0.3 -2.1
v 0.8 0.3 -2.1
v 0.9 0.3 -2.1
v 1.2 0.3 -2.1
v 1.3 0.3 -2.1
v -0.2 0.3 -2.2
v -0.1 0.3 -2.2
v 1.1 0.3 -2.2
v 1.2 0.3 -2.2
v -0.5 0.3 -2.3
v -0.2 0.3 -2.3
v 1.2 0.3 -2.3
v 1.5 0.3 -2.3
v -0.5 0.3 -2.4
v -0.1 0.3 -2.4
v 1.1 0.3 -2.4
v 1.5 0.3 -2.4
v -0.4 0.4 -1.2
v -0.2 0.4 -1.2
v 1.2 0.4 -1.2
v 1.4 0.4 -1.2
v -0.9 0.4 -1.4
v -0.7 0.4 -1.4
v -0.4 0.4 -1.4
v -0.2 0.4 -1.4
v 1.2 0.4 -1.4
v 1.4 0.4 -1.4
v 1.7 0.4 -1.4
v 1.9 0.4 -1.4
v -0.9 0.4 -1.5
v -0.7 0.4 -1.5
v 1.7 0.4 -1.5
v 1.9 0.4 -1.5
v -0.9 0.4 -1.9
v -0.7 0.4 -1.9
v 1.7 0.4 -1.9
v 1.9 0.4 -1.9
v -0.9 0.4 -2
v -0.7 0.4 -2
v 1.7 0.4 -2
v 1.9 0.4 -2
v -0.1 0.5 -1
v 1.1 0.5 -1
v -0.1 0.5 -1.2
v 1.1 0.5 -1.2
v -0.8 0.5 -1.3
v -0.7 0.5 -1.3
v 1.7 0.5 -1.3
v 1.8 0.5 -1.3
v -0.8 0.5 -1.4
v -0.7 0.5 -1.4
v 1.7 0.5 -1.4
v 1.8 0.5 -1.4
v -0.8 0.5 -2
v -0.7 0.5 -2
v 1.7 0.5 -2
v 1.8 0.5 -2
v -0.8 0.5 -2.1
v -0.7 0.5 -2.1
v 1.7 0.5 -2.1
v 1.8 0.5 -2.1
v -0.2 0.6 -1
v -0.1 0.6 -1
v 1.1 0.6 -1
v 1.2 0.6 -1
v -0.5 0.6 -1.2
v -0.4 0.6 -1.2
v -0.2 0.6 -1.2
v -0.1 0.6 -1.2
v 1.1 0.6 -1.2
v 1.2 0.6 -1.2
v 1.4 0.6 -1.2
v 1.5 0.6 -1.2
v -0.5 0.6 -1.4
v -0.4 0.6 -1.4
v 1.4 0.6 -1.4
v 1.5 0.6 -1.4
v -0.3 0.7 -1
v -0.2 0.7 -1
v 1.2 0.7 -1
v 1.3 0.7 -1
v -0.3 0.7 -1.2
v -0.2 0.7 -1.2
v 1.2 0.7 -1.2
v 1.3 0.7 -1.2
v -0.1 0.8 -2.2
v 0 0.8 -2.2
v 1 0.8 -2.2
v 1.1 0.8 -2.2
v -0.1 0.8 -2.4
v 0 0.8 -2.4
v 1 0.8 -2.4
v 1.1 0.8 -2.4
v -0.1 1.1 -0.9
v 0 1.1 -0.9
v -0.1 1.1 -1
v 0 1.1 -1
v 0 1.2 -2.2
v 0.1 1.2 -2.2
v 0.9 1.2 -2.2
v 1 1.2 -2.2
v 0 1.2 -2.4
v 0.1 1.2 -2.4
v 0.9 1.2 -2.4
v 1 1.2 -2.4
v 0.1 1.3 -1
v 1 1.3 -1
v 0.1 1.3 -1.1
v 1 1.3 -1.1
v 0.1 1.5 -2.2
v 0.2 1.5 -2.2
v 0.8 1.5 -2.2
v 0.9 1.5 -2.2
v 0.1 1.5 -2.4
v 0.2 1.5 -2.4
v 0.8 1.5 -2.4
v 0.9 1.5 -2.4
v -0.2 2.9 -2.1
v 0.2 2.9 -2.1
v 0.8 2.9 -2.1
v 1.2 2.9 -2.1
v -0.2 2.9 -2.2
v 0.2 2.9 -2.2
v 0.8 2.9 -2.2
v 1.2 2.9 -2.2
v -0.2 3 -2
v 0.2 3 -2
v 0.8 3 -2
v 1.2 3 -2
v -0.2 3 -2.1
v 0.2 3 -2.1
v 0.8 3 -2.1
v 1.2 3 -2.1
v 0 3.2 -2.1
v 0.1 3.2 -2.1
v 0.9 3.2 -2.1
v 1 3.2 -2.1
v 0 3.2 -2.2
v 0.1 3.2 -2.2
v 0.9 3.2 -2.2
v 1 3.2 -2.2
v 0.1 3.4 -2.1
v 0.2 3.4 -2.1
v 0.8 3.4 -2.1
v 0.9 3.4 -2.1
v 0.1 3.4 -2.2
v 0.2 3.4 -2.2
v 0.8 3.4 -2.2
v 0.9 3.4 -2.2
v 0.2 3.5 -2
v 0.3 3.5 -2
v 0.7 3.5 -2
v 0.8 3.5 -2
v 0.2 3.5 -2.2
v 0.3 3.5 -2.2
v 0.7 3.5 -2.2
v 0.8 3.5 -2.2
v 0.3 3.6 -2
v 0.7 3.6 -2
v 0.3 3.6 -2.2
v 0.7 3.6 -2.2
v -0.7 0.2 -2
v -0.3 0.2 -2
v 1.3 0.2 -2
v 1.7 0.2 -2
v -0.6 0.2 -2.1
v -0.3 0.2 -2.1
v 1.3 0.2 -2.1
v 1.6 0.2 -2.1
v -0.7 0.2 -2.2
v -0.6 0.2 -2.2
v 1.6 0.2 -2.2
v 1.7 0.2 -2.2
v -0.6 0.3 -2.1
v -0.3 0.3 -2.1
v -0.2 0.3 -2.1
v 1.2 0.3 -2.1
v 1.3 0.3 -2.1
v 1.6 0.3 -2.1
v -0.5 0.3 -2.2
v -0.2 0.3 -2.2
v 1.2 0.3 -2.2
v 1.5 0.3 -2.2
v -0.6 0.3 -2.3
v -0.5 0.3 -2.3
v 1.5 0.3 -2.3
v 1.6 0.3 -2.3
v -0.8 0.4 -1.5
v -0.7 0.4 -1.5
v 1.7 0.4 -1.5
v 1.8 0.4 -1.5
v -0.8 0.4 -1.9
v -0.7 0.4 -1.9
v 1.7 0.4 -1.9
v 1.8 0.4 -1.9
v -0.8 0.5 -1.4
v -0.7 0.5 -1.4
v 1.7 0.5 -1.4
v 1.8 0.5 -1.4
v -0.8 0.5 -1.5
v -0.7 0.5 -1.5
v 1.7 0.5 -1.5
v 1.8 0.5 -1.5
v -0.8 0.5 -1.9
v -0.7 0.5 -1.9
v 1.7 0.5 -1.9
v 1.8 0.5 -1.9
v -0.8 0.5 -2
v -0.7 0.5 -2
v 1.7 0.5 -2
v 1.8 0.5 -2
v -0.5 0.8 -2.2
v -0.4 0.8 -2.2
v 1.4 0.8 -2.2
v 1.5 0.8 -2.2
v -0.5 0.8 -2.4
v -0.4 0.8 -2.4
v 1.4 0.8 -2.4
v 1.5 0.8 -2.4
v -0.9 1 -1.5
v -0.8 1 -1.5
v 1.8 1 -1.5
v 1.9 1 -1.5
v -0.9 1 -1.9
v -0.8 1 -1.9
v 1.8 1 -1.9
v 1.9 1 -1.9
v -0.9 1.1 -1.4
v -0.8 1.1 -1.4
v 1.8 1.1 -1.4
v 1.9 1.1 -1.4
v -0.9 1.1 -1.5
v -0.8 1.1 -1.5
v 1.8 1.1 -1.5
v 1.9 1.1 -1.5
v -0.9 1.1 -1.9
v -0.8 1.1 -1.9
v 1.8 1.1 -1.9
v 1.9 1.1 -1.9
v -0.9 1.1 -2
v -0.8 1.1 -2
v 1.8 1.1 -2
v 1.9 1.1 -2
v 0.1 1.2 -1
v 1 1.2 -1
v 0.1 1.2 -1.1
v 1 1.2 -1.1
v -0.8 1.2 -1.3
v -0.7 1.2 -1.3
v 1.7 1.2 -1.3
v 1.8 1.2 -1.3
v -0.8 1.2 -1.4
v -0.7 1.2 -1.4
v 1.7 1.2 -1.4
v 1.8 1.2 -1.4
v -0.7 1.2 -1.6
v -0.6 1.2 -1.6
v 1.6 1.2 -1.6
v 1.7 1.2 -1.6
v -0.7 1.2 -1.8
v -0.6 1.2 -1.8
v 1.6 1.2 -1.8
v 1.7 1.2 -1.8
v -0.8 1.2 -2
v -0.7 1.2 -2
v 1.7 1.2 -2
v 1.8 1.2 -2
v -0.8 1.2 -2.1
v -0.7 1.2 -2.1
v 1.7 1.2 -2.1
v 1.8 1.2 -2.1
v -0.4 1.2 -2.2
v -0.3 1.2 -2.2
v 1.3 1.2 -2.2
v 1.4 1.2 -2.2
v -0.4 1.2 -2.4
v -0.3 1.2 -2.4
v 1.3 1.2 -2.4
v 1.4 1.2 -2.4
v -0.1 1.3 -0.9
v 0 1.3 -0.9
v -0.3 1.3 -1
v -0.2 1.3 -1
v -0.1 1.3 -1
v 0 1.3 -1
v 1.2 1.3 -1
v 1.3 1.3 -1
v -0.3 1.3 -1.2
v -0.2 1.3 -1.2
v 1.2 1.3 -1.2
v 1.3 1.3 -1.2
v -0.2 1.4 -1
v -0.1 1.4 -1
v 1.1 1.4 -1
v 1.2 1.4 -1
v -0.5 1.4 -1.2
v -0.4 1.4 -1.2
v -0.2 1.4 -1.2
v -0.1 1.4 -1.2
v 1.1 1.4 -1.2
v 1.2 1.4 -1.2
v 1.4 1.4 -1.2
v 1.5 1.4 -1.2
v -0.5 1.4 -1.4
v -0.4 1.4 -1.4
v 1.4 1.4 -1.4
v 1.5 1.4 -1.4
v -0.1 1.5 -1
v 1.1 1.5 -1
v -0.1 1.5 -1.2
v 1.1 1.5 -1.2
v -0.3 1.5 -2.2
v -0.2 1.5 -2.2
v 1.2 1.5 -2.2
v 1.3 1.5 -2.2
v -0.3 1.5 -2.4
v -0.2 1.5 -2.4
v 1.2 1.5 -2.4
v 1.3 1.5 -2.4
v -0.4 1.6 -1.2
v -0.2 1.6 -1.2
v 1.2 1.6 -1.2
v 1.4 1.6 -1.2
v -0.4 1.6 -1.4
v -0.2 1.6 -1.4
v 1.2 1.6 -1.4
v 1.4 1.6 -1.4
v -0.2 1.7 -1.2
v 1.2 1.7 -1.2
v -0.2 1.7 -1.4
v 1.2 1.7 -1.4
v -0.3 1.9 -2
v -0.2 1.9 -2
v 1.2 1.9 -2
v 1.3 1.9 -2
v -0.3 1.9 -2.1
v -0.2 1.9 -2.1
v 1.2 1.9 -2.1
v 1.3 1.9 -2.1
v -0.2 2.6 -2
v -0.1 2.6 -2
v 1.1 2.6 -2
v 1.2 2.6 -2
v -0.2 2.6 -2.1
v -0.1 2.6 -2.1
v 1.1 2.6 -2.1
v 1.2 2.6 -2.1
v -0.7 2.7 -1.4
v -0.6 2.7 -1.4
v 1.6 2.7 -1.4
v 1.7 2.7 -1.4
v -0.7 2.7 -1.6
v -0.6 2.7 -1.6
v -0.5 2.7 -1.6
v 1.5 2.7 -1.6
v 1.6 2.7 -1.6
v 1.7 2.7 -1.6
v -0.7 2.7 -1.8
v -0.6 2.7 -1.8
v -0.5 2.7 -1.8
v 1.5 2.7 -1.8
v 1.6 2.7 -1.8
v 1.7 2.7 -1.8
v -0.7 2.7 -2
v -0.6 2.7 -2
v 0.1 2.7 -2
v 0.2 2.7 -2
v 0.8 2.7 -2
v 0.9 2.7 -2
v 1.6 2.7 -2
v 1.7 2.7 -2
v 0.1 2.7 -2.1
v 0.2 2.7 -2.1
v 0.8 2.7 -2.1
v 0.9 2.7 -2.1
v -0.1 2.8 -2
v 0.1 2.8 -2
v 0.9 2.8 -2
v 1.1 2.8 -2
v -0.1 2.8 -2.1
v 0.1 2.8 -2.1
v 0.9 2.8 -2.1
v 1.1 2.8 -2.1
v -0.2 2.9 -2.3
v 0.2 2.9 -2.3
v 0.8 2.9 -2.3
v 1.2 2.9 -2.3
v -0.2 2.9 -2.4
v 0.2 2.9 -2.4
v 0.8 2.9 -2.4
v 1.2 2.9 -2.4
v -0.6 3 -1.4
v -0.5 3 -1.4
v 1.5 3 -1.4
v 1.6 3 -1.4
v -0.6 3 -1.6
v -0.5 3 -1.6
v -0.4 3 -1.6
v 1.4 3 -1.6
v 1.5 3 -1.6
v 1.6 3 -1.6
v -0.6 3 -1.8
v -0.5 3 -1.8
v -0.4 3 -1.8
v 1.4 3 -1.8
v 1.5 3 -1.8
v 1.6 3 -1.8
v -0.6 3 -2
v -0.5 3 -2
v 1.5 3 -2
v 1.6 3 -2
v -0.2 3 -2.2
v 0.2 3 -2.2
v 0.8 3 -2.2
v 1.2 3 -2.2
v -0.2 3 -2.3
v 0.2 3 -2.3
v 0.8 3 -2.3
v 1.2 3 -2.3
v -0.5 3.1 -1.4
v -0.4 3.1 -1.4
v 1.4 3.1 -1.4
v 1.5 3.1 -1.4
v -0.5 3.1 -1.6
v -0.4 3.1 -1.6
v -0.3 3.1 -1.6
v 1.3 3.1 -1.6
v 1.4 3.1 -1.6
v 1.5 3.1 -1.6
v -0.5 3.1 -1.8
v -0.4 3.1 -1.8
v -0.3 3.1 -1.8
v 1.3 3.1 -1.8
v 1.4 3.1 -1.8
v 1.5 3.1 -1.8
v -0.5 3.1 -2
v -0.4 3.1 -2
v 1.4 3.1 -2
v 1.5 3.1 -2
v -0.2 3.1 -2.1
v 0.2 3.1 -2.1
v 0.8 3.1 -2.1
v 1.2 3.1 -2.1
v -0.2 3.1 -2.2
v 0.2 3.1 -2.2
v 0.8 3.1 -2.2
v 1.2 3.1 -2.2
v -0.4 3.2 -1.4
v -0.3 3.2 -1.4
v 1.3 3.2 -1.4
v 1.4 3.2 -1.4
v -0.4 3.2 -1.6
v -0.3 3.2 -1.6
v -0.1 3.2 -1.6
v 1.1 3.2 -1.6
v 1.3 3.2 -1.6
v 1.4 3.2 -1.6
v -0.4 3.2 -1.8
v -0.3 3.2 -1.8
v -0.1 3.2 -1.8
v 1.1 3.2 -1.8
v 1.3 3.2 -1.8
v 1.4 3.2 -1.8
v -0.4 3.2 -2
v -0.3 3.2 -2
v -0.2 3.2 -2
v -0.1 3.2 -2
v 1.1 3.2 -2
v 1.2 3.2 -2
v 1.3 3.2 -2
v 1.4 3.2 -2
v -0.2 3.2 -2.1
v -0.1 3.2 -2.1
v 1.1 3.2 -2.1
v 1.2 3.2 -2.1
v -0.3 3.3 -1.4
v -0.1 3.3 -1.4
v 1.1 3.3 -1.4
v 1.3 3.3 -1.4
v -0.3 3.3 -1.6
v -0.1 3.3 -1.6
v 0.1 3.3 -1.6
v 0.9 3.3 -1.6
v 1.1 3.3 -1.6
v 1.3 3.3 -1.6
v -0.3 3.3 -1.8
v -0.1 3.3 -1.8
v 0.1 3.3 -1.8
v 0.9 3.3 -1.8
v 1.1 3.3 -1.8
v 1.3 3.3 -1.8
v -0.3 3.3 -2
v -0.1 3.3 -2
v 1.1 3.3 -2
v 1.3 3.3 -2
v -0.1 3.4 -1.4
v 0.1 3.4 -1.4
v 0.9 3.4 -1.4
v 1.1 3.4 -1.4
v -0.1 3.4 -1.6
v 0.1 3.4 -1.6
v 0.5 3.4 -1.6
v 0.6 3.4 -1.6
v 0.9 3.4 -1.6
v 1.1 3.4 -1.6
v 0.4 3.4 -1.7
v 0.5 3.4 -1.7
v 0.6 3.4 -1.7
v -0.1 3.4 -1.8
v 0.1 3.4 -1.8
v 0.4 3.4 -1.8
v 0.5 3.4 -1.8
v 0.9 3.4 -1.8
v 1.1 3.4 -1.8
v -0.1 3.4 -2
v 0.1 3.4 -2
v 0.9 3.4 -2
v 1.1 3.4 -2
v 0.1 3.5 -1.4
v 0.9 3.5 -1.4
v 0.6 3.5 -1.5
v 0.7 3.5 -1.5
v 0.1 3.5 -1.6
v 0.5 3.5 -1.6
v 0.6 3.5 -1.6
v 0.7 3.5 -1.6
v 0.9 3.5 -1.6
v 0.1 3.5 -1.8
v 0.4 3.5 -1.8
v 0.5 3.5 -1.8
v 0.9 3.5 -1.8
v 0.4 3.5 -1.9
v 0.5 3.5 -1.9
v -0.1 3.5 -2
v 0 3.5 -2
v 0.1 3.5 -2
v 0.3 3.5 -2
v 0.7 3.5 -2
v 0.9 3.5 -2
v 1 3.5 -2
v 1.1 3.5 -2
v -0.1 3.5 -2.1
v 0 3.5 -2.1
v 0.1 3.5 -2.1
v 0.9 3.5 -2.1
v 1 3.5 -2.1
v 1.1 3.5 -2.1
v 0 3.5 -2.2
v 0.1 3.5 -2.2
v 0.9 3.5 -2.2
v 1 3.5 -2.2
v 0.6 3.6 -1.5
v 0.7 3.6 -1.5
v 0.5 3.6 -1.6
v 0.6 3.6 -1.6
v 0.7 3.6 -1.6
v 0.4 3.6 -1.7
v 0.5 3.6 -1.7
v 0.6 3.6 -1.7
v 0.4 3.6 -1.9
v 0.5 3.6 -1.9
v 0.1 3.6 -2.1
v 0.2 3.6 -2.1
v 0.8 3.6 -2.1
v 0.9 3.6 -2.1
v 0.1 3.6 -2.2
v 0.2 3.6 -2.2
v 0.8 3.6 -2.2
v 0.9 3.6 -2.2
v 0 3.7 -2
v 0.1 3.7 -2
v 0.9 3.7 -2
v 1 3.7 -2
v 0 3.7 -2.1
v 0.1 3.7 -2.1
v 0.2 3.7 -2.1
v 0.8 3.7 -2.1
v 0.9 3.7 -2.1
v 1 3.7 -2.1
v 0.2 3.7 -2.2
v 0.8 3.7 -2.2
v 0.1 3.8 -2
v 0.9 3.8 -2
v 0.1 3.8 -2.1
v 0.9 3.8 -2.1

# faces
f 4/4/1 2/4/1 1/4/1
f 5/4/1 2/4/1 4/4/1
f 7/4/1 4/4/1 3/4/1
f 7/4/1 6/4/1 5/4/1
f 7/4/1 5/4/1 4/4/1
f 8/4/1 6/4/1 7/4/1
f 9/4/1 7/4/1 3/4/1
f 10/4/1 7/4/1 9/4/1
f 11/4/1 6/4/1 8/4/1
f 12/4/1 6/4/1 11/4/1
f 17/4/1 14/4/1 13/4/1
f 18/4/1 16/4/1 15/4/1
f 19/4/1 17/4/1 13/4/1
f 20/4/1 17/4/1 19/4/1
f 21/4/1 16/4/1 18/4/1
f 22/4/1 16/4/1 21/4/1
f 26/4/1 24/4/1 23/4/1
f 26/2/1 25/2/1 24/2/1
f 27/2/1 25/2/1 26/2/1
f 28/4/1 26/4/1 23/4/1
f 29/4/1 26/4/1 28/4/1
f 30/4/1 28/4/1 23/4/1
f 31/4/1 28/4/1 30/4/1
f 32/4/1 26/4/1 29/4/1
f 33/4/1 26/4/1 32/4/1
f 35/4/1 32/4/1 31/4/1
f 36/4/1 32/4/1 35/4/1
f 38/4/1 35/4/1 34/4/1
f 38/4/1 37/4/1 36/4/1
f 38/4/1 36/4/1 35/4/1
f 39/4/1 37/4/1 38/4/1
f 40/4/1 37/4/1 39/4/1
f 41/4/1 37/4/1 40/4/1
f 42/4/1 39/4/1 38/4/1
f 43/4/1 39/4/1 42/4/1
f 44/4/1 41/4/1 40/4/1
f 45/4/1 41/4/1 44/4/1
f 48/4/1 47/4/1 46/4/1
f 49/4/1 47/4/1 48/4/1
f 53/2/1 51/2/1 50/2/1
f 53/2/1 52/2/1 51/2/1
f 54/2/1 52/2/1 53/2/1
f 58/5/1 56/5/1 55/5/1
f 59/5/1 56/5/1 58/5/1
f 61/4/1 58/4/1 57/4/1
f 62/4/1 58/4/1 61/4/1
f 63/4/1 60/4/1 59/4/1
f 64/4/1 60/4/1 63/4/1
f 70/2/1 66/2/1 65/2/1
f 70/2/1 67/2/1 66/2/1
f 71/2/1 67/2/1 70/2/1
f 72/4/1 69/4/1 68/4/1
f 73/4/1 69/4/1 72/4/1
f 77/5/1 75/5/1 74/5/1
f 78/5/1 75/5/1 77/5/1
f 80/4/1 77/4/1 76/4/1
f 81/4/1 77/4/1 80/4/1
f 82/4/1 79/4/1 78/4/1
f 83/4/1 79/4/1 82/4/1
f 86/4/1 85/4/1 84/4/1
f 87/4/1 85/4/1 86/4/1
f 90/2/1 89/2/1 88/2/1
f 91/2/1 89/2/1 90/2/1
f 94/4/1 93/4/1 92/4/1
f 95/4/1 93/4/1 94/4/1
f 99/5/1 97/5/1 96/5/1
f 100/5/1 97/5/1 99/5/1
f 102/4/1 99/4/1 98/4/1
f 103/4/1 99/4/1 102/4/1
f 104/4/1 101/4/1 100/4/1
f 105/4/1 101/4/1 104/4/1
f 112/4/1 109/4/1 108/4/1
f 113/4/1 109/4/1 112/4/1
f 114/2/1 111/2/1 110/2/1
f 115/2/1 111/2/1 114/2/1
f 116/4/1 107/4/1 106/4/1
f 117/4/1 107/4/1 116/4/1
f 121/5/1 119/5/1 118/5/1
f 122/5/1 119/5/1 121/5/1
f 124/4/1 121/4/1 120/4/1
f 125/4/1 121/4/1 124/4/1
f 126/4/1 123/4/1 122/4/1
f 127/4/1 123/4/1 126/4/1
f 132/4/1 129/4/1 128/4/1
f 133/4/1 129/4/1 132/4/1
f 134/4/1 131/4/1 130/4/1
f 135/4/1 131/4/1 134/4/1
f 138/4/1 137/4/1 136/4/1
f 139/4/1 137/4/1 138/4/1
f 142/4/1 141/4/1 140/4/1
f 143/4/1 141/4/1 142/4/1
f 148/4/1 147/4/1 146/4/1
f 149/4/1 147/4/1 148/4/1
f 152/4/1 151/4/1 150/4/1
f 153/4/1 151/4/1 152/4/1
f 155/2/1 145/2/1 144/2/1
f 156/2/1 145/2/1 155/2/1
f 157/2/1 145/2/1 156/2/1
f 159/2/1 155/2/1 154/2/1
f 159/2/1 156/2/1 155/2/1
f 160/2/1 156/2/1 159/2/1
f 161/2/1 156/2/1 160/2/1
f 162/2/1 159/2/1 158/2/1
f 162/2/1 160/2/1 159/2/1
f 163/2/1 160/2/1 162/2/1
f 164/2/1 162/2/1 158/2/1
f 165/2/1 162/2/1 164/2/1
f 168/4/1 167/4/1 166/4/1
f 169/4/1 167/4/1 168/4/1
f 172/3/1 171/3/1 170/3/1
f 173/3/1 171/3/1 172/3/1
f 176/4/1 175/4/1 174/4/1
f 177/4/1 175/4/1 176/4/1
f 180/4/1 179/4/1 178/4/1
f 181/4/1 179/4/1 180/4/1
f 187/5/1 183/5/1 182/5/1
f 188/5/1 183/5/1 187/5/1
f 189/2/1 185/2/1 184/2/1
f 190/4/1 187/4/1 186/4/1
f 191/4/1 187/4/1 190/4/1
f 192/4/1 189/4/1 188/4/1
f 193/2/1 185/2/1 189/2/1
f 193/4/1 189/4/1 192/4/1
f 194/2/1 185/2/1 193/2/1
f 195/2/1 185/2/1 194/2/1
f 199/2/1 197/2/1 196/2/1
f 200/2/1 197/2/1 199/2/1
f 201/2/1 199/2/1 198/2/1
f 202/2/1 199/2/1 201/2/1
f 206/5/1 204/5/1 203/5/1
f 207/5/1 204/5/1 206/5/1
f 209/4/1 206/4/1 205/4/1
f 210/4/1 206/4/1 209/4/1
f 211/4/1 208/4/1 207/4/1
f 212/4/1 208/4/1 211/4/1
f 215/2/1 214/2/1 213/2/1
f 216/2/1 214/2/1 215/2/1
f 219/2/1 218/2/1 217/2/1
f 220/2/1 218/2/1 219/2/1
f 223/2/1 222/2/1 221/2/1
f 224/2/1 222/2/1 223/2/1
f 227/3/1 226/3/1 225/3/1
f 229/3/1 227/3/1 225/3/1
f 229/3/1 228/3/1 227/3/1
f 230/3/1 228/3/1 229/3/1
f 233/3/1 232/3/1 231/3/1
f 234/3/1 232/3/1 233/3/1
f 235/3/1 232/3/1 234/3/1
f 238/3/1 237/3/1 236/3/1
f 239/3/1 237/3/1 238/3/1
f 242/2/1 241/2/1 240/2/1
f 243/2/1 241/2/1 242/2/1
f 248/4/1 245/4/1 244/4/1
f 249/4/1 245/4/1 248/4/1
f 251/2/1 247/2/1 246/2/1
f 252/2/1 247/2/1 251/2/1
f 253/2/1 247/2/1 252/2/1
f 255/2/1 251/2/1 250/2/1
f 255/2/1 252/2/1 251/2/1
f 256/2/1 252/2/1 255/2/1
f 257/2/1 252/2/1 256/2/1
f 258/2/1 255/2/1 254/2/1
f 258/2/1 256/2/1 255/2/1
f 259/2/1 256/2/1 258/2/1
f 260/2/1 258/2/1 254/2/1
f 262/2/1 260/2/1 254/2/1
f 262/2/1 261/2/1 260/2/1
f 263/2/1 261/2/1 262/2/1
f 266/4/1 265/4/1 264/4/1
f 267/4/1 265/4/1 266/4/1
f 270/2/1 269/2/1 268/2/1
f 271/2/1 269/2/1 270/2/1
f 274/4/1 273/4/1 272/4/1
f 275/4/1 273/4/1 274/4/1
f 278/2/1 277/2/1 276/2/1
f 279/2/1 277/2/1 278/2/1
f 284/2/1 281/2/1 280/2/1
f 285/2/1 281/2/1 284/2/1
f 286/4/1 283/4/1 282/4/1
f 287/4/1 283/4/1 286/4/1
f 290/2/1 289/2/1 288/2/1
f 291/2/1 289/2/1 290/2/1
f 294/2/1 293/2/1 292/2/1
f 295/2/1 293/2/1 294/2/1
f 296/2/1 293/2/1 295/2/1
f 299/2/1 298/2/1 297/2/1
f 300/2/1 298/2/1 299/2/1
f 301/2/1 298/2/1 300/2/1
f 306/4/1 303/4/1 302/4/1
f 307/4/1 303/4/1 306/4/1
f 308/4/1 305/4/1 304/4/1
f 309/4/1 305/4/1 308/4/1
f 313/4/1 311/4/1 310/4/1
f 314/4/1 311/4/1 313/4/1
f 316/4/1 313/4/1 312/4/1
f 316/4/1 315/4/1 314/4/1
f 316/4/1 314/4/1 313/4/1
f 317/4/1 315/4/1 316/4/1
f 318/4/1 316/4/1 312/4/1
f 319/4/1 316/4/1 318/4/1
f 320/4/1 315/4/1 317/4/1
f 321/4/1 315/4/1 320/4/1
f 322/4/2 323/4/2 325/4/2
f 325/4/2 323/4/2 326/4/2
f 324/4/2 325/4/2 328/4/2
f 326/4/2 327/4/2 328/4/2
f 325/4/2 326/4/2 328/4/2
f 328/4/2 327/4/2 329/4/2
f 324/4/2 328/4/2 330/4/2
f 330/4/2 328/4/2 331/4/2
f 329/4/2 327/4/2 332/4/2
f 332/4/2 327/4/2 333/4/2
f 334/4/2 335/4/2 338/4/2
f 338/4/2 335/4/2 339/4/2
f 336/4/2 337/4/2 340/4/2
f 340/4/2 337/4/2 341/4/2
f 342/2/2 343/2/2 344/2/2
f 344/2/2 343/2/2 345/2/2
f 345/2/2 343/2/2 346/2/2
f 347/2/2 348/2/2 349/2/2
f 349/2/2 348/2/2 350/2/2
f 350/2/2 348/2/2 351/2/2
f 352/2/2 353/2/2 354/2/2
f 354/2/2 353/2/2 355/2/2
f 358/3/2 359/3/2 360/3/2
f 356/2/2 357/2/2 361/2/2
f 361/2/2 357/2/2 362/2/2
f 358/3/2 360/3/2 363/3/2
f 363/3/2 360/3/2 364/3/2
f 365/4/2 366/4/2 367/4/2
f 367/4/2 366/4/2 368/4/2
f 369/3/2 370/3/2 373/3/2
f 373/3/2 370/3/2 374/3/2
f 371/2/2 372/2/2 375/2/2
f 375/2/2 372/2/2 376/2/2
f 377/4/2 378/4/2 379/4/2
f 379/4/2 378/4/2 380/4/2
f 381/2/2 382/2/2 383/2/2
f 383/2/2 382/2/2 384/2/2
f 385/4/2 386/4/2 389/4/2
f 389/4/2 386/4/2 390/4/2
f 387/2/2 388/2/2 392/2/2
f 392/2/2 388/2/2 393/2/2
f 393/2/2 388/2/2 394/2/2
f 391/2/2 392/2/2 396/2/2
f 392/2/2 393/2/2 396/2/2
f 396/2/2 393/2/2 397/2/2
f 397/2/2 393/2/2 398/2/2
f 395/2/2 396/2/2 399/2/2
f 396/2/2 397/2/2 399/2/2
f 399/2/2 397/2/2 400/2/2
f 395/2/2 399/2/2 401/2/2
f 395/2/2 401/2/2 403/2/2
f 401/2/2 402/2/2 403/2/2
f 403/2/2 402/2/2 404/2/2
f 405/2/2 406/2/2 407/2/2
f 407/2/2 406/2/2 408/2/2
f 409/3/2 410/3/2 411/3/2
f 409/3/2 411/3/2 413/3/2
f 411/3/2 412/3/2 413/3/2
f 413/3/2 412/3/2 414/3/2
f 415/3/2 416/3/2 417/3/2
f 417/3/2 416/3/2 418/3/2
f 418/3/2 416/3/2 419/3/2
f 420/3/2 421/3/2 422/3/2
f 422/3/2 421/3/2 423/3/2
f 424/2/2 425/2/2 426/2/2
f 426/2/2 425/2/2 427/2/2
f 428/5/2 429/5/2 431/5/2
f 431/5/2 429/5/2 432/5/2
f 430/4/2 431/4/2 434/4/2
f 434/4/2 431/4/2 435/4/2
f 432/4/2 433/4/2 436/4/2
f 436/4/2 433/4/2 437/4/2
f 438/2/2 439/2/2 440/2/2
f 440/2/2 439/2/2 441/2/2
f 442/2/2 443/2/2 444/2/2
f 444/2/2 443/2/2 445/2/2
f 446/2/2 447/2/2 449/2/2
f 449/2/2 447/2/2 450/2/2
f 448/2/2 449/2/2 451/2/2
f 451/2/2 449/2/2 452/2/2
f 453/4/2 454/4/2 455/4/2
f 455/4/2 454/4/2 456/4/2
f 457/4/2 458/4/2 459/4/2
f 459/4/2 458/4/2 460/4/2
f 461/4/2 462/4/2 463/4/2
f 463/4/2 462/4/2 464/4/2
f 465/5/2 466/5/2 470/5/2
f 470/5/2 466/5/2 471/5/2
f 467/2/2 468/2/2 472/2/2
f 469/4/2 470/4/2 473/4/2
f 473/4/2 470/4/2 474/4/2
f 471/4/2 472/4/2 475/4/2
f 472/2/2 468/2/2 476/2/2
f 475/4/2 472/4/2 476/4/2
f 476/2/2 468/2/2 477/2/2
f 477/2/2 468/2/2 478/2/2
f 479/4/2 480/4/2 483/4/2
f 483/4/2 480/4/2 484/4/2
f 481/4/2 482/4/2 485/4/2
f 485/4/2 482/4/2 486/4/2
f 487/4/2 488/4/2 489/4/2
f 489/4/2 488/4/2 490/4/2
f 491/4/2 492/4/2 493/4/2
f 493/4/2 492/4/2 494/4/2
f 497/4/2 498/4/2 499/4/2
f 499/4/2 498/4/2 500/4/2
f 501/4/2 502/4/2 503/4/2
f 503/4/2 502/4/2 504/4/2
f 495/2/2 496/2/2 506/2/2
f 506/2/2 496/2/2 507/2/2
f 507/2/2 496/2/2 508/2/2
f 505/2/2 506/2/2 510/2/2
f 506/2/2 507/2/2 510/2/2
f 510/2/2 507/2/2 511/2/2
f 511/2/2 507/2/2 512/2/2
f 509/2/2 510/2/2 513/2/2
f 510/2/2 511/2/2 513/2/2
f 513/2/2 511/2/2 514/2/2
f 509/2/2 513/2/2 515/2/2
f 515/2/2 513/2/2 516/2/2
f 519/4/2 520/4/2 523/4/2
f 523/4/2 520/4/2 524/4/2
f 521/2/2 522/2/2 525/2/2
f 525/2/2 522/2/2 526/2/2
f 517/4/2 518/4/2 527/4/2
f 527/4/2 518/4/2 528/4/2
f 529/5/2 530/5/2 532/5/2
f 532/5/2 530/5/2 533/5/2
f 531/4/2 532/4/2 535/4/2
f 535/4/2 532/4/2 536/4/2
f 533/4/2 534/4/2 537/4/2
f 537/4/2 534/4/2 538/4/2
f 539/4/2 540/4/2 541/4/2
f 541/4/2 540/4/2 542/4/2
f 543/2/2 544/2/2 545/2/2
f 545/2/2 544/2/2 546/2/2
f 547/4/2 548/4/2 549/4/2
f 549/4/2 548/4/2 550/4/2
f 551/5/2 552/5/2 554/5/2
f 554/5/2 552/5/2 555/5/2
f 553/4/2 554/4/2 557/4/2
f 557/4/2 554/4/2 558/4/2
f 555/4/2 556/4/2 559/4/2
f 559/4/2 556/4/2 560/4/2
f 561/2/2 562/2/2 566/2/2
f 562/2/2 563/2/2 566/2/2
f 566/2/2 563/2/2 567/2/2
f 564/4/2 565/4/2 568/4/2
f 568/4/2 565/4/2 569/4/2
f 570/5/2 571/5/2 573/5/2
f 573/5/2 571/5/2 574/5/2
f 572/4/2 573/4/2 576/4/2
f 576/4/2 573/4/2 577/4/2
f 574/4/2 575/4/2 578/4/2
f 578/4/2 575/4/2 579/4/2
f 580/4/2 581/4/2 582/4/2
f 582/4/2 581/4/2 583/4/2
f 584/2/2 585/2/2 587/2/2
f 585/2/2 586/2/2 587/2/2
f 587/2/2 586/2/2 588/2/2
f 589/5/2 590/5/2 592/5/2
f 592/5/2 590/5/2 593/5/2
f 591/4/2 592/4/2 595/4/2
f 595/4/2 592/4/2 596/4/2
f 593/4/2 594/4/2 597/4/2
f 597/4/2 594/4/2 598/4/2
f 599/4/2 600/4/2 602/4/2
f 600/2/2 601/2/2 602/2/2
f 602/2/2 601/2/2 603/2/2
f 599/4/2 602/4/2 604/4/2
f 604/4/2 602/4/2 605/4/2
f 599/4/2 604/4/2 606/4/2
f 606/4/2 604/4/2 607/4/2
f 605/4/2 602/4/2 608/4/2
f 608/4/2 602/4/2 609/4/2
f 607/4/2 608/4/2 611/4/2
f 611/4/2 608/4/2 612/4/2
f 610/4/2 611/4/2 614/4/2
f 612/4/2 613/4/2 614/4/2
f 611/4/2 612/4/2 614/4/2
f 614/4/2 613/4/2 615/4/2
f 615/4/2 613/4/2 616/4/2
f 616/4/2 613/4/2 617/4/2
f 614/4/2 615/4/2 618/4/2
f 618/4/2 615/4/2 619/4/2
f 616/4/2 617/4/2 620/4/2
f 620/4/2 617/4/2 621/4/2
f 622/4/2 623/4/2 626/4/2
f 624/4/2 625/4/2 627/4/2
f 622/4/2 626/4/2 628/4/2
f 628/4/2 626/4/2 629/4/2
f 627/4/2 625/4/2 630/4/2
f 630/4/2 625/4/2 631/4/2
f 632/4/2 633/4/2 635/4/2
f 635/4/2 633/4/2 636/4/2
f 634/4/2 635/4/2 638/4/2
f 636/4/2 637/4/2 638/4/2
f 635/4/2 636/4/2 638/4/2
f 638/4/2 637/4/2 639/4/2
f 634/4/2 638/4/2 640/4/2
f 640/4/2 638/4/2 641/4/2
f 639/4/2 637/4/2 642/4/2
f 642/4/2 637/4/2 643/4/2
f 646/3/3 645/3/3 644/3/3
f 647/3/3 645/3/3 646/3/3
f 651/4/3 649/4/3 648/4/3
f 652/4/3 649/4/3 651/4/3
f 655/4/3 651/4/3 650/4/3
f 655/4/3 653/4/3 652/4/3
f 655/4/3 652/4/3 651/4/3
f 656/4/3 653/4/3 655/4/3
f 657/4/3 653/4/3 656/4/3
f 658/4/3 653/4/3 657/4/3
f 660/4/3 655/4/3 654/4/3
f 660/4/3 656/4/3 655/4/3
f 662/4/3 659/4/3 658/4/3
f 662/4/3 658/4/3 657/4/3
f 663/4/3 661/4/3 660/4/3
f 663/3/3 662/3/3 661/3/3
f 664/4/3 659/4/3 662/4/3
f 664/3/3 662/3/3 663/3/3
f 665/4/3 663/4/3 660/4/3
f 666/4/3 659/4/3 664/4/3
f 667/4/3 665/4/3 660/4/3
f 667/4/3 666/4/3 665/4/3
f 667/4/3 660/4/3 654/4/3
f 668/4/3 666/4/3 667/4/3
f 669/4/3 659/4/3 666/4/3
f 669/4/3 666/4/3 668/4/3
f 670/4/3 659/4/3 669/4/3
f 671/4/3 669/4/3 668/4/3
f 672/4/3 669/4/3 671/4/3
f 673/4/3 669/4/3 672/4/3
f 674/4/3 669/4/3 673/4/3
f 675/4/3 673/4/3 672/4/3
f 676/4/3 673/4/3 675/4/3
f 679/5/3 678/5/3 677/5/3
f 680/5/3 678/5/3 679/5/3
f 684/4/3 682/4/3 681/4/3
f 685/4/3 682/4/3 684/4/3
f 687/4/3 684/4/3 683/4/3
f 687/4/3 686/4/3 685/4/3
f 687/4/3 685/4/3 684/4/3
f 688/4/3 686/4/3 687/4/3
f 690/4/3 687/4/3 683/4/3
f 691/4/3 687/4/3 690/4/3
f 692/4/3 687/4/3 691/4/3
f 693/4/3 686/4/3 688/4/3
f 694/4/3 686/4/3 693/4/3
f 695/4/3 686/4/3 694/4/3
f 697/4/3 690/4/3 689/4/3
f 697/4/3 691/4/3 690/4/3
f 698/4/3 691/4/3 697/4/3
f 699/4/3 696/4/3 695/4/3
f 699/4/3 695/4/3 694/4/3
f 700/4/3 696/4/3 699/4/3
f 701/4/3 697/4/3 689/4/3
f 704/4/3 696/4/3 700/4/3
f 705/4/3 702/4/3 701/4/3
f 705/4/3 701/4/3 689/4/3
f 706/4/3 702/4/3 705/4/3
f 707/4/3 702/4/3 706/4/3
f 710/4/3 704/4/3 703/4/3
f 711/4/3 696/4/3 704/4/3
f 711/4/3 704/4/3 710/4/3
f 712/4/3 696/4/3 711/4/3
f 713/4/3 708/4/3 707/4/3
f 713/4/3 707/4/3 706/4/3
f 714/4/3 710/4/3 709/4/3
f 714/4/3 711/4/3 710/4/3
f 715/4/3 713/4/3 706/4/3
f 715/4/3 714/4/3 713/4/3
f 716/4/3 714/4/3 715/4/3
f 717/4/3 711/4/3 714/4/3
f 717/4/3 714/4/3 716/4/3
f 718/4/3 711/4/3 717/4/3
f 719/4/3 717/4/3 716/4/3
f 720/4/3 717/4/3 719/4/3
f 723/4/3 722/4/3 721/4/3
f 724/4/3 722/4/3 723/4/3
f 727/4/3 726/4/3 725/4/3
f 728/4/3 726/4/3 727/4/3
f 731/4/3 730/4/3 729/4/3
f 732/4/3 730/4/3 731/4/3
f 734/4/3 731/4/3 729/4/3
f 735/4/3 731/4/3 734/4/3
f 739/4/3 735/4/3 734/4/3
f 739/4/3 737/4/3 736/4/3
f 739/4/3 736/4/3 735/4/3
f 739/4/3 734/4/3 733/4/3
f 740/4/3 737/4/3 739/4/3
f 742/4/3 739/4/3 738/4/3
f 742/4/3 741/4/3 740/4/3
f 742/4/3 740/4/3 739/4/3
f 743/4/3 741/4/3 742/4/3
f 744/4/3 741/4/3 743/4/3
f 746/4/3 742/4/3 738/4/3
f 747/4/3 742/4/3 746/4/3
f 748/4/3 745/4/3 744/4/3
f 748/4/3 744/4/3 743/4/3
f 749/4/3 745/4/3 748/4/3
f 750/4/3 745/4/3 749/4/3
f 752/4/3 751/4/3 750/4/3
f 752/4/3 750/4/3 749/4/3
f 754/4/3 746/4/3 738/4/3
f 755/4/3 746/4/3 754/4/3
f 756/4/3 753/4/3 752/4/3
f 756/4/3 752/4/3 749/4/3
f 757/4/3 753/4/3 756/4/3
f 758/4/3 753/4/3 757/4/3
f 760/4/3 759/4/3 758/4/3
f 762/4/3 758/4/3 757/4/3
f 762/4/3 761/4/3 760/4/3
f 762/4/3 760/4/3 758/4/3
f 763/4/3 761/4/3 762/4/3
f 764/4/3 762/4/3 757/4/3
f 765/1/3 763/1/3 762/1/3
f 765/4/3 762/4/3 764/4/3
f 766/4/3 761/4/3 763/4/3
f 766/1/3 763/1/3 765/1/3
f 767/4/3 761/4/3 766/4/3
f 768/1/3 765/1/3 764/1/3
f 768/4/3 764/4/3 757/4/3
f 768/1/3 767/1/3 766/1/3
f 768/1/3 766/1/3 765/1/3
f 769/1/3 767/1/3 768/1/3
f 770/1/3 767/1/3 769/1/3
f 771/4/3 761/4/3 767/4/3
f 771/1/3 767/1/3 770/1/3
f 772/1/3 770/1/3 769/1/3
f 772/4/3 769/4/3 768/4/3
f 773/4/3 771/4/3 770/4/3
f 773/1/3 770/1/3 772/1/3
f 774/4/3 761/4/3 771/4/3
f 774/4/3 771/4/3 773/4/3
f 774/4/3 773/4/3 772/4/3
f 775/4/3 761/4/3 774/4/3
f 776/4/3 774/4/3 772/4/3
f 777/4/3 774/4/3 776/4/3
f 778/4/3 754/4/3 738/4/3
f 781/4/3 772/4/3 768/4/3
f 781/4/3 768/4/3 757/4/3
f 781/4/3 776/4/3 772/4/3
f 782/4/3 776/4/3 781/4/3
f 782/4/3 781/4/3 780/4/3
f 783/4/3 776/4/3 782/4/3
f 784/4/3 779/4/3 778/4/3
f 787/4/3 782/4/3 780/4/3
f 788/4/3 782/4/3 787/4/3
f 789/4/3 782/4/3 788/4/3
f 790/4/3 785/4/3 784/4/3
f 791/4/3 787/4/3 786/4/3
f 791/4/3 788/4/3 787/4/3
f 792/4/3 788/4/3 791/4/3
f 793/4/3 788/4/3 792/4/3
f 794/4/3 778/4/3 738/4/3
f 794/4/3 784/4/3 778/4/3
f 794/4/3 792/4/3 791/4/3
f 794/4/3 791/4/3 790/4/3
f 794/4/3 790/4/3 784/4/3
f 795/4/3 792/4/3 794/4/3
f 796/4/3 792/4/3 795/4/3
f 797/4/3 792/4/3 796/4/3
f 798/4/3 796/4/3 795/4/3
f 799/4/3 796/4/3 798/4/3
f 800/4/3 796/4/3 799/4/3
f 801/4/3 796/4/3 800/4/3
f 802/4/3 796/4/3 801/4/3
f 803/4/3 800/4/3 799/4/3
f 805/4/3 803/4/3 799/4/3
f 805/4/3 804/4/3 803/4/3
f 806/4/3 804/4/3 805/4/3
f 809/4/3 808/4/3 807/4/3
f 810/4/3 808/4/3 809/4/3
f 813/3/3 812/3/3 811/3/3
f 814/3/3 812/3/3 813/3/3
f 817/4/3 816/4/3 815/4/3
f 818/4/3 816/4/3 817/4/3
f 821/3/3 820/3/3 819/3/3
f 822/3/3 820/3/3 821/3/3
f 825/3/3 824/3/3 823/3/3
f 826/3/3 824/3/3 825/3/3
f 829/4/3 828/4/3 827/4/3
f 830/4/3 828/4/3 829/4/3
f 832/4/3 831/4/3 830/4/3
f 833/4/3 831/4/3 832/4/3
f 835/4/3 834/4/3 833/4/3
f 836/4/3 834/4/3 835/4/3
f 838/4/3 837/4/3 836/4/3
f 839/4/3 837/4/3 838/4/3
f 841/4/3 840/4/3 839/4/3
f 842/4/3 840/4/3 841/4/3
f 844/4/3 843/4/3 842/4/3
f 845/4/3 843/4/3 844/4/3
f 847/4/3 846/4/3 845/4/3
f 848/4/3 846/4/3 847/4/3
f 852/4/3 850/4/3 849/4/3
f 853/4/3 850/4/3 852/4/3
f 855/4/3 852/4/3 851/4/3
f 856/4/3 852/4/3 855/4/3
f 858/4/3 855/4/3 854/4/3
f 859/4/3 855/4/3 858/4/3
f 861/4/3 858/4/3 857/4/3
f 862/4/3 858/4/3 861/4/3
f 864/4/3 861/4/3 860/4/3
f 865/4/3 861/4/3 864/4/3
f 867/4/3 864/4/3 863/4/3
f 868/4/3 864/4/3 867/4/3
f 869/4/3 867/4/3 866/4/3
f 870/4/3 867/4/3 869/4/3
f 875/4/3 872/4/3 871/4/3
f 876/4/3 872/4/3 875/4/3
f 877/4/3 874/4/3 873/4/3
f 878/4/3 874/4/3 877/4/3
f 881/4/3 880/4/3 879/4/3
f 882/4/3 880/4/3 881/4/3
f 885/4/3 884/4/3 883/4/3
f 886/4/3 884/4/3 885/4/3
f 890/4/3 888/4/3 887/4/3
f 890/4/3 889/4/3 888/4/3
f 891/4/3 889/4/3 890/4/3
f 894/2/3 893/2/3 892/2/3
f 896/2/3 894/2/3 892/2/3
f 896/2/3 895/2/3 894/2/3
f 897/2/3 895/2/3 896/2/3
f 898/2/3 895/2/3 897/2/3
f 900/2/3 899/2/3 898/2/3
f 900/2/3 898/2/3 897/2/3
f 901/2/3 899/2/3 900/2/3
f 903/2/3 899/2/3 901/2/3
f 905/2/3 903/2/3 902/2/3
f 906/2/3 899/2/3 903/2/3
f 906/2/3 903/2/3 905/2/3
f 907/2/3 899/2/3 906/2/3
f 908/2/3 905/2/3 904/2/3
f 908/2/3 906/2/3 905/2/3
f 909/2/3 906/2/3 908/2/3
f 910/2/3 908/2/3 904/2/3
f 911/2/3 908/2/3 910/2/3
f 914/4/3 913/4/3 912/4/3
f 915/4/3 913/4/3 914/4/3
f 916/4/3 913/4/3 915/4/3
f 919/2/3 918/2/3 917/2/3
f 920/2/3 918/2/3 919/2/3
f 921/2/3 920/2/3 919/2/3
f 922/2/3 920/2/3 921/2/3
f 925/2/3 924/2/3 923/2/3
f 926/2/3 924/2/3 925/2/3
f 931/2/3 928/2/3 927/2/3
f 932/2/3 928/2/3 931/2/3
f 933/2/3 930/2/3 929/2/3
f 934/2/3 930/2/3 933/2/3
f 935/2/3 934/2/3 933/2/3
f 936/2/3 934/2/3 935/2/3
f 939/2/3 938/2/3 937/2/3
f 941/2/3 940/2/3 939/2/3
f 943/2/3 939/2/3 937/2/3
f 943/2/3 942/2/3 941/2/3
f 943/2/3 941/2/3 939/2/3
f 944/2/3 942/2/3 943/2/3
f 946/2/3 944/2/3 943/2/3
f 946/2/3 945/2/3 944/2/3
f 947/2/3 945/2/3 946/2/3
f 948/2/3 945/2/3 947/2/3
f 949/2/3 945/2/3 948/2/3
f 950/2/3 945/2/3 949/2/3
f 951/2/3 945/2/3 950/2/3
f 952/2/3 945/2/3 951/2/3
f 953/2/3 945/2/3 952/2/3
f 957/2/3 955/2/3 954/2/3
f 959/2/3 957/2/3 956/2/3
f 961/2/3 959/2/3 958/2/3
f 962/2/3 961/2/3 960/2/3
f 963/2/3 955/2/3 957/2/3
f 963/2/3 961/2/3 962/2/3
f 963/2/3 957/2/3 959/2/3
f 963/2/3 959/2/3 961/2/3
f 964/2/3 955/2/3 963/2/3
f 965/2/3 963/2/3 962/2/3
f 966/2/3 963/2/3 965/2/3
f 967/2/3 965/2/3 962/2/3
f 968/2/3 965/2/3 967/2/3
f 969/2/3 967/2/3 962/2/3
f 970/2/3 967/2/3 969/2/3
f 971/4/4 972/4/4 974/4/4
f 972/4/4 973/4/4 974/4/4
f 974/4/4 973/4/4 975/4/4
f 976/4/4 977/4/4 978/4/4
f 978/4/4 977/4/4 979/4/4
f 979/4/4 977/4/4 980/4/4
f 981/4/4 982/4/4 985/4/4
f 985/4/4 982/4/4 986/4/4
f 983/4/4 984/4/4 987/4/4
f 987/4/4 984/4/4 988/4/4
f 989/4/4 990/4/4 991/4/4
f 991/4/4 990/4/4 992/4/4
f 993/4/4 994/4/4 995/4/4
f 995/4/4 994/4/4 996/4/4
f 997/4/4 998/4/4 999/4/4
f 999/4/4 998/4/4 1000/4/4
f 1000/4/4 1001/4/4 1002/4/4
f 1002/4/4 1001/4/4 1003/4/4
f 1003/4/4 1004/4/4 1005/4/4
f 1005/4/4 1004/4/4 1006/4/4
f 1006/4/4 1007/4/4 1008/4/4
f 1008/4/4 1007/4/4 1009/4/4
f 1009/4/4 1010/4/4 1011/4/4
f 1011/4/4 1010/4/4 1012/4/4
f 1012/4/4 1013/4/4 1014/4/4
f 1014/4/4 1013/4/4 1015/4/4
f 1015/4/4 1016/4/4 1017/4/4
f 1017/4/4 1016/4/4 1018/4/4
f 1019/4/4 1020/4/4 1022/4/4
f 1020/3/4 1021/3/4 1022/3/4
f 1022/3/4 1021/3/4 1023/3/4
f 1019/4/4 1022/4/4 1025/4/4
f 1025/4/4 1022/4/4 1026/4/4
f 1024/4/4 1025/4/4 1028/4/4
f 1028/4/4 1025/4/4 1029/4/4
f 1027/4/4 1028/4/4 1031/4/4
f 1031/4/4 1028/4/4 1032/4/4
f 1030/4/4 1031/4/4 1034/4/4
f 1034/4/4 1031/4/4 1035/4/4
f 1033/4/4 1034/4/4 1037/4/4
f 1037/4/4 1034/4/4 1038/4/4
f 1036/4/4 1037/4/4 1040/4/4
f 1040/4/4 1037/4/4 1041/4/4
f 1039/4/4 1040/4/4 1042/4/4
f 1042/4/4 1040/4/4 1043/4/4
f 1044/3/4 1045/3/4 1046/3/4
f 1046/3/4 1045/3/4 1047/3/4
f 1048/4/4 1049/4/4 1050/4/4
f 1050/4/4 1049/4/4 1051/4/4
f 1052/3/4 1053/3/4 1054/3/4
f 1054/3/4 1053/3/4 1055/3/4
f 1056/4/4 1057/4/4 1058/4/4
f 1058/4/4 1057/4/4 1059/4/4
f 1060/4/4 1061/4/4 1062/4/4
f 1062/4/4 1061/4/4 1063/4/4
f 1060/4/4 1062/4/4 1065/4/4
f 1065/4/4 1062/4/4 1066/4/4
f 1065/4/4 1066/4/4 1071/4/4
f 1064/4/4 1065/4/4 1071/4/4
f 1067/4/4 1068/4/4 1071/4/4
f 1066/4/4 1067/4/4 1071/4/4
f 1071/4/4 1072/4/4 1073/4/4
f 1073/4/4 1074/4/4 1075/4/4
f 1069/4/4 1070/4/4 1077/4/4
f 1075/4/4 1076/4/4 1078/4/4
f 1064/4/4 1071/4/4 1078/4/4
f 1073/4/4 1075/4/4 1078/4/4
f 1071/4/4 1073/4/4 1078/4/4
f 1078/4/4 1076/4/4 1079/4/4
f 1079/4/4 1076/4/4 1080/4/4
f 1080/4/4 1076/4/4 1081/4/4
f 1077/4/4 1078/4/4 1083/4/4
f 1078/4/4 1079/4/4 1083/4/4
f 1083/4/4 1079/4/4 1084/4/4
f 1081/4/4 1082/4/4 1085/4/4
f 1080/4/4 1081/4/4 1085/4/4
f 1085/4/4 1082/4/4 1086/4/4
f 1086/4/4 1082/4/4 1087/4/4
f 1087/4/4 1082/4/4 1088/4/4
f 1086/4/4 1087/4/4 1089/4/4
f 1089/4/4 1087/4/4 1090/4/4
f 1088/4/4 1082/4/4 1091/4/4
f 1091/4/4 1082/4/4 1092/4/4
f 1077/4/4 1083/4/4 1093/4/4
f 1090/4/4 1087/4/4 1096/4/4
f 1093/4/4 1094/4/4 1097/4/4
f 1095/4/4 1096/4/4 1098/4/4
f 1096/4/4 1087/4/4 1099/4/4
f 1098/4/4 1096/4/4 1099/4/4
f 1098/4/4 1099/4/4 1101/4/4
f 1099/4/4 1100/4/4 1101/4/4
f 1097/4/4 1098/4/4 1101/4/4
f 1097/4/4 1101/4/4 1102/4/4
f 1093/4/4 1097/4/4 1103/4/4
f 1097/4/4 1102/4/4 1103/4/4
f 1103/4/4 1102/4/4 1104/4/4
f 1104/4/4 1102/4/4 1105/4/4
f 1105/4/4 1102/4/4 1106/4/4
f 1077/4/4 1093/4/4 1107/4/4
f 1093/4/4 1103/4/4 1107/4/4
f 1107/4/4 1103/4/4 1108/4/4
f 1104/4/4 1105/4/4 1109/4/4
f 1109/4/4 1105/4/4 1110/4/4
f 1110/4/4 1105/4/4 1112/4/4
f 1077/4/4 1107/4/4 1115/4/4
f 1111/4/4 1112/4/4 1118/4/4
f 1112/4/4 1105/4/4 1119/4/4
f 1118/4/4 1112/4/4 1119/4/4
f 1113/4/4 1114/4/4 1120/4/4
f 1069/4/4 1077/4/4 1121/4/4
f 1115/4/4 1116/4/4 1121/4/4
f 1077/4/4 1115/4/4 1121/4/4
f 1121/4/4 1116/4/4 1122/4/4
f 1122/4/4 1116/4/4 1123/4/4
f 1119/4/4 1120/4/4 1124/4/4
f 1118/4/4 1119/4/4 1124/4/4
f 1117/4/4 1118/4/4 1124/4/4
f 1120/4/4 1114/4/4 1125/4/4
f 1124/4/4 1120/4/4 1125/4/4
f 1125/4/4 1114/4/4 1126/4/4
f 1122/4/4 1123/4/4 1127/4/4
f 1124/4/4 1125/4/4 1127/4/4
f 1123/4/4 1124/4/4 1127/4/4
f 1127/4/4 1125/4/4 1128/4/4
f 1122/4/4 1127/4/4 1129/4/4
f 1129/4/4 1127/4/4 1130/4/4
f 1069/4/4 1121/4/4 1131/4/4
f 1131/4/4 1121/4/4 1132/4/4
f 1122/4/4 1129/4/4 1133/4/4
f 1133/4/4 1129/4/4 1134/4/4
f 1122/4/4 1133/4/4 1135/4/4
f 1135/4/4 1133/4/4 1136/4/4
f 1136/4/4 1133/4/4 1137/4/4
f 1137/4/4 1133/4/4 1138/4/4
f 1138/4/4 1133/4/4 1139/4/4
f 1136/4/4 1137/4/4 1140/4/4
f 1136/4/4 1140/4/4 1142/4/4
f 1140/4/4 1141/4/4 1142/4/4
f 1142/4/4 1141/4/4 1143/4/4
f 1144/4/4 1145/4/4 1146/4/4
f 1146/4/4 1145/4/4 1147/4/4
f 1148/4/4 1149/4/4 1151/4/4
f 1151/4/4 1149/4/4 1152/4/4
f 1150/4/4 1151/4/4 1156/4/4
f 1151/4/4 1152/4/4 1156/4/4
f 1152/4/4 1153/4/4 1156/4/4
f 1154/2/4 1155/2/4 1158/2/4
f 1154/2/4 1158/2/4 1160/2/4
f 1158/2/4 1159/2/4 1160/2/4
f 1160/2/4 1159/2/4 1161/2/4
f 1156/4/4 1157/4/4 1163/4/4
f 1150/4/4 1156/4/4 1163/4/4
f 1163/4/4 1157/4/4 1164/4/4
f 1164/4/4 1157/4/4 1165/4/4
f 1165/4/4 1157/4/4 1166/4/4
f 1154/2/4 1160/2/4 1167/2/4
f 1161/2/4 1162/2/4 1169/2/4
f 1169/2/4 1162/2/4 1170/2/4
f 1170/2/4 1162/2/4 1171/2/4
f 1164/4/4 1165/4/4 1173/4/4
f 1173/4/4 1165/4/4 1174/4/4
f 1167/2/4 1168/2/4 1175/2/4
f 1154/2/4 1167/2/4 1175/2/4
f 1175/2/4 1168/2/4 1176/2/4
f 1171/2/4 1172/2/4 1177/2/4
f 1170/2/4 1171/2/4 1177/2/4
f 1177/2/4 1172/2/4 1178/2/4
f 1178/2/4 1172/2/4 1184/2/4
f 1179/4/4 1180/4/4 1186/4/4
f 1186/4/4 1180/4/4 1187/4/4
f 1181/2/4 1182/2/4 1189/2/4
f 1189/2/4 1182/2/4 1190/2/4
f 1183/2/4 1184/2/4 1192/2/4
f 1184/2/4 1172/2/4 1193/2/4
f 1192/2/4 1184/2/4 1193/2/4
f 1193/2/4 1172/2/4 1194/2/4
f 1181/2/4 1189/2/4 1195/2/4
f 1191/2/4 1192/2/4 1196/2/4
f 1192/2/4 1193/2/4 1196/2/4
f 1196/2/4 1193/2/4 1197/2/4
f 1187/4/4 1188/4/4 1198/4/4
f 1185/4/4 1186/4/4 1198/4/4
f 1186/4/4 1187/4/4 1198/4/4
f 1198/4/4 1188/4/4 1199/4/4
f 1181/2/4 1195/2/4 1200/2/4
f 1195/2/4 1196/2/4 1200/2/4
f 1200/2/4 1196/2/4 1201/2/4
f 1185/4/4 1198/4/4 1202/4/4
f 1202/4/4 1198/4/4 1203/4/4
f 1203/4/4 1198/4/4 1204/4/4
f 1204/4/4 1198/4/4 1205/4/4
f 1181/2/4 1200/2/4 1206/2/4
f 1206/2/4 1200/2/4 1207/2/4
f 1203/4/4 1204/4/4 1208/4/4
f 1208/4/4 1204/4/4 1209/4/4
f 1210/4/4 1211/4/4 1212/4/4
f 1212/4/4 1211/4/4 1213/4/4
f 1214/2/4 1215/2/4 1216/2/4
f 1214/2/4 1216/2/4 1217/2/4
f 1217/2/4 1216/2/4 1218/2/4
f 1221/2/4 1222/2/4 1223/2/4
f 1223/2/4 1222/2/4 1224/2/4
f 1224/2/4 1222/2/4 1225/2/4
f 1219/2/4 1220/2/4 1227/2/4
f 1227/2/4 1220/2/4 1228/2/4
f 1225/2/4 1226/2/4 1229/2/4
f 1224/2/4 1225/2/4 1229/2/4
f 1229/2/4 1226/2/4 1230/2/4
f 1230/2/4 1226/2/4 1231/2/4
f 1231/2/4 1232/2/4 1233/2/4
f 1230/2/4 1231/2/4 1233/2/4
f 1233/2/4 1232/2/4 1234/2/4
f 1234/2/4 1232/2/4 1236/2/4
f 1235/2/4 1236/2/4 1240/2/4
f 1236/2/4 1232/2/4 1241/2/4
f 1240/2/4 1236/2/4 1241/2/4
f 1241/2/4 1232/2/4 1242/2/4
f 1239/2/4 1240/2/4 1244/2/4
f 1240/2/4 1241/2/4 1244/2/4
f 1244/2/4 1241/2/4 1245/2/4
f 1245/2/4 1241/2/4 1246/2/4
f 1243/2/4 1244/2/4 1247/2/4
f 1244/2/4 1245/2/4 1247/2/4
f 1247/2/4 1245/2/4 1248/2/4
f 1237/2/4 1238/2/4 1249/2/4
f 1249/2/4 1238/2/4 1250/2/4
f 1251/2/4 1252/2/4 1253/2/4
f 1251/2/4 1253/2/4 1254/2/4
f 1254/2/4 1253/2/4 1255/2/4
f 1256/2/4 1257/2/4 1258/2/4
f 1256/2/4 1258/2/4 1259/2/4
f 1259/2/4 1258/2/4 1260/2/4
f 1261/2/4 1262/2/4 1263/2/4
f 1263/2/4 1262/2/4 1264/2/4
f 1265/2/4 1266/2/4 1269/2/4
f 1269/2/4 1266/2/4 1270/2/4
f 1267/2/4 1268/2/4 1271/2/4
f 1267/2/4 1271/2/4 1272/2/4
f 1272/2/4 1271/2/4 1273/2/4
f 1274/2/4 1275/2/4 1276/2/4
f 1276/2/4 1277/2/4 1278/2/4
f 1278/2/4 1279/2/4 1280/2/4
f 1274/2/4 1276/2/4 1282/2/4
f 1280/2/4 1281/2/4 1282/2/4
f 1278/2/4 1280/2/4 1282/2/4
f 1276/2/4 1278/2/4 1282/2/4
f 1282/2/4 1281/2/4 1283/2/4
f 1283/2/4 1281/2/4 1284/2/4
f 1284/2/4 1281/2/4 1285/2/4
f 1285/2/4 1281/2/4 1286/2/4
f 1286/2/4 1281/2/4 1287/2/4
f 1287/2/4 1281/2/4 1288/2/4
f 1288/2/4 1281/2/4 1289/2/4
f 1290/2/4 1291/2/4 1293/2/4
f 1292/2/4 1293/2/4 1295/2/4
f 1294/2/4 1295/2/4 1297/2/4
f 1293/2/4 1291/2/4 1298/2/4
f 1296/2/4 1297/2/4 1298/2/4
f 1297/2/4 1295/2/4 1298/2/4
f 1295/2/4 1293/2/4 1298/2/4
f 1298/2/4 1291/2/4 1299/2/4
f 1296/2/4 1298/2/4 1300/2/4
f 1300/2/4 1298/2/4 1301/2/4
f 1296/2/4 1300/2/4 1302/2/4
f 1302/2/4 1300/2/4 1303/2/4
f 1296/2/4 1302/2/4 1304/2/4
f 1304/2/4 1302/2/4 1305/2/4
f 1308/4/5 1307/4/5 1306/4/5
f 1309/4/5 1307/4/5 1308/4/5
f 1314/4/5 1311/4/5 1310/4/5
f 1315/4/5 1311/4/5 1314/4/5
f 1318/4/5 1313/4/5 1312/4/5
f 1319/4/5 1313/4/5 1318/4/5
f 1320/2/5 1316/2/5 1315/2/5
f 1320/2/5 1315/2/5 1314/2/5
f 1321/2/5 1316/2/5 1320/2/5
f 1322/2/5 1319/2/5 1318/2/5
f 1322/2/5 1318/2/5 1317/2/5
f 1323/2/5 1319/2/5 1322/2/5
f 1329/4/5 1325/4/5 1324/4/5
f 1330/4/5 1325/4/5 1329/4/5
f 1331/4/5 1327/4/5 1326/4/5
f 1332/4/5 1327/4/5 1331/4/5
f 1335/2/5 1329/2/5 1328/2/5
f 1336/2/5 1333/2/5 1332/2/5
f 1338/2/5 1335/2/5 1334/2/5
f 1339/2/5 1329/2/5 1335/2/5
f 1339/2/5 1335/2/5 1338/2/5
f 1340/2/5 1337/2/5 1336/2/5
f 1340/2/5 1336/2/5 1332/2/5
f 1341/2/5 1337/2/5 1340/2/5
f 1344/4/5 1343/4/5 1342/4/5
f 1345/4/5 1343/4/5 1344/4/5
f 1350/4/5 1347/4/5 1346/4/5
f 1351/4/5 1347/4/5 1350/4/5
f 1352/4/5 1349/4/5 1348/4/5
f 1353/4/5 1349/4/5 1352/4/5
f 1362/4/5 1355/4/5 1354/4/5
f 1363/4/5 1355/4/5 1362/4/5
f 1364/4/5 1357/4/5 1356/4/5
f 1365/4/5 1357/4/5 1364/4/5
f 1366/4/5 1359/4/5 1358/4/5
f 1367/4/5 1359/4/5 1366/4/5
f 1368/4/5 1361/4/5 1360/4/5
f 1369/4/5 1361/4/5 1368/4/5
f 1375/2/5 1371/2/5 1370/2/5
f 1376/2/5 1373/2/5 1372/2/5
f 1378/2/5 1375/2/5 1374/2/5
f 1379/2/5 1371/2/5 1375/2/5
f 1379/2/5 1375/2/5 1378/2/5
f 1380/2/5 1376/2/5 1372/2/5
f 1380/2/5 1377/2/5 1376/2/5
f 1381/2/5 1377/2/5 1380/2/5
f 1388/4/5 1383/4/5 1382/4/5
f 1389/4/5 1383/4/5 1388/4/5
f 1390/4/5 1385/4/5 1384/4/5
f 1391/4/5 1385/4/5 1390/4/5
f 1394/4/5 1387/4/5 1386/4/5
f 1395/4/5 1387/4/5 1394/4/5
f 1396/4/5 1393/4/5 1392/4/5
f 1397/4/5 1393/4/5 1396/4/5
f 1402/4/5 1399/4/5 1398/4/5
f 1403/4/5 1399/4/5 1402/4/5
f 1404/4/5 1401/4/5 1400/4/5
f 1405/4/5 1401/4/5 1404/4/5
f 1408/4/5 1407/4/5 1406/4/5
f 1409/4/5 1407/4/5 1408/4/5
f 1414/4/5 1411/4/5 1410/4/5
f 1415/4/5 1411/4/5 1414/4/5
f 1416/4/5 1413/4/5 1412/4/5
f 1417/4/5 1413/4/5 1416/4/5
f 1422/4/5 1419/4/5 1418/4/5
f 1423/4/5 1419/4/5 1422/4/5
f 1424/4/5 1421/4/5 1420/4/5
f 1425/4/5 1421/4/5 1424/4/5
f 1432/4/5 1427/4/5 1426/4/5
f 1433/4/5 1427/4/5 1432/4/5
f 1434/4/5 1429/4/5 1428/4/5
f 1435/4/5 1429/4/5 1434/4/5
f 1438/4/5 1431/4/5 1430/4/5
f 1439/4/5 1431/4/5 1438/4/5
f 1440/4/5 1437/4/5 1436/4/5
f 1441/4/5 1437/4/5 1440/4/5
f 1446/4/5 1443/4/5 1442/4/5
f 1447/4/5 1443/4/5 1446/4/5
f 1448/4/5 1445/4/5 1444/4/5
f 1449/4/5 1445/4/5 1448/4/5
f 1454/2/5 1451/2/5 1450/2/5
f 1455/2/5 1451/2/5 1454/2/5
f 1456/2/5 1453/2/5 1452/2/5
f 1457/2/5 1453/2/5 1456/2/5
f 1460/3/5 1459/3/5 1458/3/5
f 1461/3/5 1459/3/5 1460/3/5
f 1466/2/5 1463/2/5 1462/2/5
f 1467/2/5 1463/2/5 1466/2/5
f 1468/2/5 1465/2/5 1464/2/5
f 1469/2/5 1465/2/5 1468/2/5
f 1472/4/5 1471/4/5 1470/4/5
f 1473/4/5 1471/4/5 1472/4/5
f 1478/2/5 1475/2/5 1474/2/5
f 1479/2/5 1475/2/5 1478/2/5
f 1480/2/5 1477/2/5 1476/2/5
f 1481/2/5 1477/2/5 1480/2/5
f 1486/2/5 1483/2/5 1482/2/5
f 1487/2/5 1483/2/5 1486/2/5
f 1488/2/5 1485/2/5 1484/2/5
f 1489/2/5 1485/2/5 1488/2/5
f 1494/2/5 1491/2/5 1490/2/5
f 1495/2/5 1491/2/5 1494/2/5
f 1496/2/5 1493/2/5 1492/2/5
f 1497/2/5 1493/2/5 1496/2/5
f 1502/2/5 1499/2/5 1498/2/5
f 1503/2/5 1499/2/5 1502/2/5
f 1504/2/5 1501/2/5 1500/2/5
f 1505/2/5 1501/2/5 1504/2/5
f 1510/2/5 1507/2/5 1506/2/5
f 1511/2/5 1507/2/5 1510/2/5
f 1512/2/5 1509/2/5 1508/2/5
f 1513/2/5 1509/2/5 1512/2/5
f 1518/2/5 1515/2/5 1514/2/5
f 1519/2/5 1515/2/5 1518/2/5
f 1520/2/5 1517/2/5 1516/2/5
f 1521/2/5 1517/2/5 1520/2/5
f 1524/2/5 1523/2/5 1522/2/5
f 1525/2/5 1523/2/5 1524/2/5
f 1526/2/6 1527/2/6 1530/2/6
f 1530/2/6 1527/2/6 1531/2/6
f 1528/2/6 1529/2/6 1532/2/6
f 1532/2/6 1529/2/6 1533/2/6
f 1526/2/6 1530/2/6 1534/2/6
f 1534/2/6 1530/2/6 1535/2/6
f 1533/2/6 1529/2/6 1536/2/6
f 1536/2/6 1529/2/6 1537/2/6
f 1538/2/6 1539/2/6 1544/2/6
f 1539/2/6 1540/2/6 1544/2/6
f 1544/2/6 1540/2/6 1545/2/6
f 1542/2/6 1543/2/6 1546/2/6
f 1541/2/6 1542/2/6 1546/2/6
f 1546/2/6 1543/2/6 1547/2/6
f 1538/2/6 1544/2/6 1548/2/6
f 1548/2/6 1544/2/6 1549/2/6
f 1547/2/6 1543/2/6 1550/2/6
f 1550/2/6 1543/2/6 1551/2/6
f 1552/4/6 1553/4/6 1556/4/6
f 1556/4/6 1553/4/6 1557/4/6
f 1554/4/6 1555/4/6 1558/4/6
f 1558/4/6 1555/4/6 1559/4/6
f 1560/4/6 1561/4/6 1564/4/6
f 1564/4/6 1561/4/6 1565/4/6
f 1562/4/6 1563/4/6 1566/4/6
f 1566/4/6 1563/4/6 1567/4/6
f 1568/4/6 1569/4/6 1572/4/6
f 1572/4/6 1569/4/6 1573/4/6
f 1570/4/6 1571/4/6 1574/4/6
f 1574/4/6 1571/4/6 1575/4/6
f 1576/2/6 1577/2/6 1580/2/6
f 1580/2/6 1577/2/6 1581/2/6
f 1578/2/6 1579/2/6 1582/2/6
f 1582/2/6 1579/2/6 1583/2/6
f 1584/4/6 1585/4/6 1588/4/6
f 1588/4/6 1585/4/6 1589/4/6
f 1586/4/6 1587/4/6 1590/4/6
f 1590/4/6 1587/4/6 1591/4/6
f 1592/4/6 1593/4/6 1596/4/6
f 1596/4/6 1593/4/6 1597/4/6
f 1594/4/6 1595/4/6 1598/4/6
f 1598/4/6 1595/4/6 1599/4/6
f 1600/4/6 1601/4/6 1604/4/6
f 1604/4/6 1601/4/6 1605/4/6
f 1602/4/6 1603/4/6 1606/4/6
f 1606/4/6 1603/4/6 1607/4/6
f 1608/4/6 1609/4/6 1610/4/6
f 1610/4/6 1609/4/6 1611/4/6
f 1612/4/6 1613/4/6 1616/4/6
f 1616/4/6 1613/4/6 1617/4/6
f 1614/4/6 1615/4/6 1618/4/6
f 1618/4/6 1615/4/6 1619/4/6
f 1620/4/6 1621/4/6 1624/4/6
f 1624/4/6 1621/4/6 1625/4/6
f 1622/4/6 1623/4/6 1626/4/6
f 1626/4/6 1623/4/6 1627/4/6
f 1628/4/6 1629/4/6 1632/4/6
f 1632/4/6 1629/4/6 1633/4/6
f 1630/4/6 1631/4/6 1634/4/6
f 1634/4/6 1631/4/6 1635/4/6
f 1636/2/6 1637/2/6 1640/2/6
f 1640/2/6 1637/2/6 1641/2/6
f 1638/2/6 1639/2/6 1642/2/6
f 1642/2/6 1639/2/6 1643/2/6
f 1644/3/6 1645/3/6 1648/3/6
f 1648/3/6 1645/3/6 1649/3/6
f 1646/4/6 1647/4/6 1652/4/6
f 1652/4/6 1647/4/6 1653/4/6
f 1650/4/6 1651/4/6 1654/4/6
f 1654/4/6 1651/4/6 1655/4/6
f 1656/4/6 1657/4/6 1662/4/6
f 1662/4/6 1657/4/6 1663/4/6
f 1658/4/6 1659/4/6 1664/4/6
f 1664/4/6 1659/4/6 1665/4/6
f 1660/4/6 1661/4/6 1668/4/6
f 1668/4/6 1661/4/6 1669/4/6
f 1666/4/6 1667/4/6 1670/4/6
f 1670/4/6 1667/4/6 1671/4/6
f 1672/4/6 1673/4/6 1674/4/6
f 1674/4/6 1673/4/6 1675/4/6
f 1676/2/6 1677/2/6 1680/2/6
f 1680/2/6 1677/2/6 1681/2/6
f 1678/2/6 1679/2/6 1682/2/6
f 1682/2/6 1679/2/6 1683/2/6
f 1684/4/6 1685/4/6 1688/4/6
f 1688/4/6 1685/4/6 1689/4/6
f 1686/4/6 1687/4/6 1690/4/6
f 1690/4/6 1687/4/6 1691/4/6
f 1692/4/6 1693/4/6 1694/4/6
f 1694/4/6 1693/4/6 1695/4/6
f 1696/4/6 1697/4/6 1700/4/6
f 1700/4/6 1697/4/6 1701/4/6
f 1698/4/6 1699/4/6 1702/4/6
f 1702/4/6 1699/4/6 1703/4/6
f 1704/4/6 1705/4/6 1708/4/6
f 1708/4/6 1705/4/6 1709/4/6
f 1706/4/6 1707/4/6 1710/4/6
f 1710/4/6 1707/4/6 1711/4/6
f 1712/4/6 1713/4/6 1716/4/6
f 1716/4/6 1713/4/6 1717/4/6
f 1714/4/6 1715/4/6 1720/4/6
f 1720/4/6 1715/4/6 1721/4/6
f 1717/5/6 1718/5/6 1723/5/6
f 1723/5/6 1718/5/6 1724/5/6
f 1719/5/6 1720/5/6 1725/5/6
f 1725/5/6 1720/5/6 1726/5/6
f 1722/4/6 1723/4/6 1728/4/6
f 1728/4/6 1723/4/6 1729/4/6
f 1726/4/6 1727/4/6 1734/4/6
f 1734/4/6 1727/4/6 1735/4/6
f 1730/4/6 1731/4/6 1736/4/6
f 1736/4/6 1731/4/6 1737/4/6
f 1732/4/6 1733/4/6 1738/4/6
f 1738/4/6 1733/4/6 1739/4/6
f 1740/4/6 1741/4/6 1744/4/6
f 1744/4/6 1741/4/6 1745/4/6
f 1742/4/6 1743/4/6 1746/4/6
f 1746/4/6 1743/4/6 1747/4/6
f 1748/2/6 1749/2/6 1752/2/6
f 1752/2/6 1749/2/6 1753/2/6
f 1750/2/6 1751/2/6 1754/2/6
f 1754/2/6 1751/2/6 1755/2/6
f 1756/4/6 1757/4/6 1760/4/6
f 1760/4/6 1757/4/6 1761/4/6
f 1758/4/6 1759/4/6 1764/4/6
f 1764/4/6 1759/4/6 1765/4/6
f 1761/5/6 1762/5/6 1767/5/6
f 1767/5/6 1762/5/6 1768/5/6
f 1763/5/6 1764/5/6 1769/5/6
f 1769/5/6 1764/5/6 1770/5/6
f 1766/4/6 1767/4/6 1772/4/6
f 1772/4/6 1767/4/6 1773/4/6
f 1770/4/6 1771/4/6 1774/4/6
f 1774/4/6 1771/4/6 1775/4/6
f 1776/2/6 1777/2/6 1780/2/6
f 1780/2/6 1777/2/6 1781/2/6
f 1778/2/6 1779/2/6 1782/2/6
f 1782/2/6 1779/2/6 1783/2/6
f 1784/4/6 1785/4/6 1788/4/6
f 1788/4/6 1785/4/6 1789/4/6
f 1786/4/6 1787/4/6 1792/4/6
f 1792/4/6 1787/4/6 1793/4/6
f 1789/5/6 1790/5/6 1795/5/6
f 1795/5/6 1790/5/6 1796/5/6
f 1791/5/6 1792/5/6 1797/5/6
f 1797/5/6 1792/5/6 1798/5/6
f 1794/4/6 1795/4/6 1800/4/6
f 1800/4/6 1795/4/6 1801/4/6
f 1798/4/6 1799/4/6 1802/4/6
f 1802/4/6 1799/4/6 1803/4/6
f 1804/2/6 1805/2/6 1808/2/6
f 1808/2/6 1805/2/6 1809/2/6
f 1806/2/6 1807/2/6 1810/2/6
f 1810/2/6 1807/2/6 1811/2/6
f 1812/4/6 1813/4/6 1816/4/6
f 1816/4/6 1813/4/6 1817/4/6
f 1814/4/6 1815/4/6 1820/4/6
f 1820/4/6 1815/4/6 1821/4/6
f 1817/5/6 1818/5/6 1823/5/6
f 1823/5/6 1818/5/6 1824/5/6
f 1819/5/6 1820/5/6 1825/5/6
f 1825/5/6 1820/5/6 1826/5/6
f 1822/4/6 1823/4/6 1828/4/6
f 1828/4/6 1823/4/6 1829/4/6
f 1826/4/6 1827/4/6 1834/4/6
f 1834/4/6 1827/4/6 1835/4/6
f 1830/2/6 1831/2/6 1836/2/6
f 1836/2/6 1831/2/6 1837/2/6
f 1832/2/6 1833/2/6 1838/2/6
f 1838/2/6 1833/2/6 1839/2/6
f 1840/4/6 1841/4/6 1844/4/6
f 1844/4/6 1841/4/6 1845/4/6
f 1842/4/6 1843/4/6 1848/4/6
f 1848/4/6 1843/4/6 1849/4/6
f 1845/5/6 1846/5/6 1851/5/6
f 1851/5/6 1846/5/6 1852/5/6
f 1847/5/6 1848/5/6 1853/5/6
f 1853/5/6 1848/5/6 1854/5/6
f 1850/4/6 1851/4/6 1856/4/6
f 1856/4/6 1851/4/6 1857/4/6
f 1854/4/6 1855/4/6 1858/4/6
f 1858/4/6 1855/4/6 1859/4/6
f 1860/4/6 1861/4/6 1864/4/6
f 1864/4/6 1861/4/6 1865/4/6
f 1862/4/6 1863/4/6 1868/4/6
f 1868/4/6 1863/4/6 1869/4/6
f 1865/5/6 1866/5/6 1870/5/6
f 1870/5/6 1866/5/6 1871/5/6
f 1867/5/6 1868/5/6 1872/5/6
f 1865/5/6 1870/5/6 1874/5/6
f 1874/5/6 1870/5/6 1875/5/6
f 1871/5/6 1872/5/6 1876/5/6
f 1872/5/6 1868/5/6 1877/5/6
f 1876/5/6 1872/5/6 1877/5/6
f 1873/4/6 1874/4/6 1879/4/6
f 1879/4/6 1874/4/6 1880/4/6
f 1877/4/6 1878/4/6 1881/4/6
f 1881/4/6 1878/4/6 1882/4/6
f 1883/4/6 1884/4/6 1885/4/6
f 1885/4/6 1884/4/6 1886/4/6
f 1883/4/6 1885/4/6 1887/4/6
f 1887/4/6 1885/4/6 1888/4/6
f 1888/4/6 1885/4/6 1889/4/6
f 1886/4/6 1884/4/6 1890/4/6
f 1890/4/6 1884/4/6 1891/4/6
f 1892/4/6 1893/4/6 1896/4/6
f 1894/4/6 1895/4/6 1897/4/6
f 1892/4/6 1896/4/6 1900/4/6
f 1896/4/6 1897/4/6 1900/4/6
f 1900/4/6 1897/4/6 1901/4/6
f 1897/4/6 1895/4/6 1902/4/6
f 1901/4/6 1897/4/6 1902/4/6
f 1902/4/6 1895/4/6 1903/4/6
f 1898/2/6 1899/2/6 1906/2/6
f 1906/2/6 1899/2/6 1907/2/6
f 1904/2/6 1905/2/6 1910/2/6
f 1910/2/6 1905/2/6 1911/2/6
f 1907/2/6 1908/2/6 1912/2/6
f 1912/2/6 1908/2/6 1913/2/6
f 1909/2/6 1910/2/6 1914/2/6
f 1914/2/6 1910/2/6 1915/2/6
f 1916/3/6 1917/3/6 1919/3/6
f 1919/3/6 1917/3/6 1920/3/6
f 1918/3/6 1919/3/6 1922/3/6
f 1922/3/6 1919/3/6 1923/3/6
f 1921/3/6 1922/3/6 1924/3/6
f 1924/3/6 1922/3/6 1925/3/6
f 1926/2/6 1927/2/6 1930/2/6
f 1930/2/6 1927/2/6 1931/2/6
f 1928/2/6 1929/2/6 1932/2/6
f 1932/2/6 1929/2/6 1933/2/6
f 1934/2/6 1935/2/6 1938/2/6
f 1938/2/6 1935/2/6 1939/2/6
f 1936/2/6 1937/2/6 1942/2/6
f 1942/2/6 1937/2/6 1943/2/6
f 1940/2/6 1941/2/6 1944/2/6
f 1944/2/6 1941/2/6 1945/2/6
f 1946/2/6 1947/2/6 1948/2/6
f 1948/2/6 1947/2/6 1949/2/6
