# MagicaVoxel @ Ephtracy

# group
o 

# material
mtllib kitchen_sink.vox.mtl
usemtl palette

# normals
vn -1 0 0
vn 1 0 0
vn 0 0 1
vn 0 0 -1
vn 0 -1 0
vn 0 1 0

# texcoords
vt 0.00195312 0.5
vt 0.00585938 0.5
vt 0.0175781 0.5
vt 0.0292969 0.5
vt 0.0332031 0.5

# verts
v 0.2 2.8 2.5
v 0.2 2.8 1.5
v 0.2 2.8 1.3
v 0.2 2.8 0.3
v 0.2 2.9 1.4
v 0.2 2.9 1.3
v 0.2 2.9 1
v 0.2 2.9 0.9
v 0.2 3 2.5
v 0.2 3 1.5
v 0.2 3 1.4
v 0.2 3 1
v 0.2 3 0.9
v 0.2 3 0.3
v 0.4 0 2.2
v 0.4 0 0.3
v 0.4 2.8 2.2
v 0.4 2.8 0.3
v 0.5 0 2.3
v 0.5 0 2.2
v 0.5 2.8 2.3
v 0.5 2.8 2.2
v 1.4 3.1 0.5
v 1.4 3.1 0.3
v 1.4 3.3 0.5
v 1.4 3.3 0.3
v 1.5 3 0.5
v 1.5 3 0.3
v 1.5 3.1 0.6
v 1.5 3.1 0.5
v 1.5 3.1 0.3
v 1.5 3.3 0.6
v 1.5 3.3 0.5
v 1.5 3.3 0.3
v 1.5 3.7 1.1
v 1.5 3.7 0.9
v 1.5 3.7 0.6
v 1.5 3.7 0.5
v 1.5 3.7 0.4
v 1.5 3.7 0.3
v 1.5 3.8 0.5
v 1.5 3.8 0.4
v 1.5 3.9 1.1
v 1.5 3.9 1
v 1.5 3.9 0.8
v 1.5 3.9 0.6
v 1.5 4 1
v 1.5 4 0.9
v 1.5 4 0.8
v 1.5 4 0.7
v 1.5 4 0.5
v 1.5 4.1 0.9
v 1.5 4.1 0.7
v 1.8 3.3 0.5
v 1.8 3.3 0.3
v 1.8 3.4 0.4
v 1.8 3.4 0.3
v 1.8 3.5 0.5
v 1.8 3.5 0.4
v 2.4 1.7 2.5
v 2.4 1.7 2.3
v 2.4 1.8 2.4
v 2.4 1.8 2.3
v 2.4 2.2 2
v 2.4 2.2 1
v 2.4 2.4 2.4
v 2.4 2.4 2.3
v 2.4 2.5 2.5
v 2.4 2.5 2.3
v 2.4 2.6 2
v 2.4 2.6 1
v 2.5 2.6 2
v 2.5 2.6 0.9
v 2.5 2.8 2
v 2.5 2.8 0.9
v 2.6 0.2 2.2
v 2.6 0.2 0.9
v 2.6 1.8 2.1
v 2.6 1.8 0.9
v 2.6 2.6 2.2
v 2.6 2.6 2.1
v 2.6 2.8 2.1
v 2.6 2.8 0.8
v 2.6 2.9 2.1
v 2.6 2.9 0.8
v 2.7 2.9 2.3
v 2.7 2.9 2.2
v 2.7 2.9 0.7
v 2.7 2.9 0.6
v 2.7 3 2.3
v 2.7 3 2.2
v 2.7 3 0.7
v 2.7 3 0.6
v 2.8 2.9 2.2
v 2.8 2.9 0.7
v 2.8 3 2.2
v 2.8 3 0.7
v 0.4 2.9 2.2
v 0.4 2.9 1.5
v 0.4 2.9 1.4
v 0.4 2.9 1
v 0.4 2.9 0.9
v 0.4 2.9 0.7
v 0.4 3 2.2
v 0.4 3 1.5
v 0.4 3 1.4
v 0.4 3 1
v 0.4 3 0.9
v 0.4 3 0.7
v 0.5 2.9 2.3
v 0.5 2.9 2.2
v 0.5 2.9 0.7
v 0.5 2.9 0.6
v 0.5 3 2.3
v 0.5 3 2.2
v 0.5 3 0.7
v 0.5 3 0.6
v 0.6 0.2 2.2
v 0.6 0.2 0.9
v 0.6 1.8 2.1
v 0.6 1.8 0.9
v 0.6 2.6 2.2
v 0.6 2.6 2.1
v 0.6 2.8 2.1
v 0.6 2.8 0.8
v 0.6 2.9 2.1
v 0.6 2.9 0.8
v 0.7 2.6 2
v 0.7 2.6 0.9
v 0.7 2.8 2
v 0.7 2.8 0.9
v 0.8 2.2 2
v 0.8 2.2 1
v 0.8 2.6 2
v 0.8 2.6 1
v 1.7 3 0.5
v 1.7 3 0.3
v 1.7 3.1 0.6
v 1.7 3.1 0.5
v 1.7 3.1 0.3
v 1.7 3.3 0.6
v 1.7 3.3 0.5
v 1.7 3.3 0.3
v 1.7 3.7 1.1
v 1.7 3.7 0.9
v 1.7 3.7 0.6
v 1.7 3.7 0.5
v 1.7 3.7 0.4
v 1.7 3.7 0.3
v 1.7 3.8 0.5
v 1.7 3.8 0.4
v 1.7 3.9 1.1
v 1.7 3.9 1
v 1.7 3.9 0.8
v 1.7 3.9 0.6
v 1.7 4 1
v 1.7 4 0.9
v 1.7 4 0.8
v 1.7 4 0.7
v 1.7 4 0.5
v 1.7 4.1 0.9
v 1.7 4.1 0.7
v 1.9 3.1 0.5
v 1.9 3.1 0.3
v 1.9 3.2 0.5
v 1.9 3.2 0.4
v 1.9 3.3 0.5
v 1.9 3.3 0.4
v 1.9 3.4 0.4
v 1.9 3.4 0.3
v 1.9 3.5 0.5
v 1.9 3.5 0.4
v 2.5 1.7 2.5
v 2.5 1.7 2.3
v 2.5 1.8 2.4
v 2.5 1.8 2.3
v 2.5 2.4 2.4
v 2.5 2.4 2.3
v 2.5 2.5 2.5
v 2.5 2.5 2.3
v 2.7 0 2.3
v 2.7 0 2.2
v 2.7 2.8 2.3
v 2.7 2.8 2.2
v 2.8 0 2.2
v 2.8 0 0.3
v 2.8 2.8 2.2
v 2.8 2.8 0.3
v 3 2.8 2.5
v 3 2.8 0.3
v 3 3 2.5
v 3 3 0.3
v 0.2 2.8 2.5
v 0.2 3 2.5
v 1.1 2.8 2.5
v 1.1 3 2.5
v 1.2 2.8 2.5
v 1.2 2.9 2.5
v 1.3 2.9 2.5
v 1.3 3 2.5
v 2.4 1.7 2.5
v 2.4 2.5 2.5
v 2.5 1.7 2.5
v 2.5 2.5 2.5
v 2.5 2.8 2.5
v 2.5 2.9 2.5
v 2.6 2.8 2.5
v 2.6 2.9 2.5
v 2.6 3 2.5
v 2.7 2.9 2.5
v 2.7 3 2.5
v 3 2.8 2.5
v 3 3 2.5
v 0.5 0 2.3
v 0.5 2.8 2.3
v 2.4 1.7 2.3
v 2.4 1.8 2.3
v 2.4 2.4 2.3
v 2.4 2.5 2.3
v 2.5 1.7 2.3
v 2.5 1.8 2.3
v 2.5 2.4 2.3
v 2.5 2.5 2.3
v 2.7 0 2.3
v 2.7 2.8 2.3
v 0.4 0 2.2
v 0.4 2.8 2.2
v 0.5 0 2.2
v 0.5 2.8 2.2
v 2.7 0 2.2
v 2.7 2.8 2.2
v 2.8 0 2.2
v 2.8 2.8 2.2
v 0.6 1.8 2.1
v 0.6 2.6 2.1
v 2.6 1.8 2.1
v 2.6 2.6 2.1
v 1.5 3.7 1.1
v 1.5 3.9 1.1
v 1.7 3.7 1.1
v 1.7 3.9 1.1
v 0.8 2.2 1
v 0.8 2.6 1
v 1.5 3.9 1
v 1.5 4 1
v 1.7 3.9 1
v 1.7 4 1
v 2.4 2.2 1
v 2.4 2.6 1
v 0.6 0.2 0.9
v 0.6 1.8 0.9
v 0.7 2.6 0.9
v 0.7 2.8 0.9
v 1.5 4 0.9
v 1.5 4.1 0.9
v 1.7 4 0.9
v 1.7 4.1 0.9
v 2.5 2.6 0.9
v 2.5 2.8 0.9
v 2.6 0.2 0.9
v 2.6 1.8 0.9
v 0.6 2.8 0.8
v 0.6 2.9 0.8
v 1.5 3.9 0.8
v 1.5 4 0.8
v 1.7 3.9 0.8
v 1.7 4 0.8
v 2.6 2.8 0.8
v 2.6 2.9 0.8
v 0.4 2.9 0.7
v 0.4 3 0.7
v 0.5 2.9 0.7
v 0.5 3 0.7
v 2.7 2.9 0.7
v 2.7 3 0.7
v 2.8 2.9 0.7
v 2.8 3 0.7
v 0.5 2.9 0.6
v 0.5 3 0.6
v 1.3 2.9 0.6
v 1.3 3 0.6
v 1.4 2.9 0.6
v 1.4 3 0.6
v 1.5 3.1 0.6
v 1.5 3.3 0.6
v 1.5 3.7 0.6
v 1.5 3.9 0.6
v 1.7 3.1 0.6
v 1.7 3.3 0.6
v 1.7 3.7 0.6
v 1.7 3.9 0.6
v 2.7 2.9 0.6
v 2.7 3 0.6
v 1.4 3.1 0.5
v 1.4 3.3 0.5
v 1.5 3 0.5
v 1.5 3.1 0.5
v 1.5 3.3 0.5
v 1.5 3.7 0.5
v 1.7 3 0.5
v 1.7 3.1 0.5
v 1.7 3.3 0.5
v 1.7 3.7 0.5
v 1.8 3.2 0.5
v 1.8 3.3 0.5
v 1.8 3.5 0.5
v 1.9 3.1 0.5
v 1.9 3.2 0.5
v 1.9 3.3 0.5
v 1.9 3.5 0.5
v 2.4 1.8 2.4
v 2.4 2.4 2.4
v 2.5 1.8 2.4
v 2.5 2.4 2.4
v 0.5 2.9 2.3
v 0.5 3 2.3
v 1.1 2.9 2.3
v 1.1 3 2.3
v 1.2 2.9 2.3
v 1.2 3 2.3
v 2.6 2.9 2.3
v 2.6 3 2.3
v 2.7 2.9 2.3
v 2.7 3 2.3
v 0.4 2.9 2.2
v 0.4 3 2.2
v 0.5 2.9 2.2
v 0.5 3 2.2
v 0.6 0.2 2.2
v 0.6 2.6 2.2
v 2.6 0.2 2.2
v 2.6 2.6 2.2
v 2.7 2.9 2.2
v 2.7 3 2.2
v 2.8 2.9 2.2
v 2.8 3 2.2
v 0.6 2.8 2.1
v 0.6 2.9 2.1
v 2.6 2.8 2.1
v 2.6 2.9 2.1
v 0.7 2.6 2
v 0.7 2.8 2
v 0.8 2.2 2
v 0.8 2.6 2
v 2.4 2.2 2
v 2.4 2.6 2
v 2.5 2.6 2
v 2.5 2.8 2
v 1.5 3.7 0.9
v 1.5 4 0.9
v 1.7 3.7 0.9
v 1.7 4 0.9
v 1.5 4 0.7
v 1.5 4.1 0.7
v 1.7 4 0.7
v 1.7 4.1 0.7
v 1.5 3.8 0.5
v 1.5 4 0.5
v 1.7 3.8 0.5
v 1.7 4 0.5
v 1.5 3.7 0.4
v 1.5 3.8 0.4
v 1.7 3.7 0.4
v 1.7 3.8 0.4
v 1.8 3.4 0.4
v 1.8 3.5 0.4
v 1.9 3.4 0.4
v 1.9 3.5 0.4
v 0.2 2.8 0.3
v 0.2 3 0.3
v 0.4 0 0.3
v 0.4 2.8 0.3
v 0.9 2.9 0.3
v 0.9 3 0.3
v 1.2 2.9 0.3
v 1.2 3 0.3
v 1.4 3.1 0.3
v 1.4 3.3 0.3
v 1.5 3 0.3
v 1.5 3.1 0.3
v 1.5 3.3 0.3
v 1.5 3.7 0.3
v 1.7 3 0.3
v 1.7 3.1 0.3
v 1.7 3.3 0.3
v 1.7 3.7 0.3
v 1.8 3.3 0.3
v 1.8 3.4 0.3
v 1.9 3.1 0.3
v 1.9 3.4 0.3
v 2.8 0 0.3
v 2.8 2.8 0.3
v 3 2.8 0.3
v 3 3 0.3
v 0.5 0 2.3
v 2.7 0 2.3
v 0.4 0 2.2
v 0.5 0 2.2
v 2.7 0 2.2
v 2.8 0 2.2
v 0.4 0 0.3
v 2.8 0 0.3
v 2.4 1.7 2.5
v 2.5 1.7 2.5
v 2.4 1.7 2.3
v 2.5 1.7 2.3
v 0.6 1.8 2.1
v 2.6 1.8 2.1
v 0.6 1.8 0.9
v 2.6 1.8 0.9
v 2.4 2.4 2.4
v 2.5 2.4 2.4
v 2.4 2.4 2.3
v 2.5 2.4 2.3
v 0.6 2.6 2.2
v 2.6 2.6 2.2
v 0.6 2.6 2.1
v 2.6 2.6 2.1
v 0.2 2.8 2.5
v 1.1 2.8 2.5
v 1.2 2.8 2.5
v 2.5 2.8 2.5
v 2.6 2.8 2.5
v 3 2.8 2.5
v 1.1 2.8 2.4
v 1.2 2.8 2.4
v 2.5 2.8 2.4
v 2.6 2.8 2.4
v 0.4 2.8 2.3
v 0.5 2.8 2.3
v 2.7 2.8 2.3
v 2.8 2.8 2.3
v 0.4 2.8 2.2
v 0.5 2.8 2.2
v 2.7 2.8 2.2
v 2.8 2.8 2.2
v 0.2 2.8 1.5
v 0.3 2.8 1.5
v 0.2 2.8 1.3
v 0.3 2.8 1.3
v 0.2 2.8 0.3
v 0.4 2.8 0.3
v 2.8 2.8 0.3
v 3 2.8 0.3
v 1.5 3.1 0.6
v 1.7 3.1 0.6
v 1.4 3.1 0.5
v 1.5 3.1 0.5
v 1.7 3.1 0.5
v 1.9 3.1 0.5
v 1.4 3.1 0.3
v 1.5 3.1 0.3
v 1.7 3.1 0.3
v 1.9 3.1 0.3
v 1.5 3.7 1.1
v 1.7 3.7 1.1
v 1.5 3.7 0.9
v 1.7 3.7 0.9
v 1.5 3.7 0.6
v 1.7 3.7 0.6
v 1.5 3.7 0.5
v 1.7 3.7 0.5
v 1.5 3.9 0.8
v 1.7 3.9 0.8
v 1.5 3.9 0.6
v 1.7 3.9 0.6
v 1.5 4 0.9
v 1.7 4 0.9
v 1.5 4 0.8
v 1.7 4 0.8
v 0.6 0.2 2.2
v 2.6 0.2 2.2
v 0.6 0.2 0.9
v 2.6 0.2 0.9
v 2.4 1.8 2.4
v 2.5 1.8 2.4
v 2.4 1.8 2.3
v 2.5 1.8 2.3
v 0.8 2.2 2
v 2.4 2.2 2
v 0.8 2.2 1
v 2.4 2.2 1
v 2.4 2.5 2.5
v 2.5 2.5 2.5
v 2.4 2.5 2.3
v 2.5 2.5 2.3
v 0.7 2.6 2
v 0.8 2.6 2
v 2.4 2.6 2
v 2.5 2.6 2
v 0.8 2.6 1
v 2.4 2.6 1
v 0.7 2.6 0.9
v 2.5 2.6 0.9
v 0.6 2.8 2.1
v 2.6 2.8 2.1
v 0.7 2.8 2
v 2.5 2.8 2
v 0.7 2.8 0.9
v 2.5 2.8 0.9
v 0.6 2.8 0.8
v 2.6 2.8 0.8
v 0.5 2.9 2.3
v 1.1 2.9 2.3
v 1.2 2.9 2.3
v 2.6 2.9 2.3
v 2.7 2.9 2.3
v 0.4 2.9 2.2
v 0.5 2.9 2.2
v 2.7 2.9 2.2
v 2.8 2.9 2.2
v 0.6 2.9 2.1
v 2.6 2.9 2.1
v 0.4 2.9 1.5
v 0.4 2.9 1.4
v 0.4 2.9 1
v 0.4 2.9 0.9
v 0.6 2.9 0.8
v 2.6 2.9 0.8
v 0.4 2.9 0.7
v 0.5 2.9 0.7
v 2.7 2.9 0.7
v 2.8 2.9 0.7
v 0.5 2.9 0.6
v 1.3 2.9 0.6
v 1.4 2.9 0.6
v 2.7 2.9 0.6
v 0.2 3 2.5
v 1.1 3 2.5
v 1.3 3 2.5
v 2.6 3 2.5
v 2.7 3 2.5
v 3 3 2.5
v 1.2 3 2.4
v 1.3 3 2.4
v 0.5 3 2.3
v 1.1 3 2.3
v 1.2 3 2.3
v 2.6 3 2.3
v 2.7 3 2.3
v 0.4 3 2.2
v 0.5 3 2.2
v 2.7 3 2.2
v 2.8 3 2.2
v 0.2 3 1.5
v 0.4 3 1.5
v 0.2 3 1.4
v 0.4 3 1.4
v 0.2 3 1
v 0.4 3 1
v 0.2 3 0.9
v 0.4 3 0.9
v 0.4 3 0.7
v 0.5 3 0.7
v 2.7 3 0.7
v 2.8 3 0.7
v 0.5 3 0.6
v 1.3 3 0.6
v 1.4 3 0.6
v 2.7 3 0.6
v 1.2 3 0.5
v 1.3 3 0.5
v 1.4 3 0.5
v 1.5 3 0.5
v 1.7 3 0.5
v 0.9 3 0.4
v 1.2 3 0.4
v 1.3 3 0.4
v 0.2 3 0.3
v 0.9 3 0.3
v 1.2 3 0.3
v 1.5 3 0.3
v 1.7 3 0.3
v 3 3 0.3
v 1.5 3.3 0.6
v 1.7 3.3 0.6
v 1.4 3.3 0.5
v 1.5 3.3 0.5
v 1.7 3.3 0.5
v 1.8 3.3 0.5
v 1.4 3.3 0.3
v 1.5 3.3 0.3
v 1.7 3.3 0.3
v 1.8 3.3 0.3
v 1.8 3.4 0.4
v 1.9 3.4 0.4
v 1.8 3.4 0.3
v 1.9 3.4 0.3
v 1.8 3.5 0.5
v 1.9 3.5 0.5
v 1.8 3.5 0.4
v 1.9 3.5 0.4
v 1.5 3.7 0.4
v 1.7 3.7 0.4
v 1.5 3.7 0.3
v 1.7 3.7 0.3
v 1.5 3.8 0.5
v 1.7 3.8 0.5
v 1.5 3.8 0.4
v 1.7 3.8 0.4
v 1.5 3.9 1.1
v 1.7 3.9 1.1
v 1.5 3.9 1
v 1.7 3.9 1
v 1.5 4 1
v 1.7 4 1
v 1.5 4 0.9
v 1.7 4 0.9
v 1.5 4 0.7
v 1.7 4 0.7
v 1.5 4 0.5
v 1.7 4 0.5
v 1.5 4.1 0.9
v 1.7 4.1 0.9
v 1.5 4.1 0.7
v 1.7 4.1 0.7

# faces
f 5/4/1 3/4/1 2/4/1
f 6/1/1 4/1/1 3/1/1
f 6/4/1 3/4/1 5/4/1
f 7/1/1 4/1/1 6/1/1
f 8/1/1 4/1/1 7/1/1
f 9/1/1 2/1/1 1/1/1
f 10/4/1 5/4/1 2/4/1
f 10/1/1 2/1/1 9/1/1
f 11/1/1 6/1/1 5/1/1
f 11/4/1 5/4/1 10/4/1
f 11/1/1 7/1/1 6/1/1
f 12/4/1 8/4/1 7/4/1
f 12/1/1 7/1/1 11/1/1
f 13/1/1 4/1/1 8/1/1
f 13/4/1 8/4/1 12/4/1
f 14/1/1 4/1/1 13/1/1
f 17/2/1 16/2/1 15/2/1
f 18/2/1 16/2/1 17/2/1
f 21/2/1 20/2/1 19/2/1
f 22/2/1 20/2/1 21/2/1
f 25/4/1 24/4/1 23/4/1
f 26/4/1 24/4/1 25/4/1
f 30/4/1 28/4/1 27/4/1
f 31/4/1 28/4/1 30/4/1
f 32/4/1 30/4/1 29/4/1
f 33/4/1 30/4/1 32/4/1
f 38/4/1 34/4/1 33/4/1
f 39/4/1 34/4/1 38/4/1
f 40/4/1 34/4/1 39/4/1
f 41/4/1 38/4/1 37/4/1
f 41/4/1 39/4/1 38/4/1
f 42/4/1 39/4/1 41/4/1
f 43/4/1 36/4/1 35/4/1
f 44/4/1 36/4/1 43/4/1
f 46/4/1 41/4/1 37/4/1
f 47/4/1 36/4/1 44/4/1
f 48/4/1 36/4/1 47/4/1
f 49/4/1 46/4/1 45/4/1
f 50/4/1 46/4/1 49/4/1
f 51/4/1 41/4/1 46/4/1
f 51/4/1 46/4/1 50/4/1
f 52/4/1 50/4/1 49/4/1
f 52/4/1 49/4/1 48/4/1
f 53/4/1 50/4/1 52/4/1
f 56/4/1 55/4/1 54/4/1
f 57/4/1 55/4/1 56/4/1
f 58/4/1 56/4/1 54/4/1
f 59/4/1 56/4/1 58/4/1
f 62/3/1 61/3/1 60/3/1
f 63/3/1 61/3/1 62/3/1
f 66/3/1 62/3/1 60/3/1
f 68/3/1 66/3/1 60/3/1
f 68/3/1 67/3/1 66/3/1
f 69/3/1 67/3/1 68/3/1
f 70/4/1 65/4/1 64/4/1
f 71/4/1 65/4/1 70/4/1
f 74/4/1 73/4/1 72/4/1
f 75/4/1 73/4/1 74/4/1
f 78/2/1 77/2/1 76/2/1
f 79/2/1 77/2/1 78/2/1
f 80/2/1 78/2/1 76/2/1
f 81/2/1 78/2/1 80/2/1
f 84/4/1 83/4/1 82/4/1
f 85/4/1 83/4/1 84/4/1
f 90/1/1 87/1/1 86/1/1
f 91/1/1 87/1/1 90/1/1
f 92/1/1 89/1/1 88/1/1
f 93/1/1 89/1/1 92/1/1
f 96/1/1 95/1/1 94/1/1
f 97/1/1 95/1/1 96/1/1
f 98/1/2 99/1/2 104/1/2
f 99/4/2 100/4/2 105/4/2
f 104/1/2 99/1/2 105/1/2
f 100/1/2 101/1/2 106/1/2
f 105/4/2 100/4/2 106/4/2
f 101/4/2 102/4/2 107/4/2
f 106/1/2 101/1/2 107/1/2
f 102/1/2 103/1/2 108/1/2
f 107/4/2 102/4/2 108/4/2
f 108/1/2 103/1/2 109/1/2
f 110/1/2 111/1/2 114/1/2
f 114/1/2 111/1/2 115/1/2
f 112/1/2 113/1/2 116/1/2
f 116/1/2 113/1/2 117/1/2
f 118/2/2 119/2/2 120/2/2
f 120/2/2 119/2/2 121/2/2
f 118/2/2 120/2/2 122/2/2
f 122/2/2 120/2/2 123/2/2
f 124/4/2 125/4/2 126/4/2
f 126/4/2 125/4/2 127/4/2
f 128/4/2 129/4/2 130/4/2
f 130/4/2 129/4/2 131/4/2
f 132/4/2 133/4/2 134/4/2
f 134/4/2 133/4/2 135/4/2
f 136/4/2 137/4/2 139/4/2
f 139/4/2 137/4/2 140/4/2
f 138/4/2 139/4/2 141/4/2
f 141/4/2 139/4/2 142/4/2
f 142/4/2 143/4/2 147/4/2
f 147/4/2 143/4/2 148/4/2
f 148/4/2 143/4/2 149/4/2
f 146/4/2 147/4/2 150/4/2
f 147/4/2 148/4/2 150/4/2
f 150/4/2 148/4/2 151/4/2
f 144/4/2 145/4/2 152/4/2
f 152/4/2 145/4/2 153/4/2
f 146/4/2 150/4/2 155/4/2
f 153/4/2 145/4/2 156/4/2
f 156/4/2 145/4/2 157/4/2
f 154/4/2 155/4/2 158/4/2
f 158/4/2 155/4/2 159/4/2
f 155/4/2 150/4/2 160/4/2
f 159/4/2 155/4/2 160/4/2
f 158/4/2 159/4/2 161/4/2
f 157/4/2 158/4/2 161/4/2
f 161/4/2 159/4/2 162/4/2
f 163/4/2 164/4/2 165/4/2
f 165/4/2 164/4/2 166/4/2
f 165/5/2 166/5/2 167/5/2
f 166/4/2 164/4/2 168/4/2
f 167/5/2 166/5/2 168/5/2
f 167/4/2 168/4/2 169/4/2
f 168/4/2 164/4/2 169/4/2
f 169/4/2 164/4/2 170/4/2
f 167/4/2 169/4/2 171/4/2
f 171/4/2 169/4/2 172/4/2
f 173/3/2 174/3/2 175/3/2
f 175/3/2 174/3/2 176/3/2
f 173/3/2 175/3/2 177/3/2
f 173/3/2 177/3/2 179/3/2
f 177/3/2 178/3/2 179/3/2
f 179/3/2 178/3/2 180/3/2
f 181/2/2 182/2/2 183/2/2
f 183/2/2 182/2/2 184/2/2
f 185/2/2 186/2/2 187/2/2
f 187/2/2 186/2/2 188/2/2
f 189/1/2 190/1/2 191/1/2
f 191/1/2 190/1/2 192/1/2
f 195/1/3 194/1/3 193/1/3
f 196/1/3 194/1/3 195/1/3
f 197/4/3 196/4/3 195/4/3
f 198/4/3 196/4/3 197/4/3
f 199/1/3 198/1/3 197/1/3
f 199/4/3 196/4/3 198/4/3
f 200/4/3 196/4/3 199/4/3
f 203/3/3 202/3/3 201/3/3
f 204/3/3 202/3/3 203/3/3
f 205/1/3 199/1/3 197/1/3
f 205/1/3 200/1/3 199/1/3
f 206/1/3 200/1/3 205/1/3
f 207/4/3 206/4/3 205/4/3
f 208/1/3 200/1/3 206/1/3
f 208/4/3 206/4/3 207/4/3
f 209/1/3 200/1/3 208/1/3
f 210/1/3 208/1/3 207/1/3
f 210/4/3 209/4/3 208/4/3
f 211/4/3 209/4/3 210/4/3
f 212/1/3 210/1/3 207/1/3
f 212/1/3 211/1/3 210/1/3
f 213/1/3 211/1/3 212/1/3
f 216/2/3 215/2/3 214/2/3
f 217/2/3 215/2/3 216/2/3
f 218/2/3 215/2/3 217/2/3
f 219/2/3 215/2/3 218/2/3
f 220/2/3 216/2/3 214/2/3
f 221/2/3 218/2/3 217/2/3
f 222/2/3 218/2/3 221/2/3
f 223/2/3 215/2/3 219/2/3
f 224/2/3 222/2/3 221/2/3
f 224/2/3 223/2/3 222/2/3
f 224/2/3 220/2/3 214/2/3
f 224/2/3 221/2/3 220/2/3
f 225/2/3 215/2/3 223/2/3
f 225/2/3 223/2/3 224/2/3
f 228/2/3 227/2/3 226/2/3
f 229/2/3 227/2/3 228/2/3
f 232/2/3 231/2/3 230/2/3
f 233/2/3 231/2/3 232/2/3
f 236/4/3 235/4/3 234/4/3
f 237/4/3 235/4/3 236/4/3
f 240/4/3 239/4/3 238/4/3
f 241/4/3 239/4/3 240/4/3
f 246/4/3 245/4/3 244/4/3
f 247/4/3 245/4/3 246/4/3
f 248/4/3 243/4/3 242/4/3
f 249/4/3 243/4/3 248/4/3
f 256/4/3 255/4/3 254/4/3
f 257/4/3 255/4/3 256/4/3
f 258/4/3 253/4/3 252/4/3
f 259/4/3 253/4/3 258/4/3
f 260/2/3 251/2/3 250/2/3
f 261/2/3 251/2/3 260/2/3
f 266/4/3 265/4/3 264/4/3
f 267/4/3 265/4/3 266/4/3
f 268/4/3 263/4/3 262/4/3
f 269/4/3 263/4/3 268/4/3
f 272/1/3 271/1/3 270/1/3
f 273/1/3 271/1/3 272/1/3
f 276/1/3 275/1/3 274/1/3
f 277/1/3 275/1/3 276/1/3
f 280/1/3 279/1/3 278/1/3
f 281/1/3 279/1/3 280/1/3
f 282/4/3 281/4/3 280/4/3
f 283/4/3 281/4/3 282/4/3
f 288/4/3 285/4/3 284/4/3
f 289/4/3 285/4/3 288/4/3
f 290/4/3 287/4/3 286/4/3
f 291/4/3 287/4/3 290/4/3
f 292/1/3 283/1/3 282/1/3
f 293/1/3 283/1/3 292/1/3
f 297/4/3 295/4/3 294/4/3
f 298/4/3 295/4/3 297/4/3
f 300/4/3 297/4/3 296/4/3
f 301/4/3 297/4/3 300/4/3
f 302/4/3 299/4/3 298/4/3
f 303/4/3 299/4/3 302/4/3
f 304/4/3 302/4/3 301/4/3
f 305/4/3 302/4/3 304/4/3
f 307/4/3 304/4/3 301/4/3
f 308/5/3 305/5/3 304/5/3
f 308/4/3 304/4/3 307/4/3
f 309/4/3 306/4/3 305/4/3
f 309/5/3 305/5/3 308/5/3
f 310/4/3 306/4/3 309/4/3
f 311/3/4 312/3/4 313/3/4
f 313/3/4 312/3/4 314/3/4
f 315/1/4 316/1/4 317/1/4
f 317/1/4 316/1/4 318/1/4
f 317/4/4 318/4/4 319/4/4
f 319/4/4 318/4/4 320/4/4
f 319/1/4 320/1/4 321/1/4
f 321/1/4 320/1/4 322/1/4
f 321/4/4 322/4/4 323/4/4
f 323/4/4 322/4/4 324/4/4
f 325/1/4 326/1/4 327/1/4
f 327/1/4 326/1/4 328/1/4
f 329/2/4 330/2/4 331/2/4
f 331/2/4 330/2/4 332/2/4
f 333/1/4 334/1/4 335/1/4
f 335/1/4 334/1/4 336/1/4
f 337/4/4 338/4/4 339/4/4
f 339/4/4 338/4/4 340/4/4
f 341/4/4 342/4/4 344/4/4
f 343/4/4 344/4/4 345/4/4
f 344/4/4 342/4/4 346/4/4
f 345/4/4 344/4/4 346/4/4
f 346/4/4 342/4/4 347/4/4
f 347/4/4 342/4/4 348/4/4
f 349/4/4 350/4/4 351/4/4
f 351/4/4 350/4/4 352/4/4
f 353/4/4 354/4/4 355/4/4
f 355/4/4 354/4/4 356/4/4
f 357/4/4 358/4/4 359/4/4
f 359/4/4 358/4/4 360/4/4
f 361/4/4 362/4/4 363/4/4
f 363/4/4 362/4/4 364/4/4
f 365/4/4 366/4/4 367/4/4
f 367/4/4 366/4/4 368/4/4
f 369/1/4 370/1/4 372/1/4
f 372/1/4 370/1/4 373/1/4
f 373/1/4 370/1/4 374/1/4
f 372/1/4 373/1/4 375/1/4
f 373/4/4 374/4/4 375/4/4
f 375/4/4 374/4/4 376/4/4
f 375/1/4 376/1/4 379/1/4
f 377/4/4 378/4/4 380/4/4
f 380/4/4 378/4/4 381/4/4
f 375/1/4 379/1/4 383/1/4
f 381/4/4 382/4/4 383/4/4
f 380/4/4 381/4/4 383/4/4
f 379/4/4 380/4/4 383/4/4
f 383/4/4 382/4/4 384/4/4
f 384/4/4 382/4/4 385/4/4
f 385/4/4 382/4/4 386/4/4
f 384/4/4 385/4/4 387/4/4
f 384/4/4 387/4/4 389/4/4
f 387/4/4 388/4/4 389/4/4
f 389/4/4 388/4/4 390/4/4
f 371/2/4 372/2/4 391/2/4
f 372/1/4 375/1/4 392/1/4
f 391/2/4 372/2/4 392/2/4
f 375/1/4 383/1/4 392/1/4
f 392/1/4 383/1/4 393/1/4
f 393/1/4 383/1/4 394/1/4
f 398/2/5 396/2/5 395/2/5
f 399/2/5 396/2/5 398/2/5
f 401/2/5 398/2/5 397/2/5
f 401/2/5 400/2/5 399/2/5
f 401/2/5 399/2/5 398/2/5
f 402/2/5 400/2/5 401/2/5
f 405/3/5 404/3/5 403/3/5
f 406/3/5 404/3/5 405/3/5
f 409/4/5 408/4/5 407/4/5
f 410/4/5 408/4/5 409/4/5
f 413/3/5 412/3/5 411/3/5
f 414/3/5 412/3/5 413/3/5
f 417/2/5 416/2/5 415/2/5
f 418/2/5 416/2/5 417/2/5
f 425/1/5 420/1/5 419/1/5
f 425/4/5 421/4/5 420/4/5
f 426/1/5 422/1/5 421/1/5
f 426/4/5 421/4/5 425/4/5
f 427/4/5 423/4/5 422/4/5
f 427/1/5 422/1/5 426/1/5
f 428/1/5 424/1/5 423/1/5
f 428/4/5 423/4/5 427/4/5
f 429/1/5 427/1/5 426/1/5
f 429/1/5 426/1/5 425/1/5
f 429/1/5 428/1/5 427/1/5
f 429/1/5 425/1/5 419/1/5
f 430/1/5 428/1/5 429/1/5
f 431/1/5 424/1/5 428/1/5
f 431/1/5 428/1/5 430/1/5
f 432/1/5 424/1/5 431/1/5
f 433/4/5 430/4/5 429/4/5
f 433/1/5 429/1/5 419/1/5
f 434/4/5 430/4/5 433/4/5
f 435/4/5 432/4/5 431/4/5
f 436/1/5 424/1/5 432/1/5
f 436/4/5 432/4/5 435/4/5
f 437/1/5 433/1/5 419/1/5
f 438/1/5 433/1/5 437/1/5
f 439/4/5 438/4/5 437/4/5
f 440/1/5 433/1/5 438/1/5
f 440/4/5 438/4/5 439/4/5
f 441/1/5 440/1/5 439/1/5
f 442/1/5 433/1/5 440/1/5
f 442/1/5 440/1/5 441/1/5
f 443/1/5 424/1/5 436/1/5
f 444/1/5 424/1/5 443/1/5
f 448/4/5 446/4/5 445/4/5
f 449/4/5 446/4/5 448/4/5
f 451/4/5 448/4/5 447/4/5
f 452/4/5 448/4/5 451/4/5
f 453/4/5 450/4/5 449/4/5
f 454/4/5 450/4/5 453/4/5
f 457/4/5 456/4/5 455/4/5
f 458/4/5 456/4/5 457/4/5
f 461/4/5 460/4/5 459/4/5
f 462/4/5 460/4/5 461/4/5
f 465/4/5 464/4/5 463/4/5
f 466/4/5 464/4/5 465/4/5
f 469/4/5 468/4/5 467/4/5
f 470/4/5 468/4/5 469/4/5
f 471/2/6 472/2/6 473/2/6
f 473/2/6 472/2/6 474/2/6
f 475/3/6 476/3/6 477/3/6
f 477/3/6 476/3/6 478/3/6
f 479/4/6 480/4/6 481/4/6
f 481/4/6 480/4/6 482/4/6
f 483/3/6 484/3/6 485/3/6
f 485/3/6 484/3/6 486/3/6
f 487/4/6 488/4/6 491/4/6
f 489/4/6 490/4/6 492/4/6
f 487/4/6 491/4/6 493/4/6
f 491/4/6 492/4/6 493/4/6
f 492/4/6 490/4/6 494/4/6
f 493/4/6 492/4/6 494/4/6
f 495/4/6 496/4/6 497/4/6
f 497/4/6 496/4/6 498/4/6
f 495/4/6 497/4/6 499/4/6
f 498/4/6 496/4/6 500/4/6
f 495/4/6 499/4/6 501/4/6
f 499/4/6 500/4/6 501/4/6
f 500/4/6 496/4/6 502/4/6
f 501/4/6 500/4/6 502/4/6
f 503/4/6 504/4/6 509/4/6
f 506/4/6 507/4/6 509/4/6
f 505/4/6 506/4/6 509/4/6
f 504/4/6 505/4/6 509/4/6
f 509/4/6 507/4/6 510/4/6
f 508/4/6 509/4/6 512/4/6
f 510/4/6 511/4/6 512/4/6
f 509/4/6 510/4/6 512/4/6
f 512/4/6 511/4/6 513/4/6
f 508/4/6 512/4/6 514/4/6
f 514/4/6 512/4/6 515/4/6
f 515/4/6 512/4/6 516/4/6
f 516/4/6 512/4/6 517/4/6
f 517/4/6 512/4/6 518/4/6
f 513/4/6 511/4/6 519/4/6
f 517/4/6 518/4/6 520/4/6
f 518/4/6 519/4/6 520/4/6
f 520/4/6 519/4/6 521/4/6
f 519/4/6 511/4/6 522/4/6
f 521/4/6 519/4/6 522/4/6
f 522/4/6 511/4/6 523/4/6
f 521/4/6 522/4/6 524/4/6
f 524/4/6 522/4/6 525/4/6
f 525/4/6 522/4/6 526/4/6
f 526/4/6 522/4/6 527/4/6
f 529/4/6 530/4/6 534/4/6
f 530/1/6 531/1/6 535/1/6
f 534/4/6 530/4/6 535/4/6
f 528/1/6 529/1/6 536/1/6
f 529/4/6 534/4/6 537/4/6
f 536/1/6 529/1/6 537/1/6
f 534/1/6 535/1/6 538/1/6
f 537/4/6 534/4/6 538/4/6
f 535/1/6 531/1/6 539/1/6
f 538/1/6 535/1/6 539/1/6
f 531/4/6 532/4/6 539/4/6
f 532/1/6 533/1/6 540/1/6
f 539/4/6 532/4/6 540/4/6
f 528/1/6 536/1/6 541/1/6
f 541/1/6 536/1/6 542/1/6
f 540/1/6 533/1/6 543/1/6
f 543/1/6 533/1/6 544/1/6
f 528/1/6 541/1/6 545/1/6
f 545/1/6 541/1/6 546/1/6
f 545/4/6 546/4/6 547/4/6
f 547/4/6 546/4/6 548/4/6
f 547/1/6 548/1/6 549/1/6
f 549/1/6 548/1/6 550/1/6
f 549/4/6 550/4/6 551/4/6
f 551/4/6 550/4/6 552/4/6
f 551/1/6 552/1/6 553/1/6
f 544/1/6 533/1/6 556/1/6
f 553/1/6 554/1/6 557/1/6
f 555/1/6 556/1/6 560/1/6
f 557/1/6 558/1/6 561/1/6
f 558/4/6 559/4/6 562/4/6
f 561/1/6 558/1/6 562/1/6
f 559/1/6 560/1/6 563/1/6
f 562/4/6 559/4/6 563/4/6
f 563/1/6 560/1/6 564/1/6
f 564/1/6 560/1/6 565/1/6
f 557/1/6 561/1/6 566/1/6
f 561/4/6 562/4/6 567/4/6
f 566/1/6 561/1/6 567/1/6
f 562/1/6 563/1/6 568/1/6
f 567/4/6 562/4/6 568/4/6
f 563/1/6 564/1/6 568/1/6
f 551/1/6 553/1/6 569/1/6
f 553/1/6 557/1/6 569/1/6
f 557/1/6 566/1/6 569/1/6
f 566/4/6 567/4/6 570/4/6
f 569/1/6 566/1/6 570/1/6
f 567/1/6 568/1/6 571/1/6
f 570/4/6 567/4/6 571/4/6
f 568/1/6 564/1/6 572/1/6
f 571/1/6 568/1/6 572/1/6
f 565/1/6 560/1/6 573/1/6
f 556/1/6 533/1/6 574/1/6
f 573/1/6 560/1/6 574/1/6
f 560/1/6 556/1/6 574/1/6
f 575/4/6 576/4/6 578/4/6
f 578/4/6 576/4/6 579/4/6
f 577/4/6 578/4/6 581/4/6
f 581/4/6 578/4/6 582/4/6
f 579/4/6 580/4/6 583/4/6
f 583/4/6 580/4/6 584/4/6
f 585/4/6 586/4/6 587/4/6
f 587/4/6 586/4/6 588/4/6
f 589/4/6 590/4/6 591/4/6
f 591/4/6 590/4/6 592/4/6
f 593/4/6 594/4/6 595/4/6
f 595/4/6 594/4/6 596/4/6
f 597/4/6 598/4/6 599/4/6
f 599/4/6 598/4/6 600/4/6
f 601/4/6 602/4/6 603/4/6
f 603/4/6 602/4/6 604/4/6
f 605/4/6 606/4/6 607/4/6
f 607/4/6 606/4/6 608/4/6
f 609/4/6 610/4/6 611/4/6
f 611/4/6 610/4/6 612/4/6
f 613/4/6 614/4/6 615/4/6
f 615/4/6 614/4/6 616/4/6
