# MagicaVoxel @ Ephtracy

# group
o 

# material
mtllib refrigerator.mtl
usemtl palette

# normals
vn -1 0 0
vn 1 0 0
vn 0 0 1
vn 0 0 -1
vn 0 -1 0
vn 0 1 0

# texcoords
vt 0.00585938 0.5
vt 0.00976562 0.5
vt 0.0136719 0.5
vt 0.0957031 0.5
vt 0.0996094 0.5
vt 0.103516 0.5

# verts
v -1.3 0.2 -0.4
v -1.3 0.2 -0.7
v -1.3 0.2 -0.8
v -1.3 0.2 -3
v -1.3 3.8 -0.4
v -1.3 3.8 -0.7
v -1.3 3.9 -0.4
v -1.3 3.9 -0.7
v -1.3 5.9 -0.4
v -1.3 5.9 -0.7
v -1.3 5.9 -0.8
v -1.3 5.9 -3
v -1.2 0 -0.5
v -1.2 0 -0.7
v -1.2 0 -2.7
v -1.2 0 -2.9
v -1.2 0.2 -0.5
v -1.2 0.2 -0.7
v -1.2 0.2 -0.8
v -1.2 0.2 -2.7
v -1.2 0.2 -2.9
v -1.2 3.8 -0.7
v -1.2 3.8 -0.8
v -1.2 3.9 -0.7
v -1.2 3.9 -0.8
v -1.2 5.8 -0.7
v -1.2 5.8 -0.8
v -1 1.5 -0.8
v -1 1.5 -0.9
v -1 2 -0.8
v -1 2 -0.9
v -1 2.8 -0.8
v -1 2.8 -0.9
v -1 3 -0.8
v -1 3 -0.9
v -1 4.1 -0.8
v -1 4.1 -0.9
v -1 4.5 -0.8
v -1 4.5 -0.9
v -0.4 0.9 -1
v -0.4 0.9 -1.1
v -0.4 1 -1
v -0.4 1 -1.1
v -0.3 5.1 -2.7
v -0.3 5.1 -2.8
v -0.3 5.2 -2.7
v -0.3 5.2 -2.8
v -0.3 5.3 -2.7
v -0.3 5.3 -2.8
v -0.3 5.4 -2.7
v -0.3 5.4 -2.8
v 0.3 0.8 -1
v 0.3 0.8 -1.1
v 0.3 1 -1
v 0.3 1 -1.1
v 0.6 5.1 -2.7
v 0.6 5.1 -2.8
v 0.6 5.2 -2.7
v 0.6 5.2 -2.8
v 0.6 5.3 -2.7
v 0.6 5.3 -2.8
v 0.6 5.4 -2.7
v 0.6 5.4 -2.8
v 0.7 3.6 -0.4
v 0.7 3.6 -0.7
v 0.7 3.8 -0.4
v 0.7 3.8 -0.7
v 0.8 0 -0.5
v 0.8 0 -0.7
v 0.8 0 -2.7
v 0.8 0 -2.9
v 0.8 0.2 -0.5
v 0.8 0.2 -0.7
v 0.8 0.2 -2.7
v 0.8 0.2 -2.9
v 0.8 0.4 -0.6
v 0.8 0.4 -0.8
v 0.8 0.5 -0.9
v 0.8 0.5 -1
v 0.8 0.5 -1.2
v 0.8 0.5 -2.7
v 0.8 1.3 -1
v 0.8 1.3 -1.2
v 0.8 1.3 -2.7
v 0.8 1.4 -0.6
v 0.8 1.4 -0.8
v 0.8 1.4 -1
v 0.8 1.4 -1.2
v 0.8 1.4 -2.7
v 0.8 1.5 -0.6
v 0.8 1.5 -0.8
v 0.8 1.5 -0.9
v 0.8 2 -0.8
v 0.8 2 -0.9
v 0.8 2.3 -1
v 0.8 2.3 -1.2
v 0.8 2.3 -2.7
v 0.8 2.4 -1
v 0.8 2.4 -1.2
v 0.8 2.4 -2.7
v 0.8 2.7 -0.6
v 0.8 2.7 -0.8
v 0.8 2.8 -0.6
v 0.8 2.8 -0.8
v 0.8 2.8 -0.9
v 0.8 2.9 -1
v 0.8 2.9 -1.2
v 0.8 2.9 -2.7
v 0.8 3 -0.8
v 0.8 3 -0.9
v 0.8 3 -1
v 0.8 3 -1.2
v 0.8 3 -2.7
v 0.8 3.4 -0.6
v 0.8 3.4 -0.8
v 0.8 3.5 -0.9
v 0.8 3.5 -2.7
v 0.8 4.1 -0.6
v 0.8 4.1 -0.8
v 0.8 4.2 -0.9
v 0.8 4.2 -2.7
v 0.8 4.5 -0.8
v 0.8 4.5 -0.9
v 0.8 4.7 -0.9
v 0.8 4.7 -1
v 0.8 4.7 -1.2
v 0.8 4.7 -2.7
v 0.8 4.8 -0.9
v 0.8 4.8 -1
v 0.8 4.8 -1.2
v 0.8 4.8 -2.7
v 0.8 5.6 -0.6
v 0.8 5.6 -0.8
v 0.8 5.6 -0.9
v 0.8 5.6 -2.7
v 0.9 4.7 -0.9
v 0.9 4.7 -1
v 0.9 4.8 -0.9
v 0.9 4.8 -1
v 1 0.3 -0.8
v 1 0.3 -0.9
v 1 3.7 -0.8
v 1 3.7 -0.9
v 1 4 -0.8
v 1 4 -0.9
v 1 5.8 -0.8
v 1 5.8 -0.9
v -1.2 0.3 -0.8
v -1.2 0.3 -0.9
v -1.2 3.7 -0.8
v -1.2 3.7 -0.9
v -1.2 4 -0.8
v -1.2 4 -0.9
v -1.2 5.8 -0.8
v -1.2 5.8 -0.9
v -1.1 4.7 -0.9
v -1.1 4.7 -1
v -1.1 4.8 -0.9
v -1.1 4.8 -1
v -1 0 -0.5
v -1 0 -0.7
v -1 0 -2.7
v -1 0 -2.9
v -1 0.2 -0.5
v -1 0.2 -0.7
v -1 0.2 -2.7
v -1 0.2 -2.9
v -1 0.4 -0.6
v -1 0.4 -0.8
v -1 0.5 -0.9
v -1 0.5 -1
v -1 0.5 -1.2
v -1 0.5 -2.7
v -1 1.3 -1
v -1 1.3 -1.2
v -1 1.3 -2.7
v -1 1.4 -0.6
v -1 1.4 -0.8
v -1 1.4 -1
v -1 1.4 -1.2
v -1 1.4 -2.7
v -1 1.5 -0.6
v -1 1.5 -0.8
v -1 1.5 -0.9
v -1 2 -0.8
v -1 2 -0.9
v -1 2.3 -1
v -1 2.3 -1.2
v -1 2.3 -2.7
v -1 2.4 -1
v -1 2.4 -1.2
v -1 2.4 -2.7
v -1 2.7 -0.6
v -1 2.7 -0.8
v -1 2.8 -0.6
v -1 2.8 -0.8
v -1 2.8 -0.9
v -1 2.9 -1
v -1 2.9 -1.2
v -1 2.9 -2.7
v -1 3 -0.8
v -1 3 -0.9
v -1 3 -1
v -1 3 -1.2
v -1 3 -2.7
v -1 3.4 -0.6
v -1 3.4 -0.8
v -1 3.5 -0.9
v -1 3.5 -2.7
v -1 4.1 -0.6
v -1 4.1 -0.8
v -1 4.2 -0.9
v -1 4.2 -2.7
v -1 4.5 -0.8
v -1 4.5 -0.9
v -1 4.7 -0.9
v -1 4.7 -1
v -1 4.7 -1.2
v -1 4.7 -2.7
v -1 4.8 -0.9
v -1 4.8 -1
v -1 4.8 -1.2
v -1 4.8 -2.7
v -1 5.6 -0.6
v -1 5.6 -0.8
v -1 5.6 -0.9
v -1 5.6 -2.7
v -0.9 3.6 -0.4
v -0.9 3.6 -0.7
v -0.9 3.8 -0.4
v -0.9 3.8 -0.7
v -0.8 5.1 -2.7
v -0.8 5.1 -2.8
v -0.8 5.2 -2.7
v -0.8 5.2 -2.8
v -0.8 5.3 -2.7
v -0.8 5.3 -2.8
v -0.8 5.4 -2.7
v -0.8 5.4 -2.8
v -0.5 0.8 -1
v -0.5 0.8 -1.1
v -0.5 1 -1
v -0.5 1 -1.1
v 0.0999999 5.1 -2.7
v 0.0999999 5.1 -2.8
v 0.0999999 5.2 -2.7
v 0.0999999 5.2 -2.8
v 0.0999999 5.3 -2.7
v 0.0999999 5.3 -2.8
v 0.0999999 5.4 -2.7
v 0.0999999 5.4 -2.8
v 0.2 0.9 -1
v 0.2 0.9 -1.1
v 0.2 1 -1
v 0.2 1 -1.1
v 0.8 1.5 -0.8
v 0.8 1.5 -0.9
v 0.8 2 -0.8
v 0.8 2 -0.9
v 0.8 2.8 -0.8
v 0.8 2.8 -0.9
v 0.8 3 -0.8
v 0.8 3 -0.9
v 0.8 4.1 -0.8
v 0.8 4.1 -0.9
v 0.8 4.5 -0.8
v 0.8 4.5 -0.9
v 1 0 -0.5
v 1 0 -0.7
v 1 0 -2.7
v 1 0 -2.9
v 1 0.2 -0.5
v 1 0.2 -0.7
v 1 0.2 -0.8
v 1 0.2 -2.7
v 1 0.2 -2.9
v 1 3.8 -0.7
v 1 3.8 -0.8
v 1 3.9 -0.7
v 1 3.9 -0.8
v 1 5.8 -0.7
v 1 5.8 -0.8
v 1.1 0.2 -0.4
v 1.1 0.2 -0.7
v 1.1 0.2 -0.8
v 1.1 0.2 -3
v 1.1 3.8 -0.4
v 1.1 3.8 -0.7
v 1.1 3.9 -0.4
v 1.1 3.9 -0.7
v 1.1 5.9 -0.4
v 1.1 5.9 -0.7
v 1.1 5.9 -0.8
v 1.1 5.9 -3
v -1.3 0.2 -0.4
v -1.3 3.8 -0.4
v -1.3 3.9 -0.4
v -1.3 5.9 -0.4
v -0.9 3.6 -0.4
v -0.9 3.8 -0.4
v 0.7 3.6 -0.4
v 0.7 3.8 -0.4
v 1.1 0.2 -0.4
v 1.1 3.8 -0.4
v 1.1 3.9 -0.4
v 1.1 5.9 -0.4
v -1.2 0 -0.5
v -1.2 0.2 -0.5
v -1 0 -0.5
v -1 0.2 -0.5
v 0.8 0 -0.5
v 0.8 0.2 -0.5
v 1 0 -0.5
v 1 0.2 -0.5
v -0.9 3.6 -0.7
v -0.9 3.8 -0.7
v 0.7 3.6 -0.7
v 0.7 3.8 -0.7
v -1.3 0.2 -0.8
v -1.3 5.9 -0.8
v -1.2 0.2 -0.8
v -1.2 3.8 -0.8
v -1.2 3.9 -0.8
v -1.2 5.8 -0.8
v -1 1.5 -0.8
v -1 2 -0.8
v -1 2.8 -0.8
v -1 3 -0.8
v -1 4.1 -0.8
v -1 4.5 -0.8
v 0.8 1.5 -0.8
v 0.8 2 -0.8
v 0.8 2.8 -0.8
v 0.8 3 -0.8
v 0.8 4.1 -0.8
v 0.8 4.5 -0.8
v 1 0.2 -0.8
v 1 3.8 -0.8
v 1 3.9 -0.8
v 1 5.8 -0.8
v 1.1 0.2 -0.8
v 1.1 5.9 -0.8
v -1.2 0.3 -0.9
v -1.2 3.7 -0.9
v -1.2 4 -0.9
v -1.2 5.8 -0.9
v -1.1 4.7 -0.9
v -1.1 4.8 -0.9
v -1 0.5 -0.9
v -1 1.5 -0.9
v -1 2 -0.9
v -1 2.8 -0.9
v -1 3 -0.9
v -1 3.5 -0.9
v -1 4.1 -0.9
v -1 4.5 -0.9
v -1 4.7 -0.9
v -1 4.8 -0.9
v -1 5.6 -0.9
v 0.8 0.5 -0.9
v 0.8 1.5 -0.9
v 0.8 2 -0.9
v 0.8 2.8 -0.9
v 0.8 3 -0.9
v 0.8 3.5 -0.9
v 0.8 4.1 -0.9
v 0.8 4.5 -0.9
v 0.8 4.7 -0.9
v 0.8 4.8 -0.9
v 0.8 5.6 -0.9
v 0.9 4.7 -0.9
v 0.9 4.8 -0.9
v 1 0.3 -0.9
v 1 3.7 -0.9
v 1 4 -0.9
v 1 5.8 -0.9
v -1.1 4.7 -1
v -1.1 4.8 -1
v -1 0.5 -1
v -1 1.3 -1
v -1 1.4 -1
v -1 2.3 -1
v -1 2.4 -1
v -1 2.9 -1
v -1 3 -1
v -1 4.7 -1
v -1 4.8 -1
v -0.5 0.8 -1
v -0.5 1 -1
v -0.4 0.9 -1
v -0.4 1 -1
v 0.2 0.9 -1
v 0.2 1 -1
v 0.3 0.8 -1
v 0.3 1 -1
v 0.8 0.5 -1
v 0.8 1.3 -1
v 0.8 1.4 -1
v 0.8 2.3 -1
v 0.8 2.4 -1
v 0.8 2.9 -1
v 0.8 3 -1
v 0.8 4.7 -1
v 0.8 4.8 -1
v 0.9 4.7 -1
v 0.9 4.8 -1
v -0.5 0.8 -1.1
v -0.5 1 -1.1
v -0.4 0.9 -1.1
v -0.4 1 -1.1
v 0.2 0.9 -1.1
v 0.2 1 -1.1
v 0.3 0.8 -1.1
v 0.3 1 -1.1
v -1.2 0 -2.7
v -1.2 0.2 -2.7
v -1 0 -2.7
v -1 0.2 -2.7
v -1 0.5 -2.7
v -1 1.3 -2.7
v -1 1.4 -2.7
v -1 2.3 -2.7
v -1 2.4 -2.7
v -1 2.9 -2.7
v -1 3 -2.7
v -1 3.5 -2.7
v -1 4.2 -2.7
v -1 4.7 -2.7
v -1 4.8 -2.7
v -1 5.6 -2.7
v -0.8 5.1 -2.7
v -0.8 5.2 -2.7
v -0.8 5.3 -2.7
v -0.8 5.4 -2.7
v -0.3 5.1 -2.7
v -0.3 5.2 -2.7
v -0.3 5.3 -2.7
v -0.3 5.4 -2.7
v 0.0999999 5.1 -2.7
v 0.0999999 5.2 -2.7
v 0.0999999 5.3 -2.7
v 0.0999999 5.4 -2.7
v 0.6 5.1 -2.7
v 0.6 5.2 -2.7
v 0.6 5.3 -2.7
v 0.6 5.4 -2.7
v 0.8 0 -2.7
v 0.8 0.2 -2.7
v 0.8 0.5 -2.7
v 0.8 1.3 -2.7
v 0.8 1.4 -2.7
v 0.8 2.3 -2.7
v 0.8 2.4 -2.7
v 0.8 2.9 -2.7
v 0.8 3 -2.7
v 0.8 3.5 -2.7
v 0.8 4.2 -2.7
v 0.8 4.7 -2.7
v 0.8 4.8 -2.7
v 0.8 5.6 -2.7
v 1 0 -2.7
v 1 0.2 -2.7
v -0.8 5.1 -2.8
v -0.8 5.2 -2.8
v -0.8 5.3 -2.8
v -0.8 5.4 -2.8
v -0.3 5.1 -2.8
v -0.3 5.2 -2.8
v -0.3 5.3 -2.8
v -0.3 5.4 -2.8
v 0.0999999 5.1 -2.8
v 0.0999999 5.2 -2.8
v 0.0999999 5.3 -2.8
v 0.0999999 5.4 -2.8
v 0.6 5.1 -2.8
v 0.6 5.2 -2.8
v 0.6 5.3 -2.8
v 0.6 5.4 -2.8
v -1 0.4 -0.6
v -1 1.4 -0.6
v -1 1.5 -0.6
v -1 2.7 -0.6
v -1 2.8 -0.6
v -1 3.4 -0.6
v -1 4.1 -0.6
v -1 5.6 -0.6
v 0.8 0.4 -0.6
v 0.8 1.4 -0.6
v 0.8 1.5 -0.6
v 0.8 2.7 -0.6
v 0.8 2.8 -0.6
v 0.8 3.4 -0.6
v 0.8 4.1 -0.6
v 0.8 5.6 -0.6
v -1.3 0.2 -0.7
v -1.3 3.8 -0.7
v -1.3 3.9 -0.7
v -1.3 5.9 -0.7
v -1.2 0 -0.7
v -1.2 0.2 -0.7
v -1.2 3.8 -0.7
v -1.2 3.9 -0.7
v -1.2 5.8 -0.7
v -1 0 -0.7
v -1 0.2 -0.7
v 0.8 0 -0.7
v 0.8 0.2 -0.7
v 1 0 -0.7
v 1 0.2 -0.7
v 1 3.8 -0.7
v 1 3.9 -0.7
v 1 5.8 -0.7
v 1.1 0.2 -0.7
v 1.1 3.8 -0.7
v 1.1 3.9 -0.7
v 1.1 5.9 -0.7
v -1.2 0.3 -0.8
v -1.2 3.7 -0.8
v -1.2 4 -0.8
v -1.2 5.8 -0.8
v -1.1 0.3 -0.8
v -1.1 3.5 -0.8
v -1.1 4 -0.8
v -1.1 5.7 -0.8
v -1 0.4 -0.8
v -1 1.4 -0.8
v -1 1.5 -0.8
v -1 2 -0.8
v -1 2.7 -0.8
v -1 2.8 -0.8
v -1 3 -0.8
v -1 3.4 -0.8
v -1 4.1 -0.8
v -1 4.5 -0.8
v -1 5.6 -0.8
v 0.8 0.4 -0.8
v 0.8 1.4 -0.8
v 0.8 1.5 -0.8
v 0.8 2 -0.8
v 0.8 2.7 -0.8
v 0.8 2.8 -0.8
v 0.8 3 -0.8
v 0.8 3.4 -0.8
v 0.8 4.1 -0.8
v 0.8 4.5 -0.8
v 0.8 5.6 -0.8
v 0.9 0.3 -0.8
v 0.9 3.5 -0.8
v 0.9 4 -0.8
v 0.9 5.7 -0.8
v 1 0.3 -0.8
v 1 3.7 -0.8
v 1 4 -0.8
v 1 5.8 -0.8
v -1 1.5 -0.9
v -1 2 -0.9
v -1 2.8 -0.9
v -1 3 -0.9
v -1 4.2 -0.9
v -1 4.5 -0.9
v 0.8 1.5 -0.9
v 0.8 2 -0.9
v 0.8 2.8 -0.9
v 0.8 3 -0.9
v 0.8 4.2 -0.9
v 0.8 4.5 -0.9
v -1 0.5 -1.2
v -1 1.3 -1.2
v 0.8 0.5 -1.2
v 0.8 1.3 -1.2
v -1.2 0 -2.9
v -1.2 0.2 -2.9
v -1 0 -2.9
v -1 0.2 -2.9
v 0.8 0 -2.9
v 0.8 0.2 -2.9
v 1 0 -2.9
v 1 0.2 -2.9
v -1.3 0.2 -3
v -1.3 5.9 -3
v 1.1 0.2 -3
v 1.1 5.9 -3
v -1.2 0 -0.5
v -1 0 -0.5
v 0.8 0 -0.5
v 1 0 -0.5
v -1.2 0 -0.7
v -1 0 -0.7
v 0.8 0 -0.7
v 1 0 -0.7
v -1.2 0 -2.7
v -1 0 -2.7
v 0.8 0 -2.7
v 1 0 -2.7
v -1.2 0 -2.9
v -1 0 -2.9
v 0.8 0 -2.9
v 1 0 -2.9
v -1.3 0.2 -0.4
v 1.1 0.2 -0.4
v -1.2 0.2 -0.5
v -1 0.2 -0.5
v 0.8 0.2 -0.5
v 1 0.2 -0.5
v -1.3 0.2 -0.7
v -1.2 0.2 -0.7
v -1 0.2 -0.7
v 0.8 0.2 -0.7
v 1 0.2 -0.7
v 1.1 0.2 -0.7
v -1.3 0.2 -0.8
v -1.2 0.2 -0.8
v 1 0.2 -0.8
v 1.1 0.2 -0.8
v -1.2 0.2 -2.7
v -1 0.2 -2.7
v 0.8 0.2 -2.7
v 1 0.2 -2.7
v -1.2 0.2 -2.9
v -1 0.2 -2.9
v 0.8 0.2 -2.9
v 1 0.2 -2.9
v -1.3 0.2 -3
v 1.1 0.2 -3
v -0.4 0.9 -1
v 0.2 0.9 -1
v -0.4 0.9 -1.1
v 0.2 0.9 -1.1
v -0.5 1 -1
v -0.4 1 -1
v 0.2 1 -1
v 0.3 1 -1
v -0.5 1 -1.1
v -0.4 1 -1.1
v 0.2 1 -1.1
v 0.3 1 -1.1
v -1 1.3 -1.2
v 0.8 1.3 -1.2
v -1 1.3 -2.7
v 0.8 1.3 -2.7
v -1 1.4 -0.6
v 0.8 1.4 -0.6
v -1 1.4 -0.8
v 0.8 1.4 -0.8
v -1 1.5 -0.8
v 0.8 1.5 -0.8
v -1 1.5 -0.9
v 0.8 1.5 -0.9
v -1 2.3 -1
v 0.8 2.3 -1
v -1 2.3 -1.2
v 0.8 2.3 -1.2
v -1 2.3 -2.7
v 0.8 2.3 -2.7
v -1 2.7 -0.6
v 0.8 2.7 -0.6
v -1 2.7 -0.8
v 0.8 2.7 -0.8
v -1 2.8 -0.8
v 0.8 2.8 -0.8
v -1 2.8 -0.9
v 0.8 2.8 -0.9
v -1 2.9 -1
v 0.8 2.9 -1
v -1 2.9 -1.2
v 0.8 2.9 -1.2
v -1 2.9 -2.7
v 0.8 2.9 -2.7
v -1 3.4 -0.6
v 0.8 3.4 -0.6
v -1 3.4 -0.8
v 0.8 3.4 -0.8
v -1 3.5 -0.9
v 0.8 3.5 -0.9
v -1 3.5 -2.7
v 0.8 3.5 -2.7
v -1.2 3.7 -0.8
v 1 3.7 -0.8
v -1.2 3.7 -0.9
v 1 3.7 -0.9
v -1.3 3.9 -0.4
v 1.1 3.9 -0.4
v -1.3 3.9 -0.7
v -1.2 3.9 -0.7
v 1 3.9 -0.7
v 1.1 3.9 -0.7
v -1.2 3.9 -0.8
v 1 3.9 -0.8
v -1 4.1 -0.8
v 0.8 4.1 -0.8
v -1 4.1 -0.9
v 0.8 4.1 -0.9
v -1 4.7 -1
v 0.8 4.7 -1
v -1 4.7 -1.2
v 0.8 4.7 -1.2
v -1 4.7 -2.7
v 0.8 4.7 -2.7
v -1.1 4.8 -0.9
v -1 4.8 -0.9
v 0.8 4.8 -0.9
v 0.9 4.8 -0.9
v -1.1 4.8 -1
v -1 4.8 -1
v 0.8 4.8 -1
v 0.9 4.8 -1
v -0.8 5.2 -2.7
v -0.3 5.2 -2.7
v 0.0999999 5.2 -2.7
v 0.6 5.2 -2.7
v -0.8 5.2 -2.8
v -0.3 5.2 -2.8
v 0.0999999 5.2 -2.8
v 0.6 5.2 -2.8
v -0.8 5.4 -2.7
v -0.3 5.4 -2.7
v 0.0999999 5.4 -2.7
v 0.6 5.4 -2.7
v -0.8 5.4 -2.8
v -0.3 5.4 -2.8
v 0.0999999 5.4 -2.8
v 0.6 5.4 -2.8
v -1 5.6 -0.6
v 0.8 5.6 -0.6
v -1 5.6 -0.8
v 0.8 5.6 -0.8
v -1 5.6 -0.9
v 0.8 5.6 -0.9
v -1 5.6 -2.7
v 0.8 5.6 -2.7
v -1.2 5.8 -0.8
v 1 5.8 -0.8
v -1.2 5.8 -0.9
v 1 5.8 -0.9
v -1.2 0.3 -0.8
v -1.1 0.3 -0.8
v 0.9 0.3 -0.8
v 1 0.3 -0.8
v -1.2 0.3 -0.9
v 1 0.3 -0.9
v -1 0.4 -0.6
v 0.8 0.4 -0.6
v -1 0.4 -0.8
v 0.8 0.4 -0.8
v -1 0.5 -0.9
v 0.8 0.5 -0.9
v -1 0.5 -1
v 0.8 0.5 -1
v -1 0.5 -1.2
v 0.8 0.5 -1.2
v -1 0.5 -2.7
v 0.8 0.5 -2.7
v -0.5 0.8 -1
v 0.3 0.8 -1
v -0.5 0.8 -1.1
v 0.3 0.8 -1.1
v -1 1.4 -1
v 0.8 1.4 -1
v -1 1.4 -1.2
v 0.8 1.4 -1.2
v -1 1.4 -2.7
v 0.8 1.4 -2.7
v -1 1.5 -0.6
v 0.8 1.5 -0.6
v -1 1.5 -0.8
v 0.8 1.5 -0.8
v -1 2 -0.8
v 0.8 2 -0.8
v -1 2 -0.9
v 0.8 2 -0.9
v -1 2.4 -1
v 0.8 2.4 -1
v -1 2.4 -1.2
v 0.8 2.4 -1.2
v -1 2.4 -2.7
v 0.8 2.4 -2.7
v -1 2.8 -0.6
v 0.8 2.8 -0.6
v -1 2.8 -0.8
v 0.8 2.8 -0.8
v -1 3 -0.8
v 0.8 3 -0.8
v -1 3 -0.9
v 0.8 3 -0.9
v -1 3 -1
v 0.8 3 -1
v -1 3 -1.2
v 0.8 3 -1.2
v -1 3 -2.7
v 0.8 3 -2.7
v -0.9 3.6 -0.4
v 0.7 3.6 -0.4
v -0.9 3.6 -0.7
v 0.7 3.6 -0.7
v -1.3 3.8 -0.4
v -0.9 3.8 -0.4
v 0.7 3.8 -0.4
v 1.1 3.8 -0.4
v -1.3 3.8 -0.7
v -1.2 3.8 -0.7
v -0.9 3.8 -0.7
v 0.7 3.8 -0.7
v 1 3.8 -0.7
v 1.1 3.8 -0.7
v -1.2 3.8 -0.8
v 1 3.8 -0.8
v -1.2 4 -0.8
v -1.1 4 -0.8
v 0.9 4 -0.8
v 1 4 -0.8
v -1.2 4 -0.9
v 1 4 -0.9
v -1 4.1 -0.6
v 0.8 4.1 -0.6
v -1 4.1 -0.8
v 0.8 4.1 -0.8
v -1 4.2 -0.9
v 0.8 4.2 -0.9
v -1 4.2 -2.7
v 0.8 4.2 -2.7
v -1 4.5 -0.8
v 0.8 4.5 -0.8
v -1 4.5 -0.9
v 0.8 4.5 -0.9
v -1.1 4.7 -0.9
v -1 4.7 -0.9
v 0.8 4.7 -0.9
v 0.9 4.7 -0.9
v -1.1 4.7 -1
v -1 4.7 -1
v 0.8 4.7 -1
v 0.9 4.7 -1
v -1 4.8 -1
v 0.8 4.8 -1
v -1 4.8 -1.2
v 0.8 4.8 -1.2
v -1 4.8 -2.7
v 0.8 4.8 -2.7
v -0.8 5.1 -2.7
v -0.3 5.1 -2.7
v 0.0999999 5.1 -2.7
v 0.6 5.1 -2.7
v -0.8 5.1 -2.8
v -0.3 5.1 -2.8
v 0.0999999 5.1 -2.8
v 0.6 5.1 -2.8
v -0.8 5.3 -2.7
v -0.3 5.3 -2.7
v 0.0999999 5.3 -2.7
v 0.6 5.3 -2.7
v -0.8 5.3 -2.8
v -0.3 5.3 -2.8
v 0.0999999 5.3 -2.8
v 0.6 5.3 -2.8
v -1.2 5.8 -0.7
v 1 5.8 -0.7
v -1.2 5.8 -0.8
v 1 5.8 -0.8
v -1.3 5.9 -0.4
v 1.1 5.9 -0.4
v -1.3 5.9 -0.7
v 1.1 5.9 -0.7
v -1.3 5.9 -0.8
v 1.1 5.9 -0.8
v -1.3 5.9 -3
v 1.1 5.9 -3

# faces
f 5/3/1 2/3/1 1/3/1
f 6/3/1 2/3/1 5/3/1
f 9/3/1 8/3/1 7/3/1
f 10/3/1 8/3/1 9/3/1
f 11/2/1 4/2/1 3/2/1
f 12/2/1 4/2/1 11/2/1
f 17/1/1 14/1/1 13/1/1
f 18/1/1 14/1/1 17/1/1
f 20/1/1 16/1/1 15/1/1
f 21/1/1 16/1/1 20/1/1
f 22/3/1 19/3/1 18/3/1
f 23/3/1 19/3/1 22/3/1
f 26/3/1 25/3/1 24/3/1
f 27/3/1 25/3/1 26/3/1
f 30/5/1 29/5/1 28/5/1
f 31/5/1 29/5/1 30/5/1
f 34/5/1 33/5/1 32/5/1
f 35/5/1 33/5/1 34/5/1
f 38/5/1 37/5/1 36/5/1
f 39/5/1 37/5/1 38/5/1
f 42/5/1 41/5/1 40/5/1
f 43/5/1 41/5/1 42/5/1
f 46/4/1 45/4/1 44/4/1
f 47/4/1 45/4/1 46/4/1
f 50/4/1 49/4/1 48/4/1
f 51/4/1 49/4/1 50/4/1
f 54/5/1 53/5/1 52/5/1
f 55/5/1 53/5/1 54/5/1
f 58/4/1 57/4/1 56/4/1
f 59/4/1 57/4/1 58/4/1
f 62/4/1 61/4/1 60/4/1
f 63/4/1 61/4/1 62/4/1
f 66/3/1 65/3/1 64/3/1
f 67/3/1 65/3/1 66/3/1
f 72/1/1 69/1/1 68/1/1
f 73/1/1 69/1/1 72/1/1
f 74/1/1 71/1/1 70/1/1
f 75/1/1 71/1/1 74/1/1
f 82/4/1 79/4/1 78/4/1
f 83/4/1 81/4/1 80/4/1
f 84/4/1 81/4/1 83/4/1
f 85/4/1 77/4/1 76/4/1
f 86/4/1 77/4/1 85/4/1
f 87/4/1 82/4/1 78/4/1
f 92/4/1 89/4/1 88/4/1
f 92/4/1 87/4/1 78/4/1
f 92/4/1 88/4/1 87/4/1
f 93/4/1 91/4/1 90/4/1
f 94/4/1 89/4/1 92/4/1
f 95/4/1 89/4/1 94/4/1
f 96/4/1 89/4/1 95/4/1
f 97/4/1 89/4/1 96/4/1
f 98/4/1 95/4/1 94/4/1
f 101/4/1 93/4/1 90/4/1
f 102/4/1 93/4/1 101/4/1
f 105/4/1 100/4/1 99/4/1
f 105/4/1 98/4/1 94/4/1
f 105/4/1 99/4/1 98/4/1
f 106/4/1 100/4/1 105/4/1
f 107/4/1 100/4/1 106/4/1
f 108/4/1 100/4/1 107/4/1
f 109/4/1 104/4/1 103/4/1
f 110/4/1 106/4/1 105/4/1
f 111/4/1 106/4/1 110/4/1
f 114/4/1 109/4/1 103/4/1
f 115/4/1 109/4/1 114/4/1
f 116/4/1 113/4/1 112/4/1
f 116/4/1 111/4/1 110/4/1
f 116/4/1 112/4/1 111/4/1
f 117/4/1 113/4/1 116/4/1
f 122/4/1 119/4/1 118/4/1
f 123/4/1 121/4/1 120/4/1
f 124/4/1 121/4/1 123/4/1
f 125/4/1 121/4/1 124/4/1
f 126/4/1 121/4/1 125/4/1
f 127/4/1 121/4/1 126/4/1
f 132/4/1 122/4/1 118/4/1
f 133/4/1 122/4/1 132/4/1
f 134/4/1 131/4/1 130/4/1
f 134/4/1 129/4/1 128/4/1
f 134/4/1 130/4/1 129/4/1
f 135/4/1 131/4/1 134/4/1
f 138/4/1 137/4/1 136/4/1
f 139/4/1 137/4/1 138/4/1
f 142/2/1 141/2/1 140/2/1
f 143/2/1 141/2/1 142/2/1
f 146/2/1 145/2/1 144/2/1
f 147/2/1 145/2/1 146/2/1
f 148/2/2 149/2/2 150/2/2
f 150/2/2 149/2/2 151/2/2
f 152/2/2 153/2/2 154/2/2
f 154/2/2 153/2/2 155/2/2
f 156/4/2 157/4/2 158/4/2
f 158/4/2 157/4/2 159/4/2
f 160/1/2 161/1/2 164/1/2
f 164/1/2 161/1/2 165/1/2
f 162/1/2 163/1/2 166/1/2
f 166/1/2 163/1/2 167/1/2
f 170/4/2 171/4/2 174/4/2
f 172/4/2 173/4/2 175/4/2
f 175/4/2 173/4/2 176/4/2
f 168/4/2 169/4/2 177/4/2
f 177/4/2 169/4/2 178/4/2
f 170/4/2 174/4/2 179/4/2
f 180/4/2 181/4/2 184/4/2
f 170/4/2 179/4/2 184/4/2
f 179/4/2 180/4/2 184/4/2
f 182/4/2 183/4/2 185/4/2
f 184/4/2 181/4/2 186/4/2
f 186/4/2 181/4/2 187/4/2
f 187/4/2 181/4/2 188/4/2
f 188/4/2 181/4/2 189/4/2
f 186/4/2 187/4/2 190/4/2
f 182/4/2 185/4/2 193/4/2
f 193/4/2 185/4/2 194/4/2
f 191/4/2 192/4/2 197/4/2
f 186/4/2 190/4/2 197/4/2
f 190/4/2 191/4/2 197/4/2
f 197/4/2 192/4/2 198/4/2
f 198/4/2 192/4/2 199/4/2
f 199/4/2 192/4/2 200/4/2
f 195/4/2 196/4/2 201/4/2
f 197/4/2 198/4/2 202/4/2
f 202/4/2 198/4/2 203/4/2
f 195/4/2 201/4/2 206/4/2
f 206/4/2 201/4/2 207/4/2
f 204/4/2 205/4/2 208/4/2
f 202/4/2 203/4/2 208/4/2
f 203/4/2 204/4/2 208/4/2
f 208/4/2 205/4/2 209/4/2
f 210/4/2 211/4/2 214/4/2
f 212/4/2 213/4/2 215/4/2
f 215/4/2 213/4/2 216/4/2
f 216/4/2 213/4/2 217/4/2
f 217/4/2 213/4/2 218/4/2
f 218/4/2 213/4/2 219/4/2
f 210/4/2 214/4/2 224/4/2
f 224/4/2 214/4/2 225/4/2
f 222/4/2 223/4/2 226/4/2
f 220/4/2 221/4/2 226/4/2
f 221/4/2 222/4/2 226/4/2
f 226/4/2 223/4/2 227/4/2
f 228/3/2 229/3/2 230/3/2
f 230/3/2 229/3/2 231/3/2
f 232/4/2 233/4/2 234/4/2
f 234/4/2 233/4/2 235/4/2
f 236/4/2 237/4/2 238/4/2
f 238/4/2 237/4/2 239/4/2
f 240/5/2 241/5/2 242/5/2
f 242/5/2 241/5/2 243/5/2
f 244/4/2 245/4/2 246/4/2
f 246/4/2 245/4/2 247/4/2
f 248/4/2 249/4/2 250/4/2
f 250/4/2 249/4/2 251/4/2
f 252/5/2 253/5/2 254/5/2
f 254/5/2 253/5/2 255/5/2
f 256/5/2 257/5/2 258/5/2
f 258/5/2 257/5/2 259/5/2
f 260/5/2 261/5/2 262/5/2
f 262/5/2 261/5/2 263/5/2
f 264/5/2 265/5/2 266/5/2
f 266/5/2 265/5/2 267/5/2
f 268/1/2 269/1/2 272/1/2
f 272/1/2 269/1/2 273/1/2
f 270/1/2 271/1/2 275/1/2
f 275/1/2 271/1/2 276/1/2
f 273/3/2 274/3/2 277/3/2
f 277/3/2 274/3/2 278/3/2
f 279/3/2 280/3/2 281/3/2
f 281/3/2 280/3/2 282/3/2
f 283/3/2 284/3/2 287/3/2
f 287/3/2 284/3/2 288/3/2
f 289/3/2 290/3/2 291/3/2
f 291/3/2 290/3/2 292/3/2
f 285/2/2 286/2/2 293/2/2
f 293/2/2 286/2/2 294/2/2
f 299/3/3 296/3/3 295/3/3
f 300/3/3 296/3/3 299/3/3
f 301/3/3 299/3/3 295/3/3
f 303/3/3 301/3/3 295/3/3
f 303/3/3 302/3/3 301/3/3
f 304/3/3 302/3/3 303/3/3
f 305/3/3 298/3/3 297/3/3
f 306/3/3 298/3/3 305/3/3
f 309/1/3 308/1/3 307/1/3
f 310/1/3 308/1/3 309/1/3
f 313/1/3 312/1/3 311/1/3
f 314/1/3 312/1/3 313/1/3
f 317/3/3 316/3/3 315/3/3
f 318/3/3 316/3/3 317/3/3
f 321/2/3 320/2/3 319/2/3
f 322/2/3 320/2/3 321/2/3
f 323/2/3 320/2/3 322/2/3
f 324/2/3 320/2/3 323/2/3
f 331/5/3 326/5/3 325/5/3
f 332/5/3 326/5/3 331/5/3
f 333/5/3 328/5/3 327/5/3
f 334/5/3 328/5/3 333/5/3
f 335/5/3 330/5/3 329/5/3
f 336/5/3 330/5/3 335/5/3
f 338/2/3 323/2/3 322/2/3
f 339/2/3 323/2/3 338/2/3
f 340/2/3 320/2/3 324/2/3
f 341/2/3 339/2/3 338/2/3
f 341/2/3 340/2/3 339/2/3
f 341/2/3 338/2/3 337/2/3
f 342/2/3 320/2/3 340/2/3
f 342/2/3 340/2/3 341/2/3
f 347/4/3 346/4/3 345/4/3
f 348/4/3 346/4/3 347/4/3
f 349/4/3 344/4/3 343/4/3
f 350/4/3 344/4/3 349/4/3
f 351/4/3 344/4/3 350/4/3
f 352/4/3 344/4/3 351/4/3
f 353/4/3 344/4/3 352/4/3
f 354/4/3 344/4/3 353/4/3
f 355/4/3 347/4/3 345/4/3
f 356/4/3 347/4/3 355/4/3
f 357/4/3 347/4/3 356/4/3
f 358/4/3 346/4/3 348/4/3
f 359/4/3 346/4/3 358/4/3
f 360/4/3 349/4/3 343/4/3
f 365/4/3 344/4/3 354/4/3
f 366/4/3 355/4/3 345/4/3
f 370/4/3 346/4/3 359/4/3
f 371/4/3 368/4/3 367/4/3
f 371/4/3 367/4/3 366/4/3
f 372/4/3 370/4/3 369/4/3
f 373/4/3 364/4/3 363/4/3
f 373/4/3 365/4/3 364/4/3
f 373/4/3 360/4/3 343/4/3
f 373/4/3 361/4/3 360/4/3
f 373/4/3 362/4/3 361/4/3
f 373/4/3 363/4/3 362/4/3
f 374/4/3 344/4/3 365/4/3
f 374/4/3 365/4/3 373/4/3
f 375/4/3 371/4/3 366/4/3
f 375/4/3 372/4/3 371/4/3
f 375/4/3 366/4/3 345/4/3
f 376/4/3 370/4/3 372/4/3
f 376/4/3 372/4/3 375/4/3
f 376/4/3 346/4/3 370/4/3
f 386/6/3 378/6/3 377/6/3
f 387/6/3 378/6/3 386/6/3
f 388/5/3 380/5/3 379/5/3
f 389/5/3 380/5/3 388/5/3
f 391/5/3 380/5/3 389/5/3
f 392/5/3 391/5/3 390/5/3
f 393/5/3 380/5/3 391/5/3
f 393/5/3 391/5/3 392/5/3
f 394/5/3 388/5/3 379/5/3
f 395/5/3 380/5/3 393/5/3
f 396/5/3 394/5/3 379/5/3
f 396/5/3 395/5/3 394/5/3
f 397/6/3 381/6/3 380/6/3
f 397/5/3 395/5/3 396/5/3
f 397/5/3 380/5/3 395/5/3
f 398/6/3 381/6/3 397/6/3
f 399/6/3 383/6/3 382/6/3
f 400/6/3 383/6/3 399/6/3
f 401/6/3 385/6/3 384/6/3
f 402/6/3 385/6/3 401/6/3
f 403/6/3 387/6/3 386/6/3
f 404/6/3 387/6/3 403/6/3
f 405/6/3 404/6/3 403/6/3
f 406/6/3 404/6/3 405/6/3
f 409/5/3 408/5/3 407/5/3
f 410/5/3 408/5/3 409/5/3
f 411/5/3 409/5/3 407/5/3
f 413/5/3 411/5/3 407/5/3
f 413/5/3 412/5/3 411/5/3
f 414/5/3 412/5/3 413/5/3
f 417/1/3 416/1/3 415/1/3
f 418/1/3 416/1/3 417/1/3
f 431/4/3 430/4/3 429/4/3
f 432/4/3 430/4/3 431/4/3
f 433/4/3 430/4/3 432/4/3
f 434/4/3 430/4/3 433/4/3
f 435/4/3 431/4/3 429/4/3
f 436/4/3 433/4/3 432/4/3
f 437/4/3 433/4/3 436/4/3
f 438/4/3 430/4/3 434/4/3
f 439/4/3 437/4/3 436/4/3
f 439/4/3 438/4/3 437/4/3
f 439/4/3 435/4/3 429/4/3
f 439/4/3 436/4/3 435/4/3
f 440/4/3 438/4/3 439/4/3
f 441/4/3 438/4/3 440/4/3
f 442/4/3 430/4/3 438/4/3
f 442/4/3 438/4/3 441/4/3
f 443/4/3 439/4/3 429/4/3
f 444/4/3 441/4/3 440/4/3
f 445/4/3 441/4/3 444/4/3
f 446/4/3 430/4/3 442/4/3
f 449/4/3 420/4/3 419/4/3
f 450/4/3 420/4/3 449/4/3
f 451/4/3 422/4/3 421/4/3
f 452/4/3 422/4/3 451/4/3
f 453/4/3 424/4/3 423/4/3
f 454/4/3 424/4/3 453/4/3
f 455/4/3 426/4/3 425/4/3
f 456/4/3 426/4/3 455/4/3
f 457/4/3 428/4/3 427/4/3
f 458/4/3 428/4/3 457/4/3
f 459/4/3 443/4/3 429/4/3
f 459/4/3 445/4/3 444/4/3
f 459/4/3 444/4/3 443/4/3
f 459/4/3 446/4/3 445/4/3
f 460/4/3 430/4/3 446/4/3
f 460/4/3 446/4/3 459/4/3
f 461/1/3 448/1/3 447/1/3
f 462/1/3 448/1/3 461/1/3
f 467/4/3 464/4/3 463/4/3
f 468/4/3 464/4/3 467/4/3
f 469/4/3 466/4/3 465/4/3
f 470/4/3 466/4/3 469/4/3
f 475/4/3 472/4/3 471/4/3
f 476/4/3 472/4/3 475/4/3
f 477/4/3 474/4/3 473/4/3
f 478/4/3 474/4/3 477/4/3
f 479/4/4 480/4/4 487/4/4
f 487/4/4 480/4/4 488/4/4
f 481/4/4 482/4/4 489/4/4
f 489/4/4 482/4/4 490/4/4
f 483/4/4 484/4/4 491/4/4
f 491/4/4 484/4/4 492/4/4
f 485/4/4 486/4/4 493/4/4
f 493/4/4 486/4/4 494/4/4
f 495/3/4 496/3/4 500/3/4
f 500/3/4 496/3/4 501/3/4
f 497/3/4 498/3/4 502/3/4
f 502/3/4 498/3/4 503/3/4
f 499/1/4 500/1/4 504/1/4
f 504/1/4 500/1/4 505/1/4
f 506/1/4 507/1/4 508/1/4
f 508/1/4 507/1/4 509/1/4
f 503/3/4 498/3/4 512/3/4
f 509/3/4 510/3/4 513/3/4
f 513/3/4 510/3/4 514/3/4
f 511/3/4 512/3/4 515/3/4
f 512/3/4 498/3/4 516/3/4
f 515/3/4 512/3/4 516/3/4
f 517/3/4 518/3/4 521/3/4
f 521/3/4 518/3/4 522/3/4
f 519/3/4 520/3/4 523/3/4
f 523/3/4 520/3/4 524/3/4
f 521/4/4 522/4/4 525/4/4
f 525/4/4 522/4/4 526/4/4
f 526/4/4 522/4/4 527/4/4
f 527/4/4 522/4/4 528/4/4
f 528/4/4 522/4/4 529/4/4
f 529/4/4 522/4/4 530/4/4
f 530/4/4 522/4/4 531/4/4
f 531/4/4 522/4/4 532/4/4
f 523/4/4 524/4/4 533/4/4
f 533/4/4 524/4/4 534/4/4
f 534/4/4 524/4/4 535/4/4
f 521/4/4 525/4/4 536/4/4
f 526/5/4 527/5/4 537/5/4
f 537/5/4 527/5/4 538/5/4
f 529/5/4 530/5/4 540/5/4
f 540/5/4 530/5/4 541/5/4
f 532/4/4 522/4/4 543/4/4
f 523/4/4 533/4/4 544/4/4
f 535/4/4 524/4/4 546/4/4
f 541/4/4 542/4/4 547/4/4
f 542/4/4 543/4/4 547/4/4
f 521/4/4 536/4/4 547/4/4
f 538/4/4 539/4/4 547/4/4
f 536/4/4 537/4/4 547/4/4
f 537/4/4 538/4/4 547/4/4
f 539/4/4 540/4/4 547/4/4
f 540/4/4 541/4/4 547/4/4
f 522/3/4 518/3/4 548/3/4
f 547/4/4 543/4/4 548/4/4
f 543/4/4 522/4/4 548/4/4
f 545/4/4 546/4/4 549/4/4
f 544/4/4 545/4/4 549/4/4
f 523/4/4 544/4/4 549/4/4
f 524/3/4 520/3/4 550/3/4
f 549/4/4 546/4/4 550/4/4
f 546/4/4 524/4/4 550/4/4
f 547/3/4 548/3/4 551/3/4
f 548/3/4 518/3/4 552/3/4
f 551/3/4 548/3/4 552/3/4
f 549/3/4 550/3/4 553/3/4
f 550/3/4 520/3/4 554/3/4
f 553/3/4 550/3/4 554/3/4
f 555/5/4 556/5/4 561/5/4
f 561/5/4 556/5/4 562/5/4
f 557/5/4 558/5/4 563/5/4
f 563/5/4 558/5/4 564/5/4
f 559/5/4 560/5/4 565/5/4
f 565/5/4 560/5/4 566/5/4
f 567/5/4 568/5/4 569/5/4
f 569/5/4 568/5/4 570/5/4
f 571/1/4 572/1/4 573/1/4
f 573/1/4 572/1/4 574/1/4
f 575/1/4 576/1/4 577/1/4
f 577/1/4 576/1/4 578/1/4
f 579/2/4 580/2/4 581/2/4
f 581/2/4 580/2/4 582/2/4
f 587/1/5 584/1/5 583/1/5
f 588/1/5 584/1/5 587/1/5
f 589/1/5 586/1/5 585/1/5
f 590/1/5 586/1/5 589/1/5
f 595/1/5 592/1/5 591/1/5
f 596/1/5 592/1/5 595/1/5
f 597/1/5 594/1/5 593/1/5
f 598/1/5 594/1/5 597/1/5
f 601/3/5 600/3/5 599/3/5
f 602/3/5 600/3/5 601/3/5
f 603/3/5 600/3/5 602/3/5
f 604/3/5 600/3/5 603/3/5
f 605/3/5 601/3/5 599/3/5
f 606/3/5 601/3/5 605/3/5
f 607/3/5 603/3/5 602/3/5
f 608/3/5 603/3/5 607/3/5
f 609/3/5 600/3/5 604/3/5
f 610/3/5 600/3/5 609/3/5
f 612/3/5 608/3/5 607/3/5
f 612/3/5 609/3/5 608/3/5
f 612/3/5 607/3/5 606/3/5
f 613/3/5 609/3/5 612/3/5
f 615/2/5 612/2/5 611/2/5
f 615/2/5 614/2/5 613/2/5
f 615/2/5 613/2/5 612/2/5
f 616/2/5 614/2/5 615/2/5
f 617/2/5 614/2/5 616/2/5
f 618/2/5 614/2/5 617/2/5
f 619/2/5 615/2/5 611/2/5
f 620/2/5 617/2/5 616/2/5
f 621/2/5 617/2/5 620/2/5
f 622/2/5 614/2/5 618/2/5
f 623/2/5 621/2/5 620/2/5
f 623/2/5 622/2/5 621/2/5
f 623/2/5 619/2/5 611/2/5
f 623/2/5 620/2/5 619/2/5
f 624/2/5 614/2/5 622/2/5
f 624/2/5 622/2/5 623/2/5
f 627/5/5 626/5/5 625/5/5
f 628/5/5 626/5/5 627/5/5
f 633/5/5 630/5/5 629/5/5
f 634/5/5 630/5/5 633/5/5
f 635/5/5 632/5/5 631/5/5
f 636/5/5 632/5/5 635/5/5
f 639/5/5 638/5/5 637/5/5
f 640/5/5 638/5/5 639/5/5
f 643/5/5 642/5/5 641/5/5
f 644/5/5 642/5/5 643/5/5
f 647/5/5 646/5/5 645/5/5
f 648/5/5 646/5/5 647/5/5
f 651/6/5 650/6/5 649/6/5
f 652/6/5 650/6/5 651/6/5
f 653/5/5 652/5/5 651/5/5
f 654/5/5 652/5/5 653/5/5
f 657/5/5 656/5/5 655/5/5
f 658/5/5 656/5/5 657/5/5
f 661/5/5 660/5/5 659/5/5
f 662/5/5 660/5/5 661/5/5
f 665/6/5 664/6/5 663/6/5
f 666/6/5 664/6/5 665/6/5
f 667/5/5 666/5/5 665/5/5
f 668/5/5 666/5/5 667/5/5
f 671/4/5 670/4/5 669/4/5
f 672/4/5 670/4/5 671/4/5
f 675/4/5 674/4/5 673/4/5
f 676/4/5 674/4/5 675/4/5
f 679/2/5 678/2/5 677/2/5
f 680/2/5 678/2/5 679/2/5
f 683/3/5 682/3/5 681/3/5
f 684/3/5 682/3/5 683/3/5
f 685/3/5 682/3/5 684/3/5
f 686/3/5 682/3/5 685/3/5
f 687/3/5 685/3/5 684/3/5
f 688/3/5 685/3/5 687/3/5
f 691/5/5 690/5/5 689/5/5
f 692/5/5 690/5/5 691/5/5
f 695/6/5 694/6/5 693/6/5
f 696/6/5 694/6/5 695/6/5
f 697/5/5 696/5/5 695/5/5
f 698/5/5 696/5/5 697/5/5
f 703/4/5 700/4/5 699/4/5
f 704/4/5 700/4/5 703/4/5
f 705/4/5 702/4/5 701/4/5
f 706/4/5 702/4/5 705/4/5
f 711/4/5 708/4/5 707/4/5
f 712/4/5 708/4/5 711/4/5
f 713/4/5 710/4/5 709/4/5
f 714/4/5 710/4/5 713/4/5
f 719/4/5 716/4/5 715/4/5
f 720/4/5 716/4/5 719/4/5
f 721/4/5 718/4/5 717/4/5
f 722/4/5 718/4/5 721/4/5
f 725/4/5 724/4/5 723/4/5
f 726/4/5 724/4/5 725/4/5
f 729/4/5 728/4/5 727/4/5
f 730/4/5 728/4/5 729/4/5
f 733/2/5 732/2/5 731/2/5
f 734/2/5 732/2/5 733/2/5
f 735/2/6 736/2/6 739/2/6
f 737/2/6 738/2/6 739/2/6
f 736/2/6 737/2/6 739/2/6
f 739/2/6 738/2/6 740/2/6
f 741/4/6 742/4/6 743/4/6
f 743/4/6 742/4/6 744/4/6
f 745/4/6 746/4/6 747/4/6
f 747/4/6 746/4/6 748/4/6
f 749/4/6 750/4/6 751/4/6
f 751/4/6 750/4/6 752/4/6
f 753/5/6 754/5/6 755/5/6
f 755/5/6 754/5/6 756/5/6
f 757/6/6 758/6/6 759/6/6
f 759/6/6 758/6/6 760/6/6
f 759/5/6 760/5/6 761/5/6
f 761/5/6 760/5/6 762/5/6
f 763/5/6 764/5/6 765/5/6
f 765/5/6 764/5/6 766/5/6
f 767/5/6 768/5/6 769/5/6
f 769/5/6 768/5/6 770/5/6
f 771/6/6 772/6/6 773/6/6
f 773/6/6 772/6/6 774/6/6
f 773/5/6 774/5/6 775/5/6
f 775/5/6 774/5/6 776/5/6
f 777/5/6 778/5/6 779/5/6
f 779/5/6 778/5/6 780/5/6
f 781/5/6 782/5/6 783/5/6
f 783/5/6 782/5/6 784/5/6
f 785/6/6 786/6/6 787/6/6
f 787/6/6 786/6/6 788/6/6
f 787/5/6 788/5/6 789/5/6
f 789/5/6 788/5/6 790/5/6
f 791/3/6 792/3/6 793/3/6
f 793/3/6 792/3/6 794/3/6
f 795/3/6 796/3/6 799/3/6
f 799/3/6 796/3/6 800/3/6
f 800/3/6 796/3/6 801/3/6
f 797/3/6 798/3/6 802/3/6
f 802/3/6 798/3/6 803/3/6
f 803/3/6 798/3/6 804/3/6
f 800/3/6 801/3/6 805/3/6
f 802/3/6 803/3/6 805/3/6
f 801/3/6 802/3/6 805/3/6
f 805/3/6 803/3/6 806/3/6
f 807/2/6 808/2/6 811/2/6
f 809/2/6 810/2/6 811/2/6
f 808/2/6 809/2/6 811/2/6
f 811/2/6 810/2/6 812/2/6
f 813/4/6 814/4/6 815/4/6
f 815/4/6 814/4/6 816/4/6
f 817/4/6 818/4/6 819/4/6
f 819/4/6 818/4/6 820/4/6
f 821/5/6 822/5/6 823/5/6
f 823/5/6 822/5/6 824/5/6
f 825/4/6 826/4/6 829/4/6
f 829/4/6 826/4/6 830/4/6
f 827/4/6 828/4/6 831/4/6
f 831/4/6 828/4/6 832/4/6
f 833/6/6 834/6/6 835/6/6
f 835/6/6 834/6/6 836/6/6
f 835/5/6 836/5/6 837/5/6
f 837/5/6 836/5/6 838/5/6
f 839/4/6 840/4/6 843/4/6
f 843/4/6 840/4/6 844/4/6
f 841/4/6 842/4/6 845/4/6
f 845/4/6 842/4/6 846/4/6
f 847/4/6 848/4/6 851/4/6
f 851/4/6 848/4/6 852/4/6
f 849/4/6 850/4/6 853/4/6
f 853/4/6 850/4/6 854/4/6
f 855/3/6 856/3/6 857/3/6
f 857/3/6 856/3/6 858/3/6
f 859/3/6 860/3/6 861/3/6
f 861/3/6 860/3/6 862/3/6
f 863/2/6 864/2/6 865/2/6
f 865/2/6 864/2/6 866/2/6
