# MagicaVoxel @ Ephtracy

# group
o 

# material
mtllib shower.mtl
usemtl palette

# normals
vn -1 0 0
vn 1 0 0
vn 0 0 1
vn 0 0 -1
vn 0 -1 0
vn 0 1 0

# texcoords
vt 0.00976562 0.5
vt 0.0214844 0.5
vt 0.0292969 0.5
vt 0.0332031 0.5
vt 0.0371094 0.5

# verts
v -0.9 1.4 -3
v -0.9 1.4 -3.2
v -0.9 2 -3
v -0.9 2 -3.2
v -0.8 1.5 -2.8
v -0.8 1.5 -3
v -0.8 1.9 -2.8
v -0.8 1.9 -3
v -0.7 1.6 -2.5
v -0.7 1.6 -2.6
v -0.7 1.6 -2.8
v -0.7 1.8 -2.5
v -0.7 1.8 -2.6
v -0.7 1.8 -2.8
v -0.6 1.6 -2.4
v -0.6 1.6 -2.5
v -0.6 1.8 -2.4
v -0.6 1.8 -2.5
v -0.6 5.2 0.4
v -0.6 5.2 -0.1
v -0.6 5.5 0.4
v -0.6 5.5 -0.1
v -0.5 5.2 0.6
v -0.5 5.2 0.4
v -0.5 5.2 -0.1
v -0.5 5.2 -0.3
v -0.5 5.5 0.6
v -0.5 5.5 0.4
v -0.5 5.5 -0.1
v -0.5 5.5 -0.3
v -0.4 1.5 -2.4
v -0.4 1.5 -2.5
v -0.4 1.6 -2.3
v -0.4 1.6 -2.4
v -0.4 1.6 -2.5
v -0.4 1.8 -2.4
v -0.4 1.8 -2.5
v -0.4 2 -2.3
v -0.4 2 -2.4
v -0.4 2.1 -2.4
v -0.4 2.1 -2.5
v -0.4 5.2 0.7
v -0.4 5.2 0.6
v -0.4 5.2 0.2
v -0.4 5.2 0.1
v -0.4 5.2 -0.3
v -0.4 5.2 -0.4
v -0.4 5.3 0.2
v -0.4 5.3 0.1
v -0.4 5.5 0.7
v -0.4 5.5 0.6
v -0.4 5.5 -0.3
v -0.4 5.5 -0.4
v -0.3 1.5 -2.5
v -0.3 1.5 -2.6
v -0.3 1.6 -2.2
v -0.3 1.6 -2.3
v -0.3 1.6 -2.5
v -0.3 1.6 -2.6
v -0.3 1.8 -2.2
v -0.3 1.8 -2.3
v -0.3 2 -2.3
v -0.3 2 -2.4
v -0.3 2.1 -2.3
v -0.3 2.1 -2.4
v -0.3 5.2 0.8
v -0.3 5.2 0.7
v -0.3 5.2 0.4
v -0.3 5.2 0.3
v -0.3 5.2 0
v -0.3 5.2 -0.1
v -0.3 5.2 -0.4
v -0.3 5.2 -0.5
v -0.3 5.3 0.4
v -0.3 5.3 0.3
v -0.3 5.3 0
v -0.3 5.3 -0.1
v -0.3 5.5 0.8
v -0.3 5.5 0.7
v -0.3 5.5 0.4
v -0.3 5.5 -0.1
v -0.3 5.5 -0.4
v -0.3 5.5 -0.5
v -0.3 5.6 0.4
v -0.3 5.6 -0.1
v -0.2 1.5 -2.3
v -0.2 1.5 -2.4
v -0.2 1.6 -2
v -0.2 1.6 -2.2
v -0.2 1.6 -2.3
v -0.2 1.6 -2.4
v -0.2 1.8 -2
v -0.2 1.8 -2.2
v -0.2 5.2 0.6
v -0.2 5.2 0.5
v -0.2 5.2 0.2
v -0.2 5.2 0.1
v -0.2 5.2 -0.2
v -0.2 5.2 -0.3
v -0.2 5.3 0.6
v -0.2 5.3 0.5
v -0.2 5.3 0.2
v -0.2 5.3 0.1
v -0.2 5.3 -0.2
v -0.2 5.3 -0.3
v -0.2 5.5 0.5
v -0.2 5.5 0.4
v -0.2 5.5 -0.1
v -0.2 5.5 -0.2
v -0.2 5.6 0.5
v -0.2 5.6 0.4
v -0.2 5.6 -0.1
v -0.2 5.6 -0.2
v -0.1 1.5 -2.1
v -0.1 1.5 -2.3
v -0.1 1.6 -2.1
v -0.1 1.6 -2.3
v -0.1 1.6 -2.6
v -0.1 1.6 -2.7
v -0.1 1.8 -2.6
v -0.1 1.8 -2.7
v -0.1 4.8 -3.1
v -0.1 4.8 -3.2
v -0.1 5 -2.5
v -0.1 5 -2.6
v -0.1 5.1 -2.5
v -0.1 5.1 -2.6
v -0.1 5.2 0.9
v -0.1 5.2 0.8
v -0.1 5.2 0.5
v -0.1 5.2 0.4
v -0.1 5.2 0.3
v -0.1 5.2 0.2
v -0.1 5.2 0.1
v -0.1 5.2 0
v -0.1 5.2 -0.1
v -0.1 5.2 -0.2
v -0.1 5.2 -0.5
v -0.1 5.2 -0.6
v -0.1 5.3 0.5
v -0.1 5.3 0.4
v -0.1 5.3 0.3
v -0.1 5.3 0.2
v -0.1 5.3 0.1
v -0.1 5.3 0
v -0.1 5.3 -0.1
v -0.1 5.3 -0.2
v -0.1 5.3 -3.1
v -0.1 5.3 -3.2
v -0.1 5.5 0.9
v -0.1 5.5 0.8
v -0.1 5.5 0.6
v -0.1 5.5 0.5
v -0.1 5.5 -0.2
v -0.1 5.5 -0.3
v -0.1 5.5 -0.5
v -0.1 5.5 -0.6
v -0.1 5.6 0.6
v -0.1 5.6 0.5
v -0.1 5.6 0.2
v -0.1 5.6 0.1
v -0.1 5.6 -0.2
v -0.1 5.6 -0.3
v -0.1 5.7 0.2
v -0.1 5.7 0.1
v 0 1.5 -2
v 0 1.5 -2.1
v 0 1.5 -2.6
v 0 1.5 -2.7
v 0 1.6 -1.8
v 0 1.6 -2
v 0 1.6 -2.1
v 0 1.6 -2.6
v 0 1.6 -2.7
v 0 1.7 -1.4
v 0 1.7 -1.8
v 0 1.8 -1.4
v 0 1.8 -2
v 0 1.8 -2.1
v 0 1.8 -2.3
v 0 1.8 -2.5
v 0 1.8 -2.6
v 0 2.1 -1.9
v 0 2.1 -2.1
v 0 2.1 -2.2
v 0 2.1 -2.3
v 0 2.2 -1.9
v 0 2.2 -2.2
v 0 4.9 -2.9
v 0 4.9 -3.1
v 0 5 -2.4
v 0 5 -2.5
v 0 5 -2.6
v 0 5 -2.7
v 0 5.1 -2.4
v 0 5.1 -2.5
v 0 5.1 -2.6
v 0 5.1 -2.7
v 0 5.2 0.7
v 0 5.2 0.6
v 0 5.2 0.4
v 0 5.2 0.3
v 0 5.2 0.2
v 0 5.2 0.1
v 0 5.2 0
v 0 5.2 -0.1
v 0 5.2 -0.3
v 0 5.2 -0.4
v 0 5.2 -2.9
v 0 5.2 -3.1
v 0 5.3 0.7
v 0 5.3 0.6
v 0 5.3 0.4
v 0 5.3 0.3
v 0 5.3 0.2
v 0 5.3 0.1
v 0 5.3 0
v 0 5.3 -0.1
v 0 5.3 -0.3
v 0 5.3 -0.4
v 0 5.5 -2.4
v 0 5.5 -2.5
v 0 5.5 -2.6
v 0 5.6 0.3
v 0 5.6 0.2
v 0 5.6 0.1
v 0 5.6 0
v 0 5.7 0.3
v 0 5.7 0.2
v 0 5.7 0.1
v 0 5.7 0
v 0 5.7 -2.3
v 0 5.7 -2.4
v 0 5.7 -2.5
v 0 5.9 0.2
v 0 5.9 0.1
v 0 5.9 0
v 0 5.9 -2.2
v 0 5.9 -2.3
v 0 5.9 -2.4
v 0 6.1 0.1
v 0 6.1 0
v 0 6.1 -0.1
v 0 6.1 -2.1
v 0 6.1 -2.2
v 0 6.1 -2.3
v 0 6.2 0
v 0 6.2 -0.1
v 0 6.2 -2.1
v 0 6.2 -2.2
v 0 6.3 -0.1
v 0 6.3 -2.1
v 0.1 1.5 -1.9
v 0.1 1.5 -2
v 0.1 1.6 -1.5
v 0.1 1.6 -1.6
v 0.1 1.6 -1.9
v 0.1 1.6 -2
v 0.1 1.7 -1.5
v 0.1 1.7 -1.6
v 0.1 1.8 -1.8
v 0.1 1.8 -1.9
v 0.1 1.8 -2.3
v 0.1 1.8 -2.5
v 0.1 1.8 -2.6
v 0.1 1.8 -2.7
v 0.1 1.9 -1.8
v 0.1 1.9 -1.9
v 0.1 2 -2
v 0.1 2 -2.1
v 0.1 2.1 -1.8
v 0.1 2.1 -1.9
v 0.1 2.1 -2
v 0.1 2.1 -2.1
v 0.1 2.1 -2.2
v 0.1 2.1 -2.3
v 0.1 2.2 -1.8
v 0.1 2.2 -1.9
v 0.1 2.2 -2.2
v 0.1 2.2 -2.4
v 0.1 5 -2.3
v 0.1 5 -2.4
v 0.1 5 -2.5
v 0.1 5 -2.6
v 0.1 5 -2.7
v 0.1 5 -2.9
v 0.1 5.1 -2.3
v 0.1 5.1 -2.4
v 0.1 5.1 -2.5
v 0.1 5.1 -2.6
v 0.1 5.1 -2.7
v 0.1 5.1 -2.9
v 0.1 5.2 0.5
v 0.1 5.2 0.4
v 0.1 5.2 -0.1
v 0.1 5.2 -0.2
v 0.1 5.3 0.5
v 0.1 5.3 0.4
v 0.1 5.3 -0.1
v 0.1 5.3 -0.2
v 0.1 5.5 -2.3
v 0.1 5.5 -2.4
v 0.1 5.5 -2.5
v 0.1 5.5 -2.6
v 0.1 5.5 -2.7
v 0.1 5.6 0.4
v 0.1 5.6 0.3
v 0.1 5.6 0
v 0.1 5.6 -0.1
v 0.1 5.7 0.4
v 0.1 5.7 0.3
v 0.1 5.7 0.2
v 0.1 5.7 0.1
v 0.1 5.7 0
v 0.1 5.7 -0.1
v 0.1 5.7 -2.2
v 0.1 5.7 -2.3
v 0.1 5.7 -2.4
v 0.1 5.7 -2.5
v 0.1 5.7 -2.6
v 0.1 5.9 0.3
v 0.1 5.9 0.2
v 0.1 5.9 0.1
v 0.1 5.9 0
v 0.1 5.9 -0.1
v 0.1 5.9 -2.1
v 0.1 5.9 -2.2
v 0.1 5.9 -2.3
v 0.1 5.9 -2.4
v 0.1 5.9 -2.5
v 0.1 6.1 0.2
v 0.1 6.1 0.1
v 0.1 6.1 0
v 0.1 6.1 -0.1
v 0.1 6.1 -2.1
v 0.1 6.1 -2.2
v 0.1 6.1 -2.3
v 0.1 6.1 -2.4
v 0.1 6.2 0
v 0.1 6.2 -0.1
v 0.1 6.2 -2.1
v 0.1 6.2 -2.2
v 0.1 6.3 0.1
v 0.1 6.3 0
v 0.1 6.3 -0.1
v 0.1 6.3 -2.1
v 0.1 6.3 -2.2
v 0.1 6.3 -2.3
v 0.1 6.4 0
v 0.1 6.4 -2.2
v 0.2 5.2 0.8
v 0.2 5.2 0.7
v 0.2 5.2 0.6
v 0.2 5.2 0.5
v 0.2 5.2 0.4
v 0.2 5.2 0.3
v 0.2 5.2 0.2
v 0.2 5.2 0.1
v 0.2 5.2 0
v 0.2 5.2 -0.1
v 0.2 5.2 -0.2
v 0.2 5.2 -0.3
v 0.2 5.2 -0.4
v 0.2 5.2 -0.5
v 0.2 5.3 0.8
v 0.2 5.3 0.7
v 0.2 5.3 0.6
v 0.2 5.3 0.5
v 0.2 5.3 0.4
v 0.2 5.3 0.3
v 0.2 5.3 0.2
v 0.2 5.3 0.1
v 0.2 5.3 0
v 0.2 5.3 -0.1
v 0.2 5.3 -0.2
v 0.2 5.3 -0.3
v 0.2 5.3 -0.4
v 0.2 5.3 -0.5
v 0.3 1.7 -2.3
v 0.3 1.7 -2.5
v 0.3 1.8 -2.3
v 0.3 1.8 -2.5
v 0.3 5.2 0.5
v 0.3 5.2 0.4
v 0.3 5.2 -0.1
v 0.3 5.2 -0.2
v 0.3 5.3 0.5
v 0.3 5.3 0.4
v 0.3 5.3 -0.1
v 0.3 5.3 -0.2
v 0.4 1.8 -2.3
v 0.4 1.8 -2.5
v 0.4 2 -2.3
v 0.4 2 -2.4
v 0.4 2.1 -2.4
v 0.4 2.1 -2.5
v 0.4 5.2 0.7
v 0.4 5.2 0.6
v 0.4 5.2 0.4
v 0.4 5.2 0.3
v 0.4 5.2 0.2
v 0.4 5.2 0.1
v 0.4 5.2 0
v 0.4 5.2 -0.1
v 0.4 5.2 -0.3
v 0.4 5.2 -0.4
v 0.4 5.3 0.7
v 0.4 5.3 0.6
v 0.4 5.3 0.4
v 0.4 5.3 0.3
v 0.4 5.3 0.2
v 0.4 5.3 0.1
v 0.4 5.3 0
v 0.4 5.3 -0.1
v 0.4 5.3 -0.3
v 0.4 5.3 -0.4
v 0.5 2 -2.3
v 0.5 2 -2.4
v 0.5 2.1 -2.3
v 0.5 2.1 -2.4
v 0.5 5.2 0.5
v 0.5 5.2 0.4
v 0.5 5.2 0.3
v 0.5 5.2 0.2
v 0.5 5.2 0.1
v 0.5 5.2 0
v 0.5 5.2 -0.1
v 0.5 5.2 -0.2
v 0.5 5.3 0.5
v 0.5 5.3 0.4
v 0.5 5.3 0.3
v 0.5 5.3 0.2
v 0.5 5.3 0.1
v 0.5 5.3 0
v 0.5 5.3 -0.1
v 0.5 5.3 -0.2
v 0.6 1.4 -3
v 0.6 1.4 -3.2
v 0.6 2 -3
v 0.6 2 -3.2
v 0.6 5.2 0.6
v 0.6 5.2 0.5
v 0.6 5.2 0.2
v 0.6 5.2 0.1
v 0.6 5.2 -0.2
v 0.6 5.2 -0.3
v 0.6 5.3 0.6
v 0.6 5.3 0.5
v 0.6 5.3 0.2
v 0.6 5.3 0.1
v 0.6 5.3 -0.2
v 0.6 5.3 -0.3
v 0.7 1.5 -2.8
v 0.7 1.5 -3
v 0.7 1.9 -2.8
v 0.7 1.9 -3
v 0.7 5.2 0.4
v 0.7 5.2 0.3
v 0.7 5.2 0
v 0.7 5.2 -0.1
v 0.7 5.3 0.4
v 0.7 5.3 0.3
v 0.7 5.3 0
v 0.7 5.3 -0.1
v 0.8 1.6 -2.6
v 0.8 1.6 -2.8
v 0.8 1.8 -2.6
v 0.8 1.8 -2.8
v 0.8 5.2 0.2
v 0.8 5.2 0.1
v 0.8 5.3 0.2
v 0.8 5.3 0.1
v -0.5 1.6 -2.6
v -0.5 1.6 -2.8
v -0.5 1.8 -2.6
v -0.5 1.8 -2.8
v -0.5 5.2 0.2
v -0.5 5.2 0.1
v -0.5 5.3 0.2
v -0.5 5.3 0.1
v -0.4 1.5 -2.8
v -0.4 1.5 -3
v -0.4 1.9 -2.8
v -0.4 1.9 -3
v -0.4 5.2 0.4
v -0.4 5.2 0.3
v -0.4 5.2 0
v -0.4 5.2 -0.1
v -0.4 5.3 0.4
v -0.4 5.3 0.3
v -0.4 5.3 0
v -0.4 5.3 -0.1
v -0.3 1.4 -3
v -0.3 1.4 -3.2
v -0.3 2 -3
v -0.3 2 -3.2
v -0.3 5.2 0.6
v -0.3 5.2 0.5
v -0.3 5.2 0.2
v -0.3 5.2 0.1
v -0.3 5.2 -0.2
v -0.3 5.2 -0.3
v -0.3 5.3 0.6
v -0.3 5.3 0.5
v -0.3 5.3 0.2
v -0.3 5.3 0.1
v -0.3 5.3 -0.2
v -0.3 5.3 -0.3
v -0.2 2 -2.3
v -0.2 2 -2.4
v -0.2 2.1 -2.3
v -0.2 2.1 -2.4
v -0.2 5.2 0.5
v -0.2 5.2 0.4
v -0.2 5.2 0.3
v -0.2 5.2 0.2
v -0.2 5.2 0.1
v -0.2 5.2 0
v -0.2 5.2 -0.1
v -0.2 5.2 -0.2
v -0.2 5.3 0.5
v -0.2 5.3 0.4
v -0.2 5.3 0.3
v -0.2 5.3 0.2
v -0.2 5.3 0.1
v -0.2 5.3 0
v -0.2 5.3 -0.1
v -0.2 5.3 -0.2
v -0.1 1.8 -2.3
v -0.1 1.8 -2.5
v -0.1 2 -2.3
v -0.1 2 -2.4
v -0.1 2.1 -2.4
v -0.1 2.1 -2.5
v -0.1 5.2 0.7
v -0.1 5.2 0.6
v -0.1 5.2 0.4
v -0.1 5.2 0.3
v -0.1 5.2 0.2
v -0.1 5.2 0.1
v -0.1 5.2 0
v -0.1 5.2 -0.1
v -0.1 5.2 -0.3
v -0.1 5.2 -0.4
v -0.1 5.3 0.7
v -0.1 5.3 0.6
v -0.1 5.3 0.4
v -0.1 5.3 0.3
v -0.1 5.3 0.2
v -0.1 5.3 0.1
v -0.1 5.3 0
v -0.1 5.3 -0.1
v -0.1 5.3 -0.3
v -0.1 5.3 -0.4
v 0 5.2 0.5
v 0 5.2 0.4
v 0 5.2 -0.1
v 0 5.2 -0.2
v 0 5.3 0.5
v 0 5.3 0.4
v 0 5.3 -0.1
v 0 5.3 -0.2
v 0.1 5.2 0.8
v 0.1 5.2 0.7
v 0.1 5.2 0.6
v 0.1 5.2 0.5
v 0.1 5.2 0.4
v 0.1 5.2 0.3
v 0.1 5.2 0.2
v 0.1 5.2 0.1
v 0.1 5.2 0
v 0.1 5.2 -0.1
v 0.1 5.2 -0.2
v 0.1 5.2 -0.3
v 0.1 5.2 -0.4
v 0.1 5.2 -0.5
v 0.1 5.3 0.8
v 0.1 5.3 0.7
v 0.1 5.3 0.6
v 0.1 5.3 0.5
v 0.1 5.3 0.4
v 0.1 5.3 0.3
v 0.1 5.3 0.2
v 0.1 5.3 0.1
v 0.1 5.3 0
v 0.1 5.3 -0.1
v 0.1 5.3 -0.2
v 0.1 5.3 -0.3
v 0.1 5.3 -0.4
v 0.1 5.3 -0.5
v 0.2 1.5 -1.9
v 0.2 1.5 -2
v 0.2 1.6 -1.5
v 0.2 1.6 -1.6
v 0.2 1.6 -1.9
v 0.2 1.6 -2
v 0.2 1.7 -1.5
v 0.2 1.7 -1.6
v 0.2 1.7 -2.3
v 0.2 1.7 -2.5
v 0.2 1.8 -1.8
v 0.2 1.8 -1.9
v 0.2 1.8 -2.6
v 0.2 1.8 -2.7
v 0.2 1.9 -1.8
v 0.2 1.9 -1.9
v 0.2 2 -2
v 0.2 2 -2.1
v 0.2 2.1 -1.8
v 0.2 2.1 -1.9
v 0.2 2.1 -2
v 0.2 2.1 -2.1
v 0.2 2.1 -2.2
v 0.2 2.1 -2.3
v 0.2 2.2 -1.8
v 0.2 2.2 -1.9
v 0.2 2.2 -2.2
v 0.2 2.2 -2.4
v 0.2 5 -2.3
v 0.2 5 -2.4
v 0.2 5 -2.5
v 0.2 5 -2.6
v 0.2 5 -2.7
v 0.2 5 -2.9
v 0.2 5.1 -2.3
v 0.2 5.1 -2.4
v 0.2 5.1 -2.5
v 0.2 5.1 -2.6
v 0.2 5.1 -2.7
v 0.2 5.1 -2.9
v 0.2 5.2 0.5
v 0.2 5.2 0.4
v 0.2 5.2 -0.1
v 0.2 5.2 -0.2
v 0.2 5.3 0.5
v 0.2 5.3 0.4
v 0.2 5.3 -0.1
v 0.2 5.3 -0.2
v 0.2 5.5 -2.3
v 0.2 5.5 -2.4
v 0.2 5.5 -2.5
v 0.2 5.5 -2.6
v 0.2 5.5 -2.7
v 0.2 5.6 0.4
v 0.2 5.6 0.3
v 0.2 5.6 0
v 0.2 5.6 -0.1
v 0.2 5.7 0.4
v 0.2 5.7 0.3
v 0.2 5.7 0.2
v 0.2 5.7 0.1
v 0.2 5.7 0
v 0.2 5.7 -0.1
v 0.2 5.7 -2.2
v 0.2 5.7 -2.3
v 0.2 5.7 -2.4
v 0.2 5.7 -2.5
v 0.2 5.7 -2.6
v 0.2 5.9 0.3
v 0.2 5.9 0.2
v 0.2 5.9 0.1
v 0.2 5.9 0
v 0.2 5.9 -0.1
v 0.2 5.9 -2.1
v 0.2 5.9 -2.2
v 0.2 5.9 -2.3
v 0.2 5.9 -2.4
v 0.2 5.9 -2.5
v 0.2 6.1 0.2
v 0.2 6.1 0.1
v 0.2 6.1 0
v 0.2 6.1 -0.1
v 0.2 6.1 -2.1
v 0.2 6.1 -2.2
v 0.2 6.1 -2.3
v 0.2 6.1 -2.4
v 0.2 6.2 0
v 0.2 6.2 -0.1
v 0.2 6.2 -2.1
v 0.2 6.2 -2.2
v 0.2 6.3 0.1
v 0.2 6.3 0
v 0.2 6.3 -0.1
v 0.2 6.3 -2.1
v 0.2 6.3 -2.2
v 0.2 6.3 -2.3
v 0.2 6.4 0
v 0.2 6.4 -2.2
v 0.3 1.5 -2
v 0.3 1.5 -2.1
v 0.3 1.5 -2.6
v 0.3 1.5 -2.7
v 0.3 1.6 -1.8
v 0.3 1.6 -2
v 0.3 1.6 -2.1
v 0.3 1.6 -2.6
v 0.3 1.6 -2.7
v 0.3 1.7 -1.4
v 0.3 1.7 -1.8
v 0.3 1.8 -1.4
v 0.3 1.8 -2
v 0.3 1.8 -2.1
v 0.3 1.8 -2.3
v 0.3 1.8 -2.5
v 0.3 1.8 -2.6
v 0.3 2.1 -1.9
v 0.3 2.1 -2.1
v 0.3 2.1 -2.2
v 0.3 2.1 -2.3
v 0.3 2.2 -1.9
v 0.3 2.2 -2.2
v 0.3 4.9 -2.9
v 0.3 4.9 -3.1
v 0.3 5 -2.4
v 0.3 5 -2.5
v 0.3 5 -2.6
v 0.3 5 -2.7
v 0.3 5.1 -2.4
v 0.3 5.1 -2.5
v 0.3 5.1 -2.6
v 0.3 5.1 -2.7
v 0.3 5.2 0.7
v 0.3 5.2 0.6
v 0.3 5.2 0.4
v 0.3 5.2 0.3
v 0.3 5.2 0.2
v 0.3 5.2 0.1
v 0.3 5.2 0
v 0.3 5.2 -0.1
v 0.3 5.2 -0.3
v 0.3 5.2 -0.4
v 0.3 5.2 -2.9
v 0.3 5.2 -3.1
v 0.3 5.3 0.7
v 0.3 5.3 0.6
v 0.3 5.3 0.4
v 0.3 5.3 0.3
v 0.3 5.3 0.2
v 0.3 5.3 0.1
v 0.3 5.3 0
v 0.3 5.3 -0.1
v 0.3 5.3 -0.3
v 0.3 5.3 -0.4
v 0.3 5.5 -2.4
v 0.3 5.5 -2.5
v 0.3 5.5 -2.6
v 0.3 5.6 0.3
v 0.3 5.6 0.2
v 0.3 5.6 0.1
v 0.3 5.6 0
v 0.3 5.7 0.3
v 0.3 5.7 0.2
v 0.3 5.7 0.1
v 0.3 5.7 0
v 0.3 5.7 -2.3
v 0.3 5.7 -2.4
v 0.3 5.7 -2.5
v 0.3 5.9 0.2
v 0.3 5.9 0.1
v 0.3 5.9 0
v 0.3 5.9 -2.2
v 0.3 5.9 -2.3
v 0.3 5.9 -2.4
v 0.3 6.1 0.1
v 0.3 6.1 0
v 0.3 6.1 -0.1
v 0.3 6.1 -2.1
v 0.3 6.1 -2.2
v 0.3 6.1 -2.3
v 0.3 6.2 0
v 0.3 6.2 -0.1
v 0.3 6.2 -2.1
v 0.3 6.2 -2.2
v 0.3 6.3 -0.1
v 0.3 6.3 -2.1
v 0.4 1.5 -2.1
v 0.4 1.5 -2.3
v 0.4 1.6 -2.1
v 0.4 1.6 -2.3
v 0.4 1.6 -2.6
v 0.4 1.6 -2.7
v 0.4 1.8 -2.6
v 0.4 1.8 -2.7
v 0.4 4.8 -3.1
v 0.4 4.8 -3.2
v 0.4 5 -2.5
v 0.4 5 -2.6
v 0.4 5.1 -2.5
v 0.4 5.1 -2.6
v 0.4 5.2 0.9
v 0.4 5.2 0.8
v 0.4 5.2 0.5
v 0.4 5.2 0.4
v 0.4 5.2 0.3
v 0.4 5.2 0.2
v 0.4 5.2 0.1
v 0.4 5.2 0
v 0.4 5.2 -0.1
v 0.4 5.2 -0.2
v 0.4 5.2 -0.5
v 0.4 5.2 -0.6
v 0.4 5.3 0.5
v 0.4 5.3 0.4
v 0.4 5.3 0.3
v 0.4 5.3 0.2
v 0.4 5.3 0.1
v 0.4 5.3 0
v 0.4 5.3 -0.1
v 0.4 5.3 -0.2
v 0.4 5.3 -3.1
v 0.4 5.3 -3.2
v 0.4 5.5 0.9
v 0.4 5.5 0.8
v 0.4 5.5 0.6
v 0.4 5.5 0.5
v 0.4 5.5 -0.2
v 0.4 5.5 -0.3
v 0.4 5.5 -0.5
v 0.4 5.5 -0.6
v 0.4 5.6 0.6
v 0.4 5.6 0.5
v 0.4 5.6 0.2
v 0.4 5.6 0.1
v 0.4 5.6 -0.2
v 0.4 5.6 -0.3
v 0.4 5.7 0.2
v 0.4 5.7 0.1
v 0.5 1.5 -2.3
v 0.5 1.5 -2.4
v 0.5 1.5 -2.5
v 0.5 1.5 -2.6
v 0.5 1.6 -2
v 0.5 1.6 -2.2
v 0.5 1.6 -2.3
v 0.5 1.6 -2.4
v 0.5 1.6 -2.5
v 0.5 1.6 -2.6
v 0.5 1.8 -2
v 0.5 1.8 -2.2
v 0.5 5.2 0.6
v 0.5 5.2 0.5
v 0.5 5.2 0.2
v 0.5 5.2 0.1
v 0.5 5.2 -0.2
v 0.5 5.2 -0.3
v 0.5 5.3 0.6
v 0.5 5.3 0.5
v 0.5 5.3 0.2
v 0.5 5.3 0.1
v 0.5 5.3 -0.2
v 0.5 5.3 -0.3
v 0.5 5.5 0.5
v 0.5 5.5 0.4
v 0.5 5.5 -0.1
v 0.5 5.5 -0.2
v 0.5 5.6 0.5
v 0.5 5.6 0.4
v 0.5 5.6 -0.1
v 0.5 5.6 -0.2
v 0.6 1.6 -2.2
v 0.6 1.6 -2.3
v 0.6 1.8 -2.2
v 0.6 1.8 -2.3
v 0.6 2 -2.3
v 0.6 2 -2.4
v 0.6 2.1 -2.3
v 0.6 2.1 -2.4
v 0.6 5.2 0.8
v 0.6 5.2 0.7
v 0.6 5.2 0.4
v 0.6 5.2 0.3
v 0.6 5.2 0
v 0.6 5.2 -0.1
v 0.6 5.2 -0.4
v 0.6 5.2 -0.5
v 0.6 5.3 0.4
v 0.6 5.3 0.3
v 0.6 5.3 0
v 0.6 5.3 -0.1
v 0.6 5.5 0.8
v 0.6 5.5 0.7
v 0.6 5.5 0.4
v 0.6 5.5 -0.1
v 0.6 5.5 -0.4
v 0.6 5.5 -0.5
v 0.6 5.6 0.4
v 0.6 5.6 -0.1
v 0.7 1.5 -2.4
v 0.7 1.5 -2.5
v 0.7 1.6 -2.3
v 0.7 1.6 -2.4
v 0.7 1.6 -2.5
v 0.7 1.8 -2.4
v 0.7 1.8 -2.5
v 0.7 2 -2.3
v 0.7 2 -2.4
v 0.7 2.1 -2.4
v 0.7 2.1 -2.5
v 0.7 5.2 0.7
v 0.7 5.2 0.6
v 0.7 5.2 0.2
v 0.7 5.2 0.1
v 0.7 5.2 -0.3
v 0.7 5.2 -0.4
v 0.7 5.3 0.2
v 0.7 5.3 0.1
v 0.7 5.5 0.7
v 0.7 5.5 0.6
v 0.7 5.5 -0.3
v 0.7 5.5 -0.4
v 0.8 5.2 0.6
v 0.8 5.2 0.4
v 0.8 5.2 -0.1
v 0.8 5.2 -0.3
v 0.8 5.5 0.6
v 0.8 5.5 0.4
v 0.8 5.5 -0.1
v 0.8 5.5 -0.3
v 0.9 1.6 -2.4
v 0.9 1.6 -2.5
v 0.9 1.8 -2.4
v 0.9 1.8 -2.5
v 0.9 5.2 0.4
v 0.9 5.2 -0.1
v 0.9 5.5 0.4
v 0.9 5.5 -0.1
v 1 1.6 -2.5
v 1 1.6 -2.6
v 1 1.6 -2.8
v 1 1.8 -2.5
v 1 1.8 -2.6
v 1 1.8 -2.8
v 1.1 1.5 -2.8
v 1.1 1.5 -3
v 1.1 1.9 -2.8
v 1.1 1.9 -3
v 1.2 1.4 -3
v 1.2 1.4 -3.2
v 1.2 2 -3
v 1.2 2 -3.2
v -0.1 5.2 0.9
v -0.1 5.5 0.9
v 0.4 5.2 0.9
v 0.4 5.5 0.9
v -0.3 5.2 0.8
v -0.3 5.5 0.8
v -0.1 5.2 0.8
v -0.1 5.5 0.8
v 0.4 5.2 0.8
v 0.4 5.5 0.8
v 0.6 5.2 0.8
v 0.6 5.5 0.8
v -0.4 5.2 0.7
v -0.4 5.5 0.7
v -0.3 5.2 0.7
v -0.3 5.5 0.7
v 0.1 5.2 0.7
v 0.1 5.3 0.7
v 0.2 5.2 0.7
v 0.2 5.3 0.7
v 0.6 5.2 0.7
v 0.6 5.5 0.7
v 0.7 5.2 0.7
v 0.7 5.5 0.7
v -0.5 5.2 0.6
v -0.5 5.5 0.6
v -0.4 5.2 0.6
v -0.4 5.5 0.6
v -0.1 5.2 0.6
v -0.1 5.3 0.6
v -0.1 5.5 0.6
v -0.1 5.6 0.6
v 0 5.2 0.6
v 0 5.3 0.6
v 0.3 5.2 0.6
v 0.3 5.3 0.6
v 0.4 5.2 0.6
v 0.4 5.3 0.6
v 0.4 5.5 0.6
v 0.4 5.6 0.6
v 0.7 5.2 0.6
v 0.7 5.5 0.6
v 0.8 5.2 0.6
v 0.8 5.5 0.6
v -0.3 5.2 0.5
v -0.3 5.3 0.5
v -0.2 5.2 0.5
v -0.2 5.3 0.5
v -0.2 5.5 0.5
v -0.2 5.6 0.5
v -0.1 5.5 0.5
v -0.1 5.6 0.5
v 0.1 5.2 0.5
v 0.1 5.3 0.5
v 0.2 5.2 0.5
v 0.2 5.3 0.5
v 0.4 5.5 0.5
v 0.4 5.6 0.5
v 0.5 5.2 0.5
v 0.5 5.3 0.5
v 0.5 5.5 0.5
v 0.5 5.6 0.5
v 0.6 5.2 0.5
v 0.6 5.3 0.5
v -0.6 5.2 0.4
v -0.6 5.5 0.4
v -0.5 5.2 0.4
v -0.5 5.5 0.4
v -0.3 5.5 0.4
v -0.3 5.6 0.4
v -0.2 5.2 0.4
v -0.2 5.3 0.4
v -0.2 5.5 0.4
v -0.2 5.6 0.4
v -0.1 5.2 0.4
v -0.1 5.3 0.4
v 0 5.2 0.4
v 0 5.3 0.4
v 0.1 5.2 0.4
v 0.1 5.3 0.4
v 0.1 5.6 0.4
v 0.1 5.7 0.4
v 0.2 5.2 0.4
v 0.2 5.3 0.4
v 0.2 5.6 0.4
v 0.2 5.7 0.4
v 0.3 5.2 0.4
v 0.3 5.3 0.4
v 0.4 5.2 0.4
v 0.4 5.3 0.4
v 0.5 5.2 0.4
v 0.5 5.3 0.4
v 0.5 5.5 0.4
v 0.5 5.6 0.4
v 0.6 5.5 0.4
v 0.6 5.6 0.4
v 0.8 5.2 0.4
v 0.8 5.5 0.4
v 0.9 5.2 0.4
v 0.9 5.5 0.4
v -0.4 5.2 0.3
v -0.4 5.3 0.3
v -0.3 5.2 0.3
v -0.3 5.3 0.3
v -0.1 5.2 0.3
v -0.1 5.3 0.3
v 0 5.2 0.3
v 0 5.3 0.3
v 0 5.6 0.3
v 0 5.7 0.3
v 0.1 5.2 0.3
v 0.1 5.3 0.3
v 0.1 5.6 0.3
v 0.1 5.7 0.3
v 0.1 5.9 0.3
v 0.2 5.2 0.3
v 0.2 5.3 0.3
v 0.2 5.6 0.3
v 0.2 5.7 0.3
v 0.2 5.9 0.3
v 0.3 5.2 0.3
v 0.3 5.3 0.3
v 0.3 5.6 0.3
v 0.3 5.7 0.3
v 0.4 5.2 0.3
v 0.4 5.3 0.3
v 0.6 5.2 0.3
v 0.6 5.3 0.3
v 0.7 5.2 0.3
v 0.7 5.3 0.3
v -0.2 5.2 0.2
v -0.2 5.3 0.2
v -0.1 5.2 0.2
v -0.1 5.3 0.2
v -0.1 5.6 0.2
v -0.1 5.7 0.2
v 0 5.6 0.2
v 0 5.7 0.2
v 0 5.9 0.2
v 0.1 5.7 0.2
v 0.1 5.9 0.2
v 0.1 6.1 0.2
v 0.2 5.7 0.2
v 0.2 5.9 0.2
v 0.2 6.1 0.2
v 0.3 5.6 0.2
v 0.3 5.7 0.2
v 0.3 5.9 0.2
v 0.4 5.2 0.2
v 0.4 5.3 0.2
v 0.4 5.6 0.2
v 0.4 5.7 0.2
v 0.5 5.2 0.2
v 0.5 5.3 0.2
v -0.5 5.2 0.1
v -0.5 5.3 0.1
v -0.4 5.2 0.1
v -0.4 5.3 0.1
v -0.3 5.2 0.1
v -0.3 5.3 0.1
v -0.2 5.2 0.1
v -0.2 5.3 0.1
v -0.1 5.2 0.1
v -0.1 5.3 0.1
v 0 5.2 0.1
v 0 5.3 0.1
v 0 5.9 0.1
v 0 6.1 0.1
v 0.1 5.2 0.1
v 0.1 5.3 0.1
v 0.1 5.9 0.1
v 0.1 6.1 0.1
v 0.1 6.3 0.1
v 0.2 5.2 0.1
v 0.2 5.3 0.1
v 0.2 5.9 0.1
v 0.2 6.1 0.1
v 0.2 6.3 0.1
v 0.3 5.2 0.1
v 0.3 5.3 0.1
v 0.3 5.9 0.1
v 0.3 6.1 0.1
v 0.4 5.2 0.1
v 0.4 5.3 0.1
v 0.5 5.2 0.1
v 0.5 5.3 0.1
v 0.6 5.2 0.1
v 0.6 5.3 0.1
v 0.7 5.2 0.1
v 0.7 5.3 0.1
v 0.8 5.2 0.1
v 0.8 5.3 0.1
v -0.2 5.2 0
v -0.2 5.3 0
v -0.1 5.2 0
v -0.1 5.3 0
v 0 6.1 0
v 0 6.2 0
v 0.1 6.1 0
v 0.1 6.2 0
v 0.1 6.3 0
v 0.1 6.4 0
v 0.2 6.1 0
v 0.2 6.2 0
v 0.2 6.3 0
v 0.2 6.4 0
v 0.3 6.1 0
v 0.3 6.2 0
v 0.4 5.2 0
v 0.4 5.3 0
v 0.5 5.2 0
v 0.5 5.3 0
v -0.4 5.2 -0.1
v -0.4 5.3 -0.1
v -0.3 5.2 -0.1
v -0.3 5.3 -0.1
v -0.1 5.2 -0.1
v -0.1 5.3 -0.1
v 0 5.2 -0.1
v 0 5.3 -0.1
v 0 6.2 -0.1
v 0 6.3 -0.1
v 0.1 5.2 -0.1
v 0.1 5.3 -0.1
v 0.1 6.2 -0.1
v 0.1 6.3 -0.1
v 0.2 5.2 -0.1
v 0.2 5.3 -0.1
v 0.2 6.2 -0.1
v 0.2 6.3 -0.1
v 0.3 5.2 -0.1
v 0.3 5.3 -0.1
v 0.3 6.2 -0.1
v 0.3 6.3 -0.1
v 0.4 5.2 -0.1
v 0.4 5.3 -0.1
v 0.6 5.2 -0.1
v 0.6 5.3 -0.1
v 0.7 5.2 -0.1
v 0.7 5.3 -0.1
v -0.2 5.2 -0.2
v -0.2 5.3 -0.2
v -0.1 5.2 -0.2
v -0.1 5.3 -0.2
v 0 5.2 -0.2
v 0 5.3 -0.2
v 0.1 5.2 -0.2
v 0.1 5.3 -0.2
v 0.2 5.2 -0.2
v 0.2 5.3 -0.2
v 0.3 5.2 -0.2
v 0.3 5.3 -0.2
v 0.4 5.2 -0.2
v 0.4 5.3 -0.2
v 0.5 5.2 -0.2
v 0.5 5.3 -0.2
v -0.3 5.2 -0.3
v -0.3 5.3 -0.3
v -0.2 5.2 -0.3
v -0.2 5.3 -0.3
v 0.1 5.2 -0.3
v 0.1 5.3 -0.3
v 0.2 5.2 -0.3
v 0.2 5.3 -0.3
v 0.5 5.2 -0.3
v 0.5 5.3 -0.3
v 0.6 5.2 -0.3
v 0.6 5.3 -0.3
v -0.1 5.2 -0.4
v -0.1 5.3 -0.4
v 0 5.2 -0.4
v 0 5.3 -0.4
v 0.3 5.2 -0.4
v 0.3 5.3 -0.4
v 0.4 5.2 -0.4
v 0.4 5.3 -0.4
v 0.1 5.2 -0.5
v 0.1 5.3 -0.5
v 0.2 5.2 -0.5
v 0.2 5.3 -0.5
v 0 1.7 -1.4
v 0 1.8 -1.4
v 0.3 1.7 -1.4
v 0.3 1.8 -1.4
v 0.1 1.6 -1.5
v 0.1 1.7 -1.5
v 0.2 1.6 -1.5
v 0.2 1.7 -1.5
v 0 1.6 -1.8
v 0 1.7 -1.8
v 0.1 1.8 -1.8
v 0.1 1.9 -1.8
v 0.1 2.1 -1.8
v 0.1 2.2 -1.8
v 0.2 1.8 -1.8
v 0.2 1.9 -1.8
v 0.2 2.1 -1.8
v 0.2 2.2 -1.8
v 0.3 1.6 -1.8
v 0.3 1.7 -1.8
v 0 2.1 -1.9
v 0 2.2 -1.9
v 0.1 1.5 -1.9
v 0.1 1.6 -1.9
v 0.1 2.1 -1.9
v 0.1 2.2 -1.9
v 0.2 1.5 -1.9
v 0.2 1.6 -1.9
v 0.2 2.1 -1.9
v 0.2 2.2 -1.9
v 0.3 2.1 -1.9
v 0.3 2.2 -1.9
v -0.2 1.6 -2
v -0.2 1.8 -2
v 0 1.5 -2
v 0 1.6 -2
v 0 1.8 -2
v 0.1 1.5 -2
v 0.1 1.6 -2
v 0.1 2 -2
v 0.1 2.1 -2
v 0.2 1.5 -2
v 0.2 1.6 -2
v 0.2 2 -2
v 0.2 2.1 -2
v 0.3 1.5 -2
v 0.3 1.6 -2
v 0.3 1.8 -2
v 0.5 1.6 -2
v 0.5 1.8 -2
v -0.1 1.5 -2.1
v -0.1 1.6 -2.1
v 0 1.5 -2.1
v 0 1.6 -2.1
v 0 1.8 -2.1
v 0 2.1 -2.1
v 0 6.1 -2.1
v 0 6.2 -2.1
v 0.1 2 -2.1
v 0.1 2.1 -2.1
v 0.1 5.9 -2.1
v 0.1 6.1 -2.1
v 0.1 6.2 -2.1
v 0.2 2 -2.1
v 0.2 2.1 -2.1
v 0.2 5.9 -2.1
v 0.2 6.1 -2.1
v 0.2 6.2 -2.1
v 0.3 1.5 -2.1
v 0.3 1.6 -2.1
v 0.3 1.8 -2.1
v 0.3 2.1 -2.1
v 0.3 6.1 -2.1
v 0.3 6.2 -2.1
v 0.4 1.5 -2.1
v 0.4 1.6 -2.1
v -0.3 1.6 -2.2
v -0.3 1.8 -2.2
v -0.2 1.6 -2.2
v -0.2 1.8 -2.2
v 0 5.9 -2.2
v 0 6.1 -2.2
v 0.1 5.7 -2.2
v 0.1 5.9 -2.2
v 0.1 6.1 -2.2
v 0.2 5.7 -2.2
v 0.2 5.9 -2.2
v 0.2 6.1 -2.2
v 0.3 5.9 -2.2
v 0.3 6.1 -2.2
v 0.5 1.6 -2.2
v 0.5 1.8 -2.2
v 0.6 1.6 -2.2
v 0.6 1.8 -2.2
v -0.4 1.6 -2.3
v -0.4 2 -2.3
v -0.3 1.6 -2.3
v -0.3 1.8 -2.3
v -0.3 1.9 -2.3
v -0.3 2 -2.3
v -0.3 2.1 -2.3
v -0.2 1.5 -2.3
v -0.2 1.6 -2.3
v -0.2 1.9 -2.3
v -0.2 2 -2.3
v -0.2 2.1 -2.3
v -0.1 1.5 -2.3
v -0.1 1.6 -2.3
v -0.1 1.8 -2.3
v -0.1 2 -2.3
v 0 5.7 -2.3
v 0 5.9 -2.3
v 0.1 5 -2.3
v 0.1 5.1 -2.3
v 0.1 5.5 -2.3
v 0.1 5.7 -2.3
v 0.1 5.9 -2.3
v 0.2 5 -2.3
v 0.2 5.1 -2.3
v 0.2 5.5 -2.3
v 0.2 5.7 -2.3
v 0.2 5.9 -2.3
v 0.3 5.7 -2.3
v 0.3 5.9 -2.3
v 0.4 1.5 -2.3
v 0.4 1.6 -2.3
v 0.4 1.8 -2.3
v 0.4 2 -2.3
v 0.5 1.5 -2.3
v 0.5 1.6 -2.3
v 0.5 1.9 -2.3
v 0.5 2 -2.3
v 0.5 2.1 -2.3
v 0.6 1.6 -2.3
v 0.6 1.8 -2.3
v 0.6 1.9 -2.3
v 0.6 2 -2.3
v 0.6 2.1 -2.3
v 0.7 1.6 -2.3
v 0.7 2 -2.3
v -0.6 1.6 -2.4
v -0.6 1.8 -2.4
v -0.4 1.5 -2.4
v -0.4 1.6 -2.4
v -0.4 1.8 -2.4
v -0.4 2 -2.4
v -0.4 2.1 -2.4
v -0.3 2 -2.4
v -0.3 2.1 -2.4
v -0.2 1.5 -2.4
v -0.2 1.6 -2.4
v -0.2 2 -2.4
v -0.2 2.1 -2.4
v -0.1 2 -2.4
v -0.1 2.1 -2.4
v 0 5 -2.4
v 0 5.1 -2.4
v 0 5.5 -2.4
v 0 5.7 -2.4
v 0.1 2.2 -2.4
v 0.1 5 -2.4
v 0.1 5.1 -2.4
v 0.1 5.5 -2.4
v 0.1 5.7 -2.4
v 0.2 2.2 -2.4
v 0.2 5 -2.4
v 0.2 5.1 -2.4
v 0.2 5.5 -2.4
v 0.2 5.7 -2.4
v 0.3 5 -2.4
v 0.3 5.1 -2.4
v 0.3 5.5 -2.4
v 0.3 5.7 -2.4
v 0.4 2 -2.4
v 0.4 2.1 -2.4
v 0.5 1.5 -2.4
v 0.5 1.6 -2.4
v 0.5 2 -2.4
v 0.5 2.1 -2.4
v 0.6 2 -2.4
v 0.6 2.1 -2.4
v 0.7 1.5 -2.4
v 0.7 1.6 -2.4
v 0.7 1.8 -2.4
v 0.7 2 -2.4
v 0.7 2.1 -2.4
v 0.9 1.6 -2.4
v 0.9 1.8 -2.4
v -0.7 1.6 -2.5
v -0.7 1.8 -2.5
v -0.6 1.6 -2.5
v -0.6 1.8 -2.5
v -0.1 5 -2.5
v -0.1 5.1 -2.5
v 0 1.8 -2.5
v 0 5 -2.5
v 0 5.1 -2.5
v 0 5.5 -2.5
v 0.1 1.8 -2.5
v 0.1 5 -2.5
v 0.1 5.1 -2.5
v 0.1 5.5 -2.5
v 0.2 1.7 -2.5
v 0.2 5 -2.5
v 0.2 5.1 -2.5
v 0.2 5.5 -2.5
v 0.3 1.7 -2.5
v 0.3 1.8 -2.5
v 0.3 5 -2.5
v 0.3 5.1 -2.5
v 0.3 5.5 -2.5
v 0.4 5 -2.5
v 0.4 5.1 -2.5
v 0.9 1.6 -2.5
v 0.9 1.8 -2.5
v 1 1.6 -2.5
v 1 1.8 -2.5
v -0.8 1.5 -2.8
v -0.8 1.9 -2.8
v -0.7 1.6 -2.8
v -0.7 1.8 -2.8
v -0.5 1.6 -2.8
v -0.5 1.8 -2.8
v -0.4 1.5 -2.8
v -0.4 1.9 -2.8
v 0.7 1.5 -2.8
v 0.7 1.9 -2.8
v 0.8 1.6 -2.8
v 0.8 1.8 -2.8
v 1 1.6 -2.8
v 1 1.8 -2.8
v 1.1 1.5 -2.8
v 1.1 1.9 -2.8
v 0 4.9 -2.9
v 0 5.2 -2.9
v 0.1 5 -2.9
v 0.1 5.1 -2.9
v 0.2 5 -2.9
v 0.2 5.1 -2.9
v 0.3 4.9 -2.9
v 0.3 5.2 -2.9
v -0.9 1.4 -3
v -0.9 2 -3
v -0.8 1.5 -3
v -0.8 1.9 -3
v -0.4 1.5 -3
v -0.4 1.9 -3
v -0.3 1.4 -3
v -0.3 2 -3
v 0.6 1.4 -3
v 0.6 2 -3
v 0.7 1.5 -3
v 0.7 1.9 -3
v 1.1 1.5 -3
v 1.1 1.9 -3
v 1.2 1.4 -3
v 1.2 2 -3
v -0.1 4.8 -3.1
v -0.1 5.3 -3.1
v 0 4.9 -3.1
v 0 5.2 -3.1
v 0.3 4.9 -3.1
v 0.3 5.2 -3.1
v 0.4 4.8 -3.1
v 0.4 5.3 -3.1
v 0.1 5.2 0.8
v 0.1 5.3 0.8
v 0.2 5.2 0.8
v 0.2 5.3 0.8
v -0.1 5.2 0.7
v -0.1 5.3 0.7
v 0 5.2 0.7
v 0 5.3 0.7
v 0.3 5.2 0.7
v 0.3 5.3 0.7
v 0.4 5.2 0.7
v 0.4 5.3 0.7
v -0.3 5.2 0.6
v -0.3 5.3 0.6
v -0.2 5.2 0.6
v -0.2 5.3 0.6
v 0.1 5.2 0.6
v 0.1 5.3 0.6
v 0.2 5.2 0.6
v 0.2 5.3 0.6
v 0.5 5.2 0.6
v 0.5 5.3 0.6
v 0.6 5.2 0.6
v 0.6 5.3 0.6
v -0.2 5.2 0.5
v -0.2 5.3 0.5
v -0.1 5.2 0.5
v -0.1 5.3 0.5
v 0 5.2 0.5
v 0 5.3 0.5
v 0.1 5.2 0.5
v 0.1 5.3 0.5
v 0.2 5.2 0.5
v 0.2 5.3 0.5
v 0.3 5.2 0.5
v 0.3 5.3 0.5
v 0.4 5.2 0.5
v 0.4 5.3 0.5
v 0.5 5.2 0.5
v 0.5 5.3 0.5
v -0.4 5.2 0.4
v -0.4 5.3 0.4
v -0.3 5.2 0.4
v -0.3 5.3 0.4
v -0.1 5.2 0.4
v -0.1 5.3 0.4
v 0 5.2 0.4
v 0 5.3 0.4
v 0.1 5.2 0.4
v 0.1 5.3 0.4
v 0.2 5.2 0.4
v 0.2 5.3 0.4
v 0.3 5.2 0.4
v 0.3 5.3 0.4
v 0.4 5.2 0.4
v 0.4 5.3 0.4
v 0.6 5.2 0.4
v 0.6 5.3 0.4
v 0.7 5.2 0.4
v 0.7 5.3 0.4
v -0.2 5.2 0.3
v -0.2 5.3 0.3
v -0.1 5.2 0.3
v -0.1 5.3 0.3
v 0.4 5.2 0.3
v 0.4 5.3 0.3
v 0.5 5.2 0.3
v 0.5 5.3 0.3
v -0.5 5.2 0.2
v -0.5 5.3 0.2
v -0.4 5.2 0.2
v -0.4 5.3 0.2
v -0.3 5.2 0.2
v -0.3 5.3 0.2
v -0.2 5.2 0.2
v -0.2 5.3 0.2
v -0.1 5.2 0.2
v -0.1 5.3 0.2
v 0 5.2 0.2
v 0 5.3 0.2
v 0.1 5.2 0.2
v 0.1 5.3 0.2
v 0.2 5.2 0.2
v 0.2 5.3 0.2
v 0.3 5.2 0.2
v 0.3 5.3 0.2
v 0.4 5.2 0.2
v 0.4 5.3 0.2
v 0.5 5.2 0.2
v 0.5 5.3 0.2
v 0.6 5.2 0.2
v 0.6 5.3 0.2
v 0.7 5.2 0.2
v 0.7 5.3 0.2
v 0.8 5.2 0.2
v 0.8 5.3 0.2
v -0.2 5.2 0.1
v -0.2 5.3 0.1
v -0.1 5.2 0.1
v -0.1 5.3 0.1
v -0.1 5.6 0.1
v -0.1 5.7 0.1
v 0 5.6 0.1
v 0 5.7 0.1
v 0 5.9 0.1
v 0.1 5.7 0.1
v 0.1 5.9 0.1
v 0.2 5.7 0.1
v 0.2 5.9 0.1
v 0.3 5.6 0.1
v 0.3 5.7 0.1
v 0.3 5.9 0.1
v 0.4 5.2 0.1
v 0.4 5.3 0.1
v 0.4 5.6 0.1
v 0.4 5.7 0.1
v 0.5 5.2 0.1
v 0.5 5.3 0.1
v -0.4 5.2 0
v -0.4 5.3 0
v -0.3 5.2 0
v -0.3 5.3 0
v -0.1 5.2 0
v -0.1 5.3 0
v 0 5.2 0
v 0 5.3 0
v 0 5.6 0
v 0 5.7 0
v 0 5.9 0
v 0 6.1 0
v 0.1 5.2 0
v 0.1 5.3 0
v 0.1 5.6 0
v 0.1 5.7 0
v 0.1 5.9 0
v 0.1 6.1 0
v 0.2 5.2 0
v 0.2 5.3 0
v 0.2 5.6 0
v 0.2 5.7 0
v 0.2 5.9 0
v 0.2 6.1 0
v 0.3 5.2 0
v 0.3 5.3 0
v 0.3 5.6 0
v 0.3 5.7 0
v 0.3 5.9 0
v 0.3 6.1 0
v 0.4 5.2 0
v 0.4 5.3 0
v 0.6 5.2 0
v 0.6 5.3 0
v 0.7 5.2 0
v 0.7 5.3 0
v -0.6 5.2 -0.1
v -0.6 5.5 -0.1
v -0.5 5.2 -0.1
v -0.5 5.5 -0.1
v -0.3 5.5 -0.1
v -0.3 5.6 -0.1
v -0.2 5.2 -0.1
v -0.2 5.3 -0.1
v -0.2 5.5 -0.1
v -0.2 5.6 -0.1
v -0.1 5.2 -0.1
v -0.1 5.3 -0.1
v 0 5.2 -0.1
v 0 5.3 -0.1
v 0 6.1 -0.1
v 0 6.2 -0.1
v 0.1 5.2 -0.1
v 0.1 5.3 -0.1
v 0.1 5.6 -0.1
v 0.1 5.7 -0.1
v 0.1 5.9 -0.1
v 0.1 6.1 -0.1
v 0.1 6.2 -0.1
v 0.2 5.2 -0.1
v 0.2 5.3 -0.1
v 0.2 5.6 -0.1
v 0.2 5.7 -0.1
v 0.2 5.9 -0.1
v 0.2 6.1 -0.1
v 0.2 6.2 -0.1
v 0.3 5.2 -0.1
v 0.3 5.3 -0.1
v 0.3 6.1 -0.1
v 0.3 6.2 -0.1
v 0.4 5.2 -0.1
v 0.4 5.3 -0.1
v 0.5 5.2 -0.1
v 0.5 5.3 -0.1
v 0.5 5.5 -0.1
v 0.5 5.6 -0.1
v 0.6 5.5 -0.1
v 0.6 5.6 -0.1
v 0.8 5.2 -0.1
v 0.8 5.5 -0.1
v 0.9 5.2 -0.1
v 0.9 5.5 -0.1
v -0.3 5.2 -0.2
v -0.3 5.3 -0.2
v -0.2 5.2 -0.2
v -0.2 5.3 -0.2
v -0.2 5.5 -0.2
v -0.2 5.6 -0.2
v -0.1 5.5 -0.2
v -0.1 5.6 -0.2
v 0.1 5.2 -0.2
v 0.1 5.3 -0.2
v 0.2 5.2 -0.2
v 0.2 5.3 -0.2
v 0.4 5.5 -0.2
v 0.4 5.6 -0.2
v 0.5 5.2 -0.2
v 0.5 5.3 -0.2
v 0.5 5.5 -0.2
v 0.5 5.6 -0.2
v 0.6 5.2 -0.2
v 0.6 5.3 -0.2
v -0.5 5.2 -0.3
v -0.5 5.5 -0.3
v -0.4 5.2 -0.3
v -0.4 5.5 -0.3
v -0.1 5.2 -0.3
v -0.1 5.3 -0.3
v -0.1 5.5 -0.3
v -0.1 5.6 -0.3
v 0 5.2 -0.3
v 0 5.3 -0.3
v 0.3 5.2 -0.3
v 0.3 5.3 -0.3
v 0.4 5.2 -0.3
v 0.4 5.3 -0.3
v 0.4 5.5 -0.3
v 0.4 5.6 -0.3
v 0.7 5.2 -0.3
v 0.7 5.5 -0.3
v 0.8 5.2 -0.3
v 0.8 5.5 -0.3
v -0.4 5.2 -0.4
v -0.4 5.5 -0.4
v -0.3 5.2 -0.4
v -0.3 5.5 -0.4
v 0.1 5.2 -0.4
v 0.1 5.3 -0.4
v 0.2 5.2 -0.4
v 0.2 5.3 -0.4
v 0.6 5.2 -0.4
v 0.6 5.5 -0.4
v 0.7 5.2 -0.4
v 0.7 5.5 -0.4
v -0.3 5.2 -0.5
v -0.3 5.5 -0.5
v -0.1 5.2 -0.5
v -0.1 5.5 -0.5
v 0.4 5.2 -0.5
v 0.4 5.5 -0.5
v 0.6 5.2 -0.5
v 0.6 5.5 -0.5
v -0.1 5.2 -0.6
v -0.1 5.5 -0.6
v 0.4 5.2 -0.6
v 0.4 5.5 -0.6
v 0.1 1.6 -1.6
v 0.1 1.7 -1.6
v 0.2 1.6 -1.6
v 0.2 1.7 -1.6
v 0.1 1.8 -1.9
v 0.1 1.9 -1.9
v 0.2 1.8 -1.9
v 0.2 1.9 -1.9
v 0 6.2 -2.1
v 0 6.3 -2.1
v 0.1 6.2 -2.1
v 0.1 6.3 -2.1
v 0.2 6.2 -2.1
v 0.2 6.3 -2.1
v 0.3 6.2 -2.1
v 0.3 6.3 -2.1
v 0 2.1 -2.2
v 0 2.2 -2.2
v 0 6.1 -2.2
v 0 6.2 -2.2
v 0.1 2.1 -2.2
v 0.1 2.2 -2.2
v 0.1 6.1 -2.2
v 0.1 6.2 -2.2
v 0.1 6.3 -2.2
v 0.1 6.4 -2.2
v 0.2 2.1 -2.2
v 0.2 2.2 -2.2
v 0.2 6.1 -2.2
v 0.2 6.2 -2.2
v 0.2 6.3 -2.2
v 0.2 6.4 -2.2
v 0.3 2.1 -2.2
v 0.3 2.2 -2.2
v 0.3 6.1 -2.2
v 0.3 6.2 -2.2
v 0 1.8 -2.3
v 0 2.1 -2.3
v 0 5.9 -2.3
v 0 6.1 -2.3
v 0.1 1.8 -2.3
v 0.1 2.1 -2.3
v 0.1 5.9 -2.3
v 0.1 6.1 -2.3
v 0.1 6.3 -2.3
v 0.2 1.7 -2.3
v 0.2 2.1 -2.3
v 0.2 5.9 -2.3
v 0.2 6.1 -2.3
v 0.2 6.3 -2.3
v 0.3 1.7 -2.3
v 0.3 1.8 -2.3
v 0.3 2.1 -2.3
v 0.3 5.9 -2.3
v 0.3 6.1 -2.3
v 0 5.7 -2.4
v 0 5.9 -2.4
v 0.1 5.7 -2.4
v 0.1 5.9 -2.4
v 0.1 6.1 -2.4
v 0.2 5.7 -2.4
v 0.2 5.9 -2.4
v 0.2 6.1 -2.4
v 0.3 5.7 -2.4
v 0.3 5.9 -2.4
v -0.4 1.5 -2.5
v -0.4 1.6 -2.5
v -0.4 1.8 -2.5
v -0.4 2.1 -2.5
v -0.3 1.5 -2.5
v -0.3 1.6 -2.5
v -0.1 1.8 -2.5
v -0.1 2.1 -2.5
v 0 5.5 -2.5
v 0 5.7 -2.5
v 0.1 5.5 -2.5
v 0.1 5.7 -2.5
v 0.1 5.9 -2.5
v 0.2 5.5 -2.5
v 0.2 5.7 -2.5
v 0.2 5.9 -2.5
v 0.3 5.5 -2.5
v 0.3 5.7 -2.5
v 0.4 1.8 -2.5
v 0.4 2.1 -2.5
v 0.5 1.5 -2.5
v 0.5 1.6 -2.5
v 0.7 1.5 -2.5
v 0.7 1.6 -2.5
v 0.7 1.8 -2.5
v 0.7 2.1 -2.5
v -0.5 1.6 -2.6
v -0.5 1.8 -2.6
v -0.3 1.5 -2.6
v -0.3 1.6 -2.6
v -0.1 1.6 -2.6
v -0.1 1.8 -2.6
v -0.1 5 -2.6
v -0.1 5.1 -2.6
v 0 1.5 -2.6
v 0 1.6 -2.6
v 0 1.8 -2.6
v 0 5 -2.6
v 0 5.1 -2.6
v 0 5.5 -2.6
v 0.1 1.8 -2.6
v 0.1 5 -2.6
v 0.1 5.1 -2.6
v 0.1 5.5 -2.6
v 0.1 5.7 -2.6
v 0.2 1.8 -2.6
v 0.2 5 -2.6
v 0.2 5.1 -2.6
v 0.2 5.5 -2.6
v 0.2 5.7 -2.6
v 0.3 1.5 -2.6
v 0.3 1.6 -2.6
v 0.3 1.8 -2.6
v 0.3 5 -2.6
v 0.3 5.1 -2.6
v 0.3 5.5 -2.6
v 0.4 1.6 -2.6
v 0.4 1.8 -2.6
v 0.4 5 -2.6
v 0.4 5.1 -2.6
v 0.5 1.5 -2.6
v 0.5 1.6 -2.6
v 0.8 1.6 -2.6
v 0.8 1.8 -2.6
v -0.1 1.6 -2.7
v -0.1 1.8 -2.7
v 0 1.5 -2.7
v 0 1.6 -2.7
v 0 5 -2.7
v 0 5.1 -2.7
v 0.1 1.8 -2.7
v 0.1 5 -2.7
v 0.1 5.1 -2.7
v 0.1 5.5 -2.7
v 0.2 1.8 -2.7
v 0.2 5 -2.7
v 0.2 5.1 -2.7
v 0.2 5.5 -2.7
v 0.3 1.5 -2.7
v 0.3 1.6 -2.7
v 0.3 5 -2.7
v 0.3 5.1 -2.7
v 0.4 1.6 -2.7
v 0.4 1.8 -2.7
v -0.9 1.4 -3.2
v -0.9 2 -3.2
v -0.3 1.4 -3.2
v -0.3 2 -3.2
v -0.1 4.8 -3.2
v -0.1 5.3 -3.2
v 0.4 4.8 -3.2
v 0.4 5.3 -3.2
v 0.6 1.4 -3.2
v 0.6 2 -3.2
v 1.2 1.4 -3.2
v 1.2 2 -3.2
v -0.9 1.4 -3
v -0.3 1.4 -3
v 0.6 1.4 -3
v 1.2 1.4 -3
v -0.9 1.4 -3.2
v -0.3 1.4 -3.2
v 0.6 1.4 -3.2
v 1.2 1.4 -3.2
v 0.1 1.5 -1.9
v 0.2 1.5 -1.9
v 0 1.5 -2
v 0.1 1.5 -2
v 0.2 1.5 -2
v 0.3 1.5 -2
v -0.1 1.5 -2.1
v 0 1.5 -2.1
v 0.3 1.5 -2.1
v 0.4 1.5 -2.1
v -0.2 1.5 -2.3
v -0.1 1.5 -2.3
v 0.4 1.5 -2.3
v 0.5 1.5 -2.3
v -0.4 1.5 -2.4
v -0.2 1.5 -2.4
v 0.5 1.5 -2.4
v 0.7 1.5 -2.4
v -0.4 1.5 -2.5
v -0.3 1.5 -2.5
v 0.5 1.5 -2.5
v 0.7 1.5 -2.5
v -0.3 1.5 -2.6
v 0 1.5 -2.6
v 0.3 1.5 -2.6
v 0.5 1.5 -2.6
v 0 1.5 -2.7
v 0.3 1.5 -2.7
v -0.8 1.5 -2.8
v -0.4 1.5 -2.8
v 0.7 1.5 -2.8
v 1.1 1.5 -2.8
v -0.8 1.5 -3
v -0.4 1.5 -3
v 0.7 1.5 -3
v 1.1 1.5 -3
v 0.1 1.6 -1.5
v 0.2 1.6 -1.5
v 0.1 1.6 -1.6
v 0.2 1.6 -1.6
v 0 1.6 -1.8
v 0.3 1.6 -1.8
v 0.1 1.6 -1.9
v 0.2 1.6 -1.9
v -0.2 1.6 -2
v 0 1.6 -2
v 0.1 1.6 -2
v 0.2 1.6 -2
v 0.3 1.6 -2
v 0.5 1.6 -2
v -0.1 1.6 -2.1
v 0 1.6 -2.1
v 0.3 1.6 -2.1
v 0.4 1.6 -2.1
v -0.3 1.6 -2.2
v -0.2 1.6 -2.2
v 0.5 1.6 -2.2
v 0.6 1.6 -2.2
v -0.4 1.6 -2.3
v -0.3 1.6 -2.3
v -0.2 1.6 -2.3
v -0.1 1.6 -2.3
v 0.4 1.6 -2.3
v 0.5 1.6 -2.3
v 0.6 1.6 -2.3
v 0.7 1.6 -2.3
v -0.6 1.6 -2.4
v -0.4 1.6 -2.4
v -0.2 1.6 -2.4
v 0.5 1.6 -2.4
v 0.7 1.6 -2.4
v 0.9 1.6 -2.4
v -0.7 1.6 -2.5
v -0.6 1.6 -2.5
v -0.4 1.6 -2.5
v -0.3 1.6 -2.5
v 0.5 1.6 -2.5
v 0.7 1.6 -2.5
v 0.9 1.6 -2.5
v 1 1.6 -2.5
v -0.7 1.6 -2.6
v -0.5 1.6 -2.6
v -0.3 1.6 -2.6
v -0.1 1.6 -2.6
v 0 1.6 -2.6
v 0.3 1.6 -2.6
v 0.4 1.6 -2.6
v 0.5 1.6 -2.6
v 0.8 1.6 -2.6
v 1 1.6 -2.6
v -0.1 1.6 -2.7
v 0 1.6 -2.7
v 0.3 1.6 -2.7
v 0.4 1.6 -2.7
v -0.7 1.6 -2.8
v -0.5 1.6 -2.8
v 0.8 1.6 -2.8
v 1 1.6 -2.8
v 0 1.7 -1.4
v 0.3 1.7 -1.4
v 0.1 1.7 -1.5
v 0.2 1.7 -1.5
v 0.1 1.7 -1.6
v 0.2 1.7 -1.6
v 0 1.7 -1.8
v 0.3 1.7 -1.8
v 0.1 2 -2
v 0.2 2 -2
v 0.1 2 -2.1
v 0.2 2 -2.1
v 0.1 2.1 -1.8
v 0.2 2.1 -1.8
v 0 2.1 -1.9
v 0.1 2.1 -1.9
v 0.2 2.1 -1.9
v 0.3 2.1 -1.9
v 0.1 2.1 -2
v 0.2 2.1 -2
v 0 2.1 -2.1
v 0.1 2.1 -2.1
v 0.2 2.1 -2.1
v 0.3 2.1 -2.1
v -0.1 4.8 -3.1
v 0.4 4.8 -3.1
v -0.1 4.8 -3.2
v 0.4 4.8 -3.2
v 0 4.9 -2.9
v 0.3 4.9 -2.9
v 0 4.9 -3.1
v 0.3 4.9 -3.1
v 0.1 5 -2.3
v 0.2 5 -2.3
v 0 5 -2.4
v 0.1 5 -2.4
v 0.2 5 -2.4
v 0.3 5 -2.4
v -0.1 5 -2.5
v 0 5 -2.5
v 0.1 5 -2.5
v 0.2 5 -2.5
v 0.3 5 -2.5
v 0.4 5 -2.5
v -0.1 5 -2.6
v 0 5 -2.6
v 0.1 5 -2.6
v 0.2 5 -2.6
v 0.3 5 -2.6
v 0.4 5 -2.6
v 0 5 -2.7
v 0.1 5 -2.7
v 0.2 5 -2.7
v 0.3 5 -2.7
v 0.1 5 -2.9
v 0.2 5 -2.9
v -0.1 5.2 0.9
v 0.4 5.2 0.9
v -0.3 5.2 0.8
v -0.1 5.2 0.8
v 0.1 5.2 0.8
v 0.2 5.2 0.8
v 0.4 5.2 0.8
v 0.6 5.2 0.8
v -0.4 5.2 0.7
v -0.3 5.2 0.7
v -0.1 5.2 0.7
v 0 5.2 0.7
v 0.1 5.2 0.7
v 0.2 5.2 0.7
v 0.3 5.2 0.7
v 0.4 5.2 0.7
v 0.6 5.2 0.7
v 0.7 5.2 0.7
v -0.5 5.2 0.6
v -0.4 5.2 0.6
v -0.3 5.2 0.6
v -0.2 5.2 0.6
v -0.1 5.2 0.6
v 0 5.2 0.6
v 0.1 5.2 0.6
v 0.2 5.2 0.6
v 0.3 5.2 0.6
v 0.4 5.2 0.6
v 0.5 5.2 0.6
v 0.6 5.2 0.6
v 0.7 5.2 0.6
v 0.8 5.2 0.6
v -0.3 5.2 0.5
v -0.2 5.2 0.5
v -0.1 5.2 0.5
v 0 5.2 0.5
v 0.1 5.2 0.5
v 0.2 5.2 0.5
v 0.3 5.2 0.5
v 0.4 5.2 0.5
v 0.5 5.2 0.5
v 0.6 5.2 0.5
v -0.6 5.2 0.4
v -0.5 5.2 0.4
v -0.4 5.2 0.4
v -0.3 5.2 0.4
v -0.2 5.2 0.4
v -0.1 5.2 0.4
v 0 5.2 0.4
v 0.1 5.2 0.4
v 0.2 5.2 0.4
v 0.3 5.2 0.4
v 0.4 5.2 0.4
v 0.5 5.2 0.4
v 0.6 5.2 0.4
v 0.7 5.2 0.4
v 0.8 5.2 0.4
v 0.9 5.2 0.4
v -0.4 5.2 0.3
v -0.3 5.2 0.3
v -0.2 5.2 0.3
v -0.1 5.2 0.3
v 0 5.2 0.3
v 0.1 5.2 0.3
v 0.2 5.2 0.3
v 0.3 5.2 0.3
v 0.4 5.2 0.3
v 0.5 5.2 0.3
v 0.6 5.2 0.3
v 0.7 5.2 0.3
v -0.5 5.2 0.2
v -0.4 5.2 0.2
v -0.3 5.2 0.2
v -0.2 5.2 0.2
v -0.1 5.2 0.2
v 0 5.2 0.2
v 0.1 5.2 0.2
v 0.2 5.2 0.2
v 0.3 5.2 0.2
v 0.4 5.2 0.2
v 0.5 5.2 0.2
v 0.6 5.2 0.2
v 0.7 5.2 0.2
v 0.8 5.2 0.2
v -0.5 5.2 0.1
v -0.4 5.2 0.1
v -0.3 5.2 0.1
v -0.2 5.2 0.1
v -0.1 5.2 0.1
v 0 5.2 0.1
v 0.1 5.2 0.1
v 0.2 5.2 0.1
v 0.3 5.2 0.1
v 0.4 5.2 0.1
v 0.5 5.2 0.1
v 0.6 5.2 0.1
v 0.7 5.2 0.1
v 0.8 5.2 0.1
v -0.4 5.2 0
v -0.3 5.2 0
v -0.2 5.2 0
v -0.1 5.2 0
v 0 5.2 0
v 0.1 5.2 0
v 0.2 5.2 0
v 0.3 5.2 0
v 0.4 5.2 0
v 0.5 5.2 0
v 0.6 5.2 0
v 0.7 5.2 0
v -0.6 5.2 -0.1
v -0.5 5.2 -0.1
v -0.4 5.2 -0.1
v -0.3 5.2 -0.1
v -0.2 5.2 -0.1
v -0.1 5.2 -0.1
v 0 5.2 -0.1
v 0.1 5.2 -0.1
v 0.2 5.2 -0.1
v 0.3 5.2 -0.1
v 0.4 5.2 -0.1
v 0.5 5.2 -0.1
v 0.6 5.2 -0.1
v 0.7 5.2 -0.1
v 0.8 5.2 -0.1
v 0.9 5.2 -0.1
v -0.3 5.2 -0.2
v -0.2 5.2 -0.2
v -0.1 5.2 -0.2
v 0 5.2 -0.2
v 0.1 5.2 -0.2
v 0.2 5.2 -0.2
v 0.3 5.2 -0.2
v 0.4 5.2 -0.2
v 0.5 5.2 -0.2
v 0.6 5.2 -0.2
v -0.5 5.2 -0.3
v -0.4 5.2 -0.3
v -0.3 5.2 -0.3
v -0.2 5.2 -0.3
v -0.1 5.2 -0.3
v 0 5.2 -0.3
v 0.1 5.2 -0.3
v 0.2 5.2 -0.3
v 0.3 5.2 -0.3
v 0.4 5.2 -0.3
v 0.5 5.2 -0.3
v 0.6 5.2 -0.3
v 0.7 5.2 -0.3
v 0.8 5.2 -0.3
v -0.4 5.2 -0.4
v -0.3 5.2 -0.4
v -0.1 5.2 -0.4
v 0 5.2 -0.4
v 0.1 5.2 -0.4
v 0.2 5.2 -0.4
v 0.3 5.2 -0.4
v 0.4 5.2 -0.4
v 0.6 5.2 -0.4
v 0.7 5.2 -0.4
v -0.3 5.2 -0.5
v -0.1 5.2 -0.5
v 0.1 5.2 -0.5
v 0.2 5.2 -0.5
v 0.4 5.2 -0.5
v 0.6 5.2 -0.5
v -0.1 5.2 -0.6
v 0.4 5.2 -0.6
v 0.1 5.3 0.8
v 0.2 5.3 0.8
v -0.1 5.3 0.7
v 0 5.3 0.7
v 0.1 5.3 0.7
v 0.2 5.3 0.7
v 0.3 5.3 0.7
v 0.4 5.3 0.7
v -0.3 5.3 0.6
v -0.2 5.3 0.6
v -0.1 5.3 0.6
v 0 5.3 0.6
v 0.1 5.3 0.6
v 0.2 5.3 0.6
v 0.3 5.3 0.6
v 0.4 5.3 0.6
v 0.5 5.3 0.6
v 0.6 5.3 0.6
v -0.3 5.3 0.5
v -0.2 5.3 0.5
v -0.1 5.3 0.5
v 0 5.3 0.5
v 0.1 5.3 0.5
v 0.2 5.3 0.5
v 0.3 5.3 0.5
v 0.4 5.3 0.5
v 0.5 5.3 0.5
v 0.6 5.3 0.5
v -0.4 5.3 0.4
v -0.3 5.3 0.4
v -0.2 5.3 0.4
v -0.1 5.3 0.4
v 0 5.3 0.4
v 0.1 5.3 0.4
v 0.2 5.3 0.4
v 0.3 5.3 0.4
v 0.4 5.3 0.4
v 0.5 5.3 0.4
v 0.6 5.3 0.4
v 0.7 5.3 0.4
v -0.4 5.3 0.3
v -0.3 5.3 0.3
v -0.2 5.3 0.3
v -0.1 5.3 0.3
v 0 5.3 0.3
v 0.1 5.3 0.3
v 0.2 5.3 0.3
v 0.3 5.3 0.3
v 0.4 5.3 0.3
v 0.5 5.3 0.3
v 0.6 5.3 0.3
v 0.7 5.3 0.3
v -0.5 5.3 0.2
v -0.4 5.3 0.2
v -0.3 5.3 0.2
v -0.2 5.3 0.2
v -0.1 5.3 0.2
v 0 5.3 0.2
v 0.1 5.3 0.2
v 0.2 5.3 0.2
v 0.3 5.3 0.2
v 0.4 5.3 0.2
v 0.5 5.3 0.2
v 0.6 5.3 0.2
v 0.7 5.3 0.2
v 0.8 5.3 0.2
v -0.5 5.3 0.1
v -0.4 5.3 0.1
v -0.3 5.3 0.1
v -0.2 5.3 0.1
v -0.1 5.3 0.1
v 0 5.3 0.1
v 0.1 5.3 0.1
v 0.2 5.3 0.1
v 0.3 5.3 0.1
v 0.4 5.3 0.1
v 0.5 5.3 0.1
v 0.6 5.3 0.1
v 0.7 5.3 0.1
v 0.8 5.3 0.1
v -0.4 5.3 0
v -0.3 5.3 0
v -0.2 5.3 0
v -0.1 5.3 0
v 0 5.3 0
v 0.1 5.3 0
v 0.2 5.3 0
v 0.3 5.3 0
v 0.4 5.3 0
v 0.5 5.3 0
v 0.6 5.3 0
v 0.7 5.3 0
v -0.4 5.3 -0.1
v -0.3 5.3 -0.1
v -0.2 5.3 -0.1
v -0.1 5.3 -0.1
v 0 5.3 -0.1
v 0.1 5.3 -0.1
v 0.2 5.3 -0.1
v 0.3 5.3 -0.1
v 0.4 5.3 -0.1
v 0.5 5.3 -0.1
v 0.6 5.3 -0.1
v 0.7 5.3 -0.1
v -0.3 5.3 -0.2
v -0.2 5.3 -0.2
v -0.1 5.3 -0.2
v 0 5.3 -0.2
v 0.1 5.3 -0.2
v 0.2 5.3 -0.2
v 0.3 5.3 -0.2
v 0.4 5.3 -0.2
v 0.5 5.3 -0.2
v 0.6 5.3 -0.2
v -0.3 5.3 -0.3
v -0.2 5.3 -0.3
v -0.1 5.3 -0.3
v 0 5.3 -0.3
v 0.1 5.3 -0.3
v 0.2 5.3 -0.3
v 0.3 5.3 -0.3
v 0.4 5.3 -0.3
v 0.5 5.3 -0.3
v 0.6 5.3 -0.3
v -0.1 5.3 -0.4
v 0 5.3 -0.4
v 0.1 5.3 -0.4
v 0.2 5.3 -0.4
v 0.3 5.3 -0.4
v 0.4 5.3 -0.4
v 0.1 5.3 -0.5
v 0.2 5.3 -0.5
v 0.1 5.5 -2.3
v 0.2 5.5 -2.3
v 0 5.5 -2.4
v 0.1 5.5 -2.4
v 0.2 5.5 -2.4
v 0.3 5.5 -2.4
v 0 5.5 -2.5
v 0.1 5.5 -2.5
v 0.2 5.5 -2.5
v 0.3 5.5 -2.5
v 0.1 5.7 -2.2
v 0.2 5.7 -2.2
v 0 5.7 -2.3
v 0.1 5.7 -2.3
v 0.2 5.7 -2.3
v 0.3 5.7 -2.3
v 0 5.7 -2.4
v 0.1 5.7 -2.4
v 0.2 5.7 -2.4
v 0.3 5.7 -2.4
v 0 5.9 0.1
v 0.1 5.9 0.1
v 0.2 5.9 0.1
v 0.3 5.9 0.1
v 0 5.9 0
v 0.1 5.9 0
v 0.2 5.9 0
v 0.3 5.9 0
v 0.1 5.9 -0.1
v 0.2 5.9 -0.1
v 0.1 5.9 -2.1
v 0.2 5.9 -2.1
v 0 5.9 -2.2
v 0.1 5.9 -2.2
v 0.2 5.9 -2.2
v 0.3 5.9 -2.2
v 0 5.9 -2.3
v 0.1 5.9 -2.3
v 0.2 5.9 -2.3
v 0.3 5.9 -2.3
v 0 6.1 0
v 0.1 6.1 0
v 0.2 6.1 0
v 0.3 6.1 0
v 0 6.1 -0.1
v 0.1 6.1 -0.1
v 0.2 6.1 -0.1
v 0.3 6.1 -0.1
v 0 6.1 -2.1
v 0.1 6.1 -2.1
v 0.2 6.1 -2.1
v 0.3 6.1 -2.1
v 0 6.1 -2.2
v 0.1 6.1 -2.2
v 0.2 6.1 -2.2
v 0.3 6.1 -2.2
v 0 6.2 -0.1
v 0.1 6.2 -0.1
v 0.2 6.2 -0.1
v 0.3 6.2 -0.1
v 0 6.2 -2.1
v 0.1 6.2 -2.1
v 0.2 6.2 -2.1
v 0.3 6.2 -2.1
v 0.2 1.7 -2.3
v 0.3 1.7 -2.3
v 0.2 1.7 -2.5
v 0.3 1.7 -2.5
v 0 1.8 -1.4
v 0.3 1.8 -1.4
v 0.1 1.8 -1.8
v 0.2 1.8 -1.8
v 0.1 1.8 -1.9
v 0.2 1.8 -1.9
v -0.2 1.8 -2
v 0 1.8 -2
v 0.3 1.8 -2
v 0.5 1.8 -2
v 0 1.8 -2.1
v 0.3 1.8 -2.1
v -0.3 1.8 -2.2
v -0.2 1.8 -2.2
v 0.5 1.8 -2.2
v 0.6 1.8 -2.2
v -0.3 1.8 -2.3
v -0.1 1.8 -2.3
v 0 1.8 -2.3
v 0.1 1.8 -2.3
v 0.3 1.8 -2.3
v 0.4 1.8 -2.3
v 0.6 1.8 -2.3
v -0.6 1.8 -2.4
v -0.4 1.8 -2.4
v 0.7 1.8 -2.4
v 0.9 1.8 -2.4
v -0.7 1.8 -2.5
v -0.6 1.8 -2.5
v -0.4 1.8 -2.5
v -0.1 1.8 -2.5
v 0 1.8 -2.5
v 0.1 1.8 -2.5
v 0.3 1.8 -2.5
v 0.4 1.8 -2.5
v 0.7 1.8 -2.5
v 0.9 1.8 -2.5
v 1 1.8 -2.5
v -0.7 1.8 -2.6
v -0.5 1.8 -2.6
v -0.1 1.8 -2.6
v 0 1.8 -2.6
v 0.1 1.8 -2.6
v 0.2 1.8 -2.6
v 0.3 1.8 -2.6
v 0.4 1.8 -2.6
v 0.8 1.8 -2.6
v 1 1.8 -2.6
v -0.1 1.8 -2.7
v 0.1 1.8 -2.7
v 0.2 1.8 -2.7
v 0.4 1.8 -2.7
v -0.7 1.8 -2.8
v -0.5 1.8 -2.8
v 0.8 1.8 -2.8
v 1 1.8 -2.8
v 0.1 1.9 -1.8
v 0.2 1.9 -1.8
v 0.1 1.9 -1.9
v 0.2 1.9 -1.9
v -0.8 1.9 -2.8
v -0.4 1.9 -2.8
v 0.7 1.9 -2.8
v 1.1 1.9 -2.8
v -0.8 1.9 -3
v -0.4 1.9 -3
v 0.7 1.9 -3
v 1.1 1.9 -3
v -0.4 2 -2.3
v -0.3 2 -2.3
v -0.2 2 -2.3
v -0.1 2 -2.3
v 0.4 2 -2.3
v 0.5 2 -2.3
v 0.6 2 -2.3
v 0.7 2 -2.3
v -0.4 2 -2.4
v -0.3 2 -2.4
v -0.2 2 -2.4
v -0.1 2 -2.4
v 0.4 2 -2.4
v 0.5 2 -2.4
v 0.6 2 -2.4
v 0.7 2 -2.4
v -0.9 2 -3
v -0.3 2 -3
v 0.6 2 -3
v 1.2 2 -3
v -0.9 2 -3.2
v -0.3 2 -3.2
v 0.6 2 -3.2
v 1.2 2 -3.2
v 0 2.1 -2.2
v 0.1 2.1 -2.2
v 0.2 2.1 -2.2
v 0.3 2.1 -2.2
v -0.3 2.1 -2.3
v -0.2 2.1 -2.3
v 0 2.1 -2.3
v 0.1 2.1 -2.3
v 0.2 2.1 -2.3
v 0.3 2.1 -2.3
v 0.5 2.1 -2.3
v 0.6 2.1 -2.3
v -0.4 2.1 -2.4
v -0.3 2.1 -2.4
v -0.2 2.1 -2.4
v -0.1 2.1 -2.4
v 0.4 2.1 -2.4
v 0.5 2.1 -2.4
v 0.6 2.1 -2.4
v 0.7 2.1 -2.4
v -0.4 2.1 -2.5
v -0.1 2.1 -2.5
v 0.4 2.1 -2.5
v 0.7 2.1 -2.5
v 0.1 2.2 -1.8
v 0.2 2.2 -1.8
v 0 2.2 -1.9
v 0.1 2.2 -1.9
v 0.2 2.2 -1.9
v 0.3 2.2 -1.9
v 0 2.2 -2.2
v 0.1 2.2 -2.2
v 0.2 2.2 -2.2
v 0.3 2.2 -2.2
v 0.1 2.2 -2.4
v 0.2 2.2 -2.4
v 0.1 5.1 -2.3
v 0.2 5.1 -2.3
v 0 5.1 -2.4
v 0.1 5.1 -2.4
v 0.2 5.1 -2.4
v 0.3 5.1 -2.4
v -0.1 5.1 -2.5
v 0 5.1 -2.5
v 0.1 5.1 -2.5
v 0.2 5.1 -2.5
v 0.3 5.1 -2.5
v 0.4 5.1 -2.5
v -0.1 5.1 -2.6
v 0 5.1 -2.6
v 0.1 5.1 -2.6
v 0.2 5.1 -2.6
v 0.3 5.1 -2.6
v 0.4 5.1 -2.6
v 0 5.1 -2.7
v 0.1 5.1 -2.7
v 0.2 5.1 -2.7
v 0.3 5.1 -2.7
v 0.1 5.1 -2.9
v 0.2 5.1 -2.9
v 0 5.2 -2.9
v 0.3 5.2 -2.9
v 0 5.2 -3.1
v 0.3 5.2 -3.1
v -0.1 5.3 -3.1
v 0.4 5.3 -3.1
v -0.1 5.3 -3.2
v 0.4 5.3 -3.2
v -0.1 5.5 0.9
v 0.4 5.5 0.9
v -0.3 5.5 0.8
v -0.1 5.5 0.8
v 0.4 5.5 0.8
v 0.6 5.5 0.8
v -0.4 5.5 0.7
v -0.3 5.5 0.7
v 0.6 5.5 0.7
v 0.7 5.5 0.7
v -0.5 5.5 0.6
v -0.4 5.5 0.6
v -0.1 5.5 0.6
v 0.4 5.5 0.6
v 0.7 5.5 0.6
v 0.8 5.5 0.6
v -0.2 5.5 0.5
v -0.1 5.5 0.5
v 0.4 5.5 0.5
v 0.5 5.5 0.5
v -0.6 5.5 0.4
v -0.5 5.5 0.4
v -0.3 5.5 0.4
v -0.2 5.5 0.4
v 0.5 5.5 0.4
v 0.6 5.5 0.4
v 0.8 5.5 0.4
v 0.9 5.5 0.4
v -0.6 5.5 -0.1
v -0.5 5.5 -0.1
v -0.3 5.5 -0.1
v -0.2 5.5 -0.1
v 0.5 5.5 -0.1
v 0.6 5.5 -0.1
v 0.8 5.5 -0.1
v 0.9 5.5 -0.1
v -0.2 5.5 -0.2
v -0.1 5.5 -0.2
v 0.4 5.5 -0.2
v 0.5 5.5 -0.2
v -0.5 5.5 -0.3
v -0.4 5.5 -0.3
v -0.1 5.5 -0.3
v 0.4 5.5 -0.3
v 0.7 5.5 -0.3
v 0.8 5.5 -0.3
v -0.4 5.5 -0.4
v -0.3 5.5 -0.4
v 0.6 5.5 -0.4
v 0.7 5.5 -0.4
v -0.3 5.5 -0.5
v -0.1 5.5 -0.5
v 0.4 5.5 -0.5
v 0.6 5.5 -0.5
v -0.1 5.5 -0.6
v 0.4 5.5 -0.6
v 0 5.5 -2.5
v 0.1 5.5 -2.5
v 0.2 5.5 -2.5
v 0.3 5.5 -2.5
v 0 5.5 -2.6
v 0.1 5.5 -2.6
v 0.2 5.5 -2.6
v 0.3 5.5 -2.6
v 0.1 5.5 -2.7
v 0.2 5.5 -2.7
v -0.1 5.6 0.6
v 0.4 5.6 0.6
v -0.2 5.6 0.5
v -0.1 5.6 0.5
v 0.4 5.6 0.5
v 0.5 5.6 0.5
v -0.3 5.6 0.4
v -0.2 5.6 0.4
v 0.1 5.6 0.4
v 0.2 5.6 0.4
v 0.5 5.6 0.4
v 0.6 5.6 0.4
v 0 5.6 0.3
v 0.1 5.6 0.3
v 0.2 5.6 0.3
v 0.3 5.6 0.3
v -0.1 5.6 0.2
v 0 5.6 0.2
v 0.3 5.6 0.2
v 0.4 5.6 0.2
v -0.1 5.6 0.1
v 0 5.6 0.1
v 0.3 5.6 0.1
v 0.4 5.6 0.1
v 0 5.6 0
v 0.1 5.6 0
v 0.2 5.6 0
v 0.3 5.6 0
v -0.3 5.6 -0.1
v -0.2 5.6 -0.1
v 0.1 5.6 -0.1
v 0.2 5.6 -0.1
v 0.5 5.6 -0.1
v 0.6 5.6 -0.1
v -0.2 5.6 -0.2
v -0.1 5.6 -0.2
v 0.4 5.6 -0.2
v 0.5 5.6 -0.2
v -0.1 5.6 -0.3
v 0.4 5.6 -0.3
v 0.1 5.7 0.4
v 0.2 5.7 0.4
v 0 5.7 0.3
v 0.1 5.7 0.3
v 0.2 5.7 0.3
v 0.3 5.7 0.3
v -0.1 5.7 0.2
v 0 5.7 0.2
v 0.1 5.7 0.2
v 0.2 5.7 0.2
v 0.3 5.7 0.2
v 0.4 5.7 0.2
v -0.1 5.7 0.1
v 0 5.7 0.1
v 0.1 5.7 0.1
v 0.2 5.7 0.1
v 0.3 5.7 0.1
v 0.4 5.7 0.1
v 0 5.7 0
v 0.1 5.7 0
v 0.2 5.7 0
v 0.3 5.7 0
v 0.1 5.7 -0.1
v 0.2 5.7 -0.1
v 0 5.7 -2.4
v 0.1 5.7 -2.4
v 0.2 5.7 -2.4
v 0.3 5.7 -2.4
v 0 5.7 -2.5
v 0.1 5.7 -2.5
v 0.2 5.7 -2.5
v 0.3 5.7 -2.5
v 0.1 5.7 -2.6
v 0.2 5.7 -2.6
v 0.1 5.9 0.3
v 0.2 5.9 0.3
v 0 5.9 0.2
v 0.1 5.9 0.2
v 0.2 5.9 0.2
v 0.3 5.9 0.2
v 0 5.9 0.1
v 0.1 5.9 0.1
v 0.2 5.9 0.1
v 0.3 5.9 0.1
v 0 5.9 -2.3
v 0.1 5.9 -2.3
v 0.2 5.9 -2.3
v 0.3 5.9 -2.3
v 0 5.9 -2.4
v 0.1 5.9 -2.4
v 0.2 5.9 -2.4
v 0.3 5.9 -2.4
v 0.1 5.9 -2.5
v 0.2 5.9 -2.5
v 0.1 6.1 0.2
v 0.2 6.1 0.2
v 0 6.1 0.1
v 0.1 6.1 0.1
v 0.2 6.1 0.1
v 0.3 6.1 0.1
v 0 6.1 0
v 0.1 6.1 0
v 0.2 6.1 0
v 0.3 6.1 0
v 0 6.1 -2.2
v 0.1 6.1 -2.2
v 0.2 6.1 -2.2
v 0.3 6.1 -2.2
v 0 6.1 -2.3
v 0.1 6.1 -2.3
v 0.2 6.1 -2.3
v 0.3 6.1 -2.3
v 0.1 6.1 -2.4
v 0.2 6.1 -2.4
v 0 6.2 0
v 0.1 6.2 0
v 0.2 6.2 0
v 0.3 6.2 0
v 0 6.2 -0.1
v 0.1 6.2 -0.1
v 0.2 6.2 -0.1
v 0.3 6.2 -0.1
v 0 6.2 -2.1
v 0.1 6.2 -2.1
v 0.2 6.2 -2.1
v 0.3 6.2 -2.1
v 0 6.2 -2.2
v 0.1 6.2 -2.2
v 0.2 6.2 -2.2
v 0.3 6.2 -2.2
v 0.1 6.3 0.1
v 0.2 6.3 0.1
v 0.1 6.3 0
v 0.2 6.3 0
v 0 6.3 -0.1
v 0.1 6.3 -0.1
v 0.2 6.3 -0.1
v 0.3 6.3 -0.1
v 0 6.3 -2.1
v 0.1 6.3 -2.1
v 0.2 6.3 -2.1
v 0.3 6.3 -2.1
v 0.1 6.3 -2.2
v 0.2 6.3 -2.2
v 0.1 6.3 -2.3
v 0.2 6.3 -2.3
v 0.1 6.4 0
v 0.2 6.4 0
v 0.1 6.4 -2.2
v 0.2 6.4 -2.2

# faces
f 3/3/1 2/3/1 1/3/1
f 4/3/1 2/3/1 3/3/1
f 7/3/1 6/3/1 5/3/1
f 8/3/1 6/3/1 7/3/1
f 12/2/1 10/2/1 9/2/1
f 13/3/1 11/3/1 10/3/1
f 13/2/1 10/2/1 12/2/1
f 14/3/1 11/3/1 13/3/1
f 17/2/1 16/2/1 15/2/1
f 18/2/1 16/2/1 17/2/1
f 21/2/1 20/2/1 19/2/1
f 22/2/1 20/2/1 21/2/1
f 27/2/1 24/2/1 23/2/1
f 28/2/1 24/2/1 27/2/1
f 29/2/1 26/2/1 25/2/1
f 30/2/1 26/2/1 29/2/1
f 34/2/1 32/2/1 31/2/1
f 35/2/1 32/2/1 34/2/1
f 36/2/1 34/2/1 33/2/1
f 38/2/1 36/2/1 33/2/1
f 38/2/1 37/2/1 36/2/1
f 39/2/1 37/2/1 38/2/1
f 40/2/1 37/2/1 39/2/1
f 41/2/1 37/2/1 40/2/1
f 48/2/1 45/2/1 44/2/1
f 49/2/1 45/2/1 48/2/1
f 50/2/1 43/2/1 42/2/1
f 51/2/1 43/2/1 50/2/1
f 52/2/1 47/2/1 46/2/1
f 53/2/1 47/2/1 52/2/1
f 58/2/1 55/2/1 54/2/1
f 59/2/1 55/2/1 58/2/1
f 60/2/1 57/2/1 56/2/1
f 61/2/1 57/2/1 60/2/1
f 64/2/1 63/2/1 62/2/1
f 65/2/1 63/2/1 64/2/1
f 74/2/1 69/2/1 68/2/1
f 75/2/1 69/2/1 74/2/1
f 76/2/1 71/2/1 70/2/1
f 77/2/1 71/2/1 76/2/1
f 78/2/1 67/2/1 66/2/1
f 79/2/1 67/2/1 78/2/1
f 82/2/1 73/2/1 72/2/1
f 83/2/1 73/2/1 82/2/1
f 84/2/1 81/2/1 80/2/1
f 85/2/1 81/2/1 84/2/1
f 90/2/1 87/2/1 86/2/1
f 91/2/1 87/2/1 90/2/1
f 92/2/1 89/2/1 88/2/1
f 93/2/1 89/2/1 92/2/1
f 100/2/1 95/2/1 94/2/1
f 101/2/1 95/2/1 100/2/1
f 102/2/1 97/2/1 96/2/1
f 103/2/1 97/2/1 102/2/1
f 104/2/1 99/2/1 98/2/1
f 105/2/1 99/2/1 104/2/1
f 110/2/1 107/2/1 106/2/1
f 111/2/1 107/2/1 110/2/1
f 112/2/1 109/2/1 108/2/1
f 113/2/1 109/2/1 112/2/1
f 116/2/1 115/2/1 114/2/1
f 117/2/1 115/2/1 116/2/1
f 120/2/1 119/2/1 118/2/1
f 121/2/1 119/2/1 120/2/1
f 126/3/1 125/3/1 124/3/1
f 127/3/1 125/3/1 126/3/1
f 140/2/1 131/2/1 130/2/1
f 141/2/1 131/2/1 140/2/1
f 142/2/1 133/2/1 132/2/1
f 143/2/1 133/2/1 142/2/1
f 144/2/1 135/2/1 134/2/1
f 145/2/1 135/2/1 144/2/1
f 146/2/1 137/2/1 136/2/1
f 147/2/1 137/2/1 146/2/1
f 148/3/1 123/3/1 122/3/1
f 149/3/1 123/3/1 148/3/1
f 150/2/1 129/2/1 128/2/1
f 151/2/1 129/2/1 150/2/1
f 156/2/1 139/2/1 138/2/1
f 157/2/1 139/2/1 156/2/1
f 158/2/1 153/2/1 152/2/1
f 159/2/1 153/2/1 158/2/1
f 162/2/1 155/2/1 154/2/1
f 163/2/1 155/2/1 162/2/1
f 164/2/1 161/2/1 160/2/1
f 165/2/1 161/2/1 164/2/1
f 171/2/1 167/2/1 166/2/1
f 172/2/1 167/2/1 171/2/1
f 173/2/1 169/2/1 168/2/1
f 174/2/1 169/2/1 173/2/1
f 176/2/1 171/2/1 170/2/1
f 177/2/1 176/2/1 175/2/1
f 178/2/1 171/2/1 176/2/1
f 178/2/1 176/2/1 177/2/1
f 184/2/1 180/2/1 179/2/1
f 185/2/1 180/2/1 184/2/1
f 186/2/1 180/2/1 185/2/1
f 187/2/1 184/2/1 183/2/1
f 187/2/1 185/2/1 184/2/1
f 188/2/1 185/2/1 187/2/1
f 192/2/1 182/2/1 181/2/1
f 193/2/1 182/2/1 192/2/1
f 195/3/1 192/3/1 191/3/1
f 196/3/1 192/3/1 195/3/1
f 197/3/1 194/3/1 193/3/1
f 198/3/1 194/3/1 197/3/1
f 209/3/1 190/3/1 189/3/1
f 210/3/1 190/3/1 209/3/1
f 211/2/1 200/2/1 199/2/1
f 212/2/1 200/2/1 211/2/1
f 213/2/1 202/2/1 201/2/1
f 214/2/1 202/2/1 213/2/1
f 215/2/1 204/2/1 203/2/1
f 216/2/1 204/2/1 215/2/1
f 217/2/1 206/2/1 205/2/1
f 218/2/1 206/2/1 217/2/1
f 219/2/1 208/2/1 207/2/1
f 220/2/1 208/2/1 219/2/1
f 222/2/1 197/2/1 196/2/1
f 223/2/1 197/2/1 222/2/1
f 228/2/1 225/2/1 224/2/1
f 229/2/1 225/2/1 228/2/1
f 230/2/1 227/2/1 226/2/1
f 231/2/1 227/2/1 230/2/1
f 233/2/1 222/2/1 221/2/1
f 234/2/1 222/2/1 233/2/1
f 235/2/1 230/2/1 229/2/1
f 236/2/1 230/2/1 235/2/1
f 239/2/1 233/2/1 232/2/1
f 240/2/1 233/2/1 239/2/1
f 241/2/1 237/2/1 236/2/1
f 242/2/1 237/2/1 241/2/1
f 245/2/1 239/2/1 238/2/1
f 246/2/1 239/2/1 245/2/1
f 247/2/1 243/2/1 242/2/1
f 248/2/1 243/2/1 247/2/1
f 249/2/1 245/2/1 244/2/1
f 250/2/1 245/2/1 249/2/1
f 251/2/1 249/2/1 248/2/1
f 252/2/1 249/2/1 251/2/1
f 257/2/1 254/2/1 253/2/1
f 258/2/1 254/2/1 257/2/1
f 259/2/1 256/2/1 255/2/1
f 260/2/1 256/2/1 259/2/1
f 267/2/1 262/2/1 261/2/1
f 268/2/1 262/2/1 267/2/1
f 273/2/1 270/2/1 269/2/1
f 274/2/1 270/2/1 273/2/1
f 276/2/1 264/2/1 263/2/1
f 277/2/1 272/2/1 271/2/1
f 278/2/1 272/2/1 277/2/1
f 279/2/1 276/2/1 275/2/1
f 280/2/1 264/2/1 276/2/1
f 280/2/1 276/2/1 279/2/1
f 282/2/1 264/2/1 280/2/1
f 283/2/1 264/2/1 282/2/1
f 284/2/1 266/2/1 265/2/1
f 285/2/1 266/2/1 284/2/1
f 287/3/1 282/3/1 281/3/1
f 288/3/1 282/3/1 287/3/1
f 291/3/1 286/3/1 285/3/1
f 292/3/1 286/3/1 291/3/1
f 297/2/1 294/2/1 293/2/1
f 298/2/1 294/2/1 297/2/1
f 299/2/1 296/2/1 295/2/1
f 300/2/1 296/2/1 299/2/1
f 302/2/1 289/2/1 288/2/1
f 303/2/1 289/2/1 302/2/1
f 304/2/1 291/2/1 290/2/1
f 305/2/1 291/2/1 304/2/1
f 310/2/1 307/2/1 306/2/1
f 311/2/1 307/2/1 310/2/1
f 314/2/1 309/2/1 308/2/1
f 315/2/1 309/2/1 314/2/1
f 317/2/1 302/2/1 301/2/1
f 318/2/1 302/2/1 317/2/1
f 319/2/1 304/2/1 303/2/1
f 320/2/1 304/2/1 319/2/1
f 321/2/1 312/2/1 311/2/1
f 322/2/1 312/2/1 321/2/1
f 323/2/1 314/2/1 313/2/1
f 324/2/1 314/2/1 323/2/1
f 327/2/1 317/2/1 316/2/1
f 328/2/1 317/2/1 327/2/1
f 329/2/1 319/2/1 318/2/1
f 330/2/1 319/2/1 329/2/1
f 331/2/1 323/2/1 322/2/1
f 332/2/1 323/2/1 331/2/1
f 333/2/1 325/2/1 324/2/1
f 334/2/1 325/2/1 333/2/1
f 335/2/1 327/2/1 326/2/1
f 336/2/1 327/2/1 335/2/1
f 337/2/1 329/2/1 328/2/1
f 338/2/1 329/2/1 337/2/1
f 339/2/1 333/2/1 332/2/1
f 340/2/1 335/2/1 334/2/1
f 341/2/1 335/2/1 340/2/1
f 342/2/1 337/2/1 336/2/1
f 343/2/1 339/2/1 332/2/1
f 343/2/1 340/2/1 339/2/1
f 344/2/1 340/2/1 343/2/1
f 345/2/1 340/2/1 344/2/1
f 346/2/1 342/2/1 341/2/1
f 347/2/1 337/2/1 342/2/1
f 347/2/1 342/2/1 346/2/1
f 348/2/1 337/2/1 347/2/1
f 349/2/1 345/2/1 344/2/1
f 349/2/1 346/2/1 345/2/1
f 349/2/1 347/2/1 346/2/1
f 350/2/1 347/2/1 349/2/1
f 365/2/1 352/2/1 351/2/1
f 366/2/1 352/2/1 365/2/1
f 367/2/1 354/2/1 353/2/1
f 368/2/1 354/2/1 367/2/1
f 369/2/1 356/2/1 355/2/1
f 370/2/1 356/2/1 369/2/1
f 371/2/1 358/2/1 357/2/1
f 372/2/1 358/2/1 371/2/1
f 373/2/1 360/2/1 359/2/1
f 374/2/1 360/2/1 373/2/1
f 375/2/1 362/2/1 361/2/1
f 376/2/1 362/2/1 375/2/1
f 377/2/1 364/2/1 363/2/1
f 378/2/1 364/2/1 377/2/1
f 381/2/1 380/2/1 379/2/1
f 382/2/1 380/2/1 381/2/1
f 387/2/1 384/2/1 383/2/1
f 388/2/1 384/2/1 387/2/1
f 389/2/1 386/2/1 385/2/1
f 390/2/1 386/2/1 389/2/1
f 393/2/1 392/2/1 391/2/1
f 394/2/1 392/2/1 393/2/1
f 395/2/1 392/2/1 394/2/1
f 396/2/1 392/2/1 395/2/1
f 407/2/1 398/2/1 397/2/1
f 408/2/1 398/2/1 407/2/1
f 409/2/1 400/2/1 399/2/1
f 410/2/1 400/2/1 409/2/1
f 411/2/1 402/2/1 401/2/1
f 412/2/1 402/2/1 411/2/1
f 413/2/1 404/2/1 403/2/1
f 414/2/1 404/2/1 413/2/1
f 415/2/1 406/2/1 405/2/1
f 416/2/1 406/2/1 415/2/1
f 419/2/1 418/2/1 417/2/1
f 420/2/1 418/2/1 419/2/1
f 429/2/1 422/2/1 421/2/1
f 430/2/1 422/2/1 429/2/1
f 431/2/1 424/2/1 423/2/1
f 432/2/1 424/2/1 431/2/1
f 433/2/1 426/2/1 425/2/1
f 434/2/1 426/2/1 433/2/1
f 435/2/1 428/2/1 427/2/1
f 436/2/1 428/2/1 435/2/1
f 439/3/1 438/3/1 437/3/1
f 440/3/1 438/3/1 439/3/1
f 447/2/1 442/2/1 441/2/1
f 448/2/1 442/2/1 447/2/1
f 449/2/1 444/2/1 443/2/1
f 450/2/1 444/2/1 449/2/1
f 451/2/1 446/2/1 445/2/1
f 452/2/1 446/2/1 451/2/1
f 455/3/1 454/3/1 453/3/1
f 456/3/1 454/3/1 455/3/1
f 461/2/1 458/2/1 457/2/1
f 462/2/1 458/2/1 461/2/1
f 463/2/1 460/2/1 459/2/1
f 464/2/1 460/2/1 463/2/1
f 467/3/1 466/3/1 465/3/1
f 468/3/1 466/3/1 467/3/1
f 471/2/1 470/2/1 469/2/1
f 472/2/1 470/2/1 471/2/1
f 473/3/2 474/3/2 475/3/2
f 475/3/2 474/3/2 476/3/2
f 477/2/2 478/2/2 479/2/2
f 479/2/2 478/2/2 480/2/2
f 481/3/2 482/3/2 483/3/2
f 483/3/2 482/3/2 484/3/2
f 485/2/2 486/2/2 489/2/2
f 489/2/2 486/2/2 490/2/2
f 487/2/2 488/2/2 491/2/2
f 491/2/2 488/2/2 492/2/2
f 493/3/2 494/3/2 495/3/2
f 495/3/2 494/3/2 496/3/2
f 497/2/2 498/2/2 503/2/2
f 503/2/2 498/2/2 504/2/2
f 499/2/2 500/2/2 505/2/2
f 505/2/2 500/2/2 506/2/2
f 501/2/2 502/2/2 507/2/2
f 507/2/2 502/2/2 508/2/2
f 509/2/2 510/2/2 511/2/2
f 511/2/2 510/2/2 512/2/2
f 513/2/2 514/2/2 521/2/2
f 521/2/2 514/2/2 522/2/2
f 515/2/2 516/2/2 523/2/2
f 523/2/2 516/2/2 524/2/2
f 517/2/2 518/2/2 525/2/2
f 525/2/2 518/2/2 526/2/2
f 519/2/2 520/2/2 527/2/2
f 527/2/2 520/2/2 528/2/2
f 529/2/2 530/2/2 531/2/2
f 531/2/2 530/2/2 532/2/2
f 532/2/2 530/2/2 533/2/2
f 533/2/2 530/2/2 534/2/2
f 535/2/2 536/2/2 545/2/2
f 545/2/2 536/2/2 546/2/2
f 537/2/2 538/2/2 547/2/2
f 547/2/2 538/2/2 548/2/2
f 539/2/2 540/2/2 549/2/2
f 549/2/2 540/2/2 550/2/2
f 541/2/2 542/2/2 551/2/2
f 551/2/2 542/2/2 552/2/2
f 543/2/2 544/2/2 553/2/2
f 553/2/2 544/2/2 554/2/2
f 555/2/2 556/2/2 559/2/2
f 559/2/2 556/2/2 560/2/2
f 557/2/2 558/2/2 561/2/2
f 561/2/2 558/2/2 562/2/2
f 563/2/2 564/2/2 577/2/2
f 577/2/2 564/2/2 578/2/2
f 565/2/2 566/2/2 579/2/2
f 579/2/2 566/2/2 580/2/2
f 567/2/2 568/2/2 581/2/2
f 581/2/2 568/2/2 582/2/2
f 569/2/2 570/2/2 583/2/2
f 583/2/2 570/2/2 584/2/2
f 571/2/2 572/2/2 585/2/2
f 585/2/2 572/2/2 586/2/2
f 573/2/2 574/2/2 587/2/2
f 587/2/2 574/2/2 588/2/2
f 575/2/2 576/2/2 589/2/2
f 589/2/2 576/2/2 590/2/2
f 591/2/2 592/2/2 595/2/2
f 595/2/2 592/2/2 596/2/2
f 593/2/2 594/2/2 597/2/2
f 597/2/2 594/2/2 598/2/2
f 601/2/2 602/2/2 605/2/2
f 605/2/2 602/2/2 606/2/2
f 607/2/2 608/2/2 611/2/2
f 611/2/2 608/2/2 612/2/2
f 599/2/2 600/2/2 614/2/2
f 609/2/2 610/2/2 615/2/2
f 615/2/2 610/2/2 616/2/2
f 613/2/2 614/2/2 617/2/2
f 614/2/2 600/2/2 618/2/2
f 617/2/2 614/2/2 618/2/2
f 618/2/2 600/2/2 620/2/2
f 620/2/2 600/2/2 621/2/2
f 603/2/2 604/2/2 622/2/2
f 622/2/2 604/2/2 623/2/2
f 619/3/2 620/3/2 625/3/2
f 625/3/2 620/3/2 626/3/2
f 623/3/2 624/3/2 629/3/2
f 629/3/2 624/3/2 630/3/2
f 631/2/2 632/2/2 635/2/2
f 635/2/2 632/2/2 636/2/2
f 633/2/2 634/2/2 637/2/2
f 637/2/2 634/2/2 638/2/2
f 626/2/2 627/2/2 640/2/2
f 640/2/2 627/2/2 641/2/2
f 628/2/2 629/2/2 642/2/2
f 642/2/2 629/2/2 643/2/2
f 644/2/2 645/2/2 648/2/2
f 648/2/2 645/2/2 649/2/2
f 646/2/2 647/2/2 652/2/2
f 652/2/2 647/2/2 653/2/2
f 639/2/2 640/2/2 655/2/2
f 655/2/2 640/2/2 656/2/2
f 641/2/2 642/2/2 657/2/2
f 657/2/2 642/2/2 658/2/2
f 649/2/2 650/2/2 659/2/2
f 659/2/2 650/2/2 660/2/2
f 651/2/2 652/2/2 661/2/2
f 661/2/2 652/2/2 662/2/2
f 654/2/2 655/2/2 665/2/2
f 665/2/2 655/2/2 666/2/2
f 656/2/2 657/2/2 667/2/2
f 667/2/2 657/2/2 668/2/2
f 660/2/2 661/2/2 669/2/2
f 669/2/2 661/2/2 670/2/2
f 662/2/2 663/2/2 671/2/2
f 671/2/2 663/2/2 672/2/2
f 664/2/2 665/2/2 673/2/2
f 673/2/2 665/2/2 674/2/2
f 666/2/2 667/2/2 675/2/2
f 675/2/2 667/2/2 676/2/2
f 670/2/2 671/2/2 677/2/2
f 672/2/2 673/2/2 678/2/2
f 678/2/2 673/2/2 679/2/2
f 674/2/2 675/2/2 680/2/2
f 670/2/2 677/2/2 681/2/2
f 677/2/2 678/2/2 681/2/2
f 681/2/2 678/2/2 682/2/2
f 682/2/2 678/2/2 683/2/2
f 679/2/2 680/2/2 684/2/2
f 680/2/2 675/2/2 685/2/2
f 684/2/2 680/2/2 685/2/2
f 685/2/2 675/2/2 686/2/2
f 682/2/2 683/2/2 687/2/2
f 683/2/2 684/2/2 687/2/2
f 684/2/2 685/2/2 687/2/2
f 687/2/2 685/2/2 688/2/2
f 689/2/2 690/2/2 694/2/2
f 694/2/2 690/2/2 695/2/2
f 691/2/2 692/2/2 696/2/2
f 696/2/2 692/2/2 697/2/2
f 693/2/2 694/2/2 699/2/2
f 698/2/2 699/2/2 700/2/2
f 699/2/2 694/2/2 701/2/2
f 700/2/2 699/2/2 701/2/2
f 702/2/2 703/2/2 707/2/2
f 707/2/2 703/2/2 708/2/2
f 708/2/2 703/2/2 709/2/2
f 706/2/2 707/2/2 710/2/2
f 707/2/2 708/2/2 710/2/2
f 710/2/2 708/2/2 711/2/2
f 704/2/2 705/2/2 715/2/2
f 715/2/2 705/2/2 716/2/2
f 714/3/2 715/3/2 718/3/2
f 718/3/2 715/3/2 719/3/2
f 716/3/2 717/3/2 720/3/2
f 720/3/2 717/3/2 721/3/2
f 712/3/2 713/3/2 732/3/2
f 732/3/2 713/3/2 733/3/2
f 722/2/2 723/2/2 734/2/2
f 734/2/2 723/2/2 735/2/2
f 724/2/2 725/2/2 736/2/2
f 736/2/2 725/2/2 737/2/2
f 726/2/2 727/2/2 738/2/2
f 738/2/2 727/2/2 739/2/2
f 728/2/2 729/2/2 740/2/2
f 740/2/2 729/2/2 741/2/2
f 730/2/2 731/2/2 742/2/2
f 742/2/2 731/2/2 743/2/2
f 719/2/2 720/2/2 745/2/2
f 745/2/2 720/2/2 746/2/2
f 747/2/2 748/2/2 751/2/2
f 751/2/2 748/2/2 752/2/2
f 749/2/2 750/2/2 753/2/2
f 753/2/2 750/2/2 754/2/2
f 744/2/2 745/2/2 756/2/2
f 756/2/2 745/2/2 757/2/2
f 752/2/2 753/2/2 758/2/2
f 758/2/2 753/2/2 759/2/2
f 755/2/2 756/2/2 762/2/2
f 762/2/2 756/2/2 763/2/2
f 759/2/2 760/2/2 764/2/2
f 764/2/2 760/2/2 765/2/2
f 761/2/2 762/2/2 768/2/2
f 768/2/2 762/2/2 769/2/2
f 765/2/2 766/2/2 770/2/2
f 770/2/2 766/2/2 771/2/2
f 767/2/2 768/2/2 772/2/2
f 772/2/2 768/2/2 773/2/2
f 771/2/2 772/2/2 774/2/2
f 774/2/2 772/2/2 775/2/2
f 776/2/2 777/2/2 778/2/2
f 778/2/2 777/2/2 779/2/2
f 780/2/2 781/2/2 782/2/2
f 782/2/2 781/2/2 783/2/2
f 786/3/2 787/3/2 788/3/2
f 788/3/2 787/3/2 789/3/2
f 792/2/2 793/2/2 802/2/2
f 802/2/2 793/2/2 803/2/2
f 794/2/2 795/2/2 804/2/2
f 804/2/2 795/2/2 805/2/2
f 796/2/2 797/2/2 806/2/2
f 806/2/2 797/2/2 807/2/2
f 798/2/2 799/2/2 808/2/2
f 808/2/2 799/2/2 809/2/2
f 784/3/2 785/3/2 810/3/2
f 810/3/2 785/3/2 811/3/2
f 790/2/2 791/2/2 812/2/2
f 812/2/2 791/2/2 813/2/2
f 800/2/2 801/2/2 818/2/2
f 818/2/2 801/2/2 819/2/2
f 814/2/2 815/2/2 820/2/2
f 820/2/2 815/2/2 821/2/2
f 816/2/2 817/2/2 824/2/2
f 824/2/2 817/2/2 825/2/2
f 822/2/2 823/2/2 826/2/2
f 826/2/2 823/2/2 827/2/2
f 828/2/2 829/2/2 834/2/2
f 834/2/2 829/2/2 835/2/2
f 830/2/2 831/2/2 836/2/2
f 836/2/2 831/2/2 837/2/2
f 832/2/2 833/2/2 838/2/2
f 838/2/2 833/2/2 839/2/2
f 840/2/2 841/2/2 846/2/2
f 846/2/2 841/2/2 847/2/2
f 842/2/2 843/2/2 848/2/2
f 848/2/2 843/2/2 849/2/2
f 844/2/2 845/2/2 850/2/2
f 850/2/2 845/2/2 851/2/2
f 852/2/2 853/2/2 856/2/2
f 856/2/2 853/2/2 857/2/2
f 854/2/2 855/2/2 858/2/2
f 858/2/2 855/2/2 859/2/2
f 860/2/2 861/2/2 862/2/2
f 862/2/2 861/2/2 863/2/2
f 864/2/2 865/2/2 866/2/2
f 866/2/2 865/2/2 867/2/2
f 870/2/2 871/2/2 876/2/2
f 876/2/2 871/2/2 877/2/2
f 872/2/2 873/2/2 878/2/2
f 878/2/2 873/2/2 879/2/2
f 868/2/2 869/2/2 880/2/2
f 880/2/2 869/2/2 881/2/2
f 874/2/2 875/2/2 884/2/2
f 884/2/2 875/2/2 885/2/2
f 882/2/2 883/2/2 886/2/2
f 886/2/2 883/2/2 887/2/2
f 888/2/2 889/2/2 891/2/2
f 891/2/2 889/2/2 892/2/2
f 890/2/2 891/2/2 893/2/2
f 890/2/2 893/2/2 895/2/2
f 893/2/2 894/2/2 895/2/2
f 895/2/2 894/2/2 896/2/2
f 896/2/2 894/2/2 897/2/2
f 897/2/2 894/2/2 898/2/2
f 901/2/2 902/2/2 905/2/2
f 905/2/2 902/2/2 906/2/2
f 899/2/2 900/2/2 907/2/2
f 907/2/2 900/2/2 908/2/2
f 903/2/2 904/2/2 909/2/2
f 909/2/2 904/2/2 910/2/2
f 911/2/2 912/2/2 915/2/2
f 915/2/2 912/2/2 916/2/2
f 913/2/2 914/2/2 917/2/2
f 917/2/2 914/2/2 918/2/2
f 919/2/2 920/2/2 921/2/2
f 921/2/2 920/2/2 922/2/2
f 923/2/2 924/2/2 925/2/2
f 925/2/2 924/2/2 926/2/2
f 927/2/2 928/2/2 930/2/2
f 928/3/2 929/3/2 931/3/2
f 930/2/2 928/2/2 931/2/2
f 931/3/2 929/3/2 932/3/2
f 933/3/2 934/3/2 935/3/2
f 935/3/2 934/3/2 936/3/2
f 937/3/2 938/3/2 939/3/2
f 939/3/2 938/3/2 940/3/2
f 943/2/3 942/2/3 941/2/3
f 944/2/3 942/2/3 943/2/3
f 947/2/3 946/2/3 945/2/3
f 948/2/3 946/2/3 947/2/3
f 951/2/3 950/2/3 949/2/3
f 952/2/3 950/2/3 951/2/3
f 955/2/3 954/2/3 953/2/3
f 956/2/3 954/2/3 955/2/3
f 959/2/3 958/2/3 957/2/3
f 960/2/3 958/2/3 959/2/3
f 963/2/3 962/2/3 961/2/3
f 964/2/3 962/2/3 963/2/3
f 967/2/3 966/2/3 965/2/3
f 968/2/3 966/2/3 967/2/3
f 973/2/3 970/2/3 969/2/3
f 974/2/3 970/2/3 973/2/3
f 977/2/3 976/2/3 975/2/3
f 978/2/3 976/2/3 977/2/3
f 979/2/3 972/2/3 971/2/3
f 980/2/3 972/2/3 979/2/3
f 983/2/3 982/2/3 981/2/3
f 984/2/3 982/2/3 983/2/3
f 987/2/3 986/2/3 985/2/3
f 988/2/3 986/2/3 987/2/3
f 991/2/3 990/2/3 989/2/3
f 992/2/3 990/2/3 991/2/3
f 995/2/3 994/2/3 993/2/3
f 996/2/3 994/2/3 995/2/3
f 1001/2/3 998/2/3 997/2/3
f 1002/2/3 998/2/3 1001/2/3
f 1003/2/3 1000/2/3 999/2/3
f 1004/2/3 1000/2/3 1003/2/3
f 1007/2/3 1006/2/3 1005/2/3
f 1008/2/3 1006/2/3 1007/2/3
f 1013/2/3 1010/2/3 1009/2/3
f 1014/2/3 1010/2/3 1013/2/3
f 1015/2/3 1012/2/3 1011/2/3
f 1016/2/3 1012/2/3 1015/2/3
f 1019/2/3 1018/2/3 1017/2/3
f 1020/2/3 1018/2/3 1019/2/3
f 1025/2/3 1022/2/3 1021/2/3
f 1026/2/3 1022/2/3 1025/2/3
f 1027/2/3 1024/2/3 1023/2/3
f 1028/2/3 1024/2/3 1027/2/3
f 1031/2/3 1030/2/3 1029/2/3
f 1032/2/3 1030/2/3 1031/2/3
f 1035/2/3 1034/2/3 1033/2/3
f 1036/2/3 1034/2/3 1035/2/3
f 1039/2/3 1038/2/3 1037/2/3
f 1040/2/3 1038/2/3 1039/2/3
f 1043/2/3 1042/2/3 1041/2/3
f 1044/2/3 1042/2/3 1043/2/3
f 1047/2/3 1046/2/3 1045/2/3
f 1048/2/3 1046/2/3 1047/2/3
f 1053/2/3 1050/2/3 1049/2/3
f 1054/2/3 1050/2/3 1053/2/3
f 1056/2/3 1052/2/3 1051/2/3
f 1057/2/3 1052/2/3 1056/2/3
f 1059/2/3 1055/2/3 1054/2/3
f 1060/2/3 1055/2/3 1059/2/3
f 1063/2/3 1059/2/3 1058/2/3
f 1064/2/3 1059/2/3 1063/2/3
f 1065/2/3 1062/2/3 1061/2/3
f 1066/2/3 1062/2/3 1065/2/3
f 1069/2/3 1068/2/3 1067/2/3
f 1070/2/3 1068/2/3 1069/2/3
f 1073/2/3 1072/2/3 1071/2/3
f 1074/2/3 1072/2/3 1073/2/3
f 1077/2/3 1076/2/3 1075/2/3
f 1078/2/3 1076/2/3 1077/2/3
f 1080/2/3 1079/2/3 1078/2/3
f 1081/2/3 1079/2/3 1080/2/3
f 1084/2/3 1082/2/3 1081/2/3
f 1085/2/3 1082/2/3 1084/2/3
f 1087/2/3 1084/2/3 1083/2/3
f 1088/2/3 1084/2/3 1087/2/3
f 1091/2/3 1087/2/3 1086/2/3
f 1092/2/3 1087/2/3 1091/2/3
f 1093/2/3 1090/2/3 1089/2/3
f 1094/2/3 1090/2/3 1093/2/3
f 1097/2/3 1096/2/3 1095/2/3
f 1098/2/3 1096/2/3 1097/2/3
f 1101/2/3 1100/2/3 1099/2/3
f 1102/2/3 1100/2/3 1101/2/3
f 1105/2/3 1104/2/3 1103/2/3
f 1106/2/3 1104/2/3 1105/2/3
f 1111/2/3 1108/2/3 1107/2/3
f 1112/2/3 1108/2/3 1111/2/3
f 1114/2/3 1110/2/3 1109/2/3
f 1115/2/3 1110/2/3 1114/2/3
f 1117/2/3 1113/2/3 1112/2/3
f 1118/2/3 1113/2/3 1117/2/3
f 1121/2/3 1117/2/3 1116/2/3
f 1122/2/3 1117/2/3 1121/2/3
f 1123/2/3 1120/2/3 1119/2/3
f 1124/2/3 1120/2/3 1123/2/3
f 1127/2/3 1126/2/3 1125/2/3
f 1128/2/3 1126/2/3 1127/2/3
f 1131/2/3 1130/2/3 1129/2/3
f 1132/2/3 1130/2/3 1131/2/3
f 1135/2/3 1134/2/3 1133/2/3
f 1136/2/3 1134/2/3 1135/2/3
f 1139/2/3 1138/2/3 1137/2/3
f 1140/2/3 1138/2/3 1139/2/3
f 1145/2/3 1142/2/3 1141/2/3
f 1146/2/3 1142/2/3 1145/2/3
f 1147/2/3 1144/2/3 1143/2/3
f 1148/2/3 1144/2/3 1147/2/3
f 1151/2/3 1150/2/3 1149/2/3
f 1152/2/3 1150/2/3 1151/2/3
f 1155/2/3 1154/2/3 1153/2/3
f 1156/2/3 1154/2/3 1155/2/3
f 1159/2/3 1158/2/3 1157/2/3
f 1160/2/3 1158/2/3 1159/2/3
f 1165/2/3 1162/2/3 1161/2/3
f 1166/2/3 1162/2/3 1165/2/3
f 1167/2/3 1164/2/3 1163/2/3
f 1168/2/3 1164/2/3 1167/2/3
f 1173/2/3 1170/2/3 1169/2/3
f 1174/2/3 1170/2/3 1173/2/3
f 1175/2/3 1172/2/3 1171/2/3
f 1176/2/3 1172/2/3 1175/2/3
f 1179/2/3 1178/2/3 1177/2/3
f 1180/2/3 1178/2/3 1179/2/3
f 1183/2/3 1182/2/3 1181/2/3
f 1184/2/3 1182/2/3 1183/2/3
f 1187/2/3 1186/2/3 1185/2/3
f 1188/2/3 1186/2/3 1187/2/3
f 1191/2/3 1190/2/3 1189/2/3
f 1192/2/3 1190/2/3 1191/2/3
f 1195/2/3 1194/2/3 1193/2/3
f 1196/2/3 1194/2/3 1195/2/3
f 1199/2/3 1198/2/3 1197/2/3
f 1200/2/3 1198/2/3 1199/2/3
f 1203/2/3 1202/2/3 1201/2/3
f 1204/2/3 1202/2/3 1203/2/3
f 1207/2/3 1206/2/3 1205/2/3
f 1208/2/3 1206/2/3 1207/2/3
f 1211/2/3 1210/2/3 1209/2/3
f 1212/2/3 1210/2/3 1211/2/3
f 1215/2/3 1214/2/3 1213/2/3
f 1216/2/3 1214/2/3 1215/2/3
f 1219/2/3 1218/2/3 1217/2/3
f 1220/2/3 1218/2/3 1219/2/3
f 1223/2/3 1222/2/3 1221/2/3
f 1224/2/3 1222/2/3 1223/2/3
f 1227/2/3 1226/2/3 1225/2/3
f 1228/2/3 1226/2/3 1227/2/3
f 1235/2/3 1232/2/3 1231/2/3
f 1236/2/3 1232/2/3 1235/2/3
f 1237/2/3 1234/2/3 1233/2/3
f 1238/2/3 1234/2/3 1237/2/3
f 1239/2/3 1230/2/3 1229/2/3
f 1240/2/3 1230/2/3 1239/2/3
f 1245/2/3 1242/2/3 1241/2/3
f 1246/2/3 1242/2/3 1245/2/3
f 1247/2/3 1244/2/3 1243/2/3
f 1248/2/3 1244/2/3 1247/2/3
f 1251/2/3 1250/2/3 1249/2/3
f 1252/2/3 1250/2/3 1251/2/3
f 1256/2/3 1254/2/3 1253/2/3
f 1257/2/3 1254/2/3 1256/2/3
f 1258/2/3 1256/2/3 1255/2/3
f 1259/2/3 1256/2/3 1258/2/3
f 1264/2/3 1261/2/3 1260/2/3
f 1265/2/3 1261/2/3 1264/2/3
f 1266/2/3 1263/2/3 1262/2/3
f 1267/2/3 1263/2/3 1266/2/3
f 1269/2/3 1268/2/3 1267/2/3
f 1270/2/3 1268/2/3 1269/2/3
f 1273/2/3 1272/2/3 1271/2/3
f 1274/2/3 1272/2/3 1273/2/3
f 1279/2/3 1276/2/3 1275/2/3
f 1280/2/3 1276/2/3 1279/2/3
f 1282/2/3 1278/2/3 1277/2/3
f 1283/2/3 1278/2/3 1282/2/3
f 1284/2/3 1279/2/3 1275/2/3
f 1286/2/3 1282/2/3 1281/2/3
f 1287/2/3 1282/2/3 1286/2/3
f 1291/2/3 1285/2/3 1284/2/3
f 1291/2/3 1284/2/3 1275/2/3
f 1292/2/3 1285/2/3 1291/2/3
f 1293/2/3 1288/2/3 1287/2/3
f 1294/2/3 1288/2/3 1293/2/3
f 1295/2/3 1290/2/3 1289/2/3
f 1296/2/3 1290/2/3 1295/2/3
f 1299/2/3 1298/2/3 1297/2/3
f 1300/2/3 1298/2/3 1299/2/3
f 1304/2/3 1302/2/3 1301/2/3
f 1305/2/3 1302/2/3 1304/2/3
f 1306/2/3 1304/2/3 1303/2/3
f 1307/2/3 1304/2/3 1306/2/3
f 1309/2/3 1308/2/3 1307/2/3
f 1310/2/3 1308/2/3 1309/2/3
f 1313/2/3 1312/2/3 1311/2/3
f 1314/2/3 1312/2/3 1313/2/3
f 1317/2/3 1316/2/3 1315/2/3
f 1318/2/3 1316/2/3 1317/2/3
f 1319/2/3 1316/2/3 1318/2/3
f 1320/2/3 1316/2/3 1319/2/3
f 1324/2/3 1319/2/3 1318/2/3
f 1324/5/3 1320/5/3 1319/5/3
f 1325/2/3 1321/2/3 1320/2/3
f 1325/5/3 1320/5/3 1324/5/3
f 1326/2/3 1321/2/3 1325/2/3
f 1327/2/3 1323/2/3 1322/2/3
f 1328/2/3 1323/2/3 1327/2/3
f 1329/2/3 1324/2/3 1318/2/3
f 1329/2/3 1325/2/3 1324/2/3
f 1330/2/3 1325/2/3 1329/2/3
f 1336/2/3 1332/2/3 1331/2/3
f 1337/2/3 1332/2/3 1336/2/3
f 1338/3/3 1334/3/3 1333/3/3
f 1339/3/3 1334/3/3 1338/3/3
f 1340/2/3 1336/2/3 1335/2/3
f 1341/2/3 1336/2/3 1340/2/3
f 1343/2/3 1342/2/3 1341/2/3
f 1344/2/3 1342/2/3 1343/2/3
f 1349/2/3 1346/2/3 1345/2/3
f 1350/2/3 1346/2/3 1349/2/3
f 1351/2/3 1348/2/3 1347/2/3
f 1352/2/3 1348/2/3 1351/2/3
f 1355/2/3 1351/2/3 1347/2/3
f 1356/4/3 1352/4/3 1351/4/3
f 1356/2/3 1351/2/3 1355/2/3
f 1357/2/3 1353/2/3 1352/2/3
f 1357/4/3 1352/4/3 1356/4/3
f 1358/2/3 1353/2/3 1357/2/3
f 1359/2/3 1356/2/3 1355/2/3
f 1359/2/3 1355/2/3 1354/2/3
f 1359/2/3 1357/2/3 1356/2/3
f 1360/2/3 1357/2/3 1359/2/3
f 1364/2/3 1362/2/3 1361/2/3
f 1365/2/3 1362/2/3 1364/2/3
f 1368/2/3 1367/2/3 1366/2/3
f 1369/2/3 1367/2/3 1368/2/3
f 1370/2/3 1364/2/3 1363/2/3
f 1371/2/3 1364/2/3 1370/2/3
f 1374/2/3 1373/2/3 1372/2/3
f 1375/2/3 1373/2/3 1374/2/3
f 1381/3/3 1377/3/3 1376/3/3
f 1382/3/3 1377/3/3 1381/3/3
f 1383/2/3 1379/2/3 1378/2/3
f 1384/2/3 1379/2/3 1383/2/3
f 1385/2/3 1381/2/3 1380/2/3
f 1386/2/3 1381/2/3 1385/2/3
f 1387/2/3 1383/2/3 1382/2/3
f 1388/2/3 1383/2/3 1387/2/3
f 1390/3/3 1387/3/3 1386/3/3
f 1391/3/3 1387/3/3 1390/3/3
f 1392/2/3 1389/2/3 1388/2/3
f 1393/2/3 1389/2/3 1392/2/3
f 1398/2/3 1395/2/3 1394/2/3
f 1399/2/3 1395/2/3 1398/2/3
f 1402/2/3 1397/2/3 1396/2/3
f 1403/2/3 1397/2/3 1402/2/3
f 1405/2/3 1401/2/3 1400/2/3
f 1406/2/3 1401/2/3 1405/2/3
f 1407/2/3 1404/2/3 1403/2/3
f 1408/2/3 1404/2/3 1407/2/3
f 1411/2/3 1410/2/3 1409/2/3
f 1412/2/3 1410/2/3 1411/2/3
f 1416/3/3 1414/3/3 1413/3/3
f 1417/3/3 1414/3/3 1416/3/3
f 1419/2/3 1416/2/3 1415/2/3
f 1420/2/3 1416/2/3 1419/2/3
f 1421/2/3 1418/2/3 1417/2/3
f 1422/2/3 1418/2/3 1421/2/3
f 1427/2/3 1424/2/3 1423/2/3
f 1428/2/3 1424/2/3 1427/2/3
f 1429/2/3 1424/2/3 1428/2/3
f 1430/2/3 1426/2/3 1425/2/3
f 1431/2/3 1426/2/3 1430/2/3
f 1432/3/3 1430/3/3 1429/3/3
f 1433/3/3 1430/3/3 1432/3/3
f 1436/2/3 1435/2/3 1434/2/3
f 1437/2/3 1435/2/3 1436/2/3
f 1440/3/3 1439/3/3 1438/3/3
f 1441/3/3 1439/3/3 1440/3/3
f 1442/3/3 1440/3/3 1438/3/3
f 1443/3/3 1439/3/3 1441/3/3
f 1444/3/3 1442/3/3 1438/3/3
f 1444/3/3 1443/3/3 1442/3/3
f 1445/3/3 1439/3/3 1443/3/3
f 1445/3/3 1443/3/3 1444/3/3
f 1448/3/3 1447/3/3 1446/3/3
f 1449/3/3 1447/3/3 1448/3/3
f 1450/3/3 1448/3/3 1446/3/3
f 1451/3/3 1447/3/3 1449/3/3
f 1452/3/3 1450/3/3 1446/3/3
f 1452/3/3 1451/3/3 1450/3/3
f 1453/3/3 1447/3/3 1451/3/3
f 1453/3/3 1451/3/3 1452/3/3
f 1456/3/3 1455/3/3 1454/3/3
f 1457/3/3 1455/3/3 1456/3/3
f 1458/3/3 1456/3/3 1454/3/3
f 1459/3/3 1455/3/3 1457/3/3
f 1460/3/3 1458/3/3 1454/3/3
f 1460/3/3 1459/3/3 1458/3/3
f 1461/3/3 1455/3/3 1459/3/3
f 1461/3/3 1459/3/3 1460/3/3
f 1464/3/3 1463/3/3 1462/3/3
f 1465/3/3 1463/3/3 1464/3/3
f 1466/3/3 1464/3/3 1462/3/3
f 1467/3/3 1463/3/3 1465/3/3
f 1468/3/3 1466/3/3 1462/3/3
f 1468/3/3 1467/3/3 1466/3/3
f 1469/3/3 1463/3/3 1467/3/3
f 1469/3/3 1467/3/3 1468/3/3
f 1472/3/3 1471/3/3 1470/3/3
f 1473/3/3 1471/3/3 1472/3/3
f 1474/3/3 1472/3/3 1470/3/3
f 1475/3/3 1471/3/3 1473/3/3
f 1476/3/3 1474/3/3 1470/3/3
f 1476/3/3 1475/3/3 1474/3/3
f 1477/3/3 1471/3/3 1475/3/3
f 1477/3/3 1475/3/3 1476/3/3
f 1480/3/3 1479/3/3 1478/3/3
f 1481/3/3 1479/3/3 1480/3/3
f 1482/3/3 1480/3/3 1478/3/3
f 1483/3/3 1479/3/3 1481/3/3
f 1484/3/3 1482/3/3 1478/3/3
f 1484/3/3 1483/3/3 1482/3/3
f 1485/3/3 1479/3/3 1483/3/3
f 1485/3/3 1483/3/3 1484/3/3
f 1486/2/4 1487/2/4 1488/2/4
f 1488/2/4 1487/2/4 1489/2/4
f 1490/2/4 1491/2/4 1492/2/4
f 1492/2/4 1491/2/4 1493/2/4
f 1494/2/4 1495/2/4 1496/2/4
f 1496/2/4 1495/2/4 1497/2/4
f 1498/2/4 1499/2/4 1500/2/4
f 1500/2/4 1499/2/4 1501/2/4
f 1502/2/4 1503/2/4 1504/2/4
f 1504/2/4 1503/2/4 1505/2/4
f 1506/2/4 1507/2/4 1508/2/4
f 1508/2/4 1507/2/4 1509/2/4
f 1510/2/4 1511/2/4 1512/2/4
f 1512/2/4 1511/2/4 1513/2/4
f 1514/2/4 1515/2/4 1516/2/4
f 1516/2/4 1515/2/4 1517/2/4
f 1518/2/4 1519/2/4 1520/2/4
f 1520/2/4 1519/2/4 1521/2/4
f 1522/2/4 1523/2/4 1524/2/4
f 1524/2/4 1523/2/4 1525/2/4
f 1526/2/4 1527/2/4 1528/2/4
f 1528/2/4 1527/2/4 1529/2/4
f 1530/2/4 1531/2/4 1532/2/4
f 1532/2/4 1531/2/4 1533/2/4
f 1534/2/4 1535/2/4 1536/2/4
f 1536/2/4 1535/2/4 1537/2/4
f 1538/2/4 1539/2/4 1540/2/4
f 1540/2/4 1539/2/4 1541/2/4
f 1542/2/4 1543/2/4 1544/2/4
f 1544/2/4 1543/2/4 1545/2/4
f 1546/2/4 1547/2/4 1548/2/4
f 1548/2/4 1547/2/4 1549/2/4
f 1550/2/4 1551/2/4 1552/2/4
f 1552/2/4 1551/2/4 1553/2/4
f 1554/2/4 1555/2/4 1556/2/4
f 1556/2/4 1555/2/4 1557/2/4
f 1558/2/4 1559/2/4 1560/2/4
f 1560/2/4 1559/2/4 1561/2/4
f 1562/2/4 1563/2/4 1564/2/4
f 1564/2/4 1563/2/4 1565/2/4
f 1566/2/4 1567/2/4 1568/2/4
f 1568/2/4 1567/2/4 1569/2/4
f 1570/2/4 1571/2/4 1572/2/4
f 1572/2/4 1571/2/4 1573/2/4
f 1574/2/4 1575/2/4 1576/2/4
f 1576/2/4 1575/2/4 1577/2/4
f 1578/2/4 1579/2/4 1580/2/4
f 1580/2/4 1579/2/4 1581/2/4
f 1582/2/4 1583/2/4 1584/2/4
f 1584/2/4 1583/2/4 1585/2/4
f 1586/2/4 1587/2/4 1588/2/4
f 1588/2/4 1587/2/4 1589/2/4
f 1589/2/4 1590/2/4 1591/2/4
f 1591/2/4 1590/2/4 1592/2/4
f 1593/2/4 1594/2/4 1596/2/4
f 1596/2/4 1594/2/4 1597/2/4
f 1595/2/4 1596/2/4 1600/2/4
f 1600/2/4 1596/2/4 1601/2/4
f 1598/2/4 1599/2/4 1602/2/4
f 1602/2/4 1599/2/4 1603/2/4
f 1604/2/4 1605/2/4 1606/2/4
f 1606/2/4 1605/2/4 1607/2/4
f 1608/2/4 1609/2/4 1610/2/4
f 1610/2/4 1609/2/4 1611/2/4
f 1612/2/4 1613/2/4 1618/2/4
f 1618/2/4 1613/2/4 1619/2/4
f 1614/2/4 1615/2/4 1620/2/4
f 1620/2/4 1615/2/4 1621/2/4
f 1616/2/4 1617/2/4 1622/2/4
f 1622/2/4 1617/2/4 1623/2/4
f 1619/2/4 1620/2/4 1625/2/4
f 1625/2/4 1620/2/4 1626/2/4
f 1624/2/4 1625/2/4 1630/2/4
f 1630/2/4 1625/2/4 1631/2/4
f 1626/2/4 1627/2/4 1632/2/4
f 1632/2/4 1627/2/4 1633/2/4
f 1628/2/4 1629/2/4 1634/2/4
f 1634/2/4 1629/2/4 1635/2/4
f 1636/2/4 1637/2/4 1638/2/4
f 1638/2/4 1637/2/4 1639/2/4
f 1640/2/4 1641/2/4 1642/2/4
f 1642/2/4 1641/2/4 1643/2/4
f 1644/2/4 1645/2/4 1648/2/4
f 1648/2/4 1645/2/4 1649/2/4
f 1646/2/4 1647/2/4 1650/2/4
f 1650/2/4 1647/2/4 1651/2/4
f 1652/2/4 1653/2/4 1656/2/4
f 1656/2/4 1653/2/4 1657/2/4
f 1654/2/4 1655/2/4 1661/2/4
f 1661/2/4 1655/2/4 1662/2/4
f 1658/2/4 1659/2/4 1665/2/4
f 1665/2/4 1659/2/4 1666/2/4
f 1660/2/4 1661/2/4 1667/2/4
f 1667/2/4 1661/2/4 1668/2/4
f 1663/2/4 1664/2/4 1670/2/4
f 1670/2/4 1664/2/4 1671/2/4
f 1668/2/4 1669/2/4 1672/2/4
f 1672/2/4 1669/2/4 1673/2/4
f 1674/2/4 1675/2/4 1676/2/4
f 1676/2/4 1675/2/4 1677/2/4
f 1678/2/4 1679/2/4 1680/2/4
f 1680/2/4 1679/2/4 1681/2/4
f 1682/2/4 1683/2/4 1684/2/4
f 1684/2/4 1683/2/4 1685/2/4
f 1686/2/4 1687/2/4 1688/2/4
f 1688/2/4 1687/2/4 1689/2/4
f 1690/2/4 1691/2/4 1692/2/4
f 1692/2/4 1691/2/4 1693/2/4
f 1694/2/4 1695/2/4 1696/2/4
f 1696/2/4 1695/2/4 1697/2/4
f 1698/2/4 1699/2/4 1702/2/4
f 1702/2/4 1699/2/4 1703/2/4
f 1700/2/4 1701/2/4 1704/2/4
f 1704/2/4 1701/2/4 1705/2/4
f 1706/2/4 1707/2/4 1708/2/4
f 1708/2/4 1707/2/4 1709/2/4
f 1710/2/4 1711/2/4 1714/2/4
f 1714/2/4 1711/2/4 1715/2/4
f 1716/2/4 1717/2/4 1718/2/4
f 1718/2/4 1717/2/4 1719/2/4
f 1712/2/4 1713/2/4 1720/2/4
f 1720/2/4 1713/2/4 1721/2/4
f 1722/2/4 1723/2/4 1724/2/4
f 1724/2/4 1723/2/4 1725/2/4
f 1726/2/4 1727/2/4 1728/2/4
f 1728/2/4 1727/2/4 1729/2/4
f 1730/2/4 1731/2/4 1732/2/4
f 1732/2/4 1731/2/4 1733/2/4
f 1734/2/4 1735/2/4 1736/2/4
f 1736/2/4 1735/2/4 1737/2/4
f 1738/2/4 1739/2/4 1740/2/4
f 1740/2/4 1739/2/4 1741/2/4
f 1742/2/4 1743/2/4 1744/2/4
f 1744/2/4 1743/2/4 1745/2/4
f 1746/2/4 1747/2/4 1748/2/4
f 1748/2/4 1747/2/4 1749/2/4
f 1750/2/4 1751/2/4 1752/2/4
f 1752/2/4 1751/2/4 1753/2/4
f 1754/2/4 1755/2/4 1756/2/4
f 1756/2/4 1755/2/4 1757/2/4
f 1758/2/4 1759/2/4 1760/2/4
f 1760/2/4 1759/2/4 1761/2/4
f 1762/2/4 1763/2/4 1764/2/4
f 1764/2/4 1763/2/4 1765/2/4
f 1766/2/4 1767/2/4 1770/2/4
f 1770/2/4 1767/2/4 1771/2/4
f 1768/2/4 1769/2/4 1772/2/4
f 1772/2/4 1769/2/4 1773/2/4
f 1774/2/4 1775/2/4 1780/2/4
f 1780/2/4 1775/2/4 1781/2/4
f 1776/2/4 1777/2/4 1782/2/4
f 1782/2/4 1777/2/4 1783/2/4
f 1778/2/4 1779/2/4 1784/2/4
f 1784/2/4 1779/2/4 1785/2/4
f 1786/2/4 1787/2/4 1790/2/4
f 1790/2/4 1787/2/4 1791/2/4
f 1788/2/4 1789/2/4 1792/2/4
f 1792/2/4 1789/2/4 1793/2/4
f 1793/2/4 1794/2/4 1798/2/4
f 1798/2/4 1794/2/4 1799/2/4
f 1795/2/4 1796/2/4 1800/2/4
f 1800/2/4 1796/2/4 1801/2/4
f 1801/2/4 1796/2/4 1802/2/4
f 1797/2/4 1798/2/4 1803/2/4
f 1803/2/4 1798/2/4 1804/2/4
f 1805/2/4 1806/2/4 1807/2/4
f 1807/2/4 1806/2/4 1808/2/4
f 1808/2/4 1809/2/4 1811/2/4
f 1811/2/4 1809/2/4 1812/2/4
f 1810/2/4 1811/2/4 1813/2/4
f 1813/2/4 1811/2/4 1814/2/4
f 1815/2/4 1816/2/4 1819/2/4
f 1819/2/4 1816/2/4 1820/2/4
f 1817/2/4 1818/2/4 1821/2/4
f 1821/2/4 1818/2/4 1822/2/4
f 1823/2/4 1824/2/4 1825/2/4
f 1825/2/4 1824/2/4 1826/2/4
f 1826/2/4 1827/2/4 1829/2/4
f 1829/2/4 1827/2/4 1830/2/4
f 1828/2/4 1829/2/4 1831/2/4
f 1831/2/4 1829/2/4 1832/2/4
f 1835/2/4 1836/2/4 1837/2/4
f 1837/2/4 1836/2/4 1838/2/4
f 1833/2/4 1834/2/4 1839/2/4
f 1839/2/4 1834/2/4 1840/2/4
f 1841/2/4 1842/2/4 1844/2/4
f 1844/2/4 1842/2/4 1845/2/4
f 1843/2/4 1844/2/4 1845/2/4
f 1845/2/4 1842/2/4 1846/2/4
f 1843/2/4 1845/2/4 1849/2/4
f 1849/2/4 1845/2/4 1850/2/4
f 1847/3/4 1848/3/4 1852/3/4
f 1852/3/4 1848/3/4 1853/3/4
f 1851/2/4 1852/2/4 1855/2/4
f 1855/2/4 1852/2/4 1856/2/4
f 1853/2/4 1854/2/4 1857/2/4
f 1857/2/4 1854/2/4 1858/2/4
f 1858/2/4 1859/2/4 1863/2/4
f 1863/2/4 1859/2/4 1864/2/4
f 1860/2/4 1861/2/4 1867/2/4
f 1867/2/4 1861/2/4 1868/2/4
f 1862/2/4 1863/2/4 1869/2/4
f 1869/2/4 1863/2/4 1870/2/4
f 1865/2/4 1866/2/4 1871/2/4
f 1868/3/4 1869/3/4 1873/3/4
f 1873/3/4 1869/3/4 1874/3/4
f 1871/2/4 1872/2/4 1875/2/4
f 1865/2/4 1871/2/4 1875/2/4
f 1875/2/4 1872/2/4 1876/2/4
f 1876/2/4 1872/2/4 1877/2/4
f 1877/2/4 1872/2/4 1878/2/4
f 1879/2/4 1880/2/4 1882/2/4
f 1882/2/4 1880/2/4 1885/2/4
f 1881/2/4 1882/2/4 1885/2/4
f 1883/3/4 1884/3/4 1886/3/4
f 1886/3/4 1884/3/4 1887/3/4
f 1881/2/4 1885/2/4 1889/2/4
f 1885/2/4 1886/2/4 1889/2/4
f 1889/2/4 1886/2/4 1890/2/4
f 1887/2/4 1888/2/4 1891/2/4
f 1891/2/4 1888/2/4 1892/2/4
f 1881/2/4 1889/2/4 1893/2/4
f 1893/2/4 1889/2/4 1894/2/4
f 1890/3/4 1891/3/4 1895/3/4
f 1895/3/4 1891/3/4 1896/3/4
f 1894/2/4 1889/2/4 1897/2/4
f 1897/2/4 1889/2/4 1898/2/4
f 1899/3/4 1900/3/4 1901/3/4
f 1901/3/4 1900/3/4 1902/3/4
f 1903/3/4 1904/3/4 1905/3/4
f 1905/3/4 1904/3/4 1906/3/4
f 1907/3/4 1908/3/4 1909/3/4
f 1909/3/4 1908/3/4 1910/3/4
f 1915/3/5 1912/3/5 1911/3/5
f 1916/3/5 1912/3/5 1915/3/5
f 1917/3/5 1914/3/5 1913/3/5
f 1918/3/5 1914/3/5 1917/3/5
f 1922/2/5 1920/2/5 1919/2/5
f 1923/2/5 1920/2/5 1922/2/5
f 1926/2/5 1922/2/5 1921/2/5
f 1926/2/5 1924/2/5 1923/2/5
f 1926/2/5 1923/2/5 1922/2/5
f 1927/2/5 1924/2/5 1926/2/5
f 1930/2/5 1926/2/5 1925/2/5
f 1930/2/5 1928/2/5 1927/2/5
f 1930/2/5 1927/2/5 1926/2/5
f 1931/2/5 1928/2/5 1930/2/5
f 1934/2/5 1930/2/5 1929/2/5
f 1934/2/5 1932/2/5 1931/2/5
f 1934/2/5 1931/2/5 1930/2/5
f 1935/2/5 1932/2/5 1934/2/5
f 1937/2/5 1934/2/5 1933/2/5
f 1937/2/5 1936/2/5 1935/2/5
f 1937/2/5 1935/2/5 1934/2/5
f 1938/2/5 1936/2/5 1937/2/5
f 1939/2/5 1936/2/5 1938/2/5
f 1940/2/5 1936/2/5 1939/2/5
f 1941/2/5 1939/2/5 1938/2/5
f 1942/2/5 1939/2/5 1941/2/5
f 1943/2/5 1939/2/5 1942/2/5
f 1944/2/5 1939/2/5 1943/2/5
f 1945/2/5 1943/2/5 1942/2/5
f 1946/2/5 1943/2/5 1945/2/5
f 1951/3/5 1948/3/5 1947/3/5
f 1952/3/5 1948/3/5 1951/3/5
f 1953/3/5 1950/3/5 1949/3/5
f 1954/3/5 1950/3/5 1953/3/5
f 1957/2/5 1956/2/5 1955/2/5
f 1958/2/5 1956/2/5 1957/2/5
f 1961/2/5 1960/2/5 1959/2/5
f 1962/2/5 1960/2/5 1961/2/5
f 1964/2/5 1961/2/5 1959/2/5
f 1965/2/5 1961/2/5 1964/2/5
f 1966/2/5 1960/2/5 1962/2/5
f 1967/2/5 1960/2/5 1966/2/5
f 1969/2/5 1964/2/5 1963/2/5
f 1970/2/5 1964/2/5 1969/2/5
f 1971/2/5 1968/2/5 1967/2/5
f 1972/2/5 1968/2/5 1971/2/5
f 1974/2/5 1969/2/5 1963/2/5
f 1975/2/5 1968/2/5 1972/2/5
f 1978/2/5 1974/2/5 1973/2/5
f 1979/2/5 1969/2/5 1974/2/5
f 1979/2/5 1974/2/5 1978/2/5
f 1980/2/5 1969/2/5 1979/2/5
f 1981/2/5 1976/2/5 1975/2/5
f 1981/2/5 1975/2/5 1972/2/5
f 1982/2/5 1976/2/5 1981/2/5
f 1983/2/5 1976/2/5 1982/2/5
f 1986/2/5 1978/2/5 1977/2/5
f 1986/2/5 1979/2/5 1978/2/5
f 1987/2/5 1979/2/5 1986/2/5
f 1988/2/5 1984/2/5 1983/2/5
f 1988/2/5 1983/2/5 1982/2/5
f 1989/2/5 1984/2/5 1988/2/5
f 1992/2/5 1986/2/5 1985/2/5
f 1993/2/5 1986/2/5 1992/2/5
f 1996/2/5 1990/2/5 1989/2/5
f 1997/2/5 1990/2/5 1996/2/5
f 1999/2/5 1994/2/5 1993/2/5
f 1999/2/5 1992/2/5 1991/2/5
f 1999/2/5 1993/2/5 1992/2/5
f 2000/2/5 1994/2/5 1999/2/5
f 2001/2/5 1994/2/5 2000/2/5
f 2006/2/5 1998/2/5 1997/2/5
f 2006/2/5 1997/2/5 1996/2/5
f 2006/2/5 1996/2/5 1995/2/5
f 2007/2/5 1998/2/5 2006/2/5
f 2008/2/5 1998/2/5 2007/2/5
f 2009/2/5 2003/2/5 2002/2/5
f 2010/2/5 2003/2/5 2009/2/5
f 2011/2/5 2005/2/5 2004/2/5
f 2012/2/5 2005/2/5 2011/2/5
f 2013/3/5 2000/3/5 1999/3/5
f 2014/3/5 2000/3/5 2013/3/5
f 2015/3/5 2008/3/5 2007/3/5
f 2016/3/5 2008/3/5 2015/3/5
f 2019/2/5 2018/2/5 2017/2/5
f 2020/2/5 2018/2/5 2019/2/5
f 2021/2/5 2019/2/5 2017/2/5
f 2022/2/5 2018/2/5 2020/2/5
f 2023/2/5 2021/2/5 2017/2/5
f 2023/2/5 2022/2/5 2021/2/5
f 2024/2/5 2018/2/5 2022/2/5
f 2024/2/5 2022/2/5 2023/2/5
f 2027/2/5 2026/2/5 2025/2/5
f 2028/2/5 2026/2/5 2027/2/5
f 2032/2/5 2030/2/5 2029/2/5
f 2033/2/5 2030/2/5 2032/2/5
f 2035/2/5 2032/2/5 2031/2/5
f 2035/2/5 2034/2/5 2033/2/5
f 2035/2/5 2033/2/5 2032/2/5
f 2036/2/5 2034/2/5 2035/2/5
f 2037/2/5 2035/2/5 2031/2/5
f 2038/2/5 2035/2/5 2037/2/5
f 2039/2/5 2034/2/5 2036/2/5
f 2040/2/5 2034/2/5 2039/2/5
f 2043/3/5 2042/3/5 2041/3/5
f 2044/3/5 2042/3/5 2043/3/5
f 2047/3/5 2046/3/5 2045/3/5
f 2048/3/5 2046/3/5 2047/3/5
f 2052/3/5 2050/3/5 2049/3/5
f 2053/3/5 2050/3/5 2052/3/5
f 2056/3/5 2052/3/5 2051/3/5
f 2057/3/5 2052/3/5 2056/3/5
f 2058/3/5 2054/3/5 2053/3/5
f 2059/3/5 2054/3/5 2058/3/5
f 2061/3/5 2056/3/5 2055/3/5
f 2062/3/5 2056/3/5 2061/3/5
f 2065/3/5 2060/3/5 2059/3/5
f 2066/3/5 2060/3/5 2065/3/5
f 2067/3/5 2063/3/5 2062/3/5
f 2068/3/5 2063/3/5 2067/3/5
f 2069/3/5 2065/3/5 2064/3/5
f 2070/3/5 2065/3/5 2069/3/5
f 2071/3/5 2069/3/5 2068/3/5
f 2072/3/5 2069/3/5 2071/3/5
f 2076/2/5 2074/2/5 2073/2/5
f 2077/2/5 2074/2/5 2076/2/5
f 2078/2/5 2074/2/5 2077/2/5
f 2079/2/5 2074/2/5 2078/2/5
f 2082/2/5 2076/2/5 2075/2/5
f 2082/2/5 2077/2/5 2076/2/5
f 2083/2/5 2077/2/5 2082/2/5
f 2084/2/5 2077/2/5 2083/2/5
f 2085/2/5 2077/2/5 2084/2/5
f 2086/2/5 2079/2/5 2078/2/5
f 2086/2/5 2080/2/5 2079/2/5
f 2087/2/5 2080/2/5 2086/2/5
f 2088/2/5 2080/2/5 2087/2/5
f 2089/2/5 2080/2/5 2088/2/5
f 2092/2/5 2082/2/5 2081/2/5
f 2092/2/5 2083/2/5 2082/2/5
f 2093/2/5 2083/2/5 2092/2/5
f 2094/2/5 2083/2/5 2093/2/5
f 2095/2/5 2083/2/5 2094/2/5
f 2096/2/5 2085/2/5 2084/2/5
f 2096/2/5 2087/2/5 2086/2/5
f 2096/2/5 2086/2/5 2085/2/5
f 2097/2/5 2087/2/5 2096/2/5
f 2098/2/5 2087/2/5 2097/2/5
f 2099/2/5 2087/2/5 2098/2/5
f 2100/2/5 2090/2/5 2089/2/5
f 2100/2/5 2089/2/5 2088/2/5
f 2101/2/5 2090/2/5 2100/2/5
f 2102/2/5 2090/2/5 2101/2/5
f 2103/2/5 2090/2/5 2102/2/5
f 2105/2/5 2093/2/5 2092/2/5
f 2105/2/5 2092/2/5 2091/2/5
f 2106/2/5 2095/2/5 2094/2/5
f 2106/2/5 2096/2/5 2095/2/5
f 2106/2/5 2097/2/5 2096/2/5
f 2107/2/5 2097/2/5 2106/2/5
f 2108/2/5 2097/2/5 2107/2/5
f 2109/2/5 2097/2/5 2108/2/5
f 2110/2/5 2099/2/5 2098/2/5
f 2110/2/5 2101/2/5 2100/2/5
f 2110/2/5 2100/2/5 2099/2/5
f 2111/2/5 2101/2/5 2110/2/5
f 2112/2/5 2101/2/5 2111/2/5
f 2113/2/5 2101/2/5 2112/2/5
f 2114/2/5 2104/2/5 2103/2/5
f 2114/2/5 2103/2/5 2102/2/5
f 2116/2/5 2105/2/5 2091/2/5
f 2116/2/5 2106/2/5 2105/2/5
f 2117/2/5 2106/2/5 2116/2/5
f 2118/2/5 2106/2/5 2117/2/5
f 2119/2/5 2106/2/5 2118/2/5
f 2120/2/5 2108/2/5 2107/2/5
f 2121/2/5 2108/2/5 2120/2/5
f 2122/2/5 2110/2/5 2109/2/5
f 2123/2/5 2110/2/5 2122/2/5
f 2124/2/5 2112/2/5 2111/2/5
f 2125/2/5 2112/2/5 2124/2/5
f 2126/2/5 2114/2/5 2113/2/5
f 2127/2/5 2104/2/5 2114/2/5
f 2127/2/5 2114/2/5 2126/2/5
f 2128/2/5 2104/2/5 2127/2/5
f 2129/2/5 2104/2/5 2128/2/5
f 2131/2/5 2116/2/5 2115/2/5
f 2131/2/5 2117/2/5 2116/2/5
f 2132/2/5 2119/2/5 2118/2/5
f 2132/2/5 2120/2/5 2119/2/5
f 2133/2/5 2120/2/5 2132/2/5
f 2134/2/5 2120/2/5 2133/2/5
f 2135/2/5 2122/2/5 2121/2/5
f 2136/2/5 2122/2/5 2135/2/5
f 2137/2/5 2124/2/5 2123/2/5
f 2138/2/5 2124/2/5 2137/2/5
f 2139/2/5 2126/2/5 2125/2/5
f 2139/2/5 2127/2/5 2126/2/5
f 2140/2/5 2127/2/5 2139/2/5
f 2141/2/5 2127/2/5 2140/2/5
f 2142/2/5 2130/2/5 2129/2/5
f 2142/2/5 2129/2/5 2128/2/5
f 2143/2/5 2131/2/5 2115/2/5
f 2143/2/5 2132/2/5 2131/2/5
f 2143/2/5 2133/2/5 2132/2/5
f 2144/2/5 2133/2/5 2143/2/5
f 2145/2/5 2133/2/5 2144/2/5
f 2146/2/5 2133/2/5 2145/2/5
f 2147/2/5 2138/2/5 2137/2/5
f 2147/2/5 2137/2/5 2136/2/5
f 2147/2/5 2136/2/5 2135/2/5
f 2147/2/5 2139/2/5 2138/2/5
f 2147/2/5 2135/2/5 2134/2/5
f 2148/2/5 2139/2/5 2147/2/5
f 2149/2/5 2139/2/5 2148/2/5
f 2150/2/5 2139/2/5 2149/2/5
f 2151/2/5 2139/2/5 2150/2/5
f 2152/2/5 2139/2/5 2151/2/5
f 2153/2/5 2141/2/5 2140/2/5
f 2153/2/5 2142/2/5 2141/2/5
f 2154/2/5 2142/2/5 2153/2/5
f 2155/2/5 2130/2/5 2142/2/5
f 2155/2/5 2142/2/5 2154/2/5
f 2156/2/5 2130/2/5 2155/2/5
f 2157/2/5 2143/2/5 2115/2/5
f 2158/2/5 2145/2/5 2144/2/5
f 2159/2/5 2145/2/5 2158/2/5
f 2160/2/5 2147/2/5 2146/2/5
f 2161/2/5 2147/2/5 2160/2/5
f 2162/2/5 2149/2/5 2148/2/5
f 2163/2/5 2149/2/5 2162/2/5
f 2164/2/5 2151/2/5 2150/2/5
f 2165/2/5 2151/2/5 2164/2/5
f 2166/2/5 2153/2/5 2152/2/5
f 2167/2/5 2153/2/5 2166/2/5
f 2168/2/5 2155/2/5 2154/2/5
f 2169/2/5 2155/2/5 2168/2/5
f 2170/2/5 2130/2/5 2156/2/5
f 2171/2/5 2159/2/5 2158/2/5
f 2171/2/5 2158/2/5 2157/2/5
f 2171/2/5 2160/2/5 2159/2/5
f 2172/2/5 2160/2/5 2171/2/5
f 2173/2/5 2160/2/5 2172/2/5
f 2174/2/5 2163/2/5 2162/2/5
f 2174/2/5 2165/2/5 2164/2/5
f 2174/2/5 2162/2/5 2161/2/5
f 2174/2/5 2164/2/5 2163/2/5
f 2174/2/5 2166/2/5 2165/2/5
f 2175/2/5 2166/2/5 2174/2/5
f 2176/2/5 2166/2/5 2175/2/5
f 2177/2/5 2166/2/5 2176/2/5
f 2178/2/5 2166/2/5 2177/2/5
f 2179/2/5 2166/2/5 2178/2/5
f 2180/2/5 2169/2/5 2168/2/5
f 2180/2/5 2170/2/5 2169/2/5
f 2180/2/5 2168/2/5 2167/2/5
f 2181/2/5 2170/2/5 2180/2/5
f 2182/2/5 2170/2/5 2181/2/5
f 2183/2/5 2157/2/5 2115/2/5
f 2183/2/5 2171/2/5 2157/2/5
f 2184/2/5 2171/2/5 2183/2/5
f 2185/2/5 2171/2/5 2184/2/5
f 2186/2/5 2173/2/5 2172/2/5
f 2186/2/5 2174/2/5 2173/2/5
f 2187/2/5 2174/2/5 2186/2/5
f 2188/2/5 2174/2/5 2187/2/5
f 2189/2/5 2176/2/5 2175/2/5
f 2190/2/5 2176/2/5 2189/2/5
f 2191/2/5 2178/2/5 2177/2/5
f 2192/2/5 2178/2/5 2191/2/5
f 2193/2/5 2181/2/5 2180/2/5
f 2193/2/5 2180/2/5 2179/2/5
f 2194/2/5 2181/2/5 2193/2/5
f 2195/2/5 2181/2/5 2194/2/5
f 2196/2/5 2170/2/5 2182/2/5
f 2197/2/5 2130/2/5 2170/2/5
f 2197/2/5 2170/2/5 2196/2/5
f 2198/2/5 2130/2/5 2197/2/5
f 2199/2/5 2185/2/5 2184/2/5
f 2199/2/5 2186/2/5 2185/2/5
f 2199/2/5 2187/2/5 2186/2/5
f 2200/2/5 2187/2/5 2199/2/5
f 2201/2/5 2189/2/5 2188/2/5
f 2202/2/5 2189/2/5 2201/2/5
f 2203/2/5 2191/2/5 2190/2/5
f 2204/2/5 2191/2/5 2203/2/5
f 2205/2/5 2193/2/5 2192/2/5
f 2206/2/5 2193/2/5 2205/2/5
f 2207/2/5 2195/2/5 2194/2/5
f 2207/2/5 2197/2/5 2196/2/5
f 2207/2/5 2196/2/5 2195/2/5
f 2208/2/5 2197/2/5 2207/2/5
f 2209/2/5 2199/2/5 2184/2/5
f 2210/2/5 2199/2/5 2209/2/5
f 2211/2/5 2199/2/5 2210/2/5
f 2212/2/5 2202/2/5 2201/2/5
f 2212/2/5 2201/2/5 2200/2/5
f 2212/2/5 2203/2/5 2202/2/5
f 2213/2/5 2203/2/5 2212/2/5
f 2214/2/5 2203/2/5 2213/2/5
f 2215/2/5 2203/2/5 2214/2/5
f 2216/2/5 2206/2/5 2205/2/5
f 2216/2/5 2205/2/5 2204/2/5
f 2216/2/5 2207/2/5 2206/2/5
f 2217/2/5 2207/2/5 2216/2/5
f 2218/2/5 2207/2/5 2217/2/5
f 2219/2/5 2207/2/5 2218/2/5
f 2220/2/5 2197/2/5 2208/2/5
f 2221/2/5 2197/2/5 2220/2/5
f 2222/2/5 2197/2/5 2221/2/5
f 2223/2/5 2211/2/5 2210/2/5
f 2223/2/5 2213/2/5 2212/2/5
f 2223/2/5 2212/2/5 2211/2/5
f 2224/2/5 2213/2/5 2223/2/5
f 2225/2/5 2213/2/5 2224/2/5
f 2226/2/5 2215/2/5 2214/2/5
f 2226/2/5 2217/2/5 2216/2/5
f 2226/2/5 2216/2/5 2215/2/5
f 2227/2/5 2217/2/5 2226/2/5
f 2228/2/5 2217/2/5 2227/2/5
f 2229/2/5 2217/2/5 2228/2/5
f 2230/2/5 2221/2/5 2220/2/5
f 2230/2/5 2219/2/5 2218/2/5
f 2230/2/5 2220/2/5 2219/2/5
f 2231/2/5 2221/2/5 2230/2/5
f 2232/2/5 2221/2/5 2231/2/5
f 2233/2/5 2225/2/5 2224/2/5
f 2233/2/5 2227/2/5 2226/2/5
f 2233/2/5 2226/2/5 2225/2/5
f 2234/2/5 2227/2/5 2233/2/5
f 2235/2/5 2227/2/5 2234/2/5
f 2236/2/5 2229/2/5 2228/2/5
f 2236/2/5 2231/2/5 2230/2/5
f 2236/2/5 2230/2/5 2229/2/5
f 2237/2/5 2231/2/5 2236/2/5
f 2238/2/5 2231/2/5 2237/2/5
f 2239/2/5 2235/2/5 2234/2/5
f 2239/2/5 2237/2/5 2236/2/5
f 2239/2/5 2236/2/5 2235/2/5
f 2240/2/5 2237/2/5 2239/2/5
f 2245/1/5 2242/1/5 2241/1/5
f 2246/1/5 2242/1/5 2245/1/5
f 2251/1/5 2244/1/5 2243/1/5
f 2252/1/5 2244/1/5 2251/1/5
f 2255/1/5 2248/1/5 2247/1/5
f 2256/1/5 2248/1/5 2255/1/5
f 2259/1/5 2250/1/5 2249/1/5
f 2260/1/5 2250/1/5 2259/1/5
f 2263/1/5 2254/1/5 2253/1/5
f 2264/1/5 2254/1/5 2263/1/5
f 2267/1/5 2258/1/5 2257/1/5
f 2268/1/5 2258/1/5 2267/1/5
f 2271/1/5 2261/1/5 2260/1/5
f 2272/1/5 2261/1/5 2271/1/5
f 2273/1/5 2263/1/5 2262/1/5
f 2274/1/5 2263/1/5 2273/1/5
f 2275/1/5 2265/1/5 2264/1/5
f 2276/1/5 2265/1/5 2275/1/5
f 2277/1/5 2267/1/5 2266/1/5
f 2278/1/5 2267/1/5 2277/1/5
f 2281/1/5 2270/1/5 2269/1/5
f 2282/1/5 2270/1/5 2281/1/5
f 2284/1/5 2273/1/5 2272/1/5
f 2285/1/5 2273/1/5 2284/1/5
f 2286/1/5 2275/1/5 2274/1/5
f 2287/1/5 2275/1/5 2286/1/5
f 2288/1/5 2277/1/5 2276/1/5
f 2289/1/5 2277/1/5 2288/1/5
f 2291/1/5 2280/1/5 2279/1/5
f 2292/1/5 2280/1/5 2291/1/5
f 2296/1/5 2284/1/5 2283/1/5
f 2297/1/5 2284/1/5 2296/1/5
f 2302/1/5 2290/1/5 2289/1/5
f 2303/1/5 2290/1/5 2302/1/5
f 2307/1/5 2294/1/5 2293/1/5
f 2308/1/5 2294/1/5 2307/1/5
f 2309/1/5 2296/1/5 2295/1/5
f 2310/1/5 2296/1/5 2309/1/5
f 2311/1/5 2298/1/5 2297/1/5
f 2312/1/5 2298/1/5 2311/1/5
f 2313/1/5 2300/1/5 2299/1/5
f 2314/1/5 2300/1/5 2313/1/5
f 2315/1/5 2302/1/5 2301/1/5
f 2316/1/5 2302/1/5 2315/1/5
f 2317/1/5 2304/1/5 2303/1/5
f 2318/1/5 2304/1/5 2317/1/5
f 2319/1/5 2306/1/5 2305/1/5
f 2320/1/5 2306/1/5 2319/1/5
f 2323/1/5 2311/1/5 2310/1/5
f 2324/1/5 2311/1/5 2323/1/5
f 2329/1/5 2317/1/5 2316/1/5
f 2330/1/5 2317/1/5 2329/1/5
f 2333/1/5 2322/1/5 2321/1/5
f 2334/1/5 2322/1/5 2333/1/5
f 2336/1/5 2325/1/5 2324/1/5
f 2337/1/5 2325/1/5 2336/1/5
f 2338/1/5 2327/1/5 2326/1/5
f 2339/1/5 2327/1/5 2338/1/5
f 2340/1/5 2329/1/5 2328/1/5
f 2341/1/5 2329/1/5 2340/1/5
f 2343/1/5 2332/1/5 2331/1/5
f 2344/1/5 2332/1/5 2343/1/5
f 2346/1/5 2336/1/5 2335/1/5
f 2347/1/5 2336/1/5 2346/1/5
f 2348/1/5 2338/1/5 2337/1/5
f 2349/1/5 2338/1/5 2348/1/5
f 2350/1/5 2340/1/5 2339/1/5
f 2351/1/5 2340/1/5 2350/1/5
f 2352/1/5 2342/1/5 2341/1/5
f 2353/1/5 2342/1/5 2352/1/5
f 2355/1/5 2346/1/5 2345/1/5
f 2356/1/5 2346/1/5 2355/1/5
f 2359/1/5 2350/1/5 2349/1/5
f 2360/1/5 2350/1/5 2359/1/5
f 2363/1/5 2354/1/5 2353/1/5
f 2364/1/5 2354/1/5 2363/1/5
f 2365/1/5 2358/1/5 2357/1/5
f 2366/1/5 2358/1/5 2365/1/5
f 2369/1/5 2362/1/5 2361/1/5
f 2370/1/5 2362/1/5 2369/1/5
f 2371/1/5 2368/1/5 2367/1/5
f 2372/1/5 2368/1/5 2371/1/5
f 2376/2/5 2374/2/5 2373/2/5
f 2377/2/5 2374/2/5 2376/2/5
f 2379/2/5 2376/2/5 2375/2/5
f 2380/2/5 2376/2/5 2379/2/5
f 2381/2/5 2378/2/5 2377/2/5
f 2382/2/5 2378/2/5 2381/2/5
f 2386/2/5 2384/2/5 2383/2/5
f 2387/2/5 2384/2/5 2386/2/5
f 2389/2/5 2386/2/5 2385/2/5
f 2390/2/5 2386/2/5 2389/2/5
f 2391/2/5 2388/2/5 2387/2/5
f 2392/2/5 2388/2/5 2391/2/5
f 2397/2/5 2394/2/5 2393/2/5
f 2398/2/5 2394/2/5 2397/2/5
f 2399/2/5 2396/2/5 2395/2/5
f 2400/2/5 2396/2/5 2399/2/5
f 2401/2/5 2399/2/5 2398/2/5
f 2402/2/5 2399/2/5 2401/2/5
f 2406/2/5 2404/2/5 2403/2/5
f 2407/2/5 2404/2/5 2406/2/5
f 2409/2/5 2406/2/5 2405/2/5
f 2410/2/5 2406/2/5 2409/2/5
f 2411/2/5 2408/2/5 2407/2/5
f 2412/2/5 2408/2/5 2411/2/5
f 2417/2/5 2414/2/5 2413/2/5
f 2418/2/5 2414/2/5 2417/2/5
f 2419/2/5 2416/2/5 2415/2/5
f 2420/2/5 2416/2/5 2419/2/5
f 2422/2/5 2419/2/5 2418/2/5
f 2423/2/5 2419/2/5 2422/2/5
f 2425/2/5 2422/2/5 2421/2/5
f 2426/2/5 2422/2/5 2425/2/5
f 2427/2/5 2424/2/5 2423/2/5
f 2428/2/5 2424/2/5 2427/2/5
f 2433/2/5 2430/2/5 2429/2/5
f 2434/2/5 2430/2/5 2433/2/5
f 2435/2/5 2432/2/5 2431/2/5
f 2436/2/5 2432/2/5 2435/2/5
f 2437/2/6 2438/2/6 2439/2/6
f 2439/2/6 2438/2/6 2440/2/6
f 2441/2/6 2442/2/6 2443/2/6
f 2443/2/6 2442/2/6 2444/2/6
f 2441/2/6 2443/2/6 2445/2/6
f 2444/2/6 2442/2/6 2446/2/6
f 2441/2/6 2445/2/6 2448/2/6
f 2445/2/6 2446/2/6 2448/2/6
f 2446/2/6 2442/2/6 2449/2/6
f 2448/2/6 2446/2/6 2449/2/6
f 2447/2/6 2448/2/6 2451/2/6
f 2449/2/6 2450/2/6 2451/2/6
f 2448/2/6 2449/2/6 2451/2/6
f 2451/2/6 2450/2/6 2452/2/6
f 2447/2/6 2451/2/6 2454/2/6
f 2452/2/6 2450/2/6 2455/2/6
f 2453/2/6 2454/2/6 2457/2/6
f 2454/2/6 2451/2/6 2458/2/6
f 2457/2/6 2454/2/6 2458/2/6
f 2458/2/6 2451/2/6 2459/2/6
f 2455/2/6 2456/2/6 2461/2/6
f 2452/2/6 2455/2/6 2461/2/6
f 2461/2/6 2456/2/6 2462/2/6
f 2462/2/6 2456/2/6 2463/2/6
f 2464/2/6 2465/2/6 2469/2/6
f 2469/2/6 2465/2/6 2470/2/6
f 2459/2/6 2460/2/6 2471/2/6
f 2458/2/6 2459/2/6 2471/2/6
f 2471/2/6 2460/2/6 2472/2/6
f 2472/2/6 2460/2/6 2473/2/6
f 2461/2/6 2462/2/6 2474/2/6
f 2474/2/6 2462/2/6 2475/2/6
f 2466/2/6 2467/2/6 2476/2/6
f 2476/2/6 2467/2/6 2477/2/6
f 2469/2/6 2470/2/6 2479/2/6
f 2468/2/6 2469/2/6 2479/2/6
f 2470/2/6 2471/2/6 2479/2/6
f 2471/2/6 2472/2/6 2479/2/6
f 2479/2/6 2472/2/6 2480/2/6
f 2480/2/6 2472/2/6 2481/2/6
f 2481/2/6 2472/2/6 2482/2/6
f 2477/2/6 2478/2/6 2485/2/6
f 2476/2/6 2477/2/6 2485/2/6
f 2474/2/6 2475/2/6 2485/2/6
f 2475/2/6 2476/2/6 2485/2/6
f 2485/2/6 2478/2/6 2486/2/6
f 2486/2/6 2478/2/6 2487/2/6
f 2487/2/6 2478/2/6 2488/2/6
f 2482/2/6 2483/2/6 2489/2/6
f 2481/2/6 2482/2/6 2489/2/6
f 2489/2/6 2483/2/6 2490/2/6
f 2485/2/6 2486/2/6 2491/2/6
f 2484/2/6 2485/2/6 2491/2/6
f 2491/2/6 2486/2/6 2492/2/6
f 2479/3/6 2480/3/6 2493/3/6
f 2493/3/6 2480/3/6 2494/3/6
f 2487/3/6 2488/3/6 2495/3/6
f 2495/3/6 2488/3/6 2496/3/6
f 2497/2/6 2498/2/6 2499/2/6
f 2499/2/6 2498/2/6 2500/2/6
f 2501/3/6 2502/3/6 2505/3/6
f 2505/3/6 2502/3/6 2506/3/6
f 2503/3/6 2504/3/6 2507/3/6
f 2507/3/6 2504/3/6 2508/3/6
f 2509/2/6 2510/2/6 2517/2/6
f 2517/2/6 2510/2/6 2518/2/6
f 2511/2/6 2512/2/6 2519/2/6
f 2519/2/6 2512/2/6 2520/2/6
f 2513/2/6 2514/2/6 2521/2/6
f 2521/2/6 2514/2/6 2522/2/6
f 2515/2/6 2516/2/6 2523/2/6
f 2523/2/6 2516/2/6 2524/2/6
f 2525/3/6 2526/3/6 2529/3/6
f 2529/3/6 2526/3/6 2530/3/6
f 2527/3/6 2528/3/6 2531/3/6
f 2531/3/6 2528/3/6 2532/3/6
f 2533/2/6 2534/2/6 2539/2/6
f 2539/2/6 2534/2/6 2540/2/6
f 2535/2/6 2536/2/6 2541/2/6
f 2541/2/6 2536/2/6 2542/2/6
f 2537/2/6 2538/2/6 2546/2/6
f 2546/2/6 2538/2/6 2547/2/6
f 2543/2/6 2544/2/6 2550/2/6
f 2550/2/6 2544/2/6 2551/2/6
f 2547/2/6 2548/2/6 2553/2/6
f 2545/2/6 2546/2/6 2553/2/6
f 2546/2/6 2547/2/6 2553/2/6
f 2553/2/6 2548/2/6 2554/2/6
f 2551/2/6 2552/2/6 2555/2/6
f 2550/2/6 2551/2/6 2555/2/6
f 2549/2/6 2550/2/6 2555/2/6
f 2555/2/6 2552/2/6 2556/2/6
f 2557/2/6 2558/2/6 2560/2/6
f 2560/2/6 2558/2/6 2561/2/6
f 2559/2/6 2560/2/6 2563/2/6
f 2561/2/6 2562/2/6 2563/2/6
f 2560/2/6 2561/2/6 2563/2/6
f 2563/2/6 2562/2/6 2564/2/6
f 2564/2/6 2562/2/6 2565/2/6
f 2565/2/6 2562/2/6 2566/2/6
f 2564/2/6 2565/2/6 2567/2/6
f 2567/2/6 2565/2/6 2568/2/6
f 2569/3/6 2570/3/6 2572/3/6
f 2572/3/6 2570/3/6 2573/3/6
f 2571/3/6 2572/3/6 2576/3/6
f 2576/3/6 2572/3/6 2577/3/6
f 2573/3/6 2574/3/6 2578/3/6
f 2578/3/6 2574/3/6 2579/3/6
f 2575/3/6 2576/3/6 2581/3/6
f 2581/3/6 2576/3/6 2582/3/6
f 2579/3/6 2580/3/6 2585/3/6
f 2585/3/6 2580/3/6 2586/3/6
f 2582/3/6 2583/3/6 2587/3/6
f 2587/3/6 2583/3/6 2588/3/6
f 2584/3/6 2585/3/6 2589/3/6
f 2589/3/6 2585/3/6 2590/3/6
f 2588/3/6 2589/3/6 2591/3/6
f 2591/3/6 2589/3/6 2592/3/6
f 2593/3/6 2594/3/6 2595/3/6
f 2595/3/6 2594/3/6 2596/3/6
f 2597/3/6 2598/3/6 2599/3/6
f 2599/3/6 2598/3/6 2600/3/6
f 2601/2/6 2602/2/6 2604/2/6
f 2604/2/6 2602/2/6 2605/2/6
f 2603/2/6 2604/2/6 2608/2/6
f 2605/2/6 2606/2/6 2608/2/6
f 2604/2/6 2605/2/6 2608/2/6
f 2608/2/6 2606/2/6 2609/2/6
f 2607/2/6 2608/2/6 2612/2/6
f 2609/2/6 2610/2/6 2612/2/6
f 2608/2/6 2609/2/6 2612/2/6
f 2612/2/6 2610/2/6 2613/2/6
f 2613/2/6 2610/2/6 2614/2/6
f 2614/2/6 2610/2/6 2615/2/6
f 2611/2/6 2612/2/6 2617/2/6
f 2612/2/6 2613/2/6 2617/2/6
f 2617/2/6 2613/2/6 2618/2/6
f 2615/2/6 2616/2/6 2619/2/6
f 2614/2/6 2615/2/6 2619/2/6
f 2619/2/6 2616/2/6 2620/2/6
f 2611/2/6 2617/2/6 2622/2/6
f 2622/2/6 2617/2/6 2623/2/6
f 2623/2/6 2617/2/6 2624/2/6
f 2620/2/6 2616/2/6 2625/2/6
f 2625/2/6 2616/2/6 2626/2/6
f 2626/2/6 2616/2/6 2627/2/6
f 2621/2/6 2622/2/6 2629/2/6
f 2622/2/6 2623/2/6 2629/2/6
f 2629/2/6 2623/2/6 2630/2/6
f 2630/2/6 2623/2/6 2631/2/6
f 2627/2/6 2628/2/6 2634/2/6
f 2626/2/6 2627/2/6 2634/2/6
f 2634/2/6 2628/2/6 2635/2/6
f 2635/2/6 2628/2/6 2636/2/6
f 2631/2/6 2632/2/6 2637/2/6
f 2630/2/6 2631/2/6 2637/2/6
f 2634/2/6 2635/2/6 2640/2/6
f 2633/2/6 2634/2/6 2640/2/6
f 2637/2/6 2638/2/6 2641/2/6
f 2630/2/6 2637/2/6 2641/2/6
f 2641/2/6 2638/2/6 2642/2/6
f 2642/2/6 2638/2/6 2643/2/6
f 2639/2/6 2640/2/6 2644/2/6
f 2640/2/6 2635/2/6 2645/2/6
f 2644/2/6 2640/2/6 2645/2/6
f 2645/2/6 2635/2/6 2646/2/6
f 2642/2/6 2643/2/6 2647/2/6
f 2643/2/6 2644/2/6 2647/2/6
f 2644/2/6 2645/2/6 2647/2/6
f 2647/2/6 2645/2/6 2648/2/6
f 2648/2/6 2645/2/6 2649/2/6
f 2649/2/6 2645/2/6 2650/2/6
f 2648/2/6 2649/2/6 2651/2/6
f 2651/2/6 2649/2/6 2652/2/6
f 2652/2/6 2649/2/6 2653/2/6
f 2653/2/6 2649/2/6 2654/2/6
f 2652/2/6 2653/2/6 2655/2/6
f 2655/2/6 2653/2/6 2656/2/6
f 2657/2/6 2658/2/6 2661/2/6
f 2661/2/6 2658/2/6 2662/2/6
f 2659/2/6 2660/2/6 2663/2/6
f 2663/2/6 2660/2/6 2664/2/6
f 2662/2/6 2663/2/6 2665/2/6
f 2665/2/6 2663/2/6 2666/2/6
f 2667/2/6 2668/2/6 2670/2/6
f 2670/2/6 2668/2/6 2671/2/6
f 2669/2/6 2670/2/6 2674/2/6
f 2671/2/6 2672/2/6 2674/2/6
f 2670/2/6 2671/2/6 2674/2/6
f 2674/2/6 2672/2/6 2675/2/6
f 2675/2/6 2672/2/6 2676/2/6
f 2676/2/6 2672/2/6 2677/2/6
f 2673/2/6 2674/2/6 2679/2/6
f 2674/2/6 2675/2/6 2679/2/6
f 2679/2/6 2675/2/6 2680/2/6
f 2677/2/6 2678/2/6 2681/2/6
f 2676/2/6 2677/2/6 2681/2/6
f 2681/2/6 2678/2/6 2682/2/6
f 2673/2/6 2679/2/6 2683/2/6
f 2683/2/6 2679/2/6 2684/2/6
f 2682/2/6 2678/2/6 2685/2/6
f 2685/2/6 2678/2/6 2686/2/6
f 2673/2/6 2683/2/6 2687/2/6
f 2686/2/6 2678/2/6 2690/2/6
f 2687/2/6 2688/2/6 2691/2/6
f 2689/2/6 2690/2/6 2694/2/6
f 2691/2/6 2692/2/6 2695/2/6
f 2673/2/6 2687/2/6 2695/2/6
f 2687/2/6 2691/2/6 2695/2/6
f 2695/2/6 2692/2/6 2696/2/6
f 2696/2/6 2692/2/6 2697/2/6
f 2693/2/6 2694/2/6 2698/2/6
f 2694/2/6 2690/2/6 2699/2/6
f 2690/2/6 2678/2/6 2699/2/6
f 2698/2/6 2694/2/6 2699/2/6
f 2699/2/6 2678/2/6 2700/2/6
f 2696/2/6 2697/2/6 2701/2/6
f 2697/2/6 2698/2/6 2701/2/6
f 2698/2/6 2699/2/6 2701/2/6
f 2701/2/6 2699/2/6 2702/2/6
f 2702/2/6 2699/2/6 2703/2/6
f 2703/2/6 2699/2/6 2704/2/6
f 2702/2/6 2703/2/6 2705/2/6
f 2705/2/6 2703/2/6 2706/2/6
f 2707/2/6 2708/2/6 2710/2/6
f 2710/2/6 2708/2/6 2711/2/6
f 2709/2/6 2710/2/6 2714/2/6
f 2714/2/6 2710/2/6 2715/2/6
f 2711/2/6 2712/2/6 2716/2/6
f 2716/2/6 2712/2/6 2717/2/6
f 2713/2/6 2714/2/6 2719/2/6
f 2719/2/6 2714/2/6 2720/2/6
f 2717/2/6 2718/2/6 2723/2/6
f 2723/2/6 2718/2/6 2724/2/6
f 2720/2/6 2721/2/6 2725/2/6
f 2725/2/6 2721/2/6 2726/2/6
f 2722/2/6 2723/2/6 2727/2/6
f 2727/2/6 2723/2/6 2728/2/6
f 2726/2/6 2727/2/6 2729/2/6
f 2729/2/6 2727/2/6 2730/2/6
f 2731/2/6 2732/2/6 2735/2/6
f 2735/2/6 2732/2/6 2736/2/6
f 2733/2/6 2734/2/6 2737/2/6
f 2737/2/6 2734/2/6 2738/2/6
f 2736/2/6 2737/2/6 2739/2/6
f 2739/2/6 2737/2/6 2740/2/6
f 2741/2/6 2742/2/6 2744/2/6
f 2744/2/6 2742/2/6 2745/2/6
f 2743/2/6 2744/2/6 2747/2/6
f 2747/2/6 2744/2/6 2748/2/6
f 2745/2/6 2746/2/6 2749/2/6
f 2749/2/6 2746/2/6 2750/2/6
f 2751/2/6 2752/2/6 2755/2/6
f 2755/2/6 2752/2/6 2756/2/6
f 2753/2/6 2754/2/6 2757/2/6
f 2757/2/6 2754/2/6 2758/2/6
f 2756/2/6 2757/2/6 2759/2/6
f 2759/2/6 2757/2/6 2760/2/6
f 2761/2/6 2762/2/6 2764/2/6
f 2764/2/6 2762/2/6 2765/2/6
f 2763/2/6 2764/2/6 2767/2/6
f 2767/2/6 2764/2/6 2768/2/6
f 2765/2/6 2766/2/6 2769/2/6
f 2769/2/6 2766/2/6 2770/2/6
f 2771/2/6 2772/2/6 2775/2/6
f 2775/2/6 2772/2/6 2776/2/6
f 2773/2/6 2774/2/6 2777/2/6
f 2777/2/6 2774/2/6 2778/2/6
f 2776/2/6 2777/2/6 2779/2/6
f 2779/2/6 2777/2/6 2780/2/6
f 2781/2/6 2782/2/6 2785/2/6
f 2785/2/6 2782/2/6 2786/2/6
f 2783/2/6 2784/2/6 2787/2/6
f 2787/2/6 2784/2/6 2788/2/6
f 2789/2/6 2790/2/6 2793/2/6
f 2793/2/6 2790/2/6 2794/2/6
f 2791/2/6 2792/2/6 2795/2/6
f 2795/2/6 2792/2/6 2796/2/6
f 2797/2/6 2798/2/6 2799/2/6
f 2799/2/6 2798/2/6 2800/2/6
f 2801/2/6 2802/2/6 2805/2/6
f 2805/2/6 2802/2/6 2806/2/6
f 2803/2/6 2804/2/6 2807/2/6
f 2807/2/6 2804/2/6 2808/2/6
f 2809/2/6 2810/2/6 2811/2/6
f 2811/2/6 2810/2/6 2812/2/6
f 2813/2/6 2814/2/6 2815/2/6
f 2815/2/6 2814/2/6 2816/2/6
