# MagicaVoxel @ Ephtracy

# group
o 

# material
mtllib sofa.vox.mtl
usemtl palette

# normals
vn -1 0 0
vn 1 0 0
vn 0 0 1
vn 0 0 -1
vn 0 -1 0
vn 0 1 0

# texcoords
vt 0.0253906 0.5
vt 0.0566406 0.5

# verts
v -2 0.2 -0.4
v -2 0.2 -1.9
v -2 0.3 -0.4
v -2 0.3 -1.9
v -2 1.3 -0.4
v -2 1.3 -1.9
v -1.9 0.2 -0.3
v -1.9 0.2 -0.4
v -1.9 0.2 -1.9
v -1.9 0.2 -2
v -1.9 0.3 -0.3
v -1.9 0.3 -0.4
v -1.9 0.3 -1.9
v -1.9 0.3 -2
v -1.9 1.3 -0.3
v -1.9 1.3 -0.4
v -1.9 1.3 -1.9
v -1.9 1.3 -2
v -1.8 1.3 -1.7
v -1.8 1.3 -1.8
v -1.8 1.4 -1.7
v -1.8 1.4 -1.8
v -1.7 0 -0.5
v -1.7 0 -0.8
v -1.7 0 -1.5
v -1.7 0 -1.8
v -1.7 0.2 -0.5
v -1.7 0.2 -0.8
v -1.7 0.2 -1.5
v -1.7 0.2 -1.8
v -1.7 0.3 -0.3
v -1.7 0.3 -0.4
v -1.7 0.7 -0.3
v -1.7 0.7 -0.4
v -1.7 0.7 -1.4
v -1.7 0.7 -1.5
v -1.7 0.8 -1.4
v -1.7 0.8 -1.5
v -1.7 0.9 -1.7
v -1.7 0.9 -1.8
v -1.7 1.2 -1.7
v -1.7 1.2 -1.8
v -1.6 0.8 -1.4
v -1.6 0.8 -1.5
v -1.6 0.9 -1.4
v -1.6 0.9 -1.5
v -1.6 1.1 -1.6
v -1.6 1.1 -1.7
v -1.6 1.2 -1.6
v -1.6 1.2 -1.7
v -1.5 0.9 -1.5
v -1.5 0.9 -1.6
v -1.5 1 -1.5
v -1.5 1 -1.6
v -1.5 1.2 -1.6
v -1.5 1.2 -1.7
v -1.5 1.3 -1.6
v -1.5 1.3 -1.7
v -1.4 1 -1.5
v -1.4 1 -1.6
v -1.4 1.1 -1.5
v -1.4 1.1 -1.6
v -0.3 0.7 -1.2
v -0.3 0.7 -1.4
v -0.3 0.9 -1.2
v -0.3 0.9 -1.3
v -0.3 0.9 -1.4
v -0.3 0.9 -1.6
v -0.3 1 -1.3
v -0.3 1 -1.6
v -0.2 0.7 -1.1
v -0.2 0.7 -1.2
v -0.2 0.9 -1.1
v -0.2 0.9 -1.2
v -0.2 0.9 -1.3
v -0.2 1 -1.2
v -0.2 1 -1.3
v -0.2 1 -1.4
v -0.2 1 -1.6
v -0.2 1.1 -1.4
v -0.2 1.1 -1.6
v -0.0999999 1 -1.3
v -0.0999999 1 -1.4
v -0.0999999 1.1 -1.3
v -0.0999999 1.1 -1.4
v 0.1 0.3 -0.3
v 0.1 0.3 -0.4
v 0.1 0.6 -0.4
v 0.1 0.6 -1.1
v 0.1 0.6 -1.4
v 0.1 0.6 -1.8
v 0.1 0.7 -0.3
v 0.1 0.7 -1.1
v 0.1 0.7 -1.4
v 0.1 0.7 -1.5
v 0.1 0.7 -1.7
v 0.1 0.7 -1.8
v 0.1 0.8 -1.5
v 0.1 0.8 -1.7
v 0.1 1.2 -1.7
v 0.1 1.2 -1.8
v 0.1 1.3 -1.8
v 0.1 1.4 -1.7
v 0.1 1.4 -1.8
v 0.2 0.7 -1.4
v 0.2 0.7 -1.5
v 0.2 0.8 -1.4
v 0.2 0.8 -1.5
v 0.2 0.8 -1.7
v 0.2 0.9 -1.5
v 0.2 0.9 -1.7
v 0.2 1.1 -1.7
v 0.2 1.1 -1.8
v 0.2 1.2 -1.7
v 0.2 1.2 -1.8
v 0.3 0.8 -1.4
v 0.3 0.8 -1.5
v 0.3 0.9 -1.4
v 0.3 0.9 -1.5
v 0.3 1.1 -1.6
v 0.3 1.1 -1.7
v 0.3 1.2 -1.6
v 0.3 1.2 -1.7
v 0.4 0.9 -1.5
v 0.4 0.9 -1.6
v 0.4 1 -1.5
v 0.4 1 -1.6
v 0.4 1.2 -1.6
v 0.4 1.2 -1.7
v 0.4 1.3 -1.6
v 0.4 1.3 -1.7
v 0.5 1 -1.5
v 0.5 1 -1.6
v 0.5 1.1 -1.5
v 0.5 1.1 -1.6
v 1.4 0 -0.5
v 1.4 0 -0.8
v 1.4 0 -1.5
v 1.4 0 -1.8
v 1.4 0.2 -0.5
v 1.4 0.2 -0.8
v 1.4 0.2 -1.5
v 1.4 0.2 -1.8
v 1.8 0.3 -0.3
v 1.8 0.3 -0.4
v 1.8 0.7 -0.4
v 1.8 0.7 -1.5
v 1.8 0.7 -1.7
v 1.8 0.7 -1.8
v 1.8 0.8 -1.5
v 1.8 0.8 -1.7
v 1.8 1.2 -1.7
v 1.8 1.2 -1.8
v 1.8 1.3 -0.3
v 1.8 1.3 -1.7
v -1.8 0.3 -0.3
v -1.8 0.3 -0.4
v -1.8 0.7 -0.4
v -1.8 0.7 -1.5
v -1.8 0.7 -1.7
v -1.8 0.7 -1.8
v -1.8 1.2 -1.7
v -1.8 1.2 -1.8
v -1.8 1.3 -0.3
v -1.8 1.3 -1.5
v -1.7 0.9 -1.5
v -1.7 0.9 -1.6
v -1.7 1.1 -1.6
v -1.7 1.1 -1.7
v -1.7 1.3 -1.5
v -1.7 1.3 -1.7
v -1.4 0 -0.5
v -1.4 0 -0.8
v -1.4 0 -1.5
v -1.4 0 -1.8
v -1.4 0.2 -0.5
v -1.4 0.2 -0.8
v -1.4 0.2 -1.5
v -1.4 0.2 -1.8
v -0.5 1 -1.5
v -0.5 1 -1.6
v -0.5 1.1 -1.5
v -0.5 1.1 -1.6
v -0.4 0.9 -1.5
v -0.4 0.9 -1.6
v -0.4 1 -1.5
v -0.4 1 -1.6
v -0.4 1.2 -1.6
v -0.4 1.2 -1.7
v -0.4 1.3 -1.6
v -0.4 1.3 -1.7
v -0.3 0.8 -1.4
v -0.3 0.8 -1.5
v -0.3 0.9 -1.4
v -0.3 0.9 -1.5
v -0.3 1.1 -1.6
v -0.3 1.1 -1.7
v -0.3 1.2 -1.6
v -0.3 1.2 -1.7
v -0.2 0.7 -1.4
v -0.2 0.7 -1.5
v -0.2 0.8 -1.4
v -0.2 0.8 -1.5
v -0.2 0.8 -1.7
v -0.2 0.9 -1.5
v -0.2 0.9 -1.7
v -0.2 1.1 -1.7
v -0.2 1.1 -1.8
v -0.2 1.2 -1.7
v -0.2 1.2 -1.8
v -0.0999999 0.3 -0.3
v -0.0999999 0.3 -0.4
v -0.0999999 0.6 -0.4
v -0.0999999 0.6 -1.1
v -0.0999999 0.6 -1.4
v -0.0999999 0.6 -1.8
v -0.0999999 0.7 -0.3
v -0.0999999 0.7 -1.1
v -0.0999999 0.7 -1.4
v -0.0999999 0.7 -1.5
v -0.0999999 0.7 -1.7
v -0.0999999 0.7 -1.8
v -0.0999999 0.8 -1.5
v -0.0999999 0.8 -1.7
v -0.0999999 1.2 -1.7
v -0.0999999 1.2 -1.8
v -0.0999999 1.3 -1.8
v -0.0999999 1.4 -1.7
v -0.0999999 1.4 -1.8
v 0.1 1 -1.3
v 0.1 1 -1.4
v 0.1 1.1 -1.3
v 0.1 1.1 -1.4
v 0.2 0.7 -1.1
v 0.2 0.7 -1.2
v 0.2 0.9 -1.1
v 0.2 0.9 -1.2
v 0.2 0.9 -1.3
v 0.2 1 -1.2
v 0.2 1 -1.3
v 0.2 1 -1.4
v 0.2 1 -1.6
v 0.2 1.1 -1.4
v 0.2 1.1 -1.6
v 0.3 0.7 -1.2
v 0.3 0.7 -1.4
v 0.3 0.9 -1.2
v 0.3 0.9 -1.3
v 0.3 0.9 -1.4
v 0.3 0.9 -1.6
v 0.3 1 -1.3
v 0.3 1 -1.6
v 1.4 1 -1.5
v 1.4 1 -1.6
v 1.4 1.1 -1.5
v 1.4 1.1 -1.6
v 1.5 0.9 -1.5
v 1.5 0.9 -1.6
v 1.5 1 -1.5
v 1.5 1 -1.6
v 1.5 1.2 -1.6
v 1.5 1.2 -1.7
v 1.5 1.3 -1.6
v 1.5 1.3 -1.7
v 1.6 0.8 -1.4
v 1.6 0.8 -1.5
v 1.6 0.9 -1.4
v 1.6 0.9 -1.5
v 1.6 1.1 -1.6
v 1.6 1.1 -1.7
v 1.6 1.2 -1.6
v 1.6 1.2 -1.7
v 1.7 0 -0.5
v 1.7 0 -0.8
v 1.7 0 -1.5
v 1.7 0 -1.8
v 1.7 0.2 -0.5
v 1.7 0.2 -0.8
v 1.7 0.2 -1.5
v 1.7 0.2 -1.8
v 1.7 0.3 -0.3
v 1.7 0.3 -0.4
v 1.7 0.7 -0.3
v 1.7 0.7 -0.4
v 1.7 0.7 -1.4
v 1.7 0.7 -1.5
v 1.7 0.8 -1.4
v 1.7 0.8 -1.5
v 1.7 0.8 -1.7
v 1.7 0.9 -1.5
v 1.7 0.9 -1.6
v 1.7 0.9 -1.7
v 1.7 0.9 -1.8
v 1.7 1.1 -1.6
v 1.7 1.1 -1.7
v 1.7 1.2 -1.7
v 1.7 1.2 -1.8
v 1.8 1.3 -1.7
v 1.8 1.3 -1.8
v 1.8 1.4 -1.7
v 1.8 1.4 -1.8
v 1.9 0.2 -0.3
v 1.9 0.2 -0.4
v 1.9 0.2 -1.9
v 1.9 0.2 -2
v 1.9 0.3 -0.3
v 1.9 0.3 -0.4
v 1.9 0.3 -1.9
v 1.9 0.3 -2
v 1.9 1.3 -0.3
v 1.9 1.3 -0.4
v 1.9 1.3 -1.9
v 1.9 1.3 -2
v 2 0.2 -0.4
v 2 0.2 -1.9
v 2 0.3 -0.4
v 2 0.3 -1.9
v 2 1.3 -0.4
v 2 1.3 -1.9
v -1.9 0.2 -0.3
v -1.9 0.3 -0.3
v -1.9 1.3 -0.3
v -1.8 0.3 -0.3
v -1.8 1.3 -0.3
v -1.7 0.3 -0.3
v -1.7 0.7 -0.3
v -0.0999999 0.3 -0.3
v -0.0999999 0.7 -0.3
v 0.1 0.3 -0.3
v 0.1 0.7 -0.3
v 1.7 0.3 -0.3
v 1.7 0.7 -0.3
v 1.8 0.3 -0.3
v 1.8 1.3 -0.3
v 1.9 0.2 -0.3
v 1.9 0.3 -0.3
v 1.9 1.3 -0.3
v -2 0.2 -0.4
v -2 0.3 -0.4
v -2 1.3 -0.4
v -1.9 0.2 -0.4
v -1.9 0.3 -0.4
v -1.9 1.3 -0.4
v -1.8 0.3 -0.4
v -1.8 0.7 -0.4
v -1.7 0.3 -0.4
v -1.7 0.7 -0.4
v -0.0999999 0.3 -0.4
v -0.0999999 0.6 -0.4
v 0.1 0.3 -0.4
v 0.1 0.6 -0.4
v 1.7 0.3 -0.4
v 1.7 0.7 -0.4
v 1.8 0.3 -0.4
v 1.8 0.7 -0.4
v 1.9 0.2 -0.4
v 1.9 0.3 -0.4
v 1.9 1.3 -0.4
v 2 0.2 -0.4
v 2 0.3 -0.4
v 2 1.3 -0.4
v -1.7 0 -0.5
v -1.7 0.2 -0.5
v -1.4 0 -0.5
v -1.4 0.2 -0.5
v 1.4 0 -0.5
v 1.4 0.2 -0.5
v 1.7 0 -0.5
v 1.7 0.2 -0.5
v -0.2 0.7 -1.1
v -0.2 0.9 -1.1
v -0.0999999 0.6 -1.1
v -0.0999999 0.7 -1.1
v 0.1 0.6 -1.1
v 0.1 0.7 -1.1
v 0.2 0.7 -1.1
v 0.2 0.9 -1.1
v -0.3 0.7 -1.2
v -0.3 0.9 -1.2
v -0.2 0.7 -1.2
v -0.2 0.9 -1.2
v -0.2 1 -1.2
v 0.2 0.7 -1.2
v 0.2 0.9 -1.2
v 0.2 1 -1.2
v 0.3 0.7 -1.2
v 0.3 0.9 -1.2
v -0.3 0.9 -1.3
v -0.3 1 -1.3
v -0.2 0.9 -1.3
v -0.2 1 -1.3
v -0.0999999 1 -1.3
v -0.0999999 1.1 -1.3
v 0.1 1 -1.3
v 0.1 1.1 -1.3
v 0.2 0.9 -1.3
v 0.2 1 -1.3
v 0.3 0.9 -1.3
v 0.3 1 -1.3
v -1.7 0.7 -1.4
v -1.7 0.8 -1.4
v -1.6 0.8 -1.4
v -1.6 0.9 -1.4
v -0.3 0.7 -1.4
v -0.3 0.9 -1.4
v -0.2 1 -1.4
v -0.2 1.1 -1.4
v -0.0999999 1 -1.4
v -0.0999999 1.1 -1.4
v 0.1 1 -1.4
v 0.1 1.1 -1.4
v 0.2 1 -1.4
v 0.2 1.1 -1.4
v 0.3 0.7 -1.4
v 0.3 0.9 -1.4
v 1.6 0.8 -1.4
v 1.6 0.9 -1.4
v 1.7 0.7 -1.4
v 1.7 0.8 -1.4
v -1.8 0.7 -1.5
v -1.8 1.3 -1.5
v -1.7 0 -1.5
v -1.7 0.2 -1.5
v -1.7 0.7 -1.5
v -1.7 0.8 -1.5
v -1.7 0.9 -1.5
v -1.7 1.3 -1.5
v -1.6 0.8 -1.5
v -1.6 0.9 -1.5
v -1.5 0.9 -1.5
v -1.5 1 -1.5
v -1.4 0 -1.5
v -1.4 0.2 -1.5
v -1.4 1 -1.5
v -1.4 1.1 -1.5
v -0.5 1 -1.5
v -0.5 1.1 -1.5
v -0.4 0.9 -1.5
v -0.4 1 -1.5
v -0.3 0.8 -1.5
v -0.3 0.9 -1.5
v -0.2 0.7 -1.5
v -0.2 0.8 -1.5
v -0.2 0.9 -1.5
v -0.0999999 0.7 -1.5
v -0.0999999 0.8 -1.5
v 0.1 0.7 -1.5
v 0.1 0.8 -1.5
v 0.2 0.7 -1.5
v 0.2 0.8 -1.5
v 0.2 0.9 -1.5
v 0.3 0.8 -1.5
v 0.3 0.9 -1.5
v 0.4 0.9 -1.5
v 0.4 1 -1.5
v 0.5 1 -1.5
v 0.5 1.1 -1.5
v 1.4 0 -1.5
v 1.4 0.2 -1.5
v 1.4 1 -1.5
v 1.4 1.1 -1.5
v 1.5 0.9 -1.5
v 1.5 1 -1.5
v 1.6 0.8 -1.5
v 1.6 0.9 -1.5
v 1.7 0 -1.5
v 1.7 0.2 -1.5
v 1.7 0.7 -1.5
v 1.7 0.8 -1.5
v 1.7 0.9 -1.5
v 1.8 0.7 -1.5
v 1.8 0.8 -1.5
v -1.7 0.9 -1.6
v -1.7 1.1 -1.6
v -1.6 1.1 -1.6
v -1.6 1.2 -1.6
v -1.5 0.9 -1.6
v -1.5 1 -1.6
v -1.5 1.2 -1.6
v -1.5 1.3 -1.6
v -1.4 1 -1.6
v -1.4 1.1 -1.6
v -0.5 1 -1.6
v -0.5 1.1 -1.6
v -0.4 0.9 -1.6
v -0.4 1 -1.6
v -0.4 1.2 -1.6
v -0.4 1.3 -1.6
v -0.3 0.9 -1.6
v -0.3 1 -1.6
v -0.3 1.1 -1.6
v -0.3 1.2 -1.6
v -0.2 1 -1.6
v -0.2 1.1 -1.6
v 0.2 1 -1.6
v 0.2 1.1 -1.6
v 0.3 0.9 -1.6
v 0.3 1 -1.6
v 0.3 1.1 -1.6
v 0.3 1.2 -1.6
v 0.4 0.9 -1.6
v 0.4 1 -1.6
v 0.4 1.2 -1.6
v 0.4 1.3 -1.6
v 0.5 1 -1.6
v 0.5 1.1 -1.6
v 1.4 1 -1.6
v 1.4 1.1 -1.6
v 1.5 0.9 -1.6
v 1.5 1 -1.6
v 1.5 1.2 -1.6
v 1.5 1.3 -1.6
v 1.6 1.1 -1.6
v 1.6 1.2 -1.6
v 1.7 0.9 -1.6
v 1.7 1.1 -1.6
v -1.8 1.3 -1.7
v -1.8 1.4 -1.7
v -1.7 1.1 -1.7
v -1.7 1.3 -1.7
v -1.6 1.1 -1.7
v -1.6 1.2 -1.7
v -1.5 1.2 -1.7
v -1.5 1.3 -1.7
v -0.4 1.2 -1.7
v -0.4 1.3 -1.7
v -0.3 1.1 -1.7
v -0.3 1.2 -1.7
v -0.2 1.1 -1.7
v -0.2 1.2 -1.7
v -0.0999999 1.2 -1.7
v -0.0999999 1.4 -1.7
v 0.1 1.2 -1.7
v 0.1 1.4 -1.7
v 0.2 1.1 -1.7
v 0.2 1.2 -1.7
v 0.3 1.1 -1.7
v 0.3 1.2 -1.7
v 0.4 1.2 -1.7
v 0.4 1.3 -1.7
v 1.5 1.2 -1.7
v 1.5 1.3 -1.7
v 1.6 1.1 -1.7
v 1.6 1.2 -1.7
v 1.7 1.1 -1.7
v 1.7 1.2 -1.7
v 1.8 1.2 -1.7
v 1.8 1.3 -1.7
v 1.8 1.4 -1.7
v -1.8 0.7 -1.8
v -1.8 1.2 -1.8
v -1.7 0.9 -1.8
v -1.7 1.2 -1.8
v -0.2 1.1 -1.8
v -0.2 1.2 -1.8
v -0.0999999 0.6 -1.8
v -0.0999999 0.7 -1.8
v -0.0999999 1.2 -1.8
v -0.0999999 1.3 -1.8
v 0.1 0.6 -1.8
v 0.1 0.7 -1.8
v 0.1 1.2 -1.8
v 0.1 1.3 -1.8
v 0.2 1.1 -1.8
v 0.2 1.2 -1.8
v 1.7 0.9 -1.8
v 1.7 1.2 -1.8
v 1.8 0.7 -1.8
v 1.8 1.2 -1.8
v -1.7 0 -0.8
v -1.7 0.2 -0.8
v -1.4 0 -0.8
v -1.4 0.2 -0.8
v 1.4 0 -0.8
v 1.4 0.2 -0.8
v 1.7 0 -0.8
v 1.7 0.2 -0.8
v -0.3 0.8 -1.4
v -0.3 0.9 -1.4
v -0.2 0.7 -1.4
v -0.2 0.8 -1.4
v -0.0999999 0.6 -1.4
v -0.0999999 0.7 -1.4
v 0.1 0.6 -1.4
v 0.1 0.7 -1.4
v 0.2 0.7 -1.4
v 0.2 0.8 -1.4
v 0.3 0.8 -1.4
v 0.3 0.9 -1.4
v -1.8 0.7 -1.7
v -1.8 1.2 -1.7
v -1.7 0.9 -1.7
v -1.7 1.2 -1.7
v -0.2 0.8 -1.7
v -0.2 0.9 -1.7
v -0.0999999 0.7 -1.7
v -0.0999999 0.8 -1.7
v 0.1 0.7 -1.7
v 0.1 0.8 -1.7
v 0.2 0.8 -1.7
v 0.2 0.9 -1.7
v 1.7 0.8 -1.7
v 1.7 0.9 -1.7
v 1.8 0.7 -1.7
v 1.8 0.8 -1.7
v -1.8 1.3 -1.8
v -1.8 1.4 -1.8
v -1.7 0 -1.8
v -1.7 0.2 -1.8
v -1.4 0 -1.8
v -1.4 0.2 -1.8
v -0.0999999 1.3 -1.8
v -0.0999999 1.4 -1.8
v 0.1 1.3 -1.8
v 0.1 1.4 -1.8
v 1.4 0 -1.8
v 1.4 0.2 -1.8
v 1.7 0 -1.8
v 1.7 0.2 -1.8
v 1.8 1.3 -1.8
v 1.8 1.4 -1.8
v -2 0.2 -1.9
v -2 0.3 -1.9
v -2 1.3 -1.9
v -1.9 0.2 -1.9
v -1.9 0.3 -1.9
v -1.9 1.3 -1.9
v 1.9 0.2 -1.9
v 1.9 0.3 -1.9
v 1.9 1.3 -1.9
v 2 0.2 -1.9
v 2 0.3 -1.9
v 2 1.3 -1.9
v -1.9 0.2 -2
v -1.9 0.3 -2
v -1.9 1.3 -2
v 1.9 0.2 -2
v 1.9 0.3 -2
v 1.9 1.3 -2
v -1.7 0 -0.5
v -1.4 0 -0.5
v 1.4 0 -0.5
v 1.7 0 -0.5
v -1.7 0 -0.8
v -1.4 0 -0.8
v 1.4 0 -0.8
v 1.7 0 -0.8
v -1.7 0 -1.5
v -1.4 0 -1.5
v 1.4 0 -1.5
v 1.7 0 -1.5
v -1.7 0 -1.8
v -1.4 0 -1.8
v 1.4 0 -1.8
v 1.7 0 -1.8
v -1.9 0.2 -0.3
v 1.9 0.2 -0.3
v -2 0.2 -0.4
v -1.9 0.2 -0.4
v 1.9 0.2 -0.4
v 2 0.2 -0.4
v -1.7 0.2 -0.5
v -1.4 0.2 -0.5
v 1.4 0.2 -0.5
v 1.7 0.2 -0.5
v -1.7 0.2 -0.8
v -1.4 0.2 -0.8
v 1.4 0.2 -0.8
v 1.7 0.2 -0.8
v -1.7 0.2 -1.5
v -1.4 0.2 -1.5
v 1.4 0.2 -1.5
v 1.7 0.2 -1.5
v -1.7 0.2 -1.8
v -1.4 0.2 -1.8
v 1.4 0.2 -1.8
v 1.7 0.2 -1.8
v -2 0.2 -1.9
v -1.9 0.2 -1.9
v 1.9 0.2 -1.9
v 2 0.2 -1.9
v -1.9 0.2 -2
v 1.9 0.2 -2
v -0.3 0.9 -1.4
v 0.3 0.9 -1.4
v -0.3 0.9 -1.5
v -0.2 0.9 -1.5
v 0.2 0.9 -1.5
v 0.3 0.9 -1.5
v -1.7 0.9 -1.7
v -0.2 0.9 -1.7
v 0.2 0.9 -1.7
v 1.7 0.9 -1.7
v -1.7 0.9 -1.8
v 1.7 0.9 -1.8
v -1.8 1.2 -1.7
v -1.7 1.2 -1.7
v -0.2 1.2 -1.7
v -0.0999999 1.2 -1.7
v 0.1 1.2 -1.7
v 0.2 1.2 -1.7
v 1.7 1.2 -1.7
v 1.8 1.2 -1.7
v -1.8 1.2 -1.8
v -1.7 1.2 -1.8
v -0.2 1.2 -1.8
v -0.0999999 1.2 -1.8
v 0.1 1.2 -1.8
v 0.2 1.2 -1.8
v 1.7 1.2 -1.8
v 1.8 1.2 -1.8
v -1.8 0.3 -0.3
v -1.7 0.3 -0.3
v -0.0999999 0.3 -0.3
v 0.1 0.3 -0.3
v 1.7 0.3 -0.3
v 1.8 0.3 -0.3
v -1.8 0.3 -0.4
v -1.7 0.3 -0.4
v -0.0999999 0.3 -0.4
v 0.1 0.3 -0.4
v 1.7 0.3 -0.4
v 1.8 0.3 -0.4
v -0.0999999 0.6 -0.4
v 0.1 0.6 -0.4
v -0.0999999 0.6 -1.1
v 0.1 0.6 -1.1
v -0.0999999 0.6 -1.4
v 0.1 0.6 -1.4
v -0.0999999 0.6 -1.8
v 0.1 0.6 -1.8
v -1.7 0.7 -0.3
v -0.0999999 0.7 -0.3
v 0.1 0.7 -0.3
v 1.7 0.7 -0.3
v -1.8 0.7 -0.4
v -1.7 0.7 -0.4
v 1.7 0.7 -0.4
v 1.8 0.7 -0.4
v -0.2 0.7 -1.1
v -0.0999999 0.7 -1.1
v 0.1 0.7 -1.1
v 0.2 0.7 -1.1
v -0.3 0.7 -1.2
v -0.2 0.7 -1.2
v 0.2 0.7 -1.2
v 0.3 0.7 -1.2
v -1.7 0.7 -1.4
v -0.3 0.7 -1.4
v -0.2 0.7 -1.4
v -0.0999999 0.7 -1.4
v 0.1 0.7 -1.4
v 0.2 0.7 -1.4
v 0.3 0.7 -1.4
v 1.7 0.7 -1.4
v -1.8 0.7 -1.5
v -1.7 0.7 -1.5
v -0.2 0.7 -1.5
v -0.0999999 0.7 -1.5
v 0.1 0.7 -1.5
v 0.2 0.7 -1.5
v 1.7 0.7 -1.5
v 1.8 0.7 -1.5
v -1.8 0.7 -1.7
v -0.0999999 0.7 -1.7
v 0.1 0.7 -1.7
v 1.8 0.7 -1.7
v -1.8 0.7 -1.8
v -0.0999999 0.7 -1.8
v 0.1 0.7 -1.8
v 1.8 0.7 -1.8
v -1.7 0.8 -1.4
v -1.6 0.8 -1.4
v -0.3 0.8 -1.4
v -0.2 0.8 -1.4
v 0.2 0.8 -1.4
v 0.3 0.8 -1.4
v 1.6 0.8 -1.4
v 1.7 0.8 -1.4
v -1.7 0.8 -1.5
v -1.6 0.8 -1.5
v -0.3 0.8 -1.5
v -0.2 0.8 -1.5
v -0.0999999 0.8 -1.5
v 0.1 0.8 -1.5
v 0.2 0.8 -1.5
v 0.3 0.8 -1.5
v 1.6 0.8 -1.5
v 1.7 0.8 -1.5
v 1.8 0.8 -1.5
v -0.2 0.8 -1.7
v -0.0999999 0.8 -1.7
v 0.1 0.8 -1.7
v 0.2 0.8 -1.7
v 1.7 0.8 -1.7
v 1.8 0.8 -1.7
v -0.2 0.9 -1.1
v 0.2 0.9 -1.1
v -0.3 0.9 -1.2
v -0.2 0.9 -1.2
v 0.2 0.9 -1.2
v 0.3 0.9 -1.2
v -0.3 0.9 -1.3
v -0.2 0.9 -1.3
v 0.2 0.9 -1.3
v 0.3 0.9 -1.3
v -1.6 0.9 -1.4
v -0.3 0.9 -1.4
v 0.3 0.9 -1.4
v 1.6 0.9 -1.4
v -1.7 0.9 -1.5
v -1.6 0.9 -1.5
v -1.5 0.9 -1.5
v -0.4 0.9 -1.5
v 0.4 0.9 -1.5
v 1.5 0.9 -1.5
v 1.6 0.9 -1.5
v 1.7 0.9 -1.5
v -1.7 0.9 -1.6
v -1.5 0.9 -1.6
v -0.4 0.9 -1.6
v -0.3 0.9 -1.6
v 0.3 0.9 -1.6
v 0.4 0.9 -1.6
v 1.5 0.9 -1.6
v 1.7 0.9 -1.6
v -0.2 1 -1.2
v 0.2 1 -1.2
v -0.3 1 -1.3
v -0.2 1 -1.3
v -0.0999999 1 -1.3
v 0.1 1 -1.3
v 0.2 1 -1.3
v 0.3 1 -1.3
v -0.2 1 -1.4
v -0.0999999 1 -1.4
v 0.1 1 -1.4
v 0.2 1 -1.4
v -1.5 1 -1.5
v -1.4 1 -1.5
v -0.5 1 -1.5
v -0.4 1 -1.5
v 0.4 1 -1.5
v 0.5 1 -1.5
v 1.4 1 -1.5
v 1.5 1 -1.5
v -1.5 1 -1.6
v -1.4 1 -1.6
v -0.5 1 -1.6
v -0.4 1 -1.6
v -0.3 1 -1.6
v -0.2 1 -1.6
v 0.2 1 -1.6
v 0.3 1 -1.6
v 0.4 1 -1.6
v 0.5 1 -1.6
v 1.4 1 -1.6
v 1.5 1 -1.6
v -0.0999999 1.1 -1.3
v 0.1 1.1 -1.3
v -0.2 1.1 -1.4
v -0.0999999 1.1 -1.4
v 0.1 1.1 -1.4
v 0.2 1.1 -1.4
v -1.4 1.1 -1.5
v -0.5 1.1 -1.5
v 0.5 1.1 -1.5
v 1.4 1.1 -1.5
v -1.7 1.1 -1.6
v -1.6 1.1 -1.6
v -1.4 1.1 -1.6
v -0.5 1.1 -1.6
v -0.3 1.1 -1.6
v -0.2 1.1 -1.6
v 0.2 1.1 -1.6
v 0.3 1.1 -1.6
v 0.5 1.1 -1.6
v 1.4 1.1 -1.6
v 1.6 1.1 -1.6
v 1.7 1.1 -1.6
v -1.7 1.1 -1.7
v -1.6 1.1 -1.7
v -0.3 1.1 -1.7
v -0.2 1.1 -1.7
v 0.2 1.1 -1.7
v 0.3 1.1 -1.7
v 1.6 1.1 -1.7
v 1.7 1.1 -1.7
v -0.2 1.1 -1.8
v 0.2 1.1 -1.8
v -1.6 1.2 -1.6
v -1.5 1.2 -1.6
v -0.4 1.2 -1.6
v -0.3 1.2 -1.6
v 0.3 1.2 -1.6
v 0.4 1.2 -1.6
v 1.5 1.2 -1.6
v 1.6 1.2 -1.6
v -1.6 1.2 -1.7
v -1.5 1.2 -1.7
v -0.4 1.2 -1.7
v -0.3 1.2 -1.7
v 0.3 1.2 -1.7
v 0.4 1.2 -1.7
v 1.5 1.2 -1.7
v 1.6 1.2 -1.7
v -1.9 1.3 -0.3
v -1.8 1.3 -0.3
v 1.8 1.3 -0.3
v 1.9 1.3 -0.3
v -2 1.3 -0.4
v -1.9 1.3 -0.4
v 1.9 1.3 -0.4
v 2 1.3 -0.4
v -1.8 1.3 -1.5
v -1.7 1.3 -1.5
v -1.5 1.3 -1.6
v -0.4 1.3 -1.6
v 0.4 1.3 -1.6
v 1.5 1.3 -1.6
v -1.8 1.3 -1.7
v -1.7 1.3 -1.7
v -1.5 1.3 -1.7
v -0.4 1.3 -1.7
v 0.4 1.3 -1.7
v 1.5 1.3 -1.7
v 1.8 1.3 -1.7
v -1.8 1.3 -1.8
v -0.0999999 1.3 -1.8
v 0.1 1.3 -1.8
v 1.8 1.3 -1.8
v -2 1.3 -1.9
v -1.9 1.3 -1.9
v 1.9 1.3 -1.9
v 2 1.3 -1.9
v -1.9 1.3 -2
v 1.9 1.3 -2
v -1.8 1.4 -1.7
v -0.0999999 1.4 -1.7
v 0.1 1.4 -1.7
v 1.8 1.4 -1.7
v -1.8 1.4 -1.8
v -0.0999999 1.4 -1.8
v 0.1 1.4 -1.8
v 1.8 1.4 -1.8

# faces
f 3/2/1 2/2/1 1/2/1
f 4/2/1 2/2/1 3/2/1
f 5/1/1 4/1/1 3/1/1
f 6/1/1 4/1/1 5/1/1
f 11/2/1 8/2/1 7/2/1
f 12/2/1 8/2/1 11/2/1
f 13/2/1 10/2/1 9/2/1
f 14/2/1 10/2/1 13/2/1
f 15/1/1 12/1/1 11/1/1
f 16/1/1 12/1/1 15/1/1
f 17/1/1 14/1/1 13/1/1
f 18/1/1 14/1/1 17/1/1
f 21/1/1 20/1/1 19/1/1
f 22/1/1 20/1/1 21/1/1
f 27/2/1 24/2/1 23/2/1
f 28/2/1 24/2/1 27/2/1
f 29/2/1 26/2/1 25/2/1
f 30/2/1 26/2/1 29/2/1
f 33/1/1 32/1/1 31/1/1
f 34/1/1 32/1/1 33/1/1
f 37/1/1 36/1/1 35/1/1
f 38/1/1 36/1/1 37/1/1
f 41/1/1 40/1/1 39/1/1
f 42/1/1 40/1/1 41/1/1
f 45/1/1 44/1/1 43/1/1
f 46/1/1 44/1/1 45/1/1
f 49/1/1 48/1/1 47/1/1
f 50/1/1 48/1/1 49/1/1
f 53/1/1 52/1/1 51/1/1
f 54/1/1 52/1/1 53/1/1
f 57/1/1 56/1/1 55/1/1
f 58/1/1 56/1/1 57/1/1
f 61/1/1 60/1/1 59/1/1
f 62/1/1 60/1/1 61/1/1
f 65/1/1 64/1/1 63/1/1
f 66/1/1 64/1/1 65/1/1
f 67/1/1 64/1/1 66/1/1
f 69/1/1 68/1/1 67/1/1
f 69/1/1 67/1/1 66/1/1
f 70/1/1 68/1/1 69/1/1
f 73/1/1 72/1/1 71/1/1
f 74/1/1 72/1/1 73/1/1
f 76/1/1 75/1/1 74/1/1
f 77/1/1 75/1/1 76/1/1
f 80/1/1 79/1/1 78/1/1
f 81/1/1 79/1/1 80/1/1
f 84/1/1 83/1/1 82/1/1
f 85/1/1 83/1/1 84/1/1
f 88/1/1 87/1/1 86/1/1
f 92/1/1 88/1/1 86/1/1
f 92/1/1 89/1/1 88/1/1
f 93/1/1 89/1/1 92/1/1
f 94/1/1 91/1/1 90/1/1
f 95/1/1 91/1/1 94/1/1
f 96/1/1 91/1/1 95/1/1
f 97/1/1 91/1/1 96/1/1
f 98/1/1 96/1/1 95/1/1
f 99/1/1 96/1/1 98/1/1
f 102/1/1 101/1/1 100/1/1
f 103/1/1 102/1/1 100/1/1
f 104/1/1 102/1/1 103/1/1
f 107/1/1 106/1/1 105/1/1
f 108/1/1 106/1/1 107/1/1
f 110/1/1 109/1/1 108/1/1
f 111/1/1 109/1/1 110/1/1
f 114/1/1 113/1/1 112/1/1
f 115/1/1 113/1/1 114/1/1
f 118/1/1 117/1/1 116/1/1
f 119/1/1 117/1/1 118/1/1
f 122/1/1 121/1/1 120/1/1
f 123/1/1 121/1/1 122/1/1
f 126/1/1 125/1/1 124/1/1
f 127/1/1 125/1/1 126/1/1
f 130/1/1 129/1/1 128/1/1
f 131/1/1 129/1/1 130/1/1
f 134/1/1 133/1/1 132/1/1
f 135/1/1 133/1/1 134/1/1
f 140/2/1 137/2/1 136/2/1
f 141/2/1 137/2/1 140/2/1
f 142/2/1 139/2/1 138/2/1
f 143/2/1 139/2/1 142/2/1
f 146/1/1 145/1/1 144/1/1
f 150/1/1 147/1/1 146/1/1
f 151/1/1 149/1/1 148/1/1
f 152/1/1 149/1/1 151/1/1
f 152/1/1 151/1/1 150/1/1
f 153/1/1 149/1/1 152/1/1
f 154/1/1 146/1/1 144/1/1
f 154/1/1 150/1/1 146/1/1
f 154/1/1 152/1/1 150/1/1
f 155/1/1 152/1/1 154/1/1
f 156/1/2 157/1/2 158/1/2
f 160/1/2 161/1/2 162/1/2
f 162/1/2 161/1/2 163/1/2
f 156/1/2 158/1/2 164/1/2
f 158/1/2 159/1/2 164/1/2
f 164/1/2 159/1/2 165/1/2
f 166/1/2 167/1/2 168/1/2
f 166/1/2 168/1/2 170/1/2
f 168/1/2 169/1/2 170/1/2
f 170/1/2 169/1/2 171/1/2
f 172/2/2 173/2/2 176/2/2
f 176/2/2 173/2/2 177/2/2
f 174/2/2 175/2/2 178/2/2
f 178/2/2 175/2/2 179/2/2
f 180/1/2 181/1/2 182/1/2
f 182/1/2 181/1/2 183/1/2
f 184/1/2 185/1/2 186/1/2
f 186/1/2 185/1/2 187/1/2
f 188/1/2 189/1/2 190/1/2
f 190/1/2 189/1/2 191/1/2
f 192/1/2 193/1/2 194/1/2
f 194/1/2 193/1/2 195/1/2
f 196/1/2 197/1/2 198/1/2
f 198/1/2 197/1/2 199/1/2
f 200/1/2 201/1/2 202/1/2
f 202/1/2 201/1/2 203/1/2
f 203/1/2 204/1/2 205/1/2
f 205/1/2 204/1/2 206/1/2
f 207/1/2 208/1/2 209/1/2
f 209/1/2 208/1/2 210/1/2
f 211/1/2 212/1/2 213/1/2
f 211/1/2 213/1/2 217/1/2
f 213/1/2 214/1/2 217/1/2
f 217/1/2 214/1/2 218/1/2
f 215/1/2 216/1/2 219/1/2
f 219/1/2 216/1/2 220/1/2
f 220/1/2 216/1/2 221/1/2
f 221/1/2 216/1/2 222/1/2
f 220/1/2 221/1/2 223/1/2
f 223/1/2 221/1/2 224/1/2
f 225/1/2 226/1/2 227/1/2
f 225/1/2 227/1/2 228/1/2
f 228/1/2 227/1/2 229/1/2
f 230/1/2 231/1/2 232/1/2
f 232/1/2 231/1/2 233/1/2
f 234/1/2 235/1/2 236/1/2
f 236/1/2 235/1/2 237/1/2
f 237/1/2 238/1/2 239/1/2
f 239/1/2 238/1/2 240/1/2
f 241/1/2 242/1/2 243/1/2
f 243/1/2 242/1/2 244/1/2
f 245/1/2 246/1/2 247/1/2
f 247/1/2 246/1/2 248/1/2
f 248/1/2 246/1/2 249/1/2
f 249/1/2 250/1/2 251/1/2
f 248/1/2 249/1/2 251/1/2
f 251/1/2 250/1/2 252/1/2
f 253/1/2 254/1/2 255/1/2
f 255/1/2 254/1/2 256/1/2
f 257/1/2 258/1/2 259/1/2
f 259/1/2 258/1/2 260/1/2
f 261/1/2 262/1/2 263/1/2
f 263/1/2 262/1/2 264/1/2
f 265/1/2 266/1/2 267/1/2
f 267/1/2 266/1/2 268/1/2
f 269/1/2 270/1/2 271/1/2
f 271/1/2 270/1/2 272/1/2
f 273/2/2 274/2/2 277/2/2
f 277/2/2 274/2/2 278/2/2
f 275/2/2 276/2/2 279/2/2
f 279/2/2 276/2/2 280/2/2
f 281/1/2 282/1/2 283/1/2
f 283/1/2 282/1/2 284/1/2
f 285/1/2 286/1/2 287/1/2
f 287/1/2 286/1/2 288/1/2
f 288/1/2 289/1/2 290/1/2
f 290/1/2 289/1/2 291/1/2
f 291/1/2 289/1/2 292/1/2
f 292/1/2 293/1/2 294/1/2
f 291/1/2 292/1/2 294/1/2
f 294/1/2 293/1/2 295/1/2
f 295/1/2 293/1/2 296/1/2
f 296/1/2 293/1/2 297/1/2
f 298/1/2 299/1/2 300/1/2
f 300/1/2 299/1/2 301/1/2
f 302/2/2 303/2/2 306/2/2
f 306/2/2 303/2/2 307/2/2
f 304/2/2 305/2/2 308/2/2
f 308/2/2 305/2/2 309/2/2
f 306/1/2 307/1/2 310/1/2
f 310/1/2 307/1/2 311/1/2
f 308/1/2 309/1/2 312/1/2
f 312/1/2 309/1/2 313/1/2
f 314/2/2 315/2/2 316/2/2
f 316/2/2 315/2/2 317/2/2
f 316/1/2 317/1/2 318/1/2
f 318/1/2 317/1/2 319/1/2
f 323/2/3 321/2/3 320/2/3
f 323/1/3 322/1/3 321/1/3
f 324/1/3 322/1/3 323/1/3
f 325/2/3 323/2/3 320/2/3
f 327/2/3 325/2/3 320/2/3
f 327/1/3 326/1/3 325/1/3
f 328/1/3 326/1/3 327/1/3
f 329/2/3 327/2/3 320/2/3
f 331/2/3 329/2/3 320/2/3
f 331/1/3 330/1/3 329/1/3
f 332/1/3 330/1/3 331/1/3
f 333/2/3 331/2/3 320/2/3
f 335/2/3 333/2/3 320/2/3
f 336/1/3 334/1/3 333/1/3
f 336/2/3 333/2/3 335/2/3
f 337/1/3 334/1/3 336/1/3
f 341/2/3 339/2/3 338/2/3
f 342/1/3 340/1/3 339/1/3
f 342/2/3 339/2/3 341/2/3
f 343/1/3 340/1/3 342/1/3
f 346/1/3 345/1/3 344/1/3
f 347/1/3 345/1/3 346/1/3
f 350/1/3 349/1/3 348/1/3
f 351/1/3 349/1/3 350/1/3
f 354/1/3 353/1/3 352/1/3
f 355/1/3 353/1/3 354/1/3
f 359/2/3 357/2/3 356/2/3
f 360/1/3 358/1/3 357/1/3
f 360/2/3 357/2/3 359/2/3
f 361/1/3 358/1/3 360/1/3
f 364/2/3 363/2/3 362/2/3
f 365/2/3 363/2/3 364/2/3
f 368/2/3 367/2/3 366/2/3
f 369/2/3 367/2/3 368/2/3
f 373/1/3 371/1/3 370/1/3
f 374/1/3 373/1/3 372/1/3
f 375/1/3 371/1/3 373/1/3
f 375/1/3 373/1/3 374/1/3
f 376/1/3 371/1/3 375/1/3
f 377/1/3 371/1/3 376/1/3
f 380/1/3 379/1/3 378/1/3
f 381/1/3 379/1/3 380/1/3
f 384/1/3 382/1/3 381/1/3
f 385/1/3 382/1/3 384/1/3
f 386/1/3 384/1/3 383/1/3
f 387/1/3 384/1/3 386/1/3
f 390/1/3 389/1/3 388/1/3
f 391/1/3 389/1/3 390/1/3
f 394/1/3 393/1/3 392/1/3
f 395/1/3 393/1/3 394/1/3
f 398/1/3 397/1/3 396/1/3
f 399/1/3 397/1/3 398/1/3
f 402/1/3 401/1/3 400/1/3
f 404/1/3 402/1/3 400/1/3
f 404/1/3 403/1/3 402/1/3
f 405/1/3 403/1/3 404/1/3
f 408/1/3 407/1/3 406/1/3
f 409/1/3 407/1/3 408/1/3
f 412/1/3 411/1/3 410/1/3
f 413/1/3 411/1/3 412/1/3
f 416/1/3 415/1/3 414/1/3
f 417/1/3 415/1/3 416/1/3
f 418/1/3 416/1/3 414/1/3
f 419/1/3 416/1/3 418/1/3
f 424/1/3 421/1/3 420/1/3
f 425/1/3 421/1/3 424/1/3
f 426/1/3 421/1/3 425/1/3
f 427/1/3 421/1/3 426/1/3
f 428/1/3 426/1/3 425/1/3
f 429/1/3 426/1/3 428/1/3
f 432/2/3 423/2/3 422/2/3
f 433/2/3 423/2/3 432/2/3
f 434/1/3 431/1/3 430/1/3
f 436/1/3 435/1/3 434/1/3
f 436/1/3 434/1/3 430/1/3
f 437/1/3 435/1/3 436/1/3
f 438/1/3 436/1/3 430/1/3
f 439/1/3 436/1/3 438/1/3
f 443/1/3 441/1/3 440/1/3
f 444/1/3 441/1/3 443/1/3
f 445/1/3 443/1/3 442/1/3
f 446/1/3 443/1/3 445/1/3
f 449/1/3 448/1/3 447/1/3
f 450/1/3 448/1/3 449/1/3
f 452/1/3 451/1/3 450/1/3
f 453/1/3 451/1/3 452/1/3
f 456/1/3 455/1/3 454/1/3
f 460/1/3 456/1/3 454/1/3
f 460/1/3 457/1/3 456/1/3
f 461/1/3 457/1/3 460/1/3
f 462/1/3 460/1/3 454/1/3
f 463/1/3 460/1/3 462/1/3
f 466/2/3 459/2/3 458/2/3
f 467/2/3 459/2/3 466/2/3
f 469/1/3 465/1/3 464/1/3
f 470/1/3 465/1/3 469/1/3
f 471/1/3 469/1/3 468/1/3
f 472/1/3 469/1/3 471/1/3
f 475/1/3 474/1/3 473/1/3
f 477/1/3 475/1/3 473/1/3
f 477/1/3 476/1/3 475/1/3
f 478/1/3 476/1/3 477/1/3
f 479/1/3 476/1/3 478/1/3
f 481/1/3 480/1/3 479/1/3
f 481/1/3 479/1/3 478/1/3
f 482/1/3 480/1/3 481/1/3
f 484/1/3 480/1/3 482/1/3
f 486/1/3 484/1/3 483/1/3
f 487/1/3 480/1/3 484/1/3
f 487/1/3 484/1/3 486/1/3
f 488/1/3 480/1/3 487/1/3
f 489/1/3 486/1/3 485/1/3
f 489/1/3 487/1/3 486/1/3
f 490/1/3 487/1/3 489/1/3
f 491/1/3 487/1/3 490/1/3
f 492/1/3 487/1/3 491/1/3
f 493/1/3 491/1/3 490/1/3
f 494/1/3 491/1/3 493/1/3
f 498/1/3 496/1/3 495/1/3
f 499/1/3 496/1/3 498/1/3
f 501/1/3 499/1/3 498/1/3
f 501/1/3 500/1/3 499/1/3
f 501/1/3 498/1/3 497/1/3
f 502/1/3 500/1/3 501/1/3
f 503/1/3 500/1/3 502/1/3
f 505/1/3 503/1/3 502/1/3
f 505/1/3 504/1/3 503/1/3
f 506/1/3 504/1/3 505/1/3
f 508/1/3 504/1/3 506/1/3
f 510/1/3 508/1/3 507/1/3
f 511/1/3 504/1/3 508/1/3
f 511/1/3 508/1/3 510/1/3
f 512/1/3 504/1/3 511/1/3
f 513/1/3 510/1/3 509/1/3
f 513/1/3 511/1/3 510/1/3
f 514/1/3 511/1/3 513/1/3
f 515/1/3 513/1/3 509/1/3
f 516/1/3 513/1/3 515/1/3
f 520/1/3 518/1/3 517/1/3
f 521/1/3 520/1/3 519/1/3
f 522/1/3 520/1/3 521/1/3
f 523/1/3 520/1/3 522/1/3
f 524/1/3 518/1/3 520/1/3
f 524/1/3 520/1/3 523/1/3
f 526/1/3 518/1/3 524/1/3
f 528/1/3 526/1/3 525/1/3
f 529/1/3 528/1/3 527/1/3
f 530/1/3 526/1/3 528/1/3
f 530/1/3 528/1/3 529/1/3
f 531/1/3 526/1/3 530/1/3
f 532/1/3 518/1/3 526/1/3
f 532/1/3 526/1/3 531/1/3
f 536/1/3 534/1/3 533/1/3
f 537/1/3 536/1/3 535/1/3
f 538/1/3 534/1/3 536/1/3
f 538/1/3 536/1/3 537/1/3
f 539/1/3 534/1/3 538/1/3
f 540/1/3 534/1/3 539/1/3
f 542/1/3 534/1/3 540/1/3
f 544/1/3 542/1/3 541/1/3
f 545/1/3 544/1/3 543/1/3
f 546/1/3 542/1/3 544/1/3
f 546/1/3 544/1/3 545/1/3
f 547/1/3 542/1/3 546/1/3
f 548/1/3 534/1/3 542/1/3
f 548/1/3 542/1/3 547/1/3
f 549/1/3 534/1/3 548/1/3
f 552/1/3 551/1/3 550/1/3
f 553/1/3 551/1/3 552/1/3
f 557/1/3 552/1/3 550/1/3
f 558/1/3 555/1/3 554/1/3
f 560/1/3 557/1/3 556/1/3
f 561/1/3 552/1/3 557/1/3
f 561/1/3 557/1/3 560/1/3
f 562/1/3 559/1/3 558/1/3
f 562/1/3 558/1/3 554/1/3
f 563/1/3 559/1/3 562/1/3
f 564/1/3 562/1/3 554/1/3
f 565/1/3 562/1/3 564/1/3
f 566/1/3 552/1/3 561/1/3
f 568/1/3 566/1/3 561/1/3
f 568/1/3 567/1/3 566/1/3
f 569/1/3 567/1/3 568/1/3
f 570/2/4 571/2/4 572/2/4
f 572/2/4 571/2/4 573/2/4
f 574/2/4 575/2/4 576/2/4
f 576/2/4 575/2/4 577/2/4
f 578/1/4 579/1/4 581/1/4
f 580/1/4 581/1/4 583/1/4
f 582/1/4 583/1/4 584/1/4
f 583/1/4 581/1/4 585/1/4
f 584/1/4 583/1/4 585/1/4
f 585/1/4 581/1/4 586/1/4
f 581/1/4 579/1/4 587/1/4
f 586/1/4 581/1/4 587/1/4
f 587/1/4 579/1/4 588/1/4
f 588/1/4 579/1/4 589/1/4
f 590/1/4 591/1/4 592/1/4
f 592/1/4 591/1/4 593/1/4
f 590/1/4 592/1/4 594/1/4
f 594/1/4 592/1/4 595/1/4
f 590/1/4 594/1/4 596/1/4
f 596/1/4 594/1/4 597/1/4
f 598/1/4 599/1/4 600/1/4
f 598/1/4 600/1/4 602/1/4
f 600/1/4 601/1/4 602/1/4
f 602/1/4 601/1/4 603/1/4
f 598/1/4 602/1/4 604/1/4
f 604/1/4 602/1/4 605/1/4
f 608/2/4 609/2/4 610/2/4
f 610/2/4 609/2/4 611/2/4
f 606/1/4 607/1/4 612/1/4
f 612/1/4 607/1/4 613/1/4
f 616/2/4 617/2/4 618/2/4
f 618/2/4 617/2/4 619/2/4
f 614/1/4 615/1/4 620/1/4
f 620/1/4 615/1/4 621/1/4
f 622/2/4 623/2/4 625/2/4
f 623/1/4 624/1/4 626/1/4
f 625/2/4 623/2/4 626/2/4
f 626/1/4 624/1/4 627/1/4
f 628/2/4 629/2/4 631/2/4
f 629/1/4 630/1/4 632/1/4
f 631/2/4 629/2/4 632/2/4
f 632/1/4 630/1/4 633/1/4
f 634/2/4 635/2/4 637/2/4
f 635/1/4 636/1/4 638/1/4
f 637/2/4 635/2/4 638/2/4
f 638/1/4 636/1/4 639/1/4
f 644/2/5 641/2/5 640/2/5
f 645/2/5 641/2/5 644/2/5
f 646/2/5 643/2/5 642/2/5
f 647/2/5 643/2/5 646/2/5
f 652/2/5 649/2/5 648/2/5
f 653/2/5 649/2/5 652/2/5
f 654/2/5 651/2/5 650/2/5
f 655/2/5 651/2/5 654/2/5
f 659/2/5 657/2/5 656/2/5
f 660/2/5 657/2/5 659/2/5
f 662/2/5 659/2/5 658/2/5
f 662/2/5 661/2/5 660/2/5
f 662/2/5 660/2/5 659/2/5
f 663/2/5 661/2/5 662/2/5
f 664/2/5 661/2/5 663/2/5
f 665/2/5 661/2/5 664/2/5
f 666/2/5 662/2/5 658/2/5
f 667/2/5 664/2/5 663/2/5
f 668/2/5 664/2/5 667/2/5
f 669/2/5 661/2/5 665/2/5
f 670/2/5 668/2/5 667/2/5
f 670/2/5 669/2/5 668/2/5
f 670/2/5 666/2/5 658/2/5
f 670/2/5 667/2/5 666/2/5
f 671/2/5 669/2/5 670/2/5
f 672/2/5 669/2/5 671/2/5
f 673/2/5 661/2/5 669/2/5
f 673/2/5 669/2/5 672/2/5
f 674/2/5 670/2/5 658/2/5
f 675/2/5 672/2/5 671/2/5
f 676/2/5 672/2/5 675/2/5
f 677/2/5 661/2/5 673/2/5
f 678/2/5 674/2/5 658/2/5
f 678/2/5 677/2/5 676/2/5
f 678/2/5 676/2/5 675/2/5
f 678/2/5 675/2/5 674/2/5
f 679/2/5 677/2/5 678/2/5
f 680/2/5 661/2/5 677/2/5
f 680/2/5 677/2/5 679/2/5
f 681/2/5 661/2/5 680/2/5
f 682/2/5 680/2/5 679/2/5
f 683/2/5 680/2/5 682/2/5
f 686/1/5 685/1/5 684/1/5
f 687/1/5 685/1/5 686/1/5
f 688/1/5 685/1/5 687/1/5
f 689/1/5 685/1/5 688/1/5
f 691/1/5 688/1/5 687/1/5
f 692/1/5 688/1/5 691/1/5
f 694/1/5 692/1/5 691/1/5
f 694/1/5 693/1/5 692/1/5
f 694/1/5 691/1/5 690/1/5
f 695/1/5 693/1/5 694/1/5
f 704/1/5 697/1/5 696/1/5
f 705/1/5 697/1/5 704/1/5
f 706/1/5 699/1/5 698/1/5
f 707/1/5 699/1/5 706/1/5
f 708/1/5 701/1/5 700/1/5
f 709/1/5 701/1/5 708/1/5
f 710/1/5 703/1/5 702/1/5
f 711/1/5 703/1/5 710/1/5
f 712/2/6 713/2/6 718/2/6
f 718/2/6 713/2/6 719/2/6
f 714/2/6 715/2/6 720/2/6
f 720/2/6 715/2/6 721/2/6
f 716/2/6 717/2/6 722/2/6
f 722/2/6 717/2/6 723/2/6
f 724/1/6 725/1/6 726/1/6
f 726/1/6 725/1/6 727/1/6
f 728/1/6 729/1/6 730/1/6
f 730/1/6 729/1/6 731/1/6
f 732/1/6 733/1/6 737/1/6
f 734/1/6 735/1/6 738/1/6
f 736/1/6 737/1/6 740/1/6
f 737/1/6 733/1/6 740/1/6
f 740/1/6 733/1/6 741/1/6
f 738/1/6 739/1/6 742/1/6
f 734/1/6 738/1/6 742/1/6
f 742/1/6 739/1/6 743/1/6
f 736/1/6 740/1/6 744/1/6
f 744/1/6 740/1/6 745/1/6
f 743/1/6 739/1/6 746/1/6
f 746/1/6 739/1/6 747/1/6
f 736/1/6 744/1/6 748/1/6
f 748/1/6 744/1/6 749/1/6
f 747/1/6 739/1/6 754/1/6
f 754/1/6 739/1/6 755/1/6
f 736/1/6 748/1/6 756/1/6
f 756/1/6 748/1/6 757/1/6
f 750/1/6 751/1/6 758/1/6
f 758/1/6 751/1/6 759/1/6
f 752/1/6 753/1/6 760/1/6
f 760/1/6 753/1/6 761/1/6
f 755/1/6 739/1/6 762/1/6
f 762/1/6 739/1/6 763/1/6
f 764/1/6 765/1/6 768/1/6
f 768/1/6 765/1/6 769/1/6
f 766/1/6 767/1/6 770/1/6
f 770/1/6 767/1/6 771/1/6
f 772/1/6 773/1/6 780/1/6
f 780/1/6 773/1/6 781/1/6
f 774/1/6 775/1/6 782/1/6
f 782/1/6 775/1/6 783/1/6
f 776/1/6 777/1/6 786/1/6
f 786/1/6 777/1/6 787/1/6
f 778/1/6 779/1/6 788/1/6
f 788/1/6 779/1/6 789/1/6
f 783/1/6 784/1/6 791/1/6
f 791/1/6 784/1/6 792/1/6
f 785/1/6 786/1/6 793/1/6
f 793/1/6 786/1/6 794/1/6
f 789/1/6 790/1/6 795/1/6
f 795/1/6 790/1/6 796/1/6
f 797/1/6 798/1/6 800/1/6
f 800/1/6 798/1/6 801/1/6
f 799/1/6 800/1/6 803/1/6
f 803/1/6 800/1/6 804/1/6
f 801/1/6 802/1/6 805/1/6
f 805/1/6 802/1/6 806/1/6
f 807/1/6 808/1/6 812/1/6
f 812/1/6 808/1/6 813/1/6
f 813/1/6 808/1/6 814/1/6
f 809/1/6 810/1/6 815/1/6
f 815/1/6 810/1/6 816/1/6
f 816/1/6 810/1/6 817/1/6
f 811/1/6 812/1/6 819/1/6
f 812/1/6 813/1/6 819/1/6
f 819/1/6 813/1/6 820/1/6
f 814/1/6 808/1/6 821/1/6
f 821/1/6 808/1/6 822/1/6
f 809/1/6 815/1/6 823/1/6
f 823/1/6 815/1/6 824/1/6
f 817/1/6 818/1/6 825/1/6
f 816/1/6 817/1/6 825/1/6
f 825/1/6 818/1/6 826/1/6
f 827/1/6 828/1/6 830/1/6
f 830/1/6 828/1/6 831/1/6
f 831/1/6 828/1/6 832/1/6
f 832/1/6 828/1/6 833/1/6
f 829/1/6 830/1/6 835/1/6
f 830/1/6 831/1/6 835/1/6
f 835/1/6 831/1/6 836/1/6
f 833/1/6 834/1/6 837/1/6
f 832/1/6 833/1/6 837/1/6
f 837/1/6 834/1/6 838/1/6
f 839/1/6 840/1/6 847/1/6
f 847/1/6 840/1/6 848/1/6
f 841/1/6 842/1/6 849/1/6
f 849/1/6 842/1/6 850/1/6
f 829/1/6 835/1/6 851/1/6
f 851/1/6 835/1/6 852/1/6
f 838/1/6 834/1/6 853/1/6
f 853/1/6 834/1/6 854/1/6
f 843/1/6 844/1/6 855/1/6
f 855/1/6 844/1/6 856/1/6
f 845/1/6 846/1/6 857/1/6
f 857/1/6 846/1/6 858/1/6
f 859/1/6 860/1/6 862/1/6
f 862/1/6 860/1/6 863/1/6
f 865/1/6 866/1/6 871/1/6
f 871/1/6 866/1/6 872/1/6
f 861/1/6 862/1/6 874/1/6
f 862/1/6 863/1/6 874/1/6
f 863/1/6 864/1/6 874/1/6
f 874/1/6 864/1/6 875/1/6
f 867/1/6 868/1/6 877/1/6
f 877/1/6 868/1/6 878/1/6
f 869/1/6 870/1/6 881/1/6
f 881/1/6 870/1/6 882/1/6
f 875/1/6 876/1/6 883/1/6
f 873/1/6 874/1/6 883/1/6
f 874/1/6 875/1/6 883/1/6
f 883/1/6 876/1/6 884/1/6
f 884/1/6 876/1/6 885/1/6
f 885/1/6 876/1/6 886/1/6
f 879/1/6 880/1/6 887/1/6
f 887/1/6 880/1/6 888/1/6
f 884/1/6 885/1/6 889/1/6
f 889/1/6 885/1/6 890/1/6
f 891/1/6 892/1/6 899/1/6
f 899/1/6 892/1/6 900/1/6
f 893/1/6 894/1/6 901/1/6
f 901/1/6 894/1/6 902/1/6
f 895/1/6 896/1/6 903/1/6
f 903/1/6 896/1/6 904/1/6
f 897/1/6 898/1/6 905/1/6
f 905/1/6 898/1/6 906/1/6
f 907/1/6 908/1/6 912/1/6
f 909/1/6 910/1/6 913/1/6
f 911/1/6 912/1/6 915/1/6
f 912/1/6 908/1/6 915/1/6
f 911/1/6 915/1/6 921/1/6
f 915/1/6 916/1/6 921/1/6
f 921/1/6 916/1/6 922/1/6
f 917/1/6 918/1/6 923/1/6
f 923/1/6 918/1/6 924/1/6
f 919/1/6 920/1/6 925/1/6
f 925/1/6 920/1/6 926/1/6
f 913/1/6 914/1/6 927/1/6
f 909/1/6 913/1/6 927/1/6
f 911/1/6 921/1/6 928/1/6
f 927/1/6 914/1/6 931/1/6
f 929/1/6 930/1/6 932/1/6
f 930/1/6 931/1/6 932/1/6
f 911/1/6 928/1/6 932/1/6
f 928/1/6 929/1/6 932/1/6
f 932/1/6 931/1/6 933/1/6
f 931/1/6 914/1/6 934/1/6
f 933/1/6 931/1/6 934/1/6
f 934/1/6 914/1/6 935/1/6
f 933/1/6 934/1/6 936/1/6
f 936/1/6 934/1/6 937/1/6
f 938/1/6 939/1/6 942/1/6
f 942/1/6 939/1/6 943/1/6
f 940/1/6 941/1/6 944/1/6
f 944/1/6 941/1/6 945/1/6
