# MagicaVoxel @ Ephtracy

# group
o 

# material
mtllib stove.vox.mtl
usemtl palette

# normals
vn -1 0 0
vn 1 0 0
vn 0 0 1
vn 0 0 -1
vn 0 -1 0
vn 0 1 0

# texcoords
vt 0.00195312 0.5
vt 0.00585938 0.5
vt 0.00976562 0.5
vt 0.0292969 0.5

# verts
v -1.8 2.8 -1
v -1.8 2.8 -1.3
v -1.8 2.8 -1.4
v -1.8 2.8 -3.2
v -1.8 2.9 -1.3
v -1.8 2.9 -1.4
v -1.8 2.9 -1.5
v -1.8 2.9 -2.1
v -1.8 2.9 -2.3
v -1.8 2.9 -2.4
v -1.8 2.9 -2.5
v -1.8 3 -1
v -1.8 3 -1.4
v -1.8 3 -1.5
v -1.8 3 -2.1
v -1.8 3 -2.3
v -1.8 3 -2.4
v -1.8 3 -2.5
v -1.8 3 -3.2
v -1.6 0 -1.2
v -1.6 0 -3.2
v -1.6 2.8 -1.2
v -1.6 2.8 -3.2
v -1.3 2.3 -1.1
v -1.3 2.3 -1.2
v -1.3 2.5 -1.1
v -1.3 2.5 -1.2
v -1.2 1.8 -1.1
v -1.2 1.8 -1.2
v -1.2 1.8 -1.3
v -1.2 1.9 -1.1
v -1.2 1.9 -1.2
v -1.2 1.9 -1.3
v -1.2 2.2 -1.1
v -1.2 2.2 -1.2
v -1.2 2.3 -1
v -1.2 2.3 -1.1
v -1.2 2.3 -1.2
v -1.2 2.5 -1
v -1.2 2.5 -1.1
v -1.2 2.5 -1.2
v -1.2 2.6 -1.1
v -1.2 2.6 -1.2
v -1.1 1.7 -1.1
v -1.1 1.7 -1.2
v -1.1 1.7 -1.3
v -1.1 1.8 -1.1
v -1.1 1.8 -1.2
v -1.1 1.8 -1.3
v -0.6 2.3 -1.1
v -0.6 2.3 -1.2
v -0.6 2.5 -1.1
v -0.6 2.5 -1.2
v -0.5 2.2 -1.1
v -0.5 2.2 -1.2
v -0.5 2.3 -1
v -0.5 2.3 -1.1
v -0.5 2.3 -1.2
v -0.5 2.5 -1
v -0.5 2.5 -1.1
v -0.5 2.5 -1.2
v -0.5 2.6 -1.1
v -0.5 2.6 -1.2
v 0.2 2.3 -1.1
v 0.2 2.3 -1.2
v 0.2 2.5 -1.1
v 0.2 2.5 -1.2
v 0.3 2.2 -1.1
v 0.3 2.2 -1.2
v 0.3 2.3 -1
v 0.3 2.3 -1.1
v 0.3 2.3 -1.2
v 0.3 2.5 -1
v 0.3 2.5 -1.1
v 0.3 2.5 -1.2
v 0.3 2.6 -1.1
v 0.3 2.6 -1.2
v 0.9 2.3 -1.1
v 0.9 2.3 -1.2
v 0.9 2.5 -1.1
v 0.9 2.5 -1.2
v 1 1.8 -1.1
v 1 1.8 -1.2
v 1 1.8 -1.3
v 1 1.9 -1.1
v 1 1.9 -1.2
v 1 1.9 -1.3
v 1 2.2 -1.1
v 1 2.2 -1.2
v 1 2.3 -1
v 1 2.3 -1.1
v 1 2.3 -1.2
v 1 2.5 -1
v 1 2.5 -1.1
v 1 2.5 -1.2
v 1 2.6 -1.1
v 1 2.6 -1.2
v 1.2 1.1 -1.4
v 1.2 1.1 -1.5
v 1.2 1.1 -1.6
v 1.2 1.1 -1.7
v 1.2 1.1 -1.8
v 1.2 1.1 -1.9
v 1.2 1.1 -2
v 1.2 1.1 -2.1
v 1.2 1.1 -2.2
v 1.2 1.1 -2.3
v 1.2 1.2 -1.4
v 1.2 1.2 -1.5
v 1.2 1.2 -1.6
v 1.2 1.2 -1.7
v 1.2 1.2 -1.8
v 1.2 1.2 -1.9
v 1.2 1.2 -2
v 1.2 1.2 -2.1
v 1.2 1.2 -2.2
v 1.2 1.2 -2.3
v 1.3 0.4 -1.3
v 1.3 0.4 -2.4
v 1.3 1.1 -1.3
v 1.3 1.1 -2.4
v 1.3 1.2 -1.3
v 1.3 1.2 -2.4
v 1.3 1.9 -1.3
v 1.3 1.9 -2.4
v 1.4 0.3 -1.2
v 1.4 0.3 -1.3
v 1.4 2 -1.2
v 1.4 2 -1.3
v -1.4 0.3 -1.2
v -1.4 0.3 -1.3
v -1.4 2 -1.2
v -1.4 2 -1.3
v -1.3 0.4 -1.3
v -1.3 0.4 -2.4
v -1.3 1.1 -1.3
v -1.3 1.1 -2.4
v -1.3 1.2 -1.3
v -1.3 1.2 -2.4
v -1.3 1.9 -1.3
v -1.3 1.9 -2.4
v -1.2 1.1 -1.4
v -1.2 1.1 -1.5
v -1.2 1.1 -1.6
v -1.2 1.1 -1.7
v -1.2 1.1 -1.8
v -1.2 1.1 -1.9
v -1.2 1.1 -2
v -1.2 1.1 -2.1
v -1.2 1.1 -2.2
v -1.2 1.1 -2.3
v -1.2 1.2 -1.4
v -1.2 1.2 -1.5
v -1.2 1.2 -1.6
v -1.2 1.2 -1.7
v -1.2 1.2 -1.8
v -1.2 1.2 -1.9
v -1.2 1.2 -2
v -1.2 1.2 -2.1
v -1.2 1.2 -2.2
v -1.2 1.2 -2.3
v -1 1.8 -1.1
v -1 1.8 -1.2
v -1 1.8 -1.3
v -1 1.9 -1.1
v -1 1.9 -1.2
v -1 1.9 -1.3
v -1 2.2 -1.1
v -1 2.2 -1.2
v -1 2.3 -1
v -1 2.3 -1.1
v -1 2.3 -1.2
v -1 2.5 -1
v -1 2.5 -1.1
v -1 2.5 -1.2
v -1 2.6 -1.1
v -1 2.6 -1.2
v -0.9 2.3 -1.1
v -0.9 2.3 -1.2
v -0.9 2.5 -1.1
v -0.9 2.5 -1.2
v -0.3 2.2 -1.1
v -0.3 2.2 -1.2
v -0.3 2.3 -1
v -0.3 2.3 -1.1
v -0.3 2.3 -1.2
v -0.3 2.5 -1
v -0.3 2.5 -1.1
v -0.3 2.5 -1.2
v -0.3 2.6 -1.1
v -0.3 2.6 -1.2
v -0.2 2.3 -1.1
v -0.2 2.3 -1.2
v -0.2 2.5 -1.1
v -0.2 2.5 -1.2
v 0.5 2.2 -1.1
v 0.5 2.2 -1.2
v 0.5 2.3 -1
v 0.5 2.3 -1.1
v 0.5 2.3 -1.2
v 0.5 2.5 -1
v 0.5 2.5 -1.1
v 0.5 2.5 -1.2
v 0.5 2.6 -1.1
v 0.5 2.6 -1.2
v 0.6 2.3 -1.1
v 0.6 2.3 -1.2
v 0.6 2.5 -1.1
v 0.6 2.5 -1.2
v 1.1 1.7 -1.1
v 1.1 1.7 -1.2
v 1.1 1.7 -1.3
v 1.1 1.8 -1.1
v 1.1 1.8 -1.2
v 1.1 1.8 -1.3
v 1.2 1.8 -1.1
v 1.2 1.8 -1.2
v 1.2 1.8 -1.3
v 1.2 1.9 -1.1
v 1.2 1.9 -1.2
v 1.2 1.9 -1.3
v 1.2 2.2 -1.1
v 1.2 2.2 -1.2
v 1.2 2.3 -1
v 1.2 2.3 -1.1
v 1.2 2.3 -1.2
v 1.2 2.5 -1
v 1.2 2.5 -1.1
v 1.2 2.5 -1.2
v 1.2 2.6 -1.1
v 1.2 2.6 -1.2
v 1.3 2.3 -1.1
v 1.3 2.3 -1.2
v 1.3 2.5 -1.1
v 1.3 2.5 -1.2
v 1.6 0 -1.2
v 1.6 0 -3.2
v 1.6 2.8 -1.2
v 1.6 2.8 -3.2
v 1.8 2.8 -1
v 1.8 2.8 -1.7
v 1.8 2.8 -1.8
v 1.8 2.8 -3.2
v 1.8 2.9 -1.6
v 1.8 2.9 -1.7
v 1.8 2.9 -1.8
v 1.8 2.9 -1.9
v 1.8 3 -1
v 1.8 3 -1.6
v 1.8 3 -1.9
v 1.8 3 -3.2
v -1.8 2.8 -1
v -1.8 3 -1
v -1.2 2.3 -1
v -1.2 2.5 -1
v -1 2.3 -1
v -1 2.5 -1
v -0.9 2.9 -1
v -0.9 3 -1
v -0.8 2.8 -1
v -0.8 2.9 -1
v -0.6 2.8 -1
v -0.6 2.9 -1
v -0.5 2.3 -1
v -0.5 2.5 -1
v -0.4 2.9 -1
v -0.4 3 -1
v -0.3 2.3 -1
v -0.3 2.5 -1
v 0.3 2.3 -1
v 0.3 2.5 -1
v 0.5 2.3 -1
v 0.5 2.5 -1
v 0.8 2.8 -1
v 0.8 3 -1
v 0.9 2.8 -1
v 0.9 2.9 -1
v 1 2.3 -1
v 1 2.5 -1
v 1 2.9 -1
v 1 3 -1
v 1.2 2.3 -1
v 1.2 2.5 -1
v 1.8 2.8 -1
v 1.8 3 -1
v -1.3 2.3 -1.1
v -1.3 2.5 -1.1
v -1.2 1.8 -1.1
v -1.2 1.9 -1.1
v -1.2 2.2 -1.1
v -1.2 2.3 -1.1
v -1.2 2.5 -1.1
v -1.2 2.6 -1.1
v -1.1 1.7 -1.1
v -1.1 1.8 -1.1
v -1 1.8 -1.1
v -1 1.9 -1.1
v -1 2.2 -1.1
v -1 2.3 -1.1
v -1 2.5 -1.1
v -1 2.6 -1.1
v -0.9 2.3 -1.1
v -0.9 2.5 -1.1
v -0.6 2.3 -1.1
v -0.6 2.5 -1.1
v -0.5 2.2 -1.1
v -0.5 2.3 -1.1
v -0.5 2.5 -1.1
v -0.5 2.6 -1.1
v -0.3 2.2 -1.1
v -0.3 2.3 -1.1
v -0.3 2.5 -1.1
v -0.3 2.6 -1.1
v -0.2 2.3 -1.1
v -0.2 2.5 -1.1
v 0.2 2.3 -1.1
v 0.2 2.5 -1.1
v 0.3 2.2 -1.1
v 0.3 2.3 -1.1
v 0.3 2.5 -1.1
v 0.3 2.6 -1.1
v 0.5 2.2 -1.1
v 0.5 2.3 -1.1
v 0.5 2.5 -1.1
v 0.5 2.6 -1.1
v 0.6 2.3 -1.1
v 0.6 2.5 -1.1
v 0.9 2.3 -1.1
v 0.9 2.5 -1.1
v 1 1.8 -1.1
v 1 1.9 -1.1
v 1 2.2 -1.1
v 1 2.3 -1.1
v 1 2.5 -1.1
v 1 2.6 -1.1
v 1.1 1.7 -1.1
v 1.1 1.8 -1.1
v 1.2 1.8 -1.1
v 1.2 1.9 -1.1
v 1.2 2.2 -1.1
v 1.2 2.3 -1.1
v 1.2 2.5 -1.1
v 1.2 2.6 -1.1
v 1.3 2.3 -1.1
v 1.3 2.5 -1.1
v -1.6 0 -1.2
v -1.6 2.8 -1.2
v -1.4 0.3 -1.2
v -1.4 2 -1.2
v -1.3 2.3 -1.2
v -1.3 2.5 -1.2
v -1.2 2.2 -1.2
v -1.2 2.3 -1.2
v -1.2 2.5 -1.2
v -1.2 2.6 -1.2
v -1 2.2 -1.2
v -1 2.3 -1.2
v -1 2.5 -1.2
v -1 2.6 -1.2
v -0.9 2.3 -1.2
v -0.9 2.5 -1.2
v -0.6 2.3 -1.2
v -0.6 2.5 -1.2
v -0.5 2.2 -1.2
v -0.5 2.3 -1.2
v -0.5 2.5 -1.2
v -0.5 2.6 -1.2
v -0.3 2.2 -1.2
v -0.3 2.3 -1.2
v -0.3 2.5 -1.2
v -0.3 2.6 -1.2
v -0.2 2.3 -1.2
v -0.2 2.5 -1.2
v 0.2 2.3 -1.2
v 0.2 2.5 -1.2
v 0.3 2.2 -1.2
v 0.3 2.3 -1.2
v 0.3 2.5 -1.2
v 0.3 2.6 -1.2
v 0.5 2.2 -1.2
v 0.5 2.3 -1.2
v 0.5 2.5 -1.2
v 0.5 2.6 -1.2
v 0.6 2.3 -1.2
v 0.6 2.5 -1.2
v 0.9 2.3 -1.2
v 0.9 2.5 -1.2
v 1 2.2 -1.2
v 1 2.3 -1.2
v 1 2.5 -1.2
v 1 2.6 -1.2
v 1.2 2.2 -1.2
v 1.2 2.3 -1.2
v 1.2 2.5 -1.2
v 1.2 2.6 -1.2
v 1.3 2.3 -1.2
v 1.3 2.5 -1.2
v 1.4 0.3 -1.2
v 1.4 2 -1.2
v 1.6 0 -1.2
v 1.6 2.8 -1.2
v -1.4 0.3 -1.3
v -1.4 2 -1.3
v -1.3 0.4 -1.3
v -1.3 1.1 -1.3
v -1.3 1.2 -1.3
v -1.3 1.9 -1.3
v -1.2 1.9 -1.3
v -1 1.9 -1.3
v 1 1.9 -1.3
v 1.2 1.9 -1.3
v 1.3 0.4 -1.3
v 1.3 1.1 -1.3
v 1.3 1.2 -1.3
v 1.3 1.9 -1.3
v 1.4 0.3 -1.3
v 1.4 2 -1.3
v -1.2 1.1 -1.5
v -1.2 1.2 -1.5
v 1.2 1.1 -1.5
v 1.2 1.2 -1.5
v -1.2 1.1 -1.7
v -1.2 1.2 -1.7
v 1.2 1.1 -1.7
v 1.2 1.2 -1.7
v -1.2 1.1 -1.9
v -1.2 1.2 -1.9
v 1.2 1.1 -1.9
v 1.2 1.2 -1.9
v -1.2 1.1 -2.1
v -1.2 1.2 -2.1
v 1.2 1.1 -2.1
v 1.2 1.2 -2.1
v -1.2 1.1 -2.3
v -1.2 1.2 -2.3
v 1.2 1.1 -2.3
v 1.2 1.2 -2.3
v -1.3 0.4 -2.4
v -1.3 1.1 -2.4
v -1.3 1.2 -2.4
v -1.3 1.9 -2.4
v 1.3 0.4 -2.4
v 1.3 1.1 -2.4
v 1.3 1.2 -2.4
v 1.3 1.9 -2.4
v -1.2 1.8 -1.3
v -1.2 1.9 -1.3
v -1.1 1.7 -1.3
v -1.1 1.8 -1.3
v -1 1.8 -1.3
v -1 1.9 -1.3
v 1 1.8 -1.3
v 1 1.9 -1.3
v 1.1 1.7 -1.3
v 1.1 1.8 -1.3
v 1.2 1.8 -1.3
v 1.2 1.9 -1.3
v -1.2 1.1 -1.4
v -1.2 1.2 -1.4
v 1.2 1.1 -1.4
v 1.2 1.2 -1.4
v -1.2 1.1 -1.6
v -1.2 1.2 -1.6
v 1.2 1.1 -1.6
v 1.2 1.2 -1.6
v -1.2 1.1 -1.8
v -1.2 1.2 -1.8
v 1.2 1.1 -1.8
v 1.2 1.2 -1.8
v -1.2 1.1 -2
v -1.2 1.2 -2
v 1.2 1.1 -2
v 1.2 1.2 -2
v -1.2 1.1 -2.2
v -1.2 1.2 -2.2
v 1.2 1.1 -2.2
v 1.2 1.2 -2.2
v -1.8 2.8 -3.2
v -1.8 3 -3.2
v -1.6 0 -3.2
v -1.6 2.8 -3.2
v -1.6 2.9 -3.2
v -1.5 2.9 -3.2
v -1.5 3 -3.2
v -1.4 2.9 -3.2
v -1.4 3 -3.2
v 1.4 2.9 -3.2
v 1.4 3 -3.2
v 1.6 0 -3.2
v 1.6 2.8 -3.2
v 1.6 2.9 -3.2
v 1.8 2.8 -3.2
v 1.8 3 -3.2
v -1.6 0 -1.2
v 1.6 0 -1.2
v -1.6 0 -3.2
v 1.6 0 -3.2
v -1.3 1.1 -1.3
v 1.3 1.1 -1.3
v -1.2 1.1 -1.4
v 1.2 1.1 -1.4
v -1.2 1.1 -1.5
v 1.2 1.1 -1.5
v -1.2 1.1 -1.6
v 1.2 1.1 -1.6
v -1.2 1.1 -1.7
v 1.2 1.1 -1.7
v -1.2 1.1 -1.8
v 1.2 1.1 -1.8
v -1.2 1.1 -1.9
v 1.2 1.1 -1.9
v -1.2 1.1 -2
v 1.2 1.1 -2
v -1.2 1.1 -2.1
v 1.2 1.1 -2.1
v -1.2 1.1 -2.2
v 1.2 1.1 -2.2
v -1.2 1.1 -2.3
v 1.2 1.1 -2.3
v -1.3 1.1 -2.4
v 1.3 1.1 -2.4
v -1.1 1.7 -1.1
v 1.1 1.7 -1.1
v -1.1 1.7 -1.2
v 1.1 1.7 -1.2
v -1.1 1.7 -1.3
v 1.1 1.7 -1.3
v -1.2 1.8 -1.1
v -1.1 1.8 -1.1
v 1.1 1.8 -1.1
v 1.2 1.8 -1.1
v -1.2 1.8 -1.2
v -1.1 1.8 -1.2
v 1.1 1.8 -1.2
v 1.2 1.8 -1.2
v -1.2 1.8 -1.3
v -1.1 1.8 -1.3
v 1.1 1.8 -1.3
v 1.2 1.8 -1.3
v -1.3 1.9 -1.3
v -1.2 1.9 -1.3
v -1 1.9 -1.3
v 1 1.9 -1.3
v 1.2 1.9 -1.3
v 1.3 1.9 -1.3
v -1.3 1.9 -2.4
v 1.3 1.9 -2.4
v -1.4 2 -1.2
v 1.4 2 -1.2
v -1.4 2 -1.3
v 1.4 2 -1.3
v -1.2 2.2 -1.1
v -1 2.2 -1.1
v -0.5 2.2 -1.1
v -0.3 2.2 -1.1
v 0.3 2.2 -1.1
v 0.5 2.2 -1.1
v 1 2.2 -1.1
v 1.2 2.2 -1.1
v -1.2 2.2 -1.2
v -1 2.2 -1.2
v -0.5 2.2 -1.2
v -0.3 2.2 -1.2
v 0.3 2.2 -1.2
v 0.5 2.2 -1.2
v 1 2.2 -1.2
v 1.2 2.2 -1.2
v -1.2 2.3 -1
v -1 2.3 -1
v -0.5 2.3 -1
v -0.3 2.3 -1
v 0.3 2.3 -1
v 0.5 2.3 -1
v 1 2.3 -1
v 1.2 2.3 -1
v -1.3 2.3 -1.1
v -1.2 2.3 -1.1
v -1 2.3 -1.1
v -0.9 2.3 -1.1
v -0.6 2.3 -1.1
v -0.5 2.3 -1.1
v -0.3 2.3 -1.1
v -0.2 2.3 -1.1
v 0.2 2.3 -1.1
v 0.3 2.3 -1.1
v 0.5 2.3 -1.1
v 0.6 2.3 -1.1
v 0.9 2.3 -1.1
v 1 2.3 -1.1
v 1.2 2.3 -1.1
v 1.3 2.3 -1.1
v -1.3 2.3 -1.2
v -1.2 2.3 -1.2
v -1 2.3 -1.2
v -0.9 2.3 -1.2
v -0.6 2.3 -1.2
v -0.5 2.3 -1.2
v -0.3 2.3 -1.2
v -0.2 2.3 -1.2
v 0.2 2.3 -1.2
v 0.3 2.3 -1.2
v 0.5 2.3 -1.2
v 0.6 2.3 -1.2
v 0.9 2.3 -1.2
v 1 2.3 -1.2
v 1.2 2.3 -1.2
v 1.3 2.3 -1.2
v -1.8 2.8 -1
v -0.8 2.8 -1
v -0.6 2.8 -1
v 0.8 2.8 -1
v 0.9 2.8 -1
v 1.8 2.8 -1
v -0.8 2.8 -1.1
v -0.6 2.8 -1.1
v 0.8 2.8 -1.1
v 0.9 2.8 -1.1
v -1.6 2.8 -1.2
v 1.6 2.8 -1.2
v -1.8 2.8 -1.3
v -1.7 2.8 -1.3
v -1.8 2.8 -1.4
v -1.7 2.8 -1.4
v 1.7 2.8 -1.7
v 1.8 2.8 -1.7
v 1.7 2.8 -1.8
v 1.8 2.8 -1.8
v -1.8 2.8 -3.2
v -1.6 2.8 -3.2
v 1.6 2.8 -3.2
v 1.8 2.8 -3.2
v -1.4 0.3 -1.2
v 1.4 0.3 -1.2
v -1.4 0.3 -1.3
v 1.4 0.3 -1.3
v -1.3 0.4 -1.3
v 1.3 0.4 -1.3
v -1.3 0.4 -2.4
v 1.3 0.4 -2.4
v -1.3 1.2 -1.3
v 1.3 1.2 -1.3
v -1.2 1.2 -1.4
v 1.2 1.2 -1.4
v -1.2 1.2 -1.5
v 1.2 1.2 -1.5
v -1.2 1.2 -1.6
v 1.2 1.2 -1.6
v -1.2 1.2 -1.7
v 1.2 1.2 -1.7
v -1.2 1.2 -1.8
v 1.2 1.2 -1.8
v -1.2 1.2 -1.9
v 1.2 1.2 -1.9
v -1.2 1.2 -2
v 1.2 1.2 -2
v -1.2 1.2 -2.1
v 1.2 1.2 -2.1
v -1.2 1.2 -2.2
v 1.2 1.2 -2.2
v -1.2 1.2 -2.3
v 1.2 1.2 -2.3
v -1.3 1.2 -2.4
v 1.3 1.2 -2.4
v -1 1.8 -1.1
v 1 1.8 -1.1
v -1 1.8 -1.2
v 1 1.8 -1.2
v -1 1.8 -1.3
v 1 1.8 -1.3
v -1.2 1.9 -1.1
v -1 1.9 -1.1
v 1 1.9 -1.1
v 1.2 1.9 -1.1
v -1.2 1.9 -1.2
v -1 1.9 -1.2
v 1 1.9 -1.2
v 1.2 1.9 -1.2
v -1.2 1.9 -1.3
v -1 1.9 -1.3
v 1 1.9 -1.3
v 1.2 1.9 -1.3
v -1.2 2.5 -1
v -1 2.5 -1
v -0.5 2.5 -1
v -0.3 2.5 -1
v 0.3 2.5 -1
v 0.5 2.5 -1
v 1 2.5 -1
v 1.2 2.5 -1
v -1.3 2.5 -1.1
v -1.2 2.5 -1.1
v -1 2.5 -1.1
v -0.9 2.5 -1.1
v -0.6 2.5 -1.1
v -0.5 2.5 -1.1
v -0.3 2.5 -1.1
v -0.2 2.5 -1.1
v 0.2 2.5 -1.1
v 0.3 2.5 -1.1
v 0.5 2.5 -1.1
v 0.6 2.5 -1.1
v 0.9 2.5 -1.1
v 1 2.5 -1.1
v 1.2 2.5 -1.1
v 1.3 2.5 -1.1
v -1.3 2.5 -1.2
v -1.2 2.5 -1.2
v -1 2.5 -1.2
v -0.9 2.5 -1.2
v -0.6 2.5 -1.2
v -0.5 2.5 -1.2
v -0.3 2.5 -1.2
v -0.2 2.5 -1.2
v 0.2 2.5 -1.2
v 0.3 2.5 -1.2
v 0.5 2.5 -1.2
v 0.6 2.5 -1.2
v 0.9 2.5 -1.2
v 1 2.5 -1.2
v 1.2 2.5 -1.2
v 1.3 2.5 -1.2
v -1.2 2.6 -1.1
v -1 2.6 -1.1
v -0.5 2.6 -1.1
v -0.3 2.6 -1.1
v 0.3 2.6 -1.1
v 0.5 2.6 -1.1
v 1 2.6 -1.1
v 1.2 2.6 -1.1
v -1.2 2.6 -1.2
v -1 2.6 -1.2
v -0.5 2.6 -1.2
v -0.3 2.6 -1.2
v 0.3 2.6 -1.2
v 0.5 2.6 -1.2
v 1 2.6 -1.2
v 1.2 2.6 -1.2
v -1.8 3 -1
v -0.9 3 -1
v -0.4 3 -1
v 0.8 3 -1
v 1 3 -1
v 1.8 3 -1
v -1 3 -1.1
v -0.9 3 -1.1
v -0.8 3 -1.1
v -0.4 3 -1.1
v -1.19209e-07 3 -1.1
v 0.8 3 -1.1
v 0.9 3 -1.1
v 1 3 -1.1
v 1.1 3 -1.1
v -0.9 3 -1.2
v -0.8 3 -1.2
v -0.4 3 -1.2
v -0.1 3 -1.2
v -1.19209e-07 3 -1.2
v 0.2 3 -1.2
v 0.9 3 -1.2
v 1 3 -1.2
v 1.1 3 -1.2
v 1.2 3 -1.2
v -1.1 3 -1.3
v -1 3 -1.3
v -0.1 3 -1.3
v 0.0999999 3 -1.3
v 0.2 3 -1.3
v 0.3 3 -1.3
v 1 3 -1.3
v 1.1 3 -1.3
v -1.8 3 -1.4
v -1.7 3 -1.4
v -1.4 3 -1.4
v -1.1 3 -1.4
v -0.9 3 -1.4
v 0.0999999 3 -1.4
v 0.3 3 -1.4
v 1.1 3 -1.4
v 1.2 3 -1.4
v 1.4 3 -1.4
v 1.7 3 -1.4
v -1.8 3 -1.5
v -1.7 3 -1.5
v -1.6 3 -1.5
v -1.5 3 -1.5
v -0.8 3 -1.5
v -0.5 3 -1.5
v 0.5 3 -1.5
v 0.8 3 -1.5
v 1.4 3 -1.5
v 1.6 3 -1.5
v -1.7 3 -1.6
v -1.6 3 -1.6
v -1.5 3 -1.6
v -0.9 3 -1.6
v -0.8 3 -1.6
v -0.5 3 -1.6
v -0.4 3 -1.6
v 0.4 3 -1.6
v 0.5 3 -1.6
v 0.8 3 -1.6
v 0.9 3 -1.6
v 1.6 3 -1.6
v 1.7 3 -1.6
v 1.8 3 -1.6
v -1.7 3 -1.7
v -1.6 3 -1.7
v -1.5 3 -1.7
v 0.3 3 -1.7
v 0.4 3 -1.7
v 0.5 3 -1.7
v 0.8 3 -1.7
v 0.9 3 -1.7
v 1 3 -1.7
v -1.5 3 -1.8
v -1.4 3 -1.8
v 0.2 3 -1.8
v 0.3 3 -1.8
v 0.4 3 -1.8
v 0.9 3 -1.8
v 1 3 -1.8
v 1.1 3 -1.8
v 1.6 3 -1.8
v 1.7 3 -1.8
v -1.5 3 -1.9
v -1.4 3 -1.9
v -0.9 3 -1.9
v -0.8 3 -1.9
v -0.5 3 -1.9
v -0.4 3 -1.9
v 1.7 3 -1.9
v 1.8 3 -1.9
v -1.7 3 -2
v -1.6 3 -2
v -0.8 3 -2
v -0.5 3 -2
v -1.8 3 -2.1
v -1.7 3 -2.1
v -1.5 3 -2.1
v 0.2 3 -2.1
v 0.3 3 -2.1
v 0.4 3 -2.1
v 0.9 3 -2.1
v 1 3 -2.1
v 1.1 3 -2.1
v 1.5 3 -2.1
v 1.6 3 -2.1
v -0.8 3 -2.2
v -0.5 3 -2.2
v 0.3 3 -2.2
v 0.4 3 -2.2
v 0.5 3 -2.2
v 0.8 3 -2.2
v 0.9 3 -2.2
v 1 3 -2.2
v 1.6 3 -2.2
v 1.7 3 -2.2
v -1.8 3 -2.3
v -1.7 3 -2.3
v -1.6 3 -2.3
v -0.9 3 -2.3
v -0.8 3 -2.3
v -0.5 3 -2.3
v -0.4 3 -2.3
v 0.4 3 -2.3
v 0.5 3 -2.3
v 0.8 3 -2.3
v 0.9 3 -2.3
v -1.8 3 -2.4
v -1.7 3 -2.4
v -1.6 3 -2.4
v -1 3 -2.4
v -0.9 3 -2.4
v -0.8 3 -2.4
v -0.5 3 -2.4
v -0.4 3 -2.4
v -0.3 3 -2.4
v 0.5 3 -2.4
v 0.8 3 -2.4
v -1.8 3 -2.5
v -1.7 3 -2.5
v -1.1 3 -2.5
v -1 3 -2.5
v -0.9 3 -2.5
v -0.4 3 -2.5
v -0.3 3 -2.5
v -0.2 3 -2.5
v 1.4 3 -2.5
v 1.5 3 -2.5
v 0.5 3 -2.6
v 0.8 3 -2.6
v 1.5 3 -2.6
v 1.6 3 -2.6
v -1.7 3 -2.7
v -1.5 3 -2.7
v 0.4 3 -2.7
v 0.5 3 -2.7
v 0.8 3 -2.7
v 0.9 3 -2.7
v -1.7 3 -2.8
v -1.6 3 -2.8
v -1.5 3 -2.8
v -1.4 3 -2.8
v -1.1 3 -2.8
v -1 3 -2.8
v -0.9 3 -2.8
v -0.4 3 -2.8
v -0.3 3 -2.8
v -0.2 3 -2.8
v -1.5 3 -2.9
v -1.4 3 -2.9
v -1 3 -2.9
v -0.9 3 -2.9
v -0.8 3 -2.9
v -0.5 3 -2.9
v -0.4 3 -2.9
v -0.3 3 -2.9
v 1.4 3 -2.9
v 1.5 3 -2.9
v -0.9 3 -3
v -0.8 3 -3
v -0.5 3 -3
v -0.4 3 -3
v 0.4 3 -3
v 0.5 3 -3
v 0.8 3 -3
v 0.9 3 -3
v -1.6 3 -3.1
v -1.5 3 -3.1
v -1.4 3 -3.1
v -0.8 3 -3.1
v -0.5 3 -3.1
v 0.5 3 -3.1
v 0.8 3 -3.1
v -1.8 3 -3.2
v -1.5 3 -3.2
v -1.4 3 -3.2
v 1.4 3 -3.2
v 1.8 3 -3.2

# faces
f 5/1/1 2/1/1 1/1/1
f 5/4/1 3/4/1 2/4/1
f 6/1/1 4/1/1 3/1/1
f 6/4/1 3/4/1 5/4/1
f 7/1/1 4/1/1 6/1/1
f 8/1/1 4/1/1 7/1/1
f 9/1/1 4/1/1 8/1/1
f 10/1/1 4/1/1 9/1/1
f 11/1/1 4/1/1 10/1/1
f 12/1/1 5/1/1 1/1/1
f 12/1/1 6/1/1 5/1/1
f 13/4/1 7/4/1 6/4/1
f 13/1/1 6/1/1 12/1/1
f 14/1/1 8/1/1 7/1/1
f 14/4/1 7/4/1 13/4/1
f 15/4/1 9/4/1 8/4/1
f 15/1/1 8/1/1 14/1/1
f 16/1/1 10/1/1 9/1/1
f 16/4/1 9/4/1 15/4/1
f 17/4/1 11/4/1 10/4/1
f 17/1/1 10/1/1 16/1/1
f 18/1/1 4/1/1 11/1/1
f 18/4/1 11/4/1 17/4/1
f 19/1/1 4/1/1 18/1/1
f 22/2/1 21/2/1 20/2/1
f 23/2/1 21/2/1 22/2/1
f 26/4/1 25/4/1 24/4/1
f 27/4/1 25/4/1 26/4/1
f 31/4/1 29/4/1 28/4/1
f 32/3/1 30/3/1 29/3/1
f 32/4/1 29/4/1 31/4/1
f 33/3/1 30/3/1 32/3/1
f 37/4/1 35/4/1 34/4/1
f 38/4/1 35/4/1 37/4/1
f 39/4/1 37/4/1 36/4/1
f 40/4/1 37/4/1 39/4/1
f 42/4/1 41/4/1 40/4/1
f 43/4/1 41/4/1 42/4/1
f 47/4/1 45/4/1 44/4/1
f 48/3/1 46/3/1 45/3/1
f 48/4/1 45/4/1 47/4/1
f 49/3/1 46/3/1 48/3/1
f 52/4/1 51/4/1 50/4/1
f 53/4/1 51/4/1 52/4/1
f 57/4/1 55/4/1 54/4/1
f 58/4/1 55/4/1 57/4/1
f 59/4/1 57/4/1 56/4/1
f 60/4/1 57/4/1 59/4/1
f 62/4/1 61/4/1 60/4/1
f 63/4/1 61/4/1 62/4/1
f 66/4/1 65/4/1 64/4/1
f 67/4/1 65/4/1 66/4/1
f 71/4/1 69/4/1 68/4/1
f 72/4/1 69/4/1 71/4/1
f 73/4/1 71/4/1 70/4/1
f 74/4/1 71/4/1 73/4/1
f 76/4/1 75/4/1 74/4/1
f 77/4/1 75/4/1 76/4/1
f 80/4/1 79/4/1 78/4/1
f 81/4/1 79/4/1 80/4/1
f 85/4/1 83/4/1 82/4/1
f 86/3/1 84/3/1 83/3/1
f 86/4/1 83/4/1 85/4/1
f 87/3/1 84/3/1 86/3/1
f 91/4/1 89/4/1 88/4/1
f 92/4/1 89/4/1 91/4/1
f 93/4/1 91/4/1 90/4/1
f 94/4/1 91/4/1 93/4/1
f 96/4/1 95/4/1 94/4/1
f 97/4/1 95/4/1 96/4/1
f 108/4/1 99/4/1 98/4/1
f 109/4/1 99/4/1 108/4/1
f 110/4/1 101/4/1 100/4/1
f 111/4/1 101/4/1 110/4/1
f 112/4/1 103/4/1 102/4/1
f 113/4/1 103/4/1 112/4/1
f 114/4/1 105/4/1 104/4/1
f 115/4/1 105/4/1 114/4/1
f 116/4/1 107/4/1 106/4/1
f 117/4/1 107/4/1 116/4/1
f 120/2/1 119/2/1 118/2/1
f 121/2/1 119/2/1 120/2/1
f 124/2/1 123/2/1 122/2/1
f 125/2/1 123/2/1 124/2/1
f 128/2/1 127/2/1 126/2/1
f 129/2/1 127/2/1 128/2/1
f 130/2/2 131/2/2 132/2/2
f 132/2/2 131/2/2 133/2/2
f 134/2/2 135/2/2 136/2/2
f 136/2/2 135/2/2 137/2/2
f 138/2/2 139/2/2 140/2/2
f 140/2/2 139/2/2 141/2/2
f 142/4/2 143/4/2 152/4/2
f 152/4/2 143/4/2 153/4/2
f 144/4/2 145/4/2 154/4/2
f 154/4/2 145/4/2 155/4/2
f 146/4/2 147/4/2 156/4/2
f 156/4/2 147/4/2 157/4/2
f 148/4/2 149/4/2 158/4/2
f 158/4/2 149/4/2 159/4/2
f 150/4/2 151/4/2 160/4/2
f 160/4/2 151/4/2 161/4/2
f 162/4/2 163/4/2 165/4/2
f 163/3/2 164/3/2 166/3/2
f 165/4/2 163/4/2 166/4/2
f 166/3/2 164/3/2 167/3/2
f 168/4/2 169/4/2 171/4/2
f 171/4/2 169/4/2 172/4/2
f 170/4/2 171/4/2 173/4/2
f 173/4/2 171/4/2 174/4/2
f 174/4/2 175/4/2 176/4/2
f 176/4/2 175/4/2 177/4/2
f 178/4/2 179/4/2 180/4/2
f 180/4/2 179/4/2 181/4/2
f 182/4/2 183/4/2 185/4/2
f 185/4/2 183/4/2 186/4/2
f 184/4/2 185/4/2 187/4/2
f 187/4/2 185/4/2 188/4/2
f 188/4/2 189/4/2 190/4/2
f 190/4/2 189/4/2 191/4/2
f 192/4/2 193/4/2 194/4/2
f 194/4/2 193/4/2 195/4/2
f 196/4/2 197/4/2 199/4/2
f 199/4/2 197/4/2 200/4/2
f 198/4/2 199/4/2 201/4/2
f 201/4/2 199/4/2 202/4/2
f 202/4/2 203/4/2 204/4/2
f 204/4/2 203/4/2 205/4/2
f 206/4/2 207/4/2 208/4/2
f 208/4/2 207/4/2 209/4/2
f 210/4/2 211/4/2 213/4/2
f 211/3/2 212/3/2 214/3/2
f 213/4/2 211/4/2 214/4/2
f 214/3/2 212/3/2 215/3/2
f 216/4/2 217/4/2 219/4/2
f 217/3/2 218/3/2 220/3/2
f 219/4/2 217/4/2 220/4/2
f 220/3/2 218/3/2 221/3/2
f 222/4/2 223/4/2 225/4/2
f 225/4/2 223/4/2 226/4/2
f 224/4/2 225/4/2 227/4/2
f 227/4/2 225/4/2 228/4/2
f 228/4/2 229/4/2 230/4/2
f 230/4/2 229/4/2 231/4/2
f 232/4/2 233/4/2 234/4/2
f 234/4/2 233/4/2 235/4/2
f 236/2/2 237/2/2 238/2/2
f 238/2/2 237/2/2 239/2/2
f 240/1/2 241/1/2 244/1/2
f 241/4/2 242/4/2 245/4/2
f 244/1/2 241/1/2 245/1/2
f 242/1/2 243/1/2 246/1/2
f 245/4/2 242/4/2 246/4/2
f 246/1/2 243/1/2 247/1/2
f 240/1/2 244/1/2 248/1/2
f 244/4/2 245/4/2 249/4/2
f 248/1/2 244/1/2 249/1/2
f 245/4/2 246/4/2 249/4/2
f 246/4/2 247/4/2 249/4/2
f 247/1/2 243/1/2 250/1/2
f 249/4/2 247/4/2 250/4/2
f 250/1/2 243/1/2 251/1/2
f 256/4/3 255/4/3 254/4/3
f 257/4/3 255/4/3 256/4/3
f 258/1/3 253/1/3 252/1/3
f 259/1/3 253/1/3 258/1/3
f 260/1/3 258/1/3 252/1/3
f 261/4/3 259/4/3 258/4/3
f 261/1/3 258/1/3 260/1/3
f 262/4/3 261/4/3 260/4/3
f 263/4/3 259/4/3 261/4/3
f 263/4/3 261/4/3 262/4/3
f 266/1/3 263/1/3 262/1/3
f 266/4/3 259/4/3 263/4/3
f 267/4/3 259/4/3 266/4/3
f 268/4/3 265/4/3 264/4/3
f 269/4/3 265/4/3 268/4/3
f 272/4/3 271/4/3 270/4/3
f 273/4/3 271/4/3 272/4/3
f 274/1/3 266/1/3 262/1/3
f 274/1/3 267/1/3 266/1/3
f 275/1/3 267/1/3 274/1/3
f 276/4/3 275/4/3 274/4/3
f 277/4/3 275/4/3 276/4/3
f 280/1/3 277/1/3 276/1/3
f 280/4/3 275/4/3 277/4/3
f 281/4/3 275/4/3 280/4/3
f 282/4/3 279/4/3 278/4/3
f 283/4/3 279/4/3 282/4/3
f 284/1/3 280/1/3 276/1/3
f 284/1/3 281/1/3 280/1/3
f 285/1/3 281/1/3 284/1/3
f 291/4/3 287/4/3 286/4/3
f 292/4/3 287/4/3 291/4/3
f 295/4/3 289/4/3 288/4/3
f 296/4/3 289/4/3 295/4/3
f 296/4/3 295/4/3 294/4/3
f 297/4/3 289/4/3 296/4/3
f 298/4/3 291/4/3 290/4/3
f 299/4/3 291/4/3 298/4/3
f 300/4/3 293/4/3 292/4/3
f 301/4/3 293/4/3 300/4/3
f 302/4/3 300/4/3 299/4/3
f 303/4/3 300/4/3 302/4/3
f 307/4/3 305/4/3 304/4/3
f 308/4/3 305/4/3 307/4/3
f 310/4/3 307/4/3 306/4/3
f 311/4/3 307/4/3 310/4/3
f 312/4/3 309/4/3 308/4/3
f 313/4/3 309/4/3 312/4/3
f 314/4/3 312/4/3 311/4/3
f 315/4/3 312/4/3 314/4/3
f 319/4/3 317/4/3 316/4/3
f 320/4/3 317/4/3 319/4/3
f 322/4/3 319/4/3 318/4/3
f 323/4/3 319/4/3 322/4/3
f 324/4/3 321/4/3 320/4/3
f 325/4/3 321/4/3 324/4/3
f 326/4/3 324/4/3 323/4/3
f 327/4/3 324/4/3 326/4/3
f 330/4/3 296/4/3 294/4/3
f 333/4/3 329/4/3 328/4/3
f 334/4/3 329/4/3 333/4/3
f 336/4/3 331/4/3 330/4/3
f 336/4/3 330/4/3 294/4/3
f 337/4/3 331/4/3 336/4/3
f 338/4/3 331/4/3 337/4/3
f 339/4/3 331/4/3 338/4/3
f 340/4/3 333/4/3 332/4/3
f 341/4/3 333/4/3 340/4/3
f 342/4/3 335/4/3 334/4/3
f 343/4/3 335/4/3 342/4/3
f 344/4/3 342/4/3 341/4/3
f 345/4/3 342/4/3 344/4/3
f 348/2/3 347/2/3 346/2/3
f 349/2/3 347/2/3 348/2/3
f 350/2/3 347/2/3 349/2/3
f 351/2/3 347/2/3 350/2/3
f 352/2/3 350/2/3 349/2/3
f 353/2/3 350/2/3 352/2/3
f 354/2/3 347/2/3 351/2/3
f 355/2/3 347/2/3 354/2/3
f 356/2/3 352/2/3 349/2/3
f 359/2/3 347/2/3 355/2/3
f 360/2/3 357/2/3 356/2/3
f 361/2/3 359/2/3 358/2/3
f 362/2/3 360/2/3 356/2/3
f 362/2/3 361/2/3 360/2/3
f 363/2/3 359/2/3 361/2/3
f 363/2/3 361/2/3 362/2/3
f 364/2/3 362/2/3 356/2/3
f 364/2/3 356/2/3 349/2/3
f 365/2/3 362/2/3 364/2/3
f 366/2/3 359/2/3 363/2/3
f 367/2/3 347/2/3 359/2/3
f 367/2/3 359/2/3 366/2/3
f 368/2/3 364/2/3 349/2/3
f 371/2/3 347/2/3 367/2/3
f 372/2/3 369/2/3 368/2/3
f 373/2/3 371/2/3 370/2/3
f 374/2/3 372/2/3 368/2/3
f 374/2/3 373/2/3 372/2/3
f 375/2/3 371/2/3 373/2/3
f 375/2/3 373/2/3 374/2/3
f 376/2/3 374/2/3 368/2/3
f 376/2/3 368/2/3 349/2/3
f 377/2/3 374/2/3 376/2/3
f 378/2/3 371/2/3 375/2/3
f 379/2/3 347/2/3 371/2/3
f 379/2/3 371/2/3 378/2/3
f 380/2/3 376/2/3 349/2/3
f 383/2/3 347/2/3 379/2/3
f 384/2/3 381/2/3 380/2/3
f 385/2/3 383/2/3 382/2/3
f 386/2/3 384/2/3 380/2/3
f 386/2/3 385/2/3 384/2/3
f 387/2/3 383/2/3 385/2/3
f 387/2/3 385/2/3 386/2/3
f 388/2/3 386/2/3 380/2/3
f 388/2/3 380/2/3 349/2/3
f 389/2/3 386/2/3 388/2/3
f 390/2/3 383/2/3 387/2/3
f 391/2/3 347/2/3 383/2/3
f 391/2/3 383/2/3 390/2/3
f 392/2/3 388/2/3 349/2/3
f 395/2/3 347/2/3 391/2/3
f 396/2/3 393/2/3 392/2/3
f 397/2/3 395/2/3 394/2/3
f 398/2/3 348/2/3 346/2/3
f 399/2/3 397/2/3 396/2/3
f 399/2/3 396/2/3 392/2/3
f 399/2/3 392/2/3 349/2/3
f 400/2/3 398/2/3 346/2/3
f 400/2/3 399/2/3 398/2/3
f 401/2/3 397/2/3 399/2/3
f 401/2/3 399/2/3 400/2/3
f 401/2/3 395/2/3 397/2/3
f 401/2/3 347/2/3 395/2/3
f 404/2/3 403/2/3 402/2/3
f 405/2/3 403/2/3 404/2/3
f 406/2/3 403/2/3 405/2/3
f 407/2/3 403/2/3 406/2/3
f 408/2/3 403/2/3 407/2/3
f 409/2/3 403/2/3 408/2/3
f 410/2/3 403/2/3 409/2/3
f 411/2/3 403/2/3 410/2/3
f 412/2/3 404/2/3 402/2/3
f 413/4/3 406/4/3 405/4/3
f 414/4/3 406/4/3 413/4/3
f 415/2/3 403/2/3 411/2/3
f 416/2/3 414/2/3 413/2/3
f 416/2/3 415/2/3 414/2/3
f 416/2/3 412/2/3 402/2/3
f 416/2/3 413/2/3 412/2/3
f 417/2/3 403/2/3 415/2/3
f 417/2/3 415/2/3 416/2/3
f 420/4/3 419/4/3 418/4/3
f 421/4/3 419/4/3 420/4/3
f 424/4/3 423/4/3 422/4/3
f 425/4/3 423/4/3 424/4/3
f 428/4/3 427/4/3 426/4/3
f 429/4/3 427/4/3 428/4/3
f 432/4/3 431/4/3 430/4/3
f 433/4/3 431/4/3 432/4/3
f 436/4/3 435/4/3 434/4/3
f 437/4/3 435/4/3 436/4/3
f 442/2/3 439/2/3 438/2/3
f 443/2/3 439/2/3 442/2/3
f 444/2/3 441/2/3 440/2/3
f 445/2/3 441/2/3 444/2/3
f 446/3/4 447/3/4 449/3/4
f 449/3/4 447/3/4 450/3/4
f 448/3/4 449/3/4 450/3/4
f 450/3/4 447/3/4 451/3/4
f 448/3/4 450/3/4 452/3/4
f 448/3/4 452/3/4 454/3/4
f 452/3/4 453/3/4 454/3/4
f 454/3/4 453/3/4 455/3/4
f 455/3/4 453/3/4 456/3/4
f 456/3/4 453/3/4 457/3/4
f 458/4/4 459/4/4 460/4/4
f 460/4/4 459/4/4 461/4/4
f 462/4/4 463/4/4 464/4/4
f 464/4/4 463/4/4 465/4/4
f 466/4/4 467/4/4 468/4/4
f 468/4/4 467/4/4 469/4/4
f 470/4/4 471/4/4 472/4/4
f 472/4/4 471/4/4 473/4/4
f 474/4/4 475/4/4 476/4/4
f 476/4/4 475/4/4 477/4/4
f 478/1/4 479/1/4 481/1/4
f 481/1/4 479/1/4 482/1/4
f 480/2/4 481/2/4 483/2/4
f 482/1/4 479/1/4 483/1/4
f 481/2/4 482/2/4 483/2/4
f 483/1/4 479/1/4 484/1/4
f 480/2/4 483/2/4 485/2/4
f 483/4/4 484/4/4 485/4/4
f 485/4/4 484/4/4 486/4/4
f 480/2/4 485/2/4 487/2/4
f 485/2/4 486/2/4 487/2/4
f 487/2/4 486/2/4 488/2/4
f 480/2/4 487/2/4 489/2/4
f 489/2/4 487/2/4 490/2/4
f 487/1/4 488/1/4 491/1/4
f 490/2/4 487/2/4 491/2/4
f 490/1/4 491/1/4 492/1/4
f 491/1/4 488/1/4 493/1/4
f 492/1/4 491/1/4 493/1/4
f 496/2/5 495/2/5 494/2/5
f 497/2/5 495/2/5 496/2/5
f 500/4/5 499/4/5 498/4/5
f 501/4/5 499/4/5 500/4/5
f 502/4/5 500/4/5 498/4/5
f 503/4/5 499/4/5 501/4/5
f 504/4/5 502/4/5 498/4/5
f 504/4/5 503/4/5 502/4/5
f 505/4/5 499/4/5 503/4/5
f 505/4/5 503/4/5 504/4/5
f 506/4/5 504/4/5 498/4/5
f 507/4/5 499/4/5 505/4/5
f 508/4/5 506/4/5 498/4/5
f 508/4/5 507/4/5 506/4/5
f 509/4/5 499/4/5 507/4/5
f 509/4/5 507/4/5 508/4/5
f 510/4/5 508/4/5 498/4/5
f 511/4/5 499/4/5 509/4/5
f 512/4/5 510/4/5 498/4/5
f 512/4/5 511/4/5 510/4/5
f 513/4/5 499/4/5 511/4/5
f 513/4/5 511/4/5 512/4/5
f 514/4/5 512/4/5 498/4/5
f 515/4/5 499/4/5 513/4/5
f 516/4/5 514/4/5 498/4/5
f 516/4/5 515/4/5 514/4/5
f 517/4/5 499/4/5 515/4/5
f 517/4/5 515/4/5 516/4/5
f 518/4/5 516/4/5 498/4/5
f 519/4/5 499/4/5 517/4/5
f 520/4/5 518/4/5 498/4/5
f 520/4/5 519/4/5 518/4/5
f 521/4/5 499/4/5 519/4/5
f 521/4/5 519/4/5 520/4/5
f 524/4/5 523/4/5 522/4/5
f 525/4/5 523/4/5 524/4/5
f 526/3/5 525/3/5 524/3/5
f 527/3/5 525/3/5 526/3/5
f 532/4/5 529/4/5 528/4/5
f 533/4/5 529/4/5 532/4/5
f 534/4/5 531/4/5 530/4/5
f 535/4/5 531/4/5 534/4/5
f 536/3/5 533/3/5 532/3/5
f 537/3/5 533/3/5 536/3/5
f 538/3/5 535/3/5 534/3/5
f 539/3/5 535/3/5 538/3/5
f 546/2/5 541/2/5 540/2/5
f 546/2/5 545/2/5 544/2/5
f 546/2/5 544/2/5 543/2/5
f 546/2/5 543/2/5 542/2/5
f 546/2/5 542/2/5 541/2/5
f 547/2/5 545/2/5 546/2/5
f 550/2/5 549/2/5 548/2/5
f 551/2/5 549/2/5 550/2/5
f 560/4/5 553/4/5 552/4/5
f 561/4/5 553/4/5 560/4/5
f 562/4/5 555/4/5 554/4/5
f 563/4/5 555/4/5 562/4/5
f 564/4/5 557/4/5 556/4/5
f 565/4/5 557/4/5 564/4/5
f 566/4/5 559/4/5 558/4/5
f 567/4/5 559/4/5 566/4/5
f 577/4/5 569/4/5 568/4/5
f 578/4/5 569/4/5 577/4/5
f 581/4/5 571/4/5 570/4/5
f 582/4/5 571/4/5 581/4/5
f 585/4/5 573/4/5 572/4/5
f 586/4/5 573/4/5 585/4/5
f 589/4/5 575/4/5 574/4/5
f 590/4/5 575/4/5 589/4/5
f 592/4/5 577/4/5 576/4/5
f 593/4/5 577/4/5 592/4/5
f 594/4/5 579/4/5 578/4/5
f 595/4/5 579/4/5 594/4/5
f 596/4/5 581/4/5 580/4/5
f 597/4/5 581/4/5 596/4/5
f 598/4/5 583/4/5 582/4/5
f 599/4/5 583/4/5 598/4/5
f 600/4/5 585/4/5 584/4/5
f 601/4/5 585/4/5 600/4/5
f 602/4/5 587/4/5 586/4/5
f 603/4/5 587/4/5 602/4/5
f 604/4/5 589/4/5 588/4/5
f 605/4/5 589/4/5 604/4/5
f 606/4/5 591/4/5 590/4/5
f 607/4/5 591/4/5 606/4/5
f 614/1/5 609/1/5 608/1/5
f 614/4/5 610/4/5 609/4/5
f 615/1/5 611/1/5 610/1/5
f 615/4/5 610/4/5 614/4/5
f 616/4/5 612/4/5 611/4/5
f 616/1/5 611/1/5 615/1/5
f 617/1/5 613/1/5 612/1/5
f 617/4/5 612/4/5 616/4/5
f 618/1/5 616/1/5 615/1/5
f 618/1/5 615/1/5 614/1/5
f 618/1/5 617/1/5 616/1/5
f 618/1/5 614/1/5 608/1/5
f 619/1/5 613/1/5 617/1/5
f 619/1/5 617/1/5 618/1/5
f 620/1/5 618/1/5 608/1/5
f 621/1/5 618/1/5 620/1/5
f 622/4/5 621/4/5 620/4/5
f 623/1/5 618/1/5 621/1/5
f 623/4/5 621/4/5 622/4/5
f 624/1/5 613/1/5 619/1/5
f 625/1/5 613/1/5 624/1/5
f 626/1/5 624/1/5 619/1/5
f 626/4/5 625/4/5 624/4/5
f 627/4/5 625/4/5 626/4/5
f 628/1/5 623/1/5 622/1/5
f 629/1/5 618/1/5 623/1/5
f 629/1/5 623/1/5 628/1/5
f 630/1/5 626/1/5 619/1/5
f 630/1/5 627/1/5 626/1/5
f 631/1/5 627/1/5 630/1/5
f 632/2/6 633/2/6 634/2/6
f 634/2/6 633/2/6 635/2/6
f 636/2/6 637/2/6 638/2/6
f 638/2/6 637/2/6 639/2/6
f 640/4/6 641/4/6 642/4/6
f 642/4/6 641/4/6 643/4/6
f 640/4/6 642/4/6 644/4/6
f 643/4/6 641/4/6 645/4/6
f 640/4/6 644/4/6 646/4/6
f 644/4/6 645/4/6 646/4/6
f 645/4/6 641/4/6 647/4/6
f 646/4/6 645/4/6 647/4/6
f 640/4/6 646/4/6 648/4/6
f 647/4/6 641/4/6 649/4/6
f 640/4/6 648/4/6 650/4/6
f 648/4/6 649/4/6 650/4/6
f 649/4/6 641/4/6 651/4/6
f 650/4/6 649/4/6 651/4/6
f 640/4/6 650/4/6 652/4/6
f 651/4/6 641/4/6 653/4/6
f 640/4/6 652/4/6 654/4/6
f 652/4/6 653/4/6 654/4/6
f 653/4/6 641/4/6 655/4/6
f 654/4/6 653/4/6 655/4/6
f 640/4/6 654/4/6 656/4/6
f 655/4/6 641/4/6 657/4/6
f 640/4/6 656/4/6 658/4/6
f 656/4/6 657/4/6 658/4/6
f 657/4/6 641/4/6 659/4/6
f 658/4/6 657/4/6 659/4/6
f 640/4/6 658/4/6 660/4/6
f 659/4/6 641/4/6 661/4/6
f 640/4/6 660/4/6 662/4/6
f 660/4/6 661/4/6 662/4/6
f 661/4/6 641/4/6 663/4/6
f 662/4/6 661/4/6 663/4/6
f 664/4/6 665/4/6 666/4/6
f 666/4/6 665/4/6 667/4/6
f 666/3/6 667/3/6 668/3/6
f 668/3/6 667/3/6 669/3/6
f 670/4/6 671/4/6 674/4/6
f 674/4/6 671/4/6 675/4/6
f 672/4/6 673/4/6 676/4/6
f 676/4/6 673/4/6 677/4/6
f 674/3/6 675/3/6 678/3/6
f 678/3/6 675/3/6 679/3/6
f 676/3/6 677/3/6 680/3/6
f 680/3/6 677/3/6 681/3/6
f 682/4/6 683/4/6 691/4/6
f 691/4/6 683/4/6 692/4/6
f 684/4/6 685/4/6 695/4/6
f 695/4/6 685/4/6 696/4/6
f 686/4/6 687/4/6 699/4/6
f 699/4/6 687/4/6 700/4/6
f 688/4/6 689/4/6 703/4/6
f 703/4/6 689/4/6 704/4/6
f 690/4/6 691/4/6 706/4/6
f 706/4/6 691/4/6 707/4/6
f 692/4/6 693/4/6 708/4/6
f 708/4/6 693/4/6 709/4/6
f 694/4/6 695/4/6 710/4/6
f 710/4/6 695/4/6 711/4/6
f 696/4/6 697/4/6 712/4/6
f 712/4/6 697/4/6 713/4/6
f 698/4/6 699/4/6 714/4/6
f 714/4/6 699/4/6 715/4/6
f 700/4/6 701/4/6 716/4/6
f 716/4/6 701/4/6 717/4/6
f 702/4/6 703/4/6 718/4/6
f 718/4/6 703/4/6 719/4/6
f 704/4/6 705/4/6 720/4/6
f 720/4/6 705/4/6 721/4/6
f 722/4/6 723/4/6 730/4/6
f 730/4/6 723/4/6 731/4/6
f 724/4/6 725/4/6 732/4/6
f 732/4/6 725/4/6 733/4/6
f 726/4/6 727/4/6 734/4/6
f 734/4/6 727/4/6 735/4/6
f 728/4/6 729/4/6 736/4/6
f 736/4/6 729/4/6 737/4/6
f 738/1/6 739/1/6 744/1/6
f 739/4/6 740/4/6 745/4/6
f 744/1/6 739/1/6 745/1/6
f 745/4/6 740/4/6 746/4/6
f 740/1/6 741/1/6 747/1/6
f 746/4/6 740/4/6 747/4/6
f 747/1/6 741/1/6 748/1/6
f 741/4/6 742/4/6 749/4/6
f 748/1/6 741/1/6 749/1/6
f 749/4/6 742/4/6 750/4/6
f 742/1/6 743/1/6 751/1/6
f 750/4/6 742/4/6 751/4/6
f 751/1/6 743/1/6 752/1/6
f 745/4/6 746/4/6 753/4/6
f 744/4/6 745/4/6 753/4/6
f 746/1/6 747/1/6 754/1/6
f 753/4/6 746/4/6 754/4/6
f 747/4/6 748/4/6 755/4/6
f 754/1/6 747/1/6 755/1/6
f 755/4/6 748/4/6 756/4/6
f 749/1/6 750/1/6 757/1/6
f 756/4/6 748/4/6 757/4/6
f 748/1/6 749/1/6 757/1/6
f 757/1/6 750/1/6 758/1/6
f 751/4/6 752/4/6 759/4/6
f 758/1/6 750/1/6 759/1/6
f 750/4/6 751/4/6 759/4/6
f 759/4/6 752/4/6 760/4/6
f 752/1/6 743/1/6 761/1/6
f 760/4/6 752/4/6 761/4/6
f 761/1/6 743/1/6 762/1/6
f 738/1/6 744/1/6 763/1/6
f 744/4/6 753/4/6 764/4/6
f 763/1/6 744/1/6 764/1/6
f 755/1/6 756/1/6 765/1/6
f 753/1/6 754/1/6 765/1/6
f 757/4/6 758/4/6 765/4/6
f 754/1/6 755/1/6 765/1/6
f 756/4/6 757/4/6 765/4/6
f 765/4/6 758/4/6 766/4/6
f 759/1/6 760/1/6 767/1/6
f 766/4/6 758/4/6 767/4/6
f 758/1/6 759/1/6 767/1/6
f 767/1/6 760/1/6 768/1/6
f 761/4/6 762/4/6 769/4/6
f 768/1/6 760/1/6 769/1/6
f 760/4/6 761/4/6 769/4/6
f 769/4/6 762/4/6 770/4/6
f 738/1/6 763/1/6 771/1/6
f 771/1/6 763/1/6 772/1/6
f 772/1/6 763/1/6 773/1/6
f 763/4/6 764/4/6 774/4/6
f 773/1/6 763/1/6 774/1/6
f 764/4/6 753/4/6 775/4/6
f 774/4/6 764/4/6 775/4/6
f 765/1/6 766/1/6 775/1/6
f 753/1/6 765/1/6 775/1/6
f 767/4/6 768/4/6 776/4/6
f 775/1/6 766/1/6 776/1/6
f 766/4/6 767/4/6 776/4/6
f 769/1/6 770/1/6 777/1/6
f 776/4/6 768/4/6 777/4/6
f 768/1/6 769/1/6 777/1/6
f 770/4/6 762/4/6 778/4/6
f 777/1/6 770/1/6 778/1/6
f 762/1/6 743/1/6 779/1/6
f 778/4/6 762/4/6 779/4/6
f 779/1/6 743/1/6 780/1/6
f 780/1/6 743/1/6 781/1/6
f 771/4/6 772/4/6 782/4/6
f 772/1/6 773/1/6 783/1/6
f 782/4/6 772/4/6 783/4/6
f 783/1/6 773/1/6 784/1/6
f 784/1/6 773/1/6 785/1/6
f 773/2/6 774/2/6 786/2/6
f 777/2/6 778/2/6 786/2/6
f 774/2/6 775/2/6 786/2/6
f 776/2/6 777/2/6 786/2/6
f 775/2/6 776/2/6 786/2/6
f 778/2/6 779/2/6 786/2/6
f 779/2/6 780/2/6 786/2/6
f 786/2/6 780/2/6 787/2/6
f 787/2/6 780/2/6 788/2/6
f 788/2/6 780/2/6 789/2/6
f 780/4/6 781/4/6 790/4/6
f 789/2/6 780/2/6 790/2/6
f 790/4/6 781/4/6 791/4/6
f 783/1/6 784/1/6 792/1/6
f 782/1/6 783/1/6 792/1/6
f 784/4/6 785/4/6 793/4/6
f 792/1/6 784/1/6 793/1/6
f 785/1/6 773/1/6 794/1/6
f 793/4/6 785/4/6 794/4/6
f 773/2/6 786/2/6 795/2/6
f 786/4/6 787/4/6 796/4/6
f 795/2/6 786/2/6 796/2/6
f 787/2/6 788/2/6 797/2/6
f 796/4/6 787/4/6 797/4/6
f 797/2/6 788/2/6 798/2/6
f 798/2/6 788/2/6 799/2/6
f 788/4/6 789/4/6 800/4/6
f 799/2/6 788/2/6 800/2/6
f 789/2/6 790/2/6 801/2/6
f 800/4/6 789/4/6 801/4/6
f 801/2/6 790/2/6 802/2/6
f 791/4/6 781/4/6 803/4/6
f 790/1/6 791/1/6 803/1/6
f 781/1/6 743/1/6 804/1/6
f 803/4/6 781/4/6 804/4/6
f 804/1/6 743/1/6 805/1/6
f 792/4/6 793/4/6 806/4/6
f 782/1/6 792/1/6 806/1/6
f 793/1/6 794/1/6 807/1/6
f 806/4/6 793/4/6 807/4/6
f 794/1/6 773/1/6 808/1/6
f 807/1/6 794/1/6 808/1/6
f 798/2/6 799/2/6 809/2/6
f 799/4/6 800/4/6 810/4/6
f 809/2/6 799/2/6 810/2/6
f 800/2/6 801/2/6 811/2/6
f 810/4/6 800/4/6 811/4/6
f 801/4/6 802/4/6 812/4/6
f 811/2/6 801/2/6 812/2/6
f 802/2/6 790/2/6 813/2/6
f 812/4/6 802/4/6 813/4/6
f 813/2/6 790/2/6 814/2/6
f 808/1/6 773/1/6 815/1/6
f 807/4/6 808/4/6 815/4/6
f 773/2/6 795/2/6 816/2/6
f 815/1/6 773/1/6 816/1/6
f 798/2/6 809/2/6 817/2/6
f 809/4/6 810/4/6 818/4/6
f 817/2/6 809/2/6 818/2/6
f 811/2/6 812/2/6 819/2/6
f 818/4/6 810/4/6 819/4/6
f 810/2/6 811/2/6 819/2/6
f 812/2/6 813/2/6 819/2/6
f 813/4/6 814/4/6 820/4/6
f 819/2/6 813/2/6 820/2/6
f 814/2/6 790/2/6 821/2/6
f 820/4/6 814/4/6 821/4/6
f 821/2/6 790/2/6 822/2/6
f 790/1/6 803/1/6 823/1/6
f 803/1/6 804/1/6 823/1/6
f 804/4/6 805/4/6 824/4/6
f 823/1/6 804/1/6 824/1/6
f 815/4/6 816/4/6 825/4/6
f 807/4/6 815/4/6 825/4/6
f 816/2/6 795/2/6 826/2/6
f 825/4/6 816/4/6 826/4/6
f 795/4/6 796/4/6 827/4/6
f 826/2/6 795/2/6 827/2/6
f 796/2/6 797/2/6 828/2/6
f 827/4/6 796/4/6 828/4/6
f 797/4/6 798/4/6 829/4/6
f 828/2/6 797/2/6 829/2/6
f 798/2/6 817/2/6 830/2/6
f 829/4/6 798/4/6 830/4/6
f 824/4/6 805/4/6 831/4/6
f 823/4/6 824/4/6 831/4/6
f 831/4/6 805/4/6 832/4/6
f 806/1/6 807/1/6 833/1/6
f 782/1/6 806/1/6 833/1/6
f 807/4/6 825/4/6 834/4/6
f 833/1/6 807/1/6 834/1/6
f 826/2/6 827/2/6 835/2/6
f 827/2/6 828/2/6 835/2/6
f 828/4/6 829/4/6 835/4/6
f 829/2/6 830/2/6 836/2/6
f 835/4/6 829/4/6 836/4/6
f 782/1/6 833/1/6 837/1/6
f 833/4/6 834/4/6 838/4/6
f 837/1/6 833/1/6 838/1/6
f 825/1/6 826/1/6 839/1/6
f 838/4/6 834/4/6 839/4/6
f 834/4/6 825/4/6 839/4/6
f 817/4/6 818/4/6 840/4/6
f 830/2/6 817/2/6 840/2/6
f 836/2/6 830/2/6 840/2/6
f 835/2/6 836/2/6 840/2/6
f 819/2/6 820/2/6 841/2/6
f 840/4/6 818/4/6 841/4/6
f 820/2/6 821/2/6 841/2/6
f 818/2/6 819/2/6 841/2/6
f 841/2/6 821/2/6 842/2/6
f 842/2/6 821/2/6 843/2/6
f 821/4/6 822/4/6 844/4/6
f 843/2/6 821/2/6 844/2/6
f 822/2/6 790/2/6 845/2/6
f 844/4/6 822/4/6 845/4/6
f 790/1/6 823/1/6 846/1/6
f 823/4/6 831/4/6 847/4/6
f 846/1/6 823/1/6 847/1/6
f 835/2/6 840/2/6 848/2/6
f 826/2/6 835/2/6 848/2/6
f 840/2/6 841/2/6 848/2/6
f 848/2/6 841/2/6 849/2/6
f 841/4/6 842/4/6 850/4/6
f 849/2/6 841/2/6 850/2/6
f 842/2/6 843/2/6 851/2/6
f 850/4/6 842/4/6 851/4/6
f 851/2/6 843/2/6 852/2/6
f 852/2/6 843/2/6 853/2/6
f 843/4/6 844/4/6 854/4/6
f 853/2/6 843/2/6 854/2/6
f 844/2/6 845/2/6 855/2/6
f 854/4/6 844/4/6 855/4/6
f 847/4/6 831/4/6 856/4/6
f 846/4/6 847/4/6 856/4/6
f 831/1/6 832/1/6 857/1/6
f 856/4/6 831/4/6 857/4/6
f 837/4/6 838/4/6 858/4/6
f 838/1/6 839/1/6 859/1/6
f 858/4/6 838/4/6 859/4/6
f 859/1/6 839/1/6 860/1/6
f 826/2/6 848/2/6 861/2/6
f 848/4/6 849/4/6 862/4/6
f 861/2/6 848/2/6 862/2/6
f 849/2/6 850/2/6 863/2/6
f 862/4/6 849/4/6 863/4/6
f 850/2/6 851/2/6 863/2/6
f 863/2/6 851/2/6 864/2/6
f 851/4/6 852/4/6 865/4/6
f 864/2/6 851/2/6 865/2/6
f 852/2/6 853/2/6 866/2/6
f 865/4/6 852/4/6 866/4/6
f 853/4/6 854/4/6 867/4/6
f 866/2/6 853/2/6 867/2/6
f 854/2/6 855/2/6 868/2/6
f 867/4/6 854/4/6 868/4/6
f 858/1/6 859/1/6 869/1/6
f 859/4/6 860/4/6 870/4/6
f 869/1/6 859/1/6 870/1/6
f 860/1/6 839/1/6 871/1/6
f 870/4/6 860/4/6 871/4/6
f 826/2/6 861/2/6 872/2/6
f 861/4/6 862/4/6 873/4/6
f 872/2/6 861/2/6 873/2/6
f 862/2/6 863/2/6 874/2/6
f 873/4/6 862/4/6 874/4/6
f 863/4/6 864/4/6 875/4/6
f 874/2/6 863/2/6 875/2/6
f 864/2/6 865/2/6 876/2/6
f 875/4/6 864/4/6 876/4/6
f 865/2/6 866/2/6 876/2/6
f 876/2/6 866/2/6 877/2/6
f 866/4/6 867/4/6 878/4/6
f 877/2/6 866/2/6 878/2/6
f 867/2/6 868/2/6 879/2/6
f 878/4/6 867/4/6 879/4/6
f 869/4/6 870/4/6 880/4/6
f 870/1/6 871/1/6 881/1/6
f 880/4/6 870/4/6 881/4/6
f 826/2/6 872/2/6 882/2/6
f 872/4/6 873/4/6 883/4/6
f 882/2/6 872/2/6 883/2/6
f 874/2/6 875/2/6 884/2/6
f 883/4/6 873/4/6 884/4/6
f 873/2/6 874/2/6 884/2/6
f 875/2/6 876/2/6 884/2/6
f 876/4/6 877/4/6 885/4/6
f 884/2/6 876/2/6 885/2/6
f 877/2/6 878/2/6 886/2/6
f 885/4/6 877/4/6 886/4/6
f 878/2/6 879/2/6 886/2/6
f 886/2/6 879/2/6 887/2/6
f 845/2/6 790/2/6 888/2/6
f 887/2/6 879/2/6 888/2/6
f 855/2/6 845/2/6 888/2/6
f 790/1/6 846/1/6 888/1/6
f 879/2/6 868/2/6 888/2/6
f 868/2/6 855/2/6 888/2/6
f 846/4/6 856/4/6 889/4/6
f 888/1/6 846/1/6 889/1/6
f 887/2/6 888/2/6 890/2/6
f 890/2/6 888/2/6 891/2/6
f 889/4/6 856/4/6 892/4/6
f 888/4/6 889/4/6 892/4/6
f 856/1/6 857/1/6 893/1/6
f 892/4/6 856/4/6 893/4/6
f 881/1/6 871/1/6 894/1/6
f 880/1/6 881/1/6 894/1/6
f 839/1/6 826/1/6 895/1/6
f 894/1/6 871/1/6 895/1/6
f 871/1/6 839/1/6 895/1/6
f 887/2/6 890/2/6 896/2/6
f 890/4/6 891/4/6 897/4/6
f 896/2/6 890/2/6 897/2/6
f 891/2/6 888/2/6 898/2/6
f 897/4/6 891/4/6 898/4/6
f 898/2/6 888/2/6 899/2/6
f 880/1/6 894/1/6 900/1/6
f 894/4/6 895/4/6 900/4/6
f 900/4/6 895/4/6 901/4/6
f 895/1/6 826/1/6 902/1/6
f 901/4/6 895/4/6 902/4/6
f 826/2/6 882/2/6 903/2/6
f 902/1/6 826/1/6 903/1/6
f 882/4/6 883/4/6 904/4/6
f 903/2/6 882/2/6 904/2/6
f 885/2/6 886/2/6 905/2/6
f 904/4/6 883/4/6 905/4/6
f 883/2/6 884/2/6 905/2/6
f 884/2/6 885/2/6 905/2/6
f 905/2/6 886/2/6 906/2/6
f 906/2/6 886/2/6 907/2/6
f 886/4/6 887/4/6 908/4/6
f 907/2/6 886/2/6 908/2/6
f 887/2/6 896/2/6 909/2/6
f 908/4/6 887/4/6 909/4/6
f 902/4/6 903/4/6 910/4/6
f 901/4/6 902/4/6 910/4/6
f 903/2/6 904/2/6 911/2/6
f 910/4/6 903/4/6 911/4/6
f 904/2/6 905/2/6 911/2/6
f 905/4/6 906/4/6 912/4/6
f 911/2/6 905/2/6 912/2/6
f 906/2/6 907/2/6 913/2/6
f 912/4/6 906/4/6 913/4/6
f 913/2/6 907/2/6 914/2/6
f 914/2/6 907/2/6 915/2/6
f 907/4/6 908/4/6 916/4/6
f 915/2/6 907/2/6 916/2/6
f 908/2/6 909/2/6 917/2/6
f 916/4/6 908/4/6 917/4/6
f 899/2/6 888/2/6 918/2/6
f 888/4/6 892/4/6 918/4/6
f 892/1/6 893/1/6 919/1/6
f 918/4/6 892/4/6 919/4/6
f 911/2/6 912/2/6 920/2/6
f 912/2/6 913/2/6 920/2/6
f 913/4/6 914/4/6 920/4/6
f 914/2/6 915/2/6 921/2/6
f 920/4/6 914/4/6 921/4/6
f 915/4/6 916/4/6 922/4/6
f 921/2/6 915/2/6 922/2/6
f 916/2/6 917/2/6 923/2/6
f 922/4/6 916/4/6 923/4/6
f 909/2/6 896/2/6 924/2/6
f 923/2/6 917/2/6 924/2/6
f 917/2/6 909/2/6 924/2/6
f 896/4/6 897/4/6 924/4/6
f 897/2/6 898/2/6 925/2/6
f 924/4/6 897/4/6 925/4/6
f 898/4/6 899/4/6 926/4/6
f 925/2/6 898/2/6 926/2/6
f 899/2/6 918/2/6 927/2/6
f 926/4/6 899/4/6 927/4/6
f 901/4/6 910/4/6 928/4/6
f 900/1/6 901/1/6 928/1/6
f 910/1/6 911/1/6 929/1/6
f 928/4/6 910/4/6 929/4/6
f 920/2/6 921/2/6 930/2/6
f 929/1/6 911/1/6 930/1/6
f 911/2/6 920/2/6 930/2/6
f 921/4/6 922/4/6 931/4/6
f 930/2/6 921/2/6 931/2/6
f 922/2/6 923/2/6 932/2/6
f 931/4/6 922/4/6 932/4/6
f 923/2/6 924/2/6 932/2/6
f 924/2/6 925/2/6 932/2/6
f 925/4/6 926/4/6 933/4/6
f 932/2/6 925/2/6 933/2/6
f 926/2/6 927/2/6 934/2/6
f 933/4/6 926/4/6 934/4/6
f 880/1/6 900/1/6 935/1/6
f 900/1/6 928/1/6 935/1/6
f 928/1/6 929/1/6 935/1/6
f 929/4/6 930/4/6 936/4/6
f 935/1/6 929/1/6 936/1/6
f 930/2/6 931/2/6 937/2/6
f 936/4/6 930/4/6 937/4/6
f 933/2/6 934/2/6 937/2/6
f 932/2/6 933/2/6 937/2/6
f 931/2/6 932/2/6 937/2/6
f 918/1/6 919/1/6 938/1/6
f 937/2/6 934/2/6 938/2/6
f 927/2/6 918/2/6 938/2/6
f 934/2/6 927/2/6 938/2/6
f 919/1/6 893/1/6 939/1/6
f 938/1/6 919/1/6 939/1/6
f 857/1/6 832/1/6 939/1/6
f 893/1/6 857/1/6 939/1/6
