# MagicaVoxel @ Ephtracy

# group
o 

# material
mtllib open_box.mtl
usemtl palette

# normals
vn -1 0 0
vn 1 0 0
vn 0 0 1
vn 0 0 -1
vn 0 -1 0
vn 0 1 0

# texcoords
vt 0.00585938 0.5
vt 0.189453 0.5
vt 0.193359 0.5

# verts
v -2.4 1.7 1.4
v -2.4 1.7 -1
v -2.4 1.8 1.4
v -2.4 1.8 -1
v -2.2 1.8 1.4
v -2.2 1.8 -1
v -2.2 1.9 1.4
v -2.2 1.9 -1
v -2 1.9 1.4
v -2 1.9 -1
v -2 2 1.4
v -2 2 -1
v -1.8 2 1.4
v -1.8 2 -1
v -1.8 2.1 1.4
v -1.8 2.1 -1
v -1.6 2.1 1.4
v -1.6 2.1 -1
v -1.6 2.2 1.4
v -1.6 2.2 -1
v -1.4 2.2 1.4
v -1.4 2.2 -1
v -1.4 2.3 1.4
v -1.4 2.3 -1
v -1.3 2.3 1.4
v -1.3 2.3 -1
v -1.3 2.4 1.4
v -1.3 2.4 -1
v -1.2 0 1.4
v -1.2 0 -1
v -1.2 2.3 1.4
v -1.2 2.3 -1
v 1.1 0.1 1.3
v 1.1 0.1 -0.9
v 1.1 2.4 1.3
v 1.1 2.4 -0.9
v 1.3 2.2 1.4
v 1.3 2.2 -1
v 1.3 2.3 1.4
v 1.3 2.3 -1
v 1.4 2.1 1.4
v 1.4 2.1 -1
v 1.4 2.2 1.4
v 1.4 2.2 -1
v 1.6 2 1.4
v 1.6 2 -1
v 1.6 2.1 1.4
v 1.6 2.1 -1
v 1.8 1.9 1.4
v 1.8 1.9 -1
v 1.8 2 1.4
v 1.8 2 -1
v 2 1.8 1.4
v 2 1.8 -1
v 2 1.9 1.4
v 2 1.9 -1
v 2.2 1.7 1.4
v 2.2 1.7 -1
v 2.2 1.8 1.4
v 2.2 1.8 -1
v -2.2 1.7 1.4
v -2.2 1.7 -1
v -2.2 1.8 1.4
v -2.2 1.8 -1
v -2 1.8 1.4
v -2 1.8 -1
v -2 1.9 1.4
v -2 1.9 -1
v -1.8 1.9 1.4
v -1.8 1.9 -1
v -1.8 2 1.4
v -1.8 2 -1
v -1.6 2 1.4
v -1.6 2 -1
v -1.6 2.1 1.4
v -1.6 2.1 -1
v -1.4 2.1 1.4
v -1.4 2.1 -1
v -1.4 2.2 1.4
v -1.4 2.2 -1
v -1.3 2.2 1.4
v -1.3 2.2 -1
v -1.3 2.3 1.4
v -1.3 2.3 -1
v -1.1 0.1 1.3
v -1.1 0.1 -0.9
v -1.1 2.4 1.3
v -1.1 2.4 -0.9
v 1.2 0 1.4
v 1.2 0 -1
v 1.2 2.3 1.4
v 1.2 2.3 -1
v 1.3 2.3 1.4
v 1.3 2.3 -1
v 1.3 2.4 1.4
v 1.3 2.4 -1
v 1.4 2.2 1.4
v 1.4 2.2 -1
v 1.4 2.3 1.4
v 1.4 2.3 -1
v 1.6 2.1 1.4
v 1.6 2.1 -1
v 1.6 2.2 1.4
v 1.6 2.2 -1
v 1.8 2 1.4
v 1.8 2 -1
v 1.8 2.1 1.4
v 1.8 2.1 -1
v 2 1.9 1.4
v 2 1.9 -1
v 2 2 1.4
v 2 2 -1
v 2.2 1.8 1.4
v 2.2 1.8 -1
v 2.2 1.9 1.4
v 2.2 1.9 -1
v 2.4 1.7 1.4
v 2.4 1.7 -1
v 2.4 1.8 1.4
v 2.4 1.8 -1
v -2.4 1.7 1.4
v -2.4 1.8 1.4
v -2.2 1.7 1.4
v -2.2 1.8 1.4
v -2.2 1.9 1.4
v -2 1.8 1.4
v -2 1.9 1.4
v -2 2 1.4
v -1.8 1.9 1.4
v -1.8 2 1.4
v -1.8 2.1 1.4
v -1.6 2 1.4
v -1.6 2.1 1.4
v -1.6 2.2 1.4
v -1.4 2.1 1.4
v -1.4 2.2 1.4
v -1.4 2.3 1.4
v -1.3 2.2 1.4
v -1.3 2.3 1.4
v -1.3 2.4 1.4
v -1.2 0 1.4
v -1.2 2.3 1.4
v -0.3 0.2 1.4
v -0.3 0.3 1.4
v -0.3 0.7 1.4
v -0.3 0.8 1.4
v -0.2 0.5 1.4
v -0.2 0.7 1.4
v -0.2 1.9 1.4
v -0.2 2.4 1.4
v -0.0999999 0.3 1.4
v -0.0999999 0.5 1.4
v 0 0.3 1.4
v 0 0.5 1.4
v 0.1 0.5 1.4
v 0.1 0.7 1.4
v 0.2 0.2 1.4
v 0.2 0.3 1.4
v 0.2 0.7 1.4
v 0.2 0.8 1.4
v 0.2 1.9 1.4
v 0.2 2.4 1.4
v 0.5 0.5 1.4
v 0.5 0.6 1.4
v 0.6 0.2 1.4
v 0.6 0.5 1.4
v 0.6 0.6 1.4
v 0.6 0.7 1.4
v 0.7 0.7 1.4
v 0.7 0.8 1.4
v 0.8 0.7 1.4
v 0.8 0.8 1.4
v 0.9 0.2 1.4
v 0.9 0.5 1.4
v 0.9 0.6 1.4
v 0.9 0.7 1.4
v 1 0.5 1.4
v 1 0.6 1.4
v 1.2 0 1.4
v 1.2 2.3 1.4
v 1.3 2.2 1.4
v 1.3 2.3 1.4
v 1.3 2.4 1.4
v 1.4 2.1 1.4
v 1.4 2.2 1.4
v 1.4 2.3 1.4
v 1.6 2 1.4
v 1.6 2.1 1.4
v 1.6 2.2 1.4
v 1.8 1.9 1.4
v 1.8 2 1.4
v 1.8 2.1 1.4
v 2 1.8 1.4
v 2 1.9 1.4
v 2 2 1.4
v 2.2 1.7 1.4
v 2.2 1.8 1.4
v 2.2 1.9 1.4
v 2.4 1.7 1.4
v 2.4 1.8 1.4
v -1.1 0.1 -0.9
v -1.1 2.4 -0.9
v -0.2 1.9 -0.9
v -0.2 2.4 -0.9
v 0.2 1.9 -0.9
v 0.2 2.4 -0.9
v 1.1 0.1 -0.9
v 1.1 2.4 -0.9
v -1.1 0.1 1.3
v -1.1 2.4 1.3
v -0.3 0.2 1.3
v -0.3 0.3 1.3
v -0.3 0.7 1.3
v -0.3 0.8 1.3
v -0.2 0.5 1.3
v -0.2 0.7 1.3
v -0.2 1.9 1.3
v -0.2 2.4 1.3
v -0.0999999 0.3 1.3
v -0.0999999 0.5 1.3
v 0 0.3 1.3
v 0 0.5 1.3
v 0.1 0.5 1.3
v 0.1 0.7 1.3
v 0.2 0.2 1.3
v 0.2 0.3 1.3
v 0.2 0.7 1.3
v 0.2 0.8 1.3
v 0.2 1.9 1.3
v 0.2 2.4 1.3
v 0.5 0.5 1.3
v 0.5 0.6 1.3
v 0.6 0.2 1.3
v 0.6 0.5 1.3
v 0.6 0.6 1.3
v 0.6 0.7 1.3
v 0.7 0.7 1.3
v 0.7 0.8 1.3
v 0.8 0.7 1.3
v 0.8 0.8 1.3
v 0.9 0.2 1.3
v 0.9 0.5 1.3
v 0.9 0.6 1.3
v 0.9 0.7 1.3
v 1 0.5 1.3
v 1 0.6 1.3
v 1.1 0.1 1.3
v 1.1 2.4 1.3
v -2.4 1.7 -1
v -2.4 1.8 -1
v -2.2 1.7 -1
v -2.2 1.8 -1
v -2.2 1.9 -1
v -2 1.8 -1
v -2 1.9 -1
v -2 2 -1
v -1.8 1.9 -1
v -1.8 2 -1
v -1.8 2.1 -1
v -1.6 2 -1
v -1.6 2.1 -1
v -1.6 2.2 -1
v -1.4 2.1 -1
v -1.4 2.2 -1
v -1.4 2.3 -1
v -1.3 2.2 -1
v -1.3 2.3 -1
v -1.3 2.4 -1
v -1.2 0 -1
v -1.2 2.3 -1
v -0.2 1.9 -1
v -0.2 2.4 -1
v 0.2 1.9 -1
v 0.2 2.4 -1
v 1.2 0 -1
v 1.2 2.3 -1
v 1.3 2.2 -1
v 1.3 2.3 -1
v 1.3 2.4 -1
v 1.4 2.1 -1
v 1.4 2.2 -1
v 1.4 2.3 -1
v 1.6 2 -1
v 1.6 2.1 -1
v 1.6 2.2 -1
v 1.8 1.9 -1
v 1.8 2 -1
v 1.8 2.1 -1
v 2 1.8 -1
v 2 1.9 -1
v 2 2 -1
v 2.2 1.7 -1
v 2.2 1.8 -1
v 2.2 1.9 -1
v 2.4 1.7 -1
v 2.4 1.8 -1
v -1.2 0 1.4
v 1.2 0 1.4
v -1.2 0 -1
v 1.2 0 -1
v -2.4 1.7 1.4
v -2.2 1.7 1.4
v 2.2 1.7 1.4
v 2.4 1.7 1.4
v -2.4 1.7 -1
v -2.2 1.7 -1
v 2.2 1.7 -1
v 2.4 1.7 -1
v -2.2 1.8 1.4
v -2 1.8 1.4
v 2 1.8 1.4
v 2.2 1.8 1.4
v -2.2 1.8 -1
v -2 1.8 -1
v 2 1.8 -1
v 2.2 1.8 -1
v -2 1.9 1.4
v -1.8 1.9 1.4
v 1.8 1.9 1.4
v 2 1.9 1.4
v -2 1.9 -1
v -1.8 1.9 -1
v 1.8 1.9 -1
v 2 1.9 -1
v -1.8 2 1.4
v -1.6 2 1.4
v 1.6 2 1.4
v 1.8 2 1.4
v -1.8 2 -1
v -1.6 2 -1
v 1.6 2 -1
v 1.8 2 -1
v -1.6 2.1 1.4
v -1.4 2.1 1.4
v 1.4 2.1 1.4
v 1.6 2.1 1.4
v -1.6 2.1 -1
v -1.4 2.1 -1
v 1.4 2.1 -1
v 1.6 2.1 -1
v -1.4 2.2 1.4
v -1.3 2.2 1.4
v 1.3 2.2 1.4
v 1.4 2.2 1.4
v -1.4 2.2 -1
v -1.3 2.2 -1
v 1.3 2.2 -1
v 1.4 2.2 -1
v -1.3 2.3 1.4
v -1.2 2.3 1.4
v 1.2 2.3 1.4
v 1.3 2.3 1.4
v -1.3 2.3 -1
v -1.2 2.3 -1
v 1.2 2.3 -1
v 1.3 2.3 -1
v -1.1 0.1 1.3
v 1.1 0.1 1.3
v -1.1 0.1 -0.9
v 1.1 0.1 -0.9
v -2.4 1.8 1.4
v -2.2 1.8 1.4
v 2.2 1.8 1.4
v 2.4 1.8 1.4
v -2.4 1.8 -1
v -2.2 1.8 -1
v 2.2 1.8 -1
v 2.4 1.8 -1
v -2.2 1.9 1.4
v -2 1.9 1.4
v 2 1.9 1.4
v 2.2 1.9 1.4
v -2.2 1.9 -1
v -2 1.9 -1
v 2 1.9 -1
v 2.2 1.9 -1
v -2 2 1.4
v -1.8 2 1.4
v 1.8 2 1.4
v 2 2 1.4
v -2 2 -1
v -1.8 2 -1
v 1.8 2 -1
v 2 2 -1
v -1.8 2.1 1.4
v -1.6 2.1 1.4
v 1.6 2.1 1.4
v 1.8 2.1 1.4
v -1.8 2.1 -1
v -1.6 2.1 -1
v 1.6 2.1 -1
v 1.8 2.1 -1
v -1.6 2.2 1.4
v -1.4 2.2 1.4
v 1.4 2.2 1.4
v 1.6 2.2 1.4
v -1.6 2.2 -1
v -1.4 2.2 -1
v 1.4 2.2 -1
v 1.6 2.2 -1
v -1.4 2.3 1.4
v -1.3 2.3 1.4
v 1.3 2.3 1.4
v 1.4 2.3 1.4
v -1.4 2.3 -1
v -1.3 2.3 -1
v 1.3 2.3 -1
v 1.4 2.3 -1
v -1.3 2.4 1.4
v -0.2 2.4 1.4
v 0.2 2.4 1.4
v 1.3 2.4 1.4
v -1.1 2.4 1.3
v -0.2 2.4 1.3
v 0.2 2.4 1.3
v 1.1 2.4 1.3
v -1.1 2.4 -0.9
v -0.2 2.4 -0.9
v 0.2 2.4 -0.9
v 1.1 2.4 -0.9
v -1.3 2.4 -1
v -0.2 2.4 -1
v 0.2 2.4 -1
v 1.3 2.4 -1

# faces
f 3/3/1 2/3/1 1/3/1
f 4/3/1 2/3/1 3/3/1
f 7/2/1 6/2/1 5/2/1
f 8/2/1 6/2/1 7/2/1
f 11/2/1 10/2/1 9/2/1
f 12/2/1 10/2/1 11/2/1
f 15/2/1 14/2/1 13/2/1
f 16/2/1 14/2/1 15/2/1
f 19/2/1 18/2/1 17/2/1
f 20/2/1 18/2/1 19/2/1
f 23/2/1 22/2/1 21/2/1
f 24/2/1 22/2/1 23/2/1
f 27/2/1 26/2/1 25/2/1
f 28/2/1 26/2/1 27/2/1
f 31/2/1 30/2/1 29/2/1
f 32/2/1 30/2/1 31/2/1
f 35/2/1 34/2/1 33/2/1
f 36/2/1 34/2/1 35/2/1
f 39/2/1 38/2/1 37/2/1
f 40/2/1 38/2/1 39/2/1
f 43/2/1 42/2/1 41/2/1
f 44/2/1 42/2/1 43/2/1
f 47/2/1 46/2/1 45/2/1
f 48/2/1 46/2/1 47/2/1
f 51/2/1 50/2/1 49/2/1
f 52/2/1 50/2/1 51/2/1
f 55/2/1 54/2/1 53/2/1
f 56/2/1 54/2/1 55/2/1
f 59/3/1 58/3/1 57/3/1
f 60/3/1 58/3/1 59/3/1
f 61/3/2 62/3/2 63/3/2
f 63/3/2 62/3/2 64/3/2
f 65/2/2 66/2/2 67/2/2
f 67/2/2 66/2/2 68/2/2
f 69/2/2 70/2/2 71/2/2
f 71/2/2 70/2/2 72/2/2
f 73/2/2 74/2/2 75/2/2
f 75/2/2 74/2/2 76/2/2
f 77/2/2 78/2/2 79/2/2
f 79/2/2 78/2/2 80/2/2
f 81/2/2 82/2/2 83/2/2
f 83/2/2 82/2/2 84/2/2
f 85/2/2 86/2/2 87/2/2
f 87/2/2 86/2/2 88/2/2
f 89/2/2 90/2/2 91/2/2
f 91/2/2 90/2/2 92/2/2
f 93/2/2 94/2/2 95/2/2
f 95/2/2 94/2/2 96/2/2
f 97/2/2 98/2/2 99/2/2
f 99/2/2 98/2/2 100/2/2
f 101/2/2 102/2/2 103/2/2
f 103/2/2 102/2/2 104/2/2
f 105/2/2 106/2/2 107/2/2
f 107/2/2 106/2/2 108/2/2
f 109/2/2 110/2/2 111/2/2
f 111/2/2 110/2/2 112/2/2
f 113/2/2 114/2/2 115/2/2
f 115/2/2 114/2/2 116/2/2
f 117/3/2 118/3/2 119/3/2
f 119/3/2 118/3/2 120/3/2
f 123/3/3 122/3/3 121/3/3
f 124/3/3 122/3/3 123/3/3
f 126/2/3 125/2/3 124/2/3
f 127/2/3 125/2/3 126/2/3
f 129/2/3 128/2/3 127/2/3
f 130/2/3 128/2/3 129/2/3
f 132/2/3 131/2/3 130/2/3
f 133/2/3 131/2/3 132/2/3
f 135/2/3 134/2/3 133/2/3
f 136/2/3 134/2/3 135/2/3
f 138/2/3 137/2/3 136/2/3
f 139/2/3 137/2/3 138/2/3
f 142/2/3 140/2/3 139/2/3
f 143/2/3 142/2/3 141/2/3
f 144/2/3 142/2/3 143/2/3
f 145/2/3 142/2/3 144/2/3
f 146/2/3 142/2/3 145/2/3
f 147/2/3 145/2/3 144/2/3
f 148/1/3 146/1/3 145/1/3
f 148/2/3 145/2/3 147/2/3
f 149/2/3 142/2/3 146/2/3
f 150/2/3 140/2/3 142/2/3
f 150/2/3 142/2/3 149/2/3
f 151/1/3 144/1/3 143/1/3
f 151/2/3 147/2/3 144/2/3
f 152/1/3 148/1/3 147/1/3
f 152/2/3 147/2/3 151/2/3
f 153/1/3 151/1/3 143/1/3
f 153/1/3 152/1/3 151/1/3
f 154/1/3 148/1/3 152/1/3
f 154/1/3 152/1/3 153/1/3
f 155/2/3 154/2/3 153/2/3
f 155/1/3 148/1/3 154/1/3
f 156/1/3 146/1/3 148/1/3
f 156/1/3 148/1/3 155/1/3
f 157/2/3 143/2/3 141/2/3
f 157/1/3 153/1/3 143/1/3
f 158/2/3 155/2/3 153/2/3
f 158/1/3 153/1/3 157/1/3
f 158/2/3 156/2/3 155/2/3
f 159/1/3 146/1/3 156/1/3
f 159/2/3 156/2/3 158/2/3
f 160/2/3 149/2/3 146/2/3
f 160/1/3 146/1/3 159/1/3
f 161/3/3 150/3/3 149/3/3
f 161/2/3 149/2/3 160/2/3
f 162/3/3 150/3/3 161/3/3
f 163/2/3 159/2/3 158/2/3
f 163/2/3 158/2/3 157/2/3
f 163/2/3 162/2/3 161/2/3
f 163/2/3 161/2/3 160/2/3
f 163/2/3 160/2/3 159/2/3
f 164/2/3 162/2/3 163/2/3
f 165/2/3 157/2/3 141/2/3
f 165/2/3 163/2/3 157/2/3
f 166/1/3 164/1/3 163/1/3
f 166/2/3 163/2/3 165/2/3
f 167/2/3 162/2/3 164/2/3
f 167/1/3 164/1/3 166/1/3
f 168/2/3 162/2/3 167/2/3
f 169/1/3 166/1/3 165/1/3
f 169/2/3 162/2/3 168/2/3
f 169/1/3 168/1/3 167/1/3
f 169/1/3 167/1/3 166/1/3
f 170/2/3 162/2/3 169/2/3
f 171/1/3 169/1/3 165/1/3
f 171/1/3 170/1/3 169/1/3
f 172/2/3 162/2/3 170/2/3
f 172/1/3 170/1/3 171/1/3
f 173/2/3 165/2/3 141/2/3
f 173/1/3 171/1/3 165/1/3
f 174/1/3 171/1/3 173/1/3
f 175/1/3 171/1/3 174/1/3
f 176/2/3 172/2/3 171/2/3
f 176/1/3 171/1/3 175/1/3
f 177/1/3 175/1/3 174/1/3
f 177/2/3 174/2/3 173/2/3
f 178/2/3 176/2/3 175/2/3
f 178/1/3 175/1/3 177/1/3
f 179/2/3 173/2/3 141/2/3
f 179/2/3 177/2/3 173/2/3
f 179/2/3 178/2/3 177/2/3
f 180/2/3 162/2/3 172/2/3
f 180/2/3 178/2/3 179/2/3
f 180/2/3 172/2/3 176/2/3
f 180/2/3 176/2/3 178/2/3
f 182/2/3 162/2/3 180/2/3
f 183/2/3 162/2/3 182/2/3
f 185/2/3 182/2/3 181/2/3
f 186/2/3 182/2/3 185/2/3
f 188/2/3 185/2/3 184/2/3
f 189/2/3 185/2/3 188/2/3
f 191/2/3 188/2/3 187/2/3
f 192/2/3 188/2/3 191/2/3
f 194/2/3 191/2/3 190/2/3
f 195/2/3 191/2/3 194/2/3
f 197/2/3 194/2/3 193/2/3
f 198/2/3 194/2/3 197/2/3
f 199/3/3 197/3/3 196/3/3
f 200/3/3 197/3/3 199/3/3
f 203/2/3 202/2/3 201/2/3
f 204/2/3 202/2/3 203/2/3
f 205/2/3 203/2/3 201/2/3
f 205/3/3 204/3/3 203/3/3
f 206/3/3 204/3/3 205/3/3
f 207/2/3 205/2/3 201/2/3
f 207/2/3 206/2/3 205/2/3
f 208/2/3 206/2/3 207/2/3
f 209/2/4 210/2/4 211/2/4
f 211/2/4 210/2/4 212/2/4
f 212/2/4 210/2/4 213/2/4
f 213/2/4 210/2/4 214/2/4
f 212/2/4 213/2/4 215/2/4
f 213/1/4 214/1/4 216/1/4
f 215/2/4 213/2/4 216/2/4
f 214/2/4 210/2/4 217/2/4
f 217/2/4 210/2/4 218/2/4
f 211/1/4 212/1/4 219/1/4
f 212/2/4 215/2/4 219/2/4
f 215/1/4 216/1/4 220/1/4
f 219/2/4 215/2/4 220/2/4
f 211/1/4 219/1/4 221/1/4
f 219/1/4 220/1/4 221/1/4
f 220/1/4 216/1/4 222/1/4
f 221/1/4 220/1/4 222/1/4
f 221/2/4 222/2/4 223/2/4
f 222/1/4 216/1/4 223/1/4
f 216/1/4 214/1/4 224/1/4
f 223/1/4 216/1/4 224/1/4
f 209/2/4 211/2/4 225/2/4
f 211/1/4 221/1/4 225/1/4
f 221/2/4 223/2/4 226/2/4
f 225/1/4 221/1/4 226/1/4
f 223/2/4 224/2/4 226/2/4
f 224/1/4 214/1/4 227/1/4
f 226/2/4 224/2/4 227/2/4
f 214/2/4 217/2/4 228/2/4
f 227/1/4 214/1/4 228/1/4
f 217/3/4 218/3/4 229/3/4
f 228/2/4 217/2/4 229/2/4
f 229/3/4 218/3/4 230/3/4
f 225/2/4 226/2/4 231/2/4
f 227/2/4 228/2/4 231/2/4
f 229/2/4 230/2/4 231/2/4
f 228/2/4 229/2/4 231/2/4
f 226/2/4 227/2/4 231/2/4
f 231/2/4 230/2/4 232/2/4
f 209/2/4 225/2/4 233/2/4
f 225/2/4 231/2/4 233/2/4
f 231/1/4 232/1/4 234/1/4
f 233/2/4 231/2/4 234/2/4
f 232/2/4 230/2/4 235/2/4
f 234/1/4 232/1/4 235/1/4
f 235/2/4 230/2/4 236/2/4
f 233/1/4 234/1/4 237/1/4
f 236/2/4 230/2/4 237/2/4
f 235/1/4 236/1/4 237/1/4
f 234/1/4 235/1/4 237/1/4
f 237/2/4 230/2/4 238/2/4
f 233/1/4 237/1/4 239/1/4
f 237/1/4 238/1/4 239/1/4
f 238/2/4 230/2/4 240/2/4
f 239/1/4 238/1/4 240/1/4
f 209/2/4 233/2/4 241/2/4
f 233/1/4 239/1/4 241/1/4
f 241/1/4 239/1/4 242/1/4
f 242/1/4 239/1/4 243/1/4
f 239/2/4 240/2/4 244/2/4
f 243/1/4 239/1/4 244/1/4
f 242/1/4 243/1/4 245/1/4
f 241/2/4 242/2/4 245/2/4
f 243/2/4 244/2/4 246/2/4
f 245/1/4 243/1/4 246/1/4
f 209/2/4 241/2/4 247/2/4
f 241/2/4 245/2/4 247/2/4
f 245/2/4 246/2/4 247/2/4
f 240/2/4 230/2/4 248/2/4
f 247/2/4 246/2/4 248/2/4
f 244/2/4 240/2/4 248/2/4
f 246/2/4 244/2/4 248/2/4
f 249/3/4 250/3/4 251/3/4
f 251/3/4 250/3/4 252/3/4
f 252/2/4 253/2/4 254/2/4
f 254/2/4 253/2/4 255/2/4
f 255/2/4 256/2/4 257/2/4
f 257/2/4 256/2/4 258/2/4
f 258/2/4 259/2/4 260/2/4
f 260/2/4 259/2/4 261/2/4
f 261/2/4 262/2/4 263/2/4
f 263/2/4 262/2/4 264/2/4
f 264/2/4 265/2/4 266/2/4
f 266/2/4 265/2/4 267/2/4
f 267/2/4 268/2/4 270/2/4
f 269/2/4 270/2/4 271/2/4
f 270/2/4 268/2/4 272/2/4
f 271/2/4 270/2/4 272/2/4
f 269/2/4 271/2/4 273/2/4
f 271/3/4 272/3/4 273/3/4
f 273/3/4 272/3/4 274/3/4
f 269/2/4 273/2/4 275/2/4
f 273/2/4 274/2/4 275/2/4
f 275/2/4 274/2/4 276/2/4
f 276/2/4 274/2/4 278/2/4
f 278/2/4 274/2/4 279/2/4
f 277/2/4 278/2/4 281/2/4
f 281/2/4 278/2/4 282/2/4
f 280/2/4 281/2/4 284/2/4
f 284/2/4 281/2/4 285/2/4
f 283/2/4 284/2/4 287/2/4
f 287/2/4 284/2/4 288/2/4
f 286/2/4 287/2/4 290/2/4
f 290/2/4 287/2/4 291/2/4
f 289/2/4 290/2/4 293/2/4
f 293/2/4 290/2/4 294/2/4
f 292/3/4 293/3/4 295/3/4
f 295/3/4 293/3/4 296/3/4
f 299/2/5 298/2/5 297/2/5
f 300/2/5 298/2/5 299/2/5
f 305/3/5 302/3/5 301/3/5
f 306/3/5 302/3/5 305/3/5
f 307/3/5 304/3/5 303/3/5
f 308/3/5 304/3/5 307/3/5
f 313/2/5 310/2/5 309/2/5
f 314/2/5 310/2/5 313/2/5
f 315/2/5 312/2/5 311/2/5
f 316/2/5 312/2/5 315/2/5
f 321/2/5 318/2/5 317/2/5
f 322/2/5 318/2/5 321/2/5
f 323/2/5 320/2/5 319/2/5
f 324/2/5 320/2/5 323/2/5
f 329/2/5 326/2/5 325/2/5
f 330/2/5 326/2/5 329/2/5
f 331/2/5 328/2/5 327/2/5
f 332/2/5 328/2/5 331/2/5
f 337/2/5 334/2/5 333/2/5
f 338/2/5 334/2/5 337/2/5
f 339/2/5 336/2/5 335/2/5
f 340/2/5 336/2/5 339/2/5
f 345/2/5 342/2/5 341/2/5
f 346/2/5 342/2/5 345/2/5
f 347/2/5 344/2/5 343/2/5
f 348/2/5 344/2/5 347/2/5
f 353/2/5 350/2/5 349/2/5
f 354/2/5 350/2/5 353/2/5
f 355/2/5 352/2/5 351/2/5
f 356/2/5 352/2/5 355/2/5
f 357/2/6 358/2/6 359/2/6
f 359/2/6 358/2/6 360/2/6
f 361/3/6 362/3/6 365/3/6
f 365/3/6 362/3/6 366/3/6
f 363/3/6 364/3/6 367/3/6
f 367/3/6 364/3/6 368/3/6
f 369/2/6 370/2/6 373/2/6
f 373/2/6 370/2/6 374/2/6
f 371/2/6 372/2/6 375/2/6
f 375/2/6 372/2/6 376/2/6
f 377/2/6 378/2/6 381/2/6
f 381/2/6 378/2/6 382/2/6
f 379/2/6 380/2/6 383/2/6
f 383/2/6 380/2/6 384/2/6
f 385/2/6 386/2/6 389/2/6
f 389/2/6 386/2/6 390/2/6
f 387/2/6 388/2/6 391/2/6
f 391/2/6 388/2/6 392/2/6
f 393/2/6 394/2/6 397/2/6
f 397/2/6 394/2/6 398/2/6
f 395/2/6 396/2/6 399/2/6
f 399/2/6 396/2/6 400/2/6
f 401/2/6 402/2/6 405/2/6
f 405/2/6 402/2/6 406/2/6
f 403/2/6 404/2/6 407/2/6
f 407/2/6 404/2/6 408/2/6
f 409/2/6 410/2/6 413/2/6
f 410/3/6 411/3/6 414/3/6
f 413/2/6 410/2/6 414/2/6
f 411/2/6 412/2/6 415/2/6
f 414/3/6 411/3/6 415/3/6
f 415/2/6 412/2/6 416/2/6
f 409/2/6 413/2/6 417/2/6
f 416/2/6 412/2/6 420/2/6
f 409/2/6 417/2/6 421/2/6
f 417/2/6 418/2/6 421/2/6
f 418/3/6 419/3/6 422/3/6
f 421/2/6 418/2/6 422/2/6
f 419/2/6 420/2/6 423/2/6
f 422/3/6 419/3/6 423/3/6
f 420/2/6 412/2/6 424/2/6
f 423/2/6 420/2/6 424/2/6
